<svg fill="none" height="32" viewBox="0 0 32 32" width="32" xmlns="http://www.w3.org/2000/svg"><path d="m0 0h32v32h-32z" fill="none"/><circle cx="16" cy="16" fill="#ea4c89" r="15.5"/><path d="m0 0h32v32h-32z" fill="none"/><path clip-rule="evenodd" d="m16 0c-8.83297 0-16 7.16703-16 16 0 8.833 7.16703 16 16 16 8.8156 0 16-7.167 16-16 0-8.83297-7.1844-16-16-16zm10.5683 7.37527c1.9089 2.32538 3.0543 5.29283 3.089 8.50323-.4512-.0867-4.9632-1.0065-9.5098-.4338-.1041-.2256-.1909-.4686-.295-.7115-.2777-.6594-.59-1.3362-.9024-1.9783 5.0325-2.0477 7.3232-4.99785 7.6182-5.37963zm-10.5683-5.01518c3.4707 0 6.6464 1.30152 9.0586 3.43601-.243.34707-2.3081 3.10629-7.1671 4.9284-2.2386-4.11279-4.7201-7.47938-5.1019-7.99999 1.0238-.24295 2.0998-.36442 3.2104-.36442zm-5.8134 1.28416c.3644.4859 2.7939 3.86985 5.0672 7.89585-6.38612 1.7007-12.02603 1.666-12.63341 1.666.88503-4.2343 3.74837-7.75708 7.56621-9.56185zm-7.86122 12.37315c0-.1389 0-.2777 0-.4165.59002.0173 7.21909.1041 14.03902-1.9436.3992.7635.7636 1.5444 1.1107 2.3253-.1736.0521-.3645.1042-.538.1562-7.04556 2.2733-10.79393 8.4859-11.1063 9.0065-2.1692-2.4121-3.50542-5.6225-3.50542-9.1279zm13.67462 13.6572c-3.1584 0-6.07375-1.0759-8.38178-2.8807.24295-.5032 3.01948-5.8481 10.72448-8.5379.0347-.0174.0521-.0174.0868-.0347 1.9262 4.9804 2.7072 9.1626 2.9154 10.36-1.6486.7115-3.4534 1.0933-5.3449 1.0933zm7.6182-2.3427c-.1388-.833-.8677-4.8243-2.6551-9.7354 4.2864-.6768 8.0347.4339 8.5033.5901-.59 3.8004-2.7766 7.0802-5.8482 9.1453z" fill="#c32361" fill-rule="evenodd"/></svg>