<svg fill="none" height="44" viewBox="0 0 132 44" width="132" xmlns="http://www.w3.org/2000/svg"><path d="m0 10.5c0-3.26159 0-4.89239.532843-6.17878.710457-1.7152 2.073177-3.07792 3.788377-3.788377 1.28639-.532843 2.91719-.532843 6.17878-.532843h111c3.262 0 4.892 0 6.179.532843 1.715.710457 3.078 2.073177 3.788 3.788377.533 1.28639.533 2.91719.533 6.17878v23c0 3.2616 0 4.8924-.533 6.1788-.71 1.7152-2.073 3.0779-3.788 3.7884-1.287.5328-2.917.5328-6.179.5328h-111c-3.26159 0-4.89239 0-6.17878-.5328-1.7152-.7105-3.07792-2.0732-3.788377-3.7884-.532843-1.2864-.532843-2.9172-.532843-6.1788z" fill="#000"/><g fill="#fff"><path d="m89.6785 21.1211v2.5202h-1.5797v1.6526h1.5797v5.6155c0 1.9175.8674 2.6845 3.0497 2.6845.3835 0 .7487-.0457 1.0683-.1004v-1.6345c-.2739.0274-.4474.0457-.7487.0457-.977 0-1.4062-.4566-1.4062-1.4975v-5.1133h2.1549v-1.6526h-2.1549v-2.5202z"/><path d="m99.3557 33.7309c2.9033 0 4.6843-1.9449 4.6843-5.1681 0-3.2049-1.79-5.1589-4.6843-5.1589-2.9036 0-4.6932 1.954-4.6932 5.1589 0 3.2232 1.7805 5.1681 4.6932 5.1681zm0-1.744c-1.7074 0-2.6662-1.251-2.6662-3.4241 0-2.1549.9588-3.415 2.6662-3.415 1.6983 0 2.6663 1.2601 2.6663 3.415 0 2.164-.968 3.4241-2.6663 3.4241z"/><path d="m105.563 33.5391h1.963v-5.8711c0-1.3971 1.05-2.3375 2.539-2.3375.347 0 .931.0639 1.095.1187v-1.9358c-.21-.0548-.584-.0822-.876-.0822-1.297 0-2.402.7123-2.685 1.6893h-.146v-1.5249h-1.89z"/><path d="m116.035 25.0748c1.452 0 2.401 1.0135 2.447 2.5749h-5.022c.11-1.5522 1.123-2.5749 2.575-2.5749zm2.438 5.7798c-.365.7762-1.178 1.2053-2.365 1.2053-1.571 0-2.584-1.1048-2.648-2.8488v-.1096h7.022v-.6848c0-3.1228-1.671-5.0128-4.438-5.0128-2.803 0-4.584 2.0179-4.584 5.1954 0 3.1776 1.744 5.1316 4.593 5.1316 2.274 0 3.862-1.0957 4.31-2.8763z"/><path d="m76.8045 29.8671c.1515 2.4417 2.1862 4.0032 5.2146 4.0032 3.2367 0 5.2619-1.6372 5.2619-4.2492 0-2.0537-1.1546-3.1894-3.9559-3.8424l-1.5047-.3691c-1.7792-.4164-2.4985-.9747-2.4985-1.9495 0-1.2303 1.1168-2.0347 2.7919-2.0347 1.5899 0 2.6877.7855 2.8864 2.0442h2.0632c-.1231-2.2998-2.1483-3.9181-4.9212-3.9181-2.9812 0-4.9686 1.6183-4.9686 4.0505 0 2.0064 1.1262 3.1988 3.5963 3.7761l1.7603.4259c1.8076.4259 2.6025 1.0505 2.6025 2.0915 0 1.2114-1.2492 2.0915-2.9527 2.0915-1.8265 0-3.0947-.8233-3.2745-2.1199z"/><path d="m56.4685 23.4312c-1.3514 0-2.5202.6757-3.1228 1.808h-.1461v-1.6436h-1.8901v13.2489h1.9632v-4.812h.1552c.5204 1.0501 1.6435 1.671 3.0588 1.671 2.511 0 4.1089-1.9814 4.1089-5.1407s-1.5979-5.1316-4.1271-5.1316zm-.557 8.51c-1.6436 0-2.6754-1.2966-2.6754-3.3693 0-2.0818 1.0318-3.3784 2.6845-3.3784 1.6618 0 2.6571 1.2692 2.6571 3.3693 0 2.1092-.9953 3.3784-2.6662 3.3784z"/><path d="m67.4649 23.4312c-1.3513 0-2.5201.6757-3.1227 1.808h-.1461v-1.6436h-1.8901v13.2489h1.9631v-4.812h.1553c.5204 1.0501 1.6435 1.671 3.0588 1.671 2.511 0 4.1089-1.9814 4.1089-5.1407s-1.5979-5.1316-4.1272-5.1316zm-.5569 8.51c-1.6436 0-2.6754-1.2966-2.6754-3.3693 0-2.0818 1.0318-3.3784 2.6845-3.3784 1.6618 0 2.6571 1.2692 2.6571 3.3693 0 2.1092-.9953 3.3784-2.6662 3.3784z"/><path d="m47.7873 33.5391h2.2524l-4.9306-13.6564h-2.2808l-4.9307 13.6564h2.1767l1.2587-3.6247h5.2051zm-3.9275-11.1768h.1609l1.978 5.7729h-4.1263z"/><path d="m39.2163 9.58196v6.58794h2.3786c1.9631 0 3.0999-1.2099 3.0999-3.3145 0-2.0727-1.1459-3.27344-3.0999-3.27344zm1.0227.93134h1.2418c1.365 0 2.1731.8674 2.1731 2.3558 0 1.5111-.7944 2.3694-2.1731 2.3694h-1.2418z"/><path d="m48.1764 16.2657c1.4518 0 2.3421-.9724 2.3421-2.584 0-1.6025-.8948-2.5795-2.3421-2.5795-1.4518 0-2.3466.977-2.3466 2.5795 0 1.6116.8902 2.584 2.3466 2.584zm0-.872c-.8537 0-1.3331-.6254-1.3331-1.712 0-1.0774.4794-1.7075 1.3331-1.7075.8492 0 1.3331.6301 1.3331 1.7075 0 1.082-.4839 1.712-1.3331 1.712z"/><path d="m58.0998 11.1981h-.9815l-.8857 3.7939h-.0776l-1.0227-3.7939h-.9405l-1.0226 3.7939h-.0731l-.8902-3.7939h-.9953l1.3696 4.9718h1.009l1.0227-3.6615h.0776l1.0272 3.6615h1.0181z"/><path d="m59.2302 16.1699h.9816v-2.9082c0-.7761.4611-1.2601 1.187-1.2601s1.0729.3972 1.0729 1.1962v2.9721h.9816v-3.2187c0-1.1824-.6118-1.849-1.7212-1.849-.7487 0-1.2418.3333-1.4838.8857h-.073v-.7898h-.9451z"/><path d="m64.9991 16.1699h.9816v-6.91209h-.9816z"/><path d="m69.6723 16.2657c1.4518 0 2.3421-.9724 2.3421-2.584 0-1.6025-.8949-2.5795-2.3421-2.5795-1.4518 0-2.3466.977-2.3466 2.5795 0 1.6116.8902 2.584 2.3466 2.584zm0-.872c-.8537 0-1.3331-.6254-1.3331-1.712 0-1.0774.4794-1.7075 1.3331-1.7075.8492 0 1.3331.6301 1.3331 1.7075 0 1.082-.4839 1.712-1.3331 1.712z"/><path d="m74.939 15.4257c-.5342 0-.9222-.2602-.9222-.7076 0-.4383.3104-.6712.9952-.7168l1.2144-.0776v.4154c0 .6164-.5478 1.0866-1.2874 1.0866zm-.2511.8264c.6528 0 1.1961-.2831 1.4929-.7807h.0776v.6985h.945v-3.3967c0-1.0501-.7031-1.671-1.9494-1.671-1.1277 0-1.9312.5479-2.0316 1.4016h.9496c.1096-.3515.4885-.5524 1.0363-.5524.6711 0 1.0181.2968 1.0181.8218v.4291l-1.3468.0777c-1.1824.073-1.849.5889-1.849 1.4837 0 .9085.6985 1.4884 1.6573 1.4884z"/><path d="m80.5344 16.2521c.6848 0 1.2646-.3242 1.5613-.8675h.0777v.7853h.9404v-6.91209h-.9815v2.73009h-.0731c-.2693-.5478-.8446-.872-1.5248-.872-1.2555 0-2.0636.9953-2.0636 2.5658 0 1.5751.7989 2.5704 2.0636 2.5704zm.2785-4.255c.8217 0 1.3376.6528 1.3376 1.6892 0 1.0409-.5113 1.6846-1.3376 1.6846-.831 0-1.3286-.6346-1.3286-1.6892 0-1.0455.5022-1.6846 1.3286-1.6846z"/><path d="m89.479 16.2657c1.4518 0 2.342-.9724 2.342-2.584 0-1.6025-.8948-2.5795-2.342-2.5795-1.4519 0-2.3467.977-2.3467 2.5795 0 1.6116.8903 2.584 2.3467 2.584zm0-.872c-.8538 0-1.3331-.6254-1.3331-1.712 0-1.0774.4793-1.7075 1.3331-1.7075.8491 0 1.3331.6301 1.3331 1.7075 0 1.082-.484 1.712-1.3331 1.712z"/><path d="m93.1203 16.1699h.9816v-2.9082c0-.7761.4611-1.2601 1.187-1.2601s1.0729.3972 1.0729 1.1962v2.9721h.9816v-3.2187c0-1.1824-.6118-1.849-1.7212-1.849-.7487 0-1.2418.3333-1.4838.8857h-.073v-.7898h-.9451z"/><path d="m101.864 9.96089v1.26001h-.79v.8264h.79v2.8077c0 .9588.434 1.3423 1.525 1.3423.192 0 .374-.0229.534-.0503v-.8172c-.137.0137-.224.0229-.374.0229-.489 0-.703-.2283-.703-.7488v-2.5566h1.077v-.8264h-1.077v-1.26001z"/><path d="m105.241 16.1699h.981v-2.9036c0-.7533.448-1.2601 1.251-1.2601.694 0 1.064.4018 1.064 1.1961v2.9676h.981v-3.2095c0-1.1825-.652-1.8536-1.712-1.8536-.748 0-1.273.3333-1.515.8903h-.078v-2.73929h-.972z"/><path d="m113.059 11.9377c.726 0 1.201.5068 1.224 1.2875h-2.511c.055-.7762.561-1.2875 1.287-1.2875zm1.219 2.8899c-.182.3881-.589.6027-1.182.6027-.785 0-1.292-.5524-1.324-1.4244v-.0548h3.511v-.3424c0-1.5614-.836-2.5065-2.219-2.5065-1.402 0-2.292 1.009-2.292 2.5978 0 1.5887.872 2.5657 2.297 2.5657 1.136 0 1.931-.5478 2.154-1.4381z"/><path d="m27.2459 22.3309c.0238-1.8491 1.0169-3.5987 2.5922-4.5672-.9938-1.4194-2.6584-2.3193-4.3902-2.3735-1.8472-.1939-3.638 1.1053-4.5792 1.1053-.9595 0-2.4088-1.086-3.9694-1.0539-2.0342.0657-3.9305 1.2222-4.9202 3.0006-2.1274 3.6833-.5405 9.0964 1.4973 12.0737 1.0196 1.4579 2.2112 3.0864 3.7704 3.0286 1.5258-.0632 2.0956-.9729 3.9374-.9729 1.8246 0 2.3592.9729 3.9501.9362 1.6372-.0265 2.6687-1.4643 3.6525-2.936.7326-1.0388 1.2963-2.1869 1.6703-3.4018-1.9241-.8138-3.2089-2.75-3.2112-4.8391z"/><path d="m24.2411 13.4322c.8927-1.0716 1.3325-2.449 1.226-3.83967-1.3639.14324-2.6236.79507-3.5284 1.82557-.8847 1.0069-1.3451 2.36-1.2581 3.6975 1.3643.0141 2.7056-.6201 3.5605-1.6834z"/></g></svg>