<svg fill="none" height="454" viewBox="0 0 1625 454" width="1625" xmlns="http://www.w3.org/2000/svg" xmlns:xlink="http://www.w3.org/1999/xlink"><clipPath id="a"><path d="m0 0h1624.6v453.5h-1624.6z"/></clipPath><g clip-path="url(#a)" fill="currentColor"><path d="m1344.8 59.8c-19.9-31.3-58.2-40-89.8 4.8-28.7 40.8-78.1 139.4-97.2 194.9-11.9 34.6-3.3 57.9 15.1 63 14.7 4 33.6-2.9 43.5-41.2 6-23.3 14.2-40.9 30.4-43.3 43.4-6.5 80.2 66.7 91.1 81.7 22.5 30.8 61.4 16.8 74.1.3 12-15.7 14.8-38 8.5-71.5-14.3-69.4-59.2-162.6-75.7-188.7zm-15.7 125.3c-11 10.1-49.1-1.8-53.1-27.2-2.2-13.6 11.5-27.3 21.8-29.5 6.2-1.3 13.1.2 19.1 6.8 20.7 22.5 20.3 43 12.2 49.9z"/><path d="m1557.7 275.3c-3.6-22.4 33.3-34.5 40.5-56.5 3.5-10.6 1.8-22-5.7-29.6-14.8-14.8-55.3.1-63.7-19.6-13.2-31.2 68.2-77.7 41.1-111.9-23.4-29.6-81.6 8.2-102.4 26.9-18.7 16.8-31.9 41.9-28 66.7 4.1 26.3 25.2 46.4 36.5 70.5 12.4 26.6 13.9 51.2-4.4 80.4-22.5 35.9-33.3 67.7-19.2 89.5 17.6 27.4 87.8 22.1 123.5 2.8 23.9-12.9 46.1-35.8 46.2-63 .3-46.4-59.9-27.9-64.4-56.2z"/><path d="m84.1 68.4h-30.1l-54 140.5h25.5l13.8-37.7h58.5l13.8 37.7h26.5zm-37 81.7 21.4-58.4h.3l21.4 58.4z"/><path d="m204.3 202.9c2-1.8 3.8-3.9 5.4-6v11.9h24.3v-99.5h-24.3v55.3c0 4.5-.4 8.4-1.3 11.9s-2.1 6.4-3.9 8.7c-1.7 2.4-3.9 4.1-6.5 5.3s-5.7 1.8-9.3 1.8c-3.5 0-6.6-.6-9.2-1.8s-4.8-2.9-6.6-5.3-3.1-5.3-4-8.7c-.9-3.5-1.3-7.4-1.3-11.9v-55.3h-24.2v60.3c0 6.5.7 12.3 2.2 17.5s3.7 9.6 6.7 13.2 6.7 6.4 11.2 8.4c4.5 1.9 9.8 2.9 15.9 2.9 3.6 0 6.9-.4 9.9-1.1s5.7-1.7 8.2-3c2.5-1.2 4.8-2.7 6.8-4.6z"/><path d="m328.3 159.7c-3.1-2.3-6.7-4.2-10.9-5.7s-8.8-2.8-13.9-3.9l-15-3.1c-2.4-.5-4.4-1.1-6.3-1.8-1.8-.7-3.3-1.5-4.6-2.5-1.2-1-2.2-2.1-2.8-3.4s-1-2.9-1-4.6v-.2c0-1.8.4-3.4 1.3-4.8s2.1-2.7 3.6-3.7 3.4-1.8 5.5-2.4 4.4-.9 6.8-.9c2.6 0 5 .3 7.2.8s4.1 1.3 5.7 2.5c1.6 1.1 3 2.6 4.2 4.3 1.1 1.7 2.1 3.7 2.8 6h23.9c-.8-4.8-2.4-9-4.8-12.8-2.4-3.7-5.4-6.9-9.2-9.5-3.7-2.6-8.1-4.5-13-5.8s-10.4-2-16.5-2c-5.9 0-11.4.7-16.5 2.2s-9.5 3.5-13.2 6.1-6.6 5.7-8.7 9.4c-2.1 3.6-3.2 7.7-3.2 12.1v.2c0 4.1.7 7.8 2.2 11 1.5 3.3 3.5 6.1 6.2 8.5 2.6 2.4 5.8 4.4 9.4 6.1s7.6 3 12 3.9l15.3 3.2c2.9.6 5.6 1.3 7.9 2s4.3 1.6 6 2.6c1.7 1.1 2.9 2.3 3.9 3.8.9 1.5 1.4 3.3 1.4 5.5v.2c0 1.3-.2 2.6-.7 3.7-.4 1.1-1.1 2.1-1.8 3.1-.8.9-1.7 1.7-2.9 2.4-1.1.7-2.4 1.2-3.8 1.7-1.4.4-2.9.8-4.6 1s-3.4.3-5.2.3c-3.2 0-6.2-.4-8.7-1.1-2.6-.7-4.8-1.8-6.7-3.2s-3.4-3.2-4.6-5.3-2.1-4.5-2.7-7.2h-24c.6 4.8 2.1 9.3 4.4 13.3s5.4 7.5 9.3 10.5 8.6 5.3 14 7 11.6 2.6 18.6 2.6c6.4 0 12.2-.7 17.5-2.1s9.9-3.5 13.7-6.2c3.9-2.7 6.9-6 9-9.9 2.2-3.9 3.2-8.3 3.2-13.3v-.3c0-4.6-.9-8.5-2.6-11.8-1.6-3.3-4-6.2-7.1-8.5z"/><path d="m360 176.9c0 5.8.6 10.7 1.9 14.8 1.3 4 3.3 7.3 6.1 9.9 2.8 2.5 6.4 4.4 10.8 5.6 4.5 1.2 9.9 1.8 16.2 1.8h10.8v-19.7h-5.6c-2.7 0-5-.2-7-.6s-3.7-1.2-5-2.3-2.3-2.7-3-4.8c-.7-2-1-4.7-1-7.9v-44.7h22.2v-19.7h-22.2v-26.3h-24.2v26.3h-14.9v19.7h14.9z"/><path d="m456.4 137.6c2.4-2.2 5.2-3.7 8.6-4.7 3.3-1 7.1-1.4 11.3-1.4h6v-23.4h-1.8c-3.8 0-7.4.5-10.7 1.4s-6.3 2.2-8.9 4c-2.7 1.7-5 3.8-7.1 6.2-2 2.4-3.7 5.1-5.1 8v-18.3h-23.9v99.5h24.2v-50c0-5 .6-9.3 1.9-12.8s3.1-6.3 5.5-8.5z"/><path d="m580.9 202c-.4-2.3-.7-4.8-1-7.4s-.4-5.3-.5-8.2-.1-6.1-.1-9.6l.2-28c.1-7.6-.9-14.2-2.8-19.6s-4.8-9.9-8.5-13.3c-3.7-3.5-8.3-6-13.7-7.6s-11.5-2.4-18.3-2.4c-6.7 0-12.7.8-17.9 2.5-5.3 1.7-9.7 4-13.5 7.1-3.7 3-6.7 6.6-8.9 10.8s-3.5 8.8-4 13.9h24.2c.1-2.7.7-5.2 1.6-7.3s2.2-3.9 3.9-5.4 3.7-2.6 6-3.3c2.4-.8 5.1-1.1 8.2-1.1s5.8.4 8.2 1.3 4.4 2.2 6.1 4.1c1.7 1.8 3 4.1 3.9 6.9s1.3 6.1 1.3 9.7v1.9c-10 .6-19.2 1.6-27.5 3-8.5 1.4-15.7 3.4-21.7 6.1s-10.7 6.2-14 10.4-5 9.5-5 15.8c0 4.6 1 8.9 2.9 12.5s4.5 6.7 7.8 9.2 7.2 4.4 11.6 5.8c4.4 1.3 9.1 2 14 2 4.1 0 7.9-.4 11.4-1.1s6.7-1.8 9.6-3.2 5.5-3.1 7.8-5.2c2.3-2 4.3-4.4 6.1-7 .1 1.4.1 2.7.2 4s.1 2.5.2 3.6.2 2.2.4 3.2.3 1.9.5 2.7h22.8c-.6-2.2-1.1-4.4-1.5-6.8zm-24.9-33.5c0 3.1-.3 5.8-.9 8.4-.6 2.5-1.4 4.8-2.5 6.7-1.1 2-2.5 3.7-4 5.2-1.6 1.5-3.3 2.7-5.2 3.6-1.9 1-3.9 1.7-6.1 2.1-2.2.5-4.5.7-6.9.7-2.7 0-5.2-.3-7.4-1-2.2-.6-4.1-1.5-5.7-2.7s-2.8-2.6-3.7-4.3-1.3-3.6-1.3-5.8v-.2c0-3.2.9-5.8 2.8-8 1.9-2.1 4.6-3.9 8.3-5.3s8.3-2.5 13.8-3.3c5.4-.8 11.6-1.4 18.7-1.8v5.7z"/><path d="m623.5 68.4h-24.2v140.4h24.2z"/><path d="m668.9 68.4h-24.2v23.9h24.2z"/><path d="m668.9 109.3h-24.2v99.5h24.2z"/><path d="m777.5 194.7c-.3-2.6-.4-5.3-.5-8.2s-.1-6.1-.1-9.6l.2-28c.1-7.6-.9-14.2-2.8-19.6s-4.8-9.9-8.5-13.3c-3.7-3.5-8.3-6-13.7-7.6s-11.5-2.4-18.3-2.4c-6.7 0-12.7.8-17.9 2.5-5.3 1.7-9.7 4-13.5 7.1-3.7 3-6.7 6.6-8.9 10.8s-3.5 8.8-4 13.9h24.2c.1-2.7.7-5.2 1.6-7.3s2.2-3.9 3.9-5.4 3.7-2.6 6-3.3c2.4-.8 5.1-1.1 8.2-1.1s5.8.4 8.2 1.3 4.4 2.2 6.1 4.1c1.7 1.8 3 4.1 3.9 6.9s1.3 6.1 1.3 9.7v1.9c-10 .6-19.2 1.6-27.5 3-8.5 1.4-15.7 3.4-21.7 6.1s-10.7 6.2-14 10.4-5 9.5-5 15.8v.2c0 4.6 1 8.7 2.9 12.3s4.5 6.7 7.8 9.2 7.2 4.4 11.6 5.8c4.4 1.3 9.1 2 14 2 4.1 0 7.9-.4 11.4-1.1s6.7-1.8 9.6-3.2 5.5-3.1 7.8-5.2c2.3-2 4.3-4.4 6.1-7 .1 1.4.1 2.7.2 4s.1 2.5.2 3.6.2 2.2.4 3.2.3 1.9.5 2.7h22.8c-.6-2.2-1.1-4.5-1.5-6.8-.4-2.4-.8-4.9-1-7.4zm-23.9-26.2c0 3.1-.3 5.8-.9 8.4-.6 2.5-1.4 4.8-2.5 6.7-1.1 2-2.5 3.7-4 5.2-1.6 1.5-3.3 2.7-5.2 3.6-1.9 1-3.9 1.7-6.1 2.1-2.2.5-4.5.7-6.9.7-2.7 0-5.2-.3-7.4-1-2.2-.6-4.1-1.5-5.7-2.7s-2.8-2.6-3.7-4.3-1.3-3.6-1.3-5.8v-.2c0-3.2.9-5.8 2.8-8 1.9-2.1 4.6-3.9 8.3-5.3s8.3-2.5 13.8-3.3c5.4-.8 11.6-1.4 18.7-1.8v5.7z"/><path d="m884.6 131c-1.5-5.2-3.7-9.6-6.7-13.3-3-3.6-6.7-6.4-11.2-8.4-4.5-1.9-9.8-2.9-16-2.9-3.6 0-6.8.4-9.8 1.1s-5.7 1.7-8.2 2.9-4.7 2.8-6.7 4.5c-2 1.8-3.9 3.8-5.6 6v-11.7h-24.2v99.5h24.2v-55.4c0-4.5.4-8.4 1.3-11.9s2.2-6.4 3.9-8.7c1.8-2.3 3.9-4.1 6.6-5.3 2.6-1.2 5.7-1.8 9.2-1.8 3.6 0 6.7.6 9.3 1.8s4.9 3 6.6 5.3c1.8 2.3 3.1 5.2 3.9 8.7s1.2 7.4 1.2 11.9v55.4h24.3v-60.3c.2-6.3-.6-12.2-2.1-17.4z"/><path d="m587.6 234.9h-24.2v140.4h24.2z"/><path d="m543.7 361.2c-.3-2.6-.4-5.3-.5-8.2s-.1-6.1-.1-9.6l.2-28c.1-7.6-.9-14.2-2.8-19.6s-4.8-9.9-8.5-13.3c-3.7-3.5-8.3-6-13.7-7.6s-11.5-2.4-18.3-2.4c-6.7 0-12.7.8-17.9 2.5-5.3 1.7-9.7 4-13.5 7.1-3.7 3-6.7 6.6-8.9 10.8s-3.5 8.8-4 13.9h24.3c.1-2.7.7-5.2 1.6-7.3s2.2-3.9 3.9-5.4 3.7-2.6 6-3.3c2.4-.8 5.1-1.1 8.2-1.1s5.8.4 8.2 1.3 4.4 2.2 6.1 4.1c1.7 1.8 3 4.1 3.9 6.9s1.3 6.1 1.3 9.7v1.9c-10 .6-19.2 1.6-27.5 3-8.5 1.4-15.7 3.4-21.7 6.1s-10.7 6.2-14 10.4-5 9.5-5 15.8v.2c0 4.6 1 8.7 2.9 12.3s4.5 6.7 7.8 9.2 7.2 4.4 11.6 5.8c4.4 1.3 9.1 2 14 2 4.1 0 7.9-.4 11.4-1.1s6.7-1.8 9.6-3.2 5.5-3.1 7.8-5.2c2.3-2 4.3-4.4 6.1-7 .1 1.4.1 2.7.2 4s.1 2.5.2 3.6.2 2.2.4 3.2.3 1.9.5 2.7h22.8c-.6-2.2-1.1-4.5-1.5-6.8-.5-2.4-.8-4.9-1.1-7.4zm-23.9-26.2c0 3.1-.3 5.8-.9 8.4-.6 2.5-1.4 4.8-2.5 6.7-1.1 2-2.5 3.7-4 5.2-1.6 1.5-3.3 2.7-5.2 3.6-1.9 1-3.9 1.7-6.1 2.1-2.2.5-4.5.7-6.9.7-2.7 0-5.2-.3-7.4-1-2.2-.6-4.1-1.5-5.7-2.7s-2.8-2.6-3.7-4.3-1.3-3.6-1.3-5.8v-.2c0-3.2.9-5.8 2.8-8 1.9-2.1 4.6-3.9 8.3-5.3s8.3-2.5 13.8-3.3c5.4-.8 11.6-1.4 18.7-1.8v5.7z"/><path d="m368.1 310.9c1.2-4.3 3-7.8 5.3-10.7s5-5.1 8.1-6.7c3.2-1.6 6.6-2.3 10.5-2.3 3.1 0 5.9.4 8.5 1.2s5 2 7 3.5c2.1 1.5 3.8 3.4 5.3 5.7 1.4 2.3 2.5 4.9 3.2 7.8h24.4c-1.1-5.3-2.9-10.3-5.6-14.8-2.6-4.5-6-8.3-10.1-11.6-4.1-3.2-8.9-5.7-14.5-7.5-5.5-1.8-11.7-2.7-18.5-2.7-7.8 0-14.8 1.3-21 3.9s-11.6 6.2-16 10.8-7.8 10.2-10.2 16.7-3.6 13.6-3.6 21.3v.2c0 7.7 1.2 14.8 3.6 21.3s5.8 12 10.2 16.7 9.7 8.3 16 10.9c6.2 2.6 13.2 3.9 21 3.9 6.8 0 13-.9 18.5-2.7s10.4-4.3 14.5-7.6c4.1-3.2 7.5-7.1 10.1-11.6s4.5-9.4 5.6-14.8h-24.4c-.7 2.9-1.8 5.5-3.2 7.8s-3.2 4.2-5.3 5.7-4.4 2.7-7 3.5-5.4 1.2-8.5 1.2c-3.8 0-7.3-.8-10.5-2.3-3.2-1.6-5.9-3.8-8.1-6.7-2.3-2.9-4-6.5-5.3-10.7-1.2-4.2-1.9-9-1.9-14.4v-.2c.1-5.8.7-10.6 1.9-14.8z"/><path d="m325.2 234.9h-24.2v23.9h24.2z"/><path d="m325.2 275.8h-24.2v99.5h24.2z"/><path d="m273.2 284.2c-3-3.6-6.7-6.4-11.2-8.4-4.5-1.9-9.8-2.9-16-2.9-3.6 0-6.8.4-9.8 1.1s-5.7 1.7-8.2 2.9-4.7 2.8-6.7 4.5c-2 1.8-3.9 3.8-5.6 6v-52.5h-24.2v140.4h24.2v-55.4c0-4.5.4-8.4 1.3-11.9s2.2-6.4 3.9-8.7c1.8-2.3 3.9-4.1 6.6-5.3 2.6-1.2 5.7-1.8 9.2-1.8 3.6 0 6.7.6 9.3 1.8s4.9 3 6.6 5.3c1.8 2.3 3.1 5.2 3.9 8.7s1.2 7.4 1.2 11.9v55.4h24.3v-60.3c0-6.5-.7-12.4-2.2-17.6-1.4-5.1-3.6-9.6-6.6-13.2z"/><path d="m151.8 249.5h-24.3v26.3h-14.9v19.7h14.9v47.9c0 5.8.6 10.7 1.9 14.8 1.3 4 3.3 7.3 6.1 9.9 2.8 2.5 6.4 4.4 10.8 5.6 4.5 1.2 9.9 1.8 16.2 1.8h10.8v-19.7h-5.6c-2.7 0-5-.2-7-.6s-3.7-1.2-5-2.3-2.3-2.7-3-4.8c-.7-2-1-4.7-1-7.9v-44.5h22.3v-19.7h-22.2z"/><path d="m35.5 315.1h62v-21.3h-62v-37.6h68.9v-21.3h-94.1v140.4h94.5v-21.3h-69.3z"/><path d="m1034.7 0h-9.7v453.5h9.7z"/></g></svg>