<svg fill="none" height="44" viewBox="0 0 149 44" width="149" xmlns="http://www.w3.org/2000/svg" xmlns:xlink="http://www.w3.org/1999/xlink"><filter id="a" color-interpolation-filters="sRGB" filterUnits="userSpaceOnUse" height="28.2927" width="25.3987" x="10.9703" y="7.85498"><feFlood flood-opacity="0" result="BackgroundImageFix"/><feBlend in="SourceGraphic" in2="BackgroundImageFix" mode="normal" result="shape"/><feColorMatrix in="SourceAlpha" result="hardAlpha" type="matrix" values="0 0 0 0 0 0 0 0 0 0 0 0 0 0 0 0 0 0 127 0"/><feOffset dy="-.15"/><feComposite in2="hardAlpha" k2="-1" k3="1" operator="arithmetic"/><feColorMatrix type="matrix" values="0 0 0 0 0 0 0 0 0 0 0 0 0 0 0 0 0 0 0.12 0"/><feBlend in2="shape" mode="normal" result="effect1_innerShadow_211_74227"/><feColorMatrix in="SourceAlpha" result="hardAlpha" type="matrix" values="0 0 0 0 0 0 0 0 0 0 0 0 0 0 0 0 0 0 127 0"/><feOffset dy=".15"/><feComposite in2="hardAlpha" k2="-1" k3="1" operator="arithmetic"/><feColorMatrix type="matrix" values="0 0 0 0 1 0 0 0 0 1 0 0 0 0 1 0 0 0 0.25 0"/><feBlend in2="effect1_innerShadow_211_74227" mode="normal" result="effect2_innerShadow_211_74227"/></filter><filter id="b" color-interpolation-filters="sRGB" filterUnits="userSpaceOnUse" height="14.1467" width="18.3546" x="11.4796" y="22.001"><feFlood flood-opacity="0" result="BackgroundImageFix"/><feBlend in="SourceGraphic" in2="BackgroundImageFix" mode="normal" result="shape"/><feColorMatrix in="SourceAlpha" result="hardAlpha" type="matrix" values="0 0 0 0 0 0 0 0 0 0 0 0 0 0 0 0 0 0 127 0"/><feOffset dy="-.15"/><feComposite in2="hardAlpha" k2="-1" k3="1" operator="arithmetic"/><feColorMatrix type="matrix" values="0 0 0 0 0 0 0 0 0 0 0 0 0 0 0 0 0 0 0.08 0"/><feBlend in2="shape" mode="normal" result="effect1_innerShadow_211_74227"/></filter><linearGradient id="c" gradientUnits="userSpaceOnUse" x1="23.9809" x2="5.52072" y1="9.57983" y2="28.04"><stop offset="0" stop-color="#00a0ff"/><stop offset=".0066" stop-color="#00a1ff"/><stop offset=".2601" stop-color="#00beff"/><stop offset=".5122" stop-color="#00d2ff"/><stop offset=".7604" stop-color="#00dfff"/><stop offset="1" stop-color="#00e3ff"/></linearGradient><linearGradient id="d" gradientUnits="userSpaceOnUse" x1="37.2169" x2="10.6014" y1="22.001" y2="22.001"><stop offset="0" stop-color="#ffe000"/><stop offset=".4087" stop-color="#ffbd00"/><stop offset=".7754" stop-color="#ffa500"/><stop offset="1" stop-color="#ff9c00"/></linearGradient><linearGradient id="e" gradientUnits="userSpaceOnUse" x1="27.3109" x2="2.27658" y1="24.5243" y2="49.5586"><stop offset="0" stop-color="#ff3a44"/><stop offset="1" stop-color="#c31162"/></linearGradient><linearGradient id="f" gradientUnits="userSpaceOnUse" x1="8.02715" x2="19.2057" y1=".194443" y2="11.373"><stop offset="0" stop-color="#32a071"/><stop offset=".0685" stop-color="#2da771"/><stop offset=".4762" stop-color="#15cf74"/><stop offset=".8009" stop-color="#06e775"/><stop offset="1" stop-color="#00f076"/></linearGradient><path d="m0 5c0-2.76142 2.23858-5 5-5h138.5c2.761 0 5 2.23858 5 5v34c0 2.7614-2.239 5-5 5h-138.5c-2.76143 0-5-2.2386-5-5z" fill="#000"/><g fill="#fff"><path d="m74.9496 23.9264c-2.5872 0-4.6959 1.9679-4.6959 4.6783 0 2.6939 2.1087 4.6783 4.6959 4.6783 2.5883 0 4.697-1.9844 4.697-4.6783-.0011-2.7104-2.1098-4.6783-4.697-4.6783zm0 7.5152c-1.4179 0-2.64-1.1693-2.64-2.8358 0-1.6841 1.2232-2.8358 2.64-2.8358 1.4179 0 2.64 1.1517 2.64 2.8358 0 1.6654-1.2221 2.8358-2.64 2.8358zm-10.2454-7.5152c-2.5872 0-4.6959 1.9679-4.6959 4.6783 0 2.6939 2.1087 4.6783 4.6959 4.6783 2.5883 0 4.697-1.9844 4.697-4.6783 0-2.7104-2.1087-4.6783-4.697-4.6783zm0 7.5152c-1.4179 0-2.64-1.1693-2.64-2.8358 0-1.6841 1.2232-2.8358 2.64-2.8358 1.4179 0 2.64 1.1517 2.64 2.8358.0011 1.6654-1.2221 2.8358-2.64 2.8358zm-12.1858-6.0786v1.9844h4.7498c-.1419 1.1165-.5137 1.9316-1.0813 2.4981-.6908.6908-1.7721 1.4531-3.6685 1.4531-2.9238 0-5.2096-2.3573-5.2096-5.2811s2.2858-5.2811 5.2096-5.2811c1.5774 0 2.7291.6204 3.5794 1.4179l1.4003-1.4003c-1.188-1.1341-2.7643-2.002-4.9797-2.002-4.0051 0-7.3722 3.2604-7.3722 7.2655s3.3671 7.2655 7.3722 7.2655c2.1615 0 3.7928-.7095 5.0677-2.0383 1.3112-1.3112 1.7193-3.1548 1.7193-4.6431 0-.4598-.0352-.8855-.1067-1.2397h-6.6803zm49.8386 1.5411c-.389-1.045-1.577-2.9777-4.0049-2.9777-2.4101 0-4.4132 1.8964-4.4132 4.6783 0 2.6224 1.9855 4.6783 4.6431 4.6783 2.144 0 3.385-1.3112 3.899-2.0735l-1.595-1.0637c-.531.7799-1.2579 1.2936-2.304 1.2936-1.045 0-1.7897-.4785-2.2682-1.4179l6.2552-2.5872zm-6.3798 1.5598c-.0528-1.8084 1.4003-2.7291 2.4464-2.7291.8151 0 1.5059.4081 1.7364.9922zm-5.0853 4.5364h2.0548v-13.7511h-2.0548zm-3.3682-8.0278h-.0704c-.4609-.55-1.3475-1.0461-2.4629-1.0461-2.3397 0-4.4836 2.0559-4.4836 4.697 0 2.6224 2.1439 4.6607 4.4836 4.6607 1.1165 0 2.002-.4961 2.4629-1.0626h.0704v.6732c0 1.7897-.957 2.7467-2.4981 2.7467-1.2584 0-2.0383-.9031-2.3573-1.6654l-1.7897.7447c.5137 1.2397 1.8777 2.7643 4.147 2.7643 2.4101 0 4.4484-1.4179 4.4484-4.8741v-8.3996h-1.9492v.7612zm-2.3562 6.4691c-1.4179 0-2.6048-1.188-2.6048-2.8182 0-1.6489 1.1869-2.8534 2.6048-2.8534 1.3992 0 2.4981 1.2045 2.4981 2.8534 0 1.6302-1.0989 2.8182-2.4981 2.8182zm26.8195-12.1924h-4.919v13.7511h2.052v-5.2096h2.865c2.275 0 4.513-1.6467 4.513-4.2702s-2.237-4.2713-4.511-4.2713zm.052 6.6275h-2.919v-4.7135h2.919c1.535 0 2.406 1.2705 2.406 2.3573 0 1.0648-.871 2.3562-2.406 2.3562zm12.686-1.9745c-1.487 0-3.025.6545-3.662 2.1054l1.821.7601c.39-.7601 1.116-1.0087 1.876-1.0087 1.061 0 2.14.6369 2.158 1.7688v.1419c-.372-.2123-1.168-.5302-2.141-.5302-1.963 0-3.963 1.0791-3.963 3.0954 0 1.8403 1.61 3.025 3.414 3.025 1.38 0 2.141-.6193 2.618-1.3453h.071v1.0615h1.982v-5.2723c.001-2.4398-1.823-3.8016-4.174-3.8016zm-.249 7.5361c-.671 0-1.609-.3366-1.609-1.1682 0-1.0615 1.168-1.4685 2.177-1.4685.9 0 1.326.1947 1.874.4598-.16 1.2749-1.256 2.1769-2.442 2.1769zm11.641-7.2358-2.353 5.962h-.07l-2.442-5.962h-2.211l3.662 8.3325-2.088 4.6354h2.141l5.644-12.9679zm-18.486 8.7978h2.051v-13.7511h-2.051z"/><path d="m52.1598 11.2673c0 .9218-.2728 1.6555-.8195 2.2033-.6204.6512-1.43.9768-2.4244.9768-.9526 0-1.7633-.33-2.4288-.99-.6666-.6611-.9999-1.4795-.9999-2.4563 0-.9779.3333-1.79634.9999-2.45634.6655-.6611 1.4762-.9911 2.4288-.9911.473 0 .9251.0924 1.3541.2761.4301.1848.7744.4301 1.0318.737l-.5797.5808c-.4367-.5225-1.0384-.7832-1.8073-.7832-.6952 0-1.2958.2442-1.8029.7326s-.7601 1.12314-.7601 1.90304.253 1.4146.7601 1.903 1.1077.7326 1.8029.7326c.737 0 1.3519-.2453 1.8436-.737.319-.3201.5038-.7656.5533-1.3365h-2.3969v-.7931h3.1977c.033.1727.0473.3388.0473.4983z"/><path d="m57.2309 8.51072h-3.0052v2.09218h2.7104v.7931h-2.7104v2.0922h3.0052v.8118h-3.8533v-6.59998h3.8533z"/><path d="m60.8069 14.3h-.8481v-5.78928h-1.8436v-.8107h4.5353v.8107h-1.8436z"/><path d="m65.9318 14.3v-6.59998h.8481v6.59998z"/><path d="m70.541 14.3h-.8481v-5.78928h-1.8436v-.8107h4.5353v.8107h-1.8436z"/><path d="m80.9698 13.4475c-.649.6666-1.4553.9999-2.42.9999s-1.771-.3333-2.4189-.9999c-.649-.6666-.9724-1.4828-.9724-2.4475s.3234-1.78089.9724-2.44749c.6479-.6666 1.4542-1.001 2.4189-1.001.9592 0 1.7644.3355 2.4156 1.0054s.9768 1.48389.9768 2.44309c0 .9647-.3245 1.7809-.9724 2.4475zm-4.213-.5533c.4884.495 1.0857.7414 1.793.7414s1.3057-.2475 1.793-.7414c.4884-.495.7337-1.1264.7337-1.8942s-.2453-1.39919-.7337-1.89419c-.4873-.495-1.0857-.7414-1.793-.7414s-1.3046.2475-1.793.7414c-.4873.495-.7326 1.12639-.7326 1.89419s.2453 1.3992.7326 1.8942z"/><path d="m83.1324 14.3v-6.59998h1.0318l3.2076 5.13368h.0363l-.0363-1.2716v-3.86208h.8481v6.59998h-.8855l-3.3561-5.38337h-.0363l.0363 1.27157v4.1118z"/></g><path d="m52.1598 11.2673c0 .9218-.2728 1.6555-.8195 2.2033-.6204.6512-1.43.9768-2.4244.9768-.9526 0-1.7633-.33-2.4288-.99-.6666-.6611-.9999-1.4795-.9999-2.4563 0-.9779.3333-1.79634.9999-2.45634.6655-.6611 1.4762-.9911 2.4288-.9911.473 0 .9251.0924 1.3541.2761.4301.1848.7744.4301 1.0318.737l-.5797.5808c-.4367-.5225-1.0384-.7832-1.8073-.7832-.6952 0-1.2958.2442-1.8029.7326s-.7601 1.12314-.7601 1.90304.253 1.4146.7601 1.903 1.1077.7326 1.8029.7326c.737 0 1.3519-.2453 1.8436-.737.319-.3201.5038-.7656.5533-1.3365h-2.3969v-.7931h3.1977c.033.1727.0473.3388.0473.4983z" stroke="#fff" stroke-miterlimit="10" stroke-width=".2"/><path d="m57.2309 8.51072h-3.0052v2.09218h2.7104v.7931h-2.7104v2.0922h3.0052v.8118h-3.8533v-6.59998h3.8533z" stroke="#fff" stroke-miterlimit="10" stroke-width=".2"/><path d="m60.8069 14.3h-.8481v-5.78928h-1.8436v-.8107h4.5353v.8107h-1.8436z" stroke="#fff" stroke-miterlimit="10" stroke-width=".2"/><path d="m65.9318 14.3v-6.59998h.8481v6.59998z" stroke="#fff" stroke-miterlimit="10" stroke-width=".2"/><path d="m70.541 14.3h-.8481v-5.78928h-1.8436v-.8107h4.5353v.8107h-1.8436z" stroke="#fff" stroke-miterlimit="10" stroke-width=".2"/><path d="m80.9698 13.4475c-.649.6666-1.4553.9999-2.42.9999s-1.771-.3333-2.4189-.9999c-.649-.6666-.9724-1.4828-.9724-2.4475s.3234-1.78089.9724-2.44749c.6479-.6666 1.4542-1.001 2.4189-1.001.9592 0 1.7644.3355 2.4156 1.0054s.9768 1.48389.9768 2.44309c0 .9647-.3245 1.7809-.9724 2.4475zm-4.213-.5533c.4884.495 1.0857.7414 1.793.7414s1.3057-.2475 1.793-.7414c.4884-.495.7337-1.1264.7337-1.8942s-.2453-1.39919-.7337-1.89419c-.4873-.495-1.0857-.7414-1.793-.7414s-1.3046.2475-1.793.7414c-.4873.495-.7326 1.12639-.7326 1.89419s.2453 1.3992.7326 1.8942z" stroke="#fff" stroke-miterlimit="10" stroke-width=".2"/><path d="m83.1324 14.3v-6.59998h1.0318l3.2076 5.13368h.0363l-.0363-1.2716v-3.86208h.8481v6.59998h-.8855l-3.3561-5.38337h-.0363l.0363 1.27157v4.1118z" stroke="#fff" stroke-miterlimit="10" stroke-width=".2"/><g filter="url(#a)"><path d="m11.4796 8.29173c-.3201.3388-.5093.8646-.5093 1.5455v24.32757c0 .682.1892 1.2067.5093 1.5455l.0814.0792 13.6279-13.6279v-.1606-.1606l-13.6279-13.62897z" fill="url(#c)"/><path d="m29.7308 26.7057-4.5419-4.5441v-.1606-.1606l4.543-4.543.1023.0583 5.3823 3.058c1.5367.8734 1.5367 2.3023 0 3.1768l-5.3823 3.058z" fill="url(#d)"/><g filter="url(#b)"><path d="m29.8342 26.6474-4.6464-4.6464-13.7082 13.7093c.506.5368 1.3431.6028 2.2858.0682z" fill="url(#e)"/></g><path d="m29.8342 17.3547-16.0688-9.13004c-.9427-.5357-1.7798-.4686-2.2858.0682l13.7093 13.70934z" fill="url(#f)"/></g></svg>