<svg fill="none" height="122" viewBox="0 0 378 122" width="378" xmlns="http://www.w3.org/2000/svg" xmlns:xlink="http://www.w3.org/1999/xlink"><clipPath id="a"><path d="m0 0h377.646v121.688h-377.646z"/></clipPath><g clip-path="url(#a)"><path d="m123.791 51.865c-7.969 8.035-23.974 24.015-23.974 24.015s.211 12.468-2.57 17.933c-5.866 11.64-26.72 27.876-26.72 27.876l-3.578-3.892s10.843-12.113 9.578-20.154l-6.154-40.338c-6.236 6.493-12.688 13.655-19.49 21.326.381 4.925.18 9.917-2.062 14.328-5.728 11.244-25.994 27.737-25.994 27.737l-3.455-3.753s6.488-6.438 8.154-10.715c.771-1.923.961-4.041 1.08-5.866.561-7.964-6.755-45.279-12.164-73.088-1.794-9.157-5.599-9.388-8.375-8.622-2.442.694-7.388 2.458-7.388 2.458l-.679-3.532 39.114-16.015 10.411 65.685 19.394-19.131-3.08-19.583c-.488-3.234-1.702-6.751-5.902-7.362-3.742-.509-10.349 2.611-10.349 2.611l-1.702-4.226 40.009-18.138 10.565 64.045s13.537-13.876 14.483-14.946c2.473-2.725 2.077-8.164-.242-19.69-.679-5.435-1.578-11.342-5.192-12.478-4.016-1.239-10.838 1.82-10.838 1.82l-1.449-4.082 36.383-16.088s5.471 22.791 4.885 22.791c1.609 11.666-.277 14.257-2.94 18.205-2.705 4.077-9.759 10.869-9.759 10.869zm20.148 38.93c-.874-4.694.556-9.383 2.37-13.414 3.219-7.229 13.255-8.863 20.545-9.517 5.26-.493 10.01 9.789 10.01 9.789l-8.56 4.987s-2.063-5.192-3.923-7.054c-1.445-1.476-3.959-1.784-5.589-.082-4.139 4.287-3.707 10.349-3.737 9.881.252 2.504 4.21 3.614 4.139 3.558 4.077 2.566 9.243 3.707 11.403 7.97 1.172 2.272-.833 9.131-2.72 11.794-2.438 3.342-11.836 10.709-20.025 9.578-9.938-1.265-12.257-12.411-12.257-12.411l10.252-5.928s3.835 13.29 8.473 10.534c2.498-1.455 4.38-5.846 3.331-9.177-.673-2.222-4.452-3.069-7.907-5.234-2.257-1.423-5.249-2.472-5.805-5.274zm44.108-31.265c.895-2.277-1.013-6.853-1.013-6.853l9.671-4.576s3.635 2.416 3.177 7.604c-.401 4.309-2.257 13.085-2.257 13.085h13.599s2.936-10.807 5.12-18.529c1.014-3.537 2.376-5.403 5.255-7.29 3.861-2.529 17.599-14.334 26.226-8.581 2.658 1.784 5.342 4.823 4.854 8.025-1.116 6.726-1.82 10.509-4.288 17.301-3.394.236-10.257 0-10.257 0s4.751-12.071 1.362-16.189c-3.984-4.89-8.602 1.244-8.602 1.244-3.362 2.118-7.871 24.02-7.871 24.02h23.758s-7.233 27.588-10.226 36.986c-.864 2.684-.622 3.403.581 4.54 1.938 1.84 6.241-1.856 6.241-1.856l2.139 3.532s-5.969 4.658-9.887 6.725c-5.969 3.172-12.359-8.843-11.84-10.699 2.848-9.881 5.059-18.056 7.475-28.107.406-1.66.129-3.136-.488-4.323-1.146-2.149-9.352-1.563-9.352-1.563l-12.884 44.2h-11.101l12.668-44.2h-14.95s-6.118 21.337-8.277 31.814c-.345 1.527.154 2.992 1.357 3.897 2.03 1.506 7.907-2.915 7.907-2.915l1.645 3.496s-11.896 9.306-15.274 8.771c-2.529-.37-7.372-5.378-8.092-7.65-.767-2.729 9.177-37.413 9.177-37.413h-5.897l.674-5.233h7.049c-.001-.003 1.356-6.096 2.621-9.263zm117.802-17.542c4.077-10.945 24.493-9.613 24.493-9.613l.313 3.48s-11.003.509-13.573 7.984c-6.879 19.799-11.233 40.174-17.393 60.61-.417 1.29-.458 3.002.473 3.794 3.491 3.136 9.764-4.041 9.764-4.041s3.712-19.989 8.807-28.837c3.183-5.548 10.257-7.949 16.432-9.404 3.984-1.002 10.56 2.905 10.56 2.905s2.762-10.195 6.129-21.013c.735-2.344 1.408-7.537 4.54-9.572 10.714-6.9 20.853-6.088 20.853-6.088l.401 3.234s-11.028 1.737-13.26 8.437c-7.136 21.342-11.83 37.67-16.797 59.407-.277 1.979-.75 5.948 1.286 6.514 3.156.9 10.575-4.936 10.575-4.936l2.129 4.37s-8.535 5.604-12.822 8.031c-5.471 3.249-12.504-5.142-12.504-5.142s-11.188 6.298-14.468 5.624c-5.419-1.188-10.216-8.092-10.216-8.092s-3.866 2.915-14.061 7.609c-3.8 1.769-9.856-2.556-10.689-6.746-.586-2.972.488-5.933 1.285-8.853 3.538-12.401 6.622-24.272 10.36-36.627 2.195-7.137 4.565-15.41 7.383-23.035zm-46.185 31.815c6.854-2.961 13.712-7.532 21.403-6.735 4.704.433 6.129 3.959 6.704 8.612.561 4.509-.951 8.684-2.899 12.514-6.437 12.622-23.018 6.066-23.018 6.066s-2.663 6.17-2.071 9.943c.432 2.658 4.293 6.668 6.684 6.776 4.657.216 12.843-5.568 12.843-5.568l2.478 3.548s-10.611 6.679-16.632 10.005c-4.786 2.658-13.81-5.435-16.92-9.321-3.378-4.093.488-14.519 2.622-21.449 1.604-5.347 3.275-11.985 8.806-14.391zm-147.122-.252c6.89-2.956 14-6.134 21.665-5.367 4.663.498 6.175 3.054 6.735 7.712.556 4.509-.961 8.72-2.936 12.514-5.846 11.439-22.807 7.861-22.807 7.861s-2.432 3.912-1.814 7.696c.457 2.638 3.146 5.933 5.526 6.077 4.694.272 12.17-5.594 12.17-5.594l2.498 3.64s-10.437 6.992-16.616 9.979c-6.606 3.188-12.89-3.861-16.062-7.753-3.362-4.088.951-14.956 3.09-21.933 1.595-5.305 3.055-12.416 8.551-14.832zm209.522 28.102c-1.852 9.356 11.429 10.339 14.276 2.139 2.839-8.221 4.17-15.444 6.36-23.882.586-2.216-1.687-6.55-5.131-7.47-3.327-.962-7.357.354-8.643 4.879-1.09 3.784-1.553 4.313-2.354 8.066-1.474 6.607-2.997 8.875-4.508 16.268zm-195.826-12.71c2.129-4.915 2.529-6.493 3.116-9.896 1.018-6.118-6.895-7.687-9.578-.699-2.319 6.016-2.072 3.188-2.283 9.568-.184 5.115 7.471 3.994 8.745 1.027zm147.385-1.213c2.103-4.833 2.54-6.457 3.126-9.861 1.038-6.103-6.926-7.717-9.609-.673-2.318 6.025-2.036 3.192-2.288 9.552-.16 5.096 7.48 3.985 8.771.982z" fill="#000"/></g></svg>