<svg fill="none" height="23" viewBox="0 0 72 23" width="72" xmlns="http://www.w3.org/2000/svg"><path d="m71.37 15.7229c-.09 0-.27.09-.27.27-.7185 2.0671-1.7071 3.3257-2.5171 3.3257-.45 0-.6286-.54-.6286-1.3486 0-2.0671 1.2586-6.4714 1.8872-8.44858.09-.27.09-.44999.09-.62858 0-.53999-.36-.89858-1.0786-.89858-.8086 0-1.7972.35999-2.6071 1.88715-.27-1.34857-1.2586-1.97715-2.5172-1.97715-1.5285 0-2.9657.98858-4.1343 2.51714-1.1685 1.5286-2.6071 2.0671-3.5957 1.7972.7186-1.8872 1.0786-3.23577 1.0786-4.22434 0-1.61856-.8086-2.60714-2.0672-2.60714-1.9771 0-3.0557 1.88715-3.0557 3.86571 0 1.52857.7186 3.05577 2.1572 3.86567-1.2586 2.8758-3.1458 5.4829-3.7758 5.4829-.8985 0-1.1685-4.4043-1.0785-7.64 0-1.79716.18-1.88716.18-2.42715 0-.35999-.18-.53999-.9886-.53999-1.8872 0-2.5172 1.61856-2.6071 3.50574 0 .7186-.18 1.4385-.36 2.0671-.8086 2.8757-2.4272 5.0343-3.5058 5.0343-.5399 0-.6285-.54-.6285-1.1686 0-2.0671 1.1685-4.6743 1.1685-6.8314 0-1.61857-.7185-2.60714-2.0671-2.60714-1.5286 0-3.6857 1.88715-5.5729 5.39284.6286-2.6971.8986-5.30284-.9886-5.30284-.4499 0-.8085.09-1.1685.26999-.27.09-.45.36-.36.62858.18 2.87577-2.3372 10.15717-4.6743 10.15717-.45 0-.6286-.45-.6286-1.1686 0-2.0671 1.2586-6.3814 1.8872-8.44858.09-.26999.09-.44999.09-.71858 0-.53999-.36-.80857-1.0786-.80857-.8086 0-1.7972.35999-2.6071 1.88715-.27-1.34857-1.2586-1.97715-2.5172-1.97715-2.1571 0-4.4943 2.24713-5.4829 5.12283-1.3485 3.8657-4.2243 7.64-7.99996 7.64-3.41572 0-5.21287-2.8757-5.21287-7.37-.44999-6.38141 4.31429-11.68568 7.82003-11.68568 1.7071 0 2.5171 1.07857 2.5171 2.69714 0 1.97715-1.0786 2.96572-1.0786 3.68571 0 .26999.18.44999.54.44999 1.5286 0 3.3258-1.79715 3.3258-4.31429s-1.9772-4.1342974-5.4829-4.1342974c-5.84287-.00421867-11.77573052 5.8386374-11.77573052 13.3886274 0 6.0229 2.96573052 9.6172 8.09000052 9.6172 3.50573 0 6.56143-2.6972 8.18003-5.9329.18 2.6072 1.3485 4.0443 3.2357 4.0443 1.6186 0 2.9657-.9886 3.9543-2.6971.36 1.7971 1.4386 2.6071 2.6971 2.6071 1.5286 0 2.7872-.9886 4.0443-2.7871 0 1.4386.27 2.6971 1.5286 2.6971.54 0 1.2586-.09 1.3486-.6286 1.2585-5.3028 4.4943-9.6171 5.3928-9.6171.27 0 .36.27.36.6286 0 1.4385-.9886 4.4043-.9886 6.2914 0 2.0672.8986 3.4157 2.6972 3.4157 1.9771 0 4.0443-2.4271 5.3029-6.0228.45 3.3257 1.3485 6.0228 2.7871 6.0228 1.7072 0 4.8543-3.6857 6.7414-7.55.7186.09 1.8872.09 2.8758-.7186-.45 1.1686-.7186 2.4272-.7186 3.6857 0 3.5958 1.7071 4.5843 3.2357 4.5843 1.6186 0 2.9657-.9885 3.9543-2.6971.36 1.5286 1.1686 2.6071 2.6971 2.6071 2.4272 0 4.5843-2.5171 4.5843-4.4943-.0914-.3585-.3614-.7185-.63-.7185zm-50.4271 3.4157c-.9886 0-1.3486-.9886-1.3486-2.4272 0-2.5171 1.7071-6.8314 3.5957-6.8314.8086 0 1.0786.9886 1.0786 2.1572 0 2.5171-1.6172 7.1014-3.3257 7.1014zm33.6171-7.64c-.6285-.7186-.8085-1.6186-.8085-2.51717 0-1.07857.36-1.88715.8085-1.88715.45 0 .6286.44999.6286 1.07857.0014.98857-.3586 2.51715-.6286 3.32575zm7.6415 7.64c-.9886 0-1.3486-1.1686-1.3486-2.4272 0-2.4271 1.7071-6.8314 3.5957-6.8314.8086 0 1.0786.9886 1.0786 2.1572 0 2.5171-1.6186 7.1014-3.3257 7.1014z" fill="#9a9a9a"/></svg>