<svg fill="none" height="25" viewBox="0 0 72 25" width="72" xmlns="http://www.w3.org/2000/svg"><g fill="#9a9a9a"><path d="m30.8121 13.122c0 3.4099-2.6676 5.9226-5.9413 5.9226s-5.9412-2.5127-5.9412-5.9226c0-3.43386 2.6675-5.92251 5.9412-5.92251s5.9413 2.48865 5.9413 5.92251zm-2.6008 0c0-2.1308-1.5461-3.58874-3.3405-3.58874s-3.3404 1.45794-3.3404 3.58874c0 2.1095 1.546 3.5888 3.3404 3.5888s3.3405-1.4819 3.3405-3.5888z"/><path d="m43.6292 13.122c0 3.4099-2.6676 5.9226-5.9413 5.9226s-5.9412-2.5127-5.9412-5.9226c0-3.43119 2.6675-5.92251 5.9412-5.92251s5.9413 2.48865 5.9413 5.92251zm-2.6008 0c0-2.1308-1.5461-3.58874-3.3405-3.58874s-3.3404 1.45794-3.3404 3.58874c0 2.1095 1.546 3.5888 3.3404 3.5888s3.3405-1.4819 3.3405-3.5888z"/><path d="m55.9122 7.5573v10.6328c0 4.3739-2.5794 6.1602-5.6288 6.1602-2.8705 0-4.5982-1.9198-5.2497-3.4899l2.2643-.9426c.4032.9639 1.3912 2.1014 2.9827 2.1014 1.9519 0 3.1615-1.2042 3.1615-3.4713v-.8518h-.0908c-.5821.7183-1.7036 1.3458-3.1188 1.3458-2.9613 0-5.6742-2.5794-5.6742-5.8985 0-3.34311 2.7129-5.94391 5.6742-5.94391 1.4126 0 2.5341.6275 3.1188 1.32443h.0908v-.96395h2.47zm-2.2857 5.5861c0-2.0854-1.3912-3.61014-3.1616-3.61014-1.7944 0-3.2977 1.52474-3.2977 3.61014 0 2.0641 1.5033 3.5674 3.2977 3.5674 1.7704 0 3.1616-1.5033 3.1616-3.5674z"/><path d="m59.9845 1.32503v17.35647h-2.5368v-17.35647z"/><path d="m69.8694 15.0713 2.0187 1.3458c-.6515.964-2.2216 2.6248-4.9346 2.6248-3.3644 0-5.8771-2.6008-5.8771-5.9225 0-3.52205 2.534-5.92259 5.5861-5.92259 3.0734 0 4.5767 2.44593 5.0681 3.76769l.2697.6729-7.9173 3.279c.6062 1.1883 1.5488 1.7944 2.8705 1.7944 1.3245 0 2.243-.6515 2.9159-1.6395zm-6.2136-2.1308 5.2924-2.1976c-.2911-.7397-1.1669-1.25503-2.1976-1.25503-1.3218 0-3.1615 1.16693-3.0948 3.45263z"/><path d="m9.3274 11.5813v-2.51266h8.4673c.0828.43791.1255.95596.1255 1.51666 0 1.8852-.5154 4.2163-2.1762 5.8772-1.6155 1.6822-3.6796 2.5794-6.41393 2.5794-5.06808 0-9.32976482-4.1281-9.32976482-9.19623 0-5.06809 4.26168482-9.196256 9.32976482-9.196256 2.80373 0 4.80103 1.100136 6.30173 2.534046l-1.773 1.77303c-1.0761-1.00935-2.5341-1.79439-4.5314-1.79439-3.70093 0-6.59545 2.98264-6.59545 6.68357s2.89452 6.68353 6.59545 6.68353c2.4005 0 3.7677-.9639 4.6435-1.8397.7103-.7103 1.1776-1.725 1.3618-3.1109z"/></g></svg>