<svg fill="none" height="23" viewBox="0 0 72 23" width="72" xmlns="http://www.w3.org/2000/svg"><g fill="#9a9a9a"><path d="m.00048828.781982v21.436018h14.76271172v-21.436018zm12.62751172 19.277918h-10.49997v-17.1184h10.49997z"/><path d="m23.5608 8.25581h-.0207c-1.1777-1.91823-2.3667-3.61264-3.5658-5.3183h-.915v7.46109h1.0098v-5.35099h.0102c1.1893 1.9295 2.3776 3.63517 3.5771 5.35099h.9149v-7.46109h-1.0105zm7.2896 2.14279-2.3459-7.46109h-1.0513l-2.5458 7.46109h1.0938l.6421-2.03596h2.2187l.5789 2.03596zm-3.8816-2.95311c.2947-.98073.5894-1.88517.8521-3.03778h.0215c.2947 1.15225.5574 2.05705.831 3.03778zm5.0698 2.95311h1.2624v-6.45891h1.9356v-1.00218h-5.1329v1.00218h1.9353zm4.8594-7.46109h-1.2515v7.46109h1.2515zm3.8928 7.58829c1.9251 0 3.1242-1.73692 3.1242-3.96475 0-2.08902-1.3259-3.75217-3.1242-3.75217-1.7991 0-3.125 1.66315-3.125 3.75217 0 2.22819 1.1991 3.96475 3.125 3.96475zm0-6.65043c1.2518 0 1.7772 1.31068 1.7772 2.68604 0 1.42805-.4622 2.89898-1.7772 2.89898-1.3151 0-1.7776-1.47056-1.7776-2.89898 0-1.37536.5257-2.68604 1.7776-2.68604zm4.9008 1.17224h.0116c1.1882 1.9295 2.3764 3.63517 3.5759 5.35099h.915v-7.46109h-1.0098v5.3183h-.0211c-1.1777-1.91823-2.3666-3.61264-3.5658-5.3183h-.9149v7.46109h1.0091zm6.5737 3.31503h2.2202l.5785 2.03596h1.4091l-2.3451-7.46109h-1.052l-2.5461 7.46109h1.0951zm1.1795-3.95493h.0207c.294 1.15225.5571 2.05705.8314 3.03778h-1.7053c.2954-.98073.589-1.88553.8532-3.03778zm7.141 4.98836h-2.4924v-6.45856h-1.2522v7.46109h3.745zm-38.0541 9.53593c-.2634.1388-.5469.1817-.8833.1817-1.0832 0-2.1352-1.045-2.1352-2.8139 0-1.6944.915-2.7715 2.2616-2.7715.484 0 1.0098.181 1.3463.3939l.4099-.8841c-.4204-.3204-1.1043-.5759-1.7882-.5759-2.2085 0-3.5763 1.7802-3.5763 3.8158 0 2.1958 1.3678 3.9015 3.5338 3.9015.7155 0 1.4204-.1908 2.0941-.4586v-3.081h-1.2627zm3.6704-2.2914h2.0622v-1.0014h-2.0622v-2.0466h2.1043v-1.0018h-3.3659v7.4611h3.7446v-1.0029h-2.483zm5.9964-4.178c-1.7991 0-3.1239 1.6628-3.1239 3.7521 0 2.2275 1.1987 3.9651 3.1239 3.9651 1.9248 0 3.1235-1.7376 3.1235-3.9651 0-2.0893-1.3252-3.7521-3.1235-3.7521zm0 6.6511c-1.3154 0-1.778-1.4709-1.778-2.8993 0-1.3754.5258-2.6864 1.778-2.6864 1.2514 0 1.7772 1.3106 1.7772 2.6864 0 1.4284-.4622 2.8993-1.7772 2.8993zm7.9204-.1817c-.2627.1388-.5472.1817-.8837.1817-1.0836 0-2.1356-1.045-2.1356-2.8139 0-1.6944.9154-2.7715 2.2624-2.7715.4836 0 1.0098.181 1.3452.3939l.4106-.8841c-.4204-.3204-1.1046-.5759-1.7889-.5759-2.2078 0-3.5752 1.7802-3.5752 3.8158 0 2.1958 1.3674 3.9015 3.5345 3.9015.7144 0 1.419-.1908 2.093-.4586v-3.081h-1.2623zm6.6689-4.1878c0-1.4506-.8735-2.1534-2.2823-2.1534h-1.9673v7.4611h1.262v-2.8139h.568l1.1885 2.8139h1.4408l-1.4822-3.0915c.8089-.4368 1.2725-1.3212 1.2725-2.2162zm-2.4614 1.5341c-.1268.0109-.4219.0218-.5266.0324v-2.7177h.5585c.7457 0 1.1661.4361 1.1661 1.2039 0 1.0014-.5985 1.4498-1.198 1.4814zm5.2383-3.6875-2.5461 7.4611h1.0934l.6421-2.0363h2.2194l.58 2.0363h1.4084l-2.3459-7.4611zm-.4836 4.5091c.2943-.9815.5887-1.8873.8517-3.0381h.0215c.2939 1.1508.557 2.0566.831 3.0381zm13.1166-1.6421h-2.6195v-2.867h-1.2519v7.4611h1.2519v-3.5926h2.6195v3.5926h1.2616v-7.4407h-1.2616zm2.4709 4.5934h1.2515v-7.4604h-1.2515zm5.6697-.9375c-1.2202 0-2.2514-1.045-2.2514-2.8139 0-1.6944.9371-2.7715 2.2198-2.7715.484 0 .9891.2235 1.2943.4154l.3994-.9052c-.4313-.2987-1.0407-.5759-1.6933-.5759-2.1984 0-3.5556 1.7801-3.5556 3.8157 0 2.1959 1.3677 3.9015 3.5352 3.9015.6097 0 1.2827-.2452 1.6614-.5112l-.3467-.9277c-.3263.2129-.7791.3728-1.2631.3728zm-15.0101-6.5229h-1.9659v7.4611h1.2624v-2.8139h.5672c1.5051 0 2.4193-1.2373 2.4193-2.4938-.0003-1.4506-.8724-2.1534-2.283-2.1534zm-.1785 3.6875c-.126.0098-.4305.02-.5254.0298v-2.7155h.5672c.737 0 1.1577.4361 1.1577 1.2039-.0003 1.0018-.5999 1.4502-1.1995 1.4818z"/></g></svg>