<svg fill="none" height="23" viewBox="0 0 64 23" width="64" xmlns="http://www.w3.org/2000/svg"><path d="m7.05968 22.8954c-1.90694-.0757-3.4671-.5975-4.68701-1.5667-.23282-.1851-.78759-.7402-.97372-.9743-.49469-.6221-.831016-1.2275-1.055342-1.8991-.690285-2.0676-.33502035-4.7808 1.016162-7.7584 1.1569-2.54921 2.94204-5.07753 6.05648-8.57924.45878-.51527 1.82498-2.022201 1.8338-2.022201.00326 0-.07119.128979-.1649.286041-.8098 1.3564-1.5027 2.95411-1.88016 4.3373-.60637 2.21942-.53323 4.12407.2142 5.601.51559 1.0174 1.39951 1.8987 2.39347 2.3859 1.74004.8526 4.28764.9231 7.39884.2064.2142-.0496 10.8284-2.8673 23.5872-6.26155 12.7589-3.39461 23.1997-6.169786 23.2013-6.167501.0036.002944-29.6424 12.688651-45.0321 19.269851-2.4372 1.042-3.089 1.3051-4.2348 1.7074-2.9289 1.0286-5.55261 1.5194-7.67342 1.4351z" fill="#9a9a9a"/></svg>