<svg fill="none" height="23" viewBox="0 0 72 23" width="72" xmlns="http://www.w3.org/2000/svg"><g fill="#9a9a9a"><path d="m63.3189 22.0918c-.1861 0-.3597-.0499-.5209-.1373l-1.6493-.9858c-.248-.1372-.124-.1871-.0496-.2121.3348-.1123.3968-.1373.744-.3369.0372-.025.0869-.0125.1241.0124l1.2649.7612c.0496.025.1115.025.1487 0l4.9481-2.8824c.0493-.025.0745-.0749.0745-.1372v-5.7524c0-.0624-.0252-.1123-.0745-.1373l-4.9481-2.86993c-.0496-.02496-.1116-.02496-.1487 0l-4.948 2.86993c-.0496.025-.0744.0874-.0744.1373v5.7524c0 .0499.0248.1122.0744.1372l1.3517.7861c.7316.3744 1.1905-.0624 1.1905-.4991v-5.6775c0-.0749.0619-.1498.1488-.1498h.6324c.0744 0 .1488.0625.1488.1498v5.6775c0 .9857-.5332 1.5597-1.4633 1.5597-.2852 0-.5084 0-1.1409-.3119l-1.3021-.7487c-.3224-.1871-.5208-.5366-.5208-.9109v-5.7524c0-.3743.1984-.7236.5208-.9108l4.948-2.88242c.31-.17474.7316-.17474 1.0417 0l4.9481 2.88242c.3221.1872.5205.5365.5205.9108v5.7524c0 .3743-.1984.7238-.5205.9109l-4.9481 2.8824c-.1489.0625-.3348.1124-.5208.1124z"/><path d="m64.8567 18.1362c-2.1704 0-2.6168-.9982-2.6168-1.8467 0-.0749.0619-.1498.1487-.1498h.6449c.0744 0 .1364.0499.1364.1248.0992.6613.3844.9857 1.6991.9857 1.0416 0 1.4882-.237 1.4882-.7985 0-.3245-.1245-.5616-1.7488-.7237-1.3517-.1373-2.195-.4368-2.195-1.5224 0-1.0107.8433-1.6096 2.257-1.6096 1.5876 0 2.3687.549 2.4678 1.7469 0 .0374-.0123.0749-.0369.1123-.0253.0249-.0622.0499-.0998.0499h-.6573c-.0615 0-.1238-.0499-.1361-.1123-.1491-.6863-.5334-.9109-1.5501-.9109-1.1409 0-1.2773.3993-1.2773.6988 0 .3618.1612.4742 1.699.6738 1.5251.1996 2.2446.4866 2.2446 1.5597 0 1.0981-.9055 1.722-2.4676 1.722z"/><path d="m72.0001 12.0969c0 .524-.4343.9608-.9554.9608-.5205 0-.9547-.4243-.9547-.9608 0-.5491.4466-.9609.9547-.9609.5088 0 .9554.4243.9554.9609zm-1.7611 0c0 .4492.3598.811.7934.811.4466 0 .8063-.3743.8063-.811 0-.4493-.3597-.7986-.8063-.7986-.4213 0-.7934.3493-.7934.7986zm.4466-.5366h.3721c.1238 0 .372 0 .372.287 0 .1997-.1244.2371-.199.262.1491.0125.1614.1124.1737.2496.0124.0873.0253.2371.0499.287h-.2236c0-.0499-.0369-.3244-.0369-.3369-.0123-.0624-.037-.0873-.1115-.0873h-.186v.4367h-.2107zm.3591.4742c.1368 0 .1614-.0999.1614-.1498 0-.1497-.0992-.1497-.1614-.1497h-.173v.2995z"/><g clip-rule="evenodd" fill-rule="evenodd"><path d="m11.7685 12.1754c0-.2245-.124-.4367-.3224-.549l-5.24555-3.05708c-.08681-.04991-.18602-.07487-.28523-.08738-.0124 0-.0496 0-.0496 0-.0992 0-.19841.03747-.28522.08738l-5.257956 3.04458c-.198413.1123-.32242193.3244-.32242193.5615l.01240083 8.1856c0 .1123.0620045.2246.1612111.2745.099207.0624.223215.0624.310021 0l3.125015-1.7968c.19841-.1123.32242-.3244.32242-.5491v-3.8307c0-.2246.12401-.4367.32242-.549l1.32689-.7737c.09921-.0623.21082-.0873.32242-.0873.11161 0 .22322.025.31003.0873l1.32687.7737c.19841.1123.32246.3244.32246.549v3.8307c0 .2247.124.4368.3224.5491l3.10022 1.7968c.0992.0624.2232.0624.3224 0 .0992-.0499.1612-.1622.1612-.2745z"/><path d="m37.0415.907795c-.0992-.049912-.2232-.049912-.3101 0-.0991.06239-.1612.162215-.1612.274515v8.11068c0 .07486-.0372.14973-.1116.1997-.0744.0374-.1487.0374-.2231 0l-1.3146-.7612c-.1984-.11227-.434-.11227-.6324 0l-5.258 3.05711c-.1984.1123-.3224.3244-.3224.549v6.1018c0 .2246.124.4367.3224.549l5.258 3.0571c.1984.1123.434.1123.6324 0l5.258-3.0571c.1984-.1123.3225-.3244.3225-.549v-15.21069c0-.23709-.1241-.44921-.3225-.56152zm-.4836 15.522605c0 .0624-.0249.1123-.0745.1373l-1.7981 1.0482c-.0496.0249-.1116.0249-.1612 0l-1.7981-1.0482c-.0496-.025-.0744-.0873-.0744-.1373v-2.0962c0-.0625.0248-.1124.0744-.1373l1.7981-1.0482c.0496-.0249.1116-.0249.1612 0l1.7981 1.0482c.0496.0249.0745.0873.0745.1373z"/><path d="m54.5386 14.2842c.1985-.1123.3101-.3244.3101-.549v-1.4849c0-.2246-.124-.4367-.3101-.5491l-5.2207-3.04458c-.1984-.11226-.434-.11226-.6324 0l-5.258 3.05718c-.1984.1123-.3224.3244-.3224.549v6.1017c0 .2247.124.4367.3224.5491l5.2208 2.9947c.1984.1123.434.1123.62 0l3.1622-1.7719c.0992-.0499.1612-.1622.1612-.2745s-.062-.2246-.1612-.2745l-5.2827-3.0571c-.0993-.0625-.1612-.1623-.1612-.2745v-1.9092c0-.1123.0619-.2246.1612-.2745l1.6493-.9483c.0992-.0624.2232-.0624.3224 0l1.6493.9483c.0992.0624.1612.1622.1612.2745v1.4974c0 .1122.062.2246.1613.2745.0991.0624.2231.0624.3223 0z"/><path d="m48.9212 13.9972c.0372-.0249.0869-.0249.1241 0l1.0044.5865c.0372.0249.062.0623.062.1123v1.1729c0 .0499-.0248.0873-.062.1123l-1.0044.5865c-.0372.0249-.0869.0249-.1241 0l-1.0045-.5865c-.0372-.025-.0619-.0624-.0619-.1123v-1.1729c0-.05.0247-.0874.0619-.1123z"/></g><path d="m20.5603 8.68158c-.1984-.11226-.434-.11226-.6324 0l-5.2208 3.03222c-.1984.1123-.31.3244-.31.549v6.0767c0 .2247.124.4368.31.5491l5.2208 3.0322c.1984.1122.434.1122.6324 0l5.2207-3.0322c.1985-.1123.3101-.3244.3101-.5491v-6.0767c0-.2246-.124-.4367-.3101-.549z"/><path d="m19.7544 7.57108-.0744.0374h.0992z"/><path d="m26.2895 18.7888-.0373-.0624v.0873z"/></g></svg>