<svg fill="none" height="15" viewBox="0 0 72 15" width="72" xmlns="http://www.w3.org/2000/svg"><g clip-rule="evenodd" fill="#9a9a9a" fill-rule="evenodd"><path d="m66.1328 11.3291c-1.1079-.0597-2.3379-.1262-3.183-.1262-1.2836 0-2.3063.1376-2.6095.1834-.7543-1.0536-1.1986-2.3445-1.1986-3.73886 0-.85693.1682-1.6746.4724-2.42223l1.3586-.09847-.8002-.97166c.1341-.20683.2796-.40575.4359-.59539l1.2885 1.49992.3993-.02915-1.434-1.75971c.2141-.23028.4449-.4449.6907-.64185l1.1872.34073.0382-1.11472c.2536-.12252.5169-.22855.7876-.31739l.8334 1.38323.8036-1.69178c.0612-.00337.1226-.00616.1842-.00791l1.048 2.01543.2071-.18731-.7082-1.82044c.1964.01091.3905.03065.5819.05876l.6668 1.32143 1.2966-.69643c.1398.07095.2764.1469.41.22738l-1.2243 1.03809-.0625.26314.376.74544 1.2912-1.79802c.1395.09835.275.20193.406.31052l-.6323 1.00603 1.6061.00011c.1414.18174.2731.37127.3945.56799l-1.3897.0972-.5377 1.01707c.5904-.07885 1.3342-.27013 2.1704-.68541.091.17652.1743.35769.2489.54326-.9749.52665-2.0142.78713-2.828.91499l-.3705.70038 3.4444-.879c.1422.53141.2184 1.08964.2184 1.66577 0 1.28021-.3742 2.47276-1.0193 3.47496-.5232.1112-1.7751.3003-2.6495.3003-.465 0-1.2908-.0445-2.1986-.0936zm.0008.1679c-1.1073-.0709-2.3365-.1498-3.1816-.1584-1.196-.0124-2.1665.0975-2.5389.1468.1253.1679.2582.3297.3989.4845.4982.0044 1.9023.0641 4.5106.5073 2.168.3682 3.376.4261 3.9606.4204.5915-.419 1.1092-.9353 1.5295-1.5256-.5915.1056-1.6914.2489-2.4816.2409-.4649-.0047-1.2902-.0576-2.1975-.1159zm-.881 1.1471c-2.3244-.4142-3.6918-.515-4.3131-.5378 1.1694 1.2148 2.8124 1.9711 4.632 1.9711 1.2562 0 2.4279-.3606 3.418-.9834-.6467-.0156-1.8141-.107-3.7369-.4499zm-.1475-7.63547.5423-.39484.1904-1.08465-.4866-1.02427-.5562 1.28324zm-1.13-.98131-.5539-.17767.0558 1.02773zm4.6034.41924.3503-.02449-.6106 1.01438c-.138-.00256-.2548-.01057-.3491-.0202zm-.7583 1.8151-.5202.86365-.4843.12379.6084-.96804c.0997-.00256.2337-.00803.3961-.0194zm-.4215-1.26698-.1847-.47612-.9105.63291.0441 1.30761zm-1.1683 3.01588 2.1036-.52326.298.43536.5564-.02926-.1455-.58263.8223-.20462c.1431.20463.5149.69818.9048.90454l.4393-.2052s-.4071-.50285-.5284-.90233l.7055-.17559c.0492.30554.075.61875.075.93799.0001 1.18858-.3534 2.29484-.9606 3.21934-1.3705-.0341-2.7458-.2028-4.1197-.3987-.2891-1.22759-.1507-2.47564-.1507-2.47564zm-.619-1.8569-.0116-.61664-.3786.16954.101.42967zm-3.6209-.49471.9291-.03134.3228.27405-.907.73277-.8675-.32748zm-1.2669.36581.2473-.33212-1.037.03366zm-.6899.33096.3279.157-.4536.61154c.0246-.26176.0668-.51815.1257-.76854zm.1558 1.27419-.3068-.01185c-.0001.00663-.0003.01324-.0005.01986-.0003.00924-.0005.01847-.0005.02775 0 .74985.145 1.46567.4078 2.12167 1.562.04518 3.1375.26536 4.7175.49796l.0776-2.48365-.3042-.33944-.8191.31495-1.319-.05145 1.5837-.88236-.3974-.44349-1.5729 1.31074-.8293-.03226.352-.48764-.7379-.35326-.6385.79247zm3.8228-2.03716.2973-.68516.1637 1.1404zm-.6526-2.88348.3031.53186-.2765-.03366zm-.7061.89418-.9628-.30774 1.0116.99988z"/><path d="m9.08863 12.6674c-.29288-.176-.35153-.3809-.35153-.5859v-6.03339c0-.52735-.23423-.70294-.38067-.70294-.35152 0-1.99162.70294-2.37241.90802-.38067.20498-.08791.46859.0878.5565.17582.0879.32225.1757.32225.64428v4.62753c0 .2049-.05864.4101-.35152.5859-.06155.0367-.09824.0852-.11519.1385-.02567-.0646-.0806-.1314-.17037-.1972-.39029-.2862-.38756-.4337-.38209-.73.00069-.0373.00142-.0768.00142-.1193v-8.31794c0-.04511-.00032-.0893-.00062-.13227-.00264-.37532-.00462-.65845.20558-.65845.4893 0 .79466.77651 1.06979 1.47615.05424.13793.1073.27287.16038.39829.32214.76146 1.37659.35141 1.25942-.17582-.05859-.26362-.14648-.7689-.23436-1.27412-.08788-.5052-.17575-1.01039-.23433-1.27399-.11707-.52734-.32215-.878643-.52724-.878643-.20497 0-.55649.322153-.55649.322153l-2.47844.04389-2.47855-.04389s-.35151-.322153-.55649-.322153c-.205081 0-.410052.351413-.527227.878643-.058642.26386-.146632.76982-.23458 1.27552-.087782.50477-.1755228 1.00929-.23399712 1.27259-.11717488.52723.93715712.93728 1.25942412.17582.05295-.12523.10592-.25995.16006-.39765.27516-.69985.58062-1.47679 1.06999-1.47679.21028 0 .2083.28295.20568.65848-.0003.04296-.0006.08714-.0006.13224v8.31794c0 .0424.00072.0819.00141.119.00545.2965.00816.4441-.38221.7303-.43931.3222-.05853.6677.64441.6677l2.14538-.0001c.43491 0 .74612-.1321.81649-.3092.0475.1591.2167.3093.40623.3093l2.46032-.0001c.32213 0 .58576-.4334.29288-.6089zm19.71107-1.728c0 .5882-.2678.5871-.5473.5859-.0129-.0001-.0256-.0002-.0384-.0002-.0067 0-.0139.0001-.0216.0001-.2397.0013-.8801.0046-1.3335-1.109-.0132-.1379-.0052-.49577.4179-.58983 0 0 2.0209-.79073 2.2552-.9079.2344-.11706.2635-.52723.2635-.84937.0002-.32226-.4977-2.78233-2.4015-2.78233s-2.6361 2.05015-2.6361 4.27599 1.0545 3.92474 2.9581 3.92474c1.904 0 2.1967-1.2008 2.1967-1.9624 0-.8786-1.113-1.0836-1.113-.5857zm9.0811 1.728c-.2928-.1759-.3516-.3809-.3516-.5859v-9.98273c.0002-.52723-.2343-.70293-.3808-.70293-.3514 0-1.9913.70293-2.3721.9079-.3806.20497-.0878.46858.088.55649.1756.08791.3221.1757.3221.6444v2.23318c-.1528-.21182-.4129-.34863-.8218-.34863-.8307 0-1.0827.36059-1.3171.69586-.1564.22381-.305.43634-.6124.5228 0-.20901 0-.3733 0-.47675v-.08298c.0001-.52735-.2343-.70294-.3807-.70294-.3514 0-1.9916.70294-2.3724.90802-.3806.20498-.0878.46859.0879.5565.1757.0879.3221.1757.3221.64428v4.62753c0 .2049-.0584.4101-.3514.5859-.2929.1755-.0294.609.293.609l2.4602-.0001c.3221 0 .5857-.4334.2928-.6089-.2928-.1759-.3515-.3809-.3515-.5859v-3.00787c.1823-.59273.6328-1.78073 1.3143-1.78073.1164 0 .1728.12489.2406.27541.1028.22821.2322.51532.6381.51532.155-.00011.3939-.33562.5583-.76982v4.76769c0 .2049-.0585.4101-.3514.5859-.293.1755-.0294.609.2929.609l2.4601-.0001c.322 0 .5855-.4334.2928-.6089zm12.4793 0c-.293-.1759-.3516-.3808-.3516-.5859 0-.0138.0002-.0345.0004-.0612.0056-.7641.0476-6.58721-2.1879-6.58721-.4974-.00008-.7143.22278-.918.43189-.0959.0985-.1888.19396-.3066.26163.0001-.02263.0001-.04248 0-.05901v-.01949c.0001-.52735-.2343-.70294-.3807-.70294-.3514 0-1.9917.70295-2.3725.90804-.3807.20496-.0877.46858.088.55648.1758.08791.3221.1757.3221.64428.0001.39257 0 3.23273 0 4.26343v.3641c.0001.1969-.0546.3937-.3182.5646-.0394-.2494-.2502-.5352-.4616-.5352-.2343-.0001-.2929-.2051-.2929-.4687s0-.3808-.2343-3.28032c-.2275-2.8165-1.3946-2.81421-2.6424-2.81176-.0368.00007-.0738.00015-.1107.00015-1.2887-.00012-2.4016.61501-2.4016 1.61094.0001.99558.6443 1.08348 1.1422 1.08348.4981-.00012.8786-.11703.8786-.76144.0001-.64429-.4101-.84927-.4101-.84927s.2052-.05865.6737-.05865c.4688 0 .7323.7322.7323 1.37649 0 .37599-.4767.49873-.8776.60198-.1613.04152-.3103.07989-.4112.13033-1.2185.60922-1.8159 1.58157-1.8159 2.78227.0001 1.201.7031 1.81.9373 1.81.1655-.0001.886 0 1.4602 0h.59c.3006 0 .4927-.106.6304-.182.0771-.0425.1372-.0756.1897-.0756.0699 0 .1264.0587.1856.1201.0648.0671.1326.1375.2244.1375h1.2887c.3945-.0001.5803-.0619.6663-.1545.0783.0897.194.1545.3186.1545l2.4603-.0001c.322 0 .5856-.4334.2928-.6089-.2928-.1759-.3515-.3808-.3515-.5859v-4.55831c.0001-.18081.2318-.44999.4925-.44999.6151 0 .8228 4.364.8228 5.0083.0001.2049-.0586.4101-.3515.5859-.2928.1755-.0292.609.2929.609l2.2142-.0001c.3221 0 .5856-.4334.2928-.6089zm-28.033-7.43928c-.3763 0-.4936.0986-.6207.20538-.0893.07499-.1832.15401-.3752.20571v-3.74993c0-.52734-.2343-.70293-.3807-.70293-.3516 0-1.8397.70293-2.2204.90789-.3808.20509-.088.61513.0877.70305.1705.08511.1704.17023.1703.60239v8.79912c0 .2467.0145.4366.0386.5837-.0197-.0439-.0538-.0837-.1063-.115-.2929-.1759-.3515-.3808-.3515-.5859 0-.014.0002-.0349.0004-.0621.0055-.7677.0467-6.5863-2.1879-6.5863-.4974-.00006-.7145.22266-.9182.43166-.1405.14421-.2747.28189-.4902.33537-.225-.46998-.6267-.85494-1.3154-.85494-.7006 0-.9167.25095-1.1139.47996-.1241.1441-.2407.27952-.4657.33828v-.11531c0-.52734-.2344-.70293-.3808-.70293-.3516 0-1.99169.70292-2.37248.90801-.38079.20496-.0879.46859.08791.55649.1757.08791.32214.17572.32214.6443v4.62751c0 .2049-.05852.4101-.35152.5859-.29288.1755-.02927.609.293.609l2.46025-.0001c.3221 0 .5857-.4334.2928-.6089-.2928-.1759-.3513-.3808-.3513-.5859v-4.3775c0-.45499.3283-.74787.5838-.74787.2635 0 .4723.17572.4723.70283v4.42254c0 .2049-.0586.4101-.3515.5859-.2929.1755-.0293.609.2929.609l2.2139-.0001c.3224 0 .5859-.4334.2931-.6089-.2931-.1759-.3515-.3808-.3515-.5859 0 0-.0003-4.69151-.0006-4.70916 0-.15643.2236-.29915.4189-.29915.6149 0 .8229 4.36401.8229 5.00831 0 .2049-.0587.4101-.3516.5859-.2928.1755-.0292.609.2928.609l2.2141-.0001c.2213 0 .415-.2043.4196-.3894.0923.4005.2733.3946.4027.3904.0126-.0005.0247-.0009.0363-.0009.0176 0 .035.0011.0527.0021.1592.0091.3364.0193.7674-.6991.0879-.1465.2927-.0585.5563.2343.0307.0341.0598.069.089.1041.2219.2659.4507.5403 1.4341.5403 1.1129 0 2.3138-.1756 2.3138-4.18831 0-3.16313-1.7281-4.04177-2.3723-4.04177zm33.9486 7.43928c-.293-.1759-.3515-.3809-.3515-.5859v-9.71911c0-.52723-.2342-.70293-.3806-.70293-.1512 0-.5145.18487-.9197.39111-.2483.12642-.5129.26103-.7536.36581-.16.06965-.3283.08843-.4648.10364-.1012.01129-.1848.02061-.2343.04734-.3807.20485-.088.46858.0877.5565.1759.0879.3223.17569.3223.6444v2.31132c-.1614-.14947-.5496-.44153-1.1167-.44153-.7614-.00012-2.3138 1.43514-2.3138 4.45185.0001 1.2595.3808 2.1674.6151 2.7238.2036.4838.4295.4762.7352.4659.046-.0016.0937-.0032.1435-.0032.2909-.0001 4.3382 0 4.3382 0 .3225-.0001.5859-.4335.293-.609zm-29.3211-6.29656c.2635 0 .8495.82011.8495 1.61084 0 .79084-.6737 1.02519-.996 1.02519-.1322 0-.305-.01557-.3221-.14657-.2929-2.24048.205-2.48934.4686-2.48946zm-4.9204.08823c.527 0 .7614 1.75728.7614 2.63592 0 .87852-.2344 2.40161-.8201 2.40161s-.6735-1.78647-.6735-2.40161c0-.61503.205-2.63592.7322-2.63592zm18.8904 5.21263v-2.34305c-.615 0-1.1128.46846-1.113 1.64015 0 1.1715.3515 1.2886.703 1.2887.3514 0 .41-.3223.41-.5858zm11.8917-4.68538c.3221 0 .8786.93715.8786 2.60663.0001 1.66935-.4101 2.40165-.6737 2.40165-.2636-.0001-.8493-.6737-.8493-2.37238.0001-1.69886.4393-2.6359.6444-2.6359z"/><path d="m50.4809 2.83933c0-.34327.2783-.59622.6072-.59622.3258-.00012.604.25305.604.59622 0 .34618-.2782.59934-.604.59934-.3288-.00012-.6072-.25304-.6072-.59934zm.6074.49935c.2704 0 .4838-.21183.4838-.4996 0-.28312-.2135-.49656-.4838-.49656-.2736 0-.4872.21356-.4872.49656 0 .28765.2135.49971.4872.4996zm-.1267-.15329h-.1042v-.68945h.2623c.1629 0 .2436.06027.2436.19614 0 .12345-.0775.17721-.1786.18988l.196.30343h-.1171l-.1817-.29868h-.1203zm.1255-.38671c.0886 0 .1676-.00638.1676-.11228 0-.08548-.0774-.10118-.1502-.10118l-.1423-.0001v.21356z"/></g></svg>