<svg fill="none" height="21" viewBox="0 0 72 21" width="72" xmlns="http://www.w3.org/2000/svg"><g fill="#9a9a9a"><path d="m66.5134 11.1175 1.1109-2.91291 1.1092 2.91291zm2.2639-4.56698h-2.307l-3.2238 7.89838h1.9986l.7342-1.9275h3.2887l.7345 1.9275h1.9978zm-16.2712 6.52508c-1.302 0-2.3555-1.1743-2.3555-2.6236 0-1.44955 1.0535-2.62478 2.3555-2.62478 1.2996 0 2.3547 1.17523 2.3547 2.62478 0 1.4493-1.055 2.6236-2.3547 2.6236zm0-6.7958c-2.3046 0-4.1729 1.86806-4.1729 4.1722 0 2.304 1.8683 4.1712 4.1729 4.1712 2.3031 0 4.1722-1.8671 4.1722-4.1712 0-2.30424-1.8691-4.1722-4.1722-4.1722zm-16.4633 6.7958c-1.2996 0-2.3539-1.1743-2.3539-2.6236 0-1.44955 1.0543-2.62478 2.3539-2.62478 1.3012 0 2.3556 1.17523 2.3556 2.62478.0001 1.4493-1.0544 2.6236-2.3556 2.6236zm0-6.7958c-2.3039 0-4.1704 1.86806-4.1704 4.1722 0 2.304 1.8665 4.1712 4.1704 4.1712s4.1722-1.8671 4.1722-4.1712c0-2.30424-1.8683-4.1722-4.1722-4.1722zm10.3123.27072-2.0443 3.19564-2.0458-3.19564h-1.9994l3.1646 4.95308v2.9453h1.7599v-2.9446l3.1642-4.95378zm17.312 0h-6.7527v1.51459h2.5011v6.38379h1.7616v-6.38389h2.4901zm-38.9164 1.51449h2.5019v6.38379h1.7607v-6.38379h2.491v-1.51449h-6.7536z"/><path d="m11.4313 9.40621c2.0768-.22646 2.7223-.9191 2.5847-1.47321-.0741-.29885-.5225-.64627-1.2442-.91853-.7718-.28003-1.6571-.43795-2.591-.46426.6938.25248 1.1122 1.44471 1.2505 2.856z"/><path d="m9.90069 13.0076c.50211 0 1.03911-.7412 1.03911-2.5293l-.0001-.0186c-.3337.0282-.681.043-1.03901.043-.35798 0-.70531-.0148-1.039-.043l-.0001.0186c0 1.788.53702 2.5293 1.0391 2.5293z"/><path d="m8.92668 9.45325c.29952.01844.62342.02842.97363.02842.35059 0 .67469-.00998.97419-.02851-.1577-1.16918-.5767-1.84896-.9739-1.84896-.39715 0-.81619.67987-.97392 1.84905z"/><path d="m7.01801 7.0185c-.7153.27178-1.15949.61719-1.23332.9145-.13756.55421.50804 1.24685 2.58528 1.47321.13834-1.41129.5568-2.60361 1.2506-2.85609-.9385.0264-1.82813.18576-2.60256.46838z"/><path d="m4.9685 8.38525c-.44102.54164-.69456 1.19588-.69456 1.95285 0 2.1843 2.39866 4.0045 5.35383 4.1107-.68813-.2651-1.30896-1.5489-1.30896-3.9705l.00028-.0781c-1.93584-.2628-3.29347-1.01126-3.35059-2.01495z"/><path d="m11.4826 10.4783c0 2.3168-.6282 3.6942-1.3212 3.9709 2.9608-.1017 5.366-1.9238 5.366-4.1111 0-.75697-.2535-1.41121-.6945-1.95285-.0571 1.00369-1.4148 1.75215-3.3506 2.01495z"/><path clip-rule="evenodd" d="m.00030518.599854h19.80039482v19.800346h-19.80039482zm3.30029482 9.900146c0-2.567 2.86157-4.49487 6.60009-4.49487 3.73851 0 6.60011 1.92787 6.60011 4.49487 0 2.4825-2.7885 4.495-6.60011 4.495-3.81158 0-6.60009-2.0125-6.60009-4.495z" fill-rule="evenodd"/></g></svg>