<svg fill="none" height="25" viewBox="0 0 72 25" width="72" xmlns="http://www.w3.org/2000/svg"><path d="m23.6017 10.7879c-1.5194 1.5319-4.5708 4.5786-4.5708 4.5786s.0403 2.3771-.49 3.419c-1.1183 2.2192-5.0942 5.3147-5.0942 5.3147l-.6822-.7421s2.0673-2.3094 1.8261-3.8424l-1.1733-7.6906c-1.1889 1.2379-2.419 2.6034-3.71583 4.0659.07264.9389.03432 1.8907-.39313 2.7317-1.09207 2.1437-4.95586 5.2881-4.95586 5.2881l-.65871-.7155s1.23697-1.2274 1.5546-2.0428c.14699-.3667.18321-.7705.2059-1.1184.10696-1.5184-1.28787-8.6326-2.31911-13.93454-.34204-1.74582-1.06747-1.78986-1.59673-1.64382-.46557.13231-1.408549.46863-1.408549.46863l-.12945375-.67339 7.45723275-3.05333 1.9849 12.52315 3.69754-3.6474-.5872-3.73362c-.0931-.61657-.3245-1.2871-1.1253-1.40359-.7134-.09705-1.97303.49779-1.97303.49779l-.32449-.8057 7.62782-3.45808 2.0143 12.2104s2.5809-2.6455 2.7612-2.8495c.4715-.5195.396-1.55648-.0461-3.75396-.1294-1.0362-.3008-2.1624-.9899-2.37898-.7656-.23622-2.0663.34699-2.0663.34699l-.2762-.77825 6.9365-3.067242s1.0431 4.345192.9314 4.345192c.3067 2.22418-.0528 2.71816-.5605 3.47086-.5158.7773-1.8606 2.07219-1.8606 2.07219zm3.8413 7.4222c-.1667-.8949.106-1.7889.4518-2.5574.6137-1.3783 2.5271-1.6898 3.917-1.8145 1.0028-.094 1.9084 1.8663 1.9084 1.8663l-1.632.9508s-.3933-.9899-.7479-1.3449c-.2755-.2814-.7548-.3401-1.0656-.0156-.7891.8173-.7067 1.9731-.7124 1.8839.048.4774.8026.689.7891.6783.7773.4892 1.7622.7068 2.174 1.5195.2235.4332-.1588 1.7409-.5186 2.2486-.4648.6372-2.2566 2.0417-3.8178 1.8261-1.8947-.2412-2.3369-2.3662-2.3369-2.3662l1.9546-1.1302s.7312 2.5338 1.6154 2.0083c.4763-.2774.8351-1.1145.6351-1.7496-.1283-.4236-.8488-.5851-1.5075-.9979-.4303-.2713-1.0007-.4713-1.1067-1.0055zm8.4093-5.9608c.1706-.4341-.1931-1.3066-.1931-1.3066l1.8438-.8724s.693.4606.6057 1.4497c-.0765.8216-.4303 2.4948-.4303 2.4948h2.5927s.5598-2.0604.9761-3.5327c.1934-.67432.453-1.03008 1.0019-1.38985.7361-.48216 3.3554-2.73283 5.0001-1.636.5068.34013 1.0185.91953.9255 1.53-.2128 1.28235-.347 2.00355-.8176 3.29855-.647.045-1.9555 0-1.9555 0s.9058-2.30143.2597-3.08654c-.7596-.9323-1.64.23717-1.64.23717-.641.40381-1.5007 4.57947-1.5007 4.57947h4.5296s-1.379 5.2598-1.9496 7.0516c-.1648.5117-.1186.6488.1107.8655.3695.3508 1.1899-.3538 1.1899-.3538l.4078.6734s-1.138.888-1.885 1.2821c-1.138.6048-2.3563-1.6859-2.2573-2.0398.5429-1.8838.9645-3.4424 1.4251-5.3587.0774-.3165.0246-.5979-.093-.8242-.2185-.4097-1.783-.298-1.783-.298l-2.4564 8.4269h-2.1165l2.4152-8.4269h-2.8502s-1.1665 4.068-1.5781 6.0655c-.0658.2911.0294.5704.2587.743.3871.2871 1.5075-.5558 1.5075-.5558l.3137.6665s-2.2681 1.7743-2.9121 1.6723c-.4821-.0706-1.4055-1.0254-1.5428-1.4585-.1462-.5203 1.7497-7.133 1.7497-7.133h-1.1243l.1285-.9977h1.3439c-.0002-.0005.2585-1.1622.4997-1.766zm22.4594-3.34446c.7773-2.08671 4.6697-1.83276 4.6697-1.83276l.0597.66348s-2.0978.09704-2.5878 1.52218c-1.3115 3.77476-2.1416 7.65936-3.316 11.55556-.0795.2459-.0873.5723.0902.7233.6655.5979 1.8615-.7704 1.8615-.7704s.7077-3.811 1.6791-5.4979c.6069-1.0577 1.9555-1.5155 3.1328-1.7929.7596-.191 2.0133.5538 2.0133.5538s.5266-1.9437 1.1685-4.0062c.1402-.44687.2685-1.43693.8656-1.82491 2.0427-1.31552 3.9757-1.16071 3.9757-1.16071l.0765.61658s-2.1026.33117-2.5281 1.60855c-1.3605 4.06889-2.2554 7.18189-3.2024 11.32619-.0528.3773-.143 1.134.2452 1.2419.6017.1716 2.0161-.9411 2.0161-.9411l.4059.8332s-1.6272 1.0684-2.4445 1.5311c-1.0431.6195-2.384-.9803-2.384-.9803s-2.133 1.2007-2.7583 1.0722c-1.0332-.2265-1.9478-1.5427-1.9478-1.5427s-.737.5557-2.6807 1.4507c-.7245.3372-1.8791-.4874-2.0379-1.2862-.1118-.5666.093-1.1311.2449-1.6879.6746-2.3643 1.2626-4.6275 1.9752-6.983.4185-1.3607.8704-2.938 1.4076-4.39176zm-8.8053 6.06566c1.3067-.5645 2.6142-1.436 4.0805-1.2841.8969.0826 1.1686.7548 1.2782 1.642.1069.8596-.1813 1.6556-.5527 2.3858-1.2273 2.4064-4.3885 1.1565-4.3885 1.1565s-.5077 1.1763-.3948 1.8957c.0823.5067.8184 1.2713 1.2743 1.2919.8879.0411 2.4486-1.0616 2.4486-1.0616l.4724.6764s-2.023 1.2734-3.171 1.9075c-.9124.5068-2.6329-1.0362-3.2258-1.7771-.6441-.7803.093-2.7681.4999-4.0893.3058-1.0194.6244-2.285 1.6789-2.7437zm-28.0494-.048c1.3136-.5636 2.6691-1.1695 4.1305-1.0233.889.095 1.1773.5823 1.2841 1.4703.106.8597-.1833 1.6625-.5598 2.3859-1.1146 2.1809-4.3482 1.4987-4.3482 1.4987s-.4637.7459-.3459 1.4673c.0871.5029.5998 1.1311 1.0536 1.1586.8949.0519 2.3202-1.0665 2.3202-1.0665l.4763.694s-1.9899 1.333-3.1679 1.9025c-1.2595.6078-2.4576-.7361-3.0623-1.4781-.641-.7794.1813-2.8515.5891-4.1817.3041-1.0114.5825-2.3671 1.6303-2.8277zm39.9462 5.3577c-.3531 1.7838 2.179 1.9712 2.7217.4078.5413-1.5673.7951-2.9444 1.2126-4.5532.1117-.4225-.3216-1.2488-.9782-1.4242-.6343-.1834-1.4027.0675-1.6479.9302-.2078.7215-.296.8223-.4488 1.5379-.281 1.2596-.5714 1.692-.8594 3.1015zm-37.335-2.4232c.4059-.9371.4822-1.2379.5941-1.8867.1941-1.1664-1.3146-1.4656-1.8261-.1333-.4421 1.147-.3951.6078-.4353 1.8242-.0351.9752 1.4244.7615 1.6673.1958zm28.0995-.2313c.4009-.9214.4843-1.231.596-1.88.1979-1.1636-1.3205-1.4713-1.832-.1283-.4419 1.1487-.3882.6086-.4362 1.8211-.0305.9716 1.4261.7598 1.6722.1872z" fill="#9a9a9a"/></svg>