<svg fill="none" height="28" viewBox="0 0 28 28" width="28" xmlns="http://www.w3.org/2000/svg"><path d="m0 0h28v28h-28z" fill="#e9e9e9"/><g fill="#000"><path d="m10.2464 5.03199c-.33699.12861-.61478.33952-.78969.60445-.09259.13633-.18519.41926-.24692.73563-.08231.43984-.07459 2.20175.01543 4.52443.02829.7022.09003 1.5715.20577 2.9579.1106 1.3195.12861 1.6127.14404 2.5079.01543.9799.03087 1.1471.19034 1.9676.25723 1.3247.29583 1.7028.34723 3.1895.0206.6507.0515 1.2269.0669 1.2809.072.2701.5015.2649.5607-.0077.0232-.1132-.0334-2.1735-.0746-2.585-.0411-.4424-.1389-1.1163-.2443-1.6616-.1981-1.0597-.1981-1.0366-.2187-2.1194-.018-.8746-.0385-1.1935-.1517-2.5079-.16978-1.9779-.20322-2.4589-.23409-3.5624-.01286-.50927-.03858-1.3838-.05401-1.94195-.0283-1.01085-.01544-1.43011.05401-1.93682.05402-.37553.18519-.63789.41929-.82308.1286-.10546.3472-.12604.4732-.0463.1775.1106.2187.28808.265 1.13431.0694 1.24492.2443 3.12.3498 3.72964.0411.2443.2906 1.4635.3832 1.8776.0721.3241.1749.607.2495.6868.1235.1312.4013.1286.5042-.0052.0283-.036.1492-.2572.27-.4938.2187-.4296.2187-.4347.3396-.9723.1852-.8308.9002-3.65499 1.0031-3.96364.1826-.55044.4167-.91054.7048-1.09573.1697-.10803.2546-.09775.3858.04372.1543.16719.2083.31123.2418.64818.0205.21863.0205.38839-.0026.68162-.0386.50156-.0926.8025-.3267 1.78249-.2443 1.03146-.288 1.23466-.3189 1.53046-.0386.3523.018.7073.1415.8951.036.054.0308.0668-.1287.2546-.2906.3472-.4861.7279-.571 1.1189-.0463.216-.054.7099-.0128.9182.0411.1981.0334.427-.0129.5376-.0411.1003-.1826.2624-.2263.2624-.0155 0-.0978-.0592-.1827-.1338-.5813-.499-1.1651-.8616-1.7079-1.0674-.288-.108-.4912-.0772-.5633.0849-.0411.0848-.0385.126.0078.216.0437.0823.144.1441.4038.2392.4707.1775.9362.481 1.4687.9543l.2006.1775-.072.0746c-.1209.1286-.4013.3241-.589.4115-.1518.072-.2058.0849-.3756.0849-.1826 0-.2135-.0077-.4064-.1106-.2263-.1158-.2958-.1286-.4089-.0695-.0721.036-.1569.1749-.1569.2547 0 .1183.2855.3241.5916.427.6713.2289 1.4815-.1698 2.2017-1.0829.2495-.3164.4218-.4836.5916-.5607.2649-.1261.5504-.0875.7665.1028.1569.1389.2366.2778.3009.5402.0463.1826.054.2623.0412.5504-.018.4527-.108.7177-.3807 1.1241-.1415.2134-.5299.5941-.7639.7484-.5968.3987-1.2141.5633-2.1529.5736-.2958.0052-.5556.0077-.5736.0077-.0206.0026-.0694.0361-.1106.0772-.1543.1543-.0617.373.1852.4398.0797.0232.2804.0283.6662.018.6096-.0154.9311-.0668 1.4147-.2263.2778-.0926.6996-.2881.8822-.409.1775-.1209.2084-.0977.1904.1389-.0386.4476-.3421 1.1986-.6739 1.6565-.2161.3035-.2393.3627-.175.4733.0258.0463.0926.1054.1467.1337.1954.0952.3549-.0154.6353-.4373.3086-.4629.5273-.9697.6276-1.4635.0231-.1157.0514-.4218.0617-.6945.0206-.517.0386-.5993.1621-.7459.036-.0437.0848-.1157.108-.1595.0257-.054.0874-.108.1646-.1466.0746-.0386.1852-.1363.2881-.2495.2726-.3112 1.2166-1.2578 1.2526-1.2578.0257 0 .0334.1158.0334.5711 0 1.2269-.1054 1.8082-.5813 3.2228-.3832 1.1472-.5761 1.9497-.5864 2.4359-.0026.2109.0026.2289.0643.2906.1286.1312.3627.126.4476-.0051.0282-.0438.0745-.2418.1208-.5222.1081-.6482.2161-1.0571.5479-2.0448.5402-1.6128.5813-1.888.661-4.3084.0412-1.2063.0386-1.3426-.0282-1.5278-.0309-.0849-.0901-.2083-.1338-.2778-.2521-.391-.8745-.697-1.3246-.6533l-.1595.0154-.0309-.1209c-.0772-.3163-.2752-.5993-.5401-.7768-.2238-.1491-.409-.2083-.7151-.234-.2984-.0232-.3472-.0489-.391-.2032-.036-.1312-.0308-.463.0129-.7511.018-.1337.1235-.6096.2289-1.05456.3318-1.3941.3858-1.72333.3833-2.40238 0-.517-.0335-.70733-.1904-1.03657-.1131-.23406-.3498-.46813-.553-.54529-.2237-.08231-.5093-.0643-.7382.0463-.3215.15947-.6842.56844-.8796.99027-.1647.35753-.2315.58902-.7177 2.48726-.2186.85397-.3472 1.43007-.4269 1.90337-.0643.3807-.0901.4681-.175.5993l-.0668.1003-.0849-.3575c-.2984-1.2629-.5067-2.97339-.5993-4.95908-.0154-.32666-.0437-.68161-.0643-.78964-.072-.40126-.3035-.72792-.6199-.88482-.1235-.06173-.1903-.07459-.3575-.07973-.1286-.00515-.2418.00771-.3035.03086zm5.7821 7.50811c.2598.108.3936.3215.4167.6507.0077.1158 0 .2469-.0154.3087-.0257.0926-.5376.9105-.6328 1.0057-.0257.0308-.0617.0283-.216-.0077-.1338-.0335-.2341-.0412-.3807-.0283-.1106.0077-.2341.018-.2778.0231-.1183.0077-.1492-.0823-.1492-.4553.0026-.3472.054-.6018.1878-.8848.162-.3446.3344-.5401.553-.6173.1132-.0411.4115-.036.5144.0052zm1.5999 1.1085c.3472.1029.5839.5248.5196.9234-.0515.319-.1544.4553-.8386 1.1472l-.625.6276v-.2546c0-.4193-.0977-.7485-.3086-1.0546-.0566-.0823-.0772-.1363-.0669-.1749.0283-.1029.6687-1.0289.7665-1.106.0849-.0695.2752-.1415.3832-.1441.0206-.0025.0978.0155.1698.036z"/><path d="m21.4712 9.09597c-.2341.08231-.4167.20063-.5916.38582-.2315.24435-.301.49385-.2238.81791.1492.6328.6662 1.0263 1.3015.9903.5144-.0309.9877-.4887 1.0237-.9954.0334-.47329-.2675-.96457-.7151-1.16777-.2443-.1106-.5324-.12346-.7947-.03086zm.5838.57873c.1544.1106.2418.27522.2572.4861.0129.1981-.0385.3344-.1749.4476-.2263.1929-.535.1312-.733-.1441-.0926-.1286-.1183-.3626-.0592-.50667.1312-.3138.4784-.45269.7099-.28293z"/></g></svg>