<svg fill="none" height="28" viewBox="0 0 28 28" width="28" xmlns="http://www.w3.org/2000/svg"><path d="m0 0h28v28h-28z" fill="#1e2124"/><path d="m14.2656 6c-3.2976 0-6.0016 2.7448-6.0016 6.092s2.704 6.092 6.0016 6.092 6.0016-2.744 6.0016-6.092c0-3.3472-2.704-6.092-6.0016-6.092zm0 10.3096c-2.3088 0-4.1552-1.8744-4.1552-4.2176s1.8464-4.2176 4.1552-4.2176c2.308 0 4.1552 1.8744 4.1552 4.2176-.0664 2.3432-1.9128 4.2176-4.1552 4.2176zm5.3416 1.3392-5.3416 2.3424-5.3424-2.3424-.9232 1.6736 6.2656 2.6776 6.2656-2.6776z" fill="#fff"/></svg>