<svg fill="currentColor" viewBox="0 0 16 16" xmlns="http://www.w3.org/2000/svg"><path d="m4.29 6.29607c-.13857-.10357-.2775-.15536-.41607-.15536h-.62286v3.73108h.62322c.13857 0 .2775-.05179.41607-.15536s.20785-.25893.20785-.46643v-2.4875c-.00035-.20714-.07-.36286-.20821-.46643zm10.1421-6.29607h-12.86424c-.864289 0-1.56571714.699643-1.56786 1.56429v12.87141c.00214286.8647.703571 1.5643 1.56786 1.5643h12.86424c.8647 0 1.5658-.6996 1.5679-1.5643v-12.87141c-.0021-.864647-.7036-1.56429-1.5679-1.56429zm-8.92496 9.25679c0 .67178-.41464 1.68961-1.72714 1.68751h-1.65714v-5.9093h1.69214c1.26571 0 1.69143 1.01643 1.69179 1.68857zm3.59572-3.16643h-1.90286v1.37214h1.16321v1.05607h-1.16321v1.37179h1.90321v1.05604h-2.22071c-.39857.0104-.73-.3046-.74-.7032v-4.4682c-.00964-.39821.30571-.72893.70393-.73893h2.25678zm3.70144 4.11754c-.4714 1.0982-1.3161.8796-1.6943 0l-1.37607-5.17147h1.16317l1.0611 4.06143 1.0561-4.06143h1.1636z" /></svg>