<svg fill="none" height="16" viewBox="0 0 16 16" width="16" xmlns="http://www.w3.org/2000/svg"><path clip-rule="evenodd" d="m15 8c0 3.866-3.134 7-7 7-3.86599 0-7-3.134-7-7 0-3.86599 3.13401-7 7-7 3.866 0 7 3.13401 7 7zm-4.538 5.4732c-.75121.3385-1.58461.5268-2.462.5268-1.44846 0-2.77705-.5133-3.8138-1.3678 1.07852-1.8099 2.81323-3.18207 4.87531-3.78915.59228 1.48605 1.06319 3.03345 1.40049 4.63015zm.9124-.5113c-.3323-1.4943-.7779-2.946-1.3272-4.34553.4573-.07654.927-.11637 1.4059-.11637.8652 0 1.6992.12982 2.4842.37077-.2469 1.69833-1.2053 3.16603-2.5629 4.09113zm2.6237-5.11525c-.8102-.22596-1.6638-.34665-2.545-.34665-.6142 0-1.2147.05859-1.79629.17047-.15169-.35007-.30996-.69661-.47466-1.03948 1.30905-.58105 2.51885-1.34508 3.59675-2.25954.7374.96975 1.1865 2.17078 1.2192 3.4752zm-1.8888-4.21859c-1.0119.85485-2.14743 1.56771-3.37594 2.10797-.6485-1.2401-1.38251-2.42837-2.19417-3.55695.46761-.11697.95696-.17908 1.46081-.17908 1.59005 0 3.0356.61851 4.1093 1.62806zm-6.55803-1.10726c-1.7614.7884-3.07324 2.4012-3.44472 4.34762.34134.02507.68618.03784 1.03408.03784 1.63396 0 3.2019-.28167 4.65807-.79918-.66138-1.25351-1.41342-2.45184-2.24743-3.58628zm-3.54974 5.34256c-.00102.04542-.00153.09097-.00153.13664 0 1.49602.54752 2.8642 1.4531 3.915 1.19292-1.8903 3.0379-3.32898 5.21953-3.99943-.1347-.30593-.27462-.60904-.41964-.90923-1.59461.5822-3.3165.89992-5.11236.89992-.38316 0-.76304-.01447-1.1391-.0429z" fill="#e84c88" fill-rule="evenodd"/></svg>