<svg fill="none" height="20" viewBox="0 0 20 20" width="20" xmlns="http://www.w3.org/2000/svg"><path clip-rule="evenodd" d="m10 0c-5.52061 0-10 4.47939-10 10 0 5.5206 4.47939 10 10 10 5.5098 0 10-4.4794 10-10 0-5.52061-4.4902-10-10-10zm6.6052 4.60954c1.1931 1.45337 1.9089 3.30802 1.9306 5.31452-.282-.05419-3.102-.62906-5.9436-.27112-.0651-.141-.1193-.29288-.1844-.44469-.1735-.41212-.3687-.83512-.564-1.23644 3.1453-1.27981 4.577-3.12365 4.7614-3.36227zm-6.6052-3.13448c2.1692 0 4.154.81345 5.6616 2.1475-.1519.21692-1.4425 1.94143-4.4794 3.08025-1.39914-2.57049-2.95007-4.67461-3.1887-4.99999.63988-.15185 1.31237-.22776 2.0065-.22776zm-3.63338.8026c.22775.30368 1.74619 2.41865 3.16701 4.9349-3.99133 1.06294-7.51627 1.04125-7.89589 1.04125.55315-2.64643 2.34273-4.84817 4.72888-5.97615zm-4.91326 7.73324c0-.08684 0-.17359 0-.26034.36877.01081 4.51193.06507 8.77444-1.21475.2495.47719.4772.96525.6941 1.45332-.1085.03257-.2278.06507-.3362.09767-4.40349 1.4208-6.74622 5.3036-6.94145 5.629-1.35575-1.5075-2.19089-3.514-2.19089-5.7049zm8.54664 8.5357c-1.974 0-3.79609-.6724-5.23861-1.8004.15184-.3145 1.88717-3.6551 6.70281-5.3362.0217-.0109.0326-.0109.0542-.0217 1.2039 3.1128 1.692 5.7266 1.8222 6.475-1.0304.4447-2.1584.6833-3.3406.6833zm4.7614-1.4642c-.0868-.5206-.5423-3.0151-1.6595-6.0846 2.679-.423 5.0217.2712 5.3146.3688-.3687 2.3753-1.7354 4.4251-3.6551 5.7158z" fill="#767676" fill-rule="evenodd"/></svg>