<svg fill="none" height="16" viewBox="0 0 16 16" width="16" xmlns="http://www.w3.org/2000/svg"><g clip-rule="evenodd" fill-rule="evenodd"><path d="m8 8c0-1.24264 1.00736-2.25 2.25-2.25 1.2426 0 2.25 1.00736 2.25 2.25s-1.0074 2.25-2.25 2.25c-1.24264 0-2.25-1.00736-2.25-2.25z" fill="#1abcfe"/><path d="m3.5 12.5c0-1.2426 1.00736-2.25 2.25-2.25h2.25v2.25c0 1.2426-1.00736 2.25-2.25 2.25s-2.25-1.0074-2.25-2.25z" fill="#0acf83"/><path d="m8 1.25v4.5h2.25c1.2426 0 2.25-1.00736 2.25-2.25s-1.0074-2.25-2.25-2.25z" fill="#ff7262"/><path d="m3.5 3.5c0 1.24264 1.00736 2.25 2.25 2.25h2.25v-4.5h-2.25c-1.24264 0-2.25 1.00736-2.25 2.25z" fill="#f24e1e"/><path d="m3.5 8c0 1.24264 1.00736 2.25 2.25 2.25h2.25v-4.5h-2.25c-1.24264 0-2.25 1.00736-2.25 2.25z" fill="#a259ff"/></g></svg>