<svg fill="currentColor" viewBox="0 0 16 16" xmlns="http://www.w3.org/2000/svg"><g clip-rule="evenodd" fill-rule="evenodd"><path d="m8 8c0-1.24264 1.00736-2.25 2.25-2.25 1.2426 0 2.25 1.00736 2.25 2.25s-1.0074 2.25-2.25 2.25c-1.24264 0-2.25-1.00736-2.25-2.25z" /><path d="m3.5 12.5c0-1.2426 1.00736-2.25 2.25-2.25h2.25v2.25c0 1.2426-1.00736 2.25-2.25 2.25s-2.25-1.0074-2.25-2.25z" /><path d="m8 1.25v4.5h2.25c1.2426 0 2.25-1.00736 2.25-2.25s-1.0074-2.25-2.25-2.25z" /><path d="m3.5 3.5c0 1.24264 1.00736 2.25 2.25 2.25h2.25v-4.5h-2.25c-1.24264 0-2.25 1.00736-2.25 2.25z" /><path d="m3.5 8c0 1.24264 1.00736 2.25 2.25 2.25h2.25v-4.5h-2.25c-1.24264 0-2.25 1.00736-2.25 2.25z" /></g></svg>