<svg fill="none" height="16" viewBox="0 0 16 16" width="16" xmlns="http://www.w3.org/2000/svg"><path d="m8 1c-3.8675 0-7 3.1325-7 7 0 3.0975 2.00375 5.7137 4.78625 6.6412.35.0613.48125-.1487.48125-.3325 0-.1662-.00875-.7175-.00875-1.3037-1.75875.3237-2.21375-.4288-2.35375-.8225-.07875-.2013-.42-.8225-.7175-.9888-.245-.1312-.595-.455-.00875-.4637.55125-.0088.945.5075 1.07625.7175.63 1.0587 1.63625.7612 2.03875.5775.06125-.455.245-.7613.44625-.9363-1.5575-.175-3.185-.7787-3.185-3.4562 0-.76125.27125-1.39125.7175-1.88125-.07-.175-.315-.8925.07-1.855 0 0 .58625-.18375 1.925.7175.56-.1575 1.155-.23625 1.75-.23625s1.19.07875 1.75.23625c1.3387-.91 1.925-.7175 1.925-.7175.385.9625.14 1.68.07 1.855.4462.49.7175 1.11125.7175 1.88125 0 2.6862-1.6363 3.2812-3.19375 3.4562.25375.2188.4725.6388.4725 1.295 0 .9363-.00875 1.6888-.00875 1.925 0 .1838.13125.4025.4812.3325 1.3897-.4691 2.5972-1.3622 3.4527-2.5535.8554-1.1914 1.3157-2.62102 1.3161-4.0877 0-3.8675-3.1325-7-7-7z" fill="#000"/></svg>