<svg fill="none" height="16" viewBox="0 0 16 16" width="16" xmlns="http://www.w3.org/2000/svg" xmlns:xlink="http://www.w3.org/1999/xlink"><radialGradient id="a" cx="0" cy="0" gradientTransform="matrix(7.25000814 -10.49999419 10.49999419 7.25000814 6 11.5)" gradientUnits="userSpaceOnUse" r="1"><stop offset="0" stop-color="#b13589"/><stop offset=".79309" stop-color="#c62f94"/><stop offset="1" stop-color="#8a3ac8"/></radialGradient><radialGradient id="b" cx="0" cy="0" gradientTransform="matrix(4.74999072 -10.24997837 10.24997837 4.74999072 5.5 15.5)" gradientUnits="userSpaceOnUse" r="1"><stop offset="0" stop-color="#e0e8b7"/><stop offset=".444662" stop-color="#fb8a2e"/><stop offset=".71474" stop-color="#e2425c"/><stop offset="1" stop-color="#e2425c" stop-opacity="0"/></radialGradient><radialGradient id="c" cx="0" cy="0" gradientTransform="matrix(19.249964 -2.74999405 .58819671 4.11737816 .250001 1.5)" gradientUnits="userSpaceOnUse" r="1"><stop offset=".156701" stop-color="#406adc"/><stop offset=".467799" stop-color="#6a45be"/><stop offset="1" stop-color="#6a45be" stop-opacity="0"/></radialGradient><rect fill="url(#a)" height="14" rx="3" width="14" x="1" y="1"/><rect fill="url(#b)" height="14" rx="3" width="14" x="1" y="1"/><rect fill="url(#c)" height="14" rx="3" width="14" x="1" y="1"/><g fill="#fff"><path d="m11.5 5.25c0 .41421-.3358.75-.75.75s-.75-.33579-.75-.75.3358-.75.75-.75.75.33579.75.75z"/><path clip-rule="evenodd" d="m8 10.5c1.38071 0 2.5-1.11929 2.5-2.5s-1.11929-2.5-2.5-2.5-2.5 1.11929-2.5 2.5 1.11929 2.5 2.5 2.5zm0-1c.82843 0 1.5-.67157 1.5-1.5s-.67157-1.5-1.5-1.5-1.5.67157-1.5 1.5.67157 1.5 1.5 1.5z" fill-rule="evenodd"/><path clip-rule="evenodd" d="m3 7.8c0-1.68016 0-2.52024.32698-3.16197.28762-.56449.74656-1.02343 1.31105-1.31105.64173-.32698 1.48181-.32698 3.16197-.32698h.4c1.68016 0 2.5202 0 3.162.32698.5645.28762 1.0234.74656 1.311 1.31105.327.64173.327 1.48181.327 3.16197v.4c0 1.68016 0 2.5202-.327 3.162-.2876.5645-.7465 1.0234-1.311 1.311-.6418.327-1.48184.327-3.162.327h-.4c-1.68016 0-2.52024 0-3.16197-.327-.56449-.2876-1.02343-.7465-1.31105-1.311-.32698-.6418-.32698-1.48184-.32698-3.162zm4.8-3.8h.4c.85658 0 1.43887.00078 1.889.03755.4384.03582.6626.10075.819.18044.3763.19174.6823.4977.874.87403.0797.1564.1446.3806.1804.81902.0368.45009.0376 1.03238.0376 1.88896v.4c0 .85658-.0008 1.43887-.0376 1.889-.0358.4384-.1007.6626-.1804.819-.1917.3763-.4977.6823-.874.874-.1564.0797-.3806.1446-.819.1804-.45013.0368-1.03242.0376-1.889.0376h-.4c-.85658 0-1.43887-.0008-1.88896-.0376-.43842-.0358-.66262-.1007-.81902-.1804-.37633-.1917-.68229-.4977-.87403-.874-.07969-.1564-.14462-.3806-.18044-.819-.03677-.45013-.03755-1.03242-.03755-1.889v-.4c0-.85658.00078-1.43887.03755-1.88896.03582-.43842.10075-.66262.18044-.81902.19174-.37633.4977-.68229.87403-.87403.1564-.07969.3806-.14462.81902-.18044.45009-.03677 1.03238-.03755 1.88896-.03755z" fill-rule="evenodd"/></g></svg>