<svg fill="none" height="20" viewBox="0 0 20 20" width="20" xmlns="http://www.w3.org/2000/svg"><path d="m10.001 0c-2.7159 0-3.05678.0118716-4.12344.0604164-1.06459.0487486-1.79126.2172916-2.42711.4645936-.65771.255411-1.21564.59707-1.77147 1.15311-.55625.55584-.897933 1.11375-1.154183 1.77125-.247922.63605-.416678 1.36292-.464587 2.42709-.0477063 1.06668-.06021 1.40768-.06021 4.12354 0 2.7159.0120869 3.0556.0604131 4.1223.0489659 1.0646.2175089 1.7912.4645899 2.4271.255631.6577.597297 1.2156 1.153347 1.7714.55564.5563 1.11355.8988 1.77085 1.1542.63625.2473 1.36315.4159 2.42753.4646 1.06668.0485 1.4073.0604 4.12299.0604 2.71608 0 3.05578-.0119 4.12248-.0604 1.0646-.0487 1.7921-.2173 2.4284-.4646.6575-.2554 1.2146-.5979 1.7702-1.1542.5563-.5558.898-1.1137 1.1542-1.7712.2458-.6361.4146-1.3629.4646-2.4271.0479-1.0666.0604-1.4066.0604-4.1225 0-2.71586-.0125-3.05667-.0604-4.12333-.05-1.06459-.2188-1.79125-.4646-2.42709-.2562-.65771-.5979-1.21563-1.1542-1.77146-.5562-.55625-1.1125-.897912-1.7708-1.153121-.6375-.247291-1.3647-.415834-2.4292-.4645826-1.0667-.0485448-1.4063-.0604164-4.12295-.0604164zm-.89715 1.80209c.26625-.00042.56337 0 .89715 0 2.67 0 2.9864.00958 4.0408.05749.975.04459 1.5042.2075 1.8567.34438.4667.18125.7994.39792 1.1492.74791.35.35001.5666.68334.7483 1.15.1369.35208.3.88125.3444 1.85626.0479 1.05418.0583 1.37085.0583 4.03956s-.0104 2.98541-.0583 4.03961c-.0446.975-.2075 1.5042-.3444 1.8563-.1812.4666-.3983.7989-.7483 1.1487-.35.35-.6823.5666-1.1492.7479-.3521.1375-.8817.3-1.8567.3446-1.0541.0479-1.3708.0583-4.0408.0583-2.67028 0-2.98678-.0104-4.04093-.0583-.97501-.045-1.50418-.2079-1.8569-.3448-.46667-.1813-.80002-.3979-1.15001-.7479-.35001-.35-.56667-.6825-.74834-1.1494-.13689-.3521-.3-.8812-.34438-1.8562-.04792-1.0542-.05751-1.3709-.05751-4.04132 0-2.67039.00959-2.98537.05751-4.03956.04459-.975.20749-1.50416.34438-1.85666.18125-.46667.39833-.8.74834-1.15.34999-.35.68334-.56667 1.15001-.74833.35251-.13751.88189-.3 1.8569-.3448.92253-.04167 1.28003-.05416 3.14378-.05626zm6.23505 1.6604c-.6625 0-1.2.53689-1.2 1.19959 0 .6625.5375 1.20001 1.2 1.20001s1.2-.53751 1.2-1.20001-.5375-1.19959-1.2-1.19959zm-5.3379 1.40209c-2.83615 0-5.13553 2.29935-5.13553 5.13542 0 2.8361 2.29938 5.1344 5.13553 5.1344 2.836 0 5.1346-2.2983 5.1346-5.1344 0-2.83607-2.2986-5.13542-5.1346-5.13542zm0 1.80211c1.8408 0 3.3333 1.49228 3.3333 3.33331 0 1.8408-1.4925 3.3333-3.3333 3.3333-1.84109 0-3.3334-1.4925-3.3334-3.3333 0-1.84103 1.49231-3.33331 3.3334-3.33331z" fill="#767676"/></svg>