<svg fill="none" height="16" viewBox="0 0 16 16" width="16" xmlns="http://www.w3.org/2000/svg"><rect fill="#1275b1" height="14" rx="7" width="14" x="1" y="1"/><g fill="#fff"><path d="m6.30928 4.84607c0 .46728-.40502.84608-.90464.84608s-.90464-.3788-.90464-.84608c0-.46727.40502-.84607.90464-.84607s.90464.3788.90464.84607z"/><path d="m4.62371 6.31405h1.54639v4.68595h-1.54639z"/><path d="m8.65979 6.31405h-1.54639v4.68595h1.54639s0-1.47521 0-2.39757c0-.55362.18904-1.10966.9433-1.10966.85241 0 .84731.7245.84331 1.28578-.0052.73367.0072 1.48235.0072 2.22145h1.5464v-2.47314c-.0131-1.57917-.4246-2.30682-1.7784-2.30682-.8039 0-1.30224.36499-1.56181.69521z"/></g></svg>