<svg fill="none" height="20" viewBox="0 0 20 20" width="20" xmlns="http://www.w3.org/2000/svg"><path clip-rule="evenodd" d="m17.7778 20h-15.55557c-1.227305 0-2.22223-.9949-2.22223-2.2222v-15.55557c0-1.227305.994925-2.22223 2.22223-2.22223h15.55557c1.2273 0 2.2222.994925 2.2222 2.22223v15.55557c0 1.2273-.9949 2.2222-2.2222 2.2222zm-3.5234-2.7778h2.9678v-6.0969c0-2.57961-1.4623-3.82693-3.5048-3.82693-2.0435 0-2.9035 1.59132-2.9035 1.59132v-1.29713h-2.86021v9.62964h2.86021v-5.055c0-1.3544.6235-2.1604 1.8168-2.1604 1.097 0 1.6237.7745 1.6237 2.1604zm-11.47661-12.66747c0 .98128.78945 1.77696 1.7637 1.77696s1.76326-.79568 1.76326-1.77696c0-.9813-.78901-1.77696-1.76326-1.77696s-1.7637.79566-1.7637 1.77696zm3.26927 12.66747h-2.98245v-9.62964h2.98245z" fill="#767676" fill-rule="evenodd"/></svg>