<svg fill="none" height="20" viewBox="0 0 20 20" width="20" xmlns="http://www.w3.org/2000/svg"><path clip-rule="evenodd" d="m9.99998 20c5.52252 0 10.00002-4.4775 10.00002-10.00002 0-5.5229-4.4775-9.99998-10.00002-9.99998-5.5229 0-9.99998 4.47674-9.99998 9.99998 0 5.52252 4.47674 10.00002 9.99998 10.00002zm-1.49999-10.00002h2.83311c.197 0 .392-.03881.574-.11419s.3474-.18584.4867-.32514c.1392-.13929.2497-.30465.3251-.48662.0754-.18201.1142-.37705.1142-.57404s-.0388-.39204-.1142-.57405c-.0754-.18197-.1859-.34733-.3251-.48662-.1393-.1393-.3047-.24976-.4867-.32514-.182-.07541-.377-.11419-.574-.11419h-2.83311zm-2-4.99999h4.83311c1.933 0 3.5 1.56703 3.5 3.5 0 1.93301-1.567 3.50001-3.5 3.50001h-2.83311v3h-2z" fill="#767676" fill-rule="evenodd"/></svg>