<svg fill="none" height="16" viewBox="0 0 16 16" width="16" xmlns="http://www.w3.org/2000/svg"><circle cx="8" cy="8" fill="#1ed760" r="7"/><path d="m11.1822 10.8115c-.1196.1897-.3748.2429-.5741.129-1.57062-.9108-3.53991-1.11578-5.86798-.6148-.22324.0455-.44648-.0835-.49432-.296-.04784-.21257.0877-.4251.31094-.47064 2.54334-.5541 4.72789-.3188 6.48196.70594.1993.1138.2631.3567.1435.5465zm.8132-1.73064c-.1515.2353-.4704.30362-.7176.16699-1.79384-1.05507-4.52853-1.35868-6.6493-.74386-.27905.0759-.56607-.06831-.6458-.32639-.07973-.26566.07175-.53892.3508-.61482 2.42374-.69832 5.43748-.36434 7.5024.84253.2313.13663.311.44025.1595.67555zm.0718-1.80652c-2.15271-1.21447-5.70062-1.32832-7.75762-.73627-.32688.09868-.67769-.0759-.78133-.3947-.10365-.31121.0877-.64519.41458-.74386 2.35996-.68314 6.28257-.54651 8.75417.85012.295.16699.3907.53133.2153.81218-.1675.28844-.5501.38711-.8451.21253z" fill="#fff"/></svg>