<svg viewBox="0 0 16 16" fill="currentColor" xmlns="http://www.w3.org/2000/svg">
<path fill-rule="evenodd" clip-rule="evenodd" d="M15 8C15 11.866 11.866 15 8 15C4.13401 15 1 11.866 1 8C1 4.13401 4.13401 1 8 1C11.866 1 15 4.13401 15 8ZM10.6081 10.9405C10.8074 11.0544 11.0626 11.0012 11.1822 10.8115C11.3018 10.6217 11.238 10.3788 11.0387 10.265C9.28463 9.24026 7.10008 9.00496 4.55674 9.55906C4.3335 9.6046 4.19796 9.81713 4.2458 10.0297C4.29364 10.2422 4.51688 10.3712 4.74012 10.3257C7.06819 9.82472 9.03748 10.0297 10.6081 10.9405ZM11.2778 9.24785C11.525 9.38448 11.8439 9.31616 11.9954 9.08086C12.1469 8.84556 12.0672 8.54194 11.8359 8.40531C9.77098 7.19844 6.75724 6.86446 4.3335 7.56278C4.05445 7.63868 3.90297 7.91194 3.9827 8.1776C4.06243 8.43568 4.34945 8.57989 4.6285 8.50399C6.74927 7.88917 9.48396 8.19278 11.2778 9.24785ZM4.30958 6.53807C6.36658 5.94602 9.91449 6.05987 12.0672 7.27434C12.3622 7.44892 12.7448 7.35025 12.9123 7.06181C13.0877 6.78096 12.992 6.41662 12.697 6.24963C10.2254 4.853 6.30279 4.71637 3.94283 5.39951C3.61595 5.49818 3.4246 5.83216 3.52825 6.14337C3.63189 6.46217 3.9827 6.63675 4.30958 6.53807Z" />
</svg>
