<svg fill="none" height="16" viewBox="0 0 16 16" width="16" xmlns="http://www.w3.org/2000/svg"><path d="m5.89437 14c-1.6175 0-3.12528-.4705-4.39437-1.2822 1.0775.0697 2.97903-.0972 4.16179-1.2254-1.77925-.0817-2.58166-1.4463-2.68632-2.02942.15118.05832.87218.1283 1.2792-.03499-2.04672-.51318-2.36071-2.30933-2.29093-2.8575.38376.26825 1.03499.36156 1.29083.33823-1.90717-1.3646-1.22106-3.41734-.88381-3.86055 1.36865 1.89616 3.41984 2.96111 5.95743 3.02035-.04785-.20984-.07311-.42831-.07311-.6527 0-1.61036 1.30162-2.91582 2.90722-2.91582.839 0 1.5949.35638 2.1255.92642.5607-.13137 1.4044-.43889 1.8168-.70482-.2079.74645-.8551 1.36914-1.2467 1.59994.0033.00785-.0031-.00789 0 0 .344-.05202 1.2745-.23086 1.6421-.48026-.1818.41935-.868 1.11658-1.4311 1.50693.1047 4.62082-3.4307 8.65179-8.17453 8.65179z" fill="#47acdf"/></svg>