<svg fill="none" height="30" viewBox="0 0 80 30" width="80" xmlns="http://www.w3.org/2000/svg"><path d="m79.444 18.0961c-.136 0-.26.088-.324.272-.82 2.34-1.928 3.732-2.84 3.732-.524 0-.736-.584-.736-1.5 0-2.292 1.372-7.152 2.064-9.368.08-.268.132-.508.132-.712 0-.64404-.352-.96004-1.224-.96004-.94 0-1.952.368-2.936 2.09204-.34-1.52-1.368-2.18404-2.804-2.18404-1.66 0-3.264 1.06804-4.584 2.80004s-2.872 2.3-4.04 2.02c.84-2.056 1.152-3.592 1.152-4.73204 0-1.788-.884-2.868-2.312-2.868-2.172 0-3.424 2.072-3.424 4.25204 0 1.684.764 3.416 2.444 4.256-1.408 3.184-3.464 6.064-4.244 6.064-1.008 0-1.304-4.932-1.248-8.46.036-2.024.204-2.128.204-2.74 0-.35204-.228-.59204-1.144-.59204-2.136 0-2.796 1.80804-2.896 3.88404-.0323.7889-.1558 1.5714-.368 2.332-.892 3.184-2.732 5.6-3.932 5.6-.556 0-.708-.556-.708-1.284 0-2.292 1.284-5.156 1.284-7.6 0-1.796-.788-2.93204-2.272-2.93204-1.748 0-4.06 2.08004-6.248 5.97604.72-2.984 1.016-5.87204-1.116-5.87204-.4625.0069-.9166.12488-1.324.344-.1368.06395-.2511.16764-.3282.29744-.077.1298-.1132.2799-.1038.4306.204 3.176-2.56 11.312-5.18 11.312-.476 0-.708-.516-.708-1.348 0-2.296 1.368-7.144 2.056-9.364.088-.288.136-.536.136-.752 0-.60804-.376-.92004-1.228-.92004-.936 0-1.952.356-2.932 2.08004-.344-1.52-1.372-2.18404-2.808-2.18404-2.356 0-4.988 2.49204-6.144 5.74004-1.548 4.336-4.668 8.524-8.868 8.524-3.812 0-5.824-3.172-5.824-8.184 0-7.23604 5.312-13.14804 9.252-13.14804 1.884 0 2.784 1.2 2.784 3.04 0 2.228-1.244 3.264-1.244 4.112 0 .26.216.51604.644.51604 1.712 0 3.728-2.01204 3.728-4.75604s-2.228-4.752001-6.168-4.752001c-6.512 0-13.064 6.552001-13.064 14.948041 0 6.68 3.296 10.708 8.996 10.708 3.888 0 7.284-3.024 9.116-6.552.208 2.924 1.536 4.452 3.56 4.452 1.8 0 3.256-1.072 4.368-2.956.428 1.972 1.564 2.936 3.04 2.936 1.692 0 3.108-1.072 4.456-3.064-.02 1.564.336 3.036 1.692 3.036.64 0 1.404-.148 1.54-.708 1.428-5.904 4.956-10.724 6.036-10.724.32 0 .408.308.408.672 0 1.604-1.132 4.892-1.132 6.992 0 2.268.964 3.768 2.956 3.768 2.208 0 4.452-2.704 5.948-6.656.468 3.692 1.48 6.672 3.064 6.672 1.944 0 5.396-4.092 7.488-8.424.82.104 2.052.076 3.236-.76-.504 1.276-.8 2.672-.8 4.068 0 4.02 1.92 5.148 3.572 5.148 1.796 0 3.252-1.072 4.368-2.956.368 1.7 1.308 2.932 3.036 2.932 2.704 0 5.052-2.764 5.052-5.032 0-.6-.256-.964-.556-.964zm-56.124 3.792c-1.092 0-1.52-1.1-1.52-2.74 0-2.848 1.948-7.604 4.008-7.604.9 0 1.24 1.06 1.24 2.356 0 2.892-1.852 7.988-3.728 7.988zm37.404-8.5c-.652-.776-.888-1.832-.888-2.772 0-1.16004.424-2.14004.932-2.14004s.664.5.664 1.196c0 1.16404-.416 2.86404-.708 3.71604zm8.468 8.5c-1.092 0-1.52-1.264-1.52-2.74 0-2.748 1.948-7.604 4.024-7.604.9 0 1.22 1.052 1.22 2.356 0 2.892-1.82 7.988-3.724 7.988z" fill="#000"/></svg>