<svg fill="none" height="164" viewBox="0 0 513 164" width="513" xmlns="http://www.w3.org/2000/svg" xmlns:xlink="http://www.w3.org/1999/xlink"><linearGradient id="a" gradientUnits="userSpaceOnUse" x1="108.426" x2="368.166" y1="-75.2072" y2="201.525"><stop offset="0" stop-color="#00c4cc"/><stop offset=".9122" stop-color="#7a28eb"/><stop offset="1" stop-color="#7a28eb"/></linearGradient><mask id="b" height="164" maskUnits="userSpaceOnUse" width="513" x="0" y="0"><path d="m507.53 112.04c-.64 0-1.92.64-1.92 1.92-5.11 14.7-12.14 23.65-17.9 23.65-3.2 0-4.47-3.84-4.47-9.59 0-14.7 8.95-46.02 13.42-60.08.64-1.92.64-3.2.64-4.47 0-3.84-2.56-6.39-7.67-6.39-5.75 0-12.78 2.56-18.54 13.42-1.92-9.59-8.95-14.06-17.9-14.06-10.87 0-21.09 7.03-29.4 17.9s-18.54 14.7-25.57 12.78c5.11-13.42 7.67-23.01 7.67-30.04 0-11.51-5.75-18.54-14.7-18.54-14.06 0-21.73 13.42-21.73 27.49 0 10.87 5.11 21.73 15.34 27.49-8.95 20.45-22.37 38.99-26.85 38.99-6.39 0-8.31-31.32-7.67-54.33 0-12.78 1.28-13.42 1.28-17.26 0-2.56-1.28-3.84-7.03-3.84-13.42 0-17.9 11.51-18.54 24.93 0 5.11-1.28 10.23-2.56 14.7-5.75 20.45-17.26 35.8-24.93 35.8-3.84 0-4.47-3.84-4.47-8.31 0-14.7 8.31-33.24 8.31-48.58 0-11.51-5.11-18.54-14.7-18.54-10.87 0-26.21 13.42-39.63 38.35 4.47-19.18 6.39-37.71-7.03-37.71-3.2 0-5.75.64-8.31 1.92-1.92.64-3.2 2.56-2.56 4.47 1.28 20.45-16.62 72.23-33.24 72.23-3.2 0-4.47-3.2-4.47-8.31 0-14.7 8.95-45.38 13.42-60.08.64-1.92.64-3.2.64-5.11 0-3.84-2.56-5.75-7.67-5.75-5.75 0-12.78 2.56-18.54 13.42-1.92-9.59-8.95-14.06-17.9-14.06-15.34 0-31.96 15.98-38.99 36.43-9.59 27.49-30.04 54.33-56.89 54.33-24.29 0-37.07-20.45-37.07-52.41-3.2-45.38 30.68-83.1 55.61-83.1 12.14 0 17.9 7.67 17.9 19.18 0 14.06-7.67 21.09-7.67 26.21 0 1.92 1.28 3.2 3.84 3.2 10.87 0 23.65-12.78 23.65-30.68s-14.06-29.399992-38.99-29.399992c-41.55-.03-83.74 41.519992-83.74 95.209992 0 42.83 21.09 68.39 57.53 68.39 24.93 0 46.66-19.18 58.17-42.19 1.28 18.54 9.59 28.76 23.01 28.76 11.51 0 21.09-7.03 28.12-19.18 2.56 12.78 10.23 18.54 19.18 18.54 10.87 0 19.82-7.03 28.76-19.82 0 10.23 1.92 19.18 10.87 19.18 3.84 0 8.95-.64 9.59-4.47 8.95-37.71 31.96-68.39 38.35-68.39 1.92 0 2.56 1.92 2.56 4.47 0 10.23-7.03 31.32-7.03 44.74 0 14.7 6.39 24.29 19.18 24.29 14.06 0 28.76-17.26 37.71-42.83 3.2 23.65 9.59 42.83 19.82 42.83 12.14 0 34.52-26.21 47.94-53.69 5.11.64 13.42.64 20.45-5.11-3.2 8.31-5.11 17.26-5.11 26.21 0 25.57 12.14 32.6 23.01 32.6 11.51 0 21.09-7.03 28.12-19.18 2.56 10.87 8.31 18.54 19.18 18.54 17.26 0 32.6-17.9 32.6-31.96-.65-2.55-2.57-5.11-4.48-5.11zm-358.6 24.29c-7.03 0-9.59-7.03-9.59-17.26 0-17.9 12.14-48.58 25.57-48.58 5.75 0 7.67 7.03 7.67 15.34 0 17.9-11.5 50.5-23.65 50.5zm239.06-54.33c-4.47-5.11-5.75-11.51-5.75-17.9 0-7.67 2.56-13.42 5.75-13.42 3.2 0 4.47 3.2 4.47 7.67.01 7.03-2.55 17.9-4.47 23.65zm54.34 54.33c-7.03 0-9.59-8.31-9.59-17.26 0-17.26 12.14-48.58 25.57-48.58 5.75 0 7.67 7.03 7.67 15.34 0 17.9-11.51 50.5-23.65 50.5z" fill="#fff"/></mask><g mask="url(#b)"><path d="m513.28-8.77002h-515.2v180.89002h515.2z" fill="url(#a)"/></g></svg>