<svg fill="none" height="357" viewBox="0 0 1000 357" width="1000" xmlns="http://www.w3.org/2000/svg" xmlns:xlink="http://www.w3.org/1999/xlink"><clipPath id="a"><path d="m0 0h1000v356.39h-1000z"/></clipPath><g clip-path="url(#a)"><path d="m110.307 356.244c-29.7954-1.184-54.1729-9.337-73.2341-24.479-3.6377-2.893-12.3061-11.567-15.2143-15.225-7.7295-9.719-12.98463-19.178-16.48973-29.673-10.7857-32.306-5.234688-74.699 15.87753-121.225 18.0765-39.831 45.9693-79.3363 94.6326-134.0505 7.168-8.0511 28.515-31.59687109 28.653-31.59687109.051 0-1.112 2.01529109-2.577 4.46939109-12.653 21.19378-23.479 46.15798-29.377 67.77028-9.475 34.6787-8.332 64.4387 3.347 87.5147 8.056 15.898 21.867 29.669 37.398 37.281 27.188 13.321 66.995 14.424 115.607 3.225 3.347-.776 169.193-44.801 368.55-97.837 199.357-53.0409 362.495-96.40298 362.52-96.36728.06.046-463.162 198.26028-703.626 301.09128-38.082 16.281-48.266 20.393-66.169 26.679-45.765 16.071-86.76 23.739-119.898 22.423z" fill="#000"/></g></svg>