<svg fill="none" height="134" viewBox="0 0 730 134" width="730" xmlns="http://www.w3.org/2000/svg"><g clip-rule="evenodd" fill="#000" fill-rule="evenodd"><path d="m670.306 105.409c-11.223-.605-23.682-1.278-32.242-1.278-13.002 0-23.361 1.393-26.432 1.857-7.641-10.6719-12.141-23.7477-12.141-37.8716 0-8.68 1.704-16.9624 4.785-24.5354l13.762-.9974-8.106-9.8422c1.359-2.095 2.832-4.11 4.416-6.0309l13.051 15.1931 4.045-.2952-14.526-17.8246c2.169-2.3326 4.507-4.5065 6.997-6.5015l12.025 3.4514.387-11.29137c2.569-1.241 5.236-2.31497 7.978-3.21484l8.442 14.01101 8.139-17.13647c.62-.03412 1.242-.06241 1.866-.08006l10.616 20.41483 2.097-1.8974-7.173-18.43971c1.989.11057 3.956.31052 5.894.59519l6.754 13.38512 13.134-7.0543c1.416.7187 2.8 1.488 4.153 2.3032l-12.401 10.5151-.633 2.6654 3.808 7.5508 13.079-18.2127c1.413.9963 2.786 2.0455 4.113 3.1454l-6.405 10.1903 16.269.0011c1.432 1.8409 2.766 3.7607 3.996 5.7534l-14.077.9845-5.447 10.3022c5.981-.7987 13.515-2.7362 21.985-6.9427.922 1.788 1.765 3.6231 2.521 5.5028-9.875 5.3346-20.402 7.9731-28.645 9.2682l-3.753 7.0943 34.889-8.9036c1.44 5.3828 2.212 11.0373 2.212 16.873 0 12.9676-3.79 25.0472-10.325 35.1986-5.299 1.127-17.98 3.042-26.837 3.042-4.71 0-13.075-.451-22.27-.948zm.008 1.701c-11.216-.719-23.667-1.518-32.227-1.605-12.115-.125-21.946.988-25.718 1.487 1.27 1.701 2.616 3.34 4.041 4.908 5.046.044 19.269.649 45.689 5.138 21.96 3.73 34.196 4.316 40.118 4.259 5.991-4.244 11.235-9.474 15.493-15.454-5.992 1.07-17.133 2.522-25.137 2.441-4.709-.048-13.069-.584-22.259-1.174zm-8.924 11.619c-23.545-4.196-37.395-5.217-43.689-5.448 11.846 12.305 28.488 19.966 46.919 19.966 12.724 0 24.593-3.652 34.622-9.961-6.551-.158-18.376-1.084-37.852-4.557zm-1.494-77.3418 5.493-3.9994 1.929-10.9867-4.929-10.3751-5.634 12.9983zm-11.446-9.9399-5.611-1.7997.565 10.4102zm46.629 4.2466 3.548-.2481-6.185 10.2749c-1.398-.0259-2.581-.107-3.536-.2046zm-7.681 18.3856-5.269 8.7481-4.906 1.254 6.163-9.8056c1.01-.0259 2.367-.0813 4.012-.1965zm-4.27-12.8336-1.871-4.8227-9.222 6.4109.447 13.2451zm-11.834 30.5487 21.308-5.3003 3.019 4.4099 5.636-.2964-1.474-5.9016 8.329-2.0726c1.45 2.0727 5.216 7.072 9.165 9.1623l4.45-2.0785s-4.124-5.0935-5.352-9.14l7.146-1.7786c.498 3.0949.759 6.2675.759 9.5012.001 12.0394-3.579 23.245-9.73 32.61-13.882-.346-27.813-2.0544-41.729-4.0388-2.929-12.4348-1.527-25.0766-1.527-25.0766zm-6.27-18.8091-.117-6.2461-3.835 1.7173 1.023 4.3523zm-36.677-5.011 9.411-.3175 3.27 2.776-9.187 7.4224-8.787-3.3171zm-12.833 3.7054 2.505-3.3642-10.504.341zm-6.988 3.3524 3.322 1.5903-4.595 6.1944c.249-2.6514.677-5.2485 1.273-7.7847zm1.578 12.9066-3.107-.1201c-.001.0672-.003.1342-.005.2012-.003.0936-.005.1871-.005.2811 0 7.5954 1.468 14.8461 4.13 21.491 15.822.4576 31.781 2.6879 47.785 5.0441l.786-25.1577-3.081-3.4383-8.297 3.1902-13.36-.5212 16.041-8.9376-4.025-4.4922-15.932 13.2768-8.401-.3268 3.566-4.9394-7.475-3.5783-6.467 8.0272zm38.723-20.635 3.011-6.9401 1.658 11.5514zm-6.611-29.2075 3.07 5.3874-2.8-.341zm-7.152 9.0574-9.752-3.1172 10.246 10.1281z"/><path d="m92.4904 118.965c-2.9667-1.783-3.5608-3.858-3.5608-5.935v-61.1137c0-5.3416-2.3725-7.1202-3.8559-7.1202-3.5606 0-20.1736 7.1202-24.0307 9.1976-3.8559 2.0762-.8905 4.7464.8893 5.6369 1.7809.8904 3.2642 1.7797 3.2642 6.5261v46.8733c0 2.076-.594 4.154-3.5607 5.935-.6234.372-.9951.863-1.1668 1.403-.26-.655-.8164-1.331-1.7257-1.998-3.9533-2.899-3.9257-4.393-3.8703-7.394.007-.378.0144-.778.0144-1.209v-84.2541c0-.4569-.0032-.9045-.0063-1.3398v-.0004-.0004-.0004-.0004-.0004-.0004-.0003-.0013c-.0267-3.8017-.0468-6.6656 2.0824-6.6656 4.9562 0 8.0493 7.8655 10.8362 14.9523.5494 1.3971 1.0869 2.764 1.6245 4.0344 3.2631 7.713 13.9439 3.5595 12.757-1.7809-.5935-2.6703-1.4837-7.7884-2.3739-12.9059-.8901-5.1173-1.7802-10.2345-2.3736-12.90461-1.1858-5.3416-3.2631-8.9000107-5.3405-8.9000107-2.0762 0-5.6369 3.2631307-5.6369 3.2631307l-25.1047.4446-25.1059-.4446s-3.5606-3.2631307-5.6368-3.2631307c-2.07737 0-4.15357 3.5595807-5.34047 8.9000107-.594 2.67271-1.48528 7.79771-2.37612 12.92011h-.00001c-.88917 5.1129-1.77791 10.2233-2.370212 12.8904-1.186893 5.3404 9.492712 9.4939 12.757012 1.7809.5364-1.2685 1.0729-2.6331 1.6213-4.0279 2.7872-7.089 5.8813-14.9588 10.8382-14.9588 2.13 0 2.11 2.8661 2.0834 6.6699-.003.4352-.0061.8827-.0061 1.3395v84.2541c0 .43.0073.83.0143 1.206.0552 3.003.0827 4.498-3.8715 7.397-4.4499 3.264-.5928 6.764 6.5274 6.764l21.7311-.001c4.4053 0 7.5577-1.338 8.2705-3.132.4811 1.611 2.195 3.133 4.1148 3.133l24.9212-.001c3.263 0 5.9333-4.39 2.9667-6.168zm199.6586-17.504c0 5.959-2.713 5.947-5.544 5.935-.13-.001-.259-.002-.389-.002-.068 0-.141.001-.218.001-2.428.013-8.915.047-13.508-11.2332-.134-1.3963-.053-5.0217 4.233-5.9745 0 0 20.47-8.0095 22.844-9.1963 2.374-1.1858 2.669-5.3405 2.669-8.6035.002-3.2643-5.042-28.183-24.326-28.183s-26.701 20.7665-26.701 43.3127c0 22.5458 10.681 39.7548 29.963 39.7548 19.286 0 22.251-12.163 22.251-19.878 0-8.8994-11.274-10.9757-11.274-5.933zm91.985 17.504c-2.966-1.782-3.562-3.858-3.562-5.935v-101.1176c.002-5.3404-2.373-7.12016-3.857-7.12016-3.559 0-20.17 7.12016-24.027 9.19636-3.856 2.0762-.89 4.7464.891 5.6369 1.779.8904 3.263 1.7797 3.263 6.5273v22.6204c-1.548-2.1456-4.183-3.5313-8.325-3.5313-8.414 0-10.967 3.6525-13.341 7.0485-1.584 2.267-3.089 4.4198-6.203 5.2956 0-2.1171 0-3.7813 0-4.8291v-.8406c.001-5.3416-2.373-7.1202-3.856-7.1202-3.56 0-20.174 7.1202-24.031 9.1976-3.855 2.0762-.889 4.7464.89 5.6369 1.78.8904 3.263 1.7797 3.263 6.5261v46.8733c0 2.076-.592 4.154-3.559 5.935-2.967 1.778-.298 6.169 2.967 6.169l24.921-.001c3.262 0 5.932-4.39 2.965-6.168-2.965-1.782-3.56-3.858-3.56-5.935v-30.4674c1.846-6.0039 6.41-18.0375 13.313-18.0375 1.179 0 1.75 1.2651 2.437 2.7897 1.041 2.3116 2.352 5.2199 6.463 5.2199 1.57-.0012 3.99-3.3996 5.656-7.7978v48.2931c0 2.076-.593 4.154-3.56 5.935-2.968 1.778-.298 6.169 2.967 6.169l24.919-.001c3.262 0 5.931-4.39 2.966-6.168zm126.406 0c-2.968-1.782-3.561-3.857-3.561-5.935 0-.14.002-.349.004-.62.056-7.74.482-66.7234-22.162-66.7234-5.039-.0008-7.236 2.2566-9.299 4.3748-.971.9977-1.912 1.9646-3.106 2.6501.001-.2292.001-.4303 0-.5977v-.1975c.001-5.3416-2.373-7.1202-3.856-7.1202-3.559 0-20.174 7.1203-24.031 9.1977-3.857 2.0761-.889 4.7464.891 5.6368 1.781.8905 3.263 1.7797 3.263 6.5261.001 3.9764 0 32.7454 0 43.1853v3.688c.001 1.995-.553 3.988-3.224 5.719-.399-2.526-2.534-5.421-4.675-5.421-2.374-.001-2.967-2.078-2.967-4.748s0-3.857-2.373-33.2269c-2.305-28.529-14.127-28.5058-26.766-28.481-.373.0007-.747.0015-1.121.0015-13.054-.0012-24.327 6.2296-24.327 16.3176.001 10.0845 6.527 10.9749 11.57 10.9749 5.045-.0012 8.9-1.1855 8.9-7.7129.001-6.5261-4.154-8.6024-4.154-8.6024s2.078-.5941 6.824-.5941c4.748 0 7.417 7.4166 7.417 13.9428 0 3.8085-4.828 5.0518-8.889 6.0976-1.634.4206-3.143.8093-4.165 1.3202-12.343 6.1709-18.394 16.0201-18.394 28.1827.001 12.165 7.122 18.334 9.494 18.334 1.677-.001 8.975 0 14.791 0h5.976c3.045 0 4.991-1.074 6.386-1.844.781-.43 1.389-.766 1.921-.766.708 0 1.281.595 1.88 1.217.656.68 1.343 1.393 2.273 1.393h4.969 8.085c3.996-.001 5.878-.627 6.749-1.565.793.908 1.965 1.565 3.227 1.565l24.921-.001c3.262 0 5.932-4.39 2.966-6.168-2.966-1.782-3.561-3.857-3.561-5.935v-46.1722c.001-1.8315 2.348-4.5581 4.989-4.5581 6.231 0 8.334 44.2043 8.334 50.7303.001 2.076-.593 4.154-3.56 5.935-2.966 1.778-.296 6.169 2.967 6.169l22.428-.001c3.263 0 5.932-4.39 2.966-6.168zm-283.954-75.3546c-3.811 0-5 .9988-6.287 2.0804-.904.7596-1.856 1.56-3.8 2.0837v-37.98402c0-5.34161-2.374-7.12019-3.857-7.12019-3.561 0-18.634 7.12017-22.491 9.19631-3.857 2.0774-.891 6.2308.889 7.1213 1.727.8621 1.726 1.7243 1.725 6.1018v89.1283c0 2.499.147 4.423.391 5.913-.2-.445-.545-.848-1.077-1.165-2.967-1.782-3.56-3.857-3.56-5.935 0-.142.002-.353.004-.629.055-7.776.473-66.7142-22.162-66.7142-5.039-.0007-7.238 2.2553-9.301 4.3724-1.423 1.4607-2.782 2.8553-4.965 3.397-2.279-4.7605-6.348-8.6599-13.324-8.6599-7.097 0-9.286 2.5419-11.283 4.8616-1.257 1.4597-2.438 2.8314-4.718 3.4266v-1.168c0-5.3416-2.374-7.1202-3.857-7.1202-3.561 0-20.1741 7.1201-24.0312 9.1975-3.8571 2.0761-.8904 4.7464.8905 5.6368 1.7797.8905 3.263 1.7799 3.263 6.5263v46.8731c0 2.076-.5928 4.154-3.5606 5.935-2.9667 1.778-.2965 6.169 2.9678 6.169l24.9205-.001c3.263 0 5.933-4.39 2.966-6.168-2.966-1.782-3.559-3.857-3.559-5.935v-44.3407c0-4.6087 3.326-7.5754 5.914-7.5754 2.669 0 4.784 1.7799 4.784 7.1192v44.7969c0 2.076-.594 4.154-3.56 5.935-2.967 1.778-.297 6.169 2.966 6.169l22.426-.001c3.265 0 5.934-4.39 2.968-6.168-2.968-1.782-3.56-3.857-3.56-5.935 0 0-.003-47.5214-.006-47.7002 0-1.5845 2.265-3.0301 4.243-3.0301 6.229 0 8.335 44.2043 8.335 50.7303 0 2.076-.594 4.154-3.561 5.935-2.966 1.778-.296 6.169 2.966 6.169l22.427-.001c2.242 0 4.204-2.07 4.25-3.945.935 4.057 2.769 3.997 4.079 3.955.128-.005.251-.009.368-.009.178 0 .355.011.534.021 1.612.092 3.407.195 7.773-7.081.89-1.484 2.965-.593 5.635 2.373.311.345.606.699.902 1.054 2.247 2.694 4.565 5.473 14.526 5.473 11.273 0 23.437-1.779 23.437-42.4244 0-32.0402-17.504-40.9402-24.03-40.9402zm343.875 75.3546c-2.968-1.782-3.561-3.858-3.561-5.935v-98.4473c0-5.34041-2.372-7.12018-3.855-7.12018-1.532 0-5.211 1.87262-9.316 3.96168l-.001.0006-.003.0015c-2.515 1.2805-5.191 2.642-7.629 3.7033-1.621.7055-3.326.8957-4.708 1.0498-1.025.1144-1.872.2088-2.374.4795-3.856 2.075-.891 4.7464.889 5.6369 1.781.8904 3.264 1.7797 3.264 6.5273v23.412c-1.635-1.514-5.567-4.4724-11.311-4.4724-7.712-.0012-23.437 14.5369-23.437 45.0938.001 12.7575 3.857 21.9545 6.23 27.5905 2.063 4.9 4.351 4.823 7.447 4.719.466-.016.95-.032 1.454-.032 2.947-.001 43.943 0 43.943 0 3.266-.001 5.935-4.391 2.968-6.169zm-297.002-63.7796c2.67 0 8.605 8.3071 8.605 16.3166 0 8.0106-6.824 10.3844-10.088 10.3844-1.34 0-3.09-.1577-3.263-1.4846-2.967-22.6945 2.076-25.2152 4.746-25.2164zm-49.84.8937c5.339 0 7.713 17.7999 7.713 26.6999 0 8.8987-2.374 24.327-8.307 24.327s-6.822-18.0961-6.822-24.327c0-6.2298 2.076-26.6999 7.416-26.6999zm191.346 52.7999v-23.7332c-6.229 0-11.272 4.7451-11.274 16.6132 0 11.867 3.561 13.053 7.121 13.054 3.56 0 4.153-3.265 4.153-5.934zm120.454-47.4593c3.263 0 8.9 9.4927 8.9 26.4033.001 16.909-4.154 24.327-6.824 24.327-2.67-.001-8.603-6.824-8.603-24.0306.001-17.2082 4.45-26.6997 6.527-26.6997z"/><path d="m511.763 19.4138c0-3.4771 2.819-6.0393 6.151-6.0393 3.3-.0012 6.118 2.5633 6.118 6.0393 0 3.5066-2.818 6.0709-6.118 6.0709-3.331-.0012-6.151-2.5631-6.151-6.0709zm6.153 5.0581c2.739 0 4.9-2.1457 4.9-5.0606 0-2.8678-2.162-5.0298-4.9-5.0298-2.771 0-4.935 2.1632-4.935 5.0298 0 2.9137 2.163 5.0617 4.935 5.0606zm-1.283-1.5528h-1.056v-6.9836h2.657c1.65 0 2.467.6105 2.467 1.9868.001 1.2504-.785 1.795-1.809 1.9233l1.986 3.0735h-1.186l-1.841-3.0254h-1.218zm1.271-3.917c.897 0 1.697-.0647 1.697-1.1374 0-.8658-.784-1.0248-1.521-1.0248l-1.441-.001v2.1632z"/></g></svg>