<svg fill="none" height="418" viewBox="0 0 2280 418" width="2280" xmlns="http://www.w3.org/2000/svg" xmlns:xlink="http://www.w3.org/1999/xlink"><clipPath id="a"><path d="m0 0h2280v418h-2280z"/></clipPath><g clip-path="url(#a)" clip-rule="evenodd" fill="#000" fill-rule="evenodd"><path d="m2163.53 339.216c-32.68-.324-121.61-8.183-170.3-8.689-26.87-.278-53.72 1.278-80.37 4.656 3.98 5.317 8.18 10.441 12.64 15.33 15.76.156 60.22 2.023 142.8 16.057 68.65 11.647 106.87 13.501 125.39 13.32 18.73-13.274 35.09-29.606 48.4-48.313-18.73 3.359-53.55 7.899-78.56 7.639zm-97.48 32.632c-73.59-13.099-116.85-16.316-136.53-17.016 18.97 19.757 41.74 35.47 66.95 46.194 25.2 10.723 52.31 16.235 79.7 16.204 39.77 0 76.86-11.401 108.22-31.128-20.48-.506-57.46-3.411-118.34-14.254z"/><path d="m1993.18 326.247c26.76 0 65.7 2.096 100.78 3.984 28.74 1.547 54.88 2.955 69.6 2.955 27.69 0 67.3-5.98 83.88-9.494 21.12-32.798 32.33-70.998 32.27-110.01 0-18.235-2.42-35.913-6.92-52.735l-109.05 27.833 11.73-22.165c25.78-4.047 58.66-12.296 89.54-28.962-2.36-5.848-4.99-11.587-7.87-17.198-26.47 13.152-50.03 19.196-68.73 21.699l17.02-32.191 44-3.074c-3.85-6.225-8-12.2305-12.49-17.9891h-50.84l20.01-31.8536c-4.15-3.437-8.43-6.7184-12.84-9.8311l-40.88 56.9238-11.9-23.5916 1.97-8.3395 38.75-32.8654c-4.23-2.5551-8.56-4.9545-12.97-7.2112l-41.06 22.0487-21.1-41.8275c-6.11-.8997-12.25-1.5229-18.42-1.8677l22.43 57.6376-6.57 5.9272-33.19-63.7983c-1.94.0519-3.87.1427-5.82.2594l-25.43 53.5652-26.4-43.7859c-8.56 2.8144-16.9 6.1605-24.92 10.0385l-1.22 35.3037-37.59-10.7909c-7.78 6.2255-15.07 13.0217-21.87 20.3107l45.42 55.718-12.67.921-40.79-47.4823c-4.94 6.005-9.54 12.2954-13.8 18.8453l25.33 30.751-42.98 3.126c-9.92 24.346-15 50.389-14.97 76.677-.06 42.46 13.21 83.869 37.95 118.375 9.6-1.479 41.97-5.836 82.61-5.836zm178.18-213.924 11.07-.778-19.32 32.126c-3.69-.058-7.38-.275-11.05-.648zm-23.99 57.482-16.47 27.341-15.33 3.916 19.25-30.647c3.18-.078 7.41-.246 12.55-.61zm-19.2-55.186 5.86 15.071-33.29 46.341-1.37-41.374zm-31.13 110.554 66.6-16.562 9.43 13.774 17.62-.908-4.6-18.456 26.02-6.485c4.54 6.485 16.31 22.101 28.65 28.637l13.9-6.485s-12.89-15.926-16.72-28.585l22.35-5.551c1.54 9.675 2.36 19.597 2.36 29.701 0 37.612-11.17 72.656-30.4 101.903-43.4-1.089-86.94-6.407-130.44-12.619-9.15-38.845-4.77-78.364-4.77-78.364zm-19.99-78.337.38 19.532-9.14-.531-3.2-13.632zm-114.25 3.865 29.44-.973 10.21 8.69-28.75 23.177-27.43-10.376zm-32.29 1.063-7.82 10.545-25.01-9.455zm-29.66 20.998 10.38 4.968-14.35 19.364c.77-8.275 2.11-16.394 3.97-24.332zm-4.76 39.973 9.7.376h6.74l20.22-25.083 23.36 11.18-11.14 15.447 26.24 1.011 49.8-41.503 12.59 14.046-50.15 27.937 41.78 1.622 25.93-9.974 9.63 10.752-2.45 78.622c-50.03-7.366-99.91-14.331-149.36-15.784-8.56-21.356-12.94-44.152-12.92-67.157-.02-.287 0-.582.01-.881.01-.203.02-.407.02-.611zm165.33-82.63 17.15-12.477 6.03-34.344-15.38-32.4244-17.63 40.6343zm-53.3-36.6526 17.51 5.6159-15.76 26.8997zm18.7 55.1736 9.42-21.725 5.17 36.147zm-20.65-91.2815 9.57 16.8478-8.72-1.0895zm-22.38 28.313-30.48-9.7662 32.02 31.6717z"/><path d="m912.03 317.881c0 18.627-8.478 18.59-17.328 18.551-.405-.002-.812-.004-1.218-.004-.127 0-.259 0-.395.001l-.287.001h-.005c-7.6.041-27.863.148-42.217-35.085-.428-4.384-.169-15.707 13.229-18.69 0 0 63.98-25.031 71.398-28.728 7.419-3.722 8.34-16.692 8.34-26.899 0-10.181-15.758-88.091-76.029-88.091-60.27 0-83.447 64.914-83.447 135.379 0 70.477 33.384 124.25 93.641 124.25 60.271 0 69.544-38.027 69.544-62.138.013-27.807-35.226-34.292-35.226-18.547zm-624.014 54.72c-9.273-5.577-11.128-12.062-11.128-18.547v-191.019c0-16.692-7.419-22.256-12.049-22.256-11.128 0-63.046 22.256-75.108 28.741-12.049 6.485-2.775 14.837 2.776 17.613 5.564 2.788 10.207 5.564 10.207 20.401v146.507c0 6.485-1.855 12.97-11.128 18.547-1.717.957-3.017 2.52-3.645 4.383-.804-2.049-2.555-4.15-5.395-6.225-12.353-9.069-12.267-13.745-12.094-23.126.022-1.178.045-2.429.045-3.773v-263.3255c0-1.4367-.01-2.8438-.02-4.2121-.084-11.8725-.147-20.8196 6.505-20.8196 15.489 0 25.152 24.5667 33.862 46.7102 1.72 4.373 3.403 8.651 5.086 12.626 10.194 24.098 43.579 11.129 39.869-5.563-1.847-8.313-4.614-24.2137-7.387-40.1446-2.794-16.0588-5.595-32.1484-7.463-40.5278-3.709-16.6921-10.194-27.820214-16.692-27.820214s-17.613 10.194314-17.613 10.194314l-78.467 1.3878-78.4673-1.3878s-11.1281-10.194314-17.6129-10.194314c-6.4849 0-12.9828 11.128114-16.6921 27.820214-1.8547 8.346-4.6367 24.341-7.41875 40.336-2.78201 15.9949-5.56403 31.9894-7.418707 40.3364-3.709353 16.692 29.674857 29.674 39.869057 5.563 1.683-3.975 3.3657-8.253 5.0855-12.625h.0002c8.7105-22.1445 18.374-46.7112 33.8625-46.7112 6.652 0 6.5887 8.9364 6.5046 20.8158-.0097 1.3693-.0197 2.7776-.0197 4.2159v263.3255c0 1.342.023 2.593.0447 3.77.1728 9.383.2589 14.059-12.1066 23.129-13.9036 10.181-1.8547 21.128 20.4014 21.128h67.9231c13.774 0 23.618-4.177 25.848-9.78 1.505 5.046 6.861 9.78 12.866 9.78h77.884c10.207.013 18.56-13.696 9.286-19.273zm911.524 0c-9.27-5.577-11.14-12.062-11.14-18.547v-316.0474c0-16.692-7.39-22.2561-12.03-22.2561-11.14 0-63.06 22.2561-75.12 28.741-12.05 6.4849-2.79 14.8375 2.77 17.613 5.57 2.7755 10.21 5.564 10.21 20.4014v70.6981c-4.85-6.705-13.07-11.037-26.02-11.037-26.29 0-34.27 11.417-41.69 22.032-4.95 7.087-9.65 13.817-19.38 16.553v-17.73c0-16.692-7.42-22.256-12.06-22.256-11.12 0-63.051 22.256-75.113 28.741-12.061 6.485-2.775 14.838 2.776 17.613 5.564 2.789 10.207 5.564 10.207 20.401v146.507c0 6.485-1.854 12.97-11.128 18.547-9.273 5.577-.934 19.273 9.274 19.273h77.884c10.19 0 18.55-13.709 9.27-19.273-9.27-5.564-11.13-12.062-11.13-18.547v-95.224c5.78-18.767 20.04-56.38 41.61-56.38 3.69 0 5.47 3.954 7.61 8.72 3.26 7.228 7.35 16.325 20.21 16.325 4.92 0 12.48-10.635 17.68-24.383v150.942c0 6.485-1.86 12.97-11.13 18.547s-.93 19.273 9.27 19.273h77.9c10.18.039 18.55-13.67 9.27-19.247zm383.94-18.547c0 6.485 1.84 12.97 11.11 18.547s.93 19.286-9.23 19.247h-70.09c-10.21 0-18.54-13.696-9.28-19.273s11.12-12.062 11.12-18.547c0-20.389-6.56-158.555-26.04-158.555-8.27 0-15.61 8.521-15.61 14.24v144.315c0 6.485 1.87 12.983 11.14 18.547 9.28 5.564.91 19.273-9.27 19.273h-77.9c-3.94 0-7.6-2.049-10.07-4.89-2.74 2.944-8.62 4.89-21.1 4.89h-40.79c-2.92 0-5.08-2.234-7.13-4.363-1.87-1.941-3.66-3.795-5.87-3.795-1.66 0-3.56 1.047-5.99 2.391-4.36 2.408-10.45 5.767-19.98 5.767h-64.9c-7.42 0-29.66-19.273-29.66-57.301 0-38.001 18.9-68.778 57.48-88.077 3.2-1.603 7.93-2.821 13.05-4.138 12.68-3.265 27.76-7.145 27.76-19.039 0-20.402-8.36-43.579-23.18-43.579-14.85 0-21.34 1.855-21.34 1.855s12.97 6.498 12.97 26.886c0 20.415-12.06 24.111-27.82 24.111-15.75 0-36.14-2.788-36.14-34.305 0-31.542 35.22-51.01 76.01-51.01 1.17 0 2.33-.002 3.5-.005 39.52-.076 76.47-.148 83.67 89.017 7.42 91.8 7.42 95.496 7.42 103.861 0 8.34 1.86 14.851 9.27 14.851 6.7 0 13.35 9.053 14.6 16.951 8.35-5.421 10.07-11.66 10.07-17.885v-146.507c0-14.837-4.63-17.612-10.18-20.401-5.58-2.775-14.85-11.128-2.79-17.613 12.07-6.485 63.97-28.741 75.11-28.741 4.64 0 12.04 5.564 12.04 22.256v2.49c3.74-2.145 6.68-5.17 9.72-8.292 6.45-6.617 13.31-13.665 29.06-13.665 70.75 0 69.44 184.173 69.27 208.512-.01.865-.01 1.528-.01 1.974zm-896.016-210.475c4.024-3.378 7.738-6.496 19.644-6.496 20.415 0 75.108 27.82 75.069 127.908 0 127.038-38.014 132.589-73.253 132.589-31.138 0-38.379-8.684-45.401-17.105-.922-1.106-1.84-2.207-2.808-3.283-8.339-9.273-14.824-12.049-17.613-7.419-13.643 22.747-19.252 22.42-24.293 22.127h-.001c-.561-.033-1.114-.065-1.671-.065-.365 0-.75.013-1.151.026-4.087.135-9.822.325-12.74-12.36-.129 5.875-6.264 12.334-13.281 12.334h-70.088c-10.195 0-18.534-13.696-9.274-19.273 9.261-5.577 11.128-12.062 11.128-18.547 0-20.389-6.588-158.555-26.056-158.555-6.173 0-13.255 4.526-13.255 9.468l.013 149.087c0 6.485 1.855 12.983 11.128 18.547s.921 19.273-9.273 19.273h-70.089c-10.207 0-18.547-13.696-9.273-19.273 9.273-5.577 11.128-12.062 11.128-18.547v-140.009c0-16.692-6.615-22.256-14.954-22.256-8.093 0-18.482 9.274-18.482 23.683v138.595c0 6.485 1.854 12.983 11.128 18.547 9.273 5.564.921 19.273-9.274 19.273h-77.883c-10.194 0-18.547-13.696-9.273-19.273 9.273-5.577 11.128-12.062 11.128-18.547v-146.507c0-14.837-4.644-17.612-10.208-20.401-5.564-2.775-14.837-11.128-2.775-17.613s63.98-28.741 75.108-28.741c4.643 0 12.062 5.564 12.062 22.256v3.658c7.127-1.863 10.817-6.152 14.743-10.714 6.241-7.253 13.079-15.2 35.268-15.2 21.802 0 34.526 12.192 41.646 27.068 6.826-1.695 11.075-6.053 15.524-10.617 6.448-6.615 13.318-13.662 29.066-13.662 70.745 0 69.442 184.199 69.269 208.518l-.004.699c-.003.367-.005.684-.006.949v.32c0 6.485 1.841 12.97 11.115 18.547 1.48.828 2.66 2.104 3.372 3.644-.752-4.669-1.219-10.661-1.219-18.495v-277.2284-1.2703c.005-13.7173.006-16.4238-5.396-19.1181-5.551-2.7885-14.824-15.7713-2.775-22.2562s59.168-28.74095 70.296-28.74095c4.63 0 12.049 5.56395 12.049 22.25605v118.7119c6.08-1.637 9.059-4.139 11.885-6.512zm1094.426 229.022c-9.28-5.577-11.12-12.062-11.12-18.547v-307.6949c0-16.6921-7.42-22.2561-12.06-22.2561-4.79 0-16.26 5.8436-29.07 12.3662-7.88 4.0108-16.26 8.2784-23.9 11.6019-5.08 2.2121-10.41 2.8074-14.73 3.2891-3.2.3572-5.85.6519-7.41 1.4967-12.06 6.4849-2.79 14.8375 2.79 17.613s10.21 5.564 10.21 20.4014v73.1757c-5.13-4.721-17.41-13.982-35.37-13.982-24.11 0-73.25 45.433-73.25 140.943 0 39.869 12.06 68.623 19.48 86.223 6.45 15.303 13.59 15.064 23.28 14.741 1.45-.048 2.96-.098 4.54-.098h137.35c10.19.013 18.53-13.696 9.26-19.273zm-1059.931-113.123c0-27.82-7.419-83.447-24.111-83.447s-23.177 63.993-23.177 83.447c0 19.481 2.775 76.042 21.322 76.042s25.966-48.222 25.966-76.042zm158.542-35.238c0-25.019-18.534-50.985-26.886-50.985-8.34 0-24.111 7.873-14.851 78.805.545 4.15 6.018 4.656 10.208 4.656 10.207 0 31.529-7.419 31.529-32.476zm415.399 116.831v-74.174c-19.46 0-35.24 14.863-35.24 51.944s11.13 40.803 22.27 40.803c11.11 0 12.97-10.207 12.97-18.573zm404.28-65.821c0-52.865-17.62-82.527-27.82-82.527-6.49 0-20.39 29.662-20.39 83.434 0 53.773 18.53 75.108 26.87 75.108 8.37 0 21.34-23.177 21.34-76.015z"/><path d="m1617.66 42.585c-10.4 0-19.22 8.0023-19.22 18.871 0 10.9724 8.81 18.9747 19.22 18.9747 10.31 0 19.13-8.0153 19.13-18.9747 0-10.8687-8.82-18.871-19.13-18.871zm15.31 18.8709c0 9.1048-6.75 15.8231-15.31 15.8231-8.66 0-15.42-6.7054-15.42-15.8231 0-8.9621 6.76-15.7193 15.42-15.7193 8.56 0 15.31 6.7572 15.31 15.7193z"/><path d="m1610.34 72.4283h3.29.01v-9.4419h3.83l5.74 9.4549h3.7l-6.21-9.6106c3.21-.402 5.65-2.1011 5.65-6.018 0-4.306-2.54-6.2125-7.7-6.2125h-8.31zm12.56-15.823c0 3.3462-2.5 3.5537-5.29 3.5537h-3.98v-6.7573h4.51c2.31 0 4.76.5059 4.76 3.2036z"/></g></svg>