<svg height="672.31659" width="935.41626" xmlns="http://www.w3.org/2000/svg"><g clip-rule="evenodd" fill="#e60000" fill-rule="evenodd"><path d="m444.34414 423.57705c-36.19611-22.49899-62.86171-100.1433-62.86171-192.3951 0-3.38516.0273-6.72145.0984-10.05776l.0439.0488c-100.67459-15.7015-173.41417-58.71779-175.27705-109.5848l-.29544.58635c-24.63315 30.3796-38.6936 65.50441-38.6936 102.93122 0 110.13049 121.81989 200.36803 276.33444 208.34907l.65103.12227zm-323.52995-200.43588c0-123.228639 154.52821-223.14117 345.16226-223.14117 190.62855 0 345.16224 99.912531 345.16224 223.14117 0 123.22863-154.53642 223.14389-345.16224 223.14389-190.63405 0-345.16226-99.91797-345.16226-223.14389zm345.16226-190.937341c36.80065 0 68.10291 55.397792 79.69871 132.694611l.0439-.11672c71.59343-11.05948 121.72141-36.57171 121.72141-66.259089 0-39.845571-90.20848-72.109136-201.46388-72.109136-111.26359 0-201.46386 32.266295-201.46386 72.109136 0 29.687379 50.11978 55.199609 121.72139 66.259089l.0439.11672c11.59565-77.294119 42.90615-132.694611 79.69856-132.694611zm22.27788 391.248351c154.51453-7.97834 276.35083-98.21862 276.35083-208.34907 0-37.42411-14.07687-72.54892-38.70729-102.93124l-.3009-.58636c-1.86288 50.86703-74.58333 93.88333-175.26874 109.58484l.0439-.0488c.0684 3.33631.10398 6.6726.10398 10.05777 0 92.25179-26.68477 169.8961-62.85897 192.39508l.63737-.12204zm-22.27788-252.80954c16.48683 0 32.5141-.69767 47.8493-2.03872l-.0273.0244c-7.63203-49.55042-26.16775-84.520489-47.82743-84.520489-21.65965 0-40.19265 34.970069-47.83563 84.520489l-.0273-.0244c15.3352 1.34105 31.36794 2.03872 47.85478 2.03872zm0 183.49376c27.70511 0 50.3058-57.21657 51.51212-128.98097l.1478.0515c-16.70021 1.53378-33.97487 2.33459-51.65712 2.33459-17.69866 0-34.95692-.80081-51.65712-2.33459l.15584-.0515c1.18722 71.76167 23.78242 128.98097 51.49848 128.98097z"/><g transform="matrix(1.3176826 0 0 1.3176826 -1860.9052 14.947236)"><path d="m1766.663 436.05894c0-34.696 28.133-62.824 62.821-62.824 34.706 0 62.835 28.127 62.835 62.824 0 34.7-28.129 62.824-62.835 62.824-34.688 0-62.821-28.124-62.821-62.824zm62.821 39.787c19.379 0 35.087-17.815 35.087-39.787 0-21.971-15.708-39.788-35.087-39.788-19.365 0-35.07 17.817-35.07 39.788s15.705 39.787 35.07 39.787z"/><path d="m840.788 142.171h-26.469v-96.62h.087-37.018v-21.844h100.325v21.844h-36.838-.087z" transform="translate(1122.814 353.85994)"/><path d="m2032.55 469.37694-.026.025-10.154 26.629h-30.912l48.873-118.465h16.479 16.463l48.878 118.465h-30.918l-10.155-26.629-.025-.025h-24.242zm24.259-19.994h16.653l-.01.005-16.53-43.359h-.232l-16.54 43.359-.01-.005h16.665z"/><path d="m352.844 142.171h-26.471v-96.62h.09-37.021v-21.844h100.329v21.844h-36.835-.092z" transform="translate(1122.814 353.85994)"/><path d="m1519.355 436.05894c0-34.696 28.132-62.824 62.832-62.824 34.698 0 62.827 28.127 62.827 62.824 0 34.7-28.129 62.824-62.827 62.824-34.7 0-62.832-28.124-62.832-62.824zm62.832 39.787c19.369 0 35.078-17.815 35.078-39.787 0-21.971-15.708-39.788-35.078-39.788-19.372 0-35.081 17.817-35.081 39.788s15.709 39.787 35.081 39.787z"/><path d="m583.024 142.171h13.422v-44.429-.554l46.179-73.481h-30.907l-28.694 49.793-28.69-49.793h-30.917l46.184 73.481v.554 44.429z" transform="translate(1122.814 353.85994)"/></g></g></svg>