<svg fill="none" height="673" viewBox="0 0 936 673" width="936" xmlns="http://www.w3.org/2000/svg" xmlns:xlink="http://www.w3.org/1999/xlink"><clipPath id="a"><path d="m0 0h935.416v672.317h-935.416z"/></clipPath><g clip-path="url(#a)" clip-rule="evenodd" fill="#000" fill-rule="evenodd"><path d="m444.344 423.577c-36.196-22.499-62.862-100.143-62.862-192.395 0-3.385.028-6.721.099-10.058l.044.049c-100.675-15.702-173.415-58.718-175.278-109.585l-.295.587c-24.633 30.379-38.694 65.504-38.694 102.931 0 110.13 121.82 200.368 276.335 208.349zm-323.53-200.436c0-123.2285 154.528-223.141 345.162-223.141 190.629 0 345.162 99.9125 345.162 223.141 0 123.229-154.536 223.144-345.162 223.144-190.634 0-345.162-99.918-345.162-223.144zm345.162-190.9372c36.801 0 68.103 55.3978 79.699 132.6942l.044-.116c71.593-11.06 121.721-36.572 121.721-66.2594 0-39.8455-90.208-72.1091-201.464-72.1091-111.263 0-201.464 32.2663-201.464 72.1091 0 29.6874 50.12 55.1994 121.722 66.2594l.044.116c11.595-77.2937 42.906-132.6942 79.698-132.6942zm22.278 391.2482c154.515-7.978 276.351-98.218 276.351-208.349 0-37.424-14.077-72.549-38.707-102.931l-.301-.586c-1.863 50.867-74.584 93.883-175.269 109.584l.044-.048c.068 3.336.104 6.672.104 10.057 0 92.252-26.685 169.896-62.859 192.395zm-22.278-252.809c16.487 0 32.514-.698 47.85-2.039l-.028.024c-7.632-49.55-26.168-84.5202-47.827-84.5202-21.66 0-40.193 34.9702-47.836 84.5202l-.027-.024c15.335 1.341 31.368 2.039 47.855 2.039zm0 183.493c27.705 0 50.306-57.216 51.512-128.981l.148.052c-16.7 1.534-33.975 2.335-51.657 2.335-17.699 0-34.957-.801-51.657-2.335l.156-.052c1.187 71.762 23.782 128.981 51.498 128.981z"/><path d="m466.996 589.535c0-45.719 37.071-82.783 82.778-82.783 45.732 0 82.797 37.063 82.797 82.783 0 45.723-37.065 82.782-82.797 82.782-45.707 0-82.778-37.059-82.778-82.782zm82.778 52.426c25.536 0 46.234-23.474 46.234-52.426 0-28.951-20.698-52.428-46.234-52.428-25.517 0-46.211 23.477-46.211 52.428 0 28.95 20.694 52.426 46.211 52.426z"/><path d="m726.499 668.559h-34.878v-127.315h.115-48.778v-28.783h132.197v28.783h-48.541-.115z"/><path d="m817.351 633.437-.034.033-13.38 35.089h-40.732l64.399-156.1h21.714 21.693l64.405 156.1h-40.74l-13.381-35.089-.033-.033h-31.943zm31.966-26.346h21.943l-.013.007-21.781-57.133h-.306l-21.795 57.133-.013-.007h21.959z"/><path d="m83.5437 668.559h-34.8804v-127.315h.1187-48.782v-28.783h132.202v28.783h-48.537-.1213z"/><path d="m141.123 589.535c0-45.719 37.069-82.783 82.792-82.783 45.721 0 82.786 37.063 82.786 82.783 0 45.723-37.065 82.782-82.786 82.782-45.723 0-82.792-37.059-82.792-82.782zm82.792 52.426c25.522 0 46.222-23.474 46.222-52.426 0-28.951-20.698-52.428-46.222-52.428-25.526 0-46.225 23.477-46.225 52.428 0 28.95 20.699 52.426 46.225 52.426z"/><path d="m386.848 668.559h17.686v-58.544-.73l60.849-96.824h-40.726l-37.809 65.611-37.805-65.611h-40.738l60.856 96.824v.73 58.544z"/></g></svg>