<svg fill="none" height="36" viewBox="0 0 36 36" width="36" xmlns="http://www.w3.org/2000/svg"><rect fill="#fff" height="35" rx="7.5" width="35" x=".5" y=".5"/><path d="m19.1119 24.7675c-.3619.059-.7333.0896-1.1119.0896-3.7871 0-6.8571-3.07-6.8571-6.8571s3.07-6.8571 6.8571-6.8571 6.8571 3.07 6.8571 6.8571c0 .3786-.0306.75-.0896 1.1119.3674.3522.6678.7738.88 1.2439.2292-.7448.3525-1.5359.3525-2.3558 0-4.4183-3.5817-8-8-8s-8 3.5817-8 8 3.5817 8 8 8c.8199 0 1.611-.1233 2.3558-.3525-.4701-.2122-.8917-.5126-1.2439-.88z" fill="#10181c"/><path clip-rule="evenodd" d="m22 26c2.2091 0 4-1.7909 4-4s-1.7909-4-4-4-4 1.7909-4 4 1.7909 4 4 4z" fill="#10181c" fill-rule="evenodd"/><rect height="35" rx="7.5" stroke="#f5f5f5" width="35" x=".5" y=".5"/></svg>