<svg fill="none" height="36" viewBox="0 0 36 36" width="36" xmlns="http://www.w3.org/2000/svg" xmlns:xlink="http://www.w3.org/1999/xlink"><linearGradient id="a" gradientUnits="userSpaceOnUse" x1="8.97" x2="26.295" y1="10.23" y2="26.3475"><stop offset="0" stop-color="#e9b8ff"/><stop offset="1" stop-color="#f9ecff"/></linearGradient><clipPath id="b"><rect height="36" rx="8" width="36"/></clipPath><clipPath id="c"><path d="m7.5 7.5h21v21h-21z"/></clipPath><mask id="d" height="22" maskUnits="userSpaceOnUse" width="22" x="7" y="7"><path d="m28.5 7.5h-21v21h21z" fill="#fff"/></mask><g clip-path="url(#b)"><rect fill="#151821" height="36" rx="8" width="36"/><g stroke="#232831" stroke-width=".070313"><path d="m-3.09375-3.09375h7.03125v7.03125h-7.03125z" fill="#06080f"/><path d="m3.9375-3.09375h7.03125v7.03125h-7.03125z" fill="#06080f"/><path d="m10.9688-3.09375h7.03125v7.03125h-7.03125z" fill="#151821"/><path d="m18-3.09375h7.03125v7.03125h-7.03125z" fill="#06080f"/><path d="m25.0312-3.09375h7.03125v7.03125h-7.03125z" fill="#06080f"/><path d="m32.0625-3.09375h7.03125v7.03125h-7.03125z" fill="#06080f"/><path d="m-3.09375 3.9375h7.03125v7.03125h-7.03125z" fill="#06080f"/><path d="m3.9375 3.9375h7.03125v7.03125h-7.03125z" fill="#06080f"/><path d="m10.9688 3.9375h7.03125v7.03125h-7.03125z" fill="#06080f"/><path d="m18 3.9375h7.03125v7.03125h-7.03125z" fill="#06080f"/><path d="m25.0312 3.9375h7.03125v7.03125h-7.03125z" fill="#06080f"/><path d="m32.0625 3.9375h7.03125v7.03125h-7.03125z" fill="#06080f"/><path d="m-3.09375 10.9688h7.03125v7.03125h-7.03125z" fill="#06080f"/><path d="m3.9375 10.9688h7.03125v7.03125h-7.03125z" fill="#06080f"/><path d="m10.9688 10.9688h7.03125v7.03125h-7.03125z" fill="#06080f"/><path d="m18 10.9688h7.03125v7.03125h-7.03125z" fill="#06080f"/><path d="m25.0312 10.9688h7.03125v7.03125h-7.03125z" fill="#06080f"/><path d="m32.0625 10.9688h7.03125v7.03125h-7.03125z" fill="#06080f"/><path d="m-3.09375 18h7.03125v7.03125h-7.03125z" fill="#06080f"/><path d="m3.9375 18h7.03125v7.03125h-7.03125z" fill="#06080f"/><path d="m10.9688 18h7.03125v7.03125h-7.03125z" fill="#06080f"/><path d="m18 18h7.03125v7.03125h-7.03125z" fill="#151821"/><path d="m25.0312 18h7.03125v7.03125h-7.03125z" fill="#06080f"/><path d="m32.0625 18h7.03125v7.03125h-7.03125z" fill="#06080f"/><path d="m-3.09375 25.0312h7.03125v7.03125h-7.03125z" fill="#06080f"/><path d="m3.9375 25.0312h7.03125v7.03125h-7.03125z" fill="#06080f"/><path d="m10.9688 25.0312h7.03125v7.03125h-7.03125z" fill="#06080f"/><path d="m18 25.0312h7.03125v7.03125h-7.03125z" fill="#06080f"/><path d="m25.0312 25.0312h7.03125v7.03125h-7.03125z" fill="#06080f"/><path d="m32.0625 25.0312h7.03125v7.03125h-7.03125z" fill="#06080f"/><path d="m-3.09375 32.0625h7.03125v7.03125h-7.03125z" fill="#06080f"/><path d="m3.9375 32.0625h7.03125v7.03125h-7.03125z" fill="#06080f"/><path d="m10.9688 32.0625h7.03125v7.03125h-7.03125z" fill="#06080f"/><path d="m18 32.0625h7.03125v7.03125h-7.03125z" fill="#06080f"/><path d="m25.0312 32.0625h7.03125v7.03125h-7.03125z" fill="#06080f"/><path d="m32.0625 32.0625h7.03125v7.03125h-7.03125z" fill="#06080f"/></g><g clip-path="url(#c)"><g mask="url(#d)"><path d="m18 28.5c-.304-9.9475-.5525-10.1945-10.5-10.5 9.9475-.304 10.1945-.5525 10.5-10.5.304 9.9475.5525 10.1945 10.5 10.5-9.9475.3055-10.1945.5495-10.5 10.5z" fill="url(#a)"/></g></g></g><rect height="35" rx="7.5" stroke="#f2d3ff" width="35" x=".5" y=".5"/></svg>