<svg fill="none" height="36" viewBox="0 0 36 36" width="36" xmlns="http://www.w3.org/2000/svg"><rect fill="#fff1f2" height="35" rx="7.5" width="35" x=".5" y=".5"/><g stroke="#e11d48"><path d="m18 25.25h5.25c.5304 0 1.0391-.2107 1.4142-.5858s.5858-.8838.5858-1.4142v-5.25m-7.25 7.25h-5.25c-.5304 0-1.0391-.2107-1.4142-.5858s-.5858-.8838-.5858-1.4142v-5.25m7.25 7.25v-14.5m7.25 7.25v-5.25c0-.5304-.2107-1.0391-.5858-1.4142s-.8838-.5858-1.4142-.5858h-5.25m7.25 7.25h-14.5m0 0v-5.25c0-.5304.2107-1.0391.5858-1.4142s.8838-.5858 1.4142-.5858h5.25" stroke-linecap="round" stroke-linejoin="round" stroke-width="1.5"/><rect height="35" rx="7.5" width="35" x=".5" y=".5"/></g></svg>