<svg fill="none" height="36" viewBox="0 0 36 36" width="36" xmlns="http://www.w3.org/2000/svg"><rect fill="#fefce8" height="35" rx="7.5" width="35" x=".5" y=".5"/><g stroke="#ca8a04"><path d="m18 21.25c1.7949 0 3.25-1.4551 3.25-3.25s-1.4551-3.25-3.25-3.25-3.25 1.4551-3.25 3.25 1.4551 3.25 3.25 3.25z" stroke-linecap="round" stroke-linejoin="round" stroke-width="1.5"/><path d="m18 25.25c-4.0041 0-7.25-3.2459-7.25-7.25s3.2459-7.25 7.25-7.25c6.8125 0 7.25 4.375 7.25 7.25v1.25c0 1.1046-.8954 2-2 2s-2-.8954-2-2v-4.5" stroke-linecap="round" stroke-linejoin="round" stroke-width="1.5"/><rect height="35" rx="7.5" width="35" x=".5" y=".5"/></g></svg>