<svg fill="none" height="36" viewBox="0 0 36 36" width="36" xmlns="http://www.w3.org/2000/svg"><rect fill="#fff" height="35" rx="7.5" width="35" x=".5" y=".5"/><path d="m22.5714 22.9524h-9.1428c-1.8905 0-3.4286-1.5382-3.4286-3.4286 0-1.4781.9634-2.788 2.3397-3.2498-.0365-.1948-.054-.3778-.054-.5597 0-1.1689.5995-2.2447 1.583-2.8737-.04-.1939-.0592-.3747-.0592-.5549 0-1.6804 1.3672-3.04764 3.0476-3.04764 1.3912 0 2.6035.96694 2.9424 2.29674 1.7623.1408 3.1529 1.6197 3.1529 3.4176 0 .3926-.069.7765-.2056 1.1473 1.8092.0917 3.2532 1.5924 3.2532 3.4241 0 1.8904-1.5381 3.4286-3.4286 3.4286z" fill="#12b76a"/><path d="m19.6354 18.4926-1.2544 1.2545v-4.4137c0-.2104-.1706-.381-.381-.381s-.3809.1706-.3809.381v2.5089l-1.2545-1.2545c-.1488-.1488-.3899-.1488-.5387 0s-.1488.3899 0 .5387l1.7932 1.7932v7.4613c0 .2104.1705.3809.3809.3809s.381-.1705.381-.3809v-5.5566l1.7931-1.7931c.1488-.1488.1488-.3899 0-.5387s-.3899-.1488-.5387 0z" fill="#027a48"/><rect height="35" rx="7.5" stroke="#f5f5f5" width="35" x=".5" y=".5"/></svg>