<svg fill="none" height="36" viewBox="0 0 36 36" width="36" xmlns="http://www.w3.org/2000/svg"><rect fill="#fff" height="35" rx="7.5" width="35" x=".5" y=".5"/><g stroke="#000" stroke-linecap="round" stroke-linejoin="round"><path d="m11.75 17v7.6671c0 .5068.6044.7697.9752.4242l.7057-.6576c.6367-.5933 1.5842-.7065 2.3428-.2798l1.736.9766c.3045.1712.6761.1712.9806 0l1.736-.9766c.7586-.4267 1.7061-.3135 2.3428.2798l.7057.6576c.3708.3455.9752.0826.9752-.4242v-7.6671c0-3.4518-2.7982-6.25-6.25-6.25s-6.25 2.7982-6.25 6.25z" stroke-width="1.5"/><path d="m16.5 16c0 .2761-.2239.5-.5.5s-.5-.2239-.5-.5.2239-.5.5-.5.5.2239.5.5z"/><path d="m20.5 16c0 .2761-.2239.5-.5.5s-.5-.2239-.5-.5.2239-.5.5-.5.5.2239.5.5z"/></g><rect height="35" rx="7.5" stroke="#f5f5f5" width="35" x=".5" y=".5"/></svg>