<svg fill="none" height="36" viewBox="0 0 36 36" width="36" xmlns="http://www.w3.org/2000/svg"><rect fill="#fae6ec" height="35" rx="7.5" width="35" x=".5" y=".5"/><g clip-rule="evenodd" fill="#a8385b" fill-rule="evenodd"><path d="m17.6935 15.6714-2.2095.0222c-1.7679.0178-3.1873 1.3981-3.1704 3.0831.0168 1.685 1.4636 3.0365 3.2315 3.0189l2.2095-.0222s.0117.0002.0184-.0002c3.4029-.2126 6.0833-2.9127 6.0507-6.169z"/><path d="m16.189 13.0476c-.3372.0035-.6133-.2676-.6167-.6053-.0034-.3378.2673-.6143.6045-.6176.3372-.0034.6133.2676.6167.6053s-.2673.6142-.6045.6176zm3.9243.2177c-.0196-.7767-.6643-1.3905-1.44-1.3708-.1231.0032-.2416.0237-.3546.0564-.4934-1.1573-1.6525-1.9641-2.9857-1.9507-1.7611.0176-3.1744 1.4617-3.1568 3.2254.0013.1158.0088.2299.0219.3422l.0353 2.9295c.0823-.1149.1708-.2247.2652-.3294.0033-.0037.0066-.0074.0098-.0111.1384-.1522.2885-.293.45-.4208.0229-.0183.0465-.0358.0699-.0536.075-.0566.1517-.1105.2309-.1613.0398-.0258.0797-.0509.1205-.0752.0429-.0253.0857-.0506.1298-.0743.0754-.0408.1525-.0788.231-.1145.0355-.0161.0715-.0309.1077-.0459.0784-.0327.1579-.0631.2389-.0905.0252-.0085.0503-.0169.0757-.0248.0906-.0284.1828-.0527.2762-.0743.0253-.0057.0505-.0119.0759-.0173.1034-.0215.2082-.0386.3146-.0514.0219-.0026.0441-.0045.0662-.0067.113-.0115.227-.0197.3428-.0209l3.3507-.036-.0161-1.5849z"/><path d="m17.8628 22.7003c-.008.0006-.0186.0007-.0276.0009-.011.0001-.0198 0-.0198 0l-2.3467.0237c-1.0295.0103-1.9672-.3986-2.6518-1.0672.9125 2.5589 3.2752 4.3698 6.036 4.342l-.0343-3.4267c-.3117.0621-.6304.1061-.9558.1273"/></g><rect height="35" rx="7.5" stroke="#a8385b" width="35" x=".5" y=".5"/></svg>