<svg fill="none" height="36" viewBox="0 0 36 36" width="36" xmlns="http://www.w3.org/2000/svg"><rect fill="#ecfeff" height="35" rx="7.5" width="35" x=".5" y=".5"/><g stroke="#0891b2"><path d="m18 24.25c3.866 0 7.25-2.0948 7.25-6.75s-3.384-6.75-7.25-6.75-7.25 2.0948-7.25 6.75c0 1.7675.4878 3.1659 1.3046 4.2206.239.3086.3339.7186.1685 1.072-.1007.2153-.2068.4208-.3152.6156-.4542.816.1716 2.0049 1.0874 1.8215 1.016-.2034 2.1522-.5077 3.1001-.9559.1979-.0935.418-.1299.6351-.1024.4145.0526.839.0786 1.2695.0786z" stroke-linecap="round" stroke-linejoin="round" stroke-width="1.5"/><rect height="35" rx="7.5" width="35" x=".5" y=".5"/></g></svg>