<svg fill="none" height="36" viewBox="0 0 36 36" width="36" xmlns="http://www.w3.org/2000/svg"><rect fill="#f5f3ff" height="35" rx="7.5" width="35" x=".5" y=".5"/><g fill="#7c3aed"><path d="m17.25 25c.4142 0 .75-.3358.75-.75s-.3358-.75-.75-.75zm7.25-7.75c0 .4142.3358.75.75.75s.75-.3358.75-.75zm-11.75-4.75h10.5v-1.5h-10.5zm-1.25 9.75v-8.5h-1.5v8.5zm5.75 1.25h-4.5v1.5h4.5zm7.25-9.75v3.5h1.5v-3.5zm-14.5 8.5c0 1.5188 1.2312 2.75 2.75 2.75v-1.5c-.6904 0-1.25-.5596-1.25-1.25zm13.25-9.75c.6904 0 1.25.5596 1.25 1.25h1.5c0-1.5188-1.2312-2.75-2.75-2.75zm-10.5-1.5c-1.5188 0-2.75 1.2312-2.75 2.75h1.5c0-.6904.5596-1.25 1.25-1.25z"/><path d="m11.9969 11.9383c-.3102-.2745-.7842-.2455-1.0586.0648-.2745.3102-.2455.7842.0648 1.0587zm6.0031 6.3117-.4969.5617c.2837.2511.7101.2511.9938 0zm6.9969-5.1882c.3103-.2745.3393-.7485.0648-1.0587-.2744-.3103-.7484-.3393-1.0586-.0648zm-13.9938 0 6.5 5.7499.9938-1.1234-6.5-5.75zm7.4938 5.7499 6.5-5.7499-.9938-1.1235-6.5 5.75z"/><path d="m23.75 20.75c0-.4142-.3358-.75-.75-.75s-.75.3358-.75.75zm-1.5 4.5c0 .4142.3358.75.75.75s.75-.3358.75-.75zm0-4.5v4.5h1.5v-4.5z"/><path d="m25.25 23.75c.4142 0 .75-.3358.75-.75s-.3358-.75-.75-.75zm-4.5-1.5c-.4142 0-.75.3358-.75.75s.3358.75.75.75zm4.5 0h-4.5v1.5h4.5z"/></g><rect height="35" rx="7.5" stroke="#7c3aed" width="35" x=".5" y=".5"/></svg>