<svg fill="none" height="496" viewBox="0 0 496 496" width="496" xmlns="http://www.w3.org/2000/svg"><path clip-rule="evenodd" d="m0 248c0-136.9 111.1-248 248-248s248 111.1 248 248-111.1 248-248 248-248-111.1-248-248zm393.7-28.8c4.5 2.6 7.7 3.9 12.9 3.9 12.2 0 23.2-9.7 23.2-23.3 0-11.9-5.1-18.1-12.9-22.6-55.9-32.6-132.4-47.8-205.4-47.8-42.9 0-82.3 4.9-117.5 15.2-9 2.6-17.4 10.3-17.4 23.9 0 13.3 10.1 23.6 23.3 23.6 4.003 0 7.797-1.113 11.035-2.062.645-.189 1.267-.372 1.865-.538 82.4-23 209.7-12.8 280.9 29.7zm-29.067 76.617c3.158 1.716 6.409 3.483 10.967 3.483 10.9 0 19.3-8.7 19.4-19.5 0-8.7-3.2-14.9-11.3-19.7-49.4-29.4-112.1-45.5-177-45.5-41.6 0-70 5.8-97.8 13.6-10.3 2.9-15.5 10-15.5 20.7s8.7 19.4 19.4 19.4c3.31 0 5.592-.703 8.477-1.593 1.038-.319 2.153-.663 3.423-1.007 82.9-22.5 176.1-7.6 238.6 29.4.445.235.888.476 1.333.717zm-26.633 65.483c3.9 2.3 6.5 3.6 10.7 3.6 8.1 0 15.2-6.3 15.2-15.4s-3.6-12.6-9.7-16.5c-71.4-42.7-155.1-44.3-237-26.2-7.5 1.6-13.6 6.5-13.6 16.8 0 8.1 6.1 15.8 15.8 15.8 2.277 0 5.911-.987 9.255-1.895.915-.248 1.808-.49 2.645-.705 71.7-14.7 144.3-13.1 206.7 24.5z" fill="#fff" fill-rule="evenodd"/></svg>