<svg fill="none" height="36" viewBox="0 0 36 36" width="36" xmlns="http://www.w3.org/2000/svg" xmlns:xlink="http://www.w3.org/1999/xlink"><clipPath id="a"><path d="m10 10h16v16h-16z"/></clipPath><mask id="b" height="16" maskUnits="userSpaceOnUse" width="16" x="10" y="10"><path d="m26 10h-16v16h16z" fill="#fff"/></mask><rect fill="#fff" height="35" rx="7.5" width="35" x=".5" y=".5"/><g clip-path="url(#a)"><g mask="url(#b)"><path clip-rule="evenodd" d="m14 10h-4v8h4c-2.2091 0-4 1.7909-4 4v4h8v-4c0 2.2091 1.7909 4 4 4h4v-8h-4c2.2091 0 4-1.7909 4-4v-4h-8v4c0-2.2091-1.7909-4-4-4zm4 8h-4c2.2091 0 4 1.7909 4 4zm0 0v-4c0 2.2091 1.7909 4 4 4z" fill="#000" fill-rule="evenodd"/></g></g><rect height="35" rx="7.5" stroke="#eaecf0" width="35" x=".5" y=".5"/></svg>