<svg fill="none" height="36" viewBox="0 0 36 36" width="36" xmlns="http://www.w3.org/2000/svg" xmlns:xlink="http://www.w3.org/1999/xlink"><clipPath id="a"><path d="m10 10h16v16h-16z"/></clipPath><rect fill="#fff" height="35" rx="7.5" width="35" x=".5" y=".5"/><g clip-path="url(#a)"><path clip-rule="evenodd" d="m12.56 18.0513c0-2.58 1.7732-4.7431 4.16-5.3224v-2.6264c-3.8098.6166-6.72 3.9407-6.72 7.9488s2.9102 7.3322 6.72 7.9487v-2.6263c-2.3868-.5793-4.16-2.7425-4.16-5.3224zm13.44 0c0 4.0081-2.9102 7.3322-6.72 7.9487v-2.6263c2.3868-.5793 4.16-2.7425 4.16-5.3224 0-2.58-1.7732-4.7431-4.16-5.3224v-2.6264c3.8098.6166 6.72 3.9407 6.72 7.9488z" fill="#000" fill-rule="evenodd"/></g><rect height="35" rx="7.5" stroke="#eaecf0" width="35" x=".5" y=".5"/></svg>