<svg fill="none" height="120" viewBox="0 0 121 120" width="121" xmlns="http://www.w3.org/2000/svg" xmlns:xlink="http://www.w3.org/1999/xlink"><clipPath id="a"><path d="m0 0h120.002v120h-120.002z"/></clipPath><g clip-path="url(#a)"><path d="m2.55031 69.8148 20.49909 35.5212c3.3908 5.873 9.67 9.496 16.4515 9.496h41.0079c6.7912 0 13.0607-3.623 16.4514-9.496l20.4988-35.5212c3.391-5.8734 3.391-13.1186 0-19.0018l-20.4891-35.5111c-3.3908-5.88315-9.6699-9.50576-16.4515-9.50576h-41.0175c-6.7912 0-13.0607 3.62261-16.4515 9.50576l-20.49909 35.5111c-3.400415 5.8735-3.400415 13.1187 0 19.0018zm11.38949 3.9221 17.9488-31.6664c.8694-1.5263 2.4923-2.4827 4.2505-2.4827h65.6899c3.748 0 6.096 4.038 4.251 7.3032l-17.9493 31.6664c-.8694 1.5263-2.4923 2.4827-4.2505 2.4827h-65.6899c-3.7482 0-6.0956-4.038-4.2505-7.3032z" fill="#000"/></g></svg>