<svg fill="none" height="32" viewBox="0 0 32 32" width="32" xmlns="http://www.w3.org/2000/svg"><path d="m.68007 18.0713 5.46632 9.472c.90419 1.5663 2.5786 2.5323 4.38701 2.5323h10.9352c1.8109 0 3.4828-.966 4.3869-2.5323l5.4664-9.472c.9041-1.5662.9041-3.4982 0-5.067l-5.4638-9.46949c-.9042-1.5688-2.5786-2.53481-4.3869-2.53481h-10.9378c-1.81099 0-3.48282.96601-4.38701 2.53481l-5.46632 9.46949c-.90676 1.5662-.90676 3.4982 0 5.067zm3.03713 1.0459 4.78625-8.4442c.23184-.407.66462-.6621 1.13345-.6621h17.517c.9995 0 1.6254 1.0768 1.1334 1.9475l-4.7862 8.4442c-.2319.407-.6647.662-1.1335.662h-17.51695c-.9995 0-1.62547-1.0767-1.13345-1.9474z" fill="#000"/></svg>