<svg fill="none" height="32" viewBox="0 0 32 32" width="32" xmlns="http://www.w3.org/2000/svg"><path d="m0 0h32v32h-32z" fill="#e5e5e5"/><g clip-rule="evenodd" fill="#141414" fill-rule="evenodd"><path d="m15.2587 25.5063c.2087 0 .4173-.0549.6014-.1646l5.3142-3.1819c.3436-.2073.6259-.4938.8223-.8352.1963-.3474.3007-.7314.3007-1.1277v-11.61838c0-.1341-.0246-.26211-.0737-.39013-.0491-.12191-.1227-.23773-.2209-.32916-.092-.09144-.2087-.17068-.3313-.21945-.1228-.04877-.2578-.07924-.3928-.07924-.1841 0-.362.05486-.5155.15239l-2.5895 1.54221c.5154.56691.7977 1.29836.7977 2.06036v8.9058c0 .3414-.0859.6766-.2577.9693-.1719.2925-.4234.5363-.718.707-.3007.1707-.6382.256-.9818.25-.3437 0-.6811-.0976-.9757-.2744l-1.9514-1.1642v3.6391c0 .1524.0307.3048.0859.445.0614.1402.1473.2682.2516.3779.1105.1098.2393.1951.3805.2499.1411.0549.2945.0854.4479.0854z"/><path d="m14.8294 10.3645 1.9636-1.18864-5.038-3.01128c-.1841-.10972-.3866-.16458-.5952-.16458-.1534 0-.3007.03048-.4418.09144-.1412.06095-.27.1402-.3744.24992-.1104.10972-.1902.23164-.2516.37184-.0613.1402-.092.2865-.092.43889v8.90581c0 .3962.0982.7924.3007 1.1399.1963.3474.4786.6401.8284.8473l2.1969 1.3106v-6.3578c0-.5304.1411-1.0546.405-1.5118.2638-.4632.6381-.8472 1.0984-1.1216z"/><path d="m14.099 12.9979v6.815l2.3441 1.402c.178.1097.3805.1646.5891.1646.1535 0 .3068-.0305.4418-.0914.1412-.061.27-.1463.3744-.25.1104-.1097.1902-.2316.2516-.3718s.0859-.2926.0859-.4389v-8.9058c0-.3109-.0614-.6157-.1841-.8961-.1228-.2865-.3007-.5425-.5216-.75585l-2.2705 1.35325c-.3437.2073-.6259.4937-.8223.8412-.1964.3474-.2884.7376-.2884 1.1338z"/></g></svg>