<svg fill="none" height="32" viewBox="0 0 32 32" width="32" xmlns="http://www.w3.org/2000/svg"><path d="m0 0h32v32h-32z" fill="#23272a"/><g fill="#fff"><path d="m16 6c-5.5229 0-10 4.4772-10 10 0 5.5229 4.4771 10 10 10s10-4.4771 10-10c0-5.5228-4.4771-10-10-10zm0 .79825c5.0739 0 9.2018 4.12795 9.2018 9.20175 0 5.0739-4.1279 9.2018-9.2018 9.2018s-9.20175-4.1279-9.20175-9.2018c0-5.0738 4.12785-9.20175 9.20175-9.20175z"/><path d="m14.0624 17.4944c-.2966-.4233-.4711-.9383-.4711-1.4944 0-1.4405 1.1677-2.6083 2.6082-2.6083.5562 0 1.0705.1753 1.4932.4724l.5752-.5752c-.5738-.4389-1.2901-.7004-2.0684-.7004-1.8841 0-3.4115 1.5273-3.4115 3.4115 0 .7782.2611 1.495.6997 2.0691z"/><path d="m15.9917 16.7009h1.8924v1.2872c-.4541.3862-1.0414.6202-1.6846.6202-.5944 0-1.1422-.1993-1.5809-.5343l-.5719.572c.5872.4783 1.3364.7655 2.1528.7655.9812 0 1.8655-.4143 2.4878-1.0773v-2.4365h-1.8924z"/></g></svg>