<svg fill="none" height="32" viewBox="0 0 32 32" width="32" xmlns="http://www.w3.org/2000/svg"><path d="m0 0h32v32h-32z" fill="#fff"/><g fill="#000"><path d="m9.2153 6.03555c-.37439.14289-.68304.37724-.87738.67161-.10289.15147-.20577.46584-.27436.81737-.09146.4887-.08288 2.44638.01714 5.02707.03144.7802.10003 1.7462.22864 3.2866.12289 1.4662.14289 1.792.16004 2.7865.01715 1.0889.0343 1.2747.21149 2.1863.28579 1.4719.32866 1.892.38582 3.5439.02286.723.05716 1.3632.0743 1.4232.08003.3001.5573.2944.62303-.0086.02572-.1257-.03715-2.4149-.08288-2.8722-.04572-.4915-.15433-1.2403-.2715-1.8462-.22006-1.1775-.22006-1.1517-.24292-2.3549-.02001-.9717-.04287-1.3261-.16862-2.7865-.18863-2.1978-.22578-2.7322-.26007-3.9582-.01429-.5659-.04287-1.5376-.06002-2.15778-.03144-1.12316-.01715-1.58901.06002-2.15202.06001-.41726.20577-.70876.46584-.91453.1429-.11718.38582-.14004.52586-.05145.1972.12289.24292.32009.29437 1.26035.0772 1.38324.2715 3.46663.3887 4.14403.0457.2715.3229 1.6261.4258 2.0863.08.3601.1943.6744.2772.763.1372.1458.4459.1429.5602-.0057.0314-.04.1657-.2858.3001-.5487.2429-.4773.2429-.483.3772-1.0803.2058-.9231 1.0003-4.06113 1.1146-4.40408.2029-.6116.463-1.01171.7831-1.21748.1886-.12003.2829-.1086.4287.04858.1714.18577.2315.34581.2686.7202.0229.24293.0229.43155-.0029.75735-.0428.5573-.1028.89163-.3629 1.98053-.2715 1.146-.3201 1.3718-.3544 1.7005-.0429.3915.02.7859.1572.9945.04.0601.0343.0744-.1429.283-.3229.3858-.5402.8088-.6345 1.2432-.0514.24-.06.7888-.0143 1.0203.0458.22.0372.4744-.0142.5973-.0458.1114-.203.2915-.2515.2915-.0172 0-.1086-.0658-.203-.1486-.6458-.5545-1.2946-.9574-1.8976-1.1861-.3201-.12-.5459-.0857-.6259.0943-.0457.0943-.0429.1401.0086.2401.0486.0915.16.16.4487.2658.523.1972 1.0403.5344 1.6318 1.0603l.223.1972-.0801.0829c-.1343.1429-.4458.3601-.6544.4572-.1686.08-.2287.0943-.4173.0943-.2029 0-.2372-.0085-.4515-.1229-.2515-.1286-.3287-.1428-.4544-.0771-.0801.04-.1744.1943-.1744.2829 0 .1315.3172.3601.6573.4744.746.2544 1.6462-.1886 2.4464-1.2032.2772-.3515.4687-.5372.6574-.623.2943-.14.6115-.0972.8516.1143.1744.1544.2629.3087.3344.6002.0514.2029.06.2915.0457.6116-.02.503-.12.7974-.423 1.2489-.1571.2372-.5887.6602-.8488.8317-.663.4429-1.3489.6259-2.392.6373-.3287.0057-.6174.0086-.6374.0086-.0228.0028-.0771.04-.1229.0857-.1714.1715-.0685.4144.2058.4887.0886.0257.3115.0314.7402.02.6774-.0171 1.0346-.0743 1.5719-.2515.3086-.1029.7773-.3201.9803-.4544.1971-.1343.2314-.1086.2114.1543-.0428.4973-.3801 1.3318-.7487 1.8405-.2401.3373-.2658.403-.1944.5259.0286.0514.1029.1172.1629.1486.2172.1058.3944-.0171.7059-.4858.343-.5145.5859-1.0775.6974-1.6262.0257-.1286.0571-.4687.0686-.7716.0228-.5745.0428-.6659.18-.8288.04-.0486.0943-.1286.12-.1772.0286-.06.0972-.1201.1829-.1629.0829-.0429.2058-.1515.3201-.2773.303-.3458 1.3518-1.3975 1.3918-1.3975.0286 0 .0372.1286.0372.6345 0 1.3632-.1172 2.0091-.6459 3.581-.4258 1.2746-.6402 2.1663-.6516 2.7064-.0029.2344.0029.2544.0714.323.1429.1457.403.14.4973-.0057.0315-.0486.0829-.2687.1343-.5802.1201-.7202.2401-1.1746.6088-2.2721.6002-1.7919.6459-2.0977.7345-4.787.0457-1.3404.0428-1.4918-.0315-1.6976-.0343-.0943-.1-.2315-.1486-.3087-.28-.4344-.9717-.7745-1.4718-.7259l-.1772.0172-.0343-.1343c-.0857-.3516-.3058-.6659-.6002-.8631-.2486-.1658-.4544-.2315-.7945-.2601-.3315-.0257-.3858-.0543-.4344-.2258-.04-.1457-.0343-.5144.0143-.8345.02-.1486.1372-.6773.2544-1.1718.3687-1.54895.4287-1.91477.4258-2.66926 0-.57445-.0371-.78593-.2115-1.15175-.1257-.26007-.3887-.52014-.6144-.60588-.2487-.09145-.5659-.07145-.8203.05144-.3572.1772-.7602.63161-.9774 1.10031-.1829.39725-.2572.65446-.7973 2.76364-.243.9488-.3859 1.589-.4744 2.1148-.0715.423-.1001.5202-.1944.6659l-.0743.1115-.0943-.3973c-.3315-1.4032-.563-3.3037-.6659-5.51004-.0171-.36296-.0486-.75735-.0715-.87739-.08-.44583-.3372-.80879-.68871-.98312-.13718-.06859-.21149-.08288-.39725-.0886-.1429-.00571-.26865.00857-.33724.0343zm6.4246 8.34225c.2887.1201.4373.3573.463.7231.0086.1286 0 .2744-.0171.3429-.0286.1029-.5973 1.0118-.7031 1.1175-.0286.0343-.0686.0314-.2401-.0086-.1486-.0371-.26-.0457-.4229-.0314-.1229.0086-.2601.02-.3087.0257-.1314.0086-.1657-.0914-.1657-.5058.0028-.3859.06-.6688.2086-.9832.18-.3829.3715-.6001.6144-.6859.1258-.0457.4573-.04.5716.0057zm1.7777 1.2318c.3858.1143.6487.583.5773 1.026-.0572.3544-.1715.5059-.9317 1.2746l-.6945.6974v-.283c0-.4658-.1086-.8316-.343-1.1717-.0628-.0915-.0857-.1515-.0743-.1943.0315-.1144.7431-1.1432.8517-1.229.0943-.0771.3058-.1571.4258-.16.0229-.0029.1086.0171.1887.04z"/><path d="m21.6873 10.5511c-.2601.0914-.463.2229-.6573.4287-.2572.2715-.3344.5487-.2487.9088.1658.703.7402 1.1403 1.4462 1.1003.5715-.0343 1.0974-.543 1.1374-1.106.0372-.5259-.2972-1.0718-.7945-1.2975-.2715-.1229-.5916-.1372-.8831-.0343zm.6488.643c.1714.1229.2686.3058.2857.5402.0143.22-.0428.3715-.1943.4972-.2515.2144-.5944.1458-.8145-.16-.1029-.1429-.1315-.403-.0657-.563.1457-.3487.5315-.503.7888-.3144z"/></g></svg>