<svg fill="none" height="32" viewBox="0 0 32 32" width="32" xmlns="http://www.w3.org/2000/svg" xmlns:xlink="http://www.w3.org/1999/xlink"><clipPath id="a"><path d="m8 8h16v15.7681h-16z"/></clipPath><path d="m0 0h32v32h-32z" fill="#00acef"/><g clip-path="url(#a)" fill="#fff"><path d="m16.0162 23.6128c-1.551.001-3.0672-.4599-4.3552-1.324-1.2881-.8641-2.28951-2.0923-2.87668-3.5279-.58716-1.4356-.73343-3.0136-.42015-4.5327.31327-1.519 1.0719-2.9103 2.17913-3.9965 1.1072-1.08617 2.5129-1.81793 4.0377-2.10198 1.5248-.28404 3.0996-.10749 4.5237.50714 1.424.61462 2.6327 1.63944 3.472 2.94384.8392 1.3044 1.2709 2.8292 1.2401 4.3799-.0377 2.0434-.8763 3.9903-2.3353 5.4215-1.4589 1.4312-3.4215 2.2322-5.4653 2.2307zm0-.4406c1.4571.0036 2.8826-.4247 4.0963-1.2311 1.2137-.8062 2.1611-1.9542 2.7225-3.2988.5614-1.3447.7116-2.8255.4316-4.2555-.28-1.4299-.9776-2.7448-2.0047-3.7783-1.0271-1.03359-2.3375-1.73948-3.7657-2.02847-1.4281-.28898-2.9099-.1481-4.258.40485s-2.5021 1.49312-3.31597 2.70172c-.81391 1.2086-1.25125 2.6314-1.25676 4.0885-.00493 1.9561.7671 3.8341 2.14633 5.2212 1.3793 1.3871 3.2529 2.1697 5.209 2.1759z"/><path d="m10.8267 15.7218c.4197-.2621.8394-.5334 1.2684-.7838.5463-.3243 1.1438-.5532 1.7669-.6771.6815-.1528 1.3956-.0373 1.9942.3223.4869.3142.8808.753 1.1409 1.2708.3738.7093.6247 1.4769.742 2.2701.0232.1438.0418.2875.065.4313h-.0325c-.0418-.109-.0812-.2319-.1229-.3293-.2714-.7595-.7169-1.4448-1.3009-2.0011-.7289-.6684-1.6823-1.0383-2.6713-1.0366-.9294-.0131-1.8512.1686-2.7061.5334l-.102.0417c-.0076.0023-.0156.0023-.0232 0z"/><path d="m18.3328 19.3809c.1252-.3015.2574-.5983.371-.9044.4557-1.108.6919-2.2941.6956-3.4922.0108-.7958-.2474-1.572-.7327-2.2029-.0278-.0347-.058-.0695-.0881-.102-.0302-.0324-.058-.0672-.1113-.1275.0533.0208.0765.0255.0973.0371.7015.3629 1.2829.921 1.6742 1.6069.1868.3441.2994.7234.3306 1.1136.0311.3902-.0198.7826-.1497 1.1519-.2649.7718-.691 1.4785-1.2498 2.0731-.2621.2991-.5473.582-.8209.8719z"/><path d="m18.5438 16.1762c-.2145-.5641-.4931-1.1017-.8302-1.6023-.4034-.6167-.9861-1.095-1.6696-1.3704-.6511-.2447-1.3629-.2772-2.0336-.0928-.1182.0301-.2319.0696-.3478.1043l-.0162-.0278c.2805-.1762.5565-.364.844-.531.3875-.2366.815-.4001 1.2615-.4823.3751-.0809.7662-.0421 1.1181.111s.647.4127.8436.7423c.3018.454.5085.9643.6075 1.5003.0998.4986.1508 1.0064.2319 1.5096.0002.0465-.0029.093-.0092.1391z"/><path d="m10.3931 17.2916c.2319-.1136.4637-.2319.6956-.3409.6803-.3297 1.4053-.5579 2.1519-.6771.8139-.1089 1.5954-.0463 2.2609.5055.414.3513.6961.8329.8 1.3658-.2319-.1878-.4476-.4034-.6957-.575-.4887-.3156-1.0447-.5118-1.6232-.5728-1.0779-.124-2.1695-.0454-3.2185.2319l-.3641.0904z"/></g></svg>