<svg fill="none" height="32" viewBox="0 0 32 32" width="32" xmlns="http://www.w3.org/2000/svg"><path d="m0 0h32v32h-32z" fill="#000"/><path d="m15.9498 6c-4.1841 0-7.61507 3.43097-7.61507 7.6151 0 4.1841 3.43097 7.615 7.61507 7.615s7.615-3.4309 7.615-7.615c0-4.18413-3.4309-7.6151-7.615-7.6151zm0 12.887c-2.9289 0-5.272-2.3431-5.272-5.2719 0-2.9289 2.3431-5.27197 5.272-5.27197s5.2719 2.34307 5.2719 5.27197c-.0836 2.9288-2.4267 5.2719-5.2719 5.2719zm6.7782 1.6737-6.7782 2.9288-6.77825-2.9288-1.17155 2.092 7.9498 3.3473 7.9498-3.3473z" fill="#fff"/></svg>