<svg fill="none" height="32" viewBox="0 0 32 32" width="32" xmlns="http://www.w3.org/2000/svg"><path d="m0 0h32v32h-32z" fill="#600ce8"/><g fill="#fff"><path d="m17.3887 13.7472c-2.1931 1.1455-4.589 2.3968-5.9601 2.6288-1.67933.2841-2.30111-.4205-2.55582-1.1581-.4244-1.2264.09043-3.2519 1.75402-4.6082 1.2687-1.03476 2.9107-1.6097 4.6731-1.6097 2.4143 0 4.5632 1.1304 5.9576 2.8893-.9162.3157-2.3435 1.0612-3.8688 1.8579z"/><path d="m24.6392 10.6693c.306.471.5389.9681.7047 1.4781.0253-.1196.1507-.7178.2317-1.1043l.0701-.3345c1.0488-.686 1.3543-1.58451 1.3543-1.58451s-.9428-.08123-1.9917.60493c-.0081.00515-1.2545-.2631-1.4348-.30219.3992.35747.7586.77177 1.0657 1.24247z"/><path d="m24.0415 10.9982-17.0415 11.0725s2.7855-.8756 7.319-2.7996c2.0782-.8812 4.0747-1.0209 4.8321.3144 1.0475 1.8452-.4881 3.8106-2.6037 4.5831 3.6113-.5977 6.3663-3.7411 6.3663-7.5321 0-1.181-.2695-2.298-.7472-3.2953 1.3751-1.4191 1.875-2.343 1.875-2.343z"/></g></svg>