<svg fill="none" height="32" viewBox="0 0 32 32" width="32" xmlns="http://www.w3.org/2000/svg"><path d="m0 0h32v32h-32z" fill="#00bd9c"/><path clip-rule="evenodd" d="m13.9322 11.5956c0-.8588.9797-1.2189 2.1226-1.2189 1.6327 0 4.2995.8865 5.7961 1.579l2.313-3.82275c-2.1769-1.13572-5.4423-2.13295-8.4629-2.13295-4.8165 0-7.29282 2.63158-7.29282 5.928 0 3.3795 2.58512 4.903 4.62602 5.6509 3.3743 1.3574 6.15 1.3297 6.15 2.7978 0 .8587-.9525 1.2466-2.1226 1.2466-1.9048 0-5.1159-1.1912-6.7758-2.1607l-2.2858 3.7673c1.98648 1.3019 5.6601 2.7701 9.3065 2.7701 4.8166 0 7.4017-2.6315 7.4017-6.0111 0-3.518-2.8028-4.903-4.7349-5.6787-3.2382-1.3019-6.0411-1.2188-6.0411-2.7146z" fill="#fff" fill-rule="evenodd"/></svg>