<svg fill="none" height="32" viewBox="0 0 32 32" width="32" xmlns="http://www.w3.org/2000/svg" xmlns:xlink="http://www.w3.org/1999/xlink"><clipPath id="a"><path d="m4.88892 6.5h22.2222v20h-22.2222z"/></clipPath><path d="m0 0h32v32h-32z" fill="#0f4beb"/><g clip-path="url(#a)" fill="#fff"><path d="m16.8252 15.1073-1.2571 1.2571 1.2571 1.2571 1.2571-1.2571z"/><path d="m20.8889 16.66.9644.9511 1.2578-1.2489-1.2844-1.2844c-.2493-.2443-.5844-.3811-.9334-.3811s-.6841.1368-.9333.3811l-4.4045 4.3956 1.2667 1.2488z"/><path d="m20.5955 21.9888-1.2577-1.2666-.9556.9555-.96-.9555-1.2578 1.2577 1.28 1.28c.2493.2443.5844.3812.9334.3812s.6841-.1369.9333-.3812z"/><path d="m20.889 24.2022-.9556-.9556-1.2667 1.2534 1.28 1.28c.2493.2443.5844.3811.9334.3811s.6841-.1368.9333-.3811l1.2978-1.28-1.2578-1.2578z"/><path d="m23.4089 21.6866-.96-.9644-1.2577 1.2577 1.28 1.28c.2492.2443.5843.3812.9333.3812s.6841-.1369.9333-.3812l1.28-1.28-1.2533-1.2577z"/><path d="m24.9647 18.2164-1.2571 1.2571 1.2571 1.2571 1.2571-1.2571z"/><path d="m20.889 19.1756-.9556-.9556-1.2667 1.2534 1.28 1.28c.2493.2443.5844.3811.9334.3811s.6841-.1368.9333-.3811l4.4089-4.3911-1.2578-1.2578z"/><path d="m20.8901 6.64006-1.6754 1.67476 1.6748 1.67535 1.6753-1.67477z"/><path d="m18.8044 12.1311h1.1956v2.3689c.2693-.1587.5763-.2424.8889-.2424s.6195.0837.8889.2424v-2.3689h1.2044l.7867.7867 1.6755-1.6756-1.6711-1.67555-.7866.79115h-4.1823l-.7911-.79115-1.6755 1.67555 1.6755 1.6756z"/><path d="m5.91553 13.6956v4.8933h1.46666v-1.6178h6.12891v-1.6533h-6.12891v-1.6222z"/><path d="m11.1866 20.0511h-5.27107v1.6534h5.24887c.129-.0127.2593.0018.3824.0425.123.0407.2362.1067.3323.1938.096.087.1728.1932.2253.3118.0525.1185.0797.2467.0797.3763 0 .1297-.0272.2579-.0797.3764s-.1293.2247-.2253.3118c-.0961.0871-.2093.1531-.3323.1938-.1231.0407-.2534.0551-.3824.0425h-5.24887v1.6533h5.27107c1.5023 0 2.44-1.04 2.44-2.5778s-.9377-2.5778-2.44-2.5778z"/><path d="m11.2445 7.56226c-1.4 0-1.88445.88888-2.22222 1.84888l-.37778.95116c-.04009.1707-.13547.3234-.27131.4343-.13583.1109-.30451.1738-.4798.179-.10452-.0004-.20775-.0231-.30287-.0664s-.17994-.1063-.24885-.1849c-.06892-.0786-.12035-.1709-.15089-.2709-.03055-.0999-.0395-.2052-.02628-.3089-.00936-.1191.00721-.23886.04857-.35095.04136-.1121.10653-.21389.19101-.29838.08449-.08448.18628-.14965.29838-.19101.11209-.04136.23181-.05793.35093-.04857h.20889v-1.52889h-.17334c-1.42222 0-2.31111.96889-2.31111 2.4178 0 1.5155 1.06222 2.3911 2.22222 2.3911s1.77778-.5778 2.18665-1.6756l.4045-1.06219c.1866-.47555.4444-.65778.8222-.65778.5333 0 .8444.34667.8444.97337 0 .6266-.2889 1.0044-.8889 1.0044h-.2755v1.56h.2667c1.4133 0 2.2888-1.0889 2.2888-2.5689 0-1.61776-.9822-2.54664-2.3822-2.54664"/></g></svg>