<svg fill="none" height="20" viewBox="0 0 20 20" width="20" xmlns="http://www.w3.org/2000/svg" xmlns:xlink="http://www.w3.org/1999/xlink"><clipPath id="a"><path d="m0 0h20v20h-20z"/></clipPath><g clip-path="url(#a)"><path clip-rule="evenodd" d="m10 0c-5.525 0-10 4.475-10 10 0 4.425 2.8625 8.1625 6.8375 9.4875.5.0875.6875-.2125.6875-.475 0-.2375-.0125-1.025-.0125-1.8625-2.5125.4625-3.1625-.6125-3.3625-1.175-.1125-.2875-.6-1.175-1.025-1.4125-.35-.1875-.85-.65-.0125-.6625.7875-.0125 1.35.725 1.5375 1.025.9 1.5125 2.3375 1.0875 2.9125.825.0875-.65.35-1.0875.6375-1.3375-2.225-.25-4.55-1.1125-4.55-4.9375 0-1.0875.3875-1.9875 1.025-2.6875-.1-.25-.45-1.275.1-2.65 0 0 .8375-.2625 2.75 1.025.8-.225 1.65-.3375 2.5-.3375s1.7.1125 2.5.3375c1.9125-1.3 2.75-1.025 2.75-1.025.55 1.375.2 2.4.1 2.65.6375.7 1.025 1.5875 1.025 2.6875 0 3.8375-2.3375 4.6875-4.5625 4.9375.3625.3125.675.9125.675 1.85 0 1.3375-.0125 2.4125-.0125 2.75 0 .2625.1875.575.6875.475 3.95-1.325 6.8125-5.075 6.8125-9.4875 0-5.525-4.475-10-10-10z" fill="#767676" fill-rule="evenodd"/></g></svg>