<svg fill="none" height="28" viewBox="0 0 28 28" width="28" xmlns="http://www.w3.org/2000/svg"><path d="m0 0h28v28h-28z" fill="#080c14"/><g clip-rule="evenodd" fill="#fff" fill-rule="evenodd"><path d="m13.3135 22.5c.1712 0 .3423-.045.4933-.135l4.3589-2.61c.2819-.17.5134-.405.6745-.685.1611-.285.2466-.6.2466-.925v-9.52996c0-.11-.0201-.215-.0604-.32-.0403-.1-.1007-.195-.1812-.27-.0755-.075-.1711-.14-.2718-.18s-.2114-.065-.3221-.065c-.151 0-.297.045-.4228.125l-2.1241 1.26499c.4228.465.6543 1.06497.6543 1.68997v7.305c0 .28-.0704.555-.2114.795-.1409.24-.3473.44-.5889.58-.2467.14-.5235.21-.8053.205-.2819 0-.5588-.08-.8004-.225l-1.6006-.955v2.985c0 .125.0252.25.0705.365.0503.115.1208.22.2064.31.0906.09.1963.16.3121.205.1157.045.2416.07.3674.07z"/><path d="m12.9613 10.08 1.6106-.975-4.1323-2.47c-.151-.09-.3171-.135-.48829-.135-.12583 0-.24663.025-.3624.075s-.22147.115-.30704.205c-.0906.09-.15603.19-.20636.305-.05034.11499-.07551.23499-.07551.35999v7.30501c0 .325.08054.65.24664.935.16107.285.39261.525.67951.695l1.80195 1.075v-5.215c0-.435.1158-.865.3322-1.24.2164-.38.5235-.695.901-.92z"/><path d="m12.3622 12.24v5.59l1.9227 1.15c.146.09.3121.135.4832.135.1259 0 .2517-.025.3624-.075.1158-.05.2215-.12.3071-.205.0906-.09.156-.19.2063-.305.0504-.115.0705-.24.0705-.36v-7.305c0-.255-.0503-.505-.151-.735-.1007-.23499-.2466-.44499-.4278-.61999l-1.8624 1.10999c-.2819.17-.5134.405-.6744.69-.1611.285-.2366.605-.2366.93z"/></g></svg>