<svg fill="none" height="28" viewBox="0 0 28 28" width="28" xmlns="http://www.w3.org/2000/svg"><path d="m0 0h28v28h-28z" fill="#600ce8"/><path d="m21.3391 9.3s-.45.8399-1.6878 2.1301c.4301.9067.6726 1.9223.6726 2.996 0 3.4466-2.4798 6.3043-5.7303 6.8478 1.9043-.7024 3.2865-2.4892 2.3436-4.1667-.6817-1.214-2.4788-1.0871-4.3493-.2859-4.08067 1.7492-6.5879 2.5452-6.5879 2.5452zm-7.8643-1.8c2.1721 0 4.1054 1.02252 5.36 2.6136-2.0096.6961-6.7513 3.7028-8.84287 4.0585-1.51086.2571-2.07025-.3803-2.29941-1.0475-.38182-1.1094.08135-2.9417 1.57802-4.16855 1.14146-.93597 2.61866-1.45605 4.20426-1.45605zm8.7511.62849c.9342-.62106 1.7741-.54753 1.7741-.54753s-.2721.81322-1.2064 1.4342c-.0001.00041-.235 1.13974-.2689 1.30224-.1476-.46162-.355-.91149-.6276-1.3378-.2736-.42605-.5937-.80107-.9493-1.12463.1605.03539 1.2709.27818 1.2781.27352z" fill="#fff"/></svg>