<svg fill="none" height="233" viewBox="0 0 233 233" width="233" xmlns="http://www.w3.org/2000/svg"><path clip-rule="evenodd" d="m5.03276 150.479c14.54154 47.769 58.94604 82.521 111.46824 82.521 64.34 0 116.5-52.16 116.5-116.5 0-64.341-52.16-116.5-116.5-116.5-61.7409 0-112.2599 48.029-116.249901 108.76.016719.028.033417.056.050091.084.000227-.004.000407-.007.000541-.009l.000279-.005 62.59899 25.77c1.703-1.12 3.518-2.09 5.455-2.88 4.394-1.81 9.028-2.62 13.646-2.41l28.508-41.412c-.01-.184-.01-.38-.01-.576 0-24.44 19.85-44.322 44.25-44.322 24.41 0 44.25 19.882 44.25 44.322 0 24.438-19.84 44.338-44.25 44.338-.33 0-.67-.01-1-.02l-40.79 29.15c.12 4.5-.71 9.01-2.49 13.31-6.84 16.45-25.799 24.28-42.242 17.41-10.05-4.19-16.862-12.9-19.084-22.83zm66.03124 34.211c12.696 5.29 27.302-.74 32.596-13.45 2.56-6.14 2.57-12.94.04-19.1s-7.304-10.98-13.457-13.54c-6.103-2.54-12.635-2.46-18.381-.28l14.891 6.17c9.358 3.9 13.787 14.66 9.883 24.03-3.892 9.36-14.634 13.8-23.997 9.9l-14.405-5.97c2.551 5.33 6.973 9.8 12.83 12.24zm54.206-97.368c0 16.288 13.23 29.538 29.48 29.538 16.26 0 29.49-13.25 29.49-29.538 0-16.275-13.23-29.529-29.49-29.529-16.25 0-29.48 13.254-29.48 29.529zm29.53-22.236c-12.22 0-22.14 9.938-22.14 22.191 0 12.254 9.92 22.183 22.14 22.183 12.23 0 22.15-9.929 22.15-22.183 0-12.253-9.92-22.191-22.15-22.191z" fill="#fff" fill-rule="evenodd"/></svg>