<svg fill="none" height="8" viewBox="0 0 12 8" width="12" xmlns="http://www.w3.org/2000/svg"><path clip-rule="evenodd" d="m11.5506 2.9368c.2076.18871.3515.42999.4142.69414s.0413.53966-.0615.79261l-.7832 1.98732c-.2055.52178-.674.92541-1.253 1.03077-.28958.05412-.5895.03372-.86764-.05906-.27813-.09279-.52403-.25446-.71138-.4677l-4.69642-5.25569c-.01167-.01295-.02678-.02278-.04381-.02855-.01703-.00578-.03538-.00727-.05321-.00433-.01785.00293-.03456.0102-.04845.02105s-.02448.02492-.03072.0408l-1.52799 3.86026c-.0317.07982.05239.15711.13581.12532l1.87502-.71533c.10572-.04003.21915-.05923.33317-.05638.11402.00284.2262.02766.32945.07291.10327.04526.19543.10993.27065.19002.07525.08007.13197.17381.16661.27531.13848.39678-.09445.82535-.50456.98183l-2.44931.93414c-.45349.17297-.97439.14243-1.382834-.11221-.278341-.17376-.485857-.43006-.5890293-.72754-.1031734-.29747-.0959815-.61877.0204139-.91196l1.8052894-4.55939c.2139-.540451.70109-.921954 1.30341-1.0204448.29332-.0491173.59534-.02431434.87499.0718242.27966.0961616.52683.2601656.71607.4751726l2.69558 3.017158 2.47935-.94599c.55094-.21007 1.15754-.09756 1.58304.29394zm-1.4299 1.51541c.0314-.07978-.0527-.15708-.13613-.12497l-1.36981.52239.82157.91979c.01164.01308.02678.02308.04388.02894.01713.00587.03558.00741.05353.00445.01795-.00293.03476-.01024.0487-.02121.01396-.01095.02456-.02516.03074-.04116l.50722-1.28823z" fill="#101828" fill-rule="evenodd"/></svg>