<svg fill="none" height="10" viewBox="0 0 12 10" width="12" xmlns="http://www.w3.org/2000/svg"><g fill="#101828"><path d="m4.5896 4.54165c-.20135.16569-.51962.11243-.74047-.02959-.22733-.14203-.62355-.40241-.60406-.66279.01948-.24263.32476-.63321.59757-.67463.16238-.02367.32477.04142.44818.14202.12341.10061.20135.2308.2793.36691.07794.13611.15589.27813.17537.432.01299.15386-.03248.32547-.15589.42608zm2.29935 1.58004c-.2728-1.46761-.78593-2.89379-1.51341-4.22529-.09743-.17754-.20136-.35507-.34425-.50301-.46767-.485262-1.36402-.550357-1.90963-.14203-.18837.14203-.33776.3314-.47416.52076-.4157.55628-.79893 1.13622-1.14318 1.728-.578088.97643-1.078227 1.99429-1.4354707 3.05357-.1234114.35507-.0974308.75748.2143457 1.04745.500141.4675.870375-.22488.954815-.60953.07794-.34323.16888-.69238.36374-.99419.05846-.08285.12341-.1657.21434-.21304.10393-.05326.23384-.05918.35075-.05326.72098.02959 1.42248.37282 1.84468.90542.26631.33731.42219.73972.66252 1.08887.15589.22488.36374.43792.64954.49118.16888.0355.34425.00592.51313-.03551.2793-.07101.5586-.18345.75346-.37874.44817-.42608.40271-1.1007.29878-1.68065z"/><path d="m7.85672 2.06801c-.50014.40833-.85089 1.01786-.74696 1.62739.11042.63912.6885 1.12438.9743 1.71616.28579.57994.27929 1.27232-.01949 1.84634-.19486.37282-.49365.69238-.695 1.0652-.20136.37282-.2793.84033-.02598 1.18356.2728.36098.81191.44383 1.29257.46159.72748.02367 1.47444-.04735 2.12394-.34915.6431-.30181 1.1692-.87583 1.2341-1.53271.013-.11835.0065-.24263-.0454-.35506-.1364-.29589-.5391-.39058-.8899-.46159-.3442-.07693-.7469-.23079-.7924-.55035s.2923-.56219.5651-.76932c.2208-.16569.4222-.36098.5196-.60361s.0585-.54444-.1494-.72197c-.2273-.18937-.5716-.17753-.8834-.17753-.3117 0-.66897-.05326-.81836-.29589-.14939-.23671-.01949-.54444.16887-.75748.26631-.31364.64309-.54443.89639-.86991s.3507-.81665.0389-1.09479c-.74042-.674626-2.19538.18345-2.74748.63912z"/></g></svg>