<svg fill="none" height="11" viewBox="0 0 12 11" width="12" xmlns="http://www.w3.org/2000/svg"><path d="m.255026 6.40174 2.049874 3.55201c.33907.58735.96697.94955 1.64511.94955h4.10071c.6791 0 1.30604-.3622 1.64511-.94955l2.04987-3.55201c.3391-.58733.3391-1.31184 0-1.90014l-2.04891-3.551048c-.33906-.588299-.96697-.950552-1.64511-.950552h-4.10167c-.6791 0-1.30604.362253-1.64511.950552l-2.049874 3.551048c-.3400348.58733-.3400348 1.31184 0 1.90014zm1.138924.3922 1.79484-3.16658c.08695-.15263.24923-.24826.42505-.24826h6.56886c.3748 0 .6095.40379.425.7303l-1.7948 3.16658c-.08694.15263-.24923.24826-.42505.24826h-6.56886c-.37481 0-.60955-.40379-.42504-.7303z" fill="#101828"/></svg>