<svg fill="none" height="12" viewBox="0 0 12 12" width="12" xmlns="http://www.w3.org/2000/svg"><path clip-rule="evenodd" d="m6 0c-3.31228 0-6 2.68772-6 6s2.68772 6 6 6 6-2.68772 6-6-2.68772-6-6-6zm3.93696 5.98598c-.01404-.09825-.1193-.13334-.21053-.13334-.11929 0-.23158.05614-.3228.16141-.14035.1614-.22456.42105-.19649.63859.01403.13334.07719.28071.21052.28071.10527 0 .25965-.15439.31579-.36492.04211-.15438.18947-.25965.29475-.25965.0631 0 .1053.03509.1123.09123.0063.02519-.0044.07297-.0472.26497l-.016.07187c-.021.09123-.0281.18246-.021.25264.021.15438.0912.24561.1473.29473.0281.02105.0421.04913.0421.06316 0 .02105-.007.04211-.021.05614-.0141.02105-.0421.02807-.0702.02807-.014 0-.0351 0-.0561-.01403-.27372-.11229-.37197-.29474-.40004-.43509-.09824.1193-.23158.18947-.36491.18947-.24561 0-.47017-.21052-.49824-.47017-.01404-.09825 0-.21053.02807-.32281-.09123.04912-.18948.08421-.27369.08421-.02807 0-.05614 0-.08421-.00702-.21052.30877-.44912.54737-.64561.65263-.07018.04211-.14737.06316-.20351.06316s-.09825-.02105-.11228-.04912c-.04211-.07018-.0772-.18246-.09123-.33684-.24561.25965-.57544.38596-.72983.38596-.17543 0-.28771-.10526-.30877-.28772-.00701-.05614-.00701-.12631.00702-.19649.03509-.22456.09825-.4.14737-.5193l.00337-.00927c.02636-.07241.04547-.12491.03873-.14511 0-.00702-.00701-.02106-.02105-.02106-.05614 0-.18245.09825-.30877.2386-.14035.1614-.24561.32983-.27368.44912l-.04913.22457c-.02807.15438-.18245.26666-.30175.26666-.05614 0-.09825-.03509-.10526-.09123 0-.02105 0-.04912.00701-.07719l.02106-.09824c-.21053.15438-.44211.25964-.55439.25964-.14035 0-.23158-.07017-.27368-.18947-.09825.12632-.23158.18947-.37193.18947-.17544 0-.35088-.11228-.44211-.28771-.13333.14736-.27368.26666-.42105.36491-.30877.19649-.57544.28772-.85614.28772-.3579 0-.63158-.22456-.70877-.29474-.18948-.17544-.32281-.45614-.3579-.76491-.10526-.87018.44211-1.96491 1.21404-2.43509.17543-.10526.38596-.16842.58245-.16842.36491 0 .67369.25965.72281.61053.0421.31579-.10526.56842-.41404.7228-.09122.04211-.1614.07018-.21754.07018-.04211 0-.06316-.01404-.07018-.02807-.02105-.03509-.00701-.08421.02807-.11228.30878-.25965.30878-.47018.27369-.7579-.02105-.18245-.14035-.30877-.2807-.30877-.19649 0-.42807.14035-.65263.4-.40702.45614-.77193 1.26316-.68772 1.92982.04912.40702.30175.82106.75789.82106.15439 0 .32281-.04211.48421-.1193.26667-.14035.42105-.24561.56141-.41404-.02106-.24561.08421-.52631.27368-.72982.18246-.19649.42105-.30175.67368-.30175.28071 0 .47018.11929.49825.30877.01403.09123-.00702.1614-.05614.21754-.06316.07018-.16842.09123-.21755.09123-.07017 0-.18947-.02105-.2035-.09123-.00649-.03241.02296-.04686.04962-.05994l.00652-.00322.00421-.0021c.04109-.02043.08655-.04303.07298-.13123-.01404-.1193-.1614-.12632-.21053-.12632-.1193 0-.22456.05614-.31579.15439-.1614.18246-.22456.47018-.20351.65263.01404.12632.08422.27369.21053.27369.10526 0 .25263-.14737.30877-.36492.03509-.15438.18246-.25965.29474-.25965.06316 0 .10526.02807.11228.09123 0 .02106 0 .04912-.00702.0772 0 .01665-.00439.0377-.0097.06315-.0014.00671-.00287.01373-.00433.02106-.02105.09122-.04211.21052-.04211.24561 0 .01403.00702.08421.08421.08421.04913 0 .25263-.10526.43509-.26667.06316-.30877.13333-.66666.13333-.69473.02106-.12632.07018-.25263.32281-.25263.06316 0 .09825.03508.10526.09122 0 .02106 0 .04913-.00701.0772l-.06316.27368c.21053-.26667.53333-.47017.73684-.47017.09825 0 .1614.05614.17544.14736.00702.05614-.00702.14035-.04211.2386-.07017.18947-.15438.48421-.2035.74386-.00702.02807-.00702.06316.02105.09123.01403.02105.0421.03509.07719.03509.07018 0 .32281-.08422.53333-.36492v-.11228c0-.23158.02106-.39298.05614-.51228.04211-.12631.21053-.26666.32983-.26666.06316 0 .10526.03508.10526.09824 0 .02105-.00702.04912-.01403.07719-.0772.22457-.11228.43509-.11228.63158 0 .1193.02807.30877.04912.4.00154.00462.00274.0089.00383.01276.00386.01377.00626.02233.01722.02233.02807 0 .25965-.21754.43509-.50526-.14737-.09825-.23158-.2807-.23158-.49123 0-.36491.21755-.5614.43509-.5614.1614 0 .32982.11228.32982.37193 0 .13333-.04912.29473-.14035.48421h.03509c.11228 0 .21754-.04913.2807-.12632.02807-.02807.04912-.04912.07018-.06316.18947-.23158.4421-.35087.71579-.35087.28067 0 .47017.11929.49827.30877.014.09123-.007.16842-.0562.22456-.0631.07719-.1684.09123-.2175.09123-.09124 0-.1965-.02106-.20352-.09123-.00636-.03182.01612-.04055.04653-.05237l.00961-.00377c.00364-.00728.00963-.01408.01639-.02175.01933-.02194.04495-.05102.03975-.1186zm-1.64961-.28774c0-.07719.02807-.16141.08421-.16141.04211 0 .11228.07018.11228.25264 0 .09123-.01403.17544-.04912.27368-.09123-.09824-.14737-.2386-.14737-.36491z" fill="#101828" fill-rule="evenodd"/></svg>