<svg fill="none" height="17" viewBox="0 0 17 17" width="17" xmlns="http://www.w3.org/2000/svg"><path clip-rule="evenodd" d="m14.1269.773681-12.58679 2.905399c-.608347.14043-.997223.75633-.846634 1.38848l.000147.00061c-.021318-.08783-.032612-.17966-.032612-.27423v3.49375 3.47611.294 3.4761c0 .6375.513239 1.1507 1.150749 1.1507h13.69854c.6375 0 1.1507-.5132 1.1507-1.1507v-2.6194-3.47606-2.11051-.21174c0-.54539-.369-1.00135-.8719-1.13306-.0719-.01881-.1465-.03101-.2231-.03591v-.00253h-4.387-2.76053l6.55293-1.51261c.6084-.14042.9851-.74323.8446-1.35158l-.3375-1.46219c-.1404-.60835-.7432-.985055-1.3516-.844629z" fill="#000" fill-rule="evenodd"/></svg>