<svg fill="none" height="12" viewBox="0 0 12 12" width="12" xmlns="http://www.w3.org/2000/svg"><g fill="#101828"><path d="m1.33333 0h-1.33333v3.94422h1.33333z"/><path d="m12 7.26567h-1.3334v3.94423h1.3334z"/><path d="m5.99999 7.88843c-.65299 0-1.26677-.23748-1.7285-.66881-.46173-.43128-.71595-1.00469-.71595-1.61468s.25422-1.1834.71595-1.61469c.46173-.43132 1.07551-.66881 1.7285-.66881.65298 0 1.26676.23749 1.72849.66881l-.94281.88074c-.20988-.19601-.48889-.304-.78568-.304s-.57581.10799-.78568.304c-.20983.19606-.32543.4567-.32543.73395s.1156.53789.32543.73395c.20987.19601.48889.304.78568.304s.5758-.10799.78568-.304l.94281.88073c-.46173.43133-1.07551.66881-1.72849.66881z"/><path d="m6 0h-6v1.24554h6z"/><path d="m12 9.96434h-6v1.24556h6z"/></g></svg>