<svg fill="none" height="12" viewBox="0 0 10 12" width="10" xmlns="http://www.w3.org/2000/svg"><g fill="#101828"><path d="m4.10632 2.68283 1.33062-.72627-3.39366-1.854697c-.12046-.0664928-.25874-.10172735-.39977-.101863-.10251.00017356-.20397.0186519-.2986.0543801s-.18058.0880069-.25292.1538499c-.07235.065844-.129686.143963-.168736.229897-.039051.085935-.059051.178002-.058859.270945v5.478108c-.00118.2454.067827.48689.200285.70089.13246.21401.32385.39322.55548.52015l1.47653.80696v-3.90915c.00059-.32637.09377-.6471.27059-.93137s.43132-.52252.73904-.69183z"/><path d="m4.40104 12c.14206.0006.2815-.0347.40269-.1019l3.57604-1.95654c.23014-.12581.4206-.3033.55299-.51534s.20223-.45145.20278-.69511v-7.14364c.00058-.08174-.0167-.16279-.05085-.23845s-.08448-.14444-.1481-.20236c-.06362-.05793-.13926-.10386-.22256-.13515-.0833-.031281-.17261-.047297-.26277-.04712-.12261.001749-.2423.034259-.34578.09393l-1.74061.94719c.34509.34813.53674.79926.53838 1.26733v5.47812c.00113.20958-.05932.41565-.17513.59703-.11582.18137-.28282.33151-.48385.43497-.20102.10346-.4288.15651-.65993.15369-.23112-.00281-.45725-.06139-.65514-.16971l-1.31311-.71569v2.23835c-.00038.0935.01966.1861.05899.2726.03933.0864.09716.1649.17014.231.07299.066.15969.1183.25509.1538s.19761.0535.30073.053z"/><path d="m3.62193 8.49696v-4.19093c-.00046-.24456.06891-.48505.20134-.6981.13244-.21304.32344-.39137.55443-.51764l1.52613-.83343c.15015.13193.2696.28981.3513.46432.08169.1745.12397.36209.12433.55167v5.47811c.00019.09312-.01984.18535-.05897.27145-.03912.08609-.09656.16436-.16905.23033-.07248.06596-.15858.11834-.25339.15413-.09481.0358-.19646.05431-.29916.05448-.14054-.00031-.2783-.03554-.39831-.10186z"/></g></svg>