<svg fill="none" height="16" viewBox="0 0 16 16" width="16" xmlns="http://www.w3.org/2000/svg"><g fill="#000"><path d="m11.1618 6.11529-3.0389-1.75447c-.07605-.04392-.16979-.04392-.24583 0l-3.03892 1.75447c-.07598.04392-.12292.12505-.12292.21289v3.50894c0 .08778.04694.16898.12292.21298l3.03892 1.7544c.07604.044.16978.044.24583 0l3.0389-1.7544c.076-.0439.1229-.12514.1229-.21298v-3.50894c-.0001-.08784-.047-.16897-.1229-.21289z"/><path d="m.098956 7.7135 3.630844-6.31664c.13189-.22839.37553-.39686.63925-.39686h7.26185c.2637 0 .5074.16847.6393.39686l3.6309 6.30271c.1319.22845.1319.51676 0 .74522l-3.6309 6.26491c-.1319.2283-.3756.3451-.6393.3451h-7.26179c-.26372 0-.50742-.1132-.63924-.3417l-3.6308509-6.27509c-.1320148-.22833-.1320152-.49612-.0000631-.72451zm3.006534 3.0375c0 .0928.05591.1787.13641.2252l4.62491 2.6684c.08044.0464.18121.0464.26165 0l4.62844-2.6684c.0805-.0465.1368-.1323.1368-.2252v-5.33678c0-.09293-.0555-.17876-.136-.22526l-4.62472-2.66834c-.08044-.0465-.18109-.0465-.26152 0l-4.62881 2.66834c-.0805.0465-.13716.13233-.13716.22526z"/></g></svg>