<svg fill="none" height="12" viewBox="0 0 12 12" width="12" xmlns="http://www.w3.org/2000/svg"><path d="m6.08506 7.13205v-1.63929h5.52414c.054.2857.0819.62366.0819.9895 0 1.2299-.3363 2.75073-1.4198 3.83434-1.05399 1.0975-2.40061 1.6828-4.18449 1.6828-3.30646 0-6.08681-2.69324-6.08681-5.9997 0-3.30645 2.78035-5.9997 6.08681-5.9997 1.82917 0 3.13225.717734 4.11129 1.65323l-1.15674 1.15674c-.70205-.65851-1.65322-1.17068-2.9563-1.17068-2.41451 0-4.30292 1.9459-4.30292 4.36041 0 2.41452 1.88841 4.3604 4.30292 4.3604 1.56613 0 2.45807-.62887 3.02947-1.20027.46339-.4634.76826-1.12538.88847-2.02952z" fill="#101828"/></svg>