<svg fill="none" height="16" viewBox="0 0 12 16" width="12" xmlns="http://www.w3.org/2000/svg"><g fill="#101828"><path d="m7.85945 7.20949c-.29614-.20518-.62871-.30187-.99525-.23584-.09467-.62497-.65056-.97164-1.15061-.96221-.24518.00472-.30829-.06132-.32285-.29951-.017-.26885.02184-.53063.0801-.79241.18934-.8325.46122-1.64849.49035-2.51165.01213-.33489-.00971-.66034-.15779-.96457-.28644-.591947-.89573-.705149-1.39336-.26885-.23789.20989-.41266.45752-.53404.7476-.15293.36554-.25002.74524-.34712 1.12493-.21605.86788-.48792 1.72396-.62386 2.60835-.02427.16037-.0534.32545-.2039.47403-.11652-.48347-.23789-.9457-.30344-1.41738-.16264-1.14144-.26944-2.2876-.31071-3.44084-.00971-.23583-.04612-.466954-.17235-.676848-.21119-.34432-.59473-.5235557-.939424-.410355-.441796.14386-.750083.422147-.864173.874953-.0728238.29008-.10680812.58487-.10923557.88438-.00970982.94335.02184717 1.88433.05340407 2.82767.0145647.38442.0267019.76883.0534035 1.15088.058259.78062.121373 1.56123.194197 2.34185.048549.53063.058259 1.06362.087388 1.59661.00971.17212-.016992.34192-.00971.51652.016992.4032.111663.79.189342 1.1815.143219.7169.252455 1.4339.262165 2.1673.007282.4481.031557.8938.043694 1.3419.002427.092.021847.1698.109235.2217.089814.0519.182064.0613.276734.0118.09952-.0519.12137-.1391.11894-.2382-.01942-.4952-.0267-.9881-.04127-1.4834-.01942-.7334-.13593-1.4504-.28158-2.165-.099526-.4929-.184487-.9834-.165067-1.49045.01942-.47167-.012137-.94098-.053404-1.41029-.077679-.91269-.169922-1.82537-.230608-2.73806-.043694-.67449-.060686-1.34898-.065541-2.02583-.007283-.71458-.087389-1.4268-.004855-2.14138.029129-.24291.048549-.48818.189341-.69572.118945-.17216.288864-.337244.507334-.297152.23061.04245.29858.268853.32043.478742.01699.14858.00728.29952.01942.44809.06068.75703.10195 1.51643.19177 2.2711.04855.40328.08496.80892.16992 1.20748.10681.49761.20876.99758.32042 1.4952.02428.10612.07525.20753.11409.30894.04855.12735.1505.18631.28159.18631.12137 0 .21119-.06367.26702-.17216.10923-.20989.22332-.41743.33499-.62732.02184-.04245.03641-.08726.04612-.13443.22332-1.01881.4952-2.02818.75979-3.03756.08739-.33489.16992-.66977.31071-.98815.10681-.24291.2476-.45988.47093-.61553.20876-.14622.28401-.10377.4248.06603.12138.14622.15779.32545.16993.50469.03155.4646-.01942.92447-.11895 1.37728-.11894.53535-.26945 1.06598-.38354 1.60132-.08739.41272-.15293.83486.09467 1.20748-.55103.54243-.78649 1.17211-.64813 1.89848.05098.26414.04613.4646-.1772.63204-.01699.01415-.03641.02358-.06069.03537-.04612-.03773-.08981-.0731-.13108-.10848-.36897-.32074-.77193-.59666-1.22101-.79948-.16021-.07311-.32042-.15094-.50005-.17452-.12623-.01887-.23547.04717-.26702.15329-.03156.10849.02427.18631.10923.2382.07525.04481.16264.07075.24517.10141.56317.21696 1.03653.55657 1.46133.96692-.06311.08254-.13108.13679-.20148.19103-.34955.2665-.70396.44809-1.14333.16273-.14564-.09434-.29129-.04481-.35926.07311-.06554.1132-.03156.20517.12865.30894.36898.23823.75737.28773 1.17004.11556.40538-.16744.72581-.43394.99525-.76646.13109-.16037.25003-.32782.41267-.46225.36897-.30422.83747-.20989 1.04866.21226.03398.07075.06311.14622.08011.22168.14322.62733-.05341 1.17684-.47336 1.63434-.70153.7618-1.6361.9504-2.64107.908-.07282-.0024-.14079-.0213-.21361.0023-.08982.0307-.15779.0779-.16507.1793-.00728.099.04127.1627.12623.2099.0801.0424.16992.0518.25731.0566.84232.0424 1.63853-.1014 2.37162-.5236.06069-.0354.10924-.092.19905-.0896.0437.2004-.01942.3868-.07039.5731-.11895.4292-.32771.816-.61172 1.165-.10438.1273-.0971.2217 0 .3137.0971.0896.24031.0943.3544.007.03156-.0235.06069-.0542.08497-.0849.50248-.6249.79863-1.3254.77921-2.1272-.00486-.224-.00728-.4316.16992-.6014.06554-.0637.06797-.1816.1772-.2122.1238-.0354.1942-.1345.27673-.2217.32043-.342.64328-.6863 1.00011-.99289.03642-.03066.06069-.10141.1408-.06604v.60846c-.00243.75937-.12138 1.49757-.37626 2.21447-.19419.5472-.3981 1.0919-.52433 1.6603-.06068.2689-.11409.5377-.13351.8113-.01214.1627.07525.2618.22576.283.14564.0212.24274-.0566.2743-.2241.02427-.1391.03884-.2782.06311-.4174.09953-.5731.27673-1.1273.48306-1.6721.28402-.7476.4685-1.5187.49763-2.3135.01942-.54007.06069-1.08014.05341-1.62256-.00243-.12735.01213-.24999.02427-.37498.05098-.43629-.08739-.80656-.46122-1.06597zm-2.05605.93626c-.03641.0566-.06554.07547-.13351.05189-.21119-.07075-.42723-.08962-.64085-.02359-.1068.03066-.13108-.03301-.14322-.10376-.01699-.10849-.02184-.21933-.03155-.31131.01699-.38677.13108-.72637.34955-1.02824.24275-.33725.7695-.36083 1.02196-.03302.13108.1698.16507.57308.04369.76175-.15293.22876-.31557.4528-.46607.68628zm1.94682.2948c-.07282.15093-.16992.28536-.28644.40328-.28887.29243-.61415.55185-.93457.90089.0267-.45516-.03884-.83486-.301-1.16031-.05826-.07311-.03642-.12264.00728-.18631.16507-.24055.32042-.48818.49277-.72402.27188-.37262.7695-.33724.99768.06839.1238.22641.1408.45988.02428.69808z"/><path d="m10.9929 3.56029c-.5088.00978-1.05153.45477-1.03327.86063.02349.52079.39657 1.00978 1.05407 1.04157.514.02445.9889-.43032.9863-.91198-.0052-.52812-.4853-1-1.0071-.99022zm.0626 1.43031c-.2088.0269-.4488-.14914-.5062-.37408-.0704-.27628.1487-.56723.4462-.59657.0939-.00978.1696.03178.2348.08802.1304.11491.2087.25672.2087.45721 0 .19804-.167.39608-.3835.42542z"/></g></svg>