<svg fill="none" height="12" viewBox="0 0 12 12" width="12" xmlns="http://www.w3.org/2000/svg"><g fill="#000"><path d="m11.4374.562502.5612.038701c.0119-.17326-.0568-.342323-.1863-.458067-.1295-.115744-.3052-.165188-.476-.13396534z"/><path clip-rule="evenodd" d="m1.79405 10.6492c.00275.0022.00551.0044.00826.0067 1.10498.8945 2.59787 1.344 4.19765 1.344 1.42258 0 2.4975-.8344 3.28458-1.9344.78426-1.0961 1.33906-2.52689 1.73296-3.91162.3962-1.39252.6408-2.77912.7865-3.81374.073-.51836.1215-.95078.1518-1.25452.0151-.151923.0257-.271791.0326-.354275.0034-.041246.0059-.073157.0076-.095066l.0019-.025284.0005-.006864.0002-.002928c0-.000201 0 0-.5612-.038701-.1011-.55333132-.1009-.55336501-.1011-.55333134l-.0028.00051341-.0067.00124533-.025.0046898c-.0217.0041047-.0535.0101678-.0945.0181968-.0821.0160567-.2015.0399832-.3529.071838-.3028.063693-.7341.15918-1.25113.286949-1.03235.255121-2.41442.640867-3.80121 1.162107-1.38017.51875-2.79825 1.18384-3.8813 2.0092-1.071626.81666-1.92076 1.87391-1.92076 3.18605 0 1.21929.365852 2.25959.999121 3.08441-.180186.23783-.336333.45353-.465977.63773-.142938.2031-.253986.3685-.329849.4841-.03794.0577-.067104.103-.087081.1344l-.0230311.0364-.0062569.01-.0017972.0029-.0005638.0009c-.0000755.0001-.0003397.0006.477931.2966l-.477931-.2966c-.1635163.2641-.08228299.6114.181859.7749.264095.1635.610705.082.774256-.1821l.00094-.0015.00437-.007.01909-.0301c.01729-.0272.0436-.0681.07854-.1213.06989-.1064.17417-.2618.30955-.4542.09794-.1391.21198-.2974.34088-.4703zm.69523-.88473c.00693.00569.0139.01137.02088.01702.86376.69921 2.0896 1.09341 3.4898 1.09341.92115 0 1.69778-.525 2.36967-1.464.67467-.94291 1.18633-2.23085 1.56583-3.56485.37724-1.32621.61314-2.65834.75454-3.66277.0495-.35168.0873-.662.1155-.91638-.2576.0566-.5735.12917-.93234.21784-1.0067.24878-2.34336.62241-3.6753 1.12303-1.33856.50312-2.63922 1.12239-3.59521 1.85093-.96743.73724-1.47766 1.50341-1.47766 2.29126 0 .85591.22053 1.57916.60406 2.16965.00685-.00813.0137-.01628.02058-.02444 1.02522-1.21596 2.48675-2.68624 4.17464-3.57983.27456-.14535.61496-.04062.76031.23394.14536.27456.04062.61496-.23394.76031-1.49959.7939-2.85054 2.1361-3.84093 3.31075-.04082.04841-.08097.09647-.12043.14413z" fill-rule="evenodd"/></g></svg>