<svg fill="none" height="5" viewBox="0 0 12 5" width="12" xmlns="http://www.w3.org/2000/svg"><path d="m1.32362 4.27478c-.357529-.0142-.650044-.11203-.878767-.29374-.043651-.03471-.147666-.13879-.182561-.18268-.092751-.11663-.155809-.23013-.1978692-.35607-.129421-.38765-.06281322-.89634.1905222-1.45462.216907-.47795.551604-.95199 1.135535-1.608526.08601-.096608.34216-.379144.34382-.379144.00061 0-.01335.0241818-.03092.0536307-.15183.2543123-.28174.5538673-.35251.8132023-.11369.416117-.09998.773227.04016 1.050127.09667.19077.26239.35601.44875.44735.32625.15985.8039.17307 1.38722.03869.04016-.00931 2.03022-.53758 4.42238-1.17398 2.39212-.636459 4.34972-1.156779 4.35002-1.1563505.0007.000551-5.55767 2.3790005-8.44309 3.6129205-.45696.19535-.57916.2447-.79398.32012-.54916.19285-1.04107.28487-1.43871.26907z" fill="#101828"/></svg>