<svg fill="none" height="17" viewBox="0 0 16 17" width="16" xmlns="http://www.w3.org/2000/svg" xmlns:xlink="http://www.w3.org/1999/xlink"><clipPath id="a"><path d="m0 .960144h16v16h-16z"/></clipPath><g clip-path="url(#a)"><path d="m14.8109 4.93401-6.83745-3.947603-.04532-.026263-.04531.026263-6.80094 3.926493-.03656.02111-.04532.02626v8.00023l.04532.0263 6.8375 3.9471.04531.0262.04532-.0262 6.74635-3.8951.0906-.052.0459-.0263v-8.00023zm-7.56714-2.95066-1.67204 2.89556h-3.34356zm-1.9465 3.37189-.78427 1.35844-2.35281-1.35844h3.13707zm-.61022 2.0083 2.76528 1.59635-2.76528 1.59631-.92176-1.59631zm-.41247-.23791-.78427 1.35844-1.56854-2.71687 2.35281 1.35844zm-2.73078-1.0613 1.67204 2.89556-1.67204 2.89551zm1.94651 3.37188.78426 1.35849-2.3528 1.3579zm1.02217 1.77039.78427 1.3584h-3.13656zm-2.28432 1.8343h3.34357l1.67204 2.8955-5.0156-2.8955zm5.46156 2.7168-1.56854-2.7168h1.56854zm0-3.1927h-1.84352l-.92176-1.5963 2.76528-1.59634zm0-4.01707-2.76528-1.59635.92176-1.59634h1.84352zm0-3.66902h-1.56854l1.56854-2.71687zm3.89149 2.24673 2.3528-1.35844-1.5685 2.71687zm.5093 1.83425-.9218 1.59631-2.76476-1.59631 2.76476-1.59635zm-.7472-2.24621-.7843-1.35844h3.1371zm2.2843-1.83477h-3.3436l-1.67201-2.89556zm-5.46156-2.71636 1.56854 2.71688h-1.56854zm0 3.19269h1.84356l.9217 1.59634-2.76475 1.59635v-3.19269zm0 4.01712 2.76476 1.59634-.9218 1.5963h-1.84348v-3.19264zm0 3.66854h1.56854l-1.56854 2.7168zm.44595 2.896 1.67151-2.8955h3.3436zm1.94701-3.3719.7843-1.3584 2.3528 1.3584zm1.0222-1.7703.7843-1.35849 1.5685 2.71639zm2.7308 1.0613-1.6721-2.8956 1.6721-2.89556z" fill="#000"/></g></svg>