<svg fill="none" height="12" viewBox="0 0 10 12" width="10" xmlns="http://www.w3.org/2000/svg"><path d="m4.76964 0c-2.51034 0-4.568814 2.05848-4.568814 4.56883 0 2.51034 2.058474 4.56881 4.568814 4.56881s4.56881-2.05847 4.56881-4.56881c0-2.51035-2.05847-4.56883-4.56881-4.56883zm0 7.73185c-1.75724 0-3.16303-1.40579-3.16303-3.16302 0-1.75724 1.40579-3.16302 3.16303-3.16302 1.75723 0 3.16302 1.40578 3.16302 3.16302-.0502 1.75723-1.45599 3.16302-3.16302 3.16302zm4.06674 1.00413-4.06674 1.75722-4.066746-1.75722-.702894 1.25517 4.76964 2.00825 4.76964-2.00825z" fill="#101828"/></svg>