<svg fill="none" height="9" viewBox="0 0 12 9" width="12" xmlns="http://www.w3.org/2000/svg"><g clip-rule="evenodd" fill="#101828" fill-rule="evenodd"><path d="m10.2249 1.1345-10.2249 6.28654s1.67129-.49713 4.39141-1.58949c1.24687-.50037 2.44476-.57962 2.89926.17853.62846 1.04758-.29291 2.16347-1.56224 2.6021 2.16677-.33939 3.81976-2.12406 3.81976-4.27647 0-.6705-.16166-1.30473-.44835-1.87095.82507-.80573 1.12506-1.33026 1.12506-1.33026z"/><path d="m10.5836.947789c.1835.267411.3233.549601.4227.839161.0228-.1019.181-.816598.1811-.816858.6293-.389525.8126-.8996457.8126-.8996457s-.5657-.0461179-1.195.3434597c-.0048.002925-.7527-.149377-.86089-.171574.23949.202964.45509.438203.63949.705457z"/><path d="m2.65714 4.1878c1.39486-.22326 4.55718-2.11045 5.89734-2.54734-.83669-.998672-2.12601-1.64046-3.57455-1.64046-1.05749 0-2.04267.326432-2.80389.913903-.99813.770067-1.307028 1.920107-1.05239 2.616427.15282.41876.52589.81883 1.53349.65747z"/></g></svg>