<svg fill="none" height="12" viewBox="0 0 12 12" width="12" xmlns="http://www.w3.org/2000/svg"><g clip-rule="evenodd" fill="#101828" fill-rule="evenodd"><path d="m8.57552 9.69724c-.96345-.00955-3.58504-.24124-5.02029-.25615-.79195-.00817-1.58354.03769-2.36926.13725.11738.15676.24125.30777.37277.45186.46452.0046 1.77513.0597 4.20938.4734 2.02364.3433 3.15035.398 3.69631.3926.55217-.3913 1.03447-.8727 1.42687-1.42414-.5521.09902-1.57866.23283-2.31578.22518zm-2.87354.96196c-2.1693-.3862-3.44473-.481-4.02472-.5016.55919.5824 1.23046 1.0456 1.97339 1.3617s1.54216.4786 2.34955.4776c1.1722 0 2.26564-.336 3.1901-.9176-.60369-.0149-1.69369-.1005-3.48832-.4201z"/><path d="m3.5537 9.31493c.78889 0 1.9369.0618 2.97089.11746.84717.0456 1.61781.08708 2.0517.08708.81626 0 1.98391-.17625 2.47251-.27986.6227-.96682.953-2.09287.9512-3.24287 0-.53754-.0711-1.05865-.2038-1.55453l-3.21456.82047.34562-.65339c.76006-.11928 1.72924-.36244 2.63954-.85373-.0696-.17241-.1471-.34157-.2321-.50696-.7803.38768-1.47457.56584-2.02588.63963l.5016-.94893 1.29718-.09061c-.1135-.18351-.2358-.36053-.3681-.53028h-1.49873l.58992-.93899c-.12234-.10131-.24851-.19804-.3785-.2898l-1.20508 1.67802-.35097-.69545.05811-.24583 1.14238-.96881c-.12464-.075318-.25233-.146047-.38232-.212572l-1.21044.649952-.62204-1.2329926c-.18004-.0265201-.36119-.0448922-.5429-.05505644l.66103 1.69904904-.19345.17472-.97837-1.88065c-.05735.00152929-.11431.00420428-.17166.00764519l-.74973 1.57899481-.77803-1.290721c-.25234.082964-.49817.181602-.73483.295916l-.03594 1.040685-1.10797-.31809c-.22939.18351-.44426.38385-.6446.59872l1.3389 1.64246-.37353.02714-1.20241-1.39968c-.14566.17701-.28139.36244-.406789.55551l.746669.90649-1.267014.09214c-.292305.71768-.44215452 1.48538-.44119838 2.2603-.00199946 1.25164.38931938 2.47228 1.11867238 3.48946.28292-.04358 1.2372-.17204 2.43502-.17204zm5.25236-6.30604.32651-.02294-.56967.94702c-.1088-.00173-.21748-.00811-.32573-.01912zm-.70692 1.69446-.48554.80593-.45191.11547.56736-.90343c.09367-.0023.21831-.00727.37009-.01797zm-.56622-1.62679.17282.44426-.98143 1.36604-.04014-1.21961zm-.91757 3.25893 1.96323-.48823.27795.40603.51958-.02677-.13573-.54404.76692-.19116c.1338.19116.481.65147.8446.84417l.4098-.19117s-.38-.46949-.4928-.84264l.6588-.16363c.0455.28521.0695.57769.0695.87552 0 1.10874-.3291 2.14177-.8961 3.00391-1.27928-.03211-2.56275-.18886-3.84506-.372-.26992-1.14505-.14069-2.30999-.14069-2.30999zm-.58916-2.30924.01109.57578-.26954-.01567-.09405-.40183zm-3.36789.11394.86787-.02868.30089.25616-.84761.68321-.80861-.30586zm-.95198.03134-.23054.31083-.737128-.27871zm-.87438.61899.30624.14643-.423231.57081c.02294-.24393.062319-.48326.116991-.71724zm-.140314 1.17832.285978.01109h.198806l.59605-.73942.68856.32957-.32842.45534.77345.02982 1.46812-1.22343.37123.41405-1.47844.82353 1.23146.04779.76465-.29401.28368.31695-.07225 2.31764c-1.47463-.21715-2.94504-.42246-4.40284-.46528-.252119-.62954-.381378-1.30153-.380798-1.97968-.000457-.00844-.000096-.01715.000268-.02597.000247-.00596.000496-.01198.000496-.01799zm3.302514-3.51623.51614.16554-.46452.79294zm.55131 1.6264.27756-.64039.15255 1.06554zm1.52547-.91375-.50543.36779-.2898-1.13817.51957-1.19782.45344.95581zm-2.13413-1.77704.28215.49664-.2573-.03212zm-1.55835.54672.89846.28789.04549.64575z"/></g></svg>