<svg fill="none" height="8" viewBox="0 0 12 8" width="12" xmlns="http://www.w3.org/2000/svg"><path clip-rule="evenodd" d="m5.62378 7.41922c-.62901-.39407-1.09263-1.75391-1.09263-3.36996 0-.0593.00025-.11785.00175-.17614l.0005.00075c-1.74991-.27498-3.01418-1.02833-3.0467-1.91955l-.00501.01051c-.42809.53218-.672539 1.14742-.672539 1.80295 0 1.92905 2.117449 3.50958 4.803369 3.64944zm-5.62378-3.51083c0-2.15823 2.68616-3.90839 5.99958-3.90839 3.31366 0 5.99982 1.75016 5.99982 3.90839 0 2.15849-2.68616 3.90865-5.99982 3.90865-3.31342 0-5.99958-1.75016-5.99958-3.90865zm5.99983-3.344437c.63976 0 1.18395.970527 1.38561 2.324617l.0005-.00225c1.24475-.19365 2.11595-.64051 2.11595-1.16068 0-.69781-1.56801-1.263018-3.50206-1.263018-1.93381 0-3.50182.565208-3.50182 1.263018 0 .52017.8712.96678 2.1157 1.16068l.00075.00225c.20167-1.35409.74585-2.324617 1.38537-2.324617zm.38731 6.853017c2.68591-.13987 4.80366-1.72039 4.80366-3.64944 0-.65553-.2447-1.27077-.6726-1.80295l-.0052-.01051c-.0323.89122-1.29658 1.64457-3.04674 1.91955l.00075-.00075c.00125.05829.00175.11684.00175.17614 0 1.61605-.46387 2.97589-1.09263 3.36996zm-.38731-4.42807c.27769.00034.55526-.01152.83192-.03553-.13261-.86769-.45512-1.48019-.83167-1.48019s-.69856.61275-.83142 1.48044c.27649.02389.55364.0355.83117.03528zm0 3.21409c.48164 0 .8747-1.00231.89547-2.25907l.0025.00075c-.5973.05503-1.19839.05503-1.79569 0l.0025-.00075c.02076 1.25676.41358 2.25907.89522 2.25907z" fill="#101828" fill-rule="evenodd"/></svg>