<svg fill="none" height="11" viewBox="0 0 12 11" width="12" xmlns="http://www.w3.org/2000/svg"><path d="m10.8358 4.53991c-.6975.70332-2.09851 2.1021-2.09851 2.1021s.01847 1.09137-.22496 1.56973c-.51347 1.01889-2.33888 2.44006-2.33888 2.44006l-.3132-.3407s.94913-1.06025.8384-1.7641l-.53868-3.53091c-.54586.56835-1.11062 1.19526-1.70602 1.86673.03335.4311.01575.86806-.1805 1.25417-.50139.98422-2.27533 2.42791-2.27533 2.42791l-.30243-.3285s.56792-.56355.71375-.93793c.06748-.16833.08412-.35372.09453-.51347.04911-.69712-.59128-3.96341-1.06475-6.39762-.15703-.80154-.490098-.82176-.73309-.75471-.213756.06075-.646695.21515-.646695.21515l-.059435-.30916 3.42377-1.401846.91131 5.749616 1.69762-1.6746-.26961-1.71416c-.04271-.28308-.14898-.59094-.51662-.64442-.32755-.04455-.90588.22855-.90588.22855l-.14898-.36992 3.50211-1.587671.92479 5.606061s1.18494-1.21461 1.26774-1.30827c.21645-.23853.18185-.71462-.02118-1.72353-.05943-.47574-.13813-.9928-.45447-1.09224-.35153-.10845-.94869.15931-.94869.15931l-.12683-.35731 3.18472-1.40823s.4789 1.99497.4276 1.99497c.1408 1.02116-.0243 1.24796-.2574 1.59354-.2367.35687-.8542.9514-.8542.9514z" fill="#101828"/></svg>