<svg fill="none" height="560" viewBox="0 0 960 560" width="960" xmlns="http://www.w3.org/2000/svg"><path d="m0 0h960v560h-960z" fill="#ffeae6"/><path clip-rule="evenodd" d="m293.62 401.956-33.767-12.682 11.341-30.285 33.767 12.683z" fill="#a8385b" fill-rule="evenodd"/><path clip-rule="evenodd" d="m302.617 405.335-33.767-12.682 11.341-30.285 33.767 12.683z" fill="#e57094" fill-rule="evenodd"/><path clip-rule="evenodd" d="m284.205 394.259-9.326-3.502 8.678-23.173 9.325 3.503z" fill="#ce5777" fill-rule="evenodd"/><path clip-rule="evenodd" d="m307.376 382.715-13.63-5.119 2.01-5.366 13.63 5.118z" fill="#ce5777" fill-rule="evenodd"/><path clip-rule="evenodd" d="m304.509 390.373-13.63-5.12 2.01-5.366 13.63 5.119z" fill="#ce5777" fill-rule="evenodd"/><path clip-rule="evenodd" d="m267.031 421.245-7.552 1.379c-4.485.819-8.783-2.158-9.601-6.648l-8.004-43.944 23.792-4.347 8.004 43.945c.818 4.49-2.154 8.795-6.639 9.615z" fill="#fff" fill-rule="evenodd"/><path clip-rule="evenodd" d="m241.874 372.032 23.792-4.347-6.678-8.927-14.638 2.674z" fill="#fff" fill-rule="evenodd"/><path clip-rule="evenodd" d="m255.847 352.172-11.231 2.052-.928-5.095 11.232-2.052z" fill="#a8385b" fill-rule="evenodd"/><path clip-rule="evenodd" d="m272.487 405.133-23.792 4.347-6.133-33.671 23.792-4.346z" fill="#ce5777" fill-rule="evenodd"/><path clip-rule="evenodd" d="m246.097 353.953-1.747 7.479 14.638-2.673-4.712-6.299z" fill="#fff" fill-rule="evenodd"/><path clip-rule="evenodd" d="m299.573 459.857h-50.41c-5.047 0-9.241-3.896-9.619-8.937l-4.95-65.946h72.518z" fill="#6a1244" fill-rule="evenodd"/><path clip-rule="evenodd" d="m308.481 384.974h-74.864c-.772 0-1.398-.627-1.398-1.4v-2.824c0-.773.626-1.4 1.398-1.4h74.864c.772 0 1.398.627 1.398 1.4v2.824c0 .773-.626 1.4-1.398 1.4z" fill="#e57094" fill-rule="evenodd"/><path clip-rule="evenodd" d="m491.661 296.711h271.76v-146.023h-271.76z" fill="#ffceca" fill-rule="evenodd"/><path clip-rule="evenodd" d="m491.661 307.263h271.76v-10.552h-271.76z" fill="#ef968f" fill-rule="evenodd"/><path clip-rule="evenodd" d="m491.661 459.857h10.537v-163.146h-10.537z" fill="#ef968f" fill-rule="evenodd"/><path clip-rule="evenodd" d="m753.448 459.857h10.537v-163.146h-10.537z" fill="#ef968f" fill-rule="evenodd"/><path clip-rule="evenodd" d="m627.841 442.617h8.173v-95.985h-8.173z" fill="#ef968f" fill-rule="evenodd"/><path clip-rule="evenodd" d="m629.442 458.826h5.769v-13.151h-5.769z" fill="#ef968f" fill-rule="evenodd"/><path clip-rule="evenodd" d="m578.323 357.756h90.115c3.95 0 7.152-3.206 7.152-7.162v-11.417h-97.267c-3.949 0-7.151 3.207-7.151 7.162v4.255c0 3.956 3.202 7.162 7.151 7.162z" fill="#d3625f" fill-rule="evenodd"/><path clip-rule="evenodd" d="m599.037 221.361h68.404c4.484 0 8.119 3.641 8.119 8.131v109.72h-84.642v-109.72c0-4.49 3.635-8.131 8.119-8.131z" fill="#ea7a7a" fill-rule="evenodd"/><path clip-rule="evenodd" d="m659.728 447.33v11.496h-5.769v-8.459c0-1.047-.835-1.898-1.865-1.898h-39.737c-1.031 0-1.866.851-1.866 1.898v8.459h-5.566v-11.496c0-2.603 2.074-4.713 4.633-4.713h45.537c2.559 0 4.633 2.11 4.633 4.713z" fill="#ef968f" fill-rule="evenodd"/><path clip-rule="evenodd" d="m623.492 301.849-70.131 59.143 4.319 24.72 64.218-44.739c9.256-6.448 12.266-18.791 7.02-28.786z" fill="#e58888" fill-rule="evenodd"/><path clip-rule="evenodd" d="m553.361 360.993 4.435 27.238 13.848 48.327 9.535-2.271c9.005-42.443-7.081-73.146-7.081-73.146z" fill="#e58888" fill-rule="evenodd"/><path clip-rule="evenodd" d="m583.033 422.14.435 27.355s-30.32 19.031-23.626 8.848l11.434-13.349-2.772-19.394" fill="#d3625f" fill-rule="evenodd"/><path clip-rule="evenodd" d="m583.468 449.495.183 2.257-4.321 2.683-.229-2.283z" fill="#d3625f" fill-rule="evenodd"/><path clip-rule="evenodd" d="m652.064 305.741-69.707 59.644 4.494 24.688 63.898-45.198c9.209-6.514 12.131-18.878 6.814-28.835z" fill="#f9bbb4" fill-rule="evenodd"/><path clip-rule="evenodd" d="m582.357 365.385 4.628 27.207 14.193 48.226 9.518-2.34c8.702-42.506-7.602-73.093-7.602-73.093z" fill="#f9bbb4" fill-rule="evenodd"/><path clip-rule="evenodd" d="m612.464 426.318.631 27.351s-30.184 19.248-23.563 9.017l11.339-13.43-2.91-19.373" fill="#d3625f" fill-rule="evenodd"/><path clip-rule="evenodd" d="m613.094 453.669.199 2.257-4.302 2.713-.245-2.282z" fill="#d3625f" fill-rule="evenodd"/><path clip-rule="evenodd" d="m601.748 237.118-23.871 49.599 11.106 6.695 27.212-47.074-11.601-8.984" fill="#ef968f" fill-rule="evenodd"/><path clip-rule="evenodd" d="m625.45 203.84-4.168 18.184 18.263-.663 2.476-20.262z" fill="#ef968f" fill-rule="evenodd"/><path clip-rule="evenodd" d="m538.661 274.687s-14.384-8.096-12.795-4.732c0 0 6.565 3.95 2.682 3.255 0 0-27.176-6.447-12.904.948 0 0 12.086 7.493 20.356 6.935z" fill="#ef968f" fill-rule="evenodd"/><path clip-rule="evenodd" d="m637.408 167.74s-22.539-15.398-31.672 8.621l-1.142 13.718c0 .716.167 1.42.484 2.044l1.422 5.756c1.028 4.164 3.2 7.992 6.4 10.843 2.153 1.919 3.173 2.204 4.877 1.649l23.415-6.239z" fill="#ef968f" fill-rule="evenodd"/><path clip-rule="evenodd" d="m623.708 221.361-16.793 4.59-5.167 11.168 62.825 2.178-9.519-15.253-15.509-2.683z" fill="#ef968f" fill-rule="evenodd"/><path clip-rule="evenodd" d="m654.223 238.939-45.684-1.585-13.464 89.017 66.307-.586z" fill="#f4cec9" fill-rule="evenodd"/><path clip-rule="evenodd" d="m605.459 179.687s16.596-11.979 19.011-5.204c0 0 2.437 12.39 8.02 18.339 3.431 3.658 5.422 8.666 5.184 13.938l-.315 6.979s-6.296 12.004.794 27.481c0 0-5.171 9.113 0 18.561 0 0-3.872 9.449 2.475 13.836 0 0 8.171-2.7 5.434-12.823 0 0 10.185-12.398 2.676-19.244 0 0 5.158-24.488-2.641-34.377 0 0 21.803-51.214-15.936-49.274 0 0-28.413-4.041-24.702 21.788z" fill="#d3625f" fill-rule="evenodd"/><path clip-rule="evenodd" d="m608.539 237.354-6.791-.236s-9.087 4.406-9.087 10.961c0 0 3.598 4.132 8.339 3.06 0 0 2.766-1.015 5.173 1.863z" fill="#f4cec9" fill-rule="evenodd"/><path clip-rule="evenodd" d="m638.804 271.894c-5.505 7.368-3.015 12.683-1.627 14.691.177.255.568.115.553-.195-.057-1.141.284-1.944.686-2.486.418-.563 1.048-.919 1.72-1.121 7.481-2.256 2.658-10.349 2.658-10.349z" fill="#d3625f" fill-rule="evenodd"/><path d="m630.648 205.515s-.689 1.61-6.293 3.103" stroke="#d3625f" stroke-linecap="round" stroke-linejoin="round" stroke-width="1.302"/><path clip-rule="evenodd" d="m611.986 186.963-.172 10.032-7.034 1.57s4.953-10.734 7.206-11.602z" fill="#d3625f" fill-rule="evenodd"/><path d="m617.343 202.362s-5.118.716-9.358-1.017" stroke="#d3625f" stroke-linecap="round" stroke-linejoin="round" stroke-width="1.2145"/><path clip-rule="evenodd" d="m619.657 187.287c-.125 1.091.327 2.039 1.01 2.118.683.078 1.338-.742 1.464-1.833.125-1.091-.327-2.039-1.01-2.118-.684-.078-1.339.742-1.464 1.833z" fill="#592b43" fill-rule="evenodd"/><path clip-rule="evenodd" d="m606.419 185.763c-.125 1.091.192 2.024.707 2.083.515.06 1.035-.777 1.16-1.867.125-1.091-.191-2.024-.707-2.083-.515-.06-1.034.776-1.16 1.867z" fill="#592b43" fill-rule="evenodd"/><path d="m620.334 181.37s2 1.674 5.132 1.94" stroke="#592b43" stroke-linecap="round" stroke-linejoin="round" stroke-width="1.5"/><path clip-rule="evenodd" d="m592.424 287.459s-26.219-13.103-53.763-12.772l-2.662 6.406 50.692 16.264z" fill="#ef968f" fill-rule="evenodd"/><path d="m581.341 285.125s-.177-1.962-1.824-2.945" stroke="#d1661e" stroke-linecap="round" stroke-linejoin="round" stroke-width="1.302"/><path d="m643.627 272.35s-4.12.336-5.527-.637" stroke="#fd443b" stroke-width="1.5"/><path clip-rule="evenodd" d="m630.346 190.019s5.205-7.765 8.137-4.654c.66.699.932 1.678.847 2.636-.261 2.923-1.404 10.702-6.169 9.647" fill="#ef968f" fill-rule="evenodd"/><path d="m634.46 188.347s3.659.623.745 4.416" stroke="#d3625f" stroke-linecap="round" stroke-linejoin="round" stroke-width="1.302"/><path d="m654.977 248.079.753 7.324" stroke="#204b99" stroke-linecap="round" stroke-linejoin="round" stroke-width="1.5"/><path d="m609.133 180.415s-2.135-1.034-3.472.21" stroke="#592b43" stroke-linecap="round" stroke-linejoin="round" stroke-width="1.5"/><g clip-rule="evenodd" fill-rule="evenodd"><path d="m659.167 241.456-39.215 38.59 4.709 11.912 44.988-36.932-7.883-12.384" fill="#ef968f"/><path d="m587.097 255.478s-10.766-12.523-10.418-8.817c0 0 4.828 5.953 1.414 3.975 0 0-23.353-15.341-12.455-3.515 0 0 8.811 11.17 16.776 13.471z" fill="#ef968f"/><path d="m633.555 284.657s-20.411-20.198-46.444-29.217l-4.669 5.128 42.219 31.39z" fill="#ef968f"/><path d="m623.947 276.115s1.195 1.98-.399 4.009z" fill="#ef968f"/><path d="m654.309 238.938 10.954.381s8.006 5.676 9.345 15.258c0 0-7.489 5.555-11.595 3.065 0 0-5.897-2.891-10.258-.221z" fill="#f4cec9"/><path d="m196.118 296.711h410.613v-146.023h-410.613z" fill="#ef8767"/><path d="m196.118 307.263h410.261v-10.552h-410.261z" fill="#a8385b"/><path d="m196.118 224.257h410.261v-10.553h-410.261z" fill="#a8385b"/><path d="m205.412 459.857h10.537v-163.146h-10.537z" fill="#a8385b"/><path d="m638.95 459.857h10.536v-163.146h-10.536z" fill="#a8385b"/><path d="m403.144 437.19h5.718v-81.914h-5.718z" fill="#ce5777"/><path d="m381.48 439.4h49.046v-5.726h-49.046z" fill="#ce5777"/><path d="m384.339 446.798c1.039 0 2.013.272 2.859.746v-13.871h-5.718v13.871c.847-.474 1.821-.746 2.859-.746z" fill="#ce5777"/><path d="m390.208 454.213c0 3.246-2.628 5.877-5.868 5.877-3.242 0-5.869-2.631-5.869-5.877 0-3.245 2.627-5.877 5.869-5.877 3.24 0 5.868 2.632 5.868 5.877z" fill="#ce5777"/><path d="m427.764 446.798c1.039 0 2.013.272 2.859.746v-13.871h-5.718v13.871c.847-.474 1.821-.746 2.859-.746z" fill="#ce5777"/><path d="m433.632 454.213c0 3.246-2.627 5.877-5.868 5.877s-5.869-2.631-5.869-5.877c0-3.245 2.628-5.877 5.869-5.877s5.868 2.632 5.868 5.877z" fill="#ce5777"/><path d="m406.003 446.798c1.038 0 2.012.272 2.859.746v-13.871h-5.718v13.871c.846-.474 1.82-.746 2.859-.746z" fill="#ce5777"/><path d="m411.872 454.213c0 3.246-2.628 5.877-5.869 5.877s-5.868-2.631-5.868-5.877c0-3.245 2.627-5.877 5.868-5.877s5.869 2.632 5.869 5.877z" fill="#ce5777"/><path d="m382.754 451.17h3.222v-6.194h-3.222z" fill="#ce5777"/><path d="m404.392 451.17h3.222v-6.194h-3.222z" fill="#ce5777"/><path d="m426.152 451.17h3.223v-6.194h-3.223z" fill="#ce5777"/><path d="m201.92 296.711h452.804v-146.023h-452.804z" fill="#ffbfb0"/><path d="m231.264 272.652s-3.856-36.413 11.704-43.351c4.223-1.883 9.321-.025 11.21 4.2 2.779 6.215 1.846 18.395-22.914 39.151z" fill="#fbeedd"/><path d="m250.229 229.446c-2.208-1.077-4.874-1.209-7.261-.145-15.56 6.938-11.704 43.351-11.704 43.351.035-.029.067-.057.101-.086z" fill="#e57094"/><path d="m230.841 269.588s-16.049-6.391-15.524-14.431c.142-2.182 2.038-3.908 4.218-3.77 3.205.203 8.084 3.272 11.306 18.201z" fill="#fbeedd"/><path d="m216.974 252.149c-.935.688-1.576 1.775-1.657 3.008-.524 8.04 15.524 14.431 15.524 14.431-.005-.021-.009-.04-.014-.061z" fill="#e57094"/><path d="m289.543 296.711h18.553v-64.292h-18.553z" fill="#bc486c"/><path d="m270.968 296.711h18.962v-64.292h-18.962z" fill="#6a1244"/><path d="m293.199 258.374h11.979v-22.618h-11.979z" fill="#e897bb"/><path d="m293.199 265.43h11.979v-3.44h-11.979z" fill="#e897bb"/><path d="m293.199 272.221h11.979v-3.44h-11.979z" fill="#e897bb"/><path d="m308.096 296.711h18.553v-64.292h-18.553z" fill="#a8385b"/><path d="m311.752 258.374h11.979v-22.618h-11.979z" fill="#e897bb"/><path d="m311.752 265.43h11.979v-3.44h-11.979z" fill="#e897bb"/><path d="m311.752 272.221h11.979v-3.44h-11.979z" fill="#e897bb"/><path d="m326.649 296.711h18.553v-64.292h-18.553z" fill="#bc486c"/><path d="m330.305 258.374h11.98v-22.618h-11.98z" fill="#e897bb"/><path d="m330.305 265.43h11.98v-3.44h-11.98z" fill="#e897bb"/><path d="m330.305 272.221h11.98v-3.44h-11.98z" fill="#e897bb"/><path d="m345.202 296.711h18.553v-64.292h-18.553z" fill="#a8385b"/><path d="m348.859 258.374h11.979v-22.618h-11.979z" fill="#e897bb"/><path d="m348.859 265.43h11.979v-3.44h-11.979z" fill="#e897bb"/><path d="m348.859 272.221h11.979v-3.44h-11.979z" fill="#e897bb"/><path d="m201.648 307.263h452.804v-10.552h-452.804z" fill="#ce5777"/><path d="m436.842 366.646h-81.917v-108.405c0-5.84 4.726-10.573 10.557-10.573h60.802c5.831 0 10.558 4.733 10.558 10.573z" fill="#ff9b78"/><path d="m371.071 247.668h-6.015c-5.596 0-10.131 4.543-10.131 10.146v108.832h16.146z" fill="#d86a6a"/><path d="m450.935 381.045h-80.565c-8.53 0-15.445-6.925-15.445-15.469v-6.567h111.456v6.567c0 8.544-6.915 15.469-15.446 15.469z" fill="#d86a6a"/><path d="m201.648 224.257h171.228v-10.553h-171.228z" fill="#ce5777"/><path d="m210.943 459.857h10.536v-163.146h-10.536z" fill="#ce5777"/><path d="m644.479 459.857h10.537v-163.146h-10.537z" fill="#ce5777"/><path d="m660.686 431.521h-86.856v33.674c0 2.415 1.955 4.373 4.366 4.373h78.124c2.411 0 4.366-1.958 4.366-4.373z" fill="#a8385b"/><path d="m658.418 437.167h-82.321c-2.11 0-3.82-1.712-3.82-3.826v-21.13c0-2.242 1.815-4.06 4.054-4.06h81.853c2.24 0 4.055 1.818 4.055 4.06v21.13c0 2.114-1.711 3.826-3.821 3.826z" fill="#6a1244"/><path d="m601.602 408.151c.109-3.431 2.922-6.189 6.373-6.189h18.566c3.451 0 6.264 2.758 6.373 6.189h8.187c-.111-7.953-6.594-14.389-14.56-14.389h-18.566c-7.965 0-14.449 6.436-14.56 14.389z" fill="#6a1244"/><path d="m668.57 431.521h-86.855v33.674c0 2.415 1.954 4.373 4.366 4.373h78.123c2.411 0 4.366-1.958 4.366-4.373z" fill="#ce5777"/><path d="m666.303 437.167h-82.321c-2.11 0-3.82-1.712-3.82-3.826v-21.13c0-2.242 1.815-4.06 4.054-4.06h81.853c2.239 0 4.055 1.818 4.055 4.06v21.13c0 2.114-1.711 3.826-3.821 3.826z" fill="#a8385b"/><path d="m609.487 408.151c.108-3.431 2.921-6.189 6.372-6.189h18.567c3.451 0 6.263 2.758 6.372 6.189h8.187c-.11-7.953-6.594-14.389-14.559-14.389h-18.567c-7.965 0-14.449 6.436-14.559 14.389z" fill="#a8385b"/><path d="m635.57 437.167h-20.015v-1.858c0-1.598 1.294-2.894 2.89-2.894h14.235c1.596 0 2.89 1.296 2.89 2.894z" fill="#fff"/><path d="m628.559 444.924h-5.992c-1.798 0-3.255-1.459-3.255-3.259v-1.493h12.502v1.493c0 1.8-1.457 3.259-3.255 3.259z" fill="#fff"/><path d="m301.232 197.031h50.951v-4.675h-50.951z" fill="#a8385b"/><path d="m301.232 184.599h50.951v-4.675h-50.951z" fill="#a8385b"/><path d="m303.39 192.356h48.793v-7.757h-48.793z" fill="#e897bb"/><path d="m288.083 209.462h58.557v-7.757h-58.557z" fill="#bc486c"/><path d="m285.493 214.137h61.147v-4.675h-61.147z" fill="#6a1244"/><path d="m285.493 201.705h61.147v-4.674h-61.147z" fill="#6a1244"/><path d="m299.468 214.137h61.147v-4.675h-61.147z" fill="#a8385b"/><path d="m299.468 201.705h61.147v-4.674h-61.147z" fill="#a8385b"/><path d="m361.201 197.03h-.587v17.106h.587c2.324 0 4.208-1.886 4.208-4.214v-8.678c0-2.327-1.884-4.214-4.208-4.214z" fill="#a8385b"/><path d="m302.057 209.462h58.557v-7.757h-58.557z" fill="#ce5777"/><path d="m306.186 197.031h50.95v-4.675h-50.95z" fill="#bc486c"/><path d="m306.186 184.599h50.95v-4.675h-50.95z" fill="#bc486c"/><path d="m357.576 179.924h-.44v17.106h.44c2.245 0 4.065-1.822 4.065-4.07v-8.965c0-2.248-1.82-4.071-4.065-4.071z" fill="#bc486c"/><path d="m308.343 192.356h48.793v-7.757h-48.793z" fill="#e897bb"/><path d="m354.818 192.356h2.318v-7.757h-2.318z" fill="#6a1244"/><path d="m358.296 209.462h2.319v-7.757h-2.319z" fill="#6a1244"/><path d="m418.153 287.608h6.75v-93.329c0-29-20.948-52.592-46.697-52.592h-20.112v7.602h20.112c22.027 0 39.947 20.182 39.947 44.99z" fill="#4c223a"/><path d="m380.863 153.96h12.746v-12.124h-12.746z" fill="#ce5777"/><path d="m389.878 276.871h19.996v-3.356c0-1.544-1.251-2.796-2.793-2.796h-14.41c-1.542 0-2.793 1.252-2.793 2.796z" fill="#6a1244"/><path d="m386.486 276.871h19.995v-3.356c0-1.544-1.25-2.796-2.793-2.796h-14.409c-1.543 0-2.793 1.252-2.793 2.796z" fill="#ce5777"/><path d="m415.365 281.048h12.746v-12.123h-12.746z" fill="#ce5777"/><path d="m381.844 298.91h73.47v-12.329c0-5.676-4.594-10.276-10.261-10.276h-52.948c-5.667 0-10.261 4.6-10.261 10.276z" fill="#6a1244"/><path d="m344.421 155.741c0 8.509 6.888 15.408 15.385 15.408s15.385-6.899 15.385-15.408-6.888-15.408-15.385-15.408-15.385 6.899-15.385 15.408z" fill="#fbeedd"/><path d="m373.576 298.91h73.47v-12.329c0-5.676-4.593-10.276-10.26-10.276h-52.949c-5.667 0-10.261 4.6-10.261 10.276z" fill="#a8385b"/><path d="m360.843 129.153c15.907 0 28.803 12.915 28.803 28.846h-57.607c0-15.931 12.896-28.846 28.804-28.846z" fill="#a8385b"/><path d="m230.916 213.704h43.543v-21.896h-43.543z" fill="#e897bb"/><path d="m230.915 213.704h-12.241c-2.606 0-4.719-2.116-4.719-4.726v-12.444c0-2.611 2.113-4.726 4.719-4.726h12.241z" fill="#6a1244"/><path d="m235.825 210.186h34.211v-14.457h-34.211z" fill="#fbeedd"/><path d="m260.083 191.808h-37.647v-.711c0-1.863 1.508-3.373 3.368-3.373h30.911c1.86 0 3.368 1.51 3.368 3.373z" fill="#6a1244"/><path d="m263.79 191.808h-37.647v-.711c0-1.863 1.508-3.373 3.368-3.373h30.911c1.86 0 3.368 1.51 3.368 3.373z" fill="#bc486c"/><path d="m239.065 202.206h2.906v-4.874h-2.906z" fill="#ce5777"/><path d="m239.066 207.914h2.906v-4.875h-2.906z" fill="#ce5777"/><path d="m242.918 204.211h4.866v-2.91h-4.866z" fill="#ce5777"/><path d="m259.563 200.487h4.034v-2.91h-4.034z" fill="#ce5777"/><path d="m264.4 200.487h2.545v-2.91h-2.545z" fill="#ce5777"/><path d="m259.563 208.369h7.382v-2.911h-7.382z" fill="#ce5777"/><path d="m252.564 202.456h2.783v-2.787h-2.783z" fill="#ce5777"/><path d="m252.564 206.578h2.783v-2.787h-2.783z" fill="#ce5777"/><path d="m586.409 296.711h-36.838l6.188-28.127h24.718z" fill="#592b43"/><path d="m581.15 296.711h-36.838l6.188-28.127h24.718z" fill="#bc486c"/><path d="m631.064 275.096h4.074c2.76 0 4.997-2.24 4.997-5.003v-85.611c0-2.763-2.237-5.003-4.997-5.003h-4.074z" fill="#592b43"/><path d="m493.628 179.479h136.065c2.753 0 4.985 2.234 4.985 4.991v85.635c0 2.757-2.232 4.991-4.985 4.991h-136.065c-2.753 0-4.985-2.234-4.985-4.991v-85.635c0-2.757 2.232-4.991 4.985-4.991z" fill="#a8385b"/><path d="m517.764 296.689h86.756v-5.771h-86.756z" fill="#a8385b"/><path d="m604.519 296.689h6.14v-5.771h-6.14z" fill="#592b43"/><path d="m495.72 259.587h130.922v-72.43h-130.922z" fill="#fbeedd"/><path d="m502.198 254.068h119.251v-61h-119.251z" fill="#e897bb"/><path d="m499.31 357.756-19.872 5.175s-11.978 14.024 14.14 65.302l11.083.138z" fill="#4c223a"/><path d="m411.892 350.041 85.557 33.033 1.958-25.345-74.303-34.594z" fill="#4c223a"/><path d="m493.578 428.233 3.364 15.533s31.187 10.768 37.658 1.303c0 0-14.613-9.09-29.939-16.698z" fill="#a8385b"/><path d="m513.474 286.217s16.773 5.007 14.343 1.898c0 0-7.715-2.548-3.535-2.739 0 0 29.623.305 13.13-4.004 0 0-14.255-4.921-22.68-2.407z" fill="#ff8d54"/><path d="m351.741 352.817s-4.769 16.866-6.088 13.146c0 0 1.988-7.89-.414-4.458 0 0-15.621 25.208-10.413 8.955 0 0 3.492-14.69 10.128-20.467z" fill="#ff8d54"/><path d="m415.592 256.397 41.81 38.676s10.825-.878 10.659-10.678l-37.407-50.496z" fill="#7faadd"/><path d="m395.211 362.13 73.44 26.893 1.985-18.534-79.506-49.096-16.436 3.802c-2.611 15.6-2.202 30.714 20.517 36.935z" fill="#592b43"/><path d="m468.651 389.023-20.444-7.484s-17.699 3.802-20.243 67.961l10.233 5.813z" fill="#592b43"/><path d="m396.369 225.992 1.434-22.371 19.292 17.529.67 5.836s-9.584 13.391-21.396-.994z" fill="#ff8d54"/><path d="m422.573 219.733-5.517 1.23c-1.153.257-2.358.137-3.438-.34-7.166-3.165-9.863-7.337-13.13-14.465l-4.67-5.018 6.679-19.097 26.597 2.054 1.661 9.182c.512 2.828.434 5.73-.228 8.526l-3.115 13.15c-.567 2.389-2.445 4.245-4.839 4.778z" fill="#ff8d54"/><path d="m422.573 219.733-5.517 1.23c-1.153.257-2.358.137-3.438-.34-7.166-3.165-9.011-8.368-12.277-15.496l-5.523-3.987 6.679-19.097 26.597 2.054 1.661 9.182c.512 2.828.434 5.73-.228 8.526l-3.115 13.15c-.567 2.389-2.445 4.245-4.839 4.778z" fill="#ff8d54"/><path d="m403.631 192.022-1.641 9.258-5.116-2.06-1.755-6.219s-3.439-19.914 8.684-22.634c0 0 2.534-.814 7.488.202 0 0 5.528.99 8.981-2.37 1.039-1.012 2.193-1.905 3.499-2.535 2.804-1.352 7.004-2.147 9.373 3.313 0 0 7.275 13.46-3.548 17.891 0 0-7.002 2.716-11.695-.892-.223-.172-.458-.327-.715-.442-.08-.035-.17-.074-.271-.116-6.138-2.539-11.406.224-13.284 6.604z" fill="#6a1244"/><path d="m400.972 198.3s-4.244-4.759-6.689-2.071c-1.217 1.339-1.213 3.386-.151 4.851 1.098 1.515 3.182 3.789 7.088 6.641l2.087-4.48" fill="#ff8d54"/><path d="m424.609 198.613.266 9.028 5.562 1.504s-4.042-9.721-5.828-10.532z" fill="#d1661e"/></g><path d="m420.136 212.168s4.542 1.035 8.481-.197" stroke="#d1661e" stroke-linecap="round" stroke-linejoin="round" stroke-width="1.0945"/><path clip-rule="evenodd" d="m418.066 198.943c.113.984-.295 1.838-.911 1.909-.615.071-1.206-.668-1.319-1.652-.113-.983.295-1.837.911-1.909.616-.07 1.206.669 1.319 1.652z" fill="#592b43" fill-rule="evenodd"/><path clip-rule="evenodd" d="m429.995 197.571c.113.983-.172 1.823-.637 1.876-.464.054-.933-.7-1.045-1.683-.113-.983.172-1.823.637-1.877.464-.053.932.7 1.045 1.684z" fill="#592b43" fill-rule="evenodd"/><path d="m416.613 192.016s-3.205-.413-4.611 1.81" stroke="#592b43" stroke-linecap="round" stroke-linejoin="round" stroke-width="1.5"/><path d="m427.382 190.855s1.66-1.399 3.03-.171" stroke="#592b43" stroke-linecap="round" stroke-linejoin="round" stroke-width="1.5"/><path clip-rule="evenodd" d="m417.765 226.986s-9.401 11.542-21.396-.994l-20.989 9.104 5.252 59.033-8.14 41.081s54.89 8.883 66.503-3.824l-3.459-43.47-4.447-57.825z" fill="#96b6ec" fill-rule="evenodd"/><path clip-rule="evenodd" d="m409.878 233.497 3.979-3.827 3.749 4.002s-3.43 2.07-7.728-.175z" fill="#a8385b" fill-rule="evenodd"/><path clip-rule="evenodd" d="m411.453 234.151-1.575 73.184 4.138 11.261c.478 1.3 2.304 1.327 2.82.041l4.47-11.145-4.829-73.341s-2.681.557-5.024 0z" fill="#a8385b" fill-rule="evenodd"/><path clip-rule="evenodd" d="m375.535 235.096-23.341 60.542s5.738 15.172 13.947 9.834l15.392-30.248z" fill="#96b6ec" fill-rule="evenodd"/><path d="m405.848 216.747s4.407 4.654 12.307 4.058" stroke="#d1661e" stroke-linecap="round" stroke-linejoin="round" stroke-width="1.0945"/><path d="m395.818 200.007s1.188-3.338 3.882.568" stroke="#d1661e" stroke-linecap="round" stroke-linejoin="round" stroke-width="1.0945"/><path clip-rule="evenodd" d="m397.759 174.406s-8.07-3.391-6.402 4.074l4.164 15.945 3.4-11.449" fill="#6a1244" fill-rule="evenodd"/><path d="m397.021 204.592s2.709 3.334 5.36 1.716" stroke="#d1661e" stroke-linecap="round" stroke-linejoin="round" stroke-width="1.0945"/><path clip-rule="evenodd" d="m428.017 448.583-3.75 15.444s23.356 23.332 33.306 17.649c0 0-9.179-14.57-19.647-28.118z" fill="#a8385b" fill-rule="evenodd"/><path clip-rule="evenodd" d="m366.141 305.472s-2.883 39.728-15.121 50.984l-8.992-3.752 10.166-57.067z" fill="#96b6ec" fill-rule="evenodd"/><path clip-rule="evenodd" d="m462.981 278.937s38.673-9.309 53.097-1.047l-.84 9.718-57.38 7.623z" fill="#7faadd" fill-rule="evenodd"/><path clip-rule="evenodd" d="m396.451 222.655 17.003 7.436-9.29 8.563-12.042-11.211z" fill="#6990c9" fill-rule="evenodd"/><path clip-rule="evenodd" d="m413.453 230.091 3.894-6.142 4.906 3.765-1.405 8.635z" fill="#6990c9" fill-rule="evenodd"/><path clip-rule="evenodd" d="m215.95 296.711h23.872v-29.131h-23.872z" fill="#a8385b" fill-rule="evenodd"/><path clip-rule="evenodd" d="m221.479 296.711h23.872v-29.131h-23.872z" fill="#bc486c" fill-rule="evenodd"/><path clip-rule="evenodd" d="m299.582 459.857h-50.636l-5.621-74.883h72.518l-6.664 66.192c-.497 4.935-4.645 8.691-9.597 8.691z" fill="#a8385b" fill-rule="evenodd"/><path clip-rule="evenodd" d="m317.212 384.974h-74.865c-.771 0-1.397-.627-1.397-1.4v-2.824c0-.773.626-1.4 1.397-1.4h74.865c.772 0 1.398.627 1.398 1.4v2.824c0 .773-.626 1.4-1.398 1.4z" fill="#e897bb" fill-rule="evenodd"/><path clip-rule="evenodd" d="m550.371 83.1511 1.791 8.7655c2.548-.3415 8.011-.5558 14.306 2.8567l-3.91 10.4757c-3.078-1.811-6.639-2.89-10.279-2.144-2.426.496-4.209 1.495-5.123 2.767-.776 1.063-1.29 2.525-.988 4 .301 1.476 1.12 2.393 2.338 3.048 1.634.931 3.838 1.112 6.391 1.674l5.278 1.09c3.213.698 6.443 1.483 9.157 3.278 3.463 2.365 5.402 5.675 6.253 9.841 1.117 5.467.045 10.389-2.125 13.907-1.964 3.205-5.196 5.948-9.387 7.53l2.02 9.893-7.799 1.598-1.95-9.547c-3.502.537-6.954.43-10.984-.733-3.266-.959-6.255-2.336-9.005-4.305l4.463-10.86c.835.553 3.34 2.209 6.555 3.359 2.536.927 5.245 1.367 8.538.693 1.906-.391 4.002-1.182 5.434-3.013.932-1.185 1.601-2.769 1.176-4.852-.426-2.082-1.68-3.363-3.557-4.154-1.582-.671-3.144-.803-6.512-1.379l-3.28-.593c-3.282-.594-6.703-1.431-9.834-3.502-3.255-2.226-5.053-4.842-5.851-8.748-1.045-5.121-.096-10.198 2.317-13.857 1.861-2.8228 4.956-5.3545 8.557-6.7255l-1.79-8.766z" fill="#a8385b" fill-rule="evenodd"/><path clip-rule="evenodd" d="m604.121 165.059c-.952.318-1.906 1.126-2.493 2.301-.586 1.176-.66 2.425-.342 3.379.245.858.905 1.861 2.225 2.522 1.32.66 2.518.587 3.349.269.954-.319 1.907-1.127 2.494-2.302.586-1.175.66-2.424.341-3.379-.244-.856-.904-1.86-2.224-2.521s-2.518-.588-3.35-.269zm5.086 12.951c-2.298.809-5.084.515-7.676-.783-2.591-1.298-4.499-3.353-5.232-5.68-.416-1.248-.807-3.648.635-6.537s3.594-4.015 4.841-4.431c2.297-.809 5.085-.515 7.676.782 2.591 1.298 4.498 3.354 5.231 5.68.417 1.249.808 3.648-.634 6.537s-3.594 4.016-4.841 4.432zm6.721-35.623 3.056 2.447-35.715 23.556-2.983-2.472zm-23.519-5.287c-.953.318-1.906 1.127-2.493 2.302-.587 1.174-.66 2.424-.342 3.378.245.857.905 1.861 2.225 2.522s2.518.587 3.35.269c.952-.319 1.906-1.126 2.493-2.302.586-1.175.659-2.424.342-3.379-.245-.857-.905-1.86-2.225-2.521s-2.519-.588-3.35-.269zm5.086 12.951c-2.298.808-5.085.515-7.676-.783-2.592-1.297-4.499-3.354-5.231-5.68-.416-1.248-.808-3.647.634-6.537 1.442-2.888 3.594-4.015 4.84-4.431 2.299-.808 5.086-.515 7.677.783 2.591 1.297 4.498 3.353 5.232 5.679.415 1.249.807 3.648-.635 6.538-1.443 2.888-3.594 4.014-4.841 4.431z" fill="#6a1244" fill-rule="evenodd"/><path clip-rule="evenodd" d="m528.889 172.87-.816-11.646h10.098l-.918 11.646 10.71-4.495 3.163 9.501-11.323 2.656 7.446 8.887-7.955 5.925-6.223-9.91-6.12 9.91-7.956-5.925 7.446-8.785-11.322-2.657 3.162-9.602z" fill="#e57094" fill-rule="evenodd"/><path clip-rule="evenodd" d="m584.69 82.5305-.381-5.4365h4.714l-.428 5.4365 5-2.0981 1.476 4.4351-5.286 1.2398 3.476 4.1492-3.714 2.7656-2.905-4.6259-2.857 4.6259-3.714-2.7656 3.476-4.1016-5.285-1.2398 1.476-4.4827z" fill="#e897bb" fill-rule="evenodd"/><path clip-rule="evenodd" d="m519.81 115.069-.235-3.357h2.912l-.266 3.357 3.088-1.296.912 2.74-3.264.765 2.146 2.562-2.293 1.708-1.794-2.857-1.764 2.857-2.294-1.708 2.146-2.532-3.263-.766.911-2.769z" fill="#ce5777" fill-rule="evenodd"/><path clip-rule="evenodd" d="m585.155 197.095 4.075-11.006-9.794-3.637-4.075 11.006c-4.961-.974-10.16-.303-14.187 1.548-5.222 2.4-9.794 7.396-12.175 13.825-1.815 4.904-1.624 9.067.459 13.807 2.055 4.48 5.285 7.788 8.529 10.728l3.243 2.939c3.353 2.981 5.001 4.213 6.298 6.058 1.543 2.185 2.054 4.481 1.085 7.096-.967 2.612-2.805 3.912-4.661 4.585h21.884c1.798-5.088 1.881-9.994-.282-14.904-1.78-3.884-4.834-7-7.929-10.009l-5.125-4.88c-2.453-2.398-4.782-4.13-5.959-6.302-.902-1.575-1.179-3.165-.493-5.017.685-1.852 2.269-3.124 3.87-3.769 1.899-.782 4.576-.657 7.622.474 4.57 1.697 7.79 5.372 9.964 9.526l11.608-8.952c-4.648-8.172-10.882-11.727-13.957-13.116z" fill="#6a1244" fill-rule="evenodd"/><path clip-rule="evenodd" d="m555.807 253.629c-4.135-1.535-6.847-3.907-9.03-6.7-2.785-3.513-4.428-7.098-4.976-8.293l-12.49 8.996c.946 2.281 2.12 4.399 3.471 6.412h24.296c-.435-.126-.863-.263-1.271-.415z" fill="#6a1244" fill-rule="evenodd"/></svg>