<svg fill="none" height="560" viewBox="0 0 960 560" width="960" xmlns="http://www.w3.org/2000/svg"><path d="m0 0h960v560h-960z" fill="#ffeae6"/><g clip-rule="evenodd" fill-rule="evenodd"><path d="m442.38 483.179h-199.498c-1.508 0-2.73-1.224-2.73-2.734v-377.707c0-1.509 1.222-2.734 2.73-2.734h199.498c1.508 0 2.73 1.225 2.73 2.734v377.707c0 1.51-1.222 2.734-2.73 2.734z" fill="#db8c7f"/><path d="m461.753 483.179h-199.497c-1.508 0-2.731-1.224-2.731-2.734v-377.707c0-1.509 1.223-2.734 2.731-2.734h199.497c1.508 0 2.731 1.225 2.731 2.734v377.707c0 1.51-1.223 2.734-2.731 2.734z" fill="#f7aa9a"/><path d="m277.44 425.102h168.726v-306.86h-168.726z" fill="#ffc9bb"/><path d="m277.44 206.979h168.726v-8.16h-168.726z" fill="#f7a28d"/><path d="m277.44 299.989h168.726v-8.16h-168.726z" fill="#f7a28d"/><path d="m277.44 381.222h168.726v-8.161h-168.726z" fill="#f7a28d"/><path d="m303.712 198.843h-7.048c-4.184 0-7.576-3.397-7.576-7.587v-41.005h22.2v41.005c0 4.19-3.392 7.587-7.576 7.587z" fill="#fff"/><path d="m289.088 150.251h22.2l-4.562-9.164h-13.659z" fill="#fff"/><path d="m294.493 134.621h10.48v-4.753h-10.48z" fill="#db8c7f"/><path d="m289.088 185.193h22.2v-31.418h-22.2z" fill="#ff9b78"/><path d="m295.875 134.622-2.808 6.465h13.659l-3.219-6.465z" fill="#fff"/><path d="m339.709 198.843h-7.047c-4.185 0-7.577-3.397-7.577-7.587v-41.005h22.2v41.005c0 4.19-3.391 7.587-7.576 7.587z" fill="#fff"/><path d="m325.085 150.251h22.2l-4.562-9.164h-13.658z" fill="#fff"/><path d="m330.49 134.621h10.481v-4.753h-10.481z" fill="#db8c7f"/><path d="m325.085 185.193h22.2v-31.418h-22.2z" fill="#ff9b78"/><path d="m331.872 134.622-2.807 6.465h13.659l-3.219-6.465z" fill="#fff"/><path d="m365.872 198.819h24.131v-49.922h-24.131z" fill="#ffefee"/><path d="m379.469 133.297h-3.064l-10.532 15.6h24.129z" fill="#ff9b78"/><path d="m376.405 133.297h3.123v-5.131h-3.123z" fill="#ce5777"/><path d="m369.182 174.547h17.367v-20.772h-17.367z" fill="#ff9b78"/><path d="m369.182 181.899h17.367v-3.968h-17.367z" fill="#ff9b78"/><path d="m369.182 188.666h17.367v-3.967h-17.367z" fill="#ff9b78"/><path d="m405.695 198.819h24.13v-49.922h-24.13z" fill="#ffefee"/><path d="m419.292 133.297h-3.064l-10.533 15.6h24.13z" fill="#ff9b78"/><path d="m416.228 133.297h3.122v-5.131h-3.122z" fill="#ce5777"/><path d="m409.004 174.547h17.367v-20.772h-17.367z" fill="#ff9b78"/><path d="m409.004 181.899h17.367v-3.968h-17.367z" fill="#ff9b78"/><path d="m409.004 188.666h17.367v-3.967h-17.367z" fill="#ff9b78"/><path d="m302.694 291.814-10.011.015c-1.942.003-3.519-1.571-3.521-3.516l-.074-49.56c-.003-1.945 1.569-3.524 3.511-3.527l10.012-.014c1.941-.003 3.518 1.571 3.521 3.515l.073 49.561c.002 1.944-1.569 3.523-3.511 3.526z" fill="#ffedeb"/><path d="m306.195 281.823-17.043.025-.057-38.663 17.043-.025z" fill="#f7aa9a"/><path d="m300.524 240.505-5.823.008-.033-21.794 5.824-.008z" fill="#ffedeb"/><path d="m302.824 221.084-10.48.016-.007-4.754 10.48-.015z" fill="#db8c7f"/><path d="m302.885 262.497-10.48.015-.019-12.871 10.48-.016z" fill="#fff"/><path d="m302.894 268.039-10.481.016-.004-2.761 10.48-.016z" fill="#fff"/><path d="m343.901 291.814-10.012.015c-1.942.003-3.518-1.571-3.521-3.516l-.073-49.56c-.003-1.945 1.569-3.524 3.511-3.527l10.011-.014c1.942-.003 3.518 1.571 3.521 3.515l.073 49.561c.003 1.944-1.568 3.523-3.51 3.526z" fill="#ff9b78"/><path d="m347.402 281.823-17.043.025-.057-38.663 17.043-.025z" fill="#d86a6a"/><path d="m341.731 240.505-5.823.008-.033-21.794 5.824-.008z" fill="#ff9b78"/><path d="m344.031 221.084-10.481.016-.007-4.754 10.481-.015z" fill="#db8c7f"/><path d="m344.092 262.497-10.48.015-.019-12.871 10.48-.016z" fill="#fff"/><path d="m344.1 268.039-10.481.016-.004-2.761 10.481-.016z" fill="#fff"/><path d="m385.108 291.814-10.012.015c-1.942.003-3.519-1.571-3.521-3.516l-.074-49.56c-.002-1.945 1.569-3.524 3.511-3.527l10.012-.014c1.942-.003 3.518 1.571 3.521 3.515l.073 49.561c.003 1.944-1.569 3.523-3.51 3.526z" fill="#ffedeb"/><path d="m388.608 281.823-17.043.025-.057-38.663 17.044-.025z" fill="#f7aa9a"/><path d="m382.938 240.505-5.823.008-.033-21.794 5.824-.008z" fill="#ffedeb"/><path d="m385.238 221.084-10.48.016-.008-4.754 10.481-.015z" fill="#db8c7f"/><path d="m385.299 262.497-10.481.015-.019-12.871 10.481-.016z" fill="#fff"/><path d="m385.307 268.039-10.48.016-.005-2.761 10.481-.016z" fill="#fff"/><path d="m426.315 291.814-10.012.015c-1.942.003-3.519-1.571-3.521-3.516l-.073-49.56c-.003-1.945 1.569-3.524 3.51-3.527l10.012-.014c1.941-.003 3.518 1.571 3.521 3.515l.073 49.561c.002 1.944-1.569 3.523-3.51 3.526z" fill="#ff9b78"/><path d="m429.815 281.823-17.043.025-.057-38.663 17.043-.025z" fill="#d86a6a"/><path d="m424.145 240.505-5.824.008-.032-21.794 5.824-.008z" fill="#ff9b78"/><path d="m426.444 221.084-10.48.016-.008-4.754 10.481-.015z" fill="#db8c7f"/><path d="m426.505 262.497-10.48.015-.019-12.871 10.48-.016z" fill="#fff"/><path d="m426.514 268.039-10.481.016-.004-2.761 10.48-.016z" fill="#fff"/><path d="m322.279 373.061h-30.53c-.899 0-1.629-.73-1.629-1.631v-20.351c0-.901.73-1.631 1.629-1.631h30.53c.9 0 1.629.73 1.629 1.631v20.351c0 .901-.729 1.631-1.629 1.631z" fill="#d86a6a"/><path d="m293.451 349.681h27.353v-2.962h-27.353z" fill="#d86a6a"/><path d="m290.589 346.719h32.84v-2.887h-32.84z" fill="#f7aa9a"/><path d="m290.12 369.24h33.788v-16.032h-33.788z" fill="#fff"/><path d="m293.391 360.534h27.353v-3.855h-27.353z" fill="#ce5777"/><path d="m299.657 366.693h14.821v-3.855h-14.821z" fill="#ce5777"/><path d="m322.274 343.832h-30.53c-.9 0-1.629-.731-1.629-1.632v-20.35c0-.902.729-1.632 1.629-1.632h30.53c.9 0 1.629.73 1.629 1.632v20.35c0 .901-.729 1.632-1.629 1.632z" fill="#d86a6a"/><path d="m293.445 320.451h27.353v-2.961h-27.353z" fill="#d86a6a"/><path d="m290.583 317.49h32.841v-2.888h-32.841z" fill="#f7aa9a"/><path d="m290.115 340.01h33.788v-16.032h-33.788z" fill="#fff"/><path d="m293.386 331.304h27.353v-3.855h-27.353z" fill="#ce5777"/><path d="m299.652 337.464h14.821v-3.856h-14.821z" fill="#ce5777"/><path d="m377.063 373.061h-30.53c-.899 0-1.629-.73-1.629-1.631v-20.351c0-.901.73-1.631 1.629-1.631h30.53c.9 0 1.629.73 1.629 1.631v20.351c0 .901-.729 1.631-1.629 1.631z" fill="#ffedeb"/><path d="m348.235 349.681h27.352v-2.962h-27.352z" fill="#ffedeb"/><path d="m345.372 346.719h32.841v-2.887h-32.841z" fill="#ff9b78"/><path d="m344.904 369.24h33.788v-16.032h-33.788z" fill="#d86a6a"/><path d="m377.058 343.832h-30.53c-.899 0-1.629-.731-1.629-1.632v-20.35c0-.902.73-1.632 1.629-1.632h30.53c.9 0 1.629.73 1.629 1.632v20.35c0 .901-.729 1.632-1.629 1.632z" fill="#ffedeb"/><path d="m348.229 320.451h27.353v-2.961h-27.353z" fill="#ffedeb"/><path d="m345.367 317.49h32.841v-2.888h-32.841z" fill="#ff9b78"/><path d="m344.899 340.01h33.788v-16.032h-33.788z" fill="#d86a6a"/><path d="m430.261 373.061h-30.53c-.899 0-1.629-.73-1.629-1.631v-20.351c0-.901.73-1.631 1.629-1.631h30.53c.9 0 1.629.73 1.629 1.631v20.351c0 .901-.729 1.631-1.629 1.631z" fill="#d86a6a"/><path d="m401.432 349.681h27.353v-2.962h-27.353z" fill="#d86a6a"/><path d="m398.57 346.719h32.841v-2.887h-32.841z" fill="#f7aa9a"/><path d="m398.102 369.24h33.788v-16.032h-33.788z" fill="#fff"/><path d="m401.373 360.534h27.353v-3.855h-27.353z" fill="#ce5777"/><path d="m407.639 366.693h14.821v-3.855h-14.821z" fill="#ce5777"/><path d="m430.256 343.832h-30.53c-.9 0-1.629-.731-1.629-1.632v-20.35c0-.902.729-1.632 1.629-1.632h30.53c.9 0 1.629.73 1.629 1.632v20.35c0 .901-.729 1.632-1.629 1.632z" fill="#d86a6a"/><path d="m401.427 320.451h27.353v-2.961h-27.353z" fill="#d86a6a"/><path d="m398.565 317.49h32.841v-2.888h-32.841z" fill="#f7aa9a"/><path d="m398.097 340.01h33.788v-16.032h-33.788z" fill="#fff"/><path d="m401.368 331.304h27.353v-3.855h-27.353z" fill="#ce5777"/><path d="m407.634 337.464h14.821v-3.856h-14.821z" fill="#ce5777"/><path d="m326.609 425.102h-30.448c-1.946 0-3.586-1.456-3.818-3.392l-2.381-19.874h42.675l-2.206 19.841c-.217 1.951-1.863 3.425-3.822 3.425z" fill="#ff9b78"/><path d="m288.738 401.837h45.161v-3.482h-45.161z" fill="#d86a6a"/><path d="m330.489 421.152 1.609-14.471h-41.555l1.734 14.471z" fill="#fff"/><path d="m298.766 411.924h24.993v-2.79h-24.993z" fill="#d86a6a"/><path d="m298.766 417.271h14.12v-2.789h-14.12z" fill="#d86a6a"/><path d="m376.687 425.102h-30.447c-1.946 0-3.586-1.456-3.818-3.392l-2.381-19.874h42.674l-2.205 19.841c-.217 1.951-1.863 3.425-3.823 3.425z" fill="#ff9b78"/><path d="m338.816 401.837h45.16v-3.482h-45.16z" fill="#d86a6a"/><path d="m380.567 421.152 1.609-14.471h-41.555l1.734 14.471z" fill="#fff"/><path d="m348.844 411.924h24.993v-2.79h-24.993z" fill="#d86a6a"/><path d="m348.844 417.271h14.121v-2.789h-14.121z" fill="#d86a6a"/><path d="m426.958 425.102h-30.448c-1.946 0-3.586-1.456-3.818-3.392l-2.381-19.874h42.675l-2.206 19.841c-.217 1.951-1.863 3.425-3.822 3.425z" fill="#ff9b78"/><path d="m389.086 401.837h45.161v-3.482h-45.161z" fill="#d86a6a"/><path d="m430.838 421.152 1.609-14.471h-41.556l1.734 14.471z" fill="#fff"/><path d="m399.114 411.924h24.993v-2.79h-24.993z" fill="#d86a6a"/><path d="m399.114 417.271h14.121v-2.789h-14.121z" fill="#d86a6a"/><path d="m437.252 271.165c-2.143 0-3.881-1.74-3.881-3.886v-18.595c0-2.146 1.738-3.885 3.881-3.885s3.88 1.739 3.88 3.885v18.595c0 2.146-1.737 3.886-3.88 3.886z" fill="#d86a6a"/><path d="m446.167 193.179v-74.937h-79.612z" fill="#ecf0f1" opacity=".3"/><path d="m342.665 118.242h-17.777l121.279 114.158v-16.733z" fill="#ecf0f1" opacity=".3"/><path d="m277.44 130.177v294.925h168.726v-136.106z" fill="#ecf0f1" opacity=".3"/><path d="m479.687 319.178h-7.048c-4.184 0-7.577-3.397-7.577-7.587v-41.005h22.201v41.005c0 4.19-3.392 7.587-7.576 7.587z" fill="#fff"/><path d="m465.062 270.586h22.201l-4.563-9.163h-13.658z" fill="#fff"/><path d="m470.468 254.958h10.48v-4.754h-10.48z" fill="#912d51"/><path d="m465.063 305.529h22.2v-31.418h-22.2z" fill="#a8385b"/><path d="m471.849 254.957-2.807 6.466h13.658l-3.218-6.466z" fill="#fff"/><path d="m234.391 481.572h451.34l9.78-160.075h-471.084z" fill="#a8385b"/><path d="m699.359 342.204h-476.198c-2.083 0-3.773-1.692-3.773-3.78v-15.937c0-2.087 1.69-3.779 3.773-3.779h476.198c2.084 0 3.773 1.692 3.773 3.779v15.937c0 2.088-1.689 3.78-3.773 3.78z" fill="#912d51"/><path d="m687.104 490.815h-452.11c-1.386 0-2.51-1.126-2.51-2.514v-5.974c0-1.389 1.124-2.514 2.51-2.514h452.11c1.387 0 2.511 1.125 2.511 2.514v5.974c0 1.388-1.124 2.514-2.511 2.514z" fill="#912d51"/><path d="m688.966 483.179h-199.497c-1.508 0-2.73-1.224-2.73-2.734v-377.707c0-1.509 1.222-2.734 2.73-2.734h199.497c1.509 0 2.731 1.225 2.731 2.734v377.707c0 1.51-1.222 2.734-2.731 2.734z" fill="#db8c7f"/><path d="m708.119 483.179h-199.497c-1.508 0-2.73-1.224-2.73-2.734v-377.707c0-1.509 1.222-2.734 2.73-2.734h199.497c1.508 0 2.731 1.225 2.731 2.734v377.707c0 1.51-1.223 2.734-2.731 2.734z" fill="#f7aa9a"/><path d="m523.806 425.102h168.727v-306.86h-168.727z" fill="#ffc9bb"/><path d="m523.806 254.952h168.602v-8.16h-168.602z" fill="#f7a28d"/><path d="m523.806 207.048h168.727v-8.161h-168.727z" fill="#f7a28d"/><path d="m523.997 340.125h168.579v-8.161h-168.579z" fill="#f7a28d"/><path d="m684.28 271.374c-2.143 0-3.881-1.74-3.881-3.887v-18.594c0-2.146 1.738-3.886 3.881-3.886s3.88 1.74 3.88 3.886v18.594c0 2.147-1.737 3.887-3.88 3.887z" fill="#d86a6a"/><path d="m572.345 246.965h-30.448c-1.946 0-3.586-1.457-3.818-3.392l-2.381-19.873h42.675l-2.206 19.84c-.217 1.95-1.863 3.425-3.822 3.425z" fill="#ff9b78"/><path d="m534.474 223.7h45.16v-3.482h-45.16z" fill="#d86a6a"/><path d="m576.225 243.015 1.609-14.471h-41.556l1.735 14.471z" fill="#fff"/><path d="m544.501 233.787h24.993v-2.79h-24.993z" fill="#d86a6a"/><path d="m544.501 239.135h14.121v-2.791h-14.121z" fill="#d86a6a"/><path d="m622.423 246.965h-30.448c-1.946 0-3.586-1.457-3.818-3.392l-2.381-19.873h42.675l-2.206 19.84c-.217 1.95-1.863 3.425-3.822 3.425z" fill="#ff9b78"/><path d="m584.552 223.7h45.161v-3.482h-45.161z" fill="#d86a6a"/><path d="m626.303 243.015 1.609-14.471h-41.556l1.735 14.471z" fill="#fff"/><path d="m594.58 233.787h24.993v-2.79h-24.993z" fill="#d86a6a"/><path d="m594.58 239.135h14.121v-2.791h-14.121z" fill="#d86a6a"/><path d="m672.693 246.965h-30.447c-1.947 0-3.586-1.457-3.818-3.392l-2.381-19.873h42.674l-2.205 19.84c-.217 1.95-1.863 3.425-3.823 3.425z" fill="#ff9b78"/><path d="m634.822 223.7h45.161v-3.482h-45.161z" fill="#d86a6a"/><path d="m676.574 243.015 1.609-14.471h-41.556l1.734 14.471z" fill="#fff"/><path d="m644.85 233.787h24.993v-2.79h-24.993z" fill="#d86a6a"/><path d="m644.85 239.135h14.121v-2.791h-14.121z" fill="#d86a6a"/><path d="m569.33 198.821h-30.531c-.899 0-1.628-.731-1.628-1.631v-20.351c0-.901.729-1.631 1.628-1.631h30.531c.899 0 1.629.73 1.629 1.631v20.351c0 .9-.73 1.631-1.629 1.631z" fill="#d86a6a"/><path d="m540.501 175.441h27.352v-2.962h-27.352z" fill="#d86a6a"/><path d="m537.638 172.479h32.841v-2.888h-32.841z" fill="#f7aa9a"/><path d="m537.17 195h33.788v-16.033h-33.788z" fill="#fff"/><path d="m540.442 186.294h27.352v-3.855h-27.352z" fill="#ce5777"/><path d="m546.707 192.453h14.821v-3.856h-14.821z" fill="#ce5777"/><path d="m569.324 169.591h-30.53c-.9 0-1.629-.73-1.629-1.631v-20.351c0-.901.729-1.631 1.629-1.631h30.53c.9 0 1.629.73 1.629 1.631v20.351c0 .901-.729 1.631-1.629 1.631z" fill="#d86a6a"/><path d="m540.496 146.211h27.352v-2.962h-27.352z" fill="#d86a6a"/><path d="m537.633 143.249h32.841v-2.887h-32.841z" fill="#f7aa9a"/><path d="m537.165 165.77h33.788v-16.032h-33.788z" fill="#fff"/><path d="m540.437 157.065h27.352v-3.856h-27.352z" fill="#ce5777"/><path d="m546.702 163.223h14.821v-3.855h-14.821z" fill="#ce5777"/><path d="m624.113 198.821h-30.53c-.899 0-1.629-.731-1.629-1.631v-20.351c0-.901.73-1.631 1.629-1.631h30.53c.9 0 1.63.73 1.63 1.631v20.351c0 .9-.73 1.631-1.63 1.631z" fill="#ffedeb"/><path d="m595.285 175.441h27.353v-2.962h-27.353z" fill="#ffedeb"/><path d="m592.423 172.479h32.841v-2.888h-32.841z" fill="#ff9b78"/><path d="m591.954 195h33.788v-16.033h-33.788z" fill="#d86a6a"/><path d="m624.108 169.591h-30.53c-.9 0-1.629-.73-1.629-1.631v-20.351c0-.901.729-1.631 1.629-1.631h30.53c.9 0 1.629.73 1.629 1.631v20.351c0 .901-.729 1.631-1.629 1.631z" fill="#ffedeb"/><path d="m595.28 146.211h27.353v-2.962h-27.353z" fill="#ffedeb"/><path d="m592.417 143.249h32.841v-2.887h-32.841z" fill="#ff9b78"/><path d="m591.949 165.77h33.788v-16.032h-33.788z" fill="#d86a6a"/><path d="m677.312 198.821h-30.531c-.899 0-1.628-.731-1.628-1.631v-20.351c0-.901.729-1.631 1.628-1.631h30.531c.899 0 1.629.73 1.629 1.631v20.351c0 .9-.73 1.631-1.629 1.631z" fill="#d86a6a"/><path d="m648.483 175.441h27.352v-2.962h-27.352z" fill="#d86a6a"/><path d="m645.62 172.479h32.841v-2.888h-32.841z" fill="#f7aa9a"/><path d="m645.153 195h33.788v-16.033h-33.788z" fill="#fff"/><path d="m648.424 186.294h27.353v-3.855h-27.353z" fill="#ce5777"/><path d="m654.689 192.453h14.821v-3.856h-14.821z" fill="#ce5777"/><path d="m677.306 169.591h-30.53c-.9 0-1.629-.73-1.629-1.631v-20.351c0-.901.729-1.631 1.629-1.631h30.53c.9 0 1.629.73 1.629 1.631v20.351c0 .901-.729 1.631-1.629 1.631z" fill="#d86a6a"/><path d="m648.478 146.211h27.352v-2.962h-27.352z" fill="#d86a6a"/><path d="m645.615 143.249h32.841v-2.887h-32.841z" fill="#f7aa9a"/><path d="m645.147 165.77h33.788v-16.032h-33.788z" fill="#fff"/><path d="m648.418 157.065h27.353v-3.856h-27.353z" fill="#ce5777"/><path d="m654.685 163.223h14.82v-3.855h-14.82z" fill="#ce5777"/><path d="m550.851 424.931-10.012.014c-1.942.003-3.519-1.57-3.521-3.515l-.074-49.561c-.003-1.944 1.569-3.522 3.511-3.525l10.012-.015c1.942-.003 3.518 1.571 3.521 3.515l.073 49.561c.003 1.945-1.569 3.523-3.51 3.526z" fill="#ffedeb"/><path d="m554.351 414.94-17.043.026-.057-38.664 17.043-.025z" fill="#f7aa9a"/><path d="m548.68 373.622-5.823.009-.032-21.795 5.823-.008z" fill="#ffedeb"/><path d="m550.98 354.202-10.481.015-.007-4.754 10.481-.015z" fill="#db8c7f"/><path d="m551.041 395.613-10.48.016-.019-12.872 10.481-.015z" fill="#fff"/><path d="m551.049 401.156-10.48.016-.004-2.761 10.48-.016z" fill="#fff"/><path d="m592.057 424.931-10.012.014c-1.941.003-3.518-1.57-3.52-3.515l-.074-49.561c-.003-1.944 1.569-3.522 3.511-3.525l10.012-.015c1.941-.003 3.517 1.571 3.52 3.515l.074 49.561c.002 1.945-1.569 3.523-3.511 3.526z" fill="#ff9b78"/><path d="m595.558 414.94-17.043.026-.057-38.664 17.043-.025z" fill="#d86a6a"/><path d="m589.887 373.622-5.823.009-.033-21.795 5.824-.008z" fill="#ff9b78"/><path d="m592.186 354.202-10.48.015-.007-4.754 10.48-.015z" fill="#db8c7f"/><path d="m592.248 395.613-10.48.016-.019-12.872 10.48-.015z" fill="#fff"/><path d="m592.256 401.156-10.48.016-.005-2.761 10.481-.016z" fill="#fff"/><path d="m633.264 424.931-10.012.014c-1.942.003-3.518-1.57-3.521-3.515l-.073-49.561c-.003-1.944 1.569-3.522 3.51-3.525l10.012-.015c1.942-.003 3.518 1.571 3.521 3.515l.073 49.561c.003 1.945-1.568 3.523-3.51 3.526z" fill="#ffedeb"/><path d="m636.765 414.94-17.044.026-.057-38.664 17.044-.025z" fill="#f7aa9a"/><path d="m631.094 373.622-5.824.009-.032-21.795 5.824-.008z" fill="#ffedeb"/><path d="m633.394 354.202-10.481.015-.007-4.754 10.48-.015z" fill="#db8c7f"/><path d="m633.455 395.613-10.481.016-.019-12.872 10.481-.015z" fill="#fff"/><path d="m633.463 401.156-10.48.016-.004-2.761 10.48-.016z" fill="#fff"/><path d="m674.47 424.931-10.011.014c-1.942.003-3.519-1.57-3.521-3.515l-.074-49.561c-.003-1.944 1.569-3.522 3.511-3.525l10.012-.015c1.942-.003 3.518 1.571 3.521 3.515l.073 49.561c.003 1.945-1.569 3.523-3.511 3.526z" fill="#ff9b78"/><path d="m677.971 414.94-17.043.026-.057-38.664 17.043-.025z" fill="#d86a6a"/><path d="m672.3 373.622-5.823.009-.033-21.795 5.824-.008z" fill="#ff9b78"/><path d="m674.6 354.202-10.48.015-.007-4.754 10.48-.015z" fill="#db8c7f"/><path d="m674.661 395.613-10.48.016-.019-12.872 10.48-.015z" fill="#fff"/><path d="m674.669 401.156-10.48.016-.004-2.761 10.48-.016z" fill="#fff"/><path d="m552.528 332.412h-7.048c-4.184 0-7.576-3.397-7.576-7.587v-41.004h22.2v41.004c0 4.19-3.391 7.587-7.576 7.587z" fill="#fff"/><path d="m537.904 283.82h22.2l-4.562-9.163h-13.659z" fill="#fff"/><path d="m543.309 268.191h10.48v-4.753h-10.48z" fill="#db8c7f"/><path d="m537.905 318.763h22.2v-31.418h-22.2z" fill="#ff9b78"/><path d="m544.691 268.191-2.807 6.466h13.659l-3.219-6.466z" fill="#fff"/><path d="m588.526 332.412h-7.048c-4.184 0-7.576-3.397-7.576-7.587v-41.004h22.2v41.004c0 4.19-3.392 7.587-7.576 7.587z" fill="#fff"/><path d="m573.902 283.82h22.2l-4.563-9.163h-13.658z" fill="#fff"/><path d="m579.306 268.191h10.48v-4.753h-10.48z" fill="#db8c7f"/><path d="m573.902 318.763h22.2v-31.418h-22.2z" fill="#ff9b78"/><path d="m580.689 268.191-2.808 6.466h13.659l-3.219-6.466z" fill="#fff"/><path d="m614.688 332.389h24.13v-49.923h-24.13z" fill="#ffefee"/><path d="m628.286 266.867h-3.065l-10.532 15.599h24.129z" fill="#ff9b78"/><path d="m625.221 266.867h3.123v-5.132h-3.123z" fill="#ce5777"/><path d="m617.998 308.116h17.368v-20.771h-17.368z" fill="#ff9b78"/><path d="m617.998 315.468h17.368v-3.967h-17.368z" fill="#ff9b78"/><path d="m617.998 322.236h17.368v-3.967h-17.368z" fill="#ff9b78"/><path d="m654.511 332.389h24.13v-49.923h-24.13z" fill="#ffefee"/><path d="m668.108 266.867h-3.064l-10.533 15.599h24.13z" fill="#ff9b78"/><path d="m665.044 266.867h3.122v-5.132h-3.122z" fill="#ce5777"/><path d="m657.82 308.116h17.368v-20.771h-17.368z" fill="#ff9b78"/><path d="m657.82 315.468h17.368v-3.967h-17.368z" fill="#ff9b78"/><path d="m657.82 322.236h17.368v-3.967h-17.368z" fill="#ff9b78"/><path d="m692.549 193.185v-74.936h-79.611z" fill="#ecf0f1" opacity=".3"/><path d="m589.048 118.249h-17.778l121.279 114.157v-16.733z" fill="#ecf0f1" opacity=".3"/><path d="m523.803 129.975v294.925h168.899v-136.106z" fill="#ecf0f1" opacity=".3"/><path d="m614.022 228.85-52.121 22.902s-9.947-4.365-6.598-13.576l51.809-35.513z" fill="#ff8d54"/><path d="m585.268 397.248 20.47-1.243s14.673 11.163 0 66.819l-10.802 2.489z" fill="#592b43"/><path d="m658.683 308.694 2.094 95.999-20.746-6.384-11.598-80.097z" fill="#592b43"/><path d="m640.031 398.309 20.443-7.484s17.7 3.802 20.244 67.961l-10.233 5.814z" fill="#592b43"/><path d="m641.832 198.564-1.434-22.371-19.293 17.528-.67 5.836s9.584 13.393 21.397-.993z" fill="#ff8d54"/><path d="m615.627 192.305 5.517 1.23c1.153.257 2.358.138 3.439-.34 7.166-3.165 9.862-7.337 13.129-14.465l4.67-5.017-6.679-19.098-26.597 2.054-1.661 9.182c-.512 2.827-.434 5.73.229 8.526l3.115 13.15c.566 2.389 2.445 4.244 4.838 4.778z" fill="#ff8d54"/><path d="m615.627 192.305 5.517 1.23c1.153.257 2.358.138 3.439-.34 7.166-3.165 9.01-8.368 12.277-15.496l5.522-3.986-6.679-19.098-26.597 2.054-1.661 9.182c-.512 2.827-.434 5.73.229 8.526l3.115 13.15c.566 2.389 2.445 4.244 4.838 4.778z" fill="#ff8d54"/><path d="m634.569 164.593 1.641 9.259 5.116-2.06 1.755-6.219s3.439-19.914-8.684-22.634c0 0-2.534-.813-7.488.202 0 0-5.528.991-8.981-2.369-1.039-1.013-2.193-1.907-3.499-2.537-2.804-1.352-7.004-2.146-9.372 3.314 0 0-7.275 13.46 3.547 17.891 0 0 7.002 2.716 11.695-.893.223-.171.458-.326.715-.44.08-.036.17-.075.271-.117 6.138-2.54 11.406.223 13.284 6.603z" fill="#6a1244"/><path d="m637.228 170.873s4.245-4.76 6.689-2.072c1.217 1.339 1.214 3.386.152 4.851-1.098 1.515-3.182 3.79-7.089 6.641l-2.086-4.479" fill="#ff8d54"/><path d="m613.592 171.185-.266 9.028-5.562 1.504s4.041-9.721 5.828-10.532z" fill="#d1661e"/></g><path d="m618.064 184.74s-4.472 1.764-8.481-.198" stroke="#d1661e" stroke-linecap="round" stroke-linejoin="round" stroke-width="1.0945"/><path clip-rule="evenodd" d="m620.134 171.516c-.113.983.295 1.837.911 1.908s1.206-.668 1.319-1.652c.113-.983-.295-1.837-.911-1.908s-1.206.668-1.319 1.652z" fill="#592b43" fill-rule="evenodd"/><path clip-rule="evenodd" d="m608.205 170.142c-.113.984.173 1.824.637 1.877.464.054.933-.7 1.045-1.683.113-.983-.172-1.824-.636-1.877-.465-.054-.933.7-1.046 1.683z" fill="#592b43" fill-rule="evenodd"/><path d="m620.744 166.183s2.589 1.902 4.611 1.81" stroke="#592b43" stroke-linecap="round" stroke-linejoin="round" stroke-width="1.5"/><path d="m610.818 164.896s-1.66-1.399-3.03-.171" stroke="#592b43" stroke-linecap="round" stroke-linejoin="round" stroke-width="1.5"/><path clip-rule="evenodd" d="m620.435 199.557s9.402 11.543 21.397-.993l20.989 9.103-5.253 59.034 5.253 40.914s-47.274 26.302-63.616 8.768l3.459-55.896 4.448-57.824z" fill="#96b6ec" fill-rule="evenodd"/><path clip-rule="evenodd" d="m628.812 320.836-26.531 87.771-17.013-11.358 13.937-80.866z" fill="#592b43" fill-rule="evenodd"/><path clip-rule="evenodd" d="m613.672 216.938h36.024l17.901 149.764s-44.567 9.388-80.123-4.207z" fill="#ce5777" fill-rule="evenodd"/><path clip-rule="evenodd" d="m662.665 207.668 21.433 60.776s-4.788 6.816-12.997 1.478l-11.496-26.497z" fill="#ff8d54" fill-rule="evenodd"/><path d="m632.353 189.319s-4.407 4.654-12.308 4.058" stroke="#d1661e" stroke-linecap="round" stroke-linejoin="round" stroke-width="1.0945"/><path d="m642.382 172.579s-1.187-3.338-3.882.568" stroke="#d1661e" stroke-linecap="round" stroke-linejoin="round" stroke-width="1.0945"/><path clip-rule="evenodd" d="m640.441 146.978s8.07-3.39 6.402 4.074l-4.163 15.944-3.401-11.448" fill="#6a1244" fill-rule="evenodd"/><path d="m641.18 177.164s-2.709 3.334-5.36 1.717" stroke="#d1661e" stroke-linecap="round" stroke-linejoin="round" stroke-width="1.0945"/><path clip-rule="evenodd" d="m605.738 462.824v15.894s-28.2 17.144-36.527 9.267c0 0 12.357-11.985 25.725-22.672z" fill="#592b43" fill-rule="evenodd"/><path clip-rule="evenodd" d="m680.665 457.869 3.75 15.444s-23.355 23.332-33.305 17.649c0 0 9.179-14.57 19.646-28.118z" fill="#592b43" fill-rule="evenodd"/><path clip-rule="evenodd" d="m561.883 234.676s-33.323-15.73-52.957-17.794l1.959 9.797 50.534 25.073z" fill="#ff8d54" fill-rule="evenodd"/><path clip-rule="evenodd" d="m635.089 283.851s-17.335 2.421-13.836 4.239c0 0 8.076-.891 4.353 1.021 0 0-27.075 12.044-10.285 9.104 0 0 15.575.21 22.198-5.581z" fill="#ff8d54" fill-rule="evenodd"/><path clip-rule="evenodd" d="m683.166 265.799s-20.874 3.323-50.333 18.759l4.686 8.076 49.299-16.376z" fill="#ff8d54" fill-rule="evenodd"/><path clip-rule="evenodd" d="m607.111 202.663-28.279 19.385 7.061 21.324 18.816-9.478" fill="#96b6ec" fill-rule="evenodd"/><path clip-rule="evenodd" d="m662.666 207.668 13.785 35.757-12.628 16.094-5.08-6.027z" fill="#96b6ec" fill-rule="evenodd"/><path clip-rule="evenodd" d="m612.259 201.463 4.822-1.124.983 17.55-4.24.706z" fill="#ce5777" fill-rule="evenodd"/><path clip-rule="evenodd" d="m651.01 202.545-4.732-2.053-.973 17.397 4.24.706z" fill="#ce5777" fill-rule="evenodd"/><path clip-rule="evenodd" d="m618.064 228.846 27.241.612.775 20.352-30.101-.765z" fill="#a8385b" fill-rule="evenodd"/><path clip-rule="evenodd" d="m516.083 265.887-10.743 1.884c-2.084.365-4.069-1.031-4.434-3.117l-9.296-53.181c-.365-2.087 1.028-4.075 3.111-4.44l10.744-1.884c2.084-.365 4.068 1.03 4.433 3.117l9.297 53.182c.365 2.086-1.029 4.074-3.112 4.439z" fill="#ce5777" fill-rule="evenodd"/><path clip-rule="evenodd" d="m517.982 254.51-18.289 3.207-7.252-41.488 18.288-3.208z" fill="#912d51" fill-rule="evenodd"/><path clip-rule="evenodd" d="m504.21 211.22-6.249 1.095-4.088-23.386 6.249-1.096z" fill="#ce5777" fill-rule="evenodd"/><path clip-rule="evenodd" d="m503.066 189.946-11.246 1.971-.892-5.101 11.246-1.972z" fill="#a8385b" fill-rule="evenodd"/><path clip-rule="evenodd" d="m510.835 234.384-11.246 1.972-2.415-13.813 11.246-1.971z" fill="#fff" fill-rule="evenodd"/><path clip-rule="evenodd" d="m511.874 240.332-11.246 1.971-.517-2.962 11.246-1.973z" fill="#fff" fill-rule="evenodd"/><path clip-rule="evenodd" d="m490.597 210.717s19.693 2.525 2.254 10.589c0 0-4.171-5.854-2.254-10.589z" fill="#ff8d54" fill-rule="evenodd"/><path clip-rule="evenodd" d="m531.778 321.584h107.403v-43.175h-107.403z" fill="#912d51" fill-rule="evenodd"/><path clip-rule="evenodd" d="m530.354 280.405h110.386v-4.64h-110.386z" fill="#6d203f" fill-rule="evenodd"/><path clip-rule="evenodd" d="m586.003 264.342h-44.471c-2.021 0-3.661 1.641-3.661 3.665v10.078h51.793v-10.078c0-2.024-1.639-3.665-3.661-3.665z" fill="#6d203f" fill-rule="evenodd"/><path clip-rule="evenodd" d="m555.793 264.342h4.133v-11.256h-4.133z" fill="#912d51" fill-rule="evenodd"/><path clip-rule="evenodd" d="m537.871 253.086h39.295v-10.586h-39.295z" fill="#6d203f" fill-rule="evenodd"/><path clip-rule="evenodd" d="m271.84 481.572h451.34l9.781-160.075h-471.085z" fill="#ff9b78" fill-rule="evenodd"/><path clip-rule="evenodd" d="m538.605 321.584h107.403v-43.175h-107.403z" fill="#a8385b" fill-rule="evenodd"/><path clip-rule="evenodd" d="m736.808 342.204h-476.197c-2.084 0-3.773-1.692-3.773-3.78v-15.937c0-2.087 1.689-3.779 3.773-3.779h476.197c2.084 0 3.774 1.692 3.774 3.779v15.937c0 2.088-1.69 3.78-3.774 3.78z" fill="#d86a6a" fill-rule="evenodd"/><path clip-rule="evenodd" d="m724.391 490.815h-452.11c-1.386 0-2.51-1.126-2.51-2.514v-5.974c0-1.389 1.124-2.514 2.51-2.514h452.11c1.386 0 2.511 1.125 2.511 2.514v5.974c0 1.388-1.125 2.514-2.511 2.514z" fill="#d86a6a" fill-rule="evenodd"/><path clip-rule="evenodd" d="m537.181 280.405h110.386v-4.64h-110.386z" fill="#912d51" fill-rule="evenodd"/><path clip-rule="evenodd" d="m592.831 264.342h-44.471c-2.022 0-3.661 1.641-3.661 3.665v10.078h51.792v-10.078c0-2.024-1.638-3.665-3.66-3.665z" fill="#912d51" fill-rule="evenodd"/><path clip-rule="evenodd" d="m562.621 264.342h4.133v-11.256h-4.133z" fill="#912d51" fill-rule="evenodd"/><path clip-rule="evenodd" d="m544.699 253.086h39.294v-10.586h-39.294z" fill="#912d51" fill-rule="evenodd"/><path clip-rule="evenodd" d="m547.923 250.204h32.847v-4.822h-32.847z" fill="#ffc9bb" fill-rule="evenodd"/><path clip-rule="evenodd" d="m427.419 318.708h-30.448c-1.946 0-3.586-1.457-3.818-3.393l-2.381-19.873h42.675l-2.206 19.84c-.217 1.951-1.863 3.426-3.822 3.426z" fill="#d33c3c" fill-rule="evenodd"/><path clip-rule="evenodd" d="m434.708 295.442h-45.16l-.66-3.482h45.82z" fill="#6a1244" fill-rule="evenodd"/><path clip-rule="evenodd" d="m431.299 314.758 1.609-14.472h-41.556l1.735 14.472z" fill="#a8385b" fill-rule="evenodd"/><path clip-rule="evenodd" d="m430.988 318.708h-30.448c-1.946 0-3.586-1.457-3.818-3.393l-2.381-19.873h42.675l-2.206 19.84c-.217 1.951-1.863 3.426-3.822 3.426z" fill="#f15652" fill-rule="evenodd"/><path clip-rule="evenodd" d="m438.277 295.442h-44.426l-.734-3.482h46.13z" fill="#773869" fill-rule="evenodd"/><path clip-rule="evenodd" d="m434.868 314.758 1.609-14.472h-41.556l1.734 14.472z" fill="#fff" fill-rule="evenodd"/><path clip-rule="evenodd" d="m403.145 305.529h24.993v-2.79h-24.993z" fill="#b55e77" fill-rule="evenodd"/><path clip-rule="evenodd" d="m403.144 310.877h14.121v-2.79h-14.121z" fill="#b55e77" fill-rule="evenodd"/><path clip-rule="evenodd" d="m427.419 291.96h-30.448c-1.946 0-3.586-1.457-3.818-3.393l-2.381-19.873h42.675l-2.206 19.841c-.217 1.95-1.863 3.425-3.822 3.425z" fill="#d33c3c" fill-rule="evenodd"/><path clip-rule="evenodd" d="m434.708 268.694h-45.16l-.66-3.482h45.82z" fill="#6a1244" fill-rule="evenodd"/><path clip-rule="evenodd" d="m431.299 288.01 1.609-14.471h-41.556l1.735 14.471z" fill="#a8385b" fill-rule="evenodd"/><path clip-rule="evenodd" d="m430.988 291.96h-30.448c-1.946 0-3.586-1.457-3.818-3.393l-2.381-19.873h42.675l-2.206 19.841c-.217 1.95-1.863 3.425-3.822 3.425z" fill="#f15652" fill-rule="evenodd"/><path clip-rule="evenodd" d="m438.277 268.694h-44.426l-.734-3.482h46.13z" fill="#773869" fill-rule="evenodd"/><path clip-rule="evenodd" d="m434.868 288.01 1.609-14.471h-41.556l1.734 14.471z" fill="#fff" fill-rule="evenodd"/><path clip-rule="evenodd" d="m403.145 278.782h24.993v-2.79h-24.993z" fill="#b55e77" fill-rule="evenodd"/><path clip-rule="evenodd" d="m403.144 284.13h14.121v-2.79h-14.121z" fill="#b55e77" fill-rule="evenodd"/><path clip-rule="evenodd" d="m484.286 318.708h-7.121c-4.164 0-7.54-3.381-7.54-7.551v-40.571h22.2v40.571c0 4.17-3.375 7.551-7.539 7.551z" fill="#fff" fill-rule="evenodd"/><path clip-rule="evenodd" d="m469.625 270.586h22.2l-4.562-9.163h-13.659z" fill="#fff" fill-rule="evenodd"/><path clip-rule="evenodd" d="m475.03 254.958h10.48v-4.754h-10.48z" fill="#a8385b" fill-rule="evenodd"/><path clip-rule="evenodd" d="m469.625 305.529h22.2v-31.418h-22.2z" fill="#ce5777" fill-rule="evenodd"/><path clip-rule="evenodd" d="m476.412 254.957-2.808 6.466h13.659l-3.219-6.466z" fill="#fff" fill-rule="evenodd"/><path clip-rule="evenodd" d="m369.647 315.954h-50.618l-.724-6.722h51.901z" fill="#a8385b" fill-rule="evenodd"/><path clip-rule="evenodd" d="m327.44 318.708h-6.994l-.481-4.823h7.952z" fill="#a8385b" fill-rule="evenodd"/><path clip-rule="evenodd" d="m341.055 318.708h-6.994l-.481-4.823h7.951z" fill="#a8385b" fill-rule="evenodd"/><path clip-rule="evenodd" d="m354.669 318.708h-6.994l-.481-4.823h7.951z" fill="#a8385b" fill-rule="evenodd"/><path clip-rule="evenodd" d="m368.283 318.708h-6.994l-.481-4.823h7.952z" fill="#a8385b" fill-rule="evenodd"/><path clip-rule="evenodd" d="m370.697 309.233h-52.564c-.811 0-1.468-.658-1.468-1.47v-10.41c0-3.182 2.576-5.761 5.753-5.761h43.993c3.177 0 5.753 2.579 5.753 5.761v10.41c0 .812-.657 1.47-1.467 1.47z" fill="#912d51" fill-rule="evenodd"/><path clip-rule="evenodd" d="m372.53 315.954h-50.617l-.724-6.722h51.901z" fill="#ce5777" fill-rule="evenodd"/><path clip-rule="evenodd" d="m330.324 318.708h-6.994l-.481-4.823h7.951z" fill="#ce5777" fill-rule="evenodd"/><path clip-rule="evenodd" d="m343.938 318.708h-6.994l-.481-4.823h7.952z" fill="#ce5777" fill-rule="evenodd"/><path clip-rule="evenodd" d="m357.552 318.708h-6.994l-.481-4.823h7.952z" fill="#ce5777" fill-rule="evenodd"/><path clip-rule="evenodd" d="m371.167 318.708h-6.994l-.481-4.823h7.951z" fill="#ce5777" fill-rule="evenodd"/><path clip-rule="evenodd" d="m373.58 309.233h-52.564c-.81 0-1.467-.658-1.467-1.47v-10.41c0-3.182 2.576-5.761 5.753-5.761h43.993c3.177 0 5.753 2.579 5.753 5.761v10.41c0 .812-.658 1.47-1.468 1.47z" fill="#a8385b" fill-rule="evenodd"/><path clip-rule="evenodd" d="m331.207 309.232c-.088-3.049-2.013-5.487-4.383-5.487-2.368 0-4.294 2.438-4.381 5.487z" fill="#fff" fill-rule="evenodd"/><path clip-rule="evenodd" d="m344.821 309.232c-.088-3.049-2.013-5.487-4.383-5.487-2.368 0-4.294 2.438-4.382 5.487z" fill="#fff" fill-rule="evenodd"/><path clip-rule="evenodd" d="m358.029 309.232c-.088-3.049-2.014-5.487-4.383-5.487s-4.294 2.438-4.382 5.487z" fill="#fff" fill-rule="evenodd"/><path clip-rule="evenodd" d="m372.05 309.232c-.088-3.049-2.014-5.487-4.383-5.487s-4.294 2.438-4.382 5.487z" fill="#fff" fill-rule="evenodd"/><path clip-rule="evenodd" d="m544.699 291.592h95.213v-6.93h-95.213z" fill="#912d51" fill-rule="evenodd"/><path clip-rule="evenodd" d="m478.086 128.884h-159.934c-1.205 0-2.182-.978-2.182-2.185v-56.4625c0-1.2068.977-2.1852 2.182-2.1852h159.934c1.205 0 2.182.9784 2.182 2.1852v56.4625c0 1.207-.977 2.185-2.182 2.185z" fill="#fff" fill-rule="evenodd"/><path clip-rule="evenodd" d="m478.086 198.349h-159.934c-1.205 0-2.182-.978-2.182-2.185v-56.462c0-1.207.977-2.186 2.182-2.186h159.934c1.205 0 2.182.979 2.182 2.186v56.462c0 1.207-.977 2.185-2.182 2.185z" fill="#fff" fill-rule="evenodd"/><path clip-rule="evenodd" d="m360.546 180.972h-26.519c-.782 0-1.415-.635-1.415-1.417v-17.677c0-.783.633-1.418 1.415-1.418h26.519c.781 0 1.415.635 1.415 1.418v17.677c0 .782-.634 1.417-1.415 1.417z" fill="#ce5777" fill-rule="evenodd"/><path clip-rule="evenodd" d="m335.504 160.663h23.759v-2.573h-23.759z" fill="#ce5777" fill-rule="evenodd"/><path clip-rule="evenodd" d="m333.019 158.091h28.525v-2.508h-28.525z" fill="#f7aa9a" fill-rule="evenodd"/><path clip-rule="evenodd" d="m332.612 177.653h29.349v-13.926h-29.349z" fill="#ffc9bb" fill-rule="evenodd"/><path clip-rule="evenodd" d="m335.453 170.091h23.759v-3.349h-23.759z" fill="#fff" fill-rule="evenodd"/><path clip-rule="evenodd" d="m340.896 175.441h12.873v-3.35h-12.873z" fill="#fff" fill-rule="evenodd"/><path clip-rule="evenodd" d="m350.42 123.431-6.377-.018c-1.237-.003-2.237-1.01-2.233-2.248l.086-31.5688c.004-1.2388 1.009-2.2403 2.245-2.2368l6.378.0175c1.237.0035 2.237 1.0105 2.233 2.2488l-.086 31.5683c-.004 1.239-1.009 2.24-2.246 2.237z" fill="#ce5777" fill-rule="evenodd"/><path clip-rule="evenodd" d="m352.677 117.076-10.856-.03.068-24.6268 10.856.0295z" fill="#912d51" fill-rule="evenodd"/><path clip-rule="evenodd" d="m349.176 90.7426-3.709-.0105.037-13.8815 3.71.0095z" fill="#ce5777" fill-rule="evenodd"/><path clip-rule="evenodd" d="m350.693 78.3788-6.676-.0185.008-3.028 6.676.0185z" fill="#912d51" fill-rule="evenodd"/><path clip-rule="evenodd" d="m350.621 104.757-6.676-.018.023-8.199 6.675.0181z" fill="#fff" fill-rule="evenodd"/><path clip-rule="evenodd" d="m350.611 108.288-6.676-.018.005-1.759 6.676.018z" fill="#fff" fill-rule="evenodd"/><path clip-rule="evenodd" d="m373.09 88.4748h92.701v-9.4746h-92.701z" fill="#f7aa9a" fill-rule="evenodd"/><path clip-rule="evenodd" d="m373.09 102.168h32.605v-9.4749h-32.605z" fill="#f7aa9a" fill-rule="evenodd"/><path clip-rule="evenodd" d="m373.09 157.054h92.701v-9.474h-92.701z" fill="#f7aa9a" fill-rule="evenodd"/><path clip-rule="evenodd" d="m373.09 170.747h32.605v-9.474h-32.605z" fill="#f7aa9a" fill-rule="evenodd"/><path clip-rule="evenodd" d="m375.185 109.244h-1.544v-2.116h4.046v10.853h-2.502z" fill="#d86a6a" fill-rule="evenodd"/><path clip-rule="evenodd" d="m383.536 114.028-2.876-3.303h2.99l1.349 1.675 1.348-1.675h2.99l-2.876 3.303 3.542 3.954h-3.022l-1.982-2.343-1.983 2.343h-3.022z" fill="#d86a6a" fill-rule="evenodd"/><path clip-rule="evenodd" d="m375.185 177.1h-1.544v-2.116h4.046v10.853h-2.502z" fill="#d86a6a" fill-rule="evenodd"/><path clip-rule="evenodd" d="m383.536 181.883-2.876-3.303h2.99l1.349 1.676 1.348-1.676h2.99l-2.876 3.303 3.542 3.954h-3.022l-1.982-2.343-1.983 2.343h-3.022z" fill="#d86a6a" fill-rule="evenodd"/><path clip-rule="evenodd" d="m703.132 427.043h-414.394l-4.318-68.174h423.655z" fill="#d86a6a" fill-rule="evenodd"/></svg>