<svg fill="none" height="560" viewBox="0 0 960 560" width="960" xmlns="http://www.w3.org/2000/svg"><path d="m0 0h960v560h-960z" fill="#ce5777"/><path clip-rule="evenodd" d="m668.877 442.222h-22.855c-2.665 0-4.825-2.163-4.825-4.832v-24.302c0-2.669 2.16-4.832 4.825-4.832h22.855c2.665 0 4.825 2.163 4.825 4.832v24.302c0 2.669-2.16 4.832-4.825 4.832z" fill="#6a1244" fill-rule="evenodd"/><path clip-rule="evenodd" d="m588.709 466.784h61.876v-8.168h-61.876z" fill="#962c52" fill-rule="evenodd"/><path clip-rule="evenodd" d="m592.61 502.121h53.562v-35.336h-53.562z" fill="#6d1f3f" fill-rule="evenodd"/><path clip-rule="evenodd" d="m596.06 466.784h61.875v-8.168h-61.875z" fill="#a8385b" fill-rule="evenodd"/><path clip-rule="evenodd" d="m599.96 502.121h53.562v-35.336h-53.562z" fill="#962c52" fill-rule="evenodd"/><path clip-rule="evenodd" d="m516.419 466.784h64.875v-8.168h-64.875z" fill="#962c52" fill-rule="evenodd"/><path clip-rule="evenodd" d="m520.32 502.121h53.561v-35.336h-53.561z" fill="#6d1f3f" fill-rule="evenodd"/><path clip-rule="evenodd" d="m523.769 466.784h61.876v-8.168h-61.876z" fill="#a8385b" fill-rule="evenodd"/><path clip-rule="evenodd" d="m527.67 502.121h53.561v-35.336h-53.561z" fill="#962c52" fill-rule="evenodd"/><path clip-rule="evenodd" d="m661.539 466.784h64.875v-8.168h-64.875z" fill="#962c52" fill-rule="evenodd"/><path clip-rule="evenodd" d="m665.44 502.121h56.561v-35.336h-56.561z" fill="#6d1f3f" fill-rule="evenodd"/><path clip-rule="evenodd" d="m668.889 466.784h61.876v-8.168h-61.876z" fill="#a8385b" fill-rule="evenodd"/><path clip-rule="evenodd" d="m672.79 502.121h53.562v-35.336h-53.562z" fill="#962c52" fill-rule="evenodd"/><path clip-rule="evenodd" d="m196.753 303.462h173.433v-214.5706h-173.433z" fill="#6d1f3f" fill-rule="evenodd"/><path clip-rule="evenodd" d="m204.015 303.462h173.434v-214.5706h-173.434z" fill="#a8385b" fill-rule="evenodd"/><path clip-rule="evenodd" d="m214.664 290.369h150.219v-189.705h-150.219z" fill="#bc486c" fill-rule="evenodd"/><path clip-rule="evenodd" d="m224.857 281.045h129.313v-171.717h-129.313z" fill="#a8385b" fill-rule="evenodd"/><path clip-rule="evenodd" d="m310.108 194.677h-41.548c-17.171 0-31.091 13.94-31.091 31.137v10.091h103.731v-10.091c0-17.197-13.921-31.137-31.092-31.137z" fill="#ce5777" fill-rule="evenodd"/><path clip-rule="evenodd" d="m307.303 202.874c0 2.324-1.881 4.207-4.201 4.207-2.321 0-4.203-1.883-4.203-4.207 0-2.325 1.882-4.208 4.203-4.208 2.32 0 4.201 1.883 4.201 4.208z" fill="#bc486c" fill-rule="evenodd"/><path clip-rule="evenodd" d="m305.996 202.869c0 1.601-1.296 2.899-2.894 2.899-1.599 0-2.895-1.298-2.895-2.899s1.296-2.899 2.895-2.899c1.598 0 2.894 1.298 2.894 2.899z" fill="#962c52" fill-rule="evenodd"/><path clip-rule="evenodd" d="m354.17 220.795c-12.064 2.89-15.121 10.974-32.194 10.974-20.781 0-20.781-11.989-41.564-11.989-20.782 0-20.782 11.989-41.565 11.989-5.628 0-10.093-1.344-13.99-3.165v52.441h129.313z" fill="#962c52" fill-rule="evenodd"/><path clip-rule="evenodd" d="m607.764 442.222h18.147v-42.043h-18.147z" fill="#962c52" fill-rule="evenodd"/><path clip-rule="evenodd" d="m623.796 384.057h-13.918c-1.168 0-2.114.949-2.114 2.118v14.003h18.147v-14.003c0-1.169-.947-2.118-2.115-2.118z" fill="#6a1244" fill-rule="evenodd"/><path clip-rule="evenodd" d="m580.173 442.222h18.147v-42.043h-18.147z" fill="#962c52" fill-rule="evenodd"/><path clip-rule="evenodd" d="m596.206 384.057h-13.919c-1.167 0-2.114.949-2.114 2.118v14.003h18.147v-14.003c0-1.169-.947-2.118-2.114-2.118z" fill="#6a1244" fill-rule="evenodd"/><path clip-rule="evenodd" d="m543.356 410.516s-9.531-25.574 14.532-37.274c1.347-.655 2.926-.797 4.299-.202 3.7 1.605 6.889 8.505-18.831 37.476z" fill="#a8385b" fill-rule="evenodd"/><path d="m543.31 398.399s-3.242 33.345 5.866 41.137" stroke="#a8385b" stroke-width="3"/><path clip-rule="evenodd" d="m543.181 429.205s3.642-16.07-12.291-20.794c-.891-.265-1.882-.203-2.679.277-2.149 1.295-3.515 5.688 14.97 20.517z" fill="#a8385b" fill-rule="evenodd"/><path clip-rule="evenodd" d="m611.557 442.222h18.147v-42.043h-18.147z" fill="#bc486c" fill-rule="evenodd"/><path clip-rule="evenodd" d="m627.59 384.057h-13.918c-1.168 0-2.115.949-2.115 2.118v14.003h18.147v-14.003c0-1.169-.946-2.118-2.114-2.118z" fill="#a8385b" fill-rule="evenodd"/><path clip-rule="evenodd" d="m624.465 425.663h2.877v-22.832h-2.877z" fill="#ce5777" fill-rule="evenodd"/><path clip-rule="evenodd" d="m624.465 429.664h2.892v-2.56h-2.892z" fill="#ce5777" fill-rule="evenodd"/><path clip-rule="evenodd" d="m624.465 432.166h2.892v-1.035h-2.892z" fill="#ce5777" fill-rule="evenodd"/><path clip-rule="evenodd" d="m501.084 449.903h238.846v-7.681h-238.846z" fill="#962c52" fill-rule="evenodd"/><path clip-rule="evenodd" d="m562.324 398.399h-32.539c-2.944 0-5.329 2.389-5.329 5.337v33.149c0 2.948 2.385 5.337 5.329 5.337h32.539c2.944 0 5.329-2.389 5.329-5.337v-33.149c0-2.948-2.385-5.337-5.329-5.337z" fill="#fff" fill-rule="evenodd"/><path clip-rule="evenodd" d="m533.144 398.399h25.784v-3.947h-25.784z" fill="#fff" fill-rule="evenodd"/><path clip-rule="evenodd" d="m529.232 394.452h33.785v-2.334h-33.785z" fill="#fff" fill-rule="evenodd"/><path clip-rule="evenodd" d="m583.966 442.222h18.148v-42.043h-18.148z" fill="#bc486c" fill-rule="evenodd"/><path clip-rule="evenodd" d="m599.999 384.057h-13.918c-1.168 0-2.114.949-2.114 2.118v14.003h18.147v-14.003c0-1.169-.947-2.118-2.115-2.118z" fill="#a8385b" fill-rule="evenodd"/><path clip-rule="evenodd" d="m596.874 425.663h2.878v-22.832h-2.878z" fill="#ce5777" fill-rule="evenodd"/><path clip-rule="evenodd" d="m596.875 429.664h2.892v-2.56h-2.892z" fill="#ce5777" fill-rule="evenodd"/><path clip-rule="evenodd" d="m596.874 432.166h2.892v-1.035h-2.892z" fill="#ce5777" fill-rule="evenodd"/><path clip-rule="evenodd" d="m430.703 313.064h327.528v-8.217h-327.528z" fill="#6d1f3f" fill-rule="evenodd"/><path clip-rule="evenodd" d="m435.93 308.532h8.205v-215.5318h-8.205z" fill="#6d1f3f" fill-rule="evenodd"/><path clip-rule="evenodd" d="m430.703 93.0001h327.528v-8.2171h-327.528z" fill="#6d1f3f" fill-rule="evenodd"/><path clip-rule="evenodd" d="m441.325 305.212h316.163v-216.3206h-316.163z" fill="#d36e97" fill-rule="evenodd"/><path clip-rule="evenodd" d="m436.045 313.064h327.527v-8.217h-327.527z" fill="#a8385b" fill-rule="evenodd"/><path clip-rule="evenodd" d="m592.496 93h8.205v211.824h-8.205" fill="#6d1f3f" fill-rule="evenodd"/><path clip-rule="evenodd" d="m441.272 308.532h8.205v-215.5318h-8.205z" fill="#a8385b" fill-rule="evenodd"/><path clip-rule="evenodd" d="m749.57 308.532h8.205v-215.5318h-8.205z" fill="#a8385b" fill-rule="evenodd"/><path clip-rule="evenodd" d="m436.045 93.0001h327.527v-8.2171h-327.527z" fill="#a8385b" fill-rule="evenodd"/><path clip-rule="evenodd" d="m597.956 93h8.205v215.532h-8.205" fill="#a8385b" fill-rule="evenodd"/><path clip-rule="evenodd" d="m592.496 174.812v-81.6348h-88.978z" fill="#ecf0f1" fill-rule="evenodd" opacity=".3"/><path clip-rule="evenodd" d="m476.817 93.177h-19.869l135.548 124.361v-18.229z" fill="#ecf0f1" fill-rule="evenodd" opacity=".3"/><path clip-rule="evenodd" d="m449.478 149.184v155.663h142.881v-24.706z" fill="#ecf0f1" fill-rule="evenodd" opacity=".3"/><path clip-rule="evenodd" d="m749.326 174.812v-81.6348h-88.977z" fill="#ecf0f1" fill-rule="evenodd" opacity=".3"/><path clip-rule="evenodd" d="m633.648 93.177h-19.868l135.546 124.361v-18.229z" fill="#ecf0f1" fill-rule="evenodd" opacity=".3"/><path clip-rule="evenodd" d="m606.308 149.184v155.663h142.882v-24.706z" fill="#ecf0f1" fill-rule="evenodd" opacity=".3"/><path d="m547.794 84.783s-40.907 35.144-101.664 0" stroke="#f2bdd2" stroke-width="1.4425"/><path clip-rule="evenodd" d="m457.181 94.1139v-.002c0-2.0716-1.677-3.7506-3.745-3.7506-2.069 0-3.745 1.679-3.745 3.7506v.0005c0 2.701-.812 5.3103-2.154 7.6526-.544.949-.866 2.041-.894 3.207-.091 3.669 2.866 6.832 6.528 6.972 3.873.147 7.061-2.954 7.061-6.801 0-1.289-.359-2.493-.981-3.521-1.37-2.2604-2.07-4.8637-2.07-7.5081z" fill="#e897bb" fill-rule="evenodd"/><path clip-rule="evenodd" d="m456.105 91.5204h-5.337v-3.9418c0-.7746.627-1.4026 1.401-1.4026h2.535c.773 0 1.401.628 1.401 1.4026z" fill="#6a1244" fill-rule="evenodd"/><path clip-rule="evenodd" d="m454.598 86.6768h-2.324v-1.717c0-.3375.273-.6109.61-.6109h1.104c.337 0 .61.2734.61.6109z" fill="#6a1244" fill-rule="evenodd"/><path clip-rule="evenodd" d="m508.409 108.307v-.002c0-2.071-1.677-3.75-3.745-3.75s-3.745 1.679-3.745 3.75c0 2.702-.812 5.311-2.154 7.654-.543.949-.865 2.04-.894 3.207-.091 3.668 2.866 6.831 6.528 6.971 3.874.148 7.061-2.954 7.061-6.8 0-1.29-.359-2.494-.981-3.521-1.37-2.261-2.07-4.864-2.07-7.509z" fill="#e897bb" fill-rule="evenodd"/><path clip-rule="evenodd" d="m507.333 105.714h-5.337v-3.942c0-.775.627-1.403 1.401-1.403h2.535c.774 0 1.401.628 1.401 1.403z" fill="#6a1244" fill-rule="evenodd"/><path clip-rule="evenodd" d="m505.827 100.869h-2.325v-1.7166c0-.3375.273-.6104.61-.6104h1.104c.337 0 .611.2729.611.6104z" fill="#6a1244" fill-rule="evenodd"/><path clip-rule="evenodd" d="m466.38 332.449h97.298c3.999 0 7.24-3.246 7.24-7.25v-149.261c0-4.004-3.241-7.25-7.24-7.25h-97.298c-3.999 0-7.24 3.246-7.24 7.25v149.261c0 4.004 3.241 7.25 7.24 7.25z" fill-rule="evenodd" stroke="#a8385b" stroke-width="3.75"/><path d="m570.919 186.74h-111.779" stroke="#a8385b" stroke-width="3.75"/><path d="m551.74 332.118v-164.385" stroke="#a8385b" stroke-width="3.75"/><path d="m533.365 332.118v-164.385" stroke="#a8385b" stroke-width="3.75"/><path d="m514.99 332.118v-164.385" stroke="#a8385b" stroke-width="3.75"/><path d="m496.614 332.118v-164.385" stroke="#a8385b" stroke-width="3.75"/><path d="m478.239 332.118v-164.385" stroke="#a8385b" stroke-width="3.75"/><path d="m570.919 205.697h-111.779" stroke="#a8385b" stroke-width="3.75"/><path clip-rule="evenodd" d="m483.246 213.723h17.851v-23.5h-17.851z" fill="#f2bdd2" fill-rule="evenodd"/><path clip-rule="evenodd" d="m486.134 208.423h12.056v-15.143h-12.056z" fill="#bc486c" fill-rule="evenodd"/><path clip-rule="evenodd" d="m487.637 191.403h9.027v-3.852h-9.027z" fill="#6a1244" fill-rule="evenodd"/><path clip-rule="evenodd" d="m490.518 188.276h3.138v-2.674c0-.867-.704-1.572-1.569-1.572-.866 0-1.569.705-1.569 1.572zm4.638 1.502h-6.138v-4.177c0-1.695 1.377-3.074 3.069-3.074s3.069 1.379 3.069 3.074z" fill="#6a1244" fill-rule="evenodd"/><path d="m570.919 224.654h-111.779" stroke="#a8385b" stroke-width="3.75"/><path d="m570.919 243.61h-111.779" stroke="#a8385b" stroke-width="3.75"/><path d="m570.919 262.567h-111.779" stroke="#a8385b" stroke-width="3.75"/><path d="m570.919 281.523h-111.779" stroke="#a8385b" stroke-width="3.75"/><path clip-rule="evenodd" d="m487.604 289.958h17.851v-23.501h-17.851z" fill="#f2bdd2" fill-rule="evenodd"/><path clip-rule="evenodd" d="m490.492 284.658h12.056v-15.144h-12.056z" fill="#bc486c" fill-rule="evenodd"/><path clip-rule="evenodd" d="m491.995 267.636h9.027v-3.851h-9.027z" fill="#6a1244" fill-rule="evenodd"/><path clip-rule="evenodd" d="m494.876 264.509h3.138v-2.674c0-.867-.704-1.572-1.569-1.572-.866 0-1.569.705-1.569 1.572zm4.638 1.502h-6.138v-4.176c0-1.696 1.377-3.074 3.069-3.074s3.069 1.378 3.069 3.074z" fill="#6a1244" fill-rule="evenodd"/><path d="m570.919 300.48h-111.779" stroke="#a8385b" stroke-width="3.75"/><path d="m570.919 319.437h-111.779" stroke="#a8385b" stroke-width="3.75"/><g clip-rule="evenodd" fill-rule="evenodd"><path d="m623.123 318.901c.106.477-.194.95-.671 1.056-.476.106-.948-.194-1.054-.671l-.369-1.66c-.106-.477.194-.95.67-1.056.477-.106.949.195 1.055.672zm-8.037-21.468 5.055 22.734c.28 1.258 1.526 2.052 2.782 1.771 1.256-.28 2.048-1.527 1.769-2.785l-5.056-22.735z" fill="#962c52"/><path d="m630.722 282.652c.026-.488.442-.863.929-.837s.861.442.835.931l-.089 1.697c-.026.488-.442.863-.929.837s-.861-.442-.836-.93zm1.984 22.841 1.228-23.258c.068-1.288-.919-2.387-2.205-2.455-1.285-.068-2.382.921-2.451 2.208l-1.228 23.259z" fill="#962c52"/><path d="m618.853 280.625c-.093-.48.219-.945.698-1.038.478-.095.942.218 1.036.698l.326 1.668c.094.479-.218.944-.697 1.039-.478.093-.943-.219-1.037-.698zm7.484 21.667-4.471-22.856c-.247-1.265-1.472-2.09-2.735-1.842-1.264.247-2.087 1.474-1.84 2.739l4.471 22.856z" fill="#962c52"/><path d="m622.669 293.916-11.329 2.527-4.089-12.266 14.044-3.132z" fill="#ce5777"/><path d="m609.547 291.063 12.516-2.821-.768-7.197-14.044 3.132z" fill="#6a1244"/><path d="m621.034 297.932-6.515 1.453c-1.329.297-2.645-.542-2.941-1.872l-.238-1.07 11.326-2.526.238 1.07c.296 1.33-.541 2.649-1.87 2.945z" fill="#962c52"/><path d="m635.295 298.418-11.377-2.3 1.24-12.872 14.104 2.852z" fill="#ce5777"/><path d="m624.462 290.473 12.582 2.514 2.217-6.889-14.103-2.852z" fill="#6a1244"/><path d="m625.576 321.433c-.097.479-.563.788-1.041.692-.479-.097-.788-.563-.691-1.042l.336-1.667c.096-.479.562-.789 1.04-.692.479.096.788.563.692 1.042zm1.364-22.886-4.603 22.83c-.254 1.263.562 2.495 1.824 2.75s2.491-.562 2.746-1.826l4.602-22.831z" fill="#962c52"/><path d="m632.173 301.423-6.543-1.324c-1.335-.269-2.197-1.571-1.928-2.907l.216-1.075 11.374 2.3-.216 1.075c-.269 1.336-1.569 2.2-2.903 1.931z" fill="#962c52"/><path d="m677.044 221.893c-1.077-8.972-1.077-13.943-1.077-13.943 4.431 0 11.159 6.514 11.159 6.514" fill="#6a1244"/><path d="m698.527 214.465s6.728-6.515 11.158-6.515c0 0-1.22 8.258-1.077 13.944" fill="#6a1244"/><path d="m714.163 261.434-6.549-21.848c-.221-.738-.631-1.543-1.108-2.318-1.06-1.725-.662-3.926.911-5.2 1.383-1.122 2.269-2.837 2.269-4.758 0-7.36-5.958-13.326-13.306-13.326h-8.293c-7.349 0-13.306 5.966-13.306 13.326 0 2.075 1.033 3.909 2.611 5.016 1.564 1.096 2.182 3.106 1.347 4.826-.554 1.144-1.055 2.399-1.264 3.527l-3.215 17.333c-.287 1.546-.065 3.105.239 4.647 1.117 5.67 6.412 8.196 12.183 8.196h19.131c5.508 0 9.586-4.601 8.35-9.421z" fill="#a8385b"/><path d="m697.173 235.004v-3.115c0-3.815-2.874-7.145-6.676-7.391-4.164-.27-7.626 3.033-7.626 7.146v1.524c0 4.379-.75 8.767-2.557 12.755-.607 1.34-.946 2.828-.946 4.397v18.849c1.93 1.065 4.198 1.686 6.629 1.686h15.932v-20.535c0-2.321-.738-4.469-1.992-6.222-1.882-2.634-2.764-5.855-2.764-9.094z" fill="#f2bdd2"/><path d="m726.017 279.162-17.505-13.185 1.807-2.406 17.505 13.186z" fill="#a8385b"/><path d="m736.51 264.082c-.439.584-.385 1.394.111 1.93 2.253 2.436 2.517 6.221.455 8.966-2.317 3.086-6.709 3.708-9.791 1.387l-1.798 2.395c4.4 3.314 10.671 2.425 13.98-1.981 2.958-3.939 2.563-9.375-.696-12.852-.625-.667-1.712-.576-2.261.155z" fill="#a8385b"/><path d="m382.662 427.17h48.203v-3.929h-48.203z" fill="#6d1f3f"/><path d="m379.101 478.96h56.586v-4.644h-56.586z" fill="#6a1244"/><path d="m404.368 423.636h4.909v-63.552h-4.909z" fill="#6d1f3f"/><path d="m380.224 501.137h-1.813c-1.07 0-1.937-.868-1.937-1.939v-34.327c0-11.107 1.421-22.193 4.226-32.949l1.993-7.648 3.629.949-1.994 7.648c-2.724 10.447-4.104 21.213-4.104 32z" fill="#6d1f3f"/><path d="m437.319 501.137h-1.813c-1.07 0-1.937-.868-1.937-1.939v-34.327c0-10.793-1.378-21.542-4.1-31.985l-1.997-7.663 3.628-.949 1.994 7.648c2.805 10.763 4.225 21.84 4.225 32.963z" fill="#6d1f3f"/><path d="m385.941 427.17h48.203v-3.929h-48.203z" fill="#a8385b"/><path d="m381.629 478.96h56.586v-4.644h-56.586z" fill="#a8385b"/><path d="m407.647 423.636h4.909v-63.552h-4.909z" fill="#a8385b"/><path d="m381.565 501.137h-1.813v-36.266c0-11.107 1.422-22.193 4.226-32.949l1.994-7.648 3.628.949-1.993 7.648c-2.724 10.447-4.105 21.213-4.105 32v34.327c0 1.071-.867 1.939-1.937 1.939z" fill="#a8385b"/><path d="m438.661 501.137h-1.813v-36.251c0-10.803-1.379-21.562-4.103-32.015l-1.994-7.648 3.629-.949 1.993 7.648c2.805 10.763 4.225 21.84 4.225 32.963v34.313c0 1.071-.867 1.939-1.937 1.939z" fill="#a8385b"/><path d="m445.375 365.339h-74.241v-3.822c0-5.49 4.444-9.94 9.926-9.94h54.389c5.482 0 9.926 4.45 9.926 9.94z" fill="#6a1244"/><path d="m506.642 345.182h-16.708l3.938 140.593h12.77z" fill="#6d1f3f"/><path d="m744.634 345.182h-16.565v140.593h12.771z" fill="#6d1f3f"/><path d="m503.474 491.923h3.724v-6.147h-3.724z" fill="#6d1f3f"/><path d="m511.031 496.055c0-3.112-2.519-5.634-5.626-5.634-3.108 0-5.627 2.522-5.627 5.634 0 3.113 2.519 5.635 5.627 5.635 3.107 0 5.626-2.522 5.626-5.635z" fill="#6d1f3f"/><path d="m737.773 491.923h3.724v-6.147h-3.724z" fill="#6d1f3f"/><path d="m745.331 496.055c0-3.112-2.519-5.634-5.626-5.634-3.108 0-5.627 2.522-5.627 5.634 0 3.113 2.519 5.635 5.627 5.635 3.107 0 5.626-2.522 5.626-5.635z" fill="#6d1f3f"/><path d="m510.393 357.971h221.427v-12.789h-221.427z" fill="#962c52"/><path d="m413.693 345.182h346.052v-13.064h-346.052z" fill="#a8385b"/><path d="m410.94 345.182h346.052v-13.064h-346.052z" fill="#962c52"/><path d="m514.049 345.182h-16.708l3.938 140.593h12.77z" fill="#962c52"/><path d="m514.049 357.971h221.427v-12.789h-221.427z" fill="#962c52"/><path d="m752.041 345.182h-16.564v140.593h12.77z" fill="#962c52"/><path d="m424.275 345.182h339.127v-13.064h-339.127z" fill="#a8385b"/><path d="m505.631 491.923h3.724v-6.147h-3.724z" fill="#962c52"/><path d="m513.189 496.055c0-3.112-2.519-5.634-5.627-5.634-3.107 0-5.626 2.522-5.626 5.634 0 3.113 2.519 5.635 5.626 5.635 3.108 0 5.627-2.522 5.627-5.635z" fill="#962c52"/><path d="m508.357 496.055c0 .435-.351.787-.785.787s-.785-.352-.785-.787c0-.434.351-.785.785-.785s.785.351.785.785z" fill="#a8385b"/><path d="m739.931 491.923h3.724v-6.147h-3.724z" fill="#962c52"/><path d="m747.488 496.055c0-3.112-2.519-5.634-5.626-5.634-3.108 0-5.627 2.522-5.627 5.634 0 3.113 2.519 5.635 5.627 5.635 3.107 0 5.626-2.522 5.626-5.635z" fill="#962c52"/><path d="m340.088 357.498-5.108.324-1.47-23.18 5.108-.324z" fill="#6c2c5b"/><path d="m339.283 333.268-6.643.422.063 1.004 6.644-.423z" fill="#db7372"/><path d="m337.04 328.047-2.981.19c-.65.041-1.143.602-1.102 1.253l.264 4.163 5.334-.339-.264-4.163c-.041-.651-.601-1.145-1.251-1.104z" fill="#db7372"/><path d="m600.198 495.143-6.407 3.491-136.357-251.032 6.407-3.489z" fill="#6a1244"/><path d="m429.264 502.232h171.292v-7.305h-171.292z" fill="#6a1244"/><path d="m429.264 502.231h7.293v-139.637h-7.293z" fill="#6a1244"/><path d="m516.006 79.4072 8.766 2.5648-90.11 308.955-8.767-2.564z" fill="#f5d0bd"/><path d="m425.932 388.934-12.395-3.626 79.386-272.187 12.396 3.626z" fill="#fff"/><path d="m433.703 397.186h-28.587v-9.617h30.298z" fill="#f5d0bd"/><path d="m427.708 246.947s17.488-.73 14.18-2.878c0 0-6.128.812-2.237-.731 0 0 4.32-1.27.847-4.634-2.535-2.454-6.352-3.021-9.576-1.592-1.263.559-2.721 1.379-4.38 2.568z" fill="#ff8d54"/><path d="m418.864 231.331 1.931-2.823 27.777 19.054-1.931 2.824z" fill="#592b43"/><path d="m348.825 419.726-20.469-1.243s-14.673 11.163 0 66.819l10.801 2.489z" fill="#6a1244"/><path d="m275.411 331.172-2.094 95.998 20.745-6.384 11.599-80.097z" fill="#6a1244"/><path d="m294.3 420.76-17.736-12.637s-18.073-1.026-37.486 60.169l8.331 8.319z" fill="#6a1244"/><path d="m292.262 221.042 1.434-22.372 19.292 17.529.67 5.836s-9.584 13.392-21.396-.993z" fill="#ff8d54"/><path d="m318.466 214.782-5.517 1.23c-1.153.257-2.358.138-3.438-.34-7.166-3.165-9.863-7.336-13.13-14.465l-4.67-5.017 6.679-19.098 26.597 2.054 1.661 9.182c.512 2.828.434 5.73-.228 8.527l-3.115 13.149c-.567 2.389-2.445 4.245-4.839 4.778z" fill="#ff8d54"/><path d="m318.466 214.782-5.517 1.23c-1.153.257-2.358.138-3.438-.34-7.166-3.165-9.011-8.367-12.277-15.496l-5.523-3.986 6.679-19.098 26.597 2.054 1.661 9.182c.512 2.828.434 5.73-.228 8.527l-3.115 13.149c-.567 2.389-2.445 4.245-4.839 4.778z" fill="#ff8d54"/><path d="m299.525 187.071-1.641 9.259-5.116-2.06-1.755-6.219s-3.44-19.914 8.683-22.635c0 0 2.534-.813 7.488.202 0 0 5.529.991 8.981-2.369 1.04-1.012 2.194-1.906 3.5-2.536 2.803-1.352 7.003-2.147 9.372 3.314 0 0 7.275 13.459-3.548 17.89 0 0-7.001 2.717-11.694-.892-.223-.171-.459-.327-.716-.441-.079-.035-.169-.074-.27-.116-6.138-2.54-11.407.223-13.284 6.603z" fill="#6a1244"/><path d="m296.865 193.35s-4.244-4.759-6.689-2.071c-1.217 1.338-1.213 3.386-.152 4.851 1.099 1.515 3.183 3.79 7.089 6.641l2.087-4.48" fill="#ff8d54"/><path d="m320.501 193.663.266 9.028 5.562 1.504s-4.041-9.721-5.828-10.532z" fill="#d1661e"/></g><path d="m316.029 207.218s4.542 1.034 8.481-.198" stroke="#d1661e" stroke-linecap="round" stroke-linejoin="round" stroke-width="1.0945"/><path clip-rule="evenodd" d="m313.959 193.993c.113.983-.295 1.838-.911 1.908-.616.071-1.206-.668-1.319-1.651-.113-.984.295-1.838.911-1.909s1.206.669 1.319 1.652z" fill="#592b43" fill-rule="evenodd"/><path clip-rule="evenodd" d="m325.888 192.62c.113.983-.172 1.824-.636 1.877-.465.053-.933-.7-1.046-1.683s.172-1.824.637-1.877c.465-.054.932.7 1.045 1.683z" fill="#592b43" fill-rule="evenodd"/><path d="m313.349 188.661s-3.204-.413-4.611 1.81" stroke="#592b43" stroke-linecap="round" stroke-linejoin="round" stroke-width="1.5"/><path d="m323.275 187.373s1.66-1.399 3.03-.17" stroke="#592b43" stroke-linecap="round" stroke-linejoin="round" stroke-width="1.5"/><path clip-rule="evenodd" d="m313.658 222.035s-9.401 11.542-21.396-.993l-20.989 9.103 5.252 59.034-1.114 41.993s43.135 25.223 59.477 7.689l-3.459-55.896-4.447-57.825z" fill="#592b43" fill-rule="evenodd"/><path clip-rule="evenodd" d="m305.281 343.313 26.531 87.772 17.013-11.359-13.937-80.866z" fill="#6a1244" fill-rule="evenodd"/><path d="m301.741 211.797s4.407 4.654 12.307 4.058" stroke="#d1661e" stroke-linecap="round" stroke-linejoin="round" stroke-width="1.0945"/><path d="m291.711 195.056s1.188-3.337 3.882.569" stroke="#d1661e" stroke-linecap="round" stroke-linejoin="round" stroke-width="1.0945"/><path clip-rule="evenodd" d="m293.652 169.456s-8.07-3.39-6.402 4.074l4.163 15.944 3.401-11.448" fill="#6a1244" fill-rule="evenodd"/><path d="m292.914 199.642s2.709 3.334 5.36 1.716" stroke="#d1661e" stroke-linecap="round" stroke-linejoin="round" stroke-width="1.0945"/><path clip-rule="evenodd" d="m328.355 485.302v15.894s28.2 17.144 36.527 9.267c0 0-12.357-11.985-25.725-22.672z" fill="#592b43" fill-rule="evenodd"/><path clip-rule="evenodd" d="m239.371 467.422-7.698 13.899s16.354 28.691 27.452 25.849c0 0-5.001-16.483-11.513-32.324z" fill="#592b43" fill-rule="evenodd"/><path clip-rule="evenodd" d="m376.387 251.941s32.837-1.022 51.924-5.246l-1.769-7.015-56.952-3.406z" fill="#ff8d54" fill-rule="evenodd"/><path d="m274.981 271.655.369 5.236" stroke="#fff" stroke-linecap="round" stroke-linejoin="round" stroke-width=".6305"/><path clip-rule="evenodd" d="m295.02 259.831s12.398-12.373 11.73-8.482c0 0-5.586 5.907-1.816 4.09 0 0 25.938-14.333 13.457-2.71 0 0-10.221 11.102-18.83 12.89z" fill="#ff8d54" fill-rule="evenodd"/><path clip-rule="evenodd" d="m271.273 230.145-12.37 65.005s8.384 13.076 15.577 6.427l8.99-26.449z" fill="#592b43" fill-rule="evenodd"/><path clip-rule="evenodd" d="m259.336 294.072c-.281-2.439 21.748-22.969 36.41-34.955l3.814 6.503-27.872 37.201c-2.272 3.032-6.946 2.568-8.58-.852z" fill="#ff8d54" fill-rule="evenodd"/><path clip-rule="evenodd" d="m436.497 243.427s7.041-.783 3.361 2.306c0 0-3.401-.503-3.361-2.306z" fill="#ff8d54" fill-rule="evenodd"/><path clip-rule="evenodd" d="m322.345 250.608 56.886 1.878s7.616-7.754 1.09-15.06l-60.293-13.906z" fill="#592b43" fill-rule="evenodd"/><path clip-rule="evenodd" d="m292.262 221.042-1.343-4.897 25.11 2.448-2.371 7.664-10.577 5.515-8.858-4.068" fill="#592b43" fill-rule="evenodd"/><path clip-rule="evenodd" d="m446.641 250.386h2.933l-1.002-2.824z" fill="#ff8d54" fill-rule="evenodd"/><path clip-rule="evenodd" d="m281.427 321.219s35.128 8.613 52.243-2.038l7.467 43.065c.372 2.147-.946 4.224-3.048 4.792-10.289 2.782-39.536 9.289-54.904-1.687-1.126-.804-1.758-2.134-1.758-3.519z" fill="#96b6ec" fill-rule="evenodd"/><path clip-rule="evenodd" d="m325.433 361.37-4.01-.098.689-28.224 4.011.099z" fill="#6c2c5b" fill-rule="evenodd"/><path clip-rule="evenodd" d="m326.123 333.147-4.011-.099.036-1.444c.012-.5.427-.897.927-.884l2.201.054c.499.012.895.428.882.928z" fill="#db7372" fill-rule="evenodd"/><path clip-rule="evenodd" d="m321.455 337.347-.555-.013.126-5.175.556.014z" fill="#db7372" fill-rule="evenodd"/><path clip-rule="evenodd" d="m322.12 332.74-1.108-.027.014-.554 1.107.028z" fill="#db7372" fill-rule="evenodd"/><path clip-rule="evenodd" d="m315.329 359.626-5.108.324-1.47-23.18 5.109-.325z" fill="#6c2c5b" fill-rule="evenodd"/><path clip-rule="evenodd" d="m314.524 335.395-6.644.423.064 1.003 6.643-.422z" fill="#db7372" fill-rule="evenodd"/><path clip-rule="evenodd" d="m312.28 330.175-2.981.19c-.65.041-1.143.602-1.101 1.252l.263 4.164 5.334-.339-.263-4.164c-.042-.651-.602-1.144-1.252-1.103z" fill="#db7372" fill-rule="evenodd"/><path clip-rule="evenodd" d="m286.747 361.638h2.742v-28.491h-2.742z" fill="#6c2c5b" fill-rule="evenodd"/><path clip-rule="evenodd" d="m286.747 333.147h2.742l-1.371-2.331z" fill="#db7372" fill-rule="evenodd"/><path clip-rule="evenodd" d="m281.427 322.748s-3.786-.12-5.757-1.355l-.089 3.36s3.087 2.104 5.846 1.855c0 0 .445-.991 0-3.86z" fill="#96b6ec" fill-rule="evenodd"/><path clip-rule="evenodd" d="m287.656 364.32c3.583 1.47 9.956 3.727 14.923 3.547l-.688-27.04s-10.292-.598-17.004-1.967v21.308c0 1.818 1.09 3.463 2.769 4.152z" fill="#bc486c" fill-rule="evenodd"/><path clip-rule="evenodd" d="m305.661 340.689s17.718-1.272 28.737-3.431l3.833 26.248s-17.11 5.026-31.296 4.139z" fill="#bc486c" fill-rule="evenodd"/><path clip-rule="evenodd" d="m336.78 337.12 2.297-.312 4.275 23.094c.211 1.145-.343 2.342-1.412 2.8-.236.101-.474.159-.699.144z" fill="#bc486c" fill-rule="evenodd"/><path clip-rule="evenodd" d="m412.659 185.204c-4.069-13.702-6.613-33.805 5.126-44.268 2.859-2.547 5.952-4.722 8.348-7.747 2.708-3.418 4.497-7.291 5.11-11.633 1.084-7.685-1.426-16.394-7.942-21.002-2.483-1.7565-6.255-.445-7.695 2.021-1.647 2.819-.471 5.947 2.018 7.707-.902-.637.929 1.14.478.536.381.509.72 1.149.99 1.724.45.954.949 2.745 1.118 4.05.329 2.535-.264 5.57-1.705 7.986-1.691 2.835-4.516 4.898-7.078 7.028-2.891 2.406-5.439 5.088-7.382 8.333-8.498 14.206-6.745 33.07-2.234 48.26 2.058 6.934 12.919 3.982 10.848-2.995z" fill="#ec90b1" fill-rule="evenodd"/><path clip-rule="evenodd" d="m373.084 132.105c1.381 3.539 5.38 5.293 8.915 3.91 3.534-1.383 5.286-5.389 3.905-8.928-1.381-3.54-5.381-5.294-8.915-3.911-3.535 1.384-5.287 5.389-3.905 8.929zm-6.986 2.733c-2.886-7.396.774-15.766 8.161-18.658 7.386-2.89 15.744.776 18.63 8.173 2.887 7.396-.774 15.767-8.16 18.658s-15.744-.776-18.631-8.173z" fill="#fbeedd" fill-rule="evenodd"/><path clip-rule="evenodd" d="m453.347 130.6c1.382 3.541 5.381 5.295 8.916 3.912 3.534-1.384 5.286-5.389 3.905-8.929-1.382-3.54-5.381-5.294-8.915-3.911-3.536 1.384-5.287 5.389-3.906 8.928zm-6.985 2.734c-2.887-7.397.774-15.766 8.161-18.658 7.386-2.89 15.743.776 18.63 8.173s-.774 15.768-8.16 18.658c-7.386 2.891-15.744-.775-18.631-8.173z" fill="#fbeedd" fill-rule="evenodd"/><path clip-rule="evenodd" d="m396.373 206.451c5.742 6.773 15.275 7.83 23.462 5.923 4.676-1.088 9.11-3.087 13.495-4.997 4.141-1.804 8.081-3.824 11.349-7.008 3.467-3.375-1.839-8.684-5.303-5.311-2.58 2.513-5.805 4.059-9.066 5.499-3.502 1.547-7.046 3.084-10.736 4.124-6.211 1.752-13.402 1.761-17.898-3.541-3.127-3.691-8.411 1.645-5.303 5.311z" fill="#fff" fill-rule="evenodd"/><path clip-rule="evenodd" d="m462.005 96.678c-.112-5.2037.447-10.3664.757-15.5535.154-2.5678.254-5.1482.129-7.72-.061-1.2408-.184-2.4666-.388-3.6929-.105-.632-.228-1.2609-.369-1.8863-.542-1.5583-.125-1.3485 1.252.6299.708.0311 1.416.0621 2.123.0927-.573.1131-1.505 2.1496-1.769 2.6509-.589 1.1156-1.025 2.3054-1.423 3.5007-.871 2.6103-1.464 5.3023-2.177 7.9577-1.284 4.7771-3.13 11.8666-8.87 12.802-1.946.3174-4.532-.7501-4.79-3.007-.845-7.4014-.76-14.8154-.945-22.2494-.092-3.6704-.243-7.3569-.796-10.9918-.099-.6524-.186-1.3144-.362-1.9513-.108-.3901-.673-1.351-.682-1.6144-.115-.0801-.242-.1382-.379-.1748.313-.1046.627-.2088.941-.3135.026.2514-.73 1.8678-.787 2.0516-2.076 6.6283-2.604 13.6126-4.235 20.3461-1.496 6.1741-3.686 12.9311-10.142 15.2731-1.625.5893-3.686-.6019-4.429-2.035-1.716-3.3129-2.133-6.8141-2.632-10.454-.222-1.6179-.464-3.3189-1.1-4.8362-.242-.5758-.93-1.2393-1.055-1.7776-.119-.1317-.237-.2624-.356-.3941 1.458-.6049 1.758-.4591.898.4362-.57 1.4757-1.529 2.8923-2.154 4.3755-.69 1.6349-1.387 3.2728-2.222 4.8391-1.823 3.4231-4.375 6.4551-7.293 8.9918-3.884 3.3765-9.295-2.5167-5.4-5.9022 3.616-3.1427 5.774-6.8191 7.636-11.1781 1.639-3.8381 4.003-9.7944 9.033-9.6813 4.669.1052 7.678 5.0886 8.904 9.0104 1.308 4.1836.77 8.8926 2.812 12.8354-1.476-.678-2.952-1.3565-4.428-2.0345 2.48-.9003 3.545-6.8977 4.093-9.0193.936-3.6214 1.507-7.3198 2.161-10.9988 1.033-5.8076 2.08-18.2014 10.491-17.4723 8.665.7506 8.879 11.4569 9.267 17.9791.5 8.3749.001 16.8018.954 25.1507-1.596-1.0025-3.193-2.0055-4.79-3.008 1.222-.1988 2.212-4.5147 2.605-5.8631.811-2.7797 1.415-5.6159 2.254-8.3875 1.378-4.5497 4.512-13.0167 10.448-12.7568 6.596.2884 6.167 11.4434 6.138 15.9901-.044 6.8111-1.084 13.5716-.937 20.3897.111 5.153-7.875 4.784-7.986-.349z" fill="#fed451" fill-rule="evenodd"/><path clip-rule="evenodd" d="m692.303 223.367c0 .491-1.021 1.566-2.281 1.566s-2.281-1.075-2.281-1.566c0-.49 1.021-.888 2.281-.888s2.281.398 2.281.888z" fill="#6a1244" fill-rule="evenodd"/><path d="m695.458 220.891s2.596 2.186 5.193 0" stroke="#6a1244" stroke-linecap="round" stroke-linejoin="round" stroke-width="1.5"/><path d="m679.738 220.891s2.448 2.255 5.193 0" stroke="#6a1244" stroke-linecap="round" stroke-linejoin="round" stroke-width="1.5"/><path d="m689.752 224.482-1.456 3.735" stroke="#6a1244" stroke-linecap="round" stroke-linejoin="round" stroke-width="1.5"/><path d="m689.92 224.482 1.457 3.735" stroke="#6a1244" stroke-linecap="round" stroke-linejoin="round" stroke-width="1.5"/><path clip-rule="evenodd" d="m684.441 266.767c-2.253 0-4.08 1.83-4.08 4.087h8.161c0-2.257-1.827-4.087-4.081-4.087z" fill="#a8385b" fill-rule="evenodd"/><path clip-rule="evenodd" d="m695.603 266.767c-2.254 0-4.081 1.83-4.081 4.087h8.161c0-2.257-1.826-4.087-4.08-4.087z" fill="#a8385b" fill-rule="evenodd"/><path d="m676.233 227.472-2.924 1.417" stroke="#6a1244" stroke-linecap="round" stroke-linejoin="round" stroke-width="1.5"/><path d="m677.225 230.012-1.985 2.643" stroke="#6a1244" stroke-linecap="round" stroke-linejoin="round" stroke-width="1.5"/><path d="m702.508 227.369 2.924 1.416" stroke="#6a1244" stroke-linecap="round" stroke-linejoin="round" stroke-width="1.5"/><path d="m701.516 229.908 1.985 2.643" stroke="#6a1244" stroke-linecap="round" stroke-linejoin="round" stroke-width="1.5"/><path clip-rule="evenodd" d="m696.38 213.984s-5.291-.494-6.627-3.348c0 0-.668 1.751.167 2.334 0 0-2.601.746-3.923-.66 0 0-.713 1.983 2.525 2.142" fill="#a8385b" fill-rule="evenodd"/><path clip-rule="evenodd" d="m633.201 301.298h-24.386l1.993 30.82h20.041z" fill="#962c52" fill-rule="evenodd"/><path clip-rule="evenodd" d="m274.981 149.904c0 10.374-8.398 18.784-18.756 18.784-10.359 0-18.756-8.41-18.756-18.784s8.397-18.784 18.756-18.784c10.358 0 18.756 8.41 18.756 18.784z" fill="#ce5777" fill-rule="evenodd"/><path clip-rule="evenodd" d="m541.365 210.997h17.852v-23.5h-17.852z" fill="#f2bdd2" fill-rule="evenodd"/><path clip-rule="evenodd" d="m544.253 205.697h12.056v-15.144h-12.056z" fill="#bc486c" fill-rule="evenodd"/><path clip-rule="evenodd" d="m545.757 188.676h9.027v-3.852h-9.027z" fill="#6a1244" fill-rule="evenodd"/><path clip-rule="evenodd" d="m548.637 185.549h3.139v-2.674c0-.867-.704-1.571-1.569-1.571-.866 0-1.57.704-1.57 1.571zm4.639 1.502h-6.139v-4.176c0-1.695 1.377-3.074 3.07-3.074 1.692 0 3.069 1.379 3.069 3.074z" fill="#6a1244" fill-rule="evenodd"/><path clip-rule="evenodd" d="m513.604 226.595h17.851v-23.501h-17.851z" fill="#f2bdd2" fill-rule="evenodd"/><path clip-rule="evenodd" d="m516.491 221.295h12.056v-15.144h-12.056z" fill="#bc486c" fill-rule="evenodd"/><path clip-rule="evenodd" d="m517.995 204.275h9.027v-3.852h-9.027z" fill="#6a1244" fill-rule="evenodd"/><path clip-rule="evenodd" d="m520.875 201.147h3.138v-2.674c0-.867-.703-1.572-1.568-1.572-.866 0-1.57.705-1.57 1.572zm4.638 1.503h-6.138v-4.177c0-1.696 1.377-3.074 3.07-3.074 1.691 0 3.068 1.378 3.068 3.074z" fill="#6a1244" fill-rule="evenodd"/><path clip-rule="evenodd" d="m548.791 284.459h17.851v-23.501h-17.851z" fill="#f2bdd2" fill-rule="evenodd"/><path clip-rule="evenodd" d="m551.679 279.159h12.056v-15.144h-12.056z" fill="#bc486c" fill-rule="evenodd"/><path clip-rule="evenodd" d="m553.182 262.138h9.027v-3.852h-9.027z" fill="#6a1244" fill-rule="evenodd"/><path clip-rule="evenodd" d="m556.063 259.011h3.138v-2.675c0-.866-.704-1.571-1.569-1.571-.866 0-1.569.705-1.569 1.571zm4.638 1.502h-6.138v-4.177c0-1.695 1.377-3.073 3.069-3.073s3.069 1.378 3.069 3.073z" fill="#6a1244" fill-rule="evenodd"/><path clip-rule="evenodd" d="m524.439 263.16h17.851v-23.5h-17.851z" fill="#f2bdd2" fill-rule="evenodd"/><path clip-rule="evenodd" d="m527.327 257.86h12.056v-15.143h-12.056z" fill="#bc486c" fill-rule="evenodd"/><path clip-rule="evenodd" d="m528.831 240.839h9.027v-3.851h-9.027z" fill="#6a1244" fill-rule="evenodd"/><path clip-rule="evenodd" d="m531.711 237.713h3.138v-2.675c0-.866-.703-1.571-1.568-1.571-.866 0-1.57.705-1.57 1.571zm4.638 1.502h-6.138v-4.177c0-1.695 1.377-3.073 3.07-3.073 1.691 0 3.068 1.378 3.068 3.073z" fill="#6a1244" fill-rule="evenodd"/><path clip-rule="evenodd" d="m525.22 327.145h17.851v-23.5h-17.851z" fill="#f2bdd2" fill-rule="evenodd"/><path clip-rule="evenodd" d="m528.108 321.845h12.056v-15.143h-12.056z" fill="#bc486c" fill-rule="evenodd"/><path clip-rule="evenodd" d="m529.612 304.825h9.027v-3.852h-9.027z" fill="#6a1244" fill-rule="evenodd"/><path clip-rule="evenodd" d="m532.492 301.697h3.138v-2.674c0-.867-.703-1.571-1.568-1.571-.866 0-1.57.704-1.57 1.571zm4.638 1.502h-6.138v-4.176c0-1.695 1.377-3.074 3.07-3.074 1.691 0 3.068 1.379 3.068 3.074z" fill="#6a1244" fill-rule="evenodd"/><path d="m750.651 84.783s-40.908 35.144-101.665 0" stroke="#f2bdd2" stroke-width="1.4425"/><path clip-rule="evenodd" d="m703.92 108.307v-.002c0-2.071-1.677-3.75-3.745-3.75s-3.745 1.679-3.745 3.75c0 2.702-.812 5.311-2.154 7.654-.544.949-.866 2.04-.894 3.207-.091 3.668 2.866 6.831 6.528 6.971 3.874.148 7.061-2.954 7.061-6.8 0-1.29-.359-2.494-.981-3.521-1.37-2.261-2.07-4.864-2.07-7.509z" fill="#e897bb" fill-rule="evenodd"/><path clip-rule="evenodd" d="m702.843 105.714h-5.337v-3.942c0-.775.628-1.403 1.401-1.403h2.535c.774 0 1.401.628 1.401 1.403z" fill="#6a1244" fill-rule="evenodd"/><path clip-rule="evenodd" d="m701.337 100.869h-2.324v-1.7166c0-.3375.272-.6104.609-.6104h1.105c.337 0 .61.2729.61.6104z" fill="#6a1244" fill-rule="evenodd"/><path clip-rule="evenodd" d="m749.502 96.3673v-.002c0-2.0716-1.677-3.7506-3.745-3.7506-2.069 0-3.745 1.679-3.745 3.7506v.0005c0 2.701-.812 5.3102-2.154 7.6532-.544.949-.866 2.041-.895 3.206-.09 3.669 2.866 6.832 6.528 6.972 3.874.148 7.061-2.953 7.061-6.8 0-1.289-.358-2.494-.98-3.521-1.37-2.261-2.07-4.8643-2.07-7.5087z" fill="#e897bb" fill-rule="evenodd"/><path clip-rule="evenodd" d="m748.425 93.7738h-5.337v-3.9418c0-.7746.628-1.4026 1.401-1.4026h2.535c.774 0 1.401.628 1.401 1.4026z" fill="#6a1244" fill-rule="evenodd"/><path clip-rule="evenodd" d="m746.919 88.9302h-2.324v-1.717c0-.3375.272-.6109.61-.6109h1.104c.337 0 .61.2734.61.6109z" fill="#6a1244" fill-rule="evenodd"/><path d="m649.319 84.783s-40.908 35.144-101.665 0" stroke="#f2bdd2" stroke-width="1.4425"/><path clip-rule="evenodd" d="m552.333 94.1139v-.002c0-2.0716-1.677-3.7506-3.745-3.7506-2.069 0-3.745 1.679-3.745 3.7506v.0005c0 2.701-.812 5.3103-2.155 7.6526-.543.949-.865 2.041-.894 3.207-.091 3.669 2.866 6.832 6.528 6.972 3.874.147 7.061-2.954 7.061-6.801 0-1.289-.358-2.493-.98-3.521-1.371-2.2604-2.07-4.8637-2.07-7.5081z" fill="#e897bb" fill-rule="evenodd"/><path clip-rule="evenodd" d="m551.256 91.5204h-5.337v-3.9418c0-.7746.627-1.4026 1.401-1.4026h2.535c.773 0 1.401.628 1.401 1.4026z" fill="#6a1244" fill-rule="evenodd"/><path clip-rule="evenodd" d="m549.75 86.6768h-2.324v-1.717c0-.3375.272-.6109.609-.6109h1.105c.337 0 .61.2734.61.6109z" fill="#6a1244" fill-rule="evenodd"/><path clip-rule="evenodd" d="m602.388 108.307v-.002c0-2.071-1.677-3.75-3.745-3.75s-3.745 1.679-3.745 3.75c0 2.702-.812 5.311-2.154 7.654-.544.949-.866 2.04-.894 3.207-.091 3.668 2.866 6.831 6.528 6.971 3.874.148 7.061-2.954 7.061-6.8 0-1.29-.359-2.494-.981-3.521-1.37-2.261-2.07-4.864-2.07-7.509z" fill="#e897bb" fill-rule="evenodd"/><path clip-rule="evenodd" d="m601.312 105.714h-5.337v-3.942c0-.775.627-1.403 1.401-1.403h2.535c.774 0 1.401.628 1.401 1.403z" fill="#6a1244" fill-rule="evenodd"/><path clip-rule="evenodd" d="m599.805 100.869h-2.324v-1.7166c0-.3375.273-.6104.61-.6104h1.104c.337 0 .61.2729.61.6104z" fill="#6a1244" fill-rule="evenodd"/><path clip-rule="evenodd" d="m653.064 94.5069v-.002c0-2.0715-1.677-3.7505-3.745-3.7505-2.069 0-3.745 1.679-3.745 3.7505 0 2.7015-.812 5.3109-2.154 7.6531-.544.949-.866 2.041-.895 3.207-.09 3.668 2.866 6.832 6.528 6.971 3.874.149 7.061-2.953 7.061-6.8 0-1.289-.358-2.493-.98-3.52-1.37-2.2613-2.07-4.8646-2.07-7.5091z" fill="#e897bb" fill-rule="evenodd"/><path clip-rule="evenodd" d="m651.987 91.9135h-5.337v-3.9418c0-.7747.628-1.4031 1.401-1.4031h2.535c.774 0 1.401.6284 1.401 1.4031z" fill="#6a1244" fill-rule="evenodd"/><path clip-rule="evenodd" d="m650.481 87.0694h-2.324v-1.7166c0-.3375.272-.6109.609-.6109h1.105c.337 0 .61.2734.61.6109z" fill="#6a1244" fill-rule="evenodd"/><path clip-rule="evenodd" d="m672.662 442.222h-22.855c-2.665 0-4.825-2.163-4.825-4.832v-24.302c0-2.669 2.16-4.832 4.825-4.832h22.855c2.665 0 4.826 2.163 4.826 4.832v24.302c0 2.669-2.161 4.832-4.826 4.832z" fill="#a8385b" fill-rule="evenodd"/><path clip-rule="evenodd" d="m672.437 428.402c0 5.04-4.079 9.125-9.112 9.125-5.031 0-9.111-4.085-9.111-9.125 0-5.039 4.08-9.125 9.111-9.125 5.033 0 9.112 4.086 9.112 9.125z" fill="#bc486c" fill-rule="evenodd"/><path clip-rule="evenodd" d="m668.258 428.402c0 2.728-2.209 4.94-4.933 4.94s-4.932-2.212-4.932-4.94 2.208-4.94 4.932-4.94 4.933 2.212 4.933 4.94z" fill="#962c52" fill-rule="evenodd"/><path clip-rule="evenodd" d="m654.665 416.064h-4.196c-.702 0-1.271-.57-1.271-1.273v-2.044c0-.704.569-1.273 1.271-1.273h4.196c.702 0 1.271.569 1.271 1.273v2.044c0 .703-.569 1.273-1.271 1.273z" fill="#962c52" fill-rule="evenodd"/><path clip-rule="evenodd" d="m714.86 384.639h-24.231c-3.037 0-5.5 2.466-5.5 5.508v46.212c0 3.042 2.463 5.508 5.5 5.508h24.231c3.037 0 5.5-2.466 5.5-5.508v-46.212c0-3.042-2.463-5.508-5.5-5.508z" fill="#fff" fill-rule="evenodd"/><path clip-rule="evenodd" d="m692.215 384.639h21.028v-5.154h-21.028z" fill="#fff" fill-rule="evenodd"/><path clip-rule="evenodd" d="m689.025 379.485h27.554v-3.047h-27.554z" fill="#fff" fill-rule="evenodd"/><path clip-rule="evenodd" d="m690.008 321.013h-43.495l-3.101 10.855h49.692z" fill="#962c52" fill-rule="evenodd"/><path clip-rule="evenodd" d="m657.449 413.769h15.76v-2.295h-15.76z" fill="#bc486c" fill-rule="evenodd"/><path clip-rule="evenodd" d="m389.068 351.576h15.924v-4.054h-15.924z" fill="#6a1244" fill-rule="evenodd"/><path clip-rule="evenodd" d="m399.881 347.522h-14.884c-4.615 0-8.357-3.747-8.357-8.37v-18.396h31.599v18.396c0 4.623-3.743 8.37-8.358 8.37z" fill="#fff" fill-rule="evenodd"/><path clip-rule="evenodd" d="m398.256 345.104h-14.252c-3.379 0-6.119-2.744-6.119-6.128v-10.986h26.49v10.986c0 3.384-2.74 6.128-6.119 6.128z" fill="#a8385b" fill-rule="evenodd"/><path clip-rule="evenodd" d="m392.439 351.576h15.924v-4.054h-15.924z" fill="#962c52" fill-rule="evenodd"/><path clip-rule="evenodd" d="m407.322 347.522h-14.883c-4.616 0-8.357-3.747-8.357-8.37v-18.396h31.598v18.396c0 4.623-3.742 8.37-8.358 8.37z" fill="#fff" fill-rule="evenodd"/><path clip-rule="evenodd" d="m407.007 345.104h-14.252c-3.38 0-6.119-2.744-6.119-6.128v-10.986h26.489v10.986c0 3.384-2.739 6.128-6.118 6.128z" fill="#d36e97" fill-rule="evenodd"/><path clip-rule="evenodd" d="m418.32 323.543h-2.639v3.756h2.639c1.262 0 2.289 1.029 2.289 2.292v7.518c0 1.263-1.027 2.291-2.289 2.291h-2.653c-.039 1.357-.394 2.636-1.004 3.756h3.657c3.33 0 6.039-2.713 6.039-6.047v-7.518c0-3.334-2.709-6.048-6.039-6.048z" fill="#6a1244" fill-rule="evenodd"/><path clip-rule="evenodd" d="m672.714 287.741h50.95v-4.675h-50.95z" fill="#a8385b" fill-rule="evenodd"/><path clip-rule="evenodd" d="m672.714 275.309h50.95v-4.674h-50.95z" fill="#a8385b" fill-rule="evenodd"/><path clip-rule="evenodd" d="m674.871 283.066h48.793v-7.757h-48.793z" fill="#e897bb" fill-rule="evenodd"/><path clip-rule="evenodd" d="m659.564 300.173h58.557v-7.758h-58.557z" fill="#bc486c" fill-rule="evenodd"/><path clip-rule="evenodd" d="m656.975 304.847h61.147v-4.674h-61.147z" fill="#6a1244" fill-rule="evenodd"/><path clip-rule="evenodd" d="m656.975 292.415h61.147v-4.674h-61.147z" fill="#6a1244" fill-rule="evenodd"/><path clip-rule="evenodd" d="m670.949 304.847h61.146v-4.674h-61.146z" fill="#a8385b" fill-rule="evenodd"/><path clip-rule="evenodd" d="m670.949 292.415h61.146v-4.674h-61.146z" fill="#a8385b" fill-rule="evenodd"/><path clip-rule="evenodd" d="m732.682 287.741h-.587v17.106h.587c2.324 0 4.208-1.887 4.208-4.214v-8.678c0-2.327-1.884-4.214-4.208-4.214z" fill="#a8385b" fill-rule="evenodd"/><path clip-rule="evenodd" d="m673.538 300.173h58.557v-7.758h-58.557z" fill="#ce5777" fill-rule="evenodd"/><path clip-rule="evenodd" d="m677.667 287.741h50.951v-4.675h-50.951z" fill="#bc486c" fill-rule="evenodd"/><path clip-rule="evenodd" d="m677.667 275.309h50.951v-4.674h-50.951z" fill="#bc486c" fill-rule="evenodd"/><path clip-rule="evenodd" d="m729.057 270.635h-.44v17.106h.44c2.245 0 4.065-1.823 4.065-4.071v-8.965c0-2.248-1.82-4.07-4.065-4.07z" fill="#bc486c" fill-rule="evenodd"/><path clip-rule="evenodd" d="m679.824 283.066h48.793v-7.757h-48.793z" fill="#e897bb" fill-rule="evenodd"/><path clip-rule="evenodd" d="m726.299 283.066h2.318v-7.757h-2.318z" fill="#6a1244" fill-rule="evenodd"/><path clip-rule="evenodd" d="m729.777 300.173h2.318v-7.758h-2.318z" fill="#6a1244" fill-rule="evenodd"/><path clip-rule="evenodd" d="m637.051 301.298h-24.387l1.993 30.82h20.042z" fill="#bc486c" fill-rule="evenodd"/><path clip-rule="evenodd" d="m617.554 315.396h14.934v-6.864h-14.934z" fill="#962c52" fill-rule="evenodd"/><path clip-rule="evenodd" d="m695.059 321.013h-43.495l-3.101 10.855h49.692z" fill="#bc486c" fill-rule="evenodd"/><path clip-rule="evenodd" d="m542.75 484.453h24.904v-7.443h-24.904z" fill="#bc486c" fill-rule="evenodd"/><path clip-rule="evenodd" d="m615.337 484.453h24.904v-7.443h-24.904z" fill="#bc486c" fill-rule="evenodd"/><path clip-rule="evenodd" d="m687.375 484.453h24.904v-7.443h-24.904z" fill="#bc486c" fill-rule="evenodd"/></svg>