<svg fill="none" height="560" viewBox="0 0 960 560" width="960" xmlns="http://www.w3.org/2000/svg"><path d="m0 0h960v560h-960z" fill="#ffeae6"/><g clip-rule="evenodd" fill-rule="evenodd"><path d="m321.473 479.343h6.87v-152.921h-6.87z" fill="#3f123b"/><path d="m326.331 362.37-4.857-4.858 38.751-38.759 4.858 4.859z" fill="#3f123b"/><path d="m564.552 362.37 4.858-4.858-38.752-38.759-4.857 4.859z" fill="#3f123b"/><path d="m563.775 479.343h6.87v-152.921h-6.87z" fill="#3f123b"/><path d="m301.255 334.192h282.88v-15.538h-282.88z" fill="#6d203f"/><path d="m241.387 297.148h226.074v-226.1143h-226.074z" fill="#6a1244"/><path d="m249.157 297.148h226.074v-226.1143h-226.074z" fill="#ce5777"/><path d="m258.557 287.506h207.033v-207.07h-207.033z" fill="#96b6ec"/><path d="m388.156 160.366c0 23.809-19.298 43.11-43.102 43.11s-43.102-19.301-43.102-43.11c0-23.808 19.298-43.109 43.102-43.109s43.102 19.301 43.102 43.109z" fill="#fbfae5"/><path d="m465.59 202.736v-121.9875h-128.495z" fill="#ecf0f1" opacity=".3"/><path d="m310.394 80.7488h-19.869l175.724 161.6812-.764-19.575z" fill="#ecf0f1" opacity=".3"/><path d="m258.557 132.046v155.459h142.882v-24.673z" fill="#ecf0f1" opacity=".3"/><path d="m453.035 482.036h5.769v-13.135h-5.769z" fill="#592b43"/><path d="m452.232 465.847h8.173v-95.86h-8.173z" fill="#592b43"/><path d="m428.517 470.554v11.481h5.769v-8.448c0-1.046.835-1.895 1.866-1.895h39.737c1.03 0 1.865.849 1.865 1.895v8.448h5.567v-11.481c0-2.6-2.074-4.707-4.633-4.707h-45.537c-2.559 0-4.634 2.107-4.634 4.707z" fill="#592b43"/><path d="m403.445 375.199h97.773v-12.926h-97.773z" fill="#a8385b"/><path d="m479.969 244.879h-68.404c-4.484 0-8.119 3.636-8.119 8.121v109.577h84.642v-109.577c0-4.485-3.635-8.121-8.119-8.121z" fill="#db8c7f"/><path d="m412.685 375.199h97.773v-12.926h-97.773z" fill="#d86a6a"/><path d="m489.208 244.879h-68.404c-4.484 0-8.119 3.636-8.119 8.121v109.577h84.643v-109.577c0-4.485-3.636-8.121-8.12-8.121z" fill="#f7aa9a"/><path d="m464.753 325.262 70.131 59.067-4.318 24.687-64.219-44.681c-9.255-6.439-12.265-18.766-7.02-28.748z" fill="#d86a6a"/><path d="m534.884 384.329-4.435 27.203-13.848 48.264-9.534-2.268c-9.005-42.388 7.08-73.051 7.08-73.051z" fill="#d86a6a"/><path d="m505.212 445.396-.435 27.32s30.32 19.006 23.627 8.836l-11.435-13.331 2.772-19.368" fill="#912d51"/><path d="m504.777 472.716-.182 2.254 4.321 2.679.229-2.28z" fill="#912d51"/><path d="m436.181 329.149 69.707 59.566-4.494 24.656-63.898-45.139c-9.209-6.505-12.131-18.853-6.814-28.798z" fill="#fa9073"/><path d="m505.889 388.716-4.629 27.17-14.193 48.164-9.518-2.336c-8.701-42.451 7.603-72.998 7.603-72.998z" fill="#fa9073"/><path d="m475.781 449.57-.63 27.314s30.183 19.223 23.563 9.006l-11.339-13.413 2.91-19.348" fill="#912d51"/><path d="m475.151 476.885-.199 2.253 4.303 2.71.245-2.279z" fill="#912d51"/><path d="m486.497 260.616 23.871 49.534-11.106 6.686-27.212-47.013 11.601-8.971" fill="#f87b55"/><path d="m462.796 227.381 4.168 18.161-18.263-.663-2.477-20.236z" fill="#ff8d54"/><path d="m549.584 298.135s14.384-8.086 12.795-4.726c0 0-6.565 3.945-2.682 3.251 0 0 27.176-6.439 12.905.947 0 0-12.086 7.483-20.356 6.926z" fill="#f87b55"/><path d="m450.837 191.328s22.539-15.378 31.672 8.61l1.141 13.699c0 .715-.166 1.419-.483 2.042l-1.422 5.749c-1.028 4.158-3.2 7.982-6.4 10.829-2.153 1.915-3.173 2.201-4.877 1.645l-23.415-6.23z" fill="#ff8d54"/><path d="m464.537 244.879 16.793 4.584 5.167 11.153-62.825 2.176 9.519-15.233 15.51-2.68z" fill="#ff8d54"/><path d="m434.022 262.434 45.684-1.582 13.465 88.9-66.308-.585z" fill="#ffedeb"/><path d="m482.786 203.259s-16.596-11.963-19.01-5.197c0 0-2.438 12.374-8.02 18.315-3.432 3.653-5.422 8.655-5.184 13.921l.315 6.969s6.295 11.989-.795 27.445c0 0 5.171 9.101 0 18.538 0 0 3.872 9.436-2.474 13.817 0 0-8.172-2.696-5.434-12.806 0 0-10.185-12.381-2.676-19.219 0 0-5.159-24.456 2.64-34.333 0 0-21.803-51.147 15.937-49.208 0 0 28.412-4.037 24.701 21.758z" fill="#592b43"/><path d="m479.706 260.852 6.792-.236s9.086 4.4 9.086 10.946c0 0-3.598 4.127-8.338 3.056 0 0-2.766-1.014-5.173 1.861z" fill="#ffedeb"/><path d="m449.441 295.346c5.505 7.359 3.015 12.667 1.627 14.672-.177.255-.567.116-.552-.194.056-1.14-.285-1.942-.687-2.483-.418-.563-1.048-.918-1.72-1.12-7.481-2.254-2.658-10.335-2.658-10.335z" fill="#592b43"/></g><path d="m457.598 229.053s.688 1.608 6.292 3.099" stroke="#d1661e" stroke-linecap="round" stroke-linejoin="round" stroke-width="1.302"/><path clip-rule="evenodd" d="m476.259 210.526.172 10.019 7.034 1.567s-4.952-10.719-7.206-11.586z" fill="#d1661e" fill-rule="evenodd"/><path d="m470.902 225.905s5.119.714 9.358-1.016" stroke="#d1661e" stroke-linecap="round" stroke-linejoin="round" stroke-width="1.2145"/><path clip-rule="evenodd" d="m468.589 210.849c.125 1.09-.327 2.036-1.011 2.115-.683.079-1.338-.741-1.463-1.83-.126-1.09.327-2.037 1.01-2.115.683-.079 1.339.741 1.464 1.83z" fill="#592b43" fill-rule="evenodd"/><path clip-rule="evenodd" d="m481.826 209.328c.125 1.089-.191 2.021-.707 2.08-.515.059-1.035-.776-1.16-1.866-.125-1.089.191-2.02.707-2.08.515-.059 1.035.776 1.16 1.866z" fill="#592b43" fill-rule="evenodd"/><path d="m467.912 204.94s-2.001 1.671-5.132 1.937" stroke="#592b43" stroke-linecap="round" stroke-linejoin="round" stroke-width="1.5"/><path clip-rule="evenodd" d="m495.821 310.892s26.219-13.087 53.763-12.757l2.662 6.398-50.692 16.243z" fill="#f87b55" fill-rule="evenodd"/><path d="m506.904 308.559s.178-1.958 1.825-2.941" stroke="#d1661e" stroke-linecap="round" stroke-linejoin="round" stroke-width="1.302"/><path d="m444.618 295.802s4.12.335 5.527-.636" stroke="#fd443b" stroke-width="1.5"/><path clip-rule="evenodd" d="m457.899 213.578s-5.205-7.756-8.137-4.648c-.659.698-.931 1.676-.846 2.632.26 2.92 1.403 10.688 6.168 9.635" fill="#ff8d54" fill-rule="evenodd"/><path d="m453.785 211.907s-3.658.623-.745 4.412" stroke="#d1661e" stroke-linecap="round" stroke-linejoin="round" stroke-width="1.302"/><path d="m433.269 271.562-.753 7.314" stroke="#204b99" stroke-linecap="round" stroke-linejoin="round" stroke-width="1.5"/><path d="m479.112 203.987s2.136-1.033 3.473.21" stroke="#592b43" stroke-linecap="round" stroke-linejoin="round" stroke-width="1.5"/><path clip-rule="evenodd" d="m429.078 264.948 39.215 38.539-4.709 11.897-44.988-36.884 7.883-12.368" fill="#ff8d54" fill-rule="evenodd"/><path clip-rule="evenodd" d="m501.149 278.952s10.765-12.507 10.417-8.806c0 0-4.827 5.946-1.413 3.97 0 0 23.352-15.32 12.454-3.51 0 0-8.811 11.156-16.775 13.453z" fill="#ff8d54" fill-rule="evenodd"/><path clip-rule="evenodd" d="m454.69 308.092s20.412-20.171 46.444-29.178l4.669 5.121-42.219 31.349z" fill="#ff8d54" fill-rule="evenodd"/><path d="m464.298 299.562s-1.195 1.977.399 4.003" stroke="#d1661e" stroke-linecap="round" stroke-linejoin="round" stroke-width="1.302"/><path clip-rule="evenodd" d="m433.936 262.434-10.954.38s-8.005 5.669-9.345 15.238c0 0 7.489 5.548 11.595 3.06 0 0 5.897-2.886 10.258-.22z" fill="#ffedeb" fill-rule="evenodd"/><path clip-rule="evenodd" d="m327.427 479.343h6.87v-152.921h-6.87z" fill="#6a1244" fill-rule="evenodd"/><path clip-rule="evenodd" d="m332.284 362.37-4.857-4.858 38.751-38.759 4.858 4.859z" fill="#6a1244" fill-rule="evenodd"/><path clip-rule="evenodd" d="m570.506 362.37 4.858-4.858-38.752-38.759-4.857 4.859z" fill="#6a1244" fill-rule="evenodd"/><path clip-rule="evenodd" d="m569.729 479.343h6.87v-152.921h-6.87z" fill="#6a1244" fill-rule="evenodd"/><path clip-rule="evenodd" d="m518.774 213.99s-16.152-6.742-14.064-3.399c0 0 7.404 3.345 3.228 3.094 0 0-29.426-3.428-13.479 2.59 0 0 13.657 6.392 22.301 4.784z" fill="#ff8d54" fill-rule="evenodd"/><path clip-rule="evenodd" d="m691.958 321.794s4.769 16.844 6.088 13.128c0 0-1.988-7.878.413-4.451 0 0 15.622 25.175 10.414 8.943 0 0-3.493-14.671-10.128-20.44z" fill="#ff8d54" fill-rule="evenodd"/><path clip-rule="evenodd" d="m619.52 225.38-52.121 22.873s-9.947-4.36-6.598-13.559l51.808-35.467z" fill="#96b6ec" fill-rule="evenodd"/><path clip-rule="evenodd" d="m590.766 393.56 20.47-1.242s14.673 11.149 0 66.733l-10.802 2.485z" fill="#4c223a" fill-rule="evenodd"/><path clip-rule="evenodd" d="m664.181 305.12 2.094 95.874-20.745-6.375-11.599-79.993z" fill="#592b43" fill-rule="evenodd"/><path clip-rule="evenodd" d="m645.53 394.619 20.443-7.474s17.699 3.797 20.243 67.872l-10.233 5.806z" fill="#592b43" fill-rule="evenodd"/><path clip-rule="evenodd" d="m647.33 195.134-1.435-22.342-19.292 17.506-.67 5.828s9.584 13.375 21.397-.992z" fill="#ff8d54" fill-rule="evenodd"/><path clip-rule="evenodd" d="m621.125 188.883 5.518 1.228c1.152.257 2.357.138 3.438-.339 7.166-3.161 9.862-7.327 13.129-14.447l4.67-5.01-6.678-19.073-26.598 2.051-1.661 9.17c-.512 2.824-.434 5.723.229 8.515l3.115 13.133c.566 2.386 2.445 4.239 4.838 4.772z" fill="#ff8d54" fill-rule="evenodd"/><path clip-rule="evenodd" d="m621.125 188.883 5.518 1.228c1.152.257 2.357.138 3.438-.339 7.166-3.161 9.01-8.357 12.277-15.476l5.522-3.981-6.678-19.073-26.598 2.051-1.661 9.17c-.512 2.824-.434 5.723.229 8.515l3.115 13.133c.566 2.386 2.445 4.239 4.838 4.772z" fill="#ff8d54" fill-rule="evenodd"/><path clip-rule="evenodd" d="m640.067 161.208 1.641 9.246 5.116-2.057 1.755-6.211s3.439-19.888-8.683-22.605c0 0-2.535-.812-7.489.202 0 0-5.528.989-8.98-2.366-1.04-1.011-2.194-1.904-3.5-2.533-2.803-1.35-7.004-2.144-9.372 3.309 0 0-7.275 13.442 3.548 17.867 0 0 7.001 2.714 11.694-.891.223-.171.459-.325.715-.44.08-.035.17-.074.271-.116 6.138-2.537 11.407.223 13.284 6.595z" fill="#6a1244" fill-rule="evenodd"/><path clip-rule="evenodd" d="m642.726 167.479s4.245-4.754 6.689-2.069c1.217 1.337 1.214 3.381.152 4.845-1.098 1.512-3.182 3.784-7.089 6.632l-2.086-4.474" fill="#ff8d54" fill-rule="evenodd"/><path clip-rule="evenodd" d="m619.09 167.791-.266 9.016-5.562 1.502s4.041-9.709 5.828-10.518z" fill="#d1661e" fill-rule="evenodd"/><path d="m623.562 181.328s-4.541 1.033-8.48-.197" stroke="#d1661e" stroke-linecap="round" stroke-linejoin="round" stroke-width="1.0945"/><path clip-rule="evenodd" d="m625.633 168.121c-.113.982.295 1.835.91 1.906.616.071 1.206-.668 1.319-1.65s-.294-1.835-.91-1.906-1.206.668-1.319 1.65z" fill="#592b43" fill-rule="evenodd"/><path clip-rule="evenodd" d="m613.703 166.749c-.113.983.172 1.822.637 1.875s.932-.699 1.045-1.681-.172-1.821-.637-1.874c-.464-.054-.932.699-1.045 1.68z" fill="#592b43" fill-rule="evenodd"/><path d="m626.242 162.796s3.205-.413 4.611 1.807" stroke="#592b43" stroke-linecap="round" stroke-linejoin="round" stroke-width="1.5"/><path d="m616.316 161.509s-1.66-1.397-3.03-.17" stroke="#592b43" stroke-linecap="round" stroke-linejoin="round" stroke-width="1.5"/><path clip-rule="evenodd" d="m625.934 196.127s9.401 11.526 21.396-.993l20.989 9.092-5.253 58.957 5.253 40.861s-47.274 26.267-63.615 8.755l3.459-55.823 4.447-57.749z" fill="#96b6ec" fill-rule="evenodd"/><path clip-rule="evenodd" d="m634.311 317.247-26.531 87.657-17.013-11.344 13.937-80.761z" fill="#4c223a" fill-rule="evenodd"/><path clip-rule="evenodd" d="m668.164 204.226 23.341 60.462s-5.738 15.153-13.947 9.823l-13.316-24.521z" fill="#96b6ec" fill-rule="evenodd"/><path d="m637.851 185.901s-4.407 4.649-12.308 4.053" stroke="#d1661e" stroke-linecap="round" stroke-linejoin="round" stroke-width="1.0945"/><path d="m647.88 169.183s-1.187-3.333-3.882.567" stroke="#d1661e" stroke-linecap="round" stroke-linejoin="round" stroke-width="1.0945"/><path clip-rule="evenodd" d="m645.939 143.615s8.071-3.386 6.402 4.069l-4.163 15.923-3.401-11.433" fill="#6a1244" fill-rule="evenodd"/><path d="m646.678 173.762s-2.709 3.33-5.36 1.714" stroke="#d1661e" stroke-linecap="round" stroke-linejoin="round" stroke-width="1.0945"/><path clip-rule="evenodd" d="m611.236 459.051v15.873s-28.199 17.121-36.527 9.254c0 0 12.357-11.969 25.725-22.642z" fill="#912d51" fill-rule="evenodd"/><path clip-rule="evenodd" d="m686.163 454.102 3.751 15.423s-23.356 23.301-33.306 17.626c0 0 9.179-14.551 19.647-28.081z" fill="#912d51" fill-rule="evenodd"/><path clip-rule="evenodd" d="m677.558 274.511s2.882 39.676 15.121 50.917l8.992-3.747-10.166-56.993z" fill="#96b6ec" fill-rule="evenodd"/><path clip-rule="evenodd" d="m567.381 231.2s-33.525-21.405-49.851-18.311l-2.371 9.449 51.758 25.916z" fill="#96b6ec" fill-rule="evenodd"/><path clip-rule="evenodd" d="m311.369 334.192h281.38v-15.538h-281.38z" fill="#a8385b" fill-rule="evenodd"/><path clip-rule="evenodd" d="m360.559 318.653h84.059v-59.938h-84.059z" fill="#d86a6a" fill-rule="evenodd"/><path clip-rule="evenodd" d="m368.173 318.654h84.059v-6.947h-84.059z" fill="#6a1244" fill-rule="evenodd"/><path clip-rule="evenodd" d="m360.559 318.654h7.614v-6.947h-7.614z" fill="#3f123b" fill-rule="evenodd"/><path clip-rule="evenodd" d="m365.184 305.619h75.36v-41.441h-75.36z" fill="#fbeedd" fill-rule="evenodd"/><path clip-rule="evenodd" d="m403.614 261.555c0 .371-.301.672-.671.672-.371 0-.672-.301-.672-.672s.301-.672.672-.672c.37 0 .671.301.671.672z" fill="#fbeedd" fill-rule="evenodd"/><path clip-rule="evenodd" d="m410.887 309.335h-13.156c-.347 0-.629-.281-.629-.629s.282-.629.629-.629h13.156c.348 0 .629.281.629.629s-.281.629-.629.629z" fill="#fbeedd" fill-rule="evenodd"/><path clip-rule="evenodd" d="m356.021 318.653h4.556v-59.938h-4.556z" fill="#3f123b" fill-rule="evenodd"/><path clip-rule="evenodd" d="m368.173 301.868h29.016v-33.32h-29.016z" fill="#fcc6b9" fill-rule="evenodd"/><path clip-rule="evenodd" d="m400.136 279.405h37.757v-10.857h-37.757z" fill="#fcc6b9" fill-rule="evenodd"/><path clip-rule="evenodd" d="m400.137 301.594h17.751v-19.84h-17.751z" fill="#fcc6b9" fill-rule="evenodd"/><path clip-rule="evenodd" d="m419.885 290.579h17.751v-8.824h-17.751z" fill="#fcc6b9" fill-rule="evenodd"/><path clip-rule="evenodd" d="m419.885 301.548h17.751v-8.824h-17.751z" fill="#fcc6b9" fill-rule="evenodd"/></svg>