<svg fill="none" height="560" viewBox="0 0 960 560" width="960" xmlns="http://www.w3.org/2000/svg"><path d="m0 0h960v560h-960z" fill="#ffeae6"/><g clip-rule="evenodd" fill-rule="evenodd"><path d="m345.169 261.656h325.262v-162.8774h-325.262z" fill="#d86a6a"/><path d="m351.064 261.656h323.762v-162.8774h-323.762z" fill="#f7aa9a"/><path d="m364.305 141.698h25.087v-25.124h-25.087z" fill="#ecf0f1"/><path d="m422.496 153.013h25.088v-25.124h-25.088z" fill="#ecf0f1"/><path d="m517.063 183.569h25.087v-25.124h-25.087z" fill="#ecf0f1"/><path d="m472.162 232.546h25.087v-25.125h-25.087z" fill="#ecf0f1"/><path d="m620.292 148.353h25.088v-25.124h-25.088z" fill="#ecf0f1"/><path d="m560.847 154.26h25.087v-25.124h-25.087z" fill="#ecf0f1"/><path d="m616.907 239.315h25.088v-25.125h-25.088z" fill="#ecf0f1"/><path d="m374.291 118.573h5.655v-7.447h-5.655z" fill="#ce5777"/><path d="m432.212 129.494h5.655v-7.447h-5.655z" fill="#ce5777"/><path d="m489.062 209.273h5.656v-7.447h-5.656z" fill="#ce5777"/><path d="m474.693 209.273h5.655v-7.447h-5.655z" fill="#ce5777"/><path d="m526.997 160.046h5.656v-7.447h-5.656z" fill="#ce5777"/><path d="m626.623 215.679h5.656v-7.447h-5.656z" fill="#ce5777"/><path d="m630.994 124.812h5.656v-7.446h-5.656z" fill="#ce5777"/><path d="m563.378 130.825h5.655v-7.447h-5.655z" fill="#ce5777"/><path d="m577.747 130.825h5.655v-7.447h-5.655z" fill="#ce5777"/><path d="m366.78 123.229h20.025v-3.223h-20.025z" fill="#d86a6a"/><path d="m366.78 128.695h10.998v-3.223h-10.998z" fill="#d86a6a"/><path d="m425.027 134.984h20.024v-3.223h-20.024z" fill="#d86a6a"/><path d="m425.027 139.953h20.024v-3.223h-20.024z" fill="#d86a6a"/><path d="m425.028 144.92h10.997v-3.222h-10.997z" fill="#d86a6a"/><path d="m519.813 165.06h20.024v-3.223h-20.024z" fill="#d86a6a"/><path d="m519.813 170.028h18.002v-3.223h-18.002z" fill="#d86a6a"/><path d="m474.693 214.359h20.024v-3.223h-20.024z" fill="#d86a6a"/><path d="m474.693 219.327h18.002v-3.223h-18.002z" fill="#d86a6a"/><path d="m619.439 220.515h20.024v-3.223h-20.024z" fill="#d86a6a"/><path d="m619.439 225.482h20.024v-3.222h-20.024z" fill="#d86a6a"/><path d="m619.439 230.451h10.997v-3.223h-10.997z" fill="#d86a6a"/><path d="m622.824 130.324h20.024v-3.222h-20.024z" fill="#d86a6a"/><path d="m622.824 135.791h10.998v-3.223h-10.998z" fill="#d86a6a"/><path d="m563.378 135.791h20.024v-3.223h-20.024z" fill="#d86a6a"/><path d="m563.378 141.257h10.998v-3.222h-10.998z" fill="#d86a6a"/><path d="m711.496 327.322h15.923v-4.054h-15.923z" fill="#c65c5c"/><path d="m722.308 323.268h-14.883c-4.616 0-8.358-3.747-8.358-8.37v-18.396h31.599v18.396c0 4.623-3.742 8.37-8.358 8.37z" fill="#fff"/><path d="m720.683 320.85h-14.252c-3.379 0-6.119-2.744-6.119-6.128v-10.986h26.49v10.986c0 3.384-2.739 6.128-6.119 6.128z" fill="#d86a6a"/><path d="m714.866 327.322h15.924v-4.054h-15.924z" fill="#d86a6a"/><path d="m729.75 323.268h-14.884c-4.615 0-8.357-3.747-8.357-8.37v-18.396h31.599v18.396c0 4.623-3.743 8.37-8.358 8.37z" fill="#fff"/><path d="m729.434 320.85h-14.252c-3.38 0-6.119-2.744-6.119-6.128v-10.986h26.49v10.986c0 3.384-2.74 6.128-6.119 6.128z" fill="#f7aa9a"/><path d="m740.747 299.29h-2.639v3.755h2.639c1.262 0 2.289 1.029 2.289 2.292v7.517c0 1.264-1.027 2.293-2.289 2.293h-2.652c-.04 1.357-.394 2.634-1.004 3.755h3.656c3.33 0 6.039-2.713 6.039-6.048v-7.517c0-3.334-2.709-6.047-6.039-6.047z" fill="#d86a6a"/><path d="m681.891 388.471h21.247v-61.68h-21.247z" fill="#6a1244"/><path d="m226.503 383.754h-83.742c-1.019 0-1.846-.827-1.846-1.848v-5.855c0-1.021.827-1.848 1.846-1.848h83.742c1.019 0 1.845.827 1.845 1.848v5.855c0 1.021-.826 1.848-1.845 1.848z" fill="#c65c5c"/><path d="m190.177 374.672h-11.344c-11.933 0-21.606-9.688-21.606-21.638v-29.794h54.556v29.794c0 11.95-9.673 21.638-21.606 21.638z" fill="#f7aa9a"/><path d="m216.236 323.241h-59.009l-2.25-7.45h59.009z" fill="#6a1244"/><path d="m153.992 287.401c-6.096 11.872 13.629 20.775 20.954 31.964 5.762 8.799 12.261 17.091 19.871 24.346l10.366 9.881c1.285-15.939-9.244-17.128-7.72-33.366 1.54-16.4 12.303-15.361 13.843-31.762 1.539-16.399-21.289-7.636-7.685-33.838 1.689-3.252 3.756-9.545 3.939-12.993.532-10.068-4.814-16.348-7.335-18.855-3.654-3.634-8.154-5.629-12.21-6.717-4.693-1.259-9.607-1.457-14.414-.757-2.844.414-6.685 1.024-8.628 1.556-22.578 6.187-25.151 34.951-24.813 38.581 1.534 16.467 27.529 5.285 13.832 31.96z" fill="#ce5777"/><path d="m161.096 462.231-10.385-.072 19.256-83.875 9.879 2.275z" fill="#f7aa9a"/><path d="m189.866 462.159h10.136v-83.803h-10.136z" fill="#f7aa9a"/><path d="m227.056 462.231h10.401l-19.272-83.947-9.879 2.275z" fill="#f7aa9a"/><path d="m158.043 287.401c-6.096 11.872 13.629 20.775 20.954 31.964 5.762 8.799 12.261 17.091 19.871 24.346l10.366 9.881c1.285-15.939-9.244-17.128-7.72-33.366 1.54-16.4 12.303-15.361 13.843-31.762 1.539-16.399-21.289-7.636-7.685-33.838 1.689-3.252 3.756-9.545 3.939-12.993.532-10.068-4.814-16.348-7.335-18.855-3.654-3.634-8.154-5.629-12.21-6.717-4.693-1.259-9.606-1.457-14.414-.757-2.844.414-6.685 1.024-8.628 1.556-22.578 6.187-25.151 34.951-24.813 38.581 1.534 16.467 27.529 5.285 13.832 31.96z" fill="#ce5777"/><path d="m198.798 285.564c-6.879 3.824-1.631 14.605-2.225 22.452-.686 9.078-.161 18.206 1.013 27.234.051.385.536.525.79.231 5.697-6.6 1.743-11.097 8.389-17.903 6.959-7.127 11.626-2.535 18.585-9.662 6.958-7.126-7.79-11.444 9.249-18.845 2.032-.882 5.395-3.057 6.792-4.609 4.077-4.532 3.95-9.524 3.717-11.665-.814-7.493-7.585-12.371-7.838-12.551-.008-.006-.006-.004-.014-.009-.198-.122-4.618-2.846-6.478-3.664-12.971-5.698-25.116 6.85-26.336 8.686-5.539 8.33 8.177 12.622-5.644 20.305z" fill="#f7aa9a"/><path d="m236.805 383.754h-83.742c-1.02 0-1.846-.827-1.846-1.848v-5.855c0-1.021.826-1.848 1.846-1.848h83.742c1.019 0 1.845.827 1.845 1.848v5.855c0 1.021-.826 1.848-1.845 1.848z" fill="#d86a6a"/><path d="m200.479 374.672h-11.344c-11.933 0-21.606-9.688-21.606-21.638v-29.794h54.556v29.794c0 11.95-9.673 21.638-21.606 21.638z" fill="#f9f9f9"/><path d="m224.288 323.241h-59.01l-1.5-7.45h62.76z" fill="#912d51"/><path d="m472.678 417.516h-207.153v-125.491c0-6.222 5.037-11.266 11.25-11.266h184.653c6.213 0 11.25 5.044 11.25 11.266z" fill="#6a1244"/><path d="m676.222 417.516h-189.345v-125.986c0-5.949 4.815-10.771 10.755-10.771h167.834c5.94 0 10.756 4.822 10.756 10.771z" fill="#6a1244"/><path d="m231.348 440.308h34.177v-113.517h-33.403c-9.799 0-17.742 7.955-17.742 17.768v78.756c0 9.385 7.597 16.993 16.968 16.993z" fill="#6a1244"/><path d="m302.073 460.84h-30.797c-1.519 0-2.751-1.234-2.751-2.756v-17.776h36.3v17.776c0 1.522-1.232 2.756-2.752 2.756z" fill="#c65c5c"/><path d="m682.692 460.84h-30.797c-1.519 0-2.751-1.234-2.751-2.756v-17.776h36.299v17.776c0 1.522-1.231 2.756-2.751 2.756z" fill="#c65c5c"/><path d="m495.985 417.516h-207.152v-125.491c0-6.222 5.037-11.266 11.25-11.266h184.652c6.214 0 11.25 5.044 11.25 11.266z" fill="#a8385b"/><path d="m332.428 329.536c0 2.267-1.835 4.106-4.1 4.106-2.264 0-4.1-1.839-4.1-4.106 0-2.268 1.836-4.107 4.1-4.107 2.265 0 4.1 1.839 4.1 4.107z" fill="#912d51"/><path d="m464.639 329.536c0 2.267-1.835 4.106-4.1 4.106-2.264 0-4.1-1.839-4.1-4.106 0-2.268 1.836-4.107 4.1-4.107 2.265 0 4.1 1.839 4.1 4.107z" fill="#912d51"/><path d="m682.09 417.516h-181.59v-126.209c0-5.826 4.716-10.548 10.534-10.548h160.524c5.817 0 10.532 4.722 10.532 10.548z" fill="#a8385b"/><path d="m593.404 378.963h-31.499c0-2.766 2.102-5.078 4.852-5.338l26.647-2.516z" fill="#6a1244"/><path d="m648.699 378.963h31.499c0-2.766-2.102-5.078-4.852-5.338l-26.647-2.516z" fill="#6a1244"/><path d="m495.985 417.516h-207.135v-32.967c0-3.322 2.689-6.015 6.006-6.015h195.123c3.317 0 6.006 2.693 6.006 6.015z" fill="#912d51"/><path d="m704.303 440.309h-420.045c-2.656 0-4.809-2.156-4.809-4.816v-17.977h429.663v17.977c0 2.66-2.153 4.816-4.809 4.816z" fill="#a8385b"/><path d="m703.137 417.516h-202.636v-33.033c0-3.285 2.659-5.949 5.94-5.949h190.756c3.281 0 5.94 2.664 5.94 5.949z" fill="#912d51"/><path d="m237.688 440.308h51.145v-113.517h-33.404c-9.798 0-17.741 7.955-17.741 17.768z" fill="#a8385b"/><path d="m703.138 440.308h51.145v-95.749c0-9.813-7.943-17.768-17.741-17.768h-33.404z" fill="#a8385b"/><path d="m322.381 460.84h-30.797c-1.519 0-2.751-1.234-2.751-2.756v-17.776h36.299v17.776c0 1.522-1.231 2.756-2.751 2.756z" fill="#d86a6a"/><path d="m702.999 460.84h-30.797c-1.519 0-2.751-1.234-2.751-2.756v-17.776h36.3v17.776c0 1.522-1.232 2.756-2.752 2.756z" fill="#d86a6a"/><path d="m435.431 453.512 3.24 15.559s31.101 11.016 37.647 1.603c0 0-14.54-9.206-29.805-16.934z" fill="#ff8d54"/><path d="m398.423 381.691-15.889 15.201s2.021 26.29 54.883 62.268l9.821-5.35z" fill="#ff8d54"/><path d="m384.766 268.034s39.358-3.261 52.539 6.871l-2.173 7.561-57.635 1.022z" fill="#ff8d54"/><path d="m469.122 395.523 13.411 8.498s29.543-14.701 27.349-25.96c0 0-16.72 4.051-32.885 9.65z" fill="#ff8d54"/><path d="m418.454 352.782-6.72 19.432s5.01 17.758 62.102 24.427l6.261-9.159z" fill="#ff8d54"/><path d="m337.672 385.935 79.856-1.36 1.21-32.544-81.847 3.931z" fill="#4c223a"/><path d="m433.818 282.06s15.947 7.225 13.958 3.817c0 0-7.302-3.566-3.135-3.191 0 0 29.313 4.298 13.549-2.196 0 0-13.463-6.8-22.15-5.446z" fill="#ff8d54"/><path d="m320.187 361.554s15.137 8.8 11.212 9.159c0 0-7.141-3.88-4.415-.701 0 0 20.525 21.395 6.088 12.32 0 0-13.349-7.023-17.295-14.891z" fill="#ff8d54"/><path d="m330.595 287.261 56.756-3.947s6.641-9.333-.682-15.837l-62.441-6.54z" fill="#7faadd"/><path d="m322.057 390.354 60.476 16.656 24.867-25.32-94.465-31.245-15.835 5.826c-.647 15.803 1.64 30.749 24.957 34.083z" fill="#592b43"/><path d="m293.875 264.089-3.116-22.199 22.436 13.256 1.835 5.58s-6.679 15.058-21.155 3.363z" fill="#ff8d54"/><path d="m310.607 256.074-5.627.537c-1.176.113-2.357-.154-3.37-.762-6.721-4.028-8.881-8.502-11.243-15.98l-4.015-5.557 8.985-18.124 26.139 5.331.516 9.318c.158 2.869-.277 5.74-1.28 8.432l-4.715 12.663c-.857 2.3-2.95 3.909-5.39 4.142z" fill="#ff8d54"/><path d="m310.607 256.074-5.627.537c-1.176.113-2.357-.154-3.37-.762-6.721-4.028-7.909-9.419-10.27-16.897l-4.988-4.64 8.985-18.124 26.139 5.331.516 9.318c.158 2.869-.277 5.74-1.28 8.432l-4.715 12.663c-.857 2.3-2.95 3.909-5.39 4.142z" fill="#ff8d54"/><path d="m295.231 226.23-2.772 8.984-4.822-2.677-.974-6.389s-.954-20.188 11.411-21.385c0 0 2.616-.494 7.406 1.128 0 0 5.364 1.667 9.204-1.24 1.158-.875 2.412-1.619 3.786-2.083 2.949-.994 7.215-1.262 8.892 4.449 0 0 5.557 14.257-5.73 17.314 0 0-7.283 1.828-11.495-2.334-.199-.198-.414-.38-.655-.526-.074-.045-.159-.094-.254-.148-5.777-3.281-11.346-1.192-13.997 4.907z" fill="#6a1244"/><path d="m291.817 232.132s-3.624-5.248-6.382-2.884c-1.373 1.178-1.622 3.21-.749 4.795.902 1.64 2.689 4.155 6.214 7.468l2.624-4.187" fill="#ff8d54"/><path d="m315.233 235.369-.85 8.992 5.333 2.18s-2.81-10.147-4.483-11.172z" fill="#d1661e"/></g><path d="m309.122 248.266s4.38 1.589 8.44.855" stroke="#d1661e" stroke-linecap="round" stroke-linejoin="round" stroke-width="1.0945"/><path clip-rule="evenodd" d="m308.7 234.886c-.009.99-.519 1.787-1.139 1.782-.62-.006-1.114-.813-1.105-1.803.01-.99.52-1.787 1.139-1.781.62.006 1.115.813 1.105 1.802z" fill="#592b43" fill-rule="evenodd"/><path clip-rule="evenodd" d="m320.707 235.001c-.009.99-.396 1.788-.863 1.784-.468-.005-.839-.811-.83-1.8.01-.99.396-1.789.864-1.784.467.004.839.81.829 1.8z" fill="#592b43" fill-rule="evenodd"/><path d="m308.753 229.52s-3.129-.806-4.799 1.225" stroke="#592b43" stroke-linecap="round" stroke-linejoin="round" stroke-width="1.5"/><path d="m318.762 229.471s1.82-1.182 3.028.206" stroke="#592b43" stroke-linecap="round" stroke-linejoin="round" stroke-width="1.5"/><path clip-rule="evenodd" d="m315.03 260.726s-6.874 13.209-21.155 3.364l-18.714 13.17 17.074 56.746 4.775 40.843s51.354-6.142 60.159-20.94l-12.423-37.116-16.04-55.727z" fill="#fff" fill-rule="evenodd"/><path clip-rule="evenodd" d="m343.091 300.392-2.336-1.564-4.694 28.201 2.157 2.507z" fill="#63325a" fill-rule="evenodd"/><path clip-rule="evenodd" d="m353.334 323.983-15.116 5.553 4.873-29.144 15.956-3.919z" fill="#773869" fill-rule="evenodd"/><path clip-rule="evenodd" d="m275.149 277.881 9.44 65.504c.779 5.405 7.045 8.016 11.419 4.754 2.218-1.654 4.518-3.396 6.543-4.985l-6.228-31.22c-2.4-12.03-8.661-22.945-17.828-31.082z" fill="#96b6ec" fill-rule="evenodd"/><path d="m286.492 233.187s1.591-3.165 3.782 1.044" stroke="#d1661e" stroke-linecap="round" stroke-linejoin="round" stroke-width="1.0945"/><path clip-rule="evenodd" d="m291.578 208.023s-7.59-4.363-6.855 3.249l2.163 16.338 4.787-10.939" fill="#6a1244" fill-rule="evenodd"/><path d="m287.119 237.885s2.277 3.645 5.107 2.368" stroke="#d1661e" stroke-linecap="round" stroke-linejoin="round" stroke-width="1.0945"/><path clip-rule="evenodd" d="m331.792 321.038s12.952-11.789 12.107-7.933c0 0-5.852 5.643-2.002 4.002 0 0 26.57-13.123 13.567-2.087 0 0-10.721 10.619-19.403 12.009z" fill="#ff8d54" fill-rule="evenodd"/><path clip-rule="evenodd" d="m284.533 337.795s30.195-14.678 47.259-16.757l4.27 5.991-39.873 21.807c-5.068 2.771-11.277-.765-11.491-6.544z" fill="#ff8d54" fill-rule="evenodd"/><path d="m300.948 254.127s5.257 3.665 12.873 1.48" stroke="#d1661e" stroke-linecap="round" stroke-linejoin="round" stroke-width="1.0945"/><path clip-rule="evenodd" d="m343.091 300.392-2.336-1.564 16.414-3.872 1.878 1.516z" fill="#63325a" fill-rule="evenodd"/><path clip-rule="evenodd" d="m538.34 329.536c0 2.267-1.836 4.106-4.1 4.106-2.265 0-4.1-1.839-4.1-4.106 0-2.268 1.835-4.107 4.1-4.107 2.264 0 4.1 1.839 4.1 4.107z" fill="#912d51" fill-rule="evenodd"/><path clip-rule="evenodd" d="m655.551 329.536c0 2.267-1.835 4.106-4.1 4.106-2.264 0-4.1-1.839-4.1-4.106 0-2.268 1.836-4.107 4.1-4.107 2.265 0 4.1 1.839 4.1 4.107z" fill="#912d51" fill-rule="evenodd"/><path clip-rule="evenodd" d="m666.061 378.932c-1.457-16.164-19.417-33.953-40.031-28.929-40.977 9.987-38.573 12.765-40.03 28.929z" fill="#8e2651" fill-rule="evenodd"/><path clip-rule="evenodd" d="m583.323 367.899c-1.078-8.971-1.078-13.943-1.078-13.943 4.431 0 11.159 6.514 11.159 6.514" fill="#6a1244" fill-rule="evenodd"/><path clip-rule="evenodd" d="m604.805 360.47s6.728-6.514 11.159-6.514c0 0-1.221 8.258-1.077 13.943" fill="#6a1244" fill-rule="evenodd"/><path clip-rule="evenodd" d="m583.67 378.332c.238.167.445.36.637.565 5.608-.005 11.216-.023 16.823.002 4.126.018 8.656.395 12.64-.892 1.339-1.123 2.194-2.805 2.194-4.691 0-7.359-5.958-13.326-13.306-13.326h-8.292c-7.349 0-13.307 5.967-13.307 13.326 0 2.076 1.033 3.91 2.611 5.016z" fill="#ce5777" fill-rule="evenodd"/><path clip-rule="evenodd" d="m603.451 378.932v-1.037c0-3.814-2.874-7.145-6.675-7.392-4.165-.269-7.627 3.034-7.627 7.147v1.24c.762-.001 14.302.042 14.302.042z" fill="#f2bdd2" fill-rule="evenodd"/><path clip-rule="evenodd" d="m598.582 369.373c0 .491-1.021 1.566-2.281 1.566s-2.282-1.075-2.282-1.566c0-.49 1.022-.888 2.282-.888s2.281.398 2.281.888z" fill="#6a1244" fill-rule="evenodd"/><path d="m601.736 366.897s2.596 2.186 5.193 0" stroke="#6a1244" stroke-linecap="round" stroke-linejoin="round" stroke-width="1.5"/><path d="m586.016 366.897s2.448 2.255 5.193 0" stroke="#6a1244" stroke-linecap="round" stroke-linejoin="round" stroke-width="1.5"/><path d="m596.031 370.489-1.457 3.735" stroke="#6a1244" stroke-linecap="round" stroke-linejoin="round" stroke-width="1.5"/><path d="m596.198 370.489 1.457 3.735" stroke="#6a1244" stroke-linecap="round" stroke-linejoin="round" stroke-width="1.5"/><path d="m582.511 373.479-2.924 1.416" stroke="#6a1244" stroke-linecap="round" stroke-linejoin="round" stroke-width="1.5"/><path d="m583.503 376.018-1.984 2.643" stroke="#6a1244" stroke-linecap="round" stroke-linejoin="round" stroke-width="1.5"/><path d="m608.787 373.375 2.924 1.416" stroke="#6a1244" stroke-linecap="round" stroke-linejoin="round" stroke-width="1.5"/><path d="m607.795 375.915 1.984 2.643" stroke="#6a1244" stroke-linecap="round" stroke-linejoin="round" stroke-width="1.5"/><path clip-rule="evenodd" d="m602.658 359.991s-5.291-.493-6.627-3.348c0 0-.668 1.751.168 2.333 0 0-2.602.747-3.924-.659 0 0-.713 1.983 2.525 2.142" fill="#ce5777" fill-rule="evenodd"/><path clip-rule="evenodd" d="m656.349 362.895c-3.118 0-5.953 1.219-8.078 3.213-4.319 4.053-9.698 6.792-15.59 7.347l-1.799.171c-2.751.259-4.852 2.571-4.852 5.338h19.005 12.494 10.134c.406-1.224.635-2.53.635-3.894 0-6.723-5.349-12.175-11.949-12.175z" fill="#7f2047" fill-rule="evenodd"/><path clip-rule="evenodd" d="m617.825 378.963h-31.498c0-2.766 2.101-5.078 4.851-5.338l26.647-2.516z" fill="#8e2651" fill-rule="evenodd"/><path clip-rule="evenodd" d="m561.906 378.963h9.188c.047-.436.077-.882.077-1.339 0-1.597-.302-3.081-.816-4.339l-3.598.34c-2.75.26-4.851 2.572-4.851 5.338z" fill="#f2bdd2" fill-rule="evenodd"/><path clip-rule="evenodd" d="m626.031 378.963h9.188c.047-.436.077-.882.077-1.339 0-1.597-.301-3.081-.815-4.339l-3.599.34c-2.75.26-4.851 2.572-4.851 5.338z" fill="#f2bdd2" fill-rule="evenodd"/><path clip-rule="evenodd" d="m585.646 378.963h9.189c.047-.436.077-.882.077-1.339 0-1.597-.302-3.081-.816-4.339l-3.599.34c-2.749.26-4.851 2.572-4.851 5.338z" fill="#f2bdd2" fill-rule="evenodd"/><path clip-rule="evenodd" d="m677.042 403.113c-1.742 0-3.155-1.415-3.155-3.16v-21.418h6.311v21.418c0 1.745-1.413 3.16-3.156 3.16z" fill="#6a1244" fill-rule="evenodd"/><path clip-rule="evenodd" d="m680.122 378.535c.001-.02.011-.037.011-.057 0-.864-1.398-1.564-3.123-1.564-1.724 0-3.122.7-3.122 1.564 0 .02.01.037.011.057z" fill="#6a1244" fill-rule="evenodd"/><path clip-rule="evenodd" d="m527.908 508.436h291.958v-456.8374h-291.958z" fill="#ce5777" fill-rule="evenodd" opacity=".9"/><path clip-rule="evenodd" d="m527.908 109.91h291.958v-58.3114h-291.958z" fill="#ce5777" fill-rule="evenodd"/><path clip-rule="evenodd" d="m799.33 80.8496c0 9.4405-7.642 17.0928-17.068 17.0928s-17.068-7.6523-17.068-17.0928c0-9.4404 7.642-17.0933 17.068-17.0933s17.068 7.6529 17.068 17.0933z" fill="#6a1244" fill-rule="evenodd"/><path clip-rule="evenodd" d="m559.212 97.6488h177.201c8.698 0 15.749-7.062 15.749-15.7724v-2.0545c0-8.7104-7.051-15.7723-15.749-15.7723h-177.201c-8.698 0-15.749 7.0619-15.749 15.7723v2.0545c0 8.7104 7.051 15.7724 15.749 15.7724z" fill="#fbeedd" fill-rule="evenodd"/><path clip-rule="evenodd" d="m784.168 87.3821c-.205-.0991-.431-.1692-.61-.3024-.725-.5423-.809-1.5999-.177-2.2959.506-.5588 1.039-1.0936 1.56-1.6394.23-.2409.46-.4827.734-.7702h-.317c-3.309 0-6.617.0005-9.927 0-.685-.0005-1.213-.353-1.445-.9604-.236-.6169-.07-1.3044.423-1.7396.301-.2659.659-.355 1.055-.3545 3.166.004 6.332.002 9.498.002h.7c-.082-.0901-.134-.1507-.19-.2088-.679-.7126-1.359-1.4246-2.04-2.1357-.438-.4576-.585-.9949-.406-1.6023.319-1.0846 1.618-1.4181 2.411-.6114.802.8152 1.582 1.6509 2.371 2.4781.713.7471 1.418 1.5008 2.139 2.2403.307.316.591.638.697 1.0801v.5719c-.12.4452-.418.7671-.726 1.0891-1.404 1.4687-2.804 2.9404-4.197 4.4195-.309.3285-.628.625-1.077.7396z" fill="#ce5777" fill-rule="evenodd"/><path clip-rule="evenodd" d="m685.007 250.714-18.791.188c-15.035.152-27.107 11.891-26.963 26.221.143 14.33 12.448 25.825 27.483 25.675l18.791-.189s.1.002.156-.002c28.941-1.807 51.737-24.771 51.46-52.465z" fill="#fff" fill-rule="evenodd"/><path clip-rule="evenodd" d="m672.212 228.4c-2.868.029-5.216-2.277-5.245-5.149s2.273-5.224 5.141-5.252c2.868-.029 5.216 2.275 5.245 5.148.029 2.872-2.273 5.223-5.141 5.253zm33.375 1.851c-.167-6.606-5.65-11.826-12.246-11.658-1.048.027-2.055.201-3.016.479-4.196-9.842-14.054-16.704-25.393-16.59-14.977.15-26.997 12.432-26.847 27.431.01.985.075 1.955.186 2.911l.3 24.914c.7-.977 1.452-1.911 2.255-2.802.028-.031.056-.063.084-.094 1.177-1.295 2.454-2.491 3.827-3.579.195-.155.396-.304.595-.456.637-.481 1.29-.939 1.963-1.372.338-.219.678-.432 1.025-.639.365-.215.729-.43 1.104-.632.641-.347 1.297-.67 1.964-.974.303-.136.609-.262.917-.39.666-.278 1.342-.537 2.031-.77.215-.072.428-.143.644-.211.77-.241 1.555-.448 2.349-.631.215-.049.429-.102.646-.147.879-.183 1.77-.329 2.675-.437.187-.023.375-.039.563-.058.961-.098 1.93-.167 2.915-.177l28.497-.307-.137-13.479z" fill="#fff" fill-rule="evenodd"/><path clip-rule="evenodd" d="m686.447 310.493c-.068.005-.158.006-.235.007-.093.001-.168 0-.168 0l-19.958.202c-8.755.088-16.73-3.39-22.553-9.077 7.761 21.763 27.855 37.164 51.334 36.928l-.291-29.143c-2.651.529-5.361.903-8.129 1.083z" fill="#fff" fill-rule="evenodd"/><path clip-rule="evenodd" d="m563.52 85.9766h-1.35l-3.33-6.6999h2.37l1.725 3.5602 1.695-3.6504h1.14l1.695 3.6504 1.725-3.5602h2.37l-3.33 6.6999h-1.35l-1.68-3.8157z" fill="#592b43" fill-rule="evenodd"/><path clip-rule="evenodd" d="m576.3 85.9766h-1.35l-3.33-6.6999h2.37l1.725 3.5602 1.695-3.6504h1.14l1.695 3.6504 1.725-3.5602h2.37l-3.33 6.6999h-1.35l-1.68-3.8157z" fill="#592b43" fill-rule="evenodd"/><path clip-rule="evenodd" d="m589.08 85.9766h-1.35l-3.33-6.6999h2.37l1.725 3.5602 1.695-3.6504h1.139l1.696 3.6504 1.724-3.5602h2.37l-3.33 6.6999h-1.349l-1.681-3.8157z" fill="#592b43" fill-rule="evenodd"/><path clip-rule="evenodd" d="m598.605 83.4832c.765 0 1.364.6003 1.364 1.3665 0 .7666-.599 1.367-1.364 1.367s-1.365-.6004-1.365-1.367c0-.7662.6-1.3665 1.365-1.3665z" fill="#592b43" fill-rule="evenodd"/><path clip-rule="evenodd" d="m604.05 81.4099c-.345.3456-.51.8263-.51 1.2319 0 .4211.165.8562.48 1.1867.315.3155.765.5113 1.229.5113.406 0 .841-.1653 1.156-.4662.344-.33.525-.8413.525-1.2769 0-.4952-.21-.9309-.51-1.2168-.316-.2999-.735-.4652-1.171-.4652-.599 0-.989.2849-1.199.4952zm-.36 8.0069h-2.16v-10.14h2.16v.7967c.705-.9163 1.575-1.0215 2.085-1.0215 1.2 0 1.95.5258 2.369.9464.601.6009 1.005 1.5172 1.005 2.6134 0 1.1567-.404 2.028-1.065 2.6894-.659.6605-1.379.9009-2.264.9009-1.335 0-1.905-.676-2.13-.9915z" fill="#592b43" fill-rule="evenodd"/><path clip-rule="evenodd" d="m610.5 79.2766h2.16v1.052c.195-.3755.495-.7216.84-.9319.36-.2253.735-.2849 1.155-.2849.27 0 .465.0296.705.1052l-.121 2.028c-.284-.1508-.599-.2409-.974-.2409-.465 0-.81.1653-1.08.4512-.48.5102-.525 1.2318-.525 1.8021v2.7191h-2.16z" fill="#592b43" fill-rule="evenodd"/><path clip-rule="evenodd" d="m620.894 81.7108c-.015-.0601-.12-.4807-.435-.7812-.24-.2253-.585-.3755-1.02-.3755-.555 0-.885.2253-1.095.4356-.165.1803-.315.4202-.375.7211zm1.995 1.2918h-4.995c0 .3605.135.8412.405 1.1412.33.361.78.4206 1.11.4206.315 0 .645-.0596.87-.1948.03-.0155.285-.1807.465-.5558l2.04.2103c-.3.9464-.9 1.4421-1.29 1.682-.645.3911-1.365.4962-2.115.4962-1.005 0-1.89-.1807-2.67-.9614-.585-.5859-1.005-1.4727-1.005-2.5838 0-.9614.345-1.9529 1.02-2.6439.81-.8112 1.815-.9614 2.565-.9614s1.83.1352 2.655 1.0064c.795.8413.945 1.8923.945 2.7191z" fill="#592b43" fill-rule="evenodd"/><path clip-rule="evenodd" d="m628.334 80.9894c-.33-.1953-.765-.3756-1.185-.3756-.225 0-.48.0601-.615.1958-.075.0746-.135.1948-.135.2999 0 .1503.105.2409.21.3005.15.0906.375.1352.645.2253l.57.1803c.375.1207.765.2704 1.11.5859.39.3605.525.7666.525 1.2768 0 .8864-.39 1.4572-.69 1.7576-.66.661-1.47.7662-2.175.7662-.9 0-1.875-.1953-2.745-.9614l.915-1.4572c.21.1803.51.3906.735.4957.3.1503.615.2103.9.2103.135 0 .48 0 .675-.1502.135-.1051.225-.2704.225-.4356 0-.1202-.045-.2704-.24-.3906-.15-.0901-.345-.1502-.66-.2399l-.54-.1657c-.39-.1202-.795-.3305-1.08-.6159-.315-.3305-.48-.7061-.48-1.2168 0-.646.255-1.1868.645-1.5473.6-.5558 1.41-.6755 2.025-.6755.99 0 1.68.2554 2.22.5708z" fill="#592b43" fill-rule="evenodd"/><path clip-rule="evenodd" d="m632.909 79.2766v3.6955c0 .3004.03.7661.375 1.0816.15.1352.42.3154.9.3154.405 0 .72-.1352.915-.3154.315-.3005.36-.7511.36-1.0816v-3.6955h2.16v3.9058c0 .7661-.075 1.4872-.75 2.1482-.765.7511-1.89.8713-2.685.8713-.825 0-1.935-.1202-2.7-.8713-.615-.6009-.735-1.2769-.735-2.013v-4.041z" fill="#592b43" fill-rule="evenodd"/><path clip-rule="evenodd" d="m639.299 79.2766h2.16v.7816c.555-.8412 1.365-.9464 1.875-.9464.285 0 .809.0296 1.26.3005.345.1947.63.5252.81.9308.165-.2699.42-.5858.855-.8562.465-.285.9-.3751 1.425-.3751.81 0 1.469.2399 1.875.6309.645.6155.689 1.5168.689 1.9975v4.2363h-2.16v-3.3946c0-.346 0-.9469-.284-1.3074-.181-.2253-.466-.36-.781-.36-.36 0-.659.1652-.839.4051-.285.3605-.331.8868-.331 1.3219v3.335h-2.159v-3.4852c0-.4501-.015-.9759-.345-1.3064-.225-.2259-.495-.2704-.72-.2704-.285 0-.54.0746-.75.2704-.405.3901-.42 1.1412-.42 1.3665v3.4251h-2.16z" fill="#592b43" fill-rule="evenodd"/><path clip-rule="evenodd" d="m652.094 85.9766h2.16v-6.6999h-2.16zm1.08-10.815c.705 0 1.26.5553 1.26 1.2614 0 .706-.555 1.2619-1.26 1.2619s-1.26-.5559-1.26-1.2619c0-.7061.555-1.2614 1.26-1.2614z" fill="#592b43" fill-rule="evenodd"/><path clip-rule="evenodd" d="m657.328 83.4832c.765 0 1.365.6003 1.365 1.3665 0 .7666-.6 1.367-1.365 1.367s-1.365-.6004-1.365-1.367c0-.7662.6-1.3665 1.365-1.3665z" fill="#592b43" fill-rule="evenodd"/><path clip-rule="evenodd" d="m665.278 81.3952c-.525-.4356-1.065-.5112-1.41-.5112-.675 0-1.08.331-1.23.4807-.285.2859-.495.7215-.495 1.2623 0 .4953.18.9164.45 1.2013.33.3606.825.5408 1.305.5408.375 0 .885-.1051 1.38-.5253v1.9524c-.57.3155-1.11.4061-1.71.4061-1.125 0-1.98-.4061-2.595-1.0065-.51-.4957-1.05-1.3369-1.05-2.5542 0-1.1412.48-2.0426 1.11-2.6434.75-.7061 1.635-.9464 2.55-.9464.585 0 1.125.1051 1.695.3755z" fill="#592b43" fill-rule="evenodd"/><path clip-rule="evenodd" d="m669.103 81.3649c-.315.3154-.495.721-.495 1.2623 0 .6154.24 1.006.495 1.2614.27.2704.66.4807 1.23.4807.48 0 .885-.1652 1.2-.4807s.495-.7206.495-1.2614c0-.5413-.18-.9469-.495-1.2623-.315-.3155-.72-.4807-1.215-.4807s-.9.1652-1.215.4807zm4.14 3.7556c-.6.6009-1.62 1.0816-2.925 1.0816s-2.325-.4807-2.925-1.0816c-.675-.676-1.005-1.6374-1.005-2.4932 0-.8563.33-1.8177 1.005-2.4942.6-.6004 1.62-1.0811 2.925-1.0811s2.325.4807 2.925 1.0811c.675.6765 1.005 1.6379 1.005 2.4942 0 .8558-.33 1.8172-1.005 2.4932z" fill="#592b43" fill-rule="evenodd"/><path clip-rule="evenodd" d="m675.598 79.2766h2.16v.7816c.555-.8412 1.365-.9464 1.875-.9464.285 0 .809.0296 1.26.3005.344.1947.63.5252.81.9308.165-.2699.42-.5858.855-.8562.465-.285.9-.3751 1.425-.3751.81 0 1.469.2399 1.875.6309.645.6155.689 1.5168.689 1.9975v4.2363h-2.16v-3.3946c0-.346 0-.9469-.284-1.3074-.181-.2253-.465-.36-.781-.36-.36 0-.659.1652-.839.4051-.286.3605-.331.8868-.331 1.3219v3.335h-2.159v-3.4852c0-.4501-.015-.9759-.345-1.3064-.225-.2259-.495-.2704-.72-.2704-.285 0-.54.0746-.75.2704-.405.3901-.42 1.1412-.42 1.3665v3.4251h-2.16z" fill="#592b43" fill-rule="evenodd"/></svg>