<svg fill="none" height="560" viewBox="0 0 960 560" width="960" xmlns="http://www.w3.org/2000/svg" xmlns:xlink="http://www.w3.org/1999/xlink"><mask id="a" height="43" maskUnits="userSpaceOnUse" width="7" x="130" y="413"><path clip-rule="evenodd" d="m136.722 455.644h-6.526v-42.636h6.526z" fill="#fff" fill-rule="evenodd"/></mask><mask id="b" height="7" maskUnits="userSpaceOnUse" width="10" x="130" y="407"><path clip-rule="evenodd" d="m130.196 413.008v-5.99h9.476v5.99z" fill="#fff" fill-rule="evenodd"/></mask><mask id="c" height="353" maskUnits="userSpaceOnUse" width="213" x="130" y="103"><path clip-rule="evenodd" d="m130.196 455.644h211.966v-351.905h-211.966z" fill="#fff" fill-rule="evenodd"/></mask><mask id="d" height="313" maskUnits="userSpaceOnUse" width="44" x="543" y="103"><path clip-rule="evenodd" d="m543.214 103.739h43.734v312.251h-43.734z" fill="#fff" fill-rule="evenodd"/></mask><mask id="e" height="158" maskUnits="userSpaceOnUse" width="124" x="463" y="195"><path clip-rule="evenodd" d="m586.948 352.257v-156.474h-123.664v156.474z" fill="#fff" fill-rule="evenodd"/></mask><mask id="f" height="155" maskUnits="userSpaceOnUse" width="33" x="554" y="211"><path clip-rule="evenodd" d="m586.948 365.596v-153.687h-32.897v153.687z" fill="#fff" fill-rule="evenodd"/></mask><mask id="g" height="20" maskUnits="userSpaceOnUse" width="38" x="374" y="408"><path clip-rule="evenodd" d="m374.982 408.419v18.921h36.726v-18.921z" fill="#fff" fill-rule="evenodd"/></mask><mask id="h" height="59" maskUnits="userSpaceOnUse" width="69" x="518" y="369"><path clip-rule="evenodd" d="m586.948 427.336v-57.952h-68.435v57.952z" fill="#fff" fill-rule="evenodd"/></mask><mask id="i" height="72" maskUnits="userSpaceOnUse" width="36" x="551" y="213"><path clip-rule="evenodd" d="m586.948 284.38v-70.426h-35.151v70.426z" fill="#fff" fill-rule="evenodd"/></mask><mask id="j" height="65" maskUnits="userSpaceOnUse" width="6" x="581" y="262"><path clip-rule="evenodd" d="m586.948 326.9v-64.677h-5.339v64.677z" fill="#fff" fill-rule="evenodd"/></mask><mask id="k" height="110" maskUnits="userSpaceOnUse" width="99" x="488" y="111"><path clip-rule="evenodd" d="m586.948 111.861v108.847h-98.594v-108.847z" fill="#fff" fill-rule="evenodd"/></mask><mask id="l" height="48" maskUnits="userSpaceOnUse" width="50" x="537" y="380"><path clip-rule="evenodd" d="m586.948 380.165v46.886h-49.266v-46.886z" fill="#fff" fill-rule="evenodd"/></mask><mask id="m" height="286" maskUnits="userSpaceOnUse" width="45" x="374" y="103"><path clip-rule="evenodd" d="m418.794 103.739h-43.812v284.427h43.812z" fill="#fff" fill-rule="evenodd"/></mask><mask id="n" height="32" maskUnits="userSpaceOnUse" width="64" x="374" y="258"><path clip-rule="evenodd" d="m374.982 289.839v-31.338h62.33v31.338z" fill="#fff" fill-rule="evenodd"/></mask><mask id="o" height="21" maskUnits="userSpaceOnUse" width="28" x="559" y="304"><path clip-rule="evenodd" d="m586.948 304.913v19.185h-26.975v-19.185z" fill="#fff" fill-rule="evenodd"/></mask><mask id="p" height="353" maskUnits="userSpaceOnUse" width="196" x="635" y="103"><path clip-rule="evenodd" d="m635.913 103.739h194.319v351.905h-194.319z" fill="#fff" fill-rule="evenodd"/></mask><mask id="q" height="353" maskUnits="userSpaceOnUse" width="173" x="658" y="103"><path clip-rule="evenodd" d="m658.169 103.739h172.063v351.905h-172.063z" fill="#fff" fill-rule="evenodd"/></mask><mask id="r" height="353" maskUnits="userSpaceOnUse" width="213" x="618" y="103"><path clip-rule="evenodd" d="m618.266 455.644h211.966v-351.905h-211.966z" fill="#fff" fill-rule="evenodd"/></mask><path d="m0 0h960v560h-960z" fill="#fff8f7"/><path clip-rule="evenodd" d="m374.982 455.644h211.967v-351.906h-211.967z" fill="#773869" fill-rule="evenodd"/><path clip-rule="evenodd" d="m130.196 455.644h211.966v-351.905h-211.966z" fill="#ffeae6" fill-rule="evenodd"/><path clip-rule="evenodd" d="m130.196 410.118 4.231-11.279-4.231-1.587z" fill="#a8385b" fill-rule="evenodd"/><path clip-rule="evenodd" d="m130.196 434.045 1.731.649 12.096-32.256-13.827-5.186z" fill="#e57094" fill-rule="evenodd"/><path clip-rule="evenodd" d="m130.196 408.048 6.807 2.553 2.144-5.716-8.951-3.356z" fill="#ce5777" fill-rule="evenodd"/><path clip-rule="evenodd" d="m130.196 417.352 3.748 1.406 2.144-5.716-5.892-2.209z" fill="#ce5777" fill-rule="evenodd"/><g mask="url(#a)"><path clip-rule="evenodd" d="m128.68 492.764h-53.7713c-5.3824 0-9.856-4.15-10.2592-9.517l-5.2808-70.239h77.3523z" fill="#6a1244" fill-rule="evenodd"/></g><g mask="url(#b)"><path clip-rule="evenodd" d="m138.181 413.008h-79.854c-.8248 0-1.492-.668-1.492-1.491v-3.009c0-.823.6672-1.49 1.492-1.49h79.854c.824 0 1.491.667 1.491 1.49v3.009c0 .823-.667 1.491-1.491 1.491z" fill="#e57094" fill-rule="evenodd"/></g><g mask="url(#c)"><g clip-rule="evenodd" fill-rule="evenodd"><path d="m333.574 319h289.877v-155.527h-289.877z" fill="#ffceca"/><path d="m333.575 330.239h289.877v-11.239h-289.877z" fill="#ef968f"/><path d="m333.575 492.764h11.239v-173.764h-11.239z" fill="#ef968f"/><path d="m18.3291 319h437.9859v-155.527h-437.9859z" fill="#ef8767"/><path d="m18.3281 330.239h437.6109v-11.239h-437.6109z" fill="#a8385b"/><path d="m18.3281 241.829h437.6109v-11.239h-437.6109z" fill="#a8385b"/><path d="m239.155 468.622h6.099v-87.246h-6.099z" fill="#ce5777"/><path d="m24.5171 319h482.9909v-155.527h-482.9909z" fill="#ffbfb0"/><path d="m255.166 309.304h7.2v-99.404c0-30.887-22.345-56.014-49.811-56.014h-21.452v8.097h21.452c23.496 0 42.611 21.495 42.611 47.917z" fill="#4c223a"/><path d="m215.389 166.957h13.596v-12.914h-13.596z" fill="#ce5777"/><path d="m225.006 297.868h21.328v-3.573c0-1.645-1.334-2.979-2.978-2.979h-15.371c-1.646 0-2.979 1.334-2.979 2.979z" fill="#6a1244"/><path d="m221.387 297.868h21.329v-3.573c0-1.645-1.335-2.979-2.979-2.979h-15.371c-1.646 0-2.979 1.334-2.979 2.979z" fill="#ce5777"/><path d="m252.191 302.317h13.596v-12.913h-13.596z" fill="#ce5777"/><path d="m216.436 321.342h78.368v-13.132c0-6.045-4.9-10.945-10.945-10.945h-56.478c-6.045 0-10.945 4.9-10.945 10.945z" fill="#6a1244"/><path d="m176.518 168.854c0 9.064 7.348 16.411 16.411 16.411s16.41-7.347 16.41-16.411c0-9.063-7.347-16.411-16.41-16.411s-16.411 7.348-16.411 16.411z" fill="#fbeedd"/><path d="m207.617 321.342h78.368v-13.132c0-6.045-4.9-10.945-10.945-10.945h-56.478c-6.045 0-10.945 4.9-10.945 10.945z" fill="#a8385b"/><path d="m194.034 140.535c16.968 0 30.723 13.755 30.723 30.724h-61.447c0-16.969 13.755-30.724 30.724-30.724z" fill="#a8385b"/><path d="m117.981 319h19.79v-68.477h-19.79z" fill="#bc486c"/><path d="m121.88 278.167h12.779v-24.089h-12.779z" fill="#e897bb"/><path d="m121.88 285.682h12.779v-3.663h-12.779z" fill="#e897bb"/><path d="m121.88 292.915h12.779v-3.664h-12.779z" fill="#e897bb"/><path d="m137.771 319h19.79v-68.477h-19.79z" fill="#a8385b"/><path d="m141.67 278.167h12.779v-24.089h-12.779z" fill="#e897bb"/><path d="m141.67 285.682h12.779v-3.663h-12.779z" fill="#e897bb"/><path d="m141.67 292.915h12.779v-3.664h-12.779z" fill="#e897bb"/><path d="m157.561 319h19.79v-68.477h-19.79z" fill="#bc486c"/><path d="m161.461 278.167h12.778v-24.089h-12.778z" fill="#e897bb"/><path d="m161.461 285.682h12.778v-3.663h-12.778z" fill="#e897bb"/><path d="m161.461 292.915h12.778v-3.664h-12.778z" fill="#e897bb"/><path d="m177.352 319h19.79v-68.477h-19.79z" fill="#a8385b"/><path d="m181.25 278.167h12.779v-24.089h-12.779z" fill="#e897bb"/><path d="m181.25 285.682h12.779v-3.663h-12.779z" fill="#e897bb"/><path d="m181.25 292.915h12.779v-3.664h-12.779z" fill="#e897bb"/><path d="m24.2266 330.239h482.9904v-11.239h-482.9904z" fill="#ce5777"/><path d="m275.1 393.486h-87.378v-115.46c0-6.22 5.041-11.262 11.26-11.262h64.856c6.22 0 11.262 5.042 11.262 11.262z" fill="#ff9b78"/><path d="m204.945 266.764h-6.416c-5.968 0-10.807 4.838-10.807 10.807v115.915h17.223z" fill="#d86a6a"/><path d="m290.133 408.823h-85.935c-9.1 0-16.476-7.377-16.476-16.476v-6.995h118.887v6.995c0 9.099-7.377 16.476-16.476 16.476z" fill="#d86a6a"/><path d="m24.2266 241.829h182.6424v-11.239h-182.6424z" fill="#ce5777"/><path d="m130.45 212.831h54.348v-4.979h-54.348z" fill="#a8385b"/><path d="m130.45 199.59h54.348v-4.979h-54.348z" fill="#a8385b"/><path d="m132.751 207.852h52.047v-8.262h-52.047z" fill="#e897bb"/><path d="m116.424 226.072h62.461v-8.262h-62.461z" fill="#bc486c"/><path d="m113.662 231.051h65.223v-4.979h-65.223z" fill="#6a1244"/><path d="m113.662 217.81h65.223v-4.979h-65.223z" fill="#6a1244"/><path d="m128.567 231.051h65.224v-4.979h-65.224z" fill="#a8385b"/><path d="m128.567 217.81h65.224v-4.979h-65.224z" fill="#a8385b"/><path d="m194.417 212.831h-.626v18.219h.626c2.479 0 4.488-2.009 4.488-4.488v-9.243c0-2.478-2.009-4.488-4.488-4.488z" fill="#a8385b"/><path d="m131.329 226.072h62.462v-8.262h-62.462z" fill="#ce5777"/><path d="m135.733 212.831h54.348v-4.979h-54.348z" fill="#bc486c"/><path d="m135.733 199.59h54.348v-4.979h-54.348z" fill="#bc486c"/><path d="m190.55 194.611h-.469v18.22h.469c2.394 0 4.335-1.941 4.335-4.336v-9.548c0-2.395-1.941-4.336-4.335-4.336z" fill="#bc486c"/><path d="m138.035 207.852h52.046v-8.262h-52.046z" fill="#e897bb"/><path d="m187.608 207.852h2.473v-8.262h-2.473z" fill="#6a1244"/><path d="m191.318 226.072h2.473v-8.262h-2.473z" fill="#6a1244"/><path d="m335.671 194.137h145.136c2.937 0 5.317 2.381 5.317 5.317v91.208c0 2.936-2.38 5.317-5.317 5.317h-145.136c-2.937 0-5.317-2.381-5.317-5.317v-91.208c0-2.936 2.38-5.317 5.317-5.317z" fill="#a8385b"/><path d="m337.904 279.459h139.65v-77.143h-139.65z" fill="#fbeedd"/><path d="m128.689 492.764h-54.0118l-5.996-79.756h77.3538l-7.109 70.499c-.53 5.257-4.954 9.257-10.237 9.257z" fill="#a8385b"/><path d="m147.494 413.008h-79.8545c-.824 0-1.492-.668-1.492-1.491v-3.009c0-.823.668-1.49 1.492-1.49h79.8545c.823 0 1.491.667 1.491 1.49v3.009c0 .823-.668 1.491-1.491 1.491z" fill="#e897bb"/><path d="m340.406 381.268-21.197 5.512s-12.777 14.936 15.082 69.551l11.822.149z" fill="#4c223a"/><path d="m247.16 373.051 91.261 35.183 2.088-26.995-79.257-36.846z" fill="#4c223a"/><path d="m182.999 376.008s-5.087 17.962-6.494 14c0 0 2.12-8.403-.441-4.748 0 0-16.664 26.85-11.108 9.538 0 0 3.726-15.645 10.804-21.798z" fill="#ff8d54"/><path d="m251.106 273.31 44.598 41.195s11.547-.935 11.37-11.375l-39.902-53.78z" fill="#7faadd"/><path d="m229.367 385.926 78.336 28.644 2.116-19.74-84.804-52.292-17.533 4.05c-2.784 16.614-2.349 32.713 21.885 39.338z" fill="#592b43"/><path d="m307.703 414.57-21.807-7.972s-18.878 4.051-21.592 72.386l10.915 6.191z" fill="#592b43"/><path d="m230.602 240.927 1.529-23.827 20.579 18.669.714 6.216s-10.222 14.264-22.822-1.058z" fill="#ff8d54"/><path d="m258.553 234.26-5.885 1.31c-1.23.274-2.515.147-3.668-.361-7.643-3.372-10.52-7.815-14.004-15.408l-4.981-5.343 7.123-20.341 28.37 2.188 1.773 9.779c.546 3.012.462 6.104-.245 9.082l-3.322 14.006c-.604 2.544-2.608 4.52-5.161 5.088z" fill="#ff8d54"/><path d="m258.553 234.26-5.885 1.31c-1.23.274-2.515.147-3.668-.361-7.643-3.372-9.61-8.913-13.096-16.505l-5.889-4.246 7.123-20.341 28.37 2.188 1.773 9.779c.546 3.012.462 6.104-.245 9.082l-3.322 14.006c-.604 2.544-2.608 4.52-5.161 5.088z" fill="#ff8d54"/><path d="m238.349 204.746-1.751 9.86-5.456-2.194-1.873-6.623s-3.669-21.211 9.263-24.108c0 0 2.702-.867 7.987.215 0 0 5.897 1.055 9.579-2.523 1.11-1.078 2.34-2.031 3.734-2.702 2.99-1.44 7.47-2.285 9.997 3.53 0 0 7.76 14.336-3.785 19.056 0 0-7.469 2.893-12.474-.951-.238-.183-.489-.348-.763-.47-.085-.038-.181-.079-.288-.123-6.548-2.706-12.168.237-14.17 7.033z" fill="#6a1244"/><path d="m235.512 211.433s-4.528-5.07-7.135-2.206c-1.298 1.425-1.294 3.606-.161 5.166 1.17 1.614 3.393 4.037 7.56 7.074l2.226-4.772" fill="#ff8d54"/><path d="m260.725 211.766.283 9.617 5.933 1.6s-4.311-10.353-6.216-11.217z" fill="#d1661e"/></g><path d="m255.954 226.204s4.845 1.101 9.046-.211" stroke="#d1661e" stroke-linecap="round" stroke-linejoin="round" stroke-width="1.1672"/><path clip-rule="evenodd" d="m253.745 212.118c.12 1.047-.314 1.957-.971 2.032-.657.076-1.286-.712-1.407-1.759-.12-1.047.314-1.957.971-2.032.658-.076 1.287.711 1.407 1.759z" fill="#592b43" fill-rule="evenodd"/><path clip-rule="evenodd" d="m266.469 210.656c.12 1.047-.183 1.942-.679 1.999-.495.056-.994-.746-1.114-1.793-.121-1.048.183-1.942.678-1.999.496-.058.995.745 1.115 1.793z" fill="#592b43" fill-rule="evenodd"/><path d="m252.195 204.74s-3.418-.44-4.918 1.928" stroke="#592b43" stroke-linecap="round" stroke-linejoin="round" stroke-width="1.6"/><path d="m263.682 203.503s1.771-1.49 3.232-.182" stroke="#592b43" stroke-linecap="round" stroke-linejoin="round" stroke-width="1.6"/><path clip-rule="evenodd" d="m253.424 241.986s-10.027 12.292-22.822-1.059l-22.389 9.697 5.604 62.876-8.684 43.754s58.549 9.46 70.937-4.073l-3.69-46.3-4.743-61.588z" fill="#96b6ec" fill-rule="evenodd"/><path clip-rule="evenodd" d="m245.011 248.92 4.245-4.076 3.999 4.263s-3.66 2.205-8.244-.187z" fill="#a8385b" fill-rule="evenodd"/><path clip-rule="evenodd" d="m246.691 249.617-1.68 77.947 4.414 11.994c.511 1.385 2.459 1.413 3.009.044l4.767-11.869-5.151-78.116s-2.859.593-5.359 0z" fill="#a8385b" fill-rule="evenodd"/><path clip-rule="evenodd" d="m208.379 250.624-24.898 64.482s6.12 16.16 14.877 10.474l16.419-32.217z" fill="#96b6ec" fill-rule="evenodd"/><path d="m240.713 231.08s4.701 4.958 13.128 4.323" stroke="#d1661e" stroke-linecap="round" stroke-linejoin="round" stroke-width="1.1672"/><path d="m230.015 213.25s1.267-3.554 4.141.606" stroke="#d1661e" stroke-linecap="round" stroke-linejoin="round" stroke-width="1.1672"/><path clip-rule="evenodd" d="m232.085 185.984s-8.608-3.612-6.828 4.339l4.44 16.981 3.628-12.192" fill="#6a1244" fill-rule="evenodd"/><path d="m231.297 218.134s2.889 3.551 5.717 1.828" stroke="#d1661e" stroke-linecap="round" stroke-linejoin="round" stroke-width="1.1672"/><path clip-rule="evenodd" d="m198.358 325.58s-3.075 42.315-16.128 54.303l-9.591-3.996 10.842-60.781z" fill="#96b6ec" fill-rule="evenodd"/><path clip-rule="evenodd" d="m301.655 297.319s41.25-9.916 56.637-1.116l-.897 10.352-61.205 8.118z" fill="#7faadd" fill-rule="evenodd"/><path clip-rule="evenodd" d="m230.69 237.373 18.136 7.92-9.91 9.121-12.844-11.941z" fill="#6990c9" fill-rule="evenodd"/><path clip-rule="evenodd" d="m248.826 245.293 4.152-6.541 5.234 4.009-1.499 9.197z" fill="#6990c9" fill-rule="evenodd"/></g><g mask="url(#d)"><path clip-rule="evenodd" d="m554.458 224.345c9.514-25.358 21.638-49.741 36.33-72.503 11.946-18.506 30.752-48.222 56.877-43.135 20.702 4.032 31.623 27.021 33.671 46.004 1.446 13.4.198 26.858-.796 40.24-.992 13.372-1.48 26.683-.207 40.056 4.883 51.299 30.011 100.589 69.461 133.894 35.926 30.332 82.708 47.045 129.658 47.089 49.747.045 107.064-20.564 125.618-71.031 2.06-5.616 3.59-11.361 4.46-17.284 1.11-7.634-10.672-9.94-11.787-2.286-3.395 23.31-17.903 43.342-37.15 56.44-22.318 15.189-49.809 21.362-76.492 22.112-46.045 1.294-92.454-15.019-127.46-44.971-38.733-33.142-62.496-82.653-64.96-133.492-1.303-26.899 5.629-54.071.186-80.755-4.12-20.194-17.504-40.47-37.964-46.7836-26.264-8.1048-48.648 12.6806-62.817 32.2786-15.857 21.933-29.274 45.765-40.046 70.582-2.626 6.051-5.08 12.171-7.397 18.347-2.695 7.183 8.098 12.44 10.815 5.198z" fill="#fa9073" fill-rule="evenodd"/></g><g mask="url(#e)"><path clip-rule="evenodd" d="m506.552 195.783 91.2 16.126-43.701 140.348-90.767-23.876z" fill="#fa9073" fill-rule="evenodd"/></g><g mask="url(#f)"><path clip-rule="evenodd" d="m597.752 211.909 13.328 17.045-39.6 136.642-17.429-13.339z" fill="#b55e77" fill-rule="evenodd"/></g><path clip-rule="evenodd" d="m571.48 365.597-98.213-27.34-9.983-9.876 90.767 23.876z" fill="#6c2c5b" fill-rule="evenodd"/><path clip-rule="evenodd" d="m418.071 337.449 36.761 7.553s-6.109 16.472-43.124 65.348l-11.665-1.931z" fill="#fff" fill-rule="evenodd"/><path clip-rule="evenodd" d="m510.757 321.976-63.225 36.735-29.194-21.257 66.532-45.157z" fill="#fff" fill-rule="evenodd"/><g mask="url(#g)"><path clip-rule="evenodd" d="m411.708 410.35-6.437 15.656s-34.763 5.45-39.789-5.686c0 0 17.044-6.794 34.561-11.901z" fill="#96b6ec" fill-rule="evenodd"/></g><path clip-rule="evenodd" d="m599.937 325.286s3.807 29.112 6.287 24.293c0 0 .629-4.7 3.262.621 0 0 7.913 15.757 9.861 6.216.306-1.502.31-3.057.107-4.597-.716-5.43-3.266-20.96-9.766-28.788z" fill="#96b6ec" fill-rule="evenodd"/><path clip-rule="evenodd" d="m405.796 244.768s-20.713 5.828-17.365 1.567c0 0 6.175-1.584.242-1.76 0 0-3.62-10.131-2.134-10.588 5.235-1.61 7.423-1.673 17.246.976z" fill="#96b6ec" fill-rule="evenodd"/><path clip-rule="evenodd" d="m509.703 222.193-53.768 12.951s-15.215-9.184-9.454-17.891l49.933-22.027z" fill="#fff" fill-rule="evenodd"/><path clip-rule="evenodd" d="m539.15 309.315-1.468 102.395-22.166-6.675-24.109-86.789z" fill="#fff" fill-rule="evenodd"/><g mask="url(#h)"><path clip-rule="evenodd" d="m518.513 405.857 19.776-36.473s3.81 3.091 57.35 45.641l-2.434 12.311z" fill="#fff" fill-rule="evenodd"/></g><path clip-rule="evenodd" d="m546.186 197.403 1.089-23.851-22.5 16.302-1.391 6.1s8.599 15.299 22.802 1.449z" fill="#ff8d54" fill-rule="evenodd"/><path clip-rule="evenodd" d="m519.133 187.714 5.706 1.948c1.193.406 2.483.421 3.685.041 7.967-2.513 11.313-6.614 15.609-13.779l5.537-4.766-4.853-20.998-28.439-.934-2.833 9.526c-.872 2.934-1.129 6.016-.753 9.053l1.769 14.285c.322 2.596 2.097 4.78 4.572 5.624z" fill="#ff8d54" fill-rule="evenodd"/><path clip-rule="evenodd" d="m519.133 187.714 5.706 1.948c1.193.406 2.483.421 3.685.041 7.967-2.513 10.53-7.805 14.826-14.971l6.32-3.574-4.853-20.998-28.439-.934-2.833 9.526c-.872 2.934-1.129 6.016-.753 9.053l1.769 14.285c.322 2.596 2.097 4.78 4.572 5.624z" fill="#ff8d54" fill-rule="evenodd"/><path clip-rule="evenodd" d="m542.45 160.591.659 9.993 5.664-1.583 2.588-6.378s5.971-20.682-6.565-24.979c0 0-2.593-1.156-7.964-.66 0 0-5.977.402-9.245-3.558-.985-1.193-2.103-2.274-3.415-3.094-2.814-1.758-7.175-3.092-10.324 2.412 0 0-9.283 13.4 1.675 19.356 0 0 7.106 3.694 12.503.422.256-.155.524-.291.81-.382.088-.03.188-.06.3-.092 6.804-1.972 12.068 1.568 13.314 8.543z" fill="#6a1244" fill-rule="evenodd"/><path clip-rule="evenodd" d="m544.537 167.549s5.055-4.543 7.334-1.411c1.133 1.56.891 3.727-.406 5.153-1.341 1.476-3.815 3.64-8.29 6.203l-1.689-4.987" fill="#ff8d54" fill-rule="evenodd"/><path clip-rule="evenodd" d="m522.342 162.535-2.869 9.182-6.145-.061s6.946-8.805 9.014-9.121z" fill="#d1661e" fill-rule="evenodd"/><path clip-rule="evenodd" d="m528.074 163.928c-.235 1.028.097 1.98.742 2.127.644.147 1.357-.567 1.591-1.595.235-1.028-.098-1.98-.743-2.127-.643-.147-1.356.567-1.59 1.595z" fill="#592b43" fill-rule="evenodd"/><path clip-rule="evenodd" d="m515.585 161.08c-.234 1.028-.029 1.95.456 2.061.488.112 1.071-.632 1.305-1.66.235-1.027.031-1.95-.456-2.06-.486-.112-1.07.632-1.305 1.659z" fill="#592b43" fill-rule="evenodd"/><path d="m529.315 157.729s3.759.384 4.705 3.081" stroke="#592b43" stroke-linecap="round" stroke-linejoin="round" stroke-width="1.6"/><path d="m519.488 154.976s-2.116-.82-3.712.32" stroke="#592b43" stroke-linecap="round" stroke-linejoin="round" stroke-width="1.6"/><path clip-rule="evenodd" d="m523.628 193.449s6.886 14.292 22.442 4.29l33.058 16.215-17.407 63.141-17.906 39.586s-70.685 1.135-83.282-21.09l23.437-49.999 12.443-50.366z" fill="#fff" fill-rule="evenodd"/><g mask="url(#i)"><path clip-rule="evenodd" d="m579.128 213.954 25.309 49.163s-5.433 23.686-15.538 21.06l-37.102-44.513z" fill="#fff" fill-rule="evenodd"/></g><path d="m537.215 186.508s-5.216 4.413-13.522 2.858" stroke="#d1661e" stroke-linecap="round" stroke-linejoin="round" stroke-width="1.1672"/><path d="m549.802 169.958s-.87-3.672-4.183.148" stroke="#d1661e" stroke-linecap="round" stroke-linejoin="round" stroke-width="1.1672"/><path clip-rule="evenodd" d="m550.732 142.628s8.952-2.647 6.312 5.06l-6.275 16.394-2.269-12.517" fill="#6a1244" fill-rule="evenodd"/><path d="m547.992 174.672s-3.262 3.213-5.883 1.19" stroke="#d1661e" stroke-linecap="round" stroke-linejoin="round" stroke-width="1.1672"/><path clip-rule="evenodd" d="m594.863 414.431 15.073 7.706s2.564 35.094-8.95 39.184c0 0-5.365-17.546-9.008-35.425z" fill="#96b6ec" fill-rule="evenodd"/><g mask="url(#j)"><path clip-rule="evenodd" d="m581.609 275.567s6.609 38.357 18.682 51.333l9.875-3.231-6.041-61.446z" fill="#fff" fill-rule="evenodd"/></g><path clip-rule="evenodd" d="m455.935 235.144s-34.286 14.509-51.347 9.701l-1.639-10.26 57.41-22.714z" fill="#fff" fill-rule="evenodd"/><path d="m501.328 219.224-2.213 4.876" stroke="#fff" stroke-linecap="round" stroke-linejoin="round" stroke-width=".6728"/><path d="m559.24 230.936-1.683 5.332" stroke="#fff" stroke-linecap="round" stroke-linejoin="round" stroke-width=".6728"/><path d="m515.946 178.864s-.439-4.337 1.525-1.724c0 0 1.078 1-.994 1.904" stroke="#d1661e" stroke-linecap="round" stroke-linejoin="round" stroke-width="1.1672"/><g mask="url(#k)"><path clip-rule="evenodd" d="m553.661 113.002c-10.281-2.515-20.736-.774-30.367 4.272.074.147.127.304.184.458 4.118-.308 8.3.008 12.464 1.026 26.546 6.495 42.318 38.8 35.226 72.155-5.128 24.109-56.778 18.499-82.337.94-.152.092-.31.173-.477.24 18.757 29.442 95.41 42.499 102.742 8.02 8.702-40.922-8.058-79.923-37.435-87.111z" fill="#fff" fill-rule="evenodd"/></g><path clip-rule="evenodd" d="m571.17 190.946c7.093-33.354-8.678-65.659-35.225-72.155-4.6-1.126-9.222-1.401-13.756-.916-17.405 9.639-31.932 30.187-37.472 56.24-1.285 6.038-.062 11.751 2.981 16.973 25.131 18.182 78.268 24.33 83.472-.142z" fill="#96b6ec" fill-rule="evenodd" opacity=".3"/><path clip-rule="evenodd" d="m400.043 408.419 14.805-58.282 29.089 14.425-34.42 51.116z" fill="#96b6ec" fill-rule="evenodd"/><g mask="url(#l)"><path clip-rule="evenodd" d="m537.682 411.711 14.123-31.546 43.058 34.265-2.648 12.621" fill="#96b6ec" fill-rule="evenodd"/></g><g clip-rule="evenodd" fill-rule="evenodd"><path d="m483.398 269.478 48.617 9.526 16.054-47.904-47.655-8.572z" fill="#fa9073"/><path d="m500.992 237.627 36.412 7.134 3.65-9.543-36.791-6.617z" fill="#fbfae5"/><path d="m495.568 251.137 36.413 7.135 3.649-9.544-36.791-6.616z" fill="#fbfae5"/><path d="m528.745 265.912c-.731-1.931-3.168-2.799-5.443-1.939-2.274.86-3.526 3.123-2.796 5.055.731 1.931 3.167 2.8 5.442 1.939 2.275-.86 3.527-3.124 2.797-5.055z" fill="#fbeedd"/><path d="m464.17 300.089s46.701 6.061 74.862 16.661l-.156 11.705-78.549-19.501z" fill="#96b6ec"/><path d="m499.033 311.008c.337.961-.169 2.013-1.129 2.35-.961.336-2.013-.169-2.349-1.13-.337-.961.168-2.012 1.128-2.349.962-.337 2.013.169 2.35 1.129z" fill="#fff"/><path d="m532.016 279.003 1.246 3.554-48.681-9.706-1.182-3.373z" fill="#b55e77"/><path d="m533.262 282.557-1.247-3.553 16.054-47.904 1.025 2.924z" fill="#b55e77"/><path d="m600.673 223.048c-.602.212-1.319-.273-1.602-1.081-.284-.807-.026-1.634.576-1.844.601-.211 1.318.273 1.602 1.08.283.808.025 1.634-.576 1.845z" fill="#6c2c5b"/><path d="m599.146 227.777c-.602.211-1.318-.273-1.602-1.081-.284-.807-.025-1.633.576-1.844s1.318.273 1.602 1.08c.283.808.026 1.634-.576 1.845z" fill="#6c2c5b"/><path d="m597.417 232.492c-.601.211-1.318-.273-1.601-1.081-.283-.807-.026-1.634.576-1.844.601-.211 1.318.273 1.602 1.08.283.808.025 1.634-.577 1.845z" fill="#6c2c5b"/></g><path d="m494.988 331.138s1.076-4.846-4.816-6.09" stroke="#7ea6bc" stroke-linecap="round" stroke-linejoin="round" stroke-width="2.4"/><path clip-rule="evenodd" d="m250.733 125.76s21.514-15.231 48.678-11.019c4.906.761 9.86 1.136 14.82.92 12.631-.552 33.904-3.446 45.18-16.034l13.578 71.638s-27.667 15.867-50.941 11.362c-4.278-.828-8.602-1.394-12.961-1.433-12.12-.109-33.129 1.624-42.082 13.992z" fill="#96b6ec" fill-rule="evenodd"/><g mask="url(#m)"><path clip-rule="evenodd" d="m418.794 387.277-4.694.889-28.933-152.652-26.351-139.0301 4.694-.8904z" fill="#592b43" fill-rule="evenodd"/></g><path clip-rule="evenodd" d="m385.166 235.513s8.845 6.102 2.231 11.774c0 0-4.044-6.642-2.231-11.774z" fill="#96b6ec" fill-rule="evenodd"/><path clip-rule="evenodd" d="m391.089 232.945s-8.662 3.529.576 5.349z" fill="#96b6ec" fill-rule="evenodd"/><path clip-rule="evenodd" d="m315.005 142.442-5.145.46c-4.117.369-7.171 3.844-6.819 7.761.349 3.919 3.972 6.796 8.088 6.428l5.146-.46s.027-.002.043-.004c7.891-1.124 13.639-7.904 12.962-15.476z" fill="#fff" fill-rule="evenodd"/><path clip-rule="evenodd" d="m311.014 136.614c-.785.07-1.479-.51-1.549-1.295s.509-1.479 1.295-1.549c.785-.071 1.478.509 1.549 1.294.07.787-.51 1.479-1.295 1.55zm9.187-.22c-.19-1.804-1.805-3.112-3.609-2.924-.287.031-.559.1-.817.197-1.363-2.602-4.214-4.265-7.318-3.987-4.102.367-7.128 3.989-6.762 8.09.024.269.063.533.114.793l.623 6.811c.171-.283.357-.555.558-.816.007-.009.013-.019.021-.028.294-.38.618-.734.97-1.063.05-.045.103-.091.153-.137.164-.145.334-.285.509-.418.088-.067.177-.134.267-.197.095-.067.19-.133.288-.197.169-.109.341-.212.518-.309.08-.044.161-.085.243-.127.176-.09.356-.176.539-.255.058-.025.115-.049.172-.071.206-.083.417-.158.63-.225.059-.017.116-.037.174-.053.237-.07.479-.129.723-.179.052-.009.102-.018.154-.028.261-.047.525-.087.795-.111l7.803-.704-.331-3.686z" fill="#fff" fill-rule="evenodd"/><path clip-rule="evenodd" d="m316.698 158.768c-.018.003-.043.005-.064.007-.025.002-.046.004-.046.004l-5.465.49c-2.397.214-4.658-.564-6.377-1.993 2.6 5.785 8.44 9.563 14.869 8.987l-.713-7.968c-.715.202-1.449.363-2.204.473z" fill="#fff" fill-rule="evenodd"/><path clip-rule="evenodd" d="m569.246 337.968c-15.693-1.724-32.101-4.016-48.803-6.84-43.902-7.426-84.558-17.626-114.48-28.723-8.669-3.215-16.158-6.421-22.382-9.549-.08.303-.157.605-.235.908 6.207 3.109 13.665 6.291 22.319 9.501 12.6 4.674 27.096 9.186 42.936 13.401 21.828 5.808 46.208 11.05 71.672 15.355 16.684 2.822 33.077 5.113 48.758 6.839.071-.298.143-.595.215-.892z" fill="#fbeedd" fill-rule="evenodd"/><path clip-rule="evenodd" d="m638.385 341.71c-14.119.263-30.121-.319-47.342-1.679-.078.298-.152.596-.231.894 17.291 1.368 33.36 1.953 47.535 1.689 2.86-.054 5.609-.143 8.254-.265l.243-.914c-2.709.128-5.529.22-8.459.275z" fill="#fbeedd" fill-rule="evenodd"/><path clip-rule="evenodd" d="m582.959 339.344c-1.885-.171-3.779-.349-5.688-.537-.073.296-.143.594-.215.892 1.904.189 3.792.365 5.673.536.077-.296.152-.593.23-.891z" fill="#fbeedd" fill-rule="evenodd"/><g mask="url(#n)"><path clip-rule="evenodd" d="m414.16 259.467c7.197-.135 14.887-.049 22.974.246.035-.299.095-.601.178-.9-8.137-.297-15.874-.385-23.114-.25-32.396.604-51.133 5.629-52.759 14.152-.961 5.032 4.13 10.877 14.668 17.124.078-.306.159-.612.239-.919-10.014-5.957-14.992-11.493-14.118-16.072 1.512-7.916 20.44-12.794 51.932-13.381z" fill="#fbeedd" fill-rule="evenodd"/></g><path clip-rule="evenodd" d="m616.119 288.84c9.172 2.655 17.805 5.404 25.747 8.221.059-.301.117-.601.174-.901-7.929-2.809-16.536-5.553-25.686-8.202z" fill="#fbeedd" fill-rule="evenodd"/><path clip-rule="evenodd" d="m691.106 328.463c1.084-5.68-5.531-12.392-18.988-19.549-.064.309-.158.608-.273.895 12.914 6.885 19.464 13.319 18.472 18.521-1.219 6.378-13.752 10.782-35.05 12.559l-.247.93c22.114-1.806 34.763-6.424 36.086-13.356z" fill="#fbeedd" fill-rule="evenodd"/><path clip-rule="evenodd" d="m518.728 314.249c-17.899-3.234-35.027-7.04-50.351-11.144.106.295.173.604.202.921 14.89 3.958 31.828 7.725 50.008 11.009 11.604 2.097 22.799 3.831 33.369 5.201l.211-.794c-10.748-1.383-21.988-3.124-33.439-5.193z" fill="#fbeedd" fill-rule="evenodd"/><path clip-rule="evenodd" d="m434.759 292.489c-17.408-6.645-26.842-12.86-26.048-17.258.848-4.692 13.324-7.249 34.274-7.048-.054-.268-.11-.535-.171-.801-29.045-.259-34.346 4.696-34.89 7.707-.912 5.047 9.151 11.549 26.621 18.223.047-.281.118-.558.214-.823z" fill="#fbeedd" fill-rule="evenodd"/><g mask="url(#o)"><path clip-rule="evenodd" d="m636.232 316.334c.596-3.303-3.513-7.23-11.317-11.421l-.215.806c7.472 4.003 11.26 7.621 10.745 10.474-.862 4.77-13.743 7.335-35.339 7.037-11.672-.162-25.247-1.134-39.918-2.816l-.215.807c43.587 5.045 74.747 3.481 76.259-4.887z" fill="#fbeedd" fill-rule="evenodd"/></g><path clip-rule="evenodd" d="m618.266 455.644h211.966v-351.905h-211.966z" fill="#ffeae6" fill-rule="evenodd"/><g mask="url(#p)"><path clip-rule="evenodd" d="m870.903 536.911h-231.818c-1.752 0-3.172-1.42-3.172-3.172v-438.2483c0-1.7528 1.42-3.1736 3.172-3.1736h231.818c1.752 0 3.173 1.4208 3.173 3.1736v438.2483c0 1.752-1.421 3.172-3.173 3.172z" fill="#db8c7f" fill-rule="evenodd"/></g><g mask="url(#q)"><path clip-rule="evenodd" d="m893.159 536.911h-231.817c-1.753 0-3.173-1.42-3.173-3.172v-438.2483c0-1.7528 1.42-3.1736 3.173-3.1736h231.817c1.752 0 3.173 1.4208 3.173 3.1736v438.2483c0 1.752-1.421 3.172-3.173 3.172z" fill="#f7aa9a" fill-rule="evenodd"/></g><g mask="url(#r)"><g clip-rule="evenodd" fill-rule="evenodd"><path d="m678.986 469.525h196.061v-356.047h-196.061z" fill="#ffc9bb"/><path d="m678.985 272.102h195.917v-9.468h-195.917z" fill="#f7a28d"/><path d="m678.986 216.518h196.061v-9.468h-196.061z" fill="#f7a28d"/><path d="m679.208 370.927h195.89v-9.469h-195.89z" fill="#f7a28d"/><path d="m735.388 262.835h-35.38c-2.262 0-4.168-1.69-4.436-3.937l-2.767-23.058h49.587l-2.562 23.021c-.253 2.262-2.165 3.974-4.442 3.974z" fill="#ff9b78"/><path d="m691.381 235.84h52.477v-4.04h-52.477z" fill="#d86a6a"/><path d="m739.897 258.251 1.87-16.79h-48.288l2.015 16.79z" fill="#fff"/><path d="m703.034 247.544h29.042v-3.238h-29.042z" fill="#d86a6a"/><path d="m703.034 253.748h16.408v-3.237h-16.408z" fill="#d86a6a"/><path d="m793.58 262.835h-35.381c-2.262 0-4.167-1.69-4.436-3.937l-2.766-23.058h49.587l-2.563 23.021c-.252 2.262-2.164 3.974-4.441 3.974z" fill="#ff9b78"/><path d="m749.573 235.84h52.477v-4.04h-52.477z" fill="#d86a6a"/><path d="m798.088 258.251 1.87-16.79h-48.287l2.014 16.79z" fill="#fff"/><path d="m761.225 247.544h29.042v-3.238h-29.042z" fill="#d86a6a"/><path d="m761.225 253.748h16.408v-3.237h-16.408z" fill="#d86a6a"/><path d="m851.994 262.835h-35.38c-2.263 0-4.167-1.69-4.437-3.937l-2.766-23.058h49.588l-2.564 23.021c-.252 2.262-2.164 3.974-4.441 3.974z" fill="#ff9b78"/><path d="m807.987 235.84h52.477v-4.04h-52.477z" fill="#d86a6a"/><path d="m856.503 258.251 1.87-16.79h-48.288l2.014 16.79z" fill="#fff"/><path d="m819.64 247.544h29.043v-3.238h-29.043z" fill="#d86a6a"/><path d="m819.64 253.748h16.409v-3.237h-16.409z" fill="#d86a6a"/><path d="m731.885 206.974h-35.477c-1.045 0-1.893-.848-1.893-1.893v-23.613c0-1.045.848-1.893 1.893-1.893h35.477c1.045 0 1.893.848 1.893 1.893v23.613c0 1.045-.848 1.893-1.893 1.893z" fill="#d86a6a"/><path d="m698.386 179.845h31.784v-3.436h-31.784z" fill="#d86a6a"/><path d="m695.059 176.409h38.161v-3.351h-38.161z" fill="#f7aa9a"/><path d="m694.515 202.54h39.263v-18.602h-39.263z" fill="#fff"/><path d="m698.317 192.439h31.784v-4.473h-31.784z" fill="#ce5777"/><path d="m705.598 199.585h17.221v-4.474h-17.221z" fill="#ce5777"/><path d="m731.878 173.059h-35.476c-1.045 0-1.893-.848-1.893-1.893v-23.613c0-1.045.848-1.893 1.893-1.893h35.476c1.046 0 1.893.848 1.893 1.893v23.613c0 1.045-.847 1.893-1.893 1.893z" fill="#d86a6a"/><path d="m698.379 145.93h31.784v-3.436h-31.784z" fill="#d86a6a"/><path d="m695.054 142.493h38.161v-3.35h-38.161z" fill="#f7aa9a"/><path d="m694.509 168.625h39.262v-18.602h-39.262z" fill="#fff"/><path d="m698.311 158.524h31.784v-4.474h-31.784z" fill="#ce5777"/><path d="m705.592 165.671h17.222v-4.474h-17.222z" fill="#ce5777"/><path d="m795.544 206.974h-35.477c-1.045 0-1.893-.848-1.893-1.893v-23.613c0-1.045.848-1.893 1.893-1.893h35.477c1.046 0 1.893.848 1.893 1.893v23.613c0 1.045-.847 1.893-1.893 1.893z" fill="#ffedeb"/><path d="m762.045 179.845h31.784v-3.436h-31.784z" fill="#ffedeb"/><path d="m758.719 176.409h38.161v-3.351h-38.161z" fill="#ff9b78"/><path d="m758.174 202.54h39.263v-18.602h-39.263z" fill="#d86a6a"/><path d="m795.538 173.059h-35.477c-1.045 0-1.893-.848-1.893-1.893v-23.613c0-1.045.848-1.893 1.893-1.893h35.477c1.045 0 1.892.848 1.892 1.893v23.613c0 1.045-.847 1.893-1.892 1.893z" fill="#ffedeb"/><path d="m762.039 145.93h31.784v-3.436h-31.784z" fill="#ffedeb"/><path d="m758.713 142.493h38.161v-3.35h-38.161z" fill="#ff9b78"/><path d="m758.168 168.625h39.262v-18.602h-39.262z" fill="#d86a6a"/><path d="m857.36 206.974h-35.476c-1.045 0-1.893-.848-1.893-1.893v-23.613c0-1.045.848-1.893 1.893-1.893h35.476c1.046 0 1.893.848 1.893 1.893v23.613c0 1.045-.847 1.893-1.893 1.893z" fill="#d86a6a"/><path d="m823.861 179.845h31.784v-3.436h-31.784z" fill="#d86a6a"/><path d="m820.535 176.409h38.161v-3.351h-38.161z" fill="#f7aa9a"/><path d="m819.991 202.54h39.262v-18.602h-39.262z" fill="#fff"/><path d="m823.793 192.439h31.784v-4.473h-31.784z" fill="#ce5777"/><path d="m857.354 173.059h-35.477c-1.045 0-1.893-.848-1.893-1.893v-23.613c0-1.045.848-1.893 1.893-1.893h35.477c1.046 0 1.893.848 1.893 1.893v23.613c0 1.045-.847 1.893-1.893 1.893z" fill="#d86a6a"/><path d="m823.855 145.93h31.784v-3.436h-31.784z" fill="#d86a6a"/><path d="m820.529 142.493h38.161v-3.35h-38.161z" fill="#f7aa9a"/><path d="m819.985 168.625h39.262v-18.602h-39.262z" fill="#fff"/><path d="m823.786 158.524h31.784v-4.474h-31.784z" fill="#ce5777"/><path d="m710.411 469.327-11.634.017c-2.256.003-4.088-1.824-4.091-4.08l-.085-57.504c-.004-2.256 1.824-4.088 4.08-4.091l11.633-.017c2.256-.004 4.088 1.823 4.091 4.079l.086 57.505c.003 2.256-1.824 4.087-4.08 4.091z" fill="#ffedeb"/><path d="m714.48 457.734-19.805.03-.067-44.861 19.805-.029z" fill="#f7aa9a"/><path d="m707.89 409.794-6.767.01-.038-25.288 6.767-.009z" fill="#ffedeb"/><path d="m710.562 387.26-12.179.017-.007-5.515 12.178-.018z" fill="#db8c7f"/><path d="m710.633 435.31-12.179.017-.021-14.934 12.178-.018z" fill="#fff"/><path d="m710.643 441.742-12.179.017-.004-3.204 12.178-.018z" fill="#fff"/><path d="m758.294 469.327-11.634.017c-2.256.003-4.088-1.824-4.091-4.08l-.086-57.504c-.003-2.256 1.824-4.088 4.08-4.091l11.634-.017c2.256-.004 4.087 1.823 4.091 4.079l.085 57.505c.004 2.256-1.823 4.087-4.079 4.091z" fill="#ff9b78"/><path d="m762.362 457.734-19.804.03-.067-44.861 19.804-.029z" fill="#d86a6a"/><path d="m755.773 409.794-6.768.01-.037-25.288 6.767-.009z" fill="#ff9b78"/><path d="m758.445 387.26-12.179.017-.008-5.515 12.179-.018z" fill="#db8c7f"/><path d="m758.515 435.31-12.178.017-.022-14.934 12.179-.018z" fill="#fff"/><path d="m758.525 441.742-12.178.017-.005-3.204 12.178-.018z" fill="#fff"/><path d="m806.176 469.327-11.634.017c-2.256.003-4.087-1.824-4.091-4.08l-.086-57.504c-.003-2.256 1.824-4.088 4.08-4.091l11.634-.017c2.256-.004 4.088 1.823 4.091 4.079l.086 57.505c.003 2.256-1.824 4.087-4.08 4.091z" fill="#ffedeb"/><path d="m810.245 457.734-19.805.03-.066-44.861 19.804-.029z" fill="#f7aa9a"/><path d="m803.655 409.794-6.767.01-.038-25.288 6.767-.009z" fill="#ffedeb"/><path d="m806.328 387.26-12.18.017-.007-5.515 12.178-.018z" fill="#db8c7f"/><path d="m806.399 435.31-12.18.017-.021-14.934 12.178-.018z" fill="#fff"/><path d="m806.408 441.742-12.179.017-.004-3.204 12.178-.018z" fill="#fff"/><path d="m712.361 361.978h-8.189c-4.862 0-8.804-3.942-8.804-8.804v-47.577h25.797v47.577c0 4.862-3.942 8.804-8.804 8.804z" fill="#fff"/><path d="m695.368 305.597h25.797l-5.302-10.632h-15.872z" fill="#fff"/><path d="m701.648 287.463h12.178v-5.516h-12.178z" fill="#db8c7f"/><path d="m695.368 346.14h25.797v-36.454h-25.797z" fill="#ff9b78"/><path d="m703.254 287.463-3.262 7.502h15.872l-3.741-7.502z" fill="#fff"/><path d="m754.191 361.978h-8.19c-4.862 0-8.803-3.942-8.803-8.804v-47.577h25.796v47.577c0 4.862-3.942 8.804-8.803 8.804z" fill="#fff"/><path d="m737.198 305.597h25.796l-5.301-10.632h-15.872z" fill="#fff"/><path d="m743.477 287.463h12.179v-5.516h-12.179z" fill="#db8c7f"/><path d="m737.198 346.14h25.796v-36.454h-25.796z" fill="#ff9b78"/><path d="m745.084 287.463-3.263 7.502h15.872l-3.741-7.502z" fill="#fff"/><path d="m784.591 361.951h28.04v-57.925h-28.04z" fill="#ffefee"/><path d="m800.391 285.926h-3.56l-12.24 18.1h28.04z" fill="#ff9b78"/><path d="m796.831 285.927h3.628v-5.954h-3.628z" fill="#ce5777"/><path d="m788.436 333.788h20.182v-24.102h-20.182z" fill="#ff9b78"/><path d="m788.436 342.319h20.182v-4.604h-20.182z" fill="#ff9b78"/><path d="m788.436 350.171h20.182v-4.603h-20.182z" fill="#ff9b78"/><path d="m875.066 200.435v-86.949h-92.509z" fill="#ecf0f1" opacity=".3"/><path d="m754.797 113.486h-20.658l140.927 132.455v-19.415z" fill="#ecf0f1" opacity=".3"/><path d="m678.982 127.092v342.199h196.262v-157.923z" fill="#ecf0f1" opacity=".3"/><path d="m782.894 256.937-55.529 24.365s-10.598-4.645-7.03-14.443l55.197-37.781z" fill="#ff8d54"/><path d="m752.26 436.086 21.809-1.322s15.633 11.875 0 71.084l-11.509 2.648z" fill="#592b43"/><path d="m830.477 341.879 2.231 102.126-22.103-6.791-12.356-85.211z" fill="#592b43"/><path d="m810.605 437.214 21.781-7.962s18.857 4.045 21.567 72.301l-10.901 6.183z" fill="#592b43"/><path d="m812.524 224.718-1.528-23.8-20.555 18.648-.713 6.208s10.211 14.248 22.796-1.056z" fill="#ff8d54"/><path d="m784.605 218.059 5.878 1.309c1.228.273 2.512.146 3.663-.361 7.636-3.368 10.508-7.806 13.988-15.391l4.976-5.336-7.116-20.316-28.336 2.184-1.77 9.768c-.546 3.008-.463 6.096.243 9.071l3.319 13.989c.604 2.541 2.604 4.515 5.155 5.083z" fill="#ff8d54"/><path d="m784.605 218.059 5.878 1.309c1.228.273 2.512.146 3.663-.361 7.636-3.368 9.6-8.903 13.08-16.487l5.884-4.24-7.116-20.316-28.336 2.184-1.77 9.768c-.546 3.008-.463 6.096.243 9.071l3.319 13.989c.604 2.541 2.604 4.515 5.155 5.083z" fill="#ff8d54"/><path d="m804.786 188.579 1.749 9.85 5.449-2.193 1.871-6.615s3.664-21.185-9.252-24.079c0 0-2.7-.866-7.978.215 0 0-5.889 1.053-9.568-2.521-1.108-1.076-2.337-2.028-3.729-2.698-2.987-1.438-7.461-2.283-9.985 3.525 0 0-7.751 14.32 3.781 19.033 0 0 7.459 2.89 12.459-.949.237-.183.488-.347.761-.469.085-.038.182-.08.289-.123 6.539-2.703 12.153.237 14.153 7.024z" fill="#6a1244"/><path d="m807.619 195.259s4.522-5.064 7.126-2.204c1.297 1.424 1.293 3.602.162 5.16-1.17 1.612-3.39 4.032-7.552 7.066l-2.223-4.766" fill="#ff8d54"/><path d="m782.437 195.591-.284 9.605-5.926 1.6s4.306-10.343 6.21-11.205z" fill="#d1661e"/></g><path d="m787.201 210.011s-4.764 1.878-9.035-.21" stroke="#d1661e" stroke-linecap="round" stroke-linejoin="round" stroke-width="1.1664"/><path clip-rule="evenodd" d="m789.407 195.943c-.12 1.046.315 1.954.971 2.03.655.075 1.284-.712 1.404-1.757.12-1.046-.314-1.956-.969-2.03-.656-.076-1.286.71-1.406 1.757z" fill="#592b43" fill-rule="evenodd"/><path clip-rule="evenodd" d="m776.698 194.482c-.12 1.046.183 1.94.678 1.996.494.057.994-.744 1.113-1.79.121-1.046-.183-1.94-.678-1.997s-.994.745-1.113 1.791z" fill="#592b43" fill-rule="evenodd"/><path d="m790.057 190.27s2.758 2.023 4.913 1.926" stroke="#592b43" stroke-linecap="round" stroke-linejoin="round" stroke-width="1.5984"/><path d="m779.482 188.901s-1.769-1.489-3.228-.183" stroke="#592b43" stroke-linecap="round" stroke-linejoin="round" stroke-width="1.5984"/><path clip-rule="evenodd" d="m789.727 225.775s10.017 12.279 22.796-1.057l22.362 9.685-5.596 62.802 5.596 43.526s-50.366 27.982-67.776 9.328l3.685-59.465 4.738-61.516z" fill="#96b6ec" fill-rule="evenodd"/><path clip-rule="evenodd" d="m798.653 354.795-28.266 93.376-18.127-12.085 14.848-86.027z" fill="#592b43" fill-rule="evenodd"/><path clip-rule="evenodd" d="m782.523 244.265h38.38l19.072 159.324s-47.483 9.988-85.365-4.475z" fill="#ce5777" fill-rule="evenodd"/><path d="m802.424 214.883s-4.695 4.951-13.112 4.317" stroke="#d1661e" stroke-linecap="round" stroke-linejoin="round" stroke-width="1.1664"/><path d="m813.11 197.074s-1.265-3.55-4.136.604" stroke="#d1661e" stroke-linecap="round" stroke-linejoin="round" stroke-width="1.1664"/><path clip-rule="evenodd" d="m811.042 169.839s8.598-3.607 6.82 4.333l-4.435 16.963-3.623-12.179" fill="#6a1244" fill-rule="evenodd"/><path d="m811.83 201.952s-2.887 3.548-5.711 1.826" stroke="#d1661e" stroke-linecap="round" stroke-linejoin="round" stroke-width="1.1664"/><path clip-rule="evenodd" d="m727.345 263.136s-35.502-16.735-56.421-18.93l2.087 10.422 53.84 26.674z" fill="#ff8d54" fill-rule="evenodd"/><path clip-rule="evenodd" d="m805.34 315.45s-18.469 2.575-14.741 4.509c0 0 8.603-.948 4.637 1.086 0 0-28.846 12.813-10.957 9.685 0 0 16.594.224 23.649-5.937z" fill="#ff8d54" fill-rule="evenodd"/><path clip-rule="evenodd" d="m856.562 296.245s-22.24 3.535-53.626 19.956l4.992 8.592 52.524-17.422z" fill="#ff8d54" fill-rule="evenodd"/><path clip-rule="evenodd" d="m775.532 229.078-30.129 20.623 7.523 22.686 20.048-10.083" fill="#96b6ec" fill-rule="evenodd"/><path clip-rule="evenodd" d="m781.017 227.802 5.137-1.195 1.047 18.67-4.517.751z" fill="#ce5777" fill-rule="evenodd"/><path clip-rule="evenodd" d="m822.303 228.953-5.041-2.183-1.038 18.506 4.518.752z" fill="#ce5777" fill-rule="evenodd"/><path clip-rule="evenodd" d="m787.201 256.933 29.023.651.826 21.651-32.07-.814z" fill="#a8385b" fill-rule="evenodd"/><path clip-rule="evenodd" d="m678.549 296.339-11.447 2.004c-2.219.388-4.335-1.096-4.723-3.316l-9.905-56.576c-.388-2.22 1.096-4.334 3.316-4.723l11.446-2.005c2.22-.388 4.335 1.097 4.723 3.316l9.906 56.577c.388 2.22-1.097 4.334-3.316 4.723z" fill="#ce5777" fill-rule="evenodd"/><path clip-rule="evenodd" d="m680.573 284.236-19.485 3.411-7.728-44.136 19.485-3.412z" fill="#912d51" fill-rule="evenodd"/><path clip-rule="evenodd" d="m665.899 238.182-6.657 1.166-4.356-24.88 6.658-1.166z" fill="#ce5777" fill-rule="evenodd"/><path clip-rule="evenodd" d="m664.681 215.55-11.982 2.097-.949-5.426 11.981-2.098z" fill="#a8385b" fill-rule="evenodd"/><path clip-rule="evenodd" d="m672.957 262.824-11.982 2.098-2.572-14.694 11.982-2.097z" fill="#fff" fill-rule="evenodd"/><path clip-rule="evenodd" d="m674.065 269.152-11.982 2.098-.552-3.152 11.983-2.098z" fill="#fff" fill-rule="evenodd"/><path clip-rule="evenodd" d="m651.396 237.647s20.982 2.686 2.401 11.265c0 0-4.443-6.228-2.401-11.265z" fill="#ff8d54" fill-rule="evenodd"/><path clip-rule="evenodd" d="m627.718 346.624h-8.189c-4.862 0-8.804-3.943-8.804-8.804v-47.578h25.797v47.578c0 4.861-3.942 8.804-8.804 8.804z" fill="#fff" fill-rule="evenodd"/><path clip-rule="evenodd" d="m610.725 290.242h25.797l-5.302-10.632h-15.872z" fill="#fff" fill-rule="evenodd"/><path clip-rule="evenodd" d="m617.005 272.108h12.178v-5.516h-12.178z" fill="#912d51" fill-rule="evenodd"/><path clip-rule="evenodd" d="m610.725 330.786h25.796v-36.454h-25.796z" fill="#a8385b" fill-rule="evenodd"/><path clip-rule="evenodd" d="m618.611 272.108-3.262 7.502h15.872l-3.741-7.502z" fill="#fff" fill-rule="evenodd"/><path clip-rule="evenodd" d="m342.683 535.048h524.461l11.364-185.735h-547.404z" fill="#a8385b" fill-rule="evenodd"/><path clip-rule="evenodd" d="m882.979 373.339h-553.345c-2.422 0-4.385-1.963-4.385-4.384v-18.494c0-2.421 1.963-4.384 4.385-4.384h553.345c2.421 0 4.384 1.963 4.384 4.384v18.494c0 2.421-1.963 4.384-4.384 4.384z" fill="#912d51" fill-rule="evenodd"/><path clip-rule="evenodd" d="m688.248 349.414h124.803v-50.096h-124.803z" fill="#912d51" fill-rule="evenodd"/><path clip-rule="evenodd" d="m686.593 301.635h128.27v-5.383h-128.27z" fill="#6d203f" fill-rule="evenodd"/><path clip-rule="evenodd" d="m751.258 282.996h-51.676c-2.348 0-4.252 1.904-4.252 4.253v11.694h60.182v-11.694c0-2.349-1.904-4.253-4.254-4.253z" fill="#6d203f" fill-rule="evenodd"/><path clip-rule="evenodd" d="m716.155 282.997h4.802v-13.06h-4.802z" fill="#912d51" fill-rule="evenodd"/><path clip-rule="evenodd" d="m695.33 269.937h45.66v-12.283h-45.66z" fill="#6d203f" fill-rule="evenodd"/><path clip-rule="evenodd" d="m386.199 535.048h524.461l11.365-185.735h-547.404z" fill="#ff9b78" fill-rule="evenodd"/><path clip-rule="evenodd" d="m696.183 349.414h124.803v-50.096h-124.803z" fill="#a8385b" fill-rule="evenodd"/><path clip-rule="evenodd" d="m926.496 373.339h-553.346c-2.421 0-4.384-1.963-4.384-4.384v-18.494c0-2.421 1.963-4.384 4.384-4.384h553.346c2.422 0 4.384 1.963 4.384 4.384v18.494c0 2.421-1.962 4.384-4.384 4.384z" fill="#d86a6a" fill-rule="evenodd"/><path clip-rule="evenodd" d="m694.527 301.635h128.271v-5.383h-128.271z" fill="#912d51" fill-rule="evenodd"/><path clip-rule="evenodd" d="m759.193 282.996h-51.676c-2.349 0-4.254 1.904-4.254 4.253v11.694h60.183v-11.694c0-2.349-1.904-4.253-4.253-4.253z" fill="#912d51" fill-rule="evenodd"/><path clip-rule="evenodd" d="m724.089 282.997h4.802v-13.06h-4.802z" fill="#912d51" fill-rule="evenodd"/><path clip-rule="evenodd" d="m703.263 269.937h45.66v-12.283h-45.66z" fill="#912d51" fill-rule="evenodd"/><path clip-rule="evenodd" d="m707.01 266.593h38.168v-5.594h-38.168z" fill="#ffc9bb" fill-rule="evenodd"/><path clip-rule="evenodd" d="m633.063 346.077h-8.275c-4.839 0-8.761-3.922-8.761-8.761v-47.074h25.797v47.074c0 4.839-3.923 8.761-8.761 8.761z" fill="#fff" fill-rule="evenodd"/><path clip-rule="evenodd" d="m616.027 290.242h25.797l-5.302-10.632h-15.872z" fill="#fff" fill-rule="evenodd"/><path clip-rule="evenodd" d="m622.307 272.108h12.178v-5.516h-12.178z" fill="#a8385b" fill-rule="evenodd"/><path clip-rule="evenodd" d="m616.026 330.786h25.797v-36.454h-25.797z" fill="#ce5777" fill-rule="evenodd"/><path clip-rule="evenodd" d="m623.912 272.108-3.262 7.502h15.872l-3.741-7.502z" fill="#fff" fill-rule="evenodd"/><path clip-rule="evenodd" d="m703.263 314.615h110.639v-8.041h-110.639z" fill="#912d51" fill-rule="evenodd"/><path clip-rule="evenodd" d="m887.364 471.777h-481.53l-5.017-79.101h492.29z" fill="#d86a6a" fill-rule="evenodd"/></g></svg>