<svg fill="none" height="560" viewBox="0 0 960 560" width="960" xmlns="http://www.w3.org/2000/svg" xmlns:xlink="http://www.w3.org/1999/xlink"><mask id="a" height="102" maskUnits="userSpaceOnUse" width="167" x="331" y="51"><path clip-rule="evenodd" d="m331.931 51.7708h165.542v101.1362h-165.542z" fill="#fff" fill-rule="evenodd"/></mask><mask id="b" height="102" maskUnits="userSpaceOnUse" width="167" x="339" y="51"><path clip-rule="evenodd" d="m339.542 51.7708h165.542v101.1362h-165.542z" fill="#fff" fill-rule="evenodd"/></mask><mask id="c" height="2" maskUnits="userSpaceOnUse" width="11" x="358" y="91"><path clip-rule="evenodd" d="m358.286 91.2051c1.625.5922 3.379.9153 5.209.9153s3.584-.3231 5.209-.9153z" fill="#fff" fill-rule="evenodd"/></mask><mask id="d" height="27" maskUnits="userSpaceOnUse" width="20" x="354" y="66"><path clip-rule="evenodd" d="m373.132 88.678c-2.623 2.151-5.979 3.442-9.637 3.442-3.406 0-6.551-1.1196-9.086-3.0107v-23.1047h18.723z" fill="#fff" fill-rule="evenodd"/></mask><mask id="e" height="26" maskUnits="userSpaceOnUse" width="15" x="540" y="182"><path clip-rule="evenodd" d="m553.339 182.007c.394.478.76.98 1.095 1.504v16.472c-2.722 4.26-7.493 7.085-12.925 7.085-.485 0-.965-.023-1.439-.067v-24.994z" fill="#fff" fill-rule="evenodd"/></mask><mask id="f" height="2" maskUnits="userSpaceOnUse" width="11" x="536" y="206"><path clip-rule="evenodd" d="m536.259 206.146c1.638.596 3.406.922 5.25.922s3.612-.326 5.249-.922z" fill="#fff" fill-rule="evenodd"/></mask><mask id="g" height="28" maskUnits="userSpaceOnUse" width="21" x="529" y="180"><path clip-rule="evenodd" d="m529.977 181.656c.29-.331.595-.65.912-.955h18.886v23.949c-2.385 1.53-5.222 2.418-8.266 2.418-4.598 0-8.723-2.025-11.532-5.23z" fill="#fff" fill-rule="evenodd"/></mask><mask id="h" height="12" maskUnits="userSpaceOnUse" width="11" x="314" y="292"><path clip-rule="evenodd" d="m324.883 303.267c-.917.173-1.863.263-2.829.263-2.591 0-5.03-.648-7.165-1.79v-9.182h9.994z" fill="#fff" fill-rule="evenodd"/></mask><path d="m0 0h960v560h-960z" fill="#fff8f7"/><path clip-rule="evenodd" d="m477.457 330.26h137.205v-68.489h-137.205z" fill="#a8385b" fill-rule="evenodd"/><g mask="url(#a)"><path clip-rule="evenodd" d="m491.937 152.906h-154.47c-3.058 0-5.536-2.477-5.536-5.533v-90.0686c0-3.056 2.478-5.5344 5.536-5.5344h154.47c3.058 0 5.536 2.4784 5.536 5.5344v90.0686c0 3.056-2.478 5.533-5.536 5.533z" fill="#54244d" fill-rule="evenodd"/></g><path clip-rule="evenodd" d="m465.08 151.921s13.508 12.667 22.003 10.753c0 0-6.688-10.156-5.763-15.104" fill="#54244d" fill-rule="evenodd"/><g mask="url(#b)"><path clip-rule="evenodd" d="m499.583 152.906h-154.54c-3.038 0-5.501-2.462-5.501-5.499v-90.1362c0-3.0378 2.463-5.5008 5.501-5.5008h154.54c3.038 0 5.501 2.463 5.501 5.5008v90.1362c0 3.037-2.463 5.499-5.501 5.499z" fill="#773869" fill-rule="evenodd"/></g><path clip-rule="evenodd" d="m471.813 148.876s8.076 13.498 15.27 13.798c0 0-3.168-9.903-1.369-13.798" fill="#773869" fill-rule="evenodd"/><path clip-rule="evenodd" d="m378.703 76.9175c0 8.3966-6.809 15.203-15.208 15.203s-15.207-6.8064-15.207-15.203c0-8.3965 6.808-15.2029 15.207-15.2029s15.208 6.8064 15.208 15.2029z" fill="#fff" fill-rule="evenodd"/><path clip-rule="evenodd" d="m362.466 84.2718-1.653 7.1953 7.239-.2623.982-8.0168z" fill="#ff8d54" fill-rule="evenodd"/><path clip-rule="evenodd" d="m367.205 69.989s-8.933-6.0931-12.554 3.4107l-.452 5.4272c0 .2839.066.5621.192.8096l.564 2.2771c.407 1.6478 1.268 3.1621 2.536 4.2898.854.7595 1.258.8729 1.933.6523l9.281-2.4682z" fill="#ff8d54" fill-rule="evenodd"/><g mask="url(#c)"><path clip-rule="evenodd" d="m361.775 91.2051-6.656 1.8159-2.048 4.4186 24.902.8621-3.773-6.035-6.148-1.0616z" fill="#ff8d54" fill-rule="evenodd"/></g><g mask="url(#d)"><path clip-rule="evenodd" d="m354.542 74.7155s6.578-4.7396 7.535-2.0587c0 0 .966 4.9015 3.178 7.2556 1.361 1.4471 2.15 3.4289 2.055 5.515l-.125 2.7613s-2.495 4.7493.315 10.8732c0 0-2.049 3.6051 0 7.3441 0 0-1.534 3.738.981 5.474 0 0 3.239-1.068 2.154-5.074 0 0 4.037-4.904 1.06-7.6135 0 0 2.045-9.6891-1.046-13.602 0 0 8.642-20.2635-6.317-19.495 0 0-11.261-1.5992-9.79 8.62z" fill="#592b43" fill-rule="evenodd"/></g><path d="m364.526 84.9351s-.273.6368-2.494 1.2275" stroke="#d1661e" stroke-linecap="round" stroke-linejoin="round" stroke-width=".515982"/><path clip-rule="evenodd" d="m357.129 77.5945-.068 3.9699-2.788.6209s1.963-4.247 2.856-4.5908z" fill="#d1661e" fill-rule="evenodd"/><path d="m359.253 83.6876s-2.029.2834-3.71-.402" stroke="#d1661e" stroke-linecap="round" stroke-linejoin="round" stroke-width=".481203"/><path clip-rule="evenodd" d="m360.169 77.7232c-.049.4316.13.8067.401.8375s.531-.2936.58-.7252c.05-.4316-.13-.8068-.4-.8376-.271-.0313-.531.2931-.581.7253z" fill="#592b43" fill-rule="evenodd"/><path clip-rule="evenodd" d="m354.923 77.1197c-.05.4316.076.8005.279.8239.205.0234.411-.3073.461-.7389.049-.4316-.076-.8005-.28-.8239-.205-.0234-.41.3073-.46.7389z" fill="#592b43" fill-rule="evenodd"/><path d="m360.438 75.3817s1.014-.0946 2.033.7674" stroke="#592b43" stroke-linecap="round" stroke-linejoin="round" stroke-width=".594092"/><path clip-rule="evenodd" d="m364.406 78.8036s2.063-3.0725 3.225-1.841c.262.2765.369.6637.336 1.0428-.104 1.1563-.556 4.2339-2.445 3.8171" fill="#ff8d54" fill-rule="evenodd"/><path d="m366.037 78.1426s1.45.2469.296 1.7475" stroke="#d1661e" stroke-linecap="round" stroke-linejoin="round" stroke-width=".515982"/><path d="m355.998 75.0038s-.846-.4094-1.376.0833" stroke="#592b43" stroke-linecap="round" stroke-linejoin="round" stroke-width=".594092"/><path clip-rule="evenodd" d="m385.135 72.7487h49.18v-9.9445h-49.18z" fill="#fff" fill-rule="evenodd"/><path clip-rule="evenodd" d="m385.134 85.5435h104.92v-6.5247h-104.92z" fill="#54244d" fill-rule="evenodd"/><path clip-rule="evenodd" d="m385.134 98.6446h104.92v-6.5247h-104.92z" fill="#54244d" fill-rule="evenodd"/><path clip-rule="evenodd" d="m385.134 111.455h104.92v-6.525h-104.92z" fill="#54244d" fill-rule="evenodd"/><path clip-rule="evenodd" d="m385.134 124.264h104.92v-6.525h-104.92z" fill="#54244d" fill-rule="evenodd"/><path clip-rule="evenodd" d="m385.134 137.074h38.732v-6.525h-38.732z" fill="#54244d" fill-rule="evenodd"/><path clip-rule="evenodd" d="m439.755 72.7487h41.501v-9.9445h-41.501z" fill="#fff" fill-rule="evenodd"/><path clip-rule="evenodd" d="m669.725 238.014h-154.471c-3.058 0-5.536-2.478-5.536-5.534v-61.415c0-3.056 2.478-5.535 5.536-5.535h154.471c3.056 0 5.535 2.479 5.535 5.535v61.415c0 3.056-2.479 5.534-5.535 5.534z" fill="#204b99" fill-rule="evenodd"/><path clip-rule="evenodd" d="m642.866 237.826s13.509 12.667 22.003 10.752c0 0-6.688-10.155-5.763-15.103" fill="#204b99" fill-rule="evenodd"/><path clip-rule="evenodd" d="m677.369 238.014h-154.539c-3.039 0-5.501-2.462-5.501-5.5v-61.483c0-3.038 2.462-5.501 5.501-5.501h154.539c3.039 0 5.502 2.463 5.502 5.501v61.483c0 3.038-2.463 5.5-5.502 5.5z" fill="#96b6ec" fill-rule="evenodd"/><path clip-rule="evenodd" d="m649.599 234.78s8.076 13.499 15.27 13.798c0 0-3.167-9.902-1.369-13.798" fill="#96b6ec" fill-rule="evenodd"/><path clip-rule="evenodd" d="m562.92 186.51h72.962v-9.945h-72.962z" fill="#fff" fill-rule="evenodd"/><path clip-rule="evenodd" d="m562.92 199.304h104.921v-6.524h-104.921z" fill="#6f9ad8" fill-rule="evenodd"/><path clip-rule="evenodd" d="m562.92 212.406h104.921v-6.525h-104.921z" fill="#6f9ad8" fill-rule="evenodd"/><path clip-rule="evenodd" d="m562.921 225.07h38.732v-6.525h-38.732z" fill="#6f9ad8" fill-rule="evenodd"/><path clip-rule="evenodd" d="m639.976 186.51h24.894v-9.945h-24.894z" fill="#fff" fill-rule="evenodd"/><path clip-rule="evenodd" d="m526.183 191.747c0 8.461 6.861 15.321 15.325 15.321s15.326-6.86 15.326-15.321c0-8.462-6.862-15.321-15.326-15.321s-15.325 6.859-15.325 15.321z" fill="#fff" fill-rule="evenodd"/><g mask="url(#e)"><path clip-rule="evenodd" d="m545.579 182.007s6.866.281 6.435 9.491c0 0-.52 5.552.829 7.395.278.379.533.774.716 1.207.933 2.213 2.584 7.836-4.258 8.65l-7.574.268-1.657-7.954" fill="#592b43" fill-rule="evenodd"/></g><path clip-rule="evenodd" d="m542.546 199.159 1.666 7.251-7.296-.265-.989-8.079z" fill="#ff8d54" fill-rule="evenodd"/><path clip-rule="evenodd" d="m537.77 184.765s9.003-6.141 12.651 3.436l.27 6.255c.086 1.994-.469 3.957-1.552 5.633-.192.296-.391.629-.595 1.02-.531 1.022-2.252.875-2.933.653l-9.352-2.487z" fill="#ff8d54" fill-rule="evenodd"/><g mask="url(#f)"><path clip-rule="evenodd" d="m543.242 206.146 6.708 1.83 2.064 4.453-25.096.868 3.803-6.081 6.195-1.07z" fill="#ff8d54" fill-rule="evenodd"/></g><path d="m540.471 199.827s.274.642 2.513 1.237" stroke="#d1661e" stroke-linecap="round" stroke-linejoin="round" stroke-width=".519973"/><path clip-rule="evenodd" d="m547.925 192.429.057 3.31 2.364.234s-1.521-3.198-2.421-3.544z" fill="#d1661e" fill-rule="evenodd"/><path d="m545.854 197.972s2.455 1.48 3.907-.398" stroke="#d1661e" stroke-linecap="round" stroke-linejoin="round" stroke-width=".485194"/><path clip-rule="evenodd" d="m545.739 192.559c.05.435-.131.813-.403.844-.274.031-.535-.296-.585-.731s.131-.813.404-.844c.272-.032.534.296.584.731z" fill="#592b43" fill-rule="evenodd"/><path clip-rule="evenodd" d="m550.148 191.951c.05.435-.076.807-.282.831-.206.023-.414-.31-.464-.745s.077-.807.283-.831c.206-.023.413.31.463.745z" fill="#592b43" fill-rule="evenodd"/><path d="m545.615 190.199s-1.474-.198-2.502.671" stroke="#592b43" stroke-linecap="round" stroke-linejoin="round" stroke-width=".599223"/><path d="m549.064 189.819s1.739-.754 2.436-.12" stroke="#592b43" stroke-linecap="round" stroke-linejoin="round" stroke-width=".599223"/><g mask="url(#g)"><path clip-rule="evenodd" d="m545.149 185.217s-5.904 12.912-6.125 6.416c0 0-2.829-1.06-1.235 2.822.563 1.373.916 2.822.984 4.305.185 3.977.045 10.927-3.169 10.962 0 0-4.884.282-4.563-3.312.273-3.074-1.504-3.318-.96-5.965.233-1.131 2.945-5.835 2.306-7.464-.809-2.061-.376-4.963.539-6.979 1.055-2.321 3.413-4.694 8.583-5.234 0 0 5.743-1.069 8.266 5.333 0 0-3.554-1.848-4.626-.884z" fill="#592b43" fill-rule="evenodd"/></g><path clip-rule="evenodd" d="m539.29 196.247c-1.904.421-2.361-2.68-2.464-3.846-.035-.382.075-.773.337-1.052 1.172-1.24 3.251 1.856 3.251 1.856" fill="#ff8d54" fill-rule="evenodd"/><path d="m538.232 192.155s-1.275.712-.111 2.225" stroke="#d1661e" stroke-linecap="round" stroke-linejoin="round" stroke-width=".519973"/><path clip-rule="evenodd" d="m449.381 385.85h-151.131c-3.98 0-7.206-3.224-7.206-7.203v-108.404c0-3.978 3.226-7.204 7.206-7.204h151.131c3.98 0 7.206 3.226 7.206 7.204v108.404c0 3.979-3.226 7.203-7.206 7.203z" fill="#204b99" fill-rule="evenodd"/><path clip-rule="evenodd" d="m424.194 386.047s13.508 12.667 22.003 10.752c0 0-6.689-10.155-5.763-15.103" fill="#204b99" fill-rule="evenodd"/><path clip-rule="evenodd" d="m457.037 385.85h-151.22c-3.955 0-7.162-3.205-7.162-7.159v-108.492c0-3.954 3.207-7.16 7.162-7.16h151.22c3.955 0 7.161 3.206 7.161 7.16v108.492c0 3.954-3.206 7.159-7.161 7.159z" fill="#96b6ec" fill-rule="evenodd"/><path clip-rule="evenodd" d="m430.927 383.001s8.076 13.499 15.27 13.799c0 0-3.168-9.903-1.37-13.799" fill="#96b6ec" fill-rule="evenodd"/><path clip-rule="evenodd" d="m344.248 284.018h27.102v-9.944h-27.102z" fill="#fff" fill-rule="evenodd"/><path clip-rule="evenodd" d="m344.248 296.813h104.92v-6.524h-104.92z" fill="#6f9ad8" fill-rule="evenodd"/><path clip-rule="evenodd" d="m344.248 309.914h104.92v-6.524h-104.92z" fill="#6f9ad8" fill-rule="evenodd"/><path clip-rule="evenodd" d="m344.248 321.923h104.92v-6.525h-104.92z" fill="#6f9ad8" fill-rule="evenodd"/><path clip-rule="evenodd" d="m344.248 335.024h104.92v-6.525h-104.92z" fill="#6f9ad8" fill-rule="evenodd"/><path clip-rule="evenodd" d="m344.248 347.211h104.92v-6.525h-104.92z" fill="#6f9ad8" fill-rule="evenodd"/><path clip-rule="evenodd" d="m344.248 360.312h104.92v-6.525h-104.92z" fill="#6f9ad8" fill-rule="evenodd"/><path clip-rule="evenodd" d="m344.248 372.041h75.809v-6.525h-75.809z" fill="#6f9ad8" fill-rule="evenodd"/><path clip-rule="evenodd" d="m375.414 284.018h43.267v-9.944h-43.267z" fill="#fff" fill-rule="evenodd"/><path clip-rule="evenodd" d="m337.261 288.326c0 8.397-6.808 15.203-15.208 15.203-8.398 0-15.207-6.806-15.207-15.203s6.809-15.203 15.207-15.203c8.4 0 15.208 6.806 15.208 15.203z" fill="#fff" fill-rule="evenodd"/><g mask="url(#h)"><path clip-rule="evenodd" d="m314.889 302.989.67-10.431 9.012 8.173.312 2.722s-4.477 6.244-9.994-.464z" fill="#ff943e" fill-rule="evenodd"/></g><path clip-rule="evenodd" d="m327.129 300.071-2.577.573c-.539.12-1.101.064-1.606-.158-3.347-1.476-4.607-3.421-6.133-6.746l-2.181-2.338 3.119-8.905 12.424.957.776 4.282c.239 1.318.203 2.672-.107 3.975l-1.455 6.132c-.264 1.114-1.142 1.979-2.26 2.228z" fill="#ff943e" fill-rule="evenodd"/><path clip-rule="evenodd" d="m327.129 300.071-2.577.573c-.539.12-1.101.064-1.606-.158-3.347-1.476-4.209-3.902-5.735-7.226l-2.579-1.858 3.119-8.905 12.424.957.858 1.224c.239 1.318.121 5.73-.189 7.033l-1.455 6.132c-.264 1.114-1.142 1.979-2.26 2.228z" fill="#ff943e" fill-rule="evenodd"/><path clip-rule="evenodd" d="m317.039 290.077s-1.983-2.22-3.125-.965c-.568.623-.566 1.578-.071 2.261.514.707 1.487 1.767 3.312 3.097l.974-2.089" fill="#ff943e" fill-rule="evenodd"/><path clip-rule="evenodd" d="m328.08 289.172.124 4.21 3.165.424s-.919-4.337-3.289-4.634z" fill="#d1661e" fill-rule="evenodd"/><path d="m325.991 295.493s2.121.482 3.961-.093" stroke="#d1661e" stroke-linecap="round" stroke-linejoin="round" stroke-width=".51085"/><path clip-rule="evenodd" d="m325.024 289.327c.052.458-.138.857-.426.89-.287.032-.563-.312-.616-.77-.053-.459.138-.857.425-.89.288-.033.564.312.617.77z" fill="#592b43" fill-rule="evenodd"/><path clip-rule="evenodd" d="m330.595 288.686c.053.458-.08.85-.297.875s-.436-.326-.488-.785c-.053-.458.08-.85.298-.875.216-.025.435.327.487.785z" fill="#592b43" fill-rule="evenodd"/><path d="m324.739 286.84s-1.497-.192-2.154.844" stroke="#592b43" stroke-linecap="round" stroke-linejoin="round" stroke-width=".51085"/><path d="m329.375 286.24s.776-.653 1.415-.08" stroke="#592b43" stroke-linecap="round" stroke-linejoin="round" stroke-width=".51085"/><path d="m319.316 298.678s2.059 2.171 5.749 1.893" stroke="#d1661e" stroke-linecap="round" stroke-linejoin="round" stroke-width=".51085"/><path d="m314.632 290.873s.555-1.556 1.813.265" stroke="#d1661e" stroke-linecap="round" stroke-linejoin="round" stroke-width=".51085"/><path d="m315.193 293.01s1.266 1.555 2.504.8" stroke="#d1661e" stroke-linecap="round" stroke-linejoin="round" stroke-width=".51085"/><g clip-rule="evenodd" fill-rule="evenodd"><path d="m314.632 289.946s4.036 2.394 4.684-6.182c0 0 8.832 4.887 6.308-.502 0 0 9.502 4.55 7.524-.146-.318-.755-.825-1.416-1.446-1.948-1.553-1.329-5.142-3.942-8.833-3.397-4.907.723-8.172 2.642-8.237-.074 0 0-1.633-.65-.501 2.76 0 0-3.767-.044-3.419 1.196 0 0 2.428 1.348 3.92 8.293z" fill="#592b43"/><path d="m485.221 330.26h137.205v-68.489h-137.205z" fill="#f7aa9a"/><path d="m555.356 330.26h21.568l1.72-2.868c2.006-3.63-2.718-3.094-2.718-3.094l-.002.003c-.419-1.217-1.202-2.29-2.534-3.026 0 0-1.197-.809-3.934-1.035 0 0-3.033-.326-4.322-2.601-.389-.684-.854-1.325-1.439-1.852-1.255-1.13-3.325-2.184-5.39.298 0 0-5.839 5.896-.871 9.85l-1.58 3.16c-.189.379-.352.769-.498 1.165z" fill="#a8385b"/><path d="m581.995 379.431.344.599-.386.053z" fill="#96b6ec"/><path d="m517.402 295.298c0-2.647.003-5.179-.001-7.711-.002-.789.203-1.509.658-2.153.908-1.287 2.519-1.83 4.003-1.352 1.512.488 2.497 1.844 2.498 3.468.003 5.273.001 10.545 0 15.818v.993c.038.025.077.051.115.077.408-.42.804-.849 1.223-1.256 2.267-2.203 5.645-2.662 8.419-1.152 1.175.638 1.314 1.524.379 2.459-3.926 3.928-7.824 7.882-11.79 11.769-3.247 3.183-7.155 4.242-11.519 2.955-4.271-1.259-6.932-4.203-8.001-8.528-.208-.84-.268-1.73-.288-2.599-.042-1.863.003-3.727-.02-5.589-.018-1.55.659-2.674 1.98-3.438 2.289-1.325 4.577-2.648 6.865-3.972.241-.14.483-.28.72-.427 1.554-.967 3.151-.817 4.508.425.052.047.107.091.251.213z" fill="#fff"/><path d="m519.235 280.299h3.512v-7.089h-3.512z" fill="#a8385b"/><path d="m509.739 278.594c.761-.762 1.574-1.575 2.355-2.357 1.63 1.641 3.301 3.323 4.96 4.993-.748.745-1.565 1.558-2.344 2.334-1.653-1.652-3.326-3.325-4.971-4.97z" fill="#a8385b"/><path d="m506.708 289.245h7.091v-3.512h-7.091z" fill="#a8385b"/><path d="m528.178 289.229h7.091v-3.511h-7.091z" fill="#a8385b"/><path d="m527.224 283.576c-.748-.758-1.557-1.578-2.319-2.35 1.655-1.656 3.326-3.329 4.982-4.987.756.763 1.564 1.579 2.324 2.348-1.625 1.626-3.29 3.291-4.987 4.989z" fill="#a8385b"/><path d="m570.967 311.789h-22.445l8.802-9.591c1.54-1.715 3.873-4.576 4.797-5.983.66-1.056 1.76-2.947 1.76-4.972 0-1.1-.44-2.243-1.144-2.903-.572-.529-1.54-.837-2.685-.837-1.276 0-2.112.441-2.684 1.057-.792.88-1.232 2.464-1.232 3.607h-6.777c.22-2.552 1.232-5.455 3.036-7.347 1.409-1.496 3.917-3.035 8.098-3.035 4.268 0 6.557 1.759 7.613 2.771 1.585 1.584 2.729 4.004 2.729 7.039 0 2.596-.793 4.488-2.201 6.468-1.276 1.76-2.816 3.255-4.709 5.06l-3.08 2.947h10.122z" fill="#fff"/><path d="m575.853 291.243c.264-2.463 1.364-5.059 2.904-6.642 2.157-2.245 5.017-2.773 7.438-2.773 3.608 0 6.205 1.1 7.701 2.596 1.232 1.188 2.244 3.124 2.244 5.984 0 1.452-.264 2.727-1.188 4.003-.616.881-1.364 1.453-2.201 1.848 1.233.44 2.553 1.276 3.345 2.376.88 1.188 1.364 3.036 1.364 4.619 0 2.245-.88 4.796-2.948 6.688-2.509 2.288-5.369 2.551-7.745 2.551-2.861 0-5.985-.44-8.582-3.035-1.672-1.717-2.948-4.312-3.256-7.259h6.777c.088 1.143.616 2.507 1.408 3.3.704.703 1.849 1.187 3.256 1.187 1.145 0 2.245-.352 2.949-1.012.705-.66 1.188-1.804 1.188-2.992 0-1.232-.572-2.244-1.276-2.815-1.057-.836-2.597-.925-3.608-.925h-.529v-4.663h.396c.397 0 1.981-.044 2.949-.836.616-.527 1.1-1.452 1.1-2.639 0-1.012-.396-1.848-.968-2.376-.528-.484-1.408-.88-2.509-.88-1.144 0-2.068.396-2.64.968-.616.66-1.012 1.804-1.056 2.727z" fill="#fff"/><path d="m520.081 143.409h137.205v-68.4891h-137.205z" fill="#a8385b"/><path d="m527.845 143.409h137.206v-68.4891h-137.206z" fill="#f7aa9a"/><path d="m605.608 100.441h-4.181v-5.7201h10.958v29.3451h-6.777z" fill="#fff"/><path d="m634.787 117.863c.792-.748 1.539-1.98 1.539-3.871 0-1.717-.703-2.86-1.539-3.608-1.101-.968-2.377-1.232-3.521-1.232-1.32 0-2.552.308-3.565 1.276-.572.528-1.496 1.716-1.496 3.74 0 1.363.396 2.639 1.496 3.651.837.792 2.069 1.364 3.565 1.364 1.76 0 2.905-.748 3.521-1.32zm3.344-23.0535-7.745 9.6345c.88-.308 1.804-.484 3.081-.484 3.696 0 5.985 1.496 7.261 2.816 1.056 1.1 2.552 3.211 2.552 6.775 0 2.816-.88 5.808-2.772 7.875-2.685 2.904-6.425 3.3-9.022 3.3-2.684 0-6.601-.264-9.505-3.432-1.937-2.067-2.553-4.531-2.553-7.126 0-4.664 2.201-7.964 4.709-11.264l6.733-8.842z" fill="#fff"/><path d="m564.729 98.6057c-8.791 0-17.102 5.3893-17.102 11.0913 0 5.701 8.311 11.091 17.102 11.091 9.022 0 17.554-5.39 17.554-11.091 0-5.702-8.532-11.0913-17.554-11.0913zm0 25.4603c-9.64 0-20.38-5.901-20.38-14.369 0-3.899 2.345-7.582 6.603-10.3714 3.877-2.54 8.899-3.9967 13.777-3.9967 9.833 0 20.831 6.1441 20.831 14.3681s-10.998 14.369-20.831 14.369z" fill="#fff"/><path d="m556.742 98.3268c-1.519 1.8402-2.432 4.1982-2.432 6.7692 0 5.877 4.766 10.641 10.644 10.641 5.879 0 10.644-4.764 10.644-10.641 0-2.494-.861-4.786-2.299-6.601-2.696-.9738-5.657-1.528-8.571-1.528-2.738 0-5.479.4926-7.986 1.3598z" fill="#fff"/><path d="m276 245.737h137.206v-68.489h-137.206z" fill="#a8385b"/><path d="m283.765 245.737h210.504v-68.489h-210.504z" fill="#f7aa9a"/><path d="m498.758 345.136s-9.481.696-7.83-.667c0 0 4.389-.45 2.194-1.038 0 0-15.749-3.293-6.499-3.651 0 0 8.135-.944 12.312 1.369z" fill="#ff8d54"/><path d="m554.569 350.512-30.612-4.304s-4.857 3.383-1.756 7.699l32.594 11.288z" fill="#7faadd"/><path d="m525.293 354.507s-22.634-1.941-28.613-8.699l2.126-4.843 30.84 6.095z" fill="#7faadd"/><path d="m540.135 457.439 11.1-.925s8.104 5.87.819 36.217l-5.835 1.482z" fill="#592b43"/><path d="m578.912 408.54 2.314 52.007-11.343-3.205-7.279-43.272z" fill="#592b43"/><path d="m569.884 457.341 11.008-4.307s9.657 1.844 11.825 36.588l-5.485 3.276z" fill="#592b43"/><path d="m562.842 415.488-13.33 47.899-9.377-5.948 6.576-44.002z" fill="#592b43"/><path d="m552.054 492.732.195 8.614s-15.102 9.638-19.72 5.471c0 0 6.562-6.647 13.691-12.604z" fill="#592b43"/><path d="m592.677 489.126 2.226 8.325s-12.396 12.932-17.869 9.975c0 0 4.806-8.01 10.324-15.482z" fill="#592b43"/><path d="m556.806 349.855s5.247 6.14 11.607-.801l11.507 4.677-2.128 32.061 3.353 22.112s-25.346 14.836-34.434 5.533l1.194-30.339 1.705-31.397z" fill="#96b6ec"/><path d="m655.227 442.357-153.018 21.138c-3.028.419-5.823-1.697-6.241-4.724l-8.408-60.838c-.419-3.028 1.696-5.821 4.725-6.239l153.018-21.138c3.028-.418 5.823 1.697 6.241 4.725l8.408 60.837c.42 3.027-1.696 5.822-4.725 6.239z" fill="#54244d"/><path d="m628.596 445.846s15.116 10.699 23.268 7.64c0 0-8.016-9.144-7.777-14.172" fill="#54244d"/><path d="m662.8 441.312-153.085 21.147c-3.009.416-5.787-1.687-6.203-4.696l-8.418-60.904c-.415-3.009 1.687-5.786 4.697-6.202l153.085-21.147c3.01-.415 5.787 1.687 6.203 4.696l8.418 60.904c.416 3.009-1.687 5.786-4.697 6.202z" fill="#773869"/><path d="m634.849 441.908s9.848 12.266 17.015 11.579c0 0-4.493-9.377-3.245-13.481" fill="#773869"/><path d="m605.575 397.222-95.121 13.14-1.362-9.851 95.121-13.14z" fill="#fff"/><path d="m648.061 404.27-134.937 18.64-.894-6.464 134.938-18.64z" fill="#54244d"/><path d="m594.956 391.051-2.915-13.132-10.504 1.451 3.125 11.487c-5.41 3.122-17.09 10.478-19.35 16.983l.141.135c-2.03 1.756-5.213 4.688-3.713 4.587 0 0 3.497-2.69 2.307-.755 0 0-9.174 13.215-2.209 7.119 0 0 4.862-3.64 7.133-7.557l.149.143 23.554-15.385c1.8-1.003 2.728-3.064 2.282-5.076z" fill="#3f183b"/><path d="m649.855 417.248-134.937 18.64-.894-6.464 134.938-18.64z" fill="#54244d"/><path d="m566.465 441.552-49.814 6.881-.893-6.464 49.814-6.881z" fill="#54244d"/><path d="m643.366 392.002-32.455 4.484-1.362-9.851 32.455-4.483z" fill="#fff"/><path d="m566.799 403.536s-6.221 7.185-4.142 6.675c0 0 2.982-3.25 2.143-1.139 0 0-6.766 14.594-.952 7.392 0 0 5.616-5.958 6.255-10.689z" fill="#ff8d54"/><path d="m568.412 349.054-1.053-12.108-10.553 7.414v5.495s5.369 7.141 11.606-.801z" fill="#ff8d54"/><path d="m552.333 343.852 2.689 1.48c.561.309 1.208.431 1.844.346 4.217-.556 6.258-2.316 9.045-5.528l3.197-1.9-.577-10.955-14.178-2.982-2.263 4.526c-.697 1.393-1.097 2.916-1.177 4.472l-.376 7.318c-.069 1.329.629 2.581 1.796 3.223z" fill="#ff8d54"/><path d="m552.333 343.852 2.689 1.48c.561.309 1.208.431 1.844.346 4.217-.556 5.97-2.982 8.757-6.194l3.485-1.234-.577-10.955-14.178-2.982-2.263 4.526c-.697 1.393-1.097 2.916-1.177 4.472l-.376 7.318c-.069 1.329.629 2.581 1.796 3.223z" fill="#ff8d54"/><path d="m566.422 332.314-.553 5.069 2.98-.294 1.861-2.968s4.822-9.84-1.084-13.102c0 0-1.198-.809-3.935-1.035 0 0-3.033-.326-4.321-2.6-.389-.685-.854-1.326-1.44-1.853-1.255-1.13-3.324-2.184-5.389.298 0 0-5.839 5.897-.871 9.85 0 0 3.237 2.48 6.232 1.317.142-.056.288-.101.44-.121.047-.007.1-.013.158-.019 3.587-.388 5.913 1.853 5.922 5.458z" fill="#6a1244"/><path d="m566.853 335.987s2.937-1.831 3.802-.059c.431.881.118 1.947-.658 2.547-.803.622-2.235 1.488-4.706 2.377l-.406-2.649" fill="#ff8d54"/><path d="m554.484 332.551-1.512 4.658-3.459-.955s3.915-3.553 4.971-3.703z" fill="#d1661e"/></g><path d="m554.753 340.286s-2.525-.153-4.391-1.394" stroke="#d1661e" stroke-linecap="round" stroke-linejoin="round" stroke-width=".594092"/><path clip-rule="evenodd" d="m557.844 333.719c-.208.495-.126 1.001.185 1.131.31.132.73-.164.938-.658.209-.494.126-1.001-.184-1.132-.31-.13-.73.165-.939.659z" fill="#592b43" fill-rule="evenodd"/><path clip-rule="evenodd" d="m551.833 331.188c-.208.494-.187.976.047 1.074s.593-.223.801-.717c.209-.494.187-.975-.047-1.074-.234-.098-.592.223-.801.717z" fill="#592b43" fill-rule="evenodd"/><path d="m558.973 331.037s2.259.33 2.702 1.961" stroke="#592b43" stroke-linecap="round" stroke-linejoin="round" stroke-width=".814168"/><path d="m553.994 328.856s-.653-.982-1.554-.551" stroke="#592b43" stroke-linecap="round" stroke-linejoin="round" stroke-width=".814168"/><path clip-rule="evenodd" d="m579.48 353.732 12.201 29.583c.786 1.905.225 4.094-1.376 5.392-1.245 1.008-2.896 2.15-4.861 3.055l-7.532-13.144z" fill="#96b6ec" fill-rule="evenodd"/><path d="m561.506 344.844s-3.005 1.751-7.033.238" stroke="#d1661e" stroke-linecap="round" stroke-linejoin="round" stroke-width=".594092"/><path d="m569.281 337.66s-.112-1.918-2.111-.296" stroke="#d1661e" stroke-linecap="round" stroke-linejoin="round" stroke-width=".594092"/><path clip-rule="evenodd" d="m572.162 324.042s4.723-.536 2.718 3.094l-4.596 7.664-.032-6.475" fill="#6a1244" fill-rule="evenodd"/><path d="m567.957 339.863s-1.92 1.322-3.056.077" stroke="#d1661e" stroke-linecap="round" stroke-linejoin="round" stroke-width=".594092"/><path clip-rule="evenodd" d="m583.962 382.906s-17.146 13.136-18.597 22.04l4.381 2.963 20.559-19.202z" fill="#96b6ec" fill-rule="evenodd"/><path clip-rule="evenodd" d="m365.506 203.319c-2.124 2.08-2.427 6.24-2.427 8.277 0 2.253.39 6.327 2.427 8.32.78.736 1.561 1.084 2.688 1.084 1.126 0 1.907-.348 2.687-1.084 2.038-1.993 2.428-6.067 2.428-8.32 0-2.037-.304-6.197-2.428-8.277-.78-.736-1.561-1.082-2.687-1.082-1.127 0-1.908.346-2.688 1.082zm10.403 20.41c-1.69 1.648-4.204 2.99-7.758 2.99-3.468 0-5.939-1.299-7.673-2.99-2.818-2.773-4.161-7.149-4.161-12.089 0-4.984 1.343-9.403 4.161-12.134 1.734-1.69 4.205-2.99 7.673-2.99 3.554 0 6.068 1.344 7.758 2.99 2.818 2.731 4.161 7.15 4.161 12.134 0 4.94-1.343 9.316-4.161 12.089z" fill="#fff" fill-rule="evenodd"/><path clip-rule="evenodd" d="m383.146 205.833c.26-2.427 1.344-4.983 2.861-6.544 2.124-2.21 4.941-2.73 7.325-2.73 3.555 0 6.112 1.084 7.586 2.557 1.214 1.17 2.211 3.077 2.211 5.894 0 1.429-.261 2.687-1.171 3.943-.607.866-1.343 1.43-2.167 1.82 1.213.433 2.514 1.257 3.294 2.34.867 1.17 1.344 2.99 1.344 4.55 0 2.21-.867 4.723-2.904 6.587-2.471 2.253-5.289 2.513-7.629 2.513-2.818 0-5.895-.434-8.453-2.99-1.646-1.69-2.903-4.246-3.207-7.15h6.675c.087 1.126.607 2.47 1.387 3.25.694.693 1.821 1.17 3.208 1.17 1.127 0 2.21-.347 2.904-.997s1.171-1.776 1.171-2.946c0-1.214-.564-2.21-1.258-2.774-1.04-.823-2.557-.91-3.554-.91h-.52v-4.593h.39c.39 0 1.95-.043 2.904-.823.607-.52 1.084-1.431 1.084-2.601 0-.996-.391-1.819-.954-2.339-.52-.477-1.387-.867-2.471-.867-1.127 0-2.037.39-2.6.953-.607.65-.997 1.777-1.041 2.687z" fill="#fff" fill-rule="evenodd"/><path clip-rule="evenodd" d="m413.226 218.833c2.211 0 3.945 1.733 3.945 3.943s-1.734 3.943-3.945 3.943c-2.21 0-3.944-1.733-3.944-3.943s1.734-3.943 3.944-3.943zm0-12.74c2.211 0 3.945 1.733 3.945 3.943s-1.734 3.943-3.945 3.943c-2.21 0-3.944-1.733-3.944-3.943s1.734-3.943 3.944-3.943z" fill="#fff" fill-rule="evenodd"/><path clip-rule="evenodd" d="m442.397 226.069h-22.106l8.669-9.446c1.517-1.69 3.814-4.507 4.725-5.893.65-1.041 1.734-2.904 1.734-4.897 0-1.084-.433-2.21-1.127-2.86-.563-.52-1.518-.824-2.644-.824-1.257 0-2.081.434-2.644 1.04-.781.867-1.214 2.427-1.214 3.554h-6.675c.216-2.514 1.214-5.373 2.991-7.237 1.386-1.474 3.857-2.99 7.975-2.99 4.204 0 6.459 1.733 7.499 2.73 1.56 1.56 2.687 3.943 2.687 6.933 0 2.557-.78 4.42-2.167 6.371-1.257 1.733-2.774 3.206-4.638 4.983l-3.034 2.903h9.969z" fill="#fff" fill-rule="evenodd"/><path clip-rule="evenodd" d="m460.211 215.323v-11.224l-7.109 11.224zm6.415 0h3.468v5.286h-3.468v5.46h-6.415v-5.46h-14.13v-3.813l12.743-19.63h7.802z" fill="#fff" fill-rule="evenodd"/><path clip-rule="evenodd" d="m322.066 233.425c-11.65 0-21.129-9.476-21.129-21.124s9.479-21.124 21.129-21.124c11.652 0 21.131 9.476 21.131 21.124s-9.479 21.124-21.131 21.124z" fill="#fff" fill-rule="evenodd"/><path clip-rule="evenodd" d="m322.067 216.86c-.239 0-.48-.052-.702-.16-.56-.269-.915-.835-.915-1.456v-14.382c0-.893.724-1.616 1.617-1.616s1.616.723 1.616 1.616v11.031l5.721-4.549c.7-.556 1.716-.44 2.272.258.555.698.439 1.715-.259 2.271l-8.343 6.636c-.293.232-.648.351-1.007.351z" fill="#f7aa9a" fill-rule="evenodd"/></svg>