<svg fill="none" height="472" viewBox="0 0 1240 472" width="1240" xmlns="http://www.w3.org/2000/svg"><path d="m0 0h1240v472h-1240z" fill="#000"/><g fill="#fff"><path d="m152.988 272.576 2.016 8.288.736 3.136h2.32l.688-3.136 1.472-6.56h.032l1.392 6.56.64 3.136h2.336l.784-3.136 2.112-8.288h-1.824l-1.92 8.288-.288 1.312h-.032l-.288-1.312-1.776-8.288h-2.304l-1.856 8.288-.288 1.296h-.032l-.272-1.296-1.824-8.288zm15.676 11.424h1.648v-3.952c0-2.112.96-3.12 2.144-3.12 1.136 0 1.664.704 1.664 2.08v4.992h1.632v-5.264c0-1.792-.816-3.216-2.976-3.216-1.28 0-2.048.768-2.48 1.712v-4.656h-1.632zm9.015-5.76h1.6c.192-.864.896-1.408 1.84-1.408 1.104 0 1.744.448 1.744 1.136s-.416.944-1.488 1.12c-1.216.208-4.096.336-4.096 2.656 0 1.248.976 2.464 2.896 2.464 1.76 0 2.448-.992 2.688-1.648h.016v.352c0 .4 0 .736.032 1.088h1.712c-.08-.448-.128-1.168-.128-1.792v-3.36c0-1.536-.512-3.344-3.408-3.344-2.16 0-3.216 1.472-3.408 2.736zm1.232 3.472c0-.768.656-1.104 1.824-1.328 1.584-.272 1.984-.736 2.16-1.232v1.008c0 2-1.168 2.752-2.352 2.752-.992 0-1.632-.48-1.632-1.2zm9.519-.288v-4.384h1.6v-1.312h-1.6v-2.64l-1.616.72v1.92h-1.264v1.312h1.264v4.544c0 1.408.672 2.432 2.432 2.432h.8v-1.344h-.56c-.72 0-1.056-.448-1.056-1.248zm8.703 0v-4.384h1.6v-1.312h-1.6v-2.64l-1.616.72v1.92h-1.264v1.312h1.264v4.544c0 1.408.672 2.432 2.432 2.432h.8v-1.344h-.56c-.72 0-1.056-.448-1.056-1.248zm2.969 2.576h1.648v-3.952c0-2.112.96-3.12 2.144-3.12 1.136 0 1.664.704 1.664 2.08v4.992h1.632v-5.264c0-1.792-.816-3.216-2.976-3.216-1.28 0-2.048.768-2.48 1.712v-4.656h-1.632zm16.423-2.448h-1.616c-.288.912-1.152 1.312-2.176 1.312-1.392 0-2.384-.96-2.512-2.544h6.432v-.304c-.016-2.24-1.056-4.496-3.92-4.496-2.368 0-4.096 1.808-4.096 4.304 0 2.608 1.648 4.384 4.112 4.384 1.904 0 3.312-.944 3.776-2.656zm-6.288-2.464c.192-1.344 1.088-2.256 2.496-2.256 1.424 0 2.16.944 2.288 2.256zm11.52 1.904c0 1.792.816 3.216 2.976 3.216 1.28 0 2.048-.768 2.48-1.712v1.504h1.632v-8.272h-1.648v3.952c0 2.112-.96 3.12-2.144 3.12-1.136 0-1.664-.704-1.664-2.08v-4.992h-1.632zm13.622-2.784h1.6c-.176-1.792-1.568-2.688-3.264-2.688-1.584 0-3.12.912-3.12 2.448 0 1.28 1.04 2.032 2.32 2.352.384.112.784.208 1.168.304.736.192 1.392.416 1.392 1.104 0 .864-.864 1.152-1.664 1.152-1.04 0-1.648-.416-1.824-1.392h-1.632c.16 2.016 1.888 2.72 3.424 2.72 1.6 0 3.328-.88 3.328-2.576 0-1.344-1.152-1.968-2.448-2.304-.368-.096-.72-.176-1.104-.272-.768-.192-1.344-.544-1.344-1.152 0-.64.704-1.072 1.456-1.072.8 0 1.616.384 1.712 1.376zm10.661 3.344h-1.616c-.288.912-1.152 1.312-2.176 1.312-1.392 0-2.384-.96-2.512-2.544h6.432v-.304c-.016-2.24-1.056-4.496-3.92-4.496-2.368 0-4.096 1.808-4.096 4.304 0 2.608 1.648 4.384 4.112 4.384 1.904 0 3.312-.944 3.776-2.656zm-6.288-2.464c.192-1.344 1.088-2.256 2.496-2.256 1.424 0 2.16.944 2.288 2.256zm9.622-3.36h-1.632v8.272h1.648v-3.84c0-2.272.896-2.704 1.776-2.848.24-.064.608-.08.688-.08v-1.552c-1.216 0-2.048.464-2.48 1.648zm11.959 2.48h1.6c-.176-1.792-1.568-2.688-3.264-2.688-1.584 0-3.12.912-3.12 2.448 0 1.28 1.04 2.032 2.32 2.352.384.112.784.208 1.167.304.737.192 1.393.416 1.393 1.104 0 .864-.864 1.152-1.664 1.152-1.04 0-1.648-.416-1.824-1.392h-1.632c.16 2.016 1.888 2.72 3.424 2.72 1.6 0 3.328-.88 3.328-2.576 0-1.344-1.152-1.968-2.448-2.304-.368-.096-.72-.176-1.104-.272-.768-.192-1.345-.544-1.345-1.152 0-.64.705-1.072 1.457-1.072.8 0 1.616.384 1.712 1.376zm10.66 3.344h-1.616c-.288.912-1.152 1.312-2.176 1.312-1.392 0-2.384-.96-2.512-2.544h6.432v-.304c-.016-2.24-1.056-4.496-3.92-4.496-2.368 0-4.096 1.808-4.096 4.304 0 2.608 1.648 4.384 4.112 4.384 1.904 0 3.312-.944 3.776-2.656zm-6.288-2.464c.192-1.344 1.088-2.256 2.496-2.256 1.424 0 2.16.944 2.288 2.256zm15.367 2.464h-1.616c-.288.912-1.152 1.312-2.176 1.312-1.392 0-2.384-.96-2.512-2.544h6.432v-.304c-.016-2.24-1.056-4.496-3.92-4.496-2.368 0-4.096 1.808-4.096 4.304 0 2.608 1.648 4.384 4.112 4.384 1.904 0 3.312-.944 3.776-2.656zm-6.288-2.464c.192-1.344 1.088-2.256 2.496-2.256 1.424 0 2.16.944 2.288 2.256zm12.502-.88h1.6c-.176-1.792-1.568-2.688-3.264-2.688-1.584 0-3.12.912-3.12 2.448 0 1.28 1.04 2.032 2.32 2.352.384.112.784.208 1.168.304.736.192 1.392.416 1.392 1.104 0 .864-.864 1.152-1.664 1.152-1.04 0-1.648-.416-1.824-1.392h-1.632c.16 2.016 1.888 2.72 3.424 2.72 1.6 0 3.328-.88 3.328-2.576 0-1.344-1.152-1.968-2.448-2.304-.368-.096-.72-.176-1.104-.272-.768-.192-1.344-.544-1.344-1.152 0-.64.704-1.072 1.456-1.072.8 0 1.616.384 1.712 1.376zm3.33 3.808v1.984h1.872v-1.984zm11.311-3.888h-1.968v-4.112h2.048c1.552 0 2.416.736 2.416 2.048s-.944 2.064-2.496 2.064zm-3.696 5.872h1.728v-4.416h2.128c2.32 0 4.064-1.504 4.064-3.52 0-2-1.6-3.488-3.984-3.488h-3.936zm12.754.208c2.48 0 4.192-1.824 4.192-4.336s-1.712-4.352-4.192-4.352-4.208 1.84-4.208 4.352 1.728 4.336 4.208 4.336zm-2.576-4.336c0-1.648 1.024-2.992 2.576-2.992 1.536 0 2.576 1.344 2.576 2.992 0 1.632-1.04 2.976-2.576 2.976-1.552 0-2.576-1.344-2.576-2.976zm9.727 4.128h1.904l1.296-4.848c.16-.608.272-1.136.4-1.712h.032l.416 1.712 1.296 4.848h1.904l2.384-8.272h-1.696l-1.184 4.656c-.144.64-.288 1.296-.432 1.904h-.016c-.144-.624-.288-1.296-.448-1.904l-1.2-4.656h-2.048l-1.216 4.656c-.16.672-.256 1.248-.416 1.888h-.016c-.16-.656-.256-1.216-.416-1.856l-1.2-4.688h-1.712zm18.123-2.448h-1.616c-.288.912-1.152 1.312-2.176 1.312-1.392 0-2.384-.96-2.512-2.544h6.432v-.304c-.016-2.24-1.056-4.496-3.92-4.496-2.368 0-4.096 1.808-4.096 4.304 0 2.608 1.648 4.384 4.112 4.384 1.904 0 3.312-.944 3.776-2.656zm-6.288-2.464c.192-1.344 1.088-2.256 2.496-2.256 1.424 0 2.16.944 2.288 2.256zm9.622-3.36h-1.632v8.272h1.648v-3.84c0-2.272.896-2.704 1.776-2.848.24-.064.608-.08.688-.08v-1.552c-1.216 0-2.048.464-2.48 1.648zm11.119 5.824h-1.616c-.288.912-1.152 1.312-2.176 1.312-1.392 0-2.384-.96-2.512-2.544h6.432v-.304c-.016-2.24-1.056-4.496-3.92-4.496-2.368 0-4.096 1.808-4.096 4.304 0 2.608 1.648 4.384 4.112 4.384 1.904 0 3.312-.944 3.776-2.656zm-6.288-2.464c.192-1.344 1.088-2.256 2.496-2.256 1.424 0 2.16.944 2.288 2.256zm11.286-3.568c-2.304 0-3.808 1.728-3.808 4.32s1.504 4.352 3.808 4.352c1.472 0 2.432-.944 2.736-1.728h.016v1.536h1.68v-11.424h-1.664v4.736h-.016c-.288-.816-1.28-1.792-2.752-1.792zm-2.176 4.32c0-1.696.896-2.96 2.512-2.96 1.696 0 2.512 1.424 2.512 2.96 0 1.568-.8 2.992-2.512 2.992-1.664 0-2.512-1.28-2.512-2.992zm-169.906 19.68c-1.488 0-2.464.976-2.752 1.792h-.016v-4.736h-1.664v11.424h1.664v-1.536h.016c.304.784 1.28 1.728 2.736 1.728 2.304 0 3.824-1.76 3.824-4.352s-1.504-4.32-3.808-4.32zm-2.864 4.32c0-1.536.816-2.96 2.512-2.96 1.632 0 2.512 1.264 2.512 2.96 0 1.712-.848 2.992-2.512 2.992-1.712 0-2.512-1.424-2.512-2.992zm8.826-4.112h-1.744c1.104 2.784 2.208 5.504 3.392 8.48l-.272.688c-.224.576-.384.96-1.12.96h-.912v1.344h1.264c1.12 0 1.744-.592 2.112-1.584 1.68-4.56 2.064-5.44 3.696-9.888h-1.744c-.736 2.224-1.504 4.48-2.192 6.592h-.032c-.816-2.224-1.616-4.352-2.448-6.592zm18.336-3.152v4.96h-5.264v-4.96h-1.728v11.424h1.728v-4.992h5.264v4.992h1.728v-11.424zm3.173 1.456h3.44v9.968h1.728v-9.968h3.456v-1.456h-8.624zm10.07 9.968h1.696v-9.504h.032l3.168 9.504h1.904l3.152-9.504h.032v9.504h1.696v-11.424h-2.784l-3.024 9.392h-.016l-3.072-9.376-2.784-.016zm14.078-11.424v11.424h7.184v-1.456h-5.456v-9.968zm9.328 9.44-.864 3.952h1.472l1.216-3.952zm17.713-1.456h-1.712c-.464 1.28-1.616 2.192-3.488 2.192-2.656 0-4.096-2.032-4.096-4.464s1.456-4.464 4.096-4.464c1.808 0 2.864.784 3.472 2.192h1.728c-.704-2.144-2.336-3.648-5.2-3.648-3.664 0-5.824 2.64-5.824 5.92 0 3.312 2.144 5.92 5.808 5.92 2.896 0 4.736-1.648 5.216-3.648zm3.206-.144h-1.744c.096 2.64 2 3.856 4.496 3.856 2.08 0 4.08-1.024 4.08-3.36 0-2.416-1.936-2.864-3.856-3.424-1.488-.432-2.544-.864-2.544-1.968 0-1.28.976-1.776 2.176-1.776 1.424 0 2.112.672 2.32 2.048h1.744c-.208-2.368-1.76-3.488-4.048-3.488-2.064 0-3.952 1.088-3.92 3.28.048 2.208 1.952 2.784 3.84 3.36 1.44.432 2.56.672 2.56 2 0 1.296-1.04 1.888-2.352 1.888-1.568 0-2.672-.8-2.752-2.416zm9.922 0h-1.744c.096 2.64 2 3.856 4.496 3.856 2.08 0 4.08-1.024 4.08-3.36 0-2.416-1.936-2.864-3.856-3.424-1.488-.432-2.544-.864-2.544-1.968 0-1.28.976-1.776 2.176-1.776 1.424 0 2.112.672 2.32 2.048h1.744c-.208-2.368-1.76-3.488-4.048-3.488-2.064 0-3.952 1.088-3.92 3.28.048 2.208 1.952 2.784 3.84 3.36 1.44.432 2.56.672 2.56 2 0 1.296-1.04 1.888-2.352 1.888-1.568 0-2.672-.8-2.752-2.416zm12.091-2.176h1.6c.192-.864.896-1.408 1.84-1.408 1.104 0 1.744.448 1.744 1.136s-.416.944-1.488 1.12c-1.216.208-4.096.336-4.096 2.656 0 1.248.976 2.464 2.896 2.464 1.76 0 2.448-.992 2.688-1.648h.016v.352c0 .4 0 .736.032 1.088h1.712c-.08-.448-.128-1.168-.128-1.792v-3.36c0-1.536-.512-3.344-3.408-3.344-2.16 0-3.216 1.472-3.408 2.736zm1.232 3.472c0-.768.656-1.104 1.824-1.328 1.584-.272 1.984-.736 2.16-1.232v1.008c0 2-1.168 2.752-2.352 2.752-.992 0-1.632-.48-1.632-1.2zm7.535 2.288h1.648v-3.952c0-2.112.96-3.12 2.144-3.12 1.136 0 1.664.704 1.664 2.08v4.992h1.632v-5.264c0-1.792-.816-3.216-2.976-3.216-1.28 0-2.048.768-2.48 1.712v-1.504h-1.632zm12.343-8.48c-2.305 0-3.808 1.728-3.808 4.32s1.503 4.352 3.808 4.352c1.472 0 2.432-.944 2.736-1.728h.016v1.536h1.68v-11.424h-1.664v4.736h-.016c-.288-.816-1.28-1.792-2.752-1.792zm-2.176 4.32c0-1.696.896-2.96 2.512-2.96 1.696 0 2.512 1.424 2.512 2.96 0 1.568-.8 2.992-2.512 2.992-1.664 0-2.512-1.28-2.512-2.992zm13.391 1.216-.032-.64h-1.648l.016.672c.032 2.032 1.44 3.168 3.328 3.168 2.224 0 3.264-1.328 3.264-3.616v-8.064h-1.728v8.144c0 1.152-.304 2.096-1.536 2.096-1.024 0-1.616-.64-1.664-1.76zm8.459-.64h-1.744c.096 2.64 2 3.856 4.496 3.856 2.08 0 4.08-1.024 4.08-3.36 0-2.416-1.936-2.864-3.856-3.424-1.488-.432-2.544-.864-2.544-1.968 0-1.28.976-1.776 2.176-1.776 1.424 0 2.112.672 2.32 2.048h1.744c-.208-2.368-1.76-3.488-4.048-3.488-2.064 0-3.952 1.088-3.92 3.28.048 2.208 1.952 2.784 3.84 3.36 1.44.432 2.56.672 2.56 2 0 1.296-1.04 1.888-2.352 1.888-1.568 0-2.672-.8-2.752-2.416z" opacity=".8"/><path d="m547.298 284 1.184-3.232h4.656l1.168 3.232h1.808l-4.224-11.424h-2.16l-4.224 11.424zm1.68-4.624 1.808-5.232h.032l1.824 5.232zm15.706 2.016h-1.616c-.336.96-1.056 1.472-2.16 1.472-1.6 0-2.624-1.312-2.624-2.992 0-1.696 1.024-3.024 2.624-3.024 1.216 0 1.808.656 2.112 1.44h1.6c-.336-1.6-1.6-2.768-3.68-2.768-2.528 0-4.288 1.776-4.288 4.352 0 2.56 1.76 4.336 4.288 4.336 2 0 3.312-1.024 3.744-2.816zm3.621.032v-4.384h1.6v-1.312h-1.6v-2.64l-1.616.72v1.92h-1.264v1.312h1.264v4.544c0 1.408.672 2.432 2.432 2.432h.8v-1.344h-.56c-.72 0-1.056-.448-1.056-1.248zm7.637-3.216h1.6c-.176-1.792-1.568-2.688-3.264-2.688-1.584 0-3.12.912-3.12 2.448 0 1.28 1.04 2.032 2.32 2.352.384.112.784.208 1.168.304.736.192 1.392.416 1.392 1.104 0 .864-.864 1.152-1.664 1.152-1.04 0-1.648-.416-1.824-1.392h-1.632c.16 2.016 1.888 2.72 3.424 2.72 1.6 0 3.328-.88 3.328-2.576 0-1.344-1.152-1.968-2.448-2.304-.368-.096-.72-.176-1.104-.272-.768-.192-1.344-.544-1.344-1.152 0-.64.704-1.072 1.456-1.072.8 0 1.616.384 1.712 1.376zm6.8.032h1.6c.192-.864.896-1.408 1.84-1.408 1.104 0 1.744.448 1.744 1.136s-.416.944-1.488 1.12c-1.216.208-4.096.336-4.096 2.656 0 1.248.976 2.464 2.896 2.464 1.76 0 2.448-.992 2.688-1.648h.016v.352c0 .4 0 .736.032 1.088h1.712c-.08-.448-.128-1.168-.128-1.792v-3.36c0-1.536-.512-3.344-3.408-3.344-2.16 0-3.216 1.472-3.408 2.736zm1.232 3.472c0-.768.656-1.104 1.824-1.328 1.584-.272 1.984-.736 2.16-1.232v1.008c0 2-1.168 2.752-2.352 2.752-.992 0-1.632-.48-1.632-1.2zm12.046-3.504h1.6c-.176-1.792-1.568-2.688-3.264-2.688-1.584 0-3.12.912-3.12 2.448 0 1.28 1.04 2.032 2.32 2.352.384.112.784.208 1.168.304.736.192 1.392.416 1.392 1.104 0 .864-.864 1.152-1.664 1.152-1.04 0-1.648-.416-1.824-1.392h-1.632c.16 2.016 1.888 2.72 3.424 2.72 1.6 0 3.328-.88 3.328-2.576 0-1.344-1.152-1.968-2.448-2.304-.368-.096-.72-.176-1.104-.272-.768-.192-1.344-.544-1.344-1.152 0-.64.704-1.072 1.456-1.072.8 0 1.616.384 1.712 1.376zm6.8.032h1.6c.192-.864.896-1.408 1.84-1.408 1.104 0 1.744.448 1.744 1.136s-.416.944-1.488 1.12c-1.216.208-4.096.336-4.096 2.656 0 1.248.976 2.464 2.896 2.464 1.76 0 2.448-.992 2.688-1.648h.016v.352c0 .4 0 .736.032 1.088h1.712c-.08-.448-.128-1.168-.128-1.792v-3.36c0-1.536-.512-3.344-3.408-3.344-2.16 0-3.216 1.472-3.408 2.736zm1.232 3.472c0-.768.656-1.104 1.824-1.328 1.584-.272 1.984-.736 2.16-1.232v1.008c0 2-1.168 2.752-2.352 2.752-.992 0-1.632-.48-1.632-1.2zm11.128 2.288h1.648v-3.952c0-1.68.384-3.12 1.792-3.12 1.136 0 1.472.704 1.472 2.08v4.992h1.616v-4.032c0-2.016.768-3.04 1.792-3.04.992 0 1.488.704 1.488 2.08v4.992h1.632v-5.264c0-1.792-.864-3.216-2.896-3.216-1.136 0-1.856.544-2.352 1.616-.384-1.104-1.152-1.616-2.432-1.616-1.136 0-1.936.832-2.128 1.6v-1.392h-1.632zm15.151-9.712v-1.712h-1.728v1.712zm-1.76 9.712h1.648v-8.272h-1.648zm7.077-8.48c-2.304 0-3.808 1.728-3.808 4.32s1.504 4.352 3.808 4.352c1.472 0 2.432-.944 2.736-1.728h.016v1.536h1.68v-11.424h-1.664v4.736h-.016c-.288-.816-1.28-1.792-2.752-1.792zm-2.176 4.32c0-1.696.896-2.96 2.512-2.96 1.696 0 2.512 1.424 2.512 2.96 0 1.568-.8 2.992-2.512 2.992-1.664 0-2.512-1.28-2.512-2.992zm11.926-4.32c-2.304 0-3.808 1.728-3.808 4.32s1.504 4.352 3.808 4.352c1.472 0 2.432-.944 2.736-1.728h.016v1.536h1.68v-11.424h-1.664v4.736h-.016c-.288-.816-1.28-1.792-2.752-1.792zm-2.176 4.32c0-1.696.896-2.96 2.512-2.96 1.696 0 2.512 1.424 2.512 2.96 0 1.568-.8 2.992-2.512 2.992-1.664 0-2.512-1.28-2.512-2.992zm8.63-7.264v11.424h1.648v-11.424zm11.032 8.976h-1.616c-.288.912-1.152 1.312-2.176 1.312-1.392 0-2.384-.96-2.512-2.544h6.432v-.304c-.016-2.24-1.056-4.496-3.92-4.496-2.368 0-4.096 1.808-4.096 4.304 0 2.608 1.648 4.384 4.112 4.384 1.904 0 3.312-.944 3.776-2.656zm-6.288-2.464c.192-1.344 1.088-2.256 2.496-2.256 1.424 0 2.16.944 2.288 2.256zm7.99 4.912h1.648v-3.952c0-1.68.384-3.12 1.792-3.12 1.136 0 1.472.704 1.472 2.08v4.992h1.616v-4.032c0-2.016.768-3.04 1.792-3.04.992 0 1.488.704 1.488 2.08v4.992h1.632v-5.264c0-1.792-.864-3.216-2.896-3.216-1.136 0-1.856.544-2.352 1.616-.384-1.104-1.152-1.616-2.432-1.616-1.136 0-1.936.832-2.128 1.6v-1.392h-1.632zm13.359-5.76h1.6c.192-.864.896-1.408 1.84-1.408 1.104 0 1.744.448 1.744 1.136s-.416.944-1.488 1.12c-1.216.208-4.096.336-4.096 2.656 0 1.248.976 2.464 2.896 2.464 1.76 0 2.448-.992 2.688-1.648h.016v.352c0 .4 0 .736.032 1.088h1.712c-.08-.448-.128-1.168-.128-1.792v-3.36c0-1.536-.512-3.344-3.408-3.344-2.16 0-3.216 1.472-3.408 2.736zm1.232 3.472c0-.768.656-1.104 1.824-1.328 1.584-.272 1.984-.736 2.16-1.232v1.008c0 2-1.168 2.752-2.352 2.752-.992 0-1.632-.48-1.632-1.2zm7.534 2.288h1.648v-3.952c0-2.112.96-3.12 2.144-3.12 1.136 0 1.664.704 1.664 2.08v4.992h1.632v-5.264c0-1.792-.816-3.216-2.976-3.216-1.28 0-2.048.768-2.48 1.712v-1.504h-1.632zm-135.005 15.52c-1.488 0-2.464.976-2.752 1.792h-.016v-4.736h-1.664v11.424h1.664v-1.536h.016c.304.784 1.28 1.728 2.736 1.728 2.304 0 3.824-1.76 3.824-4.352s-1.504-4.32-3.808-4.32zm-2.864 4.32c0-1.536.816-2.96 2.512-2.96 1.632 0 2.512 1.264 2.512 2.96 0 1.712-.848 2.992-2.512 2.992-1.712 0-2.512-1.424-2.512-2.992zm15.558 1.712h-1.616c-.288.912-1.152 1.312-2.176 1.312-1.392 0-2.384-.96-2.512-2.544h6.432v-.304c-.016-2.24-1.056-4.496-3.92-4.496-2.368 0-4.096 1.808-4.096 4.304 0 2.608 1.648 4.384 4.112 4.384 1.904 0 3.312-.944 3.776-2.656zm-6.288-2.464c.192-1.344 1.088-2.256 2.496-2.256 1.424 0 2.16.944 2.288 2.256zm10.005 2.336v-4.384h1.6v-1.312h-1.6v-2.64l-1.616.72v1.92h-1.264v1.312h1.264v4.544c0 1.408.672 2.432 2.432 2.432h.8v-1.344h-.56c-.72 0-1.056-.448-1.056-1.248zm4.629 2.576h1.904l1.296-4.848c.16-.608.272-1.136.4-1.712h.032l.416 1.712 1.296 4.848h1.904l2.384-8.272h-1.696l-1.184 4.656c-.144.64-.288 1.296-.432 1.904h-.016c-.144-.624-.288-1.296-.448-1.904l-1.2-4.656h-2.048l-1.216 4.656c-.16.672-.256 1.248-.416 1.888h-.016c-.16-.656-.256-1.216-.416-1.856l-1.2-4.688h-1.712zm18.122-2.448h-1.616c-.288.912-1.152 1.312-2.176 1.312-1.392 0-2.384-.96-2.512-2.544h6.432v-.304c-.016-2.24-1.056-4.496-3.92-4.496-2.368 0-4.096 1.808-4.096 4.304 0 2.608 1.648 4.384 4.112 4.384 1.904 0 3.312-.944 3.776-2.656zm-6.288-2.464c.192-1.344 1.088-2.256 2.496-2.256 1.424 0 2.16.944 2.288 2.256zm15.367 2.464h-1.616c-.288.912-1.152 1.312-2.176 1.312-1.392 0-2.384-.96-2.512-2.544h6.432v-.304c-.016-2.24-1.056-4.496-3.92-4.496-2.368 0-4.096 1.808-4.096 4.304 0 2.608 1.648 4.384 4.112 4.384 1.904 0 3.312-.944 3.776-2.656zm-6.288-2.464c.192-1.344 1.088-2.256 2.496-2.256 1.424 0 2.16.944 2.288 2.256zm7.99 4.912h1.648v-3.952c0-2.112.96-3.12 2.144-3.12 1.136 0 1.664.704 1.664 2.08v4.992h1.632v-5.264c0-1.792-.816-3.216-2.976-3.216-1.28 0-2.048.768-2.48 1.712v-1.504h-1.632zm20.16-2.608h-1.616c-.336.96-1.056 1.472-2.16 1.472-1.6 0-2.624-1.312-2.624-2.992 0-1.696 1.024-3.024 2.624-3.024 1.216 0 1.808.656 2.112 1.44h1.6c-.336-1.6-1.6-2.768-3.68-2.768-2.528 0-4.288 1.776-4.288 4.352 0 2.56 1.76 4.336 4.288 4.336 2 0 3.312-1.024 3.744-2.816zm5.301 2.816c2.48 0 4.192-1.824 4.192-4.336s-1.712-4.352-4.192-4.352-4.208 1.84-4.208 4.352 1.728 4.336 4.208 4.336zm-2.576-4.336c0-1.648 1.024-2.992 2.576-2.992 1.536 0 2.576 1.344 2.576 2.992 0 1.632-1.04 2.976-2.576 2.976-1.552 0-2.576-1.344-2.576-2.976zm11.567-4.352c-2.304 0-3.808 1.728-3.808 4.32s1.504 4.352 3.808 4.352c1.472 0 2.432-.944 2.736-1.728h.016v1.536h1.68v-11.424h-1.664v4.736h-.016c-.288-.816-1.28-1.792-2.752-1.792zm-2.176 4.32c0-1.696.896-2.96 2.512-2.96 1.696 0 2.512 1.424 2.512 2.96 0 1.568-.8 2.992-2.512 2.992-1.664 0-2.512-1.28-2.512-2.992zm16.006 1.712h-1.616c-.288.912-1.152 1.312-2.176 1.312-1.392 0-2.384-.96-2.512-2.544h6.432v-.304c-.016-2.24-1.056-4.496-3.92-4.496-2.368 0-4.096 1.808-4.096 4.304 0 2.608 1.648 4.384 4.112 4.384 1.904 0 3.312-.944 3.776-2.656zm-6.288-2.464c.192-1.344 1.088-2.256 2.496-2.256 1.424 0 2.16.944 2.288 2.256zm12.422-3.568c-1.488 0-2.464.976-2.752 1.792h-.016v-4.736h-1.664v11.424h1.664v-1.536h.016c.304.784 1.28 1.728 2.736 1.728 2.304 0 3.824-1.76 3.824-4.352s-1.504-4.32-3.808-4.32zm-2.864 4.32c0-1.536.816-2.96 2.512-2.96 1.632 0 2.512 1.264 2.512 2.96 0 1.712-.848 2.992-2.512 2.992-1.712 0-2.512-1.424-2.512-2.992zm8.15-1.6h1.6c.192-.864.896-1.408 1.84-1.408 1.104 0 1.744.448 1.744 1.136s-.416.944-1.488 1.12c-1.216.208-4.096.336-4.096 2.656 0 1.248.976 2.464 2.896 2.464 1.76 0 2.448-.992 2.688-1.648h.016v.352c0 .4 0 .736.032 1.088h1.712c-.08-.448-.128-1.168-.128-1.792v-3.36c0-1.536-.512-3.344-3.408-3.344-2.16 0-3.216 1.472-3.408 2.736zm1.232 3.472c0-.768.656-1.104 1.824-1.328 1.584-.272 1.984-.736 2.16-1.232v1.008c0 2-1.168 2.752-2.352 2.752-.992 0-1.632-.48-1.632-1.2zm12.046-3.504h1.6c-.176-1.792-1.568-2.688-3.264-2.688-1.584 0-3.12.912-3.12 2.448 0 1.28 1.04 2.032 2.32 2.352.384.112.784.208 1.168.304.736.192 1.392.416 1.392 1.104 0 .864-.864 1.152-1.664 1.152-1.04 0-1.648-.416-1.824-1.392h-1.632c.16 2.016 1.888 2.72 3.424 2.72 1.6 0 3.328-.88 3.328-2.576 0-1.344-1.152-1.968-2.448-2.304-.368-.096-.72-.176-1.104-.272-.768-.192-1.344-.544-1.344-1.152 0-.64.704-1.072 1.456-1.072.8 0 1.616.384 1.712 1.376zm10.661 3.344h-1.616c-.288.912-1.152 1.312-2.176 1.312-1.392 0-2.384-.96-2.512-2.544h6.432v-.304c-.016-2.24-1.056-4.496-3.92-4.496-2.368 0-4.096 1.808-4.096 4.304 0 2.608 1.648 4.384 4.112 4.384 1.904 0 3.312-.944 3.776-2.656zm-6.288-2.464c.192-1.344 1.088-2.256 2.496-2.256 1.424 0 2.16.944 2.288 2.256zm12.502-.88h1.6c-.176-1.792-1.568-2.688-3.264-2.688-1.584 0-3.12.912-3.12 2.448 0 1.28 1.04 2.032 2.32 2.352.384.112.784.208 1.168.304.736.192 1.392.416 1.392 1.104 0 .864-.864 1.152-1.664 1.152-1.04 0-1.648-.416-1.824-1.392h-1.632c.16 2.016 1.888 2.72 3.424 2.72 1.6 0 3.328-.88 3.328-2.576 0-1.344-1.152-1.968-2.448-2.304-.368-.096-.72-.176-1.104-.272-.768-.192-1.344-.544-1.344-1.152 0-.64.704-1.072 1.456-1.072.8 0 1.616.384 1.712 1.376z" opacity=".8"/><path d="m888.318 279.776v-7.2h-1.728v7.2c0 1.664-.8 3.024-2.64 3.024-1.856 0-2.672-1.36-2.672-3.024v-7.2h-1.728v7.2c0 2.528 1.344 4.496 4.4 4.496 3.04 0 4.368-1.984 4.368-4.496zm6.663-1.568h1.6c-.176-1.792-1.568-2.688-3.264-2.688-1.584 0-3.12.912-3.12 2.448 0 1.28 1.04 2.032 2.32 2.352.384.112.784.208 1.168.304.736.192 1.392.416 1.392 1.104 0 .864-.864 1.152-1.664 1.152-1.04 0-1.648-.416-1.824-1.392h-1.632c.16 2.016 1.888 2.72 3.424 2.72 1.6 0 3.328-.88 3.328-2.576 0-1.344-1.152-1.968-2.448-2.304-.368-.096-.72-.176-1.104-.272-.768-.192-1.344-.544-1.344-1.152 0-.64.704-1.072 1.456-1.072.8 0 1.616.384 1.712 1.376zm3.174 2.784c0 1.792.816 3.216 2.976 3.216 1.28 0 2.048-.768 2.48-1.712v1.504h1.632v-8.272h-1.648v3.952c0 2.112-.96 3.12-2.144 3.12-1.136 0-1.664-.704-1.664-2.08v-4.992h-1.632zm9.079-2.752h1.6c.192-.864.896-1.408 1.84-1.408 1.104 0 1.744.448 1.744 1.136s-.416.944-1.488 1.12c-1.216.208-4.096.336-4.096 2.656 0 1.248.976 2.464 2.896 2.464 1.76 0 2.448-.992 2.688-1.648h.016v.352c0 .4 0 .736.032 1.088h1.712c-.08-.448-.128-1.168-.128-1.792v-3.36c0-1.536-.512-3.344-3.408-3.344-2.16 0-3.216 1.472-3.408 2.736zm1.232 3.472c0-.768.656-1.104 1.824-1.328 1.584-.272 1.984-.736 2.16-1.232v1.008c0 2-1.168 2.752-2.352 2.752-.992 0-1.632-.48-1.632-1.2zm7.534-9.136v11.424h1.648v-11.424zm3.656 0v11.424h1.648v-11.424zm4.505 3.152h-1.744c1.104 2.784 2.208 5.504 3.392 8.48l-.272.688c-.224.576-.384.96-1.12.96h-.912v1.344h1.264c1.12 0 1.744-.592 2.112-1.584 1.68-4.56 2.064-5.44 3.696-9.888h-1.744c-.736 2.224-1.504 4.48-2.192 6.592h-.032c-.816-2.224-1.616-4.352-2.448-6.592zm11.152 8.272h1.648v-3.952c0-2.112.96-3.12 2.144-3.12 1.136 0 1.664.704 1.664 2.08v4.992h1.632v-5.264c0-1.792-.816-3.216-2.976-3.216-1.28 0-2.048.768-2.48 1.712v-4.656h-1.632zm9.015-5.76h1.6c.192-.864.896-1.408 1.84-1.408 1.104 0 1.744.448 1.744 1.136s-.416.944-1.488 1.12c-1.216.208-4.096.336-4.096 2.656 0 1.248.976 2.464 2.896 2.464 1.76 0 2.448-.992 2.688-1.648h.016v.352c0 .4 0 .736.032 1.088h1.712c-.08-.448-.128-1.168-.128-1.792v-3.36c0-1.536-.512-3.344-3.408-3.344-2.16 0-3.216 1.472-3.408 2.736zm1.232 3.472c0-.768.656-1.104 1.824-1.328 1.584-.272 1.984-.736 2.16-1.232v1.008c0 2-1.168 2.752-2.352 2.752-.992 0-1.632-.48-1.632-1.2zm7.534 2.288h1.648v-3.952c0-2.112.96-3.12 2.144-3.12 1.136 0 1.664.704 1.664 2.08v4.992h1.632v-5.264c0-1.792-.816-3.216-2.976-3.216-1.28 0-2.048.768-2.48 1.712v-1.504h-1.632zm12.343-8.48c-2.304 0-3.808 1.728-3.808 4.32s1.504 4.352 3.808 4.352c1.472 0 2.432-.944 2.736-1.728h.016v1.536h1.68v-11.424h-1.664v4.736h-.016c-.288-.816-1.28-1.792-2.752-1.792zm-2.176 4.32c0-1.696.896-2.96 2.512-2.96 1.696 0 2.512 1.424 2.512 2.96 0 1.568-.8 2.992-2.512 2.992-1.664 0-2.512-1.28-2.512-2.992zm8.63-7.264v11.424h1.648v-11.424zm11.032 8.976h-1.616c-.288.912-1.152 1.312-2.176 1.312-1.392 0-2.384-.96-2.512-2.544h6.432v-.304c-.016-2.24-1.056-4.496-3.92-4.496-2.368 0-4.096 1.808-4.096 4.304 0 2.608 1.648 4.384 4.112 4.384 1.904 0 3.312-.944 3.776-2.656zm-6.288-2.464c.192-1.344 1.088-2.256 2.496-2.256 1.424 0 2.16.944 2.288 2.256zm12.502-.88h1.6c-.176-1.792-1.568-2.688-3.264-2.688-1.584 0-3.12.912-3.12 2.448 0 1.28 1.04 2.032 2.32 2.352.384.112.784.208 1.168.304.736.192 1.392.416 1.392 1.104 0 .864-.864 1.152-1.664 1.152-1.04 0-1.648-.416-1.824-1.392h-1.632c.16 2.016 1.888 2.72 3.424 2.72 1.6 0 3.328-.88 3.328-2.576 0-1.344-1.152-1.968-2.448-2.304-.368-.096-.72-.176-1.104-.272-.768-.192-1.344-.544-1.344-1.152 0-.64.704-1.072 1.456-1.072.8 0 1.616.384 1.712 1.376zm8.816 3.216v-4.384h1.6v-1.312h-1.6v-2.64l-1.616.72v1.92h-1.264v1.312h1.264v4.544c0 1.408.672 2.432 2.432 2.432h.8v-1.344h-.56c-.72 0-1.056-.448-1.056-1.248zm2.967 2.576h1.65v-3.952c0-2.112.96-3.12 2.14-3.12 1.14 0 1.67.704 1.67 2.08v4.992h1.63v-5.264c0-1.792-.82-3.216-2.98-3.216-1.28 0-2.04.768-2.48 1.712v-4.656h-1.63zm16.42-2.448h-1.61c-.29.912-1.15 1.312-2.18 1.312-1.39 0-2.38-.96-2.51-2.544h6.43v-.304c-.01-2.24-1.05-4.496-3.92-4.496-2.37 0-4.09 1.808-4.09 4.304 0 2.608 1.64 4.384 4.11 4.384 1.9 0 3.31-.944 3.77-2.656zm-6.28-2.464c.19-1.344 1.08-2.256 2.49-2.256 1.43 0 2.16.944 2.29 2.256zm16.01-3.568c-1.49 0-2.46.976-2.75 1.792h-.02v-4.736h-1.66v11.424h1.66v-1.536h.02c.3.784 1.28 1.728 2.74 1.728 2.3 0 3.82-1.76 3.82-4.352s-1.5-4.32-3.81-4.32zm-2.86 4.32c0-1.536.81-2.96 2.51-2.96 1.63 0 2.51 1.264 2.51 2.96 0 1.712-.85 2.992-2.51 2.992-1.71 0-2.51-1.424-2.51-2.992zm8.12 1.152c0 1.792.81 3.216 2.97 3.216 1.28 0 2.05-.768 2.48-1.712v1.504h1.63v-8.272h-1.64v3.952c0 2.112-.96 3.12-2.15 3.12-1.13 0-1.66-.704-1.66-2.08v-4.992h-1.63zm13.62-2.784h1.6c-.18-1.792-1.57-2.688-3.26-2.688-1.59 0-3.12.912-3.12 2.448 0 1.28 1.04 2.032 2.32 2.352.38.112.78.208 1.16.304.74.192 1.4.416 1.4 1.104 0 .864-.87 1.152-1.67 1.152-1.04 0-1.65-.416-1.82-1.392h-1.63c.16 2.016 1.88 2.72 3.42 2.72 1.6 0 3.33-.88 3.33-2.576 0-1.344-1.15-1.968-2.45-2.304-.37-.096-.72-.176-1.1-.272-.77-.192-1.35-.544-1.35-1.152 0-.64.71-1.072 1.46-1.072.8 0 1.61.384 1.71 1.376zm5-3.92v-1.712h-1.73v1.712zm-1.76 9.712h1.65v-8.272h-1.65zm3.78 0h1.65v-3.952c0-2.112.96-3.12 2.14-3.12 1.14 0 1.66.704 1.66 2.08v4.992h1.64v-5.264c0-1.792-.82-3.216-2.98-3.216-1.28 0-2.05.768-2.48 1.712v-1.504h-1.63zm16.42-2.448h-1.61c-.29.912-1.16 1.312-2.18 1.312-1.39 0-2.38-.96-2.51-2.544h6.43v-.304c-.02-2.24-1.06-4.496-3.92-4.496-2.37 0-4.1 1.808-4.1 4.304 0 2.608 1.65 4.384 4.12 4.384 1.9 0 3.31-.944 3.77-2.656zm-6.29-2.464c.2-1.344 1.09-2.256 2.5-2.256 1.42 0 2.16.944 2.29 2.256zm12.51-.88h1.6c-.18-1.792-1.57-2.688-3.27-2.688-1.58 0-3.12.912-3.12 2.448 0 1.28 1.04 2.032 2.32 2.352.39.112.79.208 1.17.304.74.192 1.39.416 1.39 1.104 0 .864-.86 1.152-1.66 1.152-1.04 0-1.65-.416-1.83-1.392h-1.63c.16 2.016 1.89 2.72 3.43 2.72 1.6 0 3.32-.88 3.32-2.576 0-1.344-1.15-1.968-2.44-2.304-.37-.096-.72-.176-1.11-.272-.77-.192-1.34-.544-1.34-1.152 0-.64.7-1.072 1.45-1.072.8 0 1.62.384 1.72 1.376zm7.75 0h1.6c-.18-1.792-1.57-2.688-3.27-2.688-1.58 0-3.12.912-3.12 2.448 0 1.28 1.04 2.032 2.32 2.352.39.112.79.208 1.17.304.74.192 1.39.416 1.39 1.104 0 .864-.86 1.152-1.66 1.152-1.04 0-1.65-.416-1.83-1.392h-1.63c.16 2.016 1.89 2.72 3.43 2.72 1.6 0 3.32-.88 3.32-2.576 0-1.344-1.15-1.968-2.44-2.304-.37-.096-.72-.176-1.11-.272-.77-.192-1.34-.544-1.34-1.152 0-.64.7-1.072 1.45-1.072.8 0 1.62.384 1.72 1.376zm-182.649 18.368v11.424h1.648v-11.424zm7.352 11.632c2.48 0 4.192-1.824 4.192-4.336s-1.712-4.352-4.192-4.352-4.208 1.84-4.208 4.352 1.728 4.336 4.208 4.336zm-2.576-4.336c0-1.648 1.024-2.992 2.576-2.992 1.536 0 2.576 1.344 2.576 2.992 0 1.632-1.04 2.976-2.576 2.976-1.552 0-2.576-1.344-2.576-2.976zm14.303-4.144v1.408h-.016c-.304-.768-1.152-1.616-2.688-1.616-2.336 0-3.84 1.76-3.84 4.272 0 2.528 1.52 4.304 3.84 4.304 1.552 0 2.336-.768 2.688-1.712h.016v.992c0 1.728-.976 2.432-2.272 2.432-1.248 0-2.096-.416-2.256-1.504h-1.632c.192 1.744 1.76 2.832 3.888 2.832 2.096 0 3.952-1.28 3.952-3.856v-7.552zm-4.896 4.064c0-1.52.832-2.912 2.496-2.912s2.496 1.664 2.496 2.912c0 1.28-.608 2.944-2.496 2.944-1.712 0-2.496-1.392-2.496-2.944zm10.358-5.504v-1.712h-1.728v1.712zm-1.76 9.712h1.648v-8.272h-1.648zm11.302-2.608h-1.616c-.336.96-1.056 1.472-2.16 1.472-1.6 0-2.624-1.312-2.624-2.992 0-1.696 1.024-3.024 2.624-3.024 1.216 0 1.808.656 2.112 1.44h1.6c-.336-1.6-1.6-2.768-3.68-2.768-2.528 0-4.288 1.776-4.288 4.352 0 2.56 1.76 4.336 4.288 4.336 2 0 3.312-1.024 3.744-2.816zm5.166-3.152h1.6c.192-.864.896-1.408 1.84-1.408 1.104 0 1.744.448 1.744 1.136s-.416.944-1.488 1.12c-1.216.208-4.096.336-4.096 2.656 0 1.248.976 2.464 2.896 2.464 1.76 0 2.448-.992 2.688-1.648h.016v.352c0 .4 0 .736.032 1.088h1.712c-.08-.448-.128-1.168-.128-1.792v-3.36c0-1.536-.512-3.344-3.408-3.344-2.16 0-3.216 1.472-3.408 2.736zm1.232 3.472c0-.768.656-1.104 1.824-1.328 1.584-.272 1.984-.736 2.16-1.232v1.008c0 2-1.168 2.752-2.352 2.752-.992 0-1.632-.48-1.632-1.2zm7.535 2.288h1.648v-3.952c0-2.112.96-3.12 2.144-3.12 1.136 0 1.664.704 1.664 2.08v4.992h1.632v-5.264c0-1.792-.816-3.216-2.976-3.216-1.28 0-2.048.768-2.48 1.712v-1.504h-1.632zm12.343-8.48c-2.304 0-3.808 1.728-3.808 4.32s1.504 4.352 3.808 4.352c1.472 0 2.432-.944 2.736-1.728h.016v1.536h1.68v-11.424h-1.664v4.736h-.016c-.288-.816-1.28-1.792-2.752-1.792zm-2.176 4.32c0-1.696.896-2.96 2.512-2.96 1.696 0 2.512 1.424 2.512 2.96 0 1.568-.8 2.992-2.512 2.992-1.664 0-2.512-1.28-2.512-2.992zm15.519-4.32c-2.304 0-3.808 1.728-3.808 4.32s1.504 4.352 3.808 4.352c1.472 0 2.432-.944 2.736-1.728h.016v1.536h1.68v-11.424h-1.664v4.736h-.016c-.288-.816-1.28-1.792-2.752-1.792zm-2.176 4.32c0-1.696.896-2.96 2.512-2.96 1.696 0 2.512 1.424 2.512 2.96 0 1.568-.8 2.992-2.512 2.992-1.664 0-2.512-1.28-2.512-2.992zm8.598-1.6h1.6c.192-.864.896-1.408 1.84-1.408 1.104 0 1.744.448 1.744 1.136s-.416.944-1.488 1.12c-1.216.208-4.096.336-4.096 2.656 0 1.248.976 2.464 2.896 2.464 1.76 0 2.448-.992 2.688-1.648h.016v.352c0 .4 0 .736.032 1.088h1.712c-.08-.448-.128-1.168-.128-1.792v-3.36c0-1.536-.512-3.344-3.408-3.344-2.16 0-3.216 1.472-3.408 2.736zm1.232 3.472c0-.768.656-1.104 1.824-1.328 1.584-.272 1.984-.736 2.16-1.232v1.008c0 2-1.168 2.752-2.352 2.752-.992 0-1.632-.48-1.632-1.2zm9.519-.288v-4.384h1.6v-1.312h-1.6v-2.64l-1.616.72v1.92h-1.264v1.312h1.264v4.544c0 1.408.672 2.432 2.432 2.432h.8v-1.344h-.56c-.72 0-1.056-.448-1.056-1.248zm3.093-3.184h1.6c.192-.864.896-1.408 1.84-1.408 1.104 0 1.744.448 1.744 1.136s-.416.944-1.488 1.12c-1.216.208-4.096.336-4.096 2.656 0 1.248.976 2.464 2.896 2.464 1.76 0 2.448-.992 2.688-1.648h.016v.352c0 .4 0 .736.032 1.088h1.709c-.08-.448-.12-1.168-.12-1.792v-3.36c0-1.536-.52-3.344-3.413-3.344-2.16 0-3.216 1.472-3.408 2.736zm1.232 3.472c0-.768.656-1.104 1.824-1.328 1.584-.272 1.984-.736 2.16-1.232v1.008c0 2-1.168 2.752-2.352 2.752-.992 0-1.632-.48-1.632-1.2zm15.639-3.504h1.6c-.17-1.792-1.57-2.688-3.26-2.688-1.59 0-3.12.912-3.12 2.448 0 1.28 1.04 2.032 2.32 2.352.38.112.78.208 1.17.304.73.192 1.39.416 1.39 1.104 0 .864-.87 1.152-1.67 1.152-1.04 0-1.64-.416-1.82-1.392h-1.63c.16 2.016 1.89 2.72 3.42 2.72 1.6 0 3.33-.88 3.33-2.576 0-1.344-1.15-1.968-2.45-2.304-.37-.096-.72-.176-1.1-.272-.77-.192-1.35-.544-1.35-1.152 0-.64.71-1.072 1.46-1.072.8 0 1.62.384 1.71 1.376zm5.25 3.216v-4.384h1.6v-1.312h-1.6v-2.64l-1.61.72v1.92h-1.27v1.312h1.27v4.544c0 1.408.67 2.432 2.43 2.432h.8v-1.344h-.56c-.72 0-1.06-.448-1.06-1.248zm6.79 2.784c2.48 0 4.2-1.824 4.2-4.336s-1.72-4.352-4.2-4.352-4.2 1.84-4.2 4.352 1.72 4.336 4.2 4.336zm-2.57-4.336c0-1.648 1.02-2.992 2.57-2.992 1.54 0 2.58 1.344 2.58 2.992 0 1.632-1.04 2.976-2.58 2.976-1.55 0-2.57-1.344-2.57-2.976zm9.9-4.144h-1.63v8.272h1.65v-3.84c0-2.272.89-2.704 1.77-2.848.24-.064.61-.08.69-.08v-1.552c-1.21 0-2.05.464-2.48 1.648zm3.4 2.512h1.6c.19-.864.9-1.408 1.84-1.408 1.1 0 1.74.448 1.74 1.136s-.41.944-1.48 1.12c-1.22.208-4.1.336-4.1 2.656 0 1.248.98 2.464 2.9 2.464 1.76 0 2.44-.992 2.68-1.648h.02v.352c0 .4 0 .736.03 1.088h1.71c-.08-.448-.12-1.168-.12-1.792v-3.36c0-1.536-.52-3.344-3.41-3.344-2.16 0-3.22 1.472-3.41 2.736zm1.23 3.472c0-.768.66-1.104 1.83-1.328 1.58-.272 1.98-.736 2.16-1.232v1.008c0 2-1.17 2.752-2.36 2.752-.99 0-1.63-.48-1.63-1.2zm13.57-5.984v1.408h-.02c-.3-.768-1.15-1.616-2.69-1.616-2.33 0-3.84 1.76-3.84 4.272 0 2.528 1.52 4.304 3.84 4.304 1.56 0 2.34-.768 2.69-1.712h.02v.992c0 1.728-.98 2.432-2.27 2.432-1.25 0-2.1-.416-2.26-1.504h-1.63c.19 1.744 1.76 2.832 3.89 2.832 2.09 0 3.95-1.28 3.95-3.856v-7.552zm-4.9 4.064c0-1.52.83-2.912 2.5-2.912 1.66 0 2.49 1.664 2.49 2.912 0 1.28-.6 2.944-2.49 2.944-1.71 0-2.5-1.392-2.5-2.944zm15.98 1.76h-1.62c-.29.912-1.15 1.312-2.18 1.312-1.39 0-2.38-.96-2.51-2.544h6.43v-.304c-.01-2.24-1.05-4.496-3.92-4.496-2.36 0-4.09 1.808-4.09 4.304 0 2.608 1.65 4.384 4.11 4.384 1.9 0 3.31-.944 3.78-2.656zm-6.29-2.464c.19-1.344 1.09-2.256 2.49-2.256 1.43 0 2.16.944 2.29 2.256zm7.57 2.928v1.984h1.87v-1.984z" opacity=".8"/><path d="m174 159h165v91h-165z" fill-opacity=".1"/><path d="m207.752 213h3.072v-7.392h7.176v-2.544h-7.176v-4.608h7.8v-2.592h-10.872zm15.483-12.408h-2.88v12.408h2.952v-5.64c0-3.12 1.152-3.744 2.304-3.984.408-.144 1.224-.144 1.368-.144v-2.784c-1.752.024-3.072.696-3.744 2.4zm11.269 12.768c3.648 0 6.432-2.616 6.432-6.576 0-3.936-2.784-6.528-6.432-6.528s-6.456 2.592-6.456 6.528c0 3.96 2.808 6.576 6.456 6.576zm-3.576-6.576c0-2.304 1.416-4.2 3.576-4.2s3.576 1.896 3.576 4.2-1.416 4.2-3.576 4.2-3.576-1.896-3.576-4.2zm12.138 6.216h2.952v-5.664c0-3.072 1.2-4.536 2.88-4.536 1.752 0 2.328 1.32 2.328 3.192v7.008h2.904v-7.68c0-2.952-1.248-5.064-4.464-5.064-1.92 0-3.048 1.056-3.72 2.496v-2.16h-2.88zm17.426-4.464v-5.688h2.448v-2.256h-2.448v-4.104l-2.88 1.272v2.832h-1.968v2.256h1.968v6.072c0 2.4.912 4.176 3.864 4.128h1.416v-2.352h-.792c-1.272 0-1.608-.768-1.608-2.16zm15.981.792h-2.928c-.432 1.152-1.584 1.656-2.952 1.656-1.872 0-3.24-1.296-3.48-3.384h9.528c.024-.216.024-.432.024-.552-.024-3.6-1.848-6.816-6.048-6.816-3.648 0-6.312 2.736-6.312 6.528 0 3.936 2.568 6.6 6.312 6.6 2.976 0 5.112-1.536 5.856-4.032zm-9.336-3.744c.288-1.848 1.56-3.096 3.456-3.096 2.04 0 3.024 1.416 3.216 3.096zm11.765 7.416h2.952v-5.664c0-3.072 1.2-4.536 2.88-4.536 1.752 0 2.328 1.32 2.328 3.192v7.008h2.904v-7.68c0-2.952-1.248-5.064-4.464-5.064-1.92 0-3.048 1.056-3.72 2.496v-2.16h-2.88zm18.891-12.744c-3.36 0-5.784 2.568-5.784 6.504 0 3.96 2.448 6.552 5.808 6.552 2.136 0 3.408-1.344 3.864-2.352h.024v2.04h3.024v-17.136h-3v6.864h-.024c-.408-1.08-1.752-2.472-3.912-2.472zm-2.856 6.504c0-2.328 1.248-4.152 3.504-4.152 2.328 0 3.504 2.016 3.504 4.152 0 2.184-1.128 4.224-3.504 4.224-2.304 0-3.504-1.848-3.504-4.224z"/><path d="m522 159h196v91h-196z" fill-opacity=".1"/><path d="m555.752 213h2.928v-13.536h.072l4.392 13.536h3.168l4.392-13.536h.072v13.536h2.904v-17.136h-4.656l-4.224 13.488h-.024l-4.344-13.488h-4.68zm24.23-14.328v-2.808h-3.048v2.808zm-3.096 14.328h2.952v-12.408h-2.952zm11.039-12.744c-3.36 0-5.784 2.568-5.784 6.504 0 3.96 2.448 6.552 5.808 6.552 2.136 0 3.408-1.344 3.864-2.352h.024v2.04h3.024v-17.136h-3v6.864h-.024c-.408-1.08-1.752-2.472-3.912-2.472zm-2.856 6.504c0-2.328 1.248-4.152 3.504-4.152 2.328 0 3.504 2.016 3.504 4.152 0 2.184-1.128 4.224-3.504 4.224-2.304 0-3.504-1.848-3.504-4.224zm17.739-6.504c-3.36 0-5.784 2.568-5.784 6.504 0 3.96 2.448 6.552 5.808 6.552 2.136 0 3.408-1.344 3.864-2.352h.024v2.04h3.024v-17.136h-3v6.864h-.024c-.408-1.08-1.752-2.472-3.912-2.472zm-2.856 6.504c0-2.328 1.248-4.152 3.504-4.152 2.328 0 3.504 2.016 3.504 4.152 0 2.184-1.128 4.224-3.504 4.224-2.304 0-3.504-1.848-3.504-4.224zm12.723-10.896v17.136h2.952v-17.136zm17.259 13.464h-2.928c-.432 1.152-1.584 1.656-2.952 1.656-1.872 0-3.24-1.296-3.48-3.384h9.528c.024-.216.024-.432.024-.552-.024-3.6-1.848-6.816-6.048-6.816-3.648 0-6.312 2.736-6.312 6.528 0 3.936 2.568 6.6 6.312 6.6 2.976 0 5.112-1.536 5.856-4.032zm-9.336-3.744c.288-1.848 1.56-3.096 3.456-3.096 2.04 0 3.024 1.416 3.216 3.096zm13.997 7.416h3.408l1.56-5.976c.288-1.176.48-2.16.72-3.264h.072c.168.96.456 2.184.72 3.288l1.56 5.952h3.432l3.576-12.408h-3l-1.464 6c-.288 1.248-.552 2.592-.792 3.648h-.024c-.288-1.176-.528-2.52-.816-3.648l-1.512-6h-3.408l-1.488 5.976c-.336 1.392-.48 2.376-.792 3.648h-.024c-.288-1.32-.432-2.256-.744-3.528l-1.536-6.096h-3.024zm16.399-8.616h2.76c.312-1.2 1.248-1.944 2.544-1.944 1.464 0 2.352.6 2.352 1.584 0 1.056-.744 1.344-2.328 1.584-1.776.264-5.904.576-5.904 4.008 0 2.016 1.584 3.72 4.344 3.72 2.424 0 3.456-1.32 3.912-2.304h.024v.6c0 .456.024.912.096 1.368h2.952c-.144-.768-.216-1.992-.216-2.952v-4.632c0-2.856-1.272-5.208-5.28-5.208-3.24 0-4.92 2.16-5.256 4.176zm2.328 5.112c0-.984.816-1.512 2.496-1.824 1.92-.384 2.592-.936 2.88-1.584v1.152c0 2.904-1.536 3.888-3.168 3.888-1.416 0-2.208-.696-2.208-1.632zm13.889-8.904h-2.88v12.408h2.952v-5.64c0-3.12 1.152-3.744 2.304-3.984.408-.144 1.224-.144 1.368-.144v-2.784c-1.752.024-3.072.696-3.744 2.4zm16.981 8.736h-2.928c-.432 1.152-1.584 1.656-2.952 1.656-1.872 0-3.24-1.296-3.48-3.384h9.528c.024-.216.024-.432.024-.552-.024-3.6-1.848-6.816-6.048-6.816-3.648 0-6.312 2.736-6.312 6.528 0 3.936 2.568 6.6 6.312 6.6 2.976 0 5.112-1.536 5.856-4.032zm-9.336-3.744c.288-1.848 1.56-3.096 3.456-3.096 2.04 0 3.024 1.416 3.216 3.096z"/><path d="m901 159h162v91h-162z" fill-opacity=".1"/><path d="m934.752 213h5.976c3.912 0 6.456-1.392 6.456-4.872 0-2.376-1.608-3.504-3.48-3.864v-.048c1.872-.696 2.832-1.92 2.832-3.816 0-3.024-2.304-4.536-5.688-4.536h-6.096zm3.072-2.52v-4.944h3.144c1.872 0 3.168.696 3.168 2.424 0 1.848-1.392 2.52-3.504 2.52zm0-7.392v-4.728h2.664c1.896 0 3.024.48 3.024 2.256s-1.128 2.472-3.168 2.472zm11.873 1.296h2.76c.312-1.2 1.248-1.944 2.544-1.944 1.464 0 2.352.6 2.352 1.584 0 1.056-.744 1.344-2.328 1.584-1.776.264-5.904.576-5.904 4.008 0 2.016 1.584 3.72 4.344 3.72 2.424 0 3.456-1.32 3.912-2.304h.024v.6c0 .456.024.912.096 1.368h2.952c-.144-.768-.216-1.992-.216-2.952v-4.632c0-2.856-1.272-5.208-5.28-5.208-3.24 0-4.92 2.16-5.256 4.176zm2.328 5.112c0-.984.816-1.512 2.496-1.824 1.92-.384 2.592-.936 2.88-1.584v1.152c0 2.904-1.536 3.888-3.168 3.888-1.416 0-2.208-.696-2.208-1.632zm22.577-.6h-2.784c-.432 1.44-1.56 2.112-3 2.112-2.232 0-3.648-1.848-3.648-4.2 0-2.376 1.416-4.248 3.648-4.248 1.536 0 2.496.792 2.928 2.016h2.784c-.456-2.616-2.64-4.32-5.688-4.32-3.696 0-6.576 2.52-6.576 6.528s2.88 6.576 6.576 6.576c2.976 0 5.208-1.608 5.76-4.464zm5.259 4.104v-4.032l1.128-1.104 3.792 5.136h3.48l-5.304-7.08 5.208-5.328h-3.528l-4.776 5.064v-9.792h-2.952v17.136zm20.799-3.672h-2.927c-.432 1.152-1.584 1.656-2.952 1.656-1.872 0-3.24-1.296-3.48-3.384h9.529c.02-.216.02-.432.02-.552-.02-3.6-1.845-6.816-6.045-6.816-3.648 0-6.312 2.736-6.312 6.528 0 3.936 2.568 6.6 6.312 6.6 2.976 0 5.112-1.536 5.855-4.032zm-9.335-3.744c.288-1.848 1.56-3.096 3.456-3.096 2.04 0 3.024 1.416 3.216 3.096zm11.765 7.416h2.95v-5.664c0-3.072 1.2-4.536 2.88-4.536 1.75 0 2.33 1.32 2.33 3.192v7.008h2.9v-7.68c0-2.952-1.24-5.064-4.46-5.064-1.92 0-3.05 1.056-3.72 2.496v-2.16h-2.88zm18.89-12.744c-3.36 0-5.78 2.568-5.78 6.504 0 3.96 2.44 6.552 5.8 6.552 2.14 0 3.41-1.344 3.87-2.352h.02v2.04h3.03v-17.136h-3v6.864h-.03c-.41-1.08-1.75-2.472-3.91-2.472zm-2.86 6.504c0-2.328 1.25-4.152 3.51-4.152 2.33 0 3.5 2.016 3.5 4.152 0 2.184-1.13 4.224-3.5 4.224-2.31 0-3.51-1.848-3.51-4.224z"/></g><path d="m366 204.5h129" stroke="#fff" stroke-opacity=".2"/><path d="m745 204.5h129" stroke="#fff" stroke-opacity=".2"/></svg>