<svg fill="none" height="30" viewBox="0 0 63 30" width="63" xmlns="http://www.w3.org/2000/svg" xmlns:xlink="http://www.w3.org/1999/xlink"><clipPath id="a"><path d="m0 0h63v30h-63z"/></clipPath><g clip-path="url(#a)"><path d="m47.9486 27.1137c-.1316.0323-.2544.0929-.3597.1776-.5507.3742-1.2063.5675-1.874.5526-.6977-.1071-1.3414-.4357-1.8342-.9363l-.7815-.6544-.1954-.1658-1.1962-1.02c-.3429-.2674-.9466-.6853-1.8111-1.2537.5686-.143 1.1232-.3359 1.6572-.5763.4881-.2197.9532-.4865 1.3884-.7966 1.4374-1.1012 2.5437-2.5701 3.1994-4.2482.7253-1.7474 1.1186-3.6123 1.1603-5.501.0064-.199.0088-.3948.0088-.6008 0-3.46106-.8416-6.27685-2.5248-8.44738-1.6259-2.15984-4.2307-3.37734-6.9485-3.247808-2.7178.129531-5.1924 1.589118-6.6013 3.893598-1.4535 2.4083-2.1802 5.17822-2.0941 7.98239 0 .1381 0 .2771.004.4145-.0259 3.4641 1.3422 6.796 3.8023 9.2597-.3907.2234-.7208.5374-.9617.915l-.4394-.1161c-.9579-.3082-1.779-.9343-2.3247-1.7723l-6.158-8.2895-.5383-.7247c-.1724-.1954-.2799-.4385-.3078-.6964.0439-.2013.1462-.3857.2942-.5305l4.3933-5.12525c2.185-2.5321 3.6644-3.92526 4.4379-4.17947.2783-.00839.523-.18481.6164-.444476.0025-.094966-.0376-.186149-.1094-.249167-.0718-.063017-.168-.091443-.263-.077675-.1347.010215-.2682.032678-.3987.067105-.3543.044826-.7116.061984-1.0686.051316l-.9666.016579-1.1866-.045c-.4043.002355-.8085-.017676-1.2105-.06-.1152-.016852-.2313-.02687-.3477-.03-.1-.022081-.2046.00334-.2828.06872-.0783.065379-.1212.163203-.116.264438 0 .20053.1954.33789.5838.4121.519.03625.9225.46154.9266.97658-.1557.89545-.6039 1.71557-1.2759 2.33448l-5.5153 6.37582-.1922.1989-.2057.1816c-.0758 0-.1149-.1161-.1149-.3497v-6.49189c-.0412-.76337.0308-1.52861.2137-2.27131.2083-.45167.5733-.81442 1.0288-1.02237.1692-.05546.2908-.20288.3118-.378158.0149-.08485-.0135-.171523-.0759-.23155s-.1507-.085649-.2359-.06845c-.2073.017842-.4136.046036-.6181.084474-.1914.015-.413.022105-.6698.022105l-.9674.042632-.4784.021316c-.6904.015121-1.381-.022623-2.0655-.112895-.1528-.034721-.3089-.053769-.4657-.056842-.095-.014163-.1912.016642-.2599.0832-.0686.066558-.1017.161151-.0894.255484.0145.178544.1557.321374.3357.339474l.6308.165c.5089.11386.9311.46364 1.134.93947.2438.80538.3442 1.64661.2967 2.48606v7.76605 6.3711c.047.9969-.0606 1.995-.319 2.9597-.0422.1199-.0956.2356-.1595.3458-.1358-.082-.2572-.1851-.3597-.3055-.4565-.7756-.7936-1.6143-1-2.4885l-.2831-.8937-1.8222-5.9889-3.713-12.198949c-.0054-.213864-.1409-.4032617-.3429-.4792102-.2094.0811896-.35282.2745012-.36845.4965792l-4.26805 12.18158-2.34136 6.6718-.36843 1.0903c-.1898.5097-.43022.9994-.71773 1.4621-.15676.3222-.3956.5984-.693.8013l-.47848.1816c-.137842.055-.2257.1901-.219301.3371v.0276c-.009592.0912.024783.1814.092751.2436.067968.0621.16157.0889.25255.0722.04307 0 .28151-.0363.71772-.1089.19199-.0207.38507-.0296.57817-.0269.53749 0 1.01119.0111 1.4187.034l1.22969.0853c.19698.011.34291.0173.43622.0173.24721 0 .36524-.0939.35886-.2818-.00135-.0194-.00401-.0386-.00798-.0577-.04721-.1828-.20373-.3176-.39315-.3386-.44606-.0855-.85985-.2906-1.1962-.5929-.23112-.3265-.33843-.7232-.30304-1.1203.06755-.8479.26186-1.6812.57657-2.4726l.8517-2.4221c.11996-.474.32909-.9212.61644-1.3185.3669-.1768.77739-.2456 1.18264-.1981h4.65246c.2999-.0376.6045.0112.8772.1405.2036.3216.3473.6767.4242 1.0484l.6468 2.1798c.3968 1.1278.6615 2.2971.7887 3.4847.0971.4815-.1787.9602-.6468 1.1226l-.3987.1153c-.1816.0219-.3183.1742-.319.3553v.0165c-.0129.0918.0178.1844.0831.2508.0654.0664.158.0991.2511.0887.135-.008.2687-.0308.3987-.0679.7403-.0933 1.487-.1273 2.2329-.1018.6156 0 1.1763-.0071 1.6324-.0055.3358.0134 3.7306.1515 4.0009.1926.3429.0426.5758.0703.6954.0845.0892.0175.1812-.0114.2439-.0765.0628-.0651.0875-.1575.0655-.2449-.0015-.0409-.0101-.0812-.0255-.1192-.0734-.1318-.2069-.2201-.3581-.2368-.7018-.0646-1.3532-.3891-1.8238-.9087-.3388-.7926-.4757-1.6556-.3987-2.5129v-6.0537c0-.2534.0797-.3805.2392-.3805.1282.0111.2449.0775.319.1816l.2464.3639 6.8966 9.1421.2185.3087c.0263.0324.0502.064.0749.0924.1631.2097.4138.3344.6811.3387.1379 0 .3333-.0119.5893-.0348.2307-.0221.6029-.0331 1.1164-.0331.4698 0 .7975.0095.9937.0268l-.0343.0727c-.3921.7854-.6148 1.6431-.6539 2.5184v.1239c-.0217.0971.0015.1987.0632.2771.0616.0785.1554.1256.2558.1287.1786-.0531.2962-.2216.2831-.4058.0127-.0576.0231-.1216.0327-.191.0722-.7193.3487-1.4036.7974-1.9737.3225-.4798.8543-.7813 1.4355-.814 1.0392.1877 2.0117.6384 2.823 1.3082l2.1524 1.4732c.0563.04.148.106.2751.1981.3615.2632 1.0048.7429 1.9299 1.4392 1.0116.8916 2.2829 1.4422 3.6309 1.5727.836-.0203 1.6538-.2454 2.3804-.6553.8256-.4363 1.2297-.854 1.2121-1.2529.0109-.0644-.0097-.1301-.0554-.1773-.0457-.0471-.1112-.07-.1766-.0619zm-36.4539-13.9319h-3.88127l-.3469-.0157c-.39554 0-.59331-.1429-.59331-.4287.00057-.0159.00217-.0317.00478-.0474.0366-.1915.09134-.3792.16348-.5605l2.50644-7.13055c.00619-.13425.08477-.25485.20575-.31579.19637.11409.32185.31807.33414.54315l.10287.34579 2.01762 6.5211.0646.2968c.0252.0983.0449.1979.059.2984.0027.0262.0041.0526.004.079.0008.2771-.2114.4144-.6412.4144zm19.7525-.4918c-.0532-.6068-.0797-1.2358-.0797-1.8868-.1086-2.39412.5019-4.76636 1.7544-6.81715.9397-1.61651 2.6783-2.61476 4.5623-2.61947 2.2186 0 4.103 1.19816 5.6533 3.59447 1.4499 2.3271 2.2455 4.9954 2.3046 7.72895.016.33.0232.6647.0232 1.005.1105 2.3586-.4974 4.6957-1.7449 6.7082-.9626 1.5956-2.7049 2.5693-4.5822 2.561-1.976-.0667-3.8133-1.0218-4.9906-2.5942-1.7606-2.1932-2.7758-4.8813-2.9004-7.68zm31.2105 10.5434c.0016-.2146-.1678-.3924-.3844-.4034-.6065-.0826-1.1716-.3515-1.6156-.7689-.4582-.775-.7956-1.6139-1.0009-2.4885l-.2846-.8937-1.8223-5.9889-3.713-12.198949c-.0045-.21415-.1403-.4039807-.3429-.4792102-.2086.0813901-.3514.2743172-.3668.4957892l-4.2689 12.18237-2.3381 6.6718-.3733 1.0903c-.1898.5097-.4302.9994-.7177 1.4621-.1563.3227-.3955.5991-.6938.8013l-.4785.1816c-.1374.0551-.2242.1906-.2161.3371v.0276c-.0096.0912.0248.1814.0928.2436.0679.0621.1615.0889.2525.0722.0423 0 .2815-.0363.7177-.1089.1912-.0207.3835-.0297.5758-.0269.5383 0 1.0104.0111 1.4211.034l1.2289.0853c.1978.011.3413.0173.4354.0173.248 0 .3685-.0939.3589-.2818-.0003-.0194-.0021-.0386-.0056-.0577-.0474-.1826-.2038-.3174-.3931-.3386-.4459-.0861-.8595-.2911-1.1963-.5929-.2299-.327-.3369-.7234-.3022-1.1203.0677-.8478.2617-1.681.5758-2.4726l.8517-2.4221c.1198-.474.329-.9213.6164-1.3185.367-.1766.7774-.2454 1.1827-.1981h4.6532c.2987-.037.6018.0118.8732.1405.2043.3212.3481.6764.4243 1.0484l.6507 2.1766c.3966 1.1278.6607 2.2971.7871 3.4848.0973.481-.1778.9596-.6451 1.1226l-.3988.1152c-.1817.0216-.3186.1741-.319.3553v.0166c-.0132.0915.0172.1839.0823.2502s.1575.0989.2503.0885c.135-.008.2687-.0308.3987-.0679.7403-.0934 1.4871-.1274 2.2329-.1019 1.138 0 1.9307.0237 2.3749.0727.248.0197.4115.03.4888.03.0849.0187.1737-.0006.2428-.0529.0691-.0522.1113-.132.1153-.2179zm-7.9109-10.0516h-3.8836l-.3461-.0157c-.3945 0-.592-.1429-.5926-.4287.0002-.0156.0015-.0312.004-.0466.0366-.1916.0916-.3793.1643-.5605l2.5065-7.13056c.0065-.13393.0846-.25426.2049-.31579.1967.11365.3221.31797.3333.54315l.1037.34579 2.0168 6.52101.0654.2969c.025.0983.0445.1979.0582.2984.0038.0262.0059.0525.0064.079.0016.2757-.2127.4136-.6412.4136z" fill="#fff"/></g></svg>