<svg fill="none" height="769" viewBox="0 0 2438 769" width="2438" xmlns="http://www.w3.org/2000/svg"><g fill="#fff"><path d="m839.615 472.362c12.897 29.478 53.654 23.34 78.061 14.143 32.556 49.526 86.704 89.838 153.384 114.192l-52.96 89.768c-102.95-44.848-179.161-119.921-212.748-208.319 11.889-1.315 23.472-4.623 34.263-9.784z"/><path d="m1010.43 713.769c-113.657-47.996-197.197-131.964-231.799-232.619 5.711 1.245 11.635 1.726 17.559 1.619 33.89 91.564 112.147 169.377 218 215.577-2.13 4.886-3.4 10.104-3.76 15.423zm59.47 2.687c-.01.054-.03.108-.05.16-16.85 41.45-66.82 17.469-44.21-21.668l53.85-91.262c9.88 3.345 20 6.333 30.35 9.002.22 1.405-39.35 101.882-39.94 103.768zm56.95 12.897c-10.43 41.468-60.42 28.82-48.66-9.998l42.81-103.999c10.17 2.313 20.54 4.27 31.09 5.853.11.392-25.24 108.144-25.24 108.144zm58.69 6.547c-3.72 44.617-58.5 36.878-48.68-7.561 0 .036 24.47-105.582 24.55-105.813 10.29 1.298 20.71 2.295 31.3 2.899.37.961-7.14 109.585-7.17 110.475zm9.53-.676c0 .018 5.84-108.002 5.93-108.269 10.24.427 25.38.73 35.93-.338.5.925 7.3 107.486 7.4 108.358 3.31 43.674-51.87 44.563-49.26.249zm-1189.99217-677.4176c4.90998-3.7537 15.47717-3.558 28.83727-4.3052 67.9749 0 225.8769 4.3941 256.5819 4.3941s247.812 24.123 281.791 35.0993c15.352 4.394 18.643 19.7284 0 20.8314-18.644 1.103-250.41 4.412-283.303 4.412-25.51 0-158.205-.444-234.8962-15.655-41.4858-8.2364-63.75871-33.5335-49.01097-44.7766zm74.66377 81.2106c39.4754 1.103 236.8354 2.206 259.8734 1.103 23.02-1.103 201.754-10.959 222.586-12.062 45.061-2.366 59.649 17.701 12.061 28.517-24.123 5.497-246.709 30.705-415.569 27.414-31.809 1.103-74.5573-15.352-85.5336-30.705-10.9585-15.352 1.103-14.267 6.5822-14.267zm76.7624 72.386c27.415 0 350.869-24.123 418.861-38.372 59.134-9.002 45.791 21.383 21.917 26.311-20.067 4.145-259.873 50.434-381.573 52.622-40.579-1.085-87.722-39.475-59.205-40.561zm82.225 67.975c38.39-4.394 293.87-44.955 362.947-63.598 62.478-16.189 49.865 25.332 27.414 31.808-19.995 5.764-237.725 58.76-287.287 61.41-21.015 1.105-42.086-.316-62.762-4.234-70.021-14-40.312-25.386-40.312-25.386zm103.074 57.017c27.414-5.48 250-55.932 313.599-80.037 30.989-10.798 40.311 19.64 20.831 28.5-12.061 5.479-183.11 76.745-264.249 81.139-29.602 0-84.359-15.94-70.181-29.602zm362.93-46.058c-25.209 12.061-178.717 76.763-237.939 89.927-8.219 2.188-16.9 5.817-16.206 10.389 5.265 35.011 114.246 5.231 121.806 2.811 41.913-13.431 127.357-44.794 163.595-80.107-8.77-4.377-29.05-18.626-31.256-23.02zm46.057 37.287c-16.437 10.959-123.905 66.908-173.237 82.242-25.777 8.593 1.352 35.1 51.698 20.743 55.646-8.628 136.892-74.468 150.056-86.529-6.582-3.291-20.831-12.062-28.517-16.456zm50.452 29.62c-19.871 13.592-58.119 38.995-82.402 55.202-10.016 6.689-33.925 19.907-33.409 30.474.249 5.052 9.855 14.641 53.743-1.299 27.289-11.172 60.325-33.889 88.379-74.503-5.479-1.673-19.746-6.601-26.311-9.874zm49.331 16.438c-10.282 10.282-23.571 24.336-36.575 37.287-11.973 15.442-38.658 26.561-29.478 44.404 9.944 19.319 41.254-8.486 52.533-19.124 15.94-15.068 31.328-34.975 37.11-54.9-7.686-2.188-16.456-4.376-23.59-7.667z"/><path d="m469 49.1249c28.517 0 124.991 6.5823 160.09 6.5823 100.833 0 237.281-17.7898 331.069 1.4765 58.301 11.9726 66.661 28.8551 66.661 47.0003 0 23.607-19.73 37.786-33.715 48.033-16.438 12.061-66.889 41.664-69.078 118.426-13.146-5.479-31.79-8.77-18.625-36.184 22.966-45.951 74.61-101.918-13.716-125.756-13.93-3.754-31.097-6.209-52.071-6.92-64.684-2.1884-158.489-2.6687-190.298-8.148-31.79-5.4792-151.818-33.516-177.026-36.7893-10.976-1.1563-10.976-6.6356-3.291-7.7208z"/><path d="m722.487 115.801c23.02 0 93.521-.48 117.163.64 65.396 3.114 112.094 34.975 64.862 94.767-9.251 11.688-33.979 36.184-43.852 44.954-8.77 6.583-25.226-4.394-10.976-20.831-18.644 10.958-41.664 8.77-30.705-16.438-16.456 13.164-43.852 14.249-27.414-19.729-10.959 8.77-41.664 7.685-21.935-18.644-16.438 5.48-35.082-4.394-23.02-20.832-20.832 3.309-32.894-12.061-10.959-24.105-20.832 5.426-26.311-18.697-13.164-19.782zm-64.328-11.652c-8.877-.57-47.392-6.8316-46.467 13.929.925 20.779 43.709 12.933 52.498 11.297 16.188-3.007 29.122-7.952 28.748-14.659-.374-6.885-17.238-9.464-34.779-10.567zm1.565 35.597c-9.357.712-42.998-.943-37.75 18.057 1.655 5.977 14.019 18.074 55.38 8.023 18.128-4.412 27.521-14.125 27.521-21.846 0-6.742-24.372-5.817-45.151-4.234zm26.561 30.848c-6.654 1.103-45.222 3.735-38.764 23.18 4.518 13.555 11.456 9.268 23.215 10.674 7.757.925 65.218-15.264 56.234-33.694-2.669-5.48-19.569-3.629-40.685-.16zm19.07 27.556c-38.248 15.53-37.75 26.044-36.006 31.719 1.725 5.693 19.266 12.72 55.557-5.017 18.377-8.983 18.608-19.195 14.09-26.417-5.64-9.055-19.907-5.871-33.641-.285zm26.774 26.115c-39.814 13.876-37.537 26.543-34.388 33.979 3.469 8.219 16.047 16.971 49.278-4.198 20.067-12.774 33.125-23.483 29.549-31.987-3.238-7.72-22.22-5.71-44.439 2.206zm15.584 39.885c-10.443 6.333-15.193 14.908-8.611 24.675 11.777 17.505 46.503-13.378 55.22-22.825 6.475-7.009 10.62-14.374 6.956-19.764-3.789-5.551-15.566-5.124-53.565 17.914zm62.869 2.971c-46.36 23.643-41.913 35.099-35.455 39.991 7.133 5.409 23.945 11.083 52.053-21.401 12.328-14.232 5.55-29.815-16.598-18.59zm23.144 24.799c-9.784 10.941-32.715 27.432-14.961 39.725 14.961 10.353 23.732-1.014 31.097-8.059 42.588-40.97 28.499-66.908-16.136-31.666z"/><path d="m973.625 77.1617c32.555 16.2776 46.025 33.5693 12.596 57.1943-4.092 2.882.96 10.051 5.052 7.169 36.787-25.973 28.877-52.9245-13.716-72.2086-4.483-2.2416-8.397 5.6037-3.932 7.8453z"/><path clip-rule="evenodd" d="m1420.47 448.31c0-34.975-36.02-69.949-76.03-82.011-10.7-2.419-9.01-11.919-.68-15.673 8.01-3.629 54.7-36.184 54.05-77.19 0-39.795-46.72-100.103-182.81-100.103-80.06 0-146.77 18.092-186.8 51.875 9.33 7.241 20.02 18.093 20.02 30.154v220.718c-1.34 13.271-8.01 24.123-18.7 36.184 35.94 25.511 100.28 49.847 192.66 49.545 98.74-2.419 198.29-31.488 198.29-113.499zm-198.71-106.24c42.46 0 76.88-27.495 76.88-61.411s-34.42-61.41-76.88-61.41c-42.47 0-76.89 27.494-76.89 61.41s34.42 61.411 76.89 61.411zm96.1 105.03c0 35.803-38.59 64.826-86.19 64.826-47.61 0-86.2-29.023-86.2-64.826 0-35.802 38.59-64.826 86.2-64.826 47.6 0 86.19 29.024 86.19 64.826z" fill-rule="evenodd"/><path d="m887.736 341.198c3.007-14.961 7.828-29.496 14.268-43.461-.374-.551-11.777-15.139-39.867 25.457-15.513 22.398 11.883 31.417 25.599 18.004zm-.907 68.953c-11.564 13.431-22.469 24.71-29.674 33.712-15.05 18.821 24.106 42.019 45.204 15.263-7.311-15.57-12.533-32.037-15.53-48.975zm539.671-350.8503c6.2-3.5147 12.73-6.422 19.5-8.6815-140.4-66.178-313.62-66.178-453.998 0 7.294 2.5262 13.838 5.4081 19.478 8.6815 130.01-56.62497 286.15-56.12685 415.02 0z"/><path d="m1491.13 233.409c-15.76-54.828-55.11-77.136-70.38-87.81-30.68-21.437-29.01-53.1204-2.79-80.4278-125.29-52.8179-274.1-52.213-397.92 0 26.22 27.3074 27.88 58.9908-2.79 80.4278-15.27 10.674-54.637 32.982-70.38 87.81 133.83-137.9239 410.43-137.9417 544.26 0zm107.26 238.953c-12.92 29.478-53.68 23.34-78.07 14.143-32.55 49.527-86.7 89.838-153.4 114.192l52.98 89.768c102.95-44.848 179.14-119.921 212.77-208.319-11.9-1.31-23.49-4.618-34.28-9.784z"/><path d="m1427.57 713.769c113.66-47.996 197.22-131.964 231.8-232.619-5.77 1.218-11.66 1.761-17.56 1.619-33.89 91.564-112.15 169.377-218 215.577 2.13 4.886 3.4 10.104 3.76 15.423zm-59.49 2.687.07.16c16.85 41.45 66.82 17.469 44.21-21.668l-53.85-91.262c-9.88 3.345-19.98 6.333-30.35 9.002-.22 1.405 39.35 101.882 39.92 103.768zm-56.95 12.897c10.45 41.468 60.42 28.82 48.66-9.998 0 0-40.56-98.608-42.8-103.999-10.16 2.313-20.53 4.27-31.08 5.853-.11.392 25.22 108.144 25.22 108.144zm-58.67 6.547c3.72 44.617 58.48 36.878 48.66-7.561.02.036-24.45-105.582-24.55-105.813-10.28 1.298-20.73 2.295-31.29 2.899-.36.961 7.15 109.585 7.18 110.475zm1180.46-678.0936c-4.91-3.7537-15.47-3.558-28.84-4.3052-67.97 0-225.87 4.3941-256.58 4.3941-30.7 0-247.81 24.123-281.79 35.0993-15.35 4.394-18.64 19.7284 0 20.8314 18.65 1.103 250.39 4.412 283.29 4.412 25.53 0 158.22-.444 234.89-15.655 41.53-8.2364 63.8-33.5335 49.03-44.7766zm-74.68 81.2106c-39.47 1.103-236.82 2.206-259.85 1.103-23.02-1.103-201.76-10.959-222.59-12.062-45.06-2.366-59.67 17.701-12.06 28.517 24.1 5.497 246.71 30.705 415.55 27.414 31.79 1.103 74.56-15.352 85.53-30.705 10.98-15.352-1.08-14.267-6.58-14.267zm-76.74 72.386c-27.42 0-350.87-24.123-418.87-38.372-59.13-9.002-45.79 21.383-21.91 26.311 20.06 4.145 259.85 50.434 381.57 52.622 40.56-1.085 87.7-39.475 59.21-40.561zm-82.23 67.975c-38.37-4.394-293.87-44.955-362.93-63.598-62.48-16.189-49.88 25.332-27.41 31.808 19.98 5.764 237.7 58.76 287.27 61.41 21.01 1.105 42.08-.316 62.76-4.234 70.02-14 40.31-25.386 40.31-25.386zm-103.07 57.017c-27.42-5.48-250-55.932-313.6-80.037-30.97-10.798-40.31 19.64-20.83 28.5 12.06 5.479 183.11 76.745 264.25 81.139 29.6 0 84.36-15.94 70.18-29.602zm-362.95-46.058c25.21 12.061 178.73 76.763 237.94 89.927 8.22 2.188 16.9 5.817 16.2 10.389-5.26 35.011-114.24 5.231-121.8 2.811-41.9-13.431-127.36-44.794-163.6-80.107 8.79-4.377 29.07-18.626 31.26-23.02zm-46.06 37.287c16.44 10.959 123.91 66.908 173.24 82.242 25.78 8.593-1.35 35.1-51.7 20.743-55.64-8.628-136.89-74.468-150.06-86.529 6.6-3.291 20.85-12.062 28.52-16.456zm-50.41 29.62c19.85 13.592 58.11 38.995 82.4 55.202 10.01 6.689 33.92 19.907 33.41 30.474-.25 5.052-9.86 14.641-53.75-1.299-27.29-11.172-60.32-33.889-88.38-74.503 5.47-1.673 19.72-6.601 26.32-9.874zm-49.37 16.438c10.28 10.282 23.59 24.336 36.59 37.287 11.99 15.442 38.68 26.561 29.48 44.404-9.94 19.319-41.25-8.486-52.52-19.124-15.93-15.068-31.34-34.975-37.12-54.9 7.68-2.188 16.45-4.376 23.57-7.667z"/><path d="m1969 49.1249c-28.52 0-124.99 6.5823-160.09 6.5823-100.85 0-237.3-17.7898-331.07 1.4765-58.3 11.9726-66.66 28.8551-66.66 47.0003 0 23.607 19.71 37.786 33.7 48.033 16.45 12.061 66.9 41.664 69.09 118.426 13.15-5.479 31.79-8.77 18.65-36.184-22.99-45.951-74.61-101.918 13.71-125.756 13.93-3.754 31.1-6.209 52.09-6.92 64.68-2.1884 158.49-2.6687 190.28-8.148 31.79-5.4792 151.82-33.516 177.03-36.7893 10.96-1.1563 10.96-6.6356 3.27-7.7208z"/><path d="m1715.5 115.801c-23.02 0-93.53-.48-117.17.64-65.39 3.114-112.09 34.975-64.86 94.767 9.25 11.688 33.98 36.184 43.85 44.954 8.77 6.583 25.23-4.394 10.96-20.831 18.66 10.958 41.68 8.77 30.72-16.438 16.44 13.164 43.86 14.249 27.42-19.729 10.96 8.77 41.66 7.685 21.91-18.644 16.46 5.48 35.1-4.394 23.02-20.832 20.85 3.309 32.92-12.061 10.96-24.105 20.87 5.426 26.35-18.697 13.19-19.782zm64.34-11.652c8.88-.57 47.39-6.8316 46.47 13.929-.93 20.779-43.71 12.933-52.5 11.297-16.19-3.007-29.12-7.952-28.75-14.659.38-6.885 17.24-9.464 34.78-10.567zm-1.55 35.597c9.34.712 43-.943 37.74 18.057-1.66 5.977-14.01 18.074-55.37 8.023-18.14-4.412-27.52-14.125-27.52-21.846 0-6.742 24.36-5.817 45.15-4.234zm-26.59 30.848c6.65 1.103 45.22 3.735 38.76 23.18-4.52 13.555-11.46 9.268-23.21 10.674-7.76.925-65.22-15.264-56.24-33.694 2.69-5.48 19.59-3.629 40.69-.16zm-19.06 27.556c38.24 15.53 37.74 26.044 36.01 31.719-1.74 5.693-19.27 12.72-55.56-5.017-18.37-8.983-18.62-19.195-14.1-26.417 5.65-9.055 19.92-5.871 33.65-.285zm-26.79 26.115c39.82 13.876 37.54 26.543 34.39 33.979-3.47 8.219-16.05 16.971-49.29-4.198-20.07-12.774-33.13-23.483-29.54-31.987 3.26-7.72 22.22-5.71 44.44 2.206zm-15.58 39.885c10.44 6.333 15.19 14.908 8.61 24.675-11.76 17.505-46.5-13.378-55.22-22.825-6.46-7.009-10.62-14.374-6.96-19.764 3.79-5.551 15.59-5.124 53.57 17.914zm-62.85 2.971c46.36 23.643 41.91 35.099 35.45 39.991-7.13 5.409-23.94 11.083-52.05-21.401-12.33-14.232-5.55-29.815 16.6-18.59zm-23.16 24.799c9.78 10.941 32.71 27.432 14.97 39.725-14.97 10.353-23.74-1.014-31.09-8.059-42.59-40.97-28.5-66.908 16.12-31.666z"/><path d="m1464.37 77.1617c-32.55 16.2776-46.02 33.5693-12.57 57.1943 4.07 2.882-.98 10.051-5.07 7.169-36.77-25.973-28.86-52.9245 13.73-72.2086 4.47-2.2416 8.38 5.6037 3.91 7.8453z"/><path d="m1550.26 341.198c-3.02-14.962-7.82-29.496-14.28-43.461.37-.551 11.78-15.139 39.87 25.457 15.53 22.398-11.87 31.417-25.59 18.004zm.89 68.953c11.57 13.431 22.49 24.71 29.69 33.712 15.05 18.821-24.1 42.019-45.2 15.263 7.31-15.673 12.58-32.075 15.51-48.975z"/></g></svg>