<svg fill="none" height="2500" viewBox="0 0 2501 2500" width="2501" xmlns="http://www.w3.org/2000/svg" xmlns:xlink="http://www.w3.org/1999/xlink"><clipPath id="a"><path d="m.662109 0h2500v2500h-2500z"/></clipPath><g clip-path="url(#a)"><path clip-rule="evenodd" d="m2500.66 1250c0 690.36-559.64 1250-1250 1250-690.354 0-1249.997891-559.64-1249.997891-1250 0-690.356 559.643891-1250 1249.997891-1250 690.36 0 1250 559.644 1250 1250zm-1203.57 5.63c-5.64 5.07-11.39 10.23-17.32 15.44.46-2.86.89-5.53 1.29-8.03 2-12.28 3.34-20.59 4.3-28.81.45-3.47 1.27-7.08 2.1-10.69 3.12-13.68 6.28-27.47-10.85-34.61-9.88-3.73-20.67-4.36-30.91-1.8-10.25 2.56-19.47 8.19-26.43 16.13-9.26 11.28-14.77 25.16-15.78 39.72-2.75 13.9-5.4 27.83-8.06 41.77-5.23 27.46-10.46 54.94-16.45 82.24-5.74 25.8-78.56 80.71-96.63 70.39-23.25-13.36-17.48-31.5-11.67-49.75 2.61-8.19 5.22-16.41 5.22-24.23 0-3.76.77-7.74 1.55-11.74 2.06-10.62 4.14-21.36-8.14-28.54-16.92-9.9-32.69-.86-47.03 10.18-12.28 10.34-20.8 24.45-24.227 40.14-4.229 16.69-11.895 32.31-22.509 45.87l-.215.25c-14.273 16.27-29.435 33.56-52.686 27.28-23.369-6.31-32.401-27.1-35.268-48.31-4.575-27.4-2.595-55.5 5.778-81.99s22.9-50.62 42.393-70.41c9.348-10.37 21.285-18.06 34.587-22.29 13.302-4.24 27.49-4.85 41.107-1.8 27.53 5.6 36.56 29.54 20.5 49.61-1.79 2.24-4.79 3.88-7.77 5.51-6.56 3.59-13.07 7.14-6.56 17 3.45 4.15 7.87 7.38 12.87 9.41 5.01 2.03 10.43 2.78 15.8 2.2 25.66 1.29 48.31-6.74 58.49-31.4 4.78-10.87 6.06-22.96 3.67-34.59-2.39-11.64-8.33-22.24-17-30.35-18.25-17.66-42.43-27.89-67.81-28.68-105.232-8.02-199.422 73.69-209.888 182.65.312 9.11-1.202 18.2-4.452 26.72-3.25 8.51-8.17 16.3-14.472 22.89-44.974 42.98-100.361 73.51-160.712 88.6-76.271 18.06-138.061-12.76-174.476-82.3-24.924-48.57-34.569-103.54-27.669-157.7 13.645-125.43 66.582-243.35 151.25-336.905 25.194-30.778 57.597-54.86 94.334-70.106 51.181-19.641 89.603 2.151 98.205 56.056 9.032 57.776.86 110.395-47.024 150.825-.578.46-1.173.93-1.779 1.41-8.562 6.78-19.195 15.21-11.697 27.26 4.883 8.84 16.446 6.14 26.192 3.87.843-.2 1.672-.39 2.481-.57 30.317-7.43 57.483-24.31 77.563-48.2 20.079-23.9 32.029-53.563 34.119-84.704 1.852-32.461-7.589-64.562-26.718-90.852-19.13-26.29-46.77-45.149-78.226-53.373-26.814-7.607-54.981-9.174-82.473-4.588s-53.626 15.211-76.519 31.11c-177.199 117.703-267.375 286.447-256.193 498.477 9.462 187.81 177.056 278.71 347.517 197.7 43.426-19.36 82.746-46.86 115.839-81 16.344-17.49 25.089-18.78 42.006.86 33.404 38.85 75.697 48.89 112.542 25.38 25.232-16.06 41.432-25.95 65.37 2.72 14.34 16.92 40 9.75 59.64.72 21.62-9.9 42.69-20.97 64.23-32.28 5.6-2.95 11.23-5.91 16.92-8.87 2.58 5.85 2.07 13.02 1.57 20.01-.88 12.39-1.72 24.23 14.77 27.16 12.03 1.48 24.21-1.1 34.6-7.34 10.39-6.23 18.39-15.76 22.75-27.07 7.22-16.91 12.42-34.62 15.48-52.76 13.19-61.5 53.48-104.51 99.21-143.36.62-.53 1.26-1.08 1.92-1.66 6.48-5.64 14.64-12.75 22.45-7.8 9.7 6.5 5.74 15.45 2.12 23.61-.76 1.73-1.52 3.43-2.12 5.06-15.29 37.86-26.39 77.28-33.12 117.56-10.89 78.42 32.12 112.4 106.24 86.02 39.41-16.25 75.77-39.09 107.52-67.53 2.87 14.34 4.45 21.22 6.31 28.68 13.19 53.76 32.26 62.65 81.14 33.97 37.27-20.36 68.94-49.61 92.19-85.15 26.81-43.01 64.94-53.48 111.82-57.35-.34 3.15-.68 6.15-1.01 9.05-.78 6.86-1.49 13.17-2 19.62-3.72 46.88 10.9 86.02 51.61 112.11 16.72 12.25 37.29 18.05 57.94 16.34 20.65-1.72 39.99-10.82 54.46-25.65 14.3-12.59 17.87-3.51 21.54 5.84.64 1.62 1.28 3.24 1.97 4.76 7.43 15.5 17.83 29.37 30.62 40.83 12.8 11.47 27.73 20.3 43.93 25.98 3.5 1.86 7.5 2.55 11.42 1.99 3.91-.57 7.55-2.37 10.38-5.14 1.23-1.13 2.22-2.5 2.89-4.03s1.02-3.19 1.02-4.86-.35-3.33-1.02-4.86-1.66-2.9-2.89-4.03c-46.74-46.45-35.42-100.21-22.08-155.41.59-2.52 1.38-5.23 2.2-8.05 4.34-14.96 9.55-32.85-9.51-40.69-22.66-9.32-40.72 6.02-53.77 23.37-7.27 10.92-13.01 22.78-17.06 35.27-6.77 20.03-18.28 38.13-33.54 52.75-27.67 24.23-54.34 17.78-68.68-16.34-24.51-56.77 4.88-149.96 57.35-183.51 16.62-11.05 36.74-15.55 56.49-12.61 7.17.41 14.05 2.97 19.75 7.34s9.96 10.35 12.22 17.17c1.85 5.7 1.5 11.89-.96 17.35-2.47 5.46-6.88 9.8-12.38 12.19-14.33 8.31-16.34 16.34 0 25.08 8.25 4.01 17.35 5.97 26.51 5.73 9.17-.24 18.15-2.67 26.18-7.09 8.03-4.43 14.89-10.71 19.99-18.33s8.3-16.35 9.33-25.47c2.72-41.14-27.24-69.38-79.57-74.83-72.26-7.6-126.73 24.8-173.76 75.84-19.5 21.07-41 40.57-75.69 31.83 2.4-6.91 4.94-13.68 7.46-20.39 9.93-26.44 19.46-51.84 18.77-79.97-.86-31.4-11.04-58.21-42.15-69.53-14.3-5.53-29.98-6.42-44.82-2.56-14.84 3.85-28.1 12.27-37.9 24.06-35.7 37.71-46.59 117.13-10.32 157.7 31.25 35.13 18.35 55.63-5.16 81.29-3.33 3.65-6.37 7.57-9.41 11.5-5.09 6.56-10.17 13.12-16.54 18.32-3.03 2.47-5.79 6.01-8.59 9.6-6.63 8.49-13.49 17.28-24.67 13.05-9.03-3.56-9.91-15.37-10.74-26.37-.23-3.15-.46-6.23-.88-9.04-8.18-56.27-3.27-113.67 14.34-167.73 1-2.77 2.29-5.6 3.59-8.46 5.44-11.95 11.1-24.37-3.59-34.55-18.21-12.62-35.55.57-49.89 11.9-37.13 28.67-40.86 71.39-37.13 111.53 6.31 67.1-34.27 97.35-84.16 122.87-13.47 6.88-30.53 14.76-44.15 2.86-12.38-10.81-8.54-24.47-5.04-36.88.35-1.24.7-2.47 1.02-3.69 11.19-42.49 23.49-84.85 35.76-127.09.94-3.23 1.87-6.45 2.81-9.68 1.1-3.8 2.41-7.6 3.72-11.41 6.49-18.92 12.98-37.85-5.16-55.4-20-19.34-43.02-9.46-64.4-.27-1.92.82-3.82 1.63-5.7 2.42-32.79 13.81-58.93 37.28-88.05 63.41zm444.88-98.53c12.33-1.29 18.35 8.46 22.08 18.49 9.59 29.5 7.38 61.56-6.16 89.46-11.75-10.54-20.85-23.71-26.56-38.43-5.7-14.72-7.85-30.59-6.27-46.3 1-10.6 4.58-21.93 16.91-23.22z" fill="#fff" fill-rule="evenodd"/></g></svg>