<svg fill="none" height="46" viewBox="0 0 140 46" width="140" xmlns="http://www.w3.org/2000/svg" xmlns:xlink="http://www.w3.org/1999/xlink"><clipPath id="a"><path d="m0 0h140v46h-140z"/></clipPath><g clip-path="url(#a)" fill="#fff"><path d="m22.41 11.088h-5.1c-.3604.0001-.7174-.0707-1.0504-.2086-.333-.1378-.6356-.3399-.8905-.5947-.255-.2549-.4572-.5574-.5951-.89039-.138-.33298-.209-.68988-.209-1.05031v-5.1c0-.36043.071-.71733.209-1.05031.1379-.33299.3401-.63553.5951-.89034.2549-.25482.5575-.456922.8905-.594762.333-.137841.69-.208719 1.0504-.208588h5.1c.7276.000265 1.4253.289481 1.9397.80405.5143.51457.8033 1.21237.8033 1.93995v5.1c0 .72775-.2891 1.4257-.8037 1.9403s-1.2115.8037-1.9393.8037z"/><path d="m9.217 22.52h-5.737c-.40547.0004-.80703-.0792-1.18173-.2341s-.71519-.3822-1.00199-.6688-.514286-.6269-.66945-1.0015c-.155165-.3746-.234963-.7762-.234832-1.1816v-5.739c.000266-.8188.325725-1.604.904812-2.1829.57908-.5789 1.36437-.9041 2.18319-.9041h5.737c.8186.0002 1.6037.3256 2.1825.9044.5789.5789.9042 1.3639.9045 2.1826v5.739c.0001.4054-.0796.8068-.2347 1.1813-.1551.3746-.3825.7148-.6692 1.0015-.2867.2866-.6271.5138-1.0017.6688s-.77602.2346-1.1814.2344z"/><path d="m8.67 34.428h-3.504c-.24789.0001-.49337-.0486-.72243-.1433-.22906-.0948-.4372-.2338-.61253-.409-.17533-.1753-.31441-.3833-.40931-.6123-.09489-.229-.14373-.4745-.14373-.7224v-3.503c0-1.045.847-1.89 1.888-1.89h3.504c1.042 0 1.887.845 1.887 1.89v3.503c.0001.2479-.0486.4933-.1434.7223s-.2337.4371-.409.6123c-.17525.1753-.38332.3143-.61232.409-.229.0948-.47444.1435-.72228.1434z"/><path d="m18.079 45.5h-4.144c-.2929.0003-.583-.0572-.8537-.1692s-.5166-.2762-.7237-.4834c-.2072-.2071-.3714-.453-.4834-.7237s-.1695-.5608-.1692-.8537v-4.143c0-1.234.999-2.23 2.23-2.23h4.144c1.231 0 2.23.996 2.23 2.23v4.144c0 1.233-.999 2.229-2.23 2.229zm15.183-32.325h-2.87c-.4093 0-.8019-.1625-1.0914-.4519-.2895-.2893-.4523-.6818-.4526-1.0911v-2.86701c0-.853.69-1.546 1.543-1.546h2.871c.852 0 1.542.693 1.542 1.546v2.86701c0 .85-.69 1.543-1.542 1.543z"/><path d="m96.08 15.09c.2169 0 .4317-.0428.6321-.1259s.3824-.2049.5357-.3584c.1532-.1536.2747-.3358.3575-.5363.0827-.2006.1251-.4155.1247-.6324 0-.3273-.0971-.6472-.279-.9193s-.4405-.4841-.743-.6092c-.3024-.125-.6352-.1575-.9562-.0934-.3209.0641-.6156.2221-.8468.4538-.2311.2317-.3883.5268-.4517.8479s-.03.6538.0958.956c.1258.3021.3384.5602.6109.7414.2725.1813.5927.2766.92.2758z"/><path d="m35.696 32.737c-.256.384-.672.575-1.12.575-.2676.0011-.5312-.0646-.767-.191-.352-.225-.608-.704-.608-1.184 0-.224.064-.448.192-.64l3.838-6.043-3.838-6.043c-.126-.2014-.1926-.4344-.192-.672 0-.448.224-.927.64-1.152.2128-.1259.4557-.1919.703-.191.448 0 .896.191 1.152.576l3.133 4.956 3.166-4.956c.256-.385.704-.576 1.152-.576.255 0 .48.064.703.191.415.225.639.704.639 1.152 0 .224-.064.48-.192.672l-3.837 6.043 3.837 6.044c.128.191.192.415.192.64 0 .479-.256.958-.608 1.183-.2358.1266-.4994.1922-.767.191-.447 0-.863-.191-1.12-.575l-3.165-4.925zm13.68-13.655c1.5072-1.3627 3.4681-2.115 5.5-2.11 1.0891-.0053 2.1685.2053 3.1758.6196 1.0073.4144 1.9224 1.0242 2.6926 1.7943s1.3802 1.6852 1.7946 2.6924.6252 2.0866.62 3.1757c0 4.542-3.677 8.219-8.282 8.219-2.111 0-4.062-.8-5.5-2.111v7.067c0 .703-.64 1.31-1.375 1.31-.672 0-1.343-.607-1.343-1.31v-20.019c0-.703.671-1.311 1.343-1.311.735 0 1.374.608 1.374 1.31v.672zm5.5.64c-3.07 0-5.5 2.43-5.5 5.532 0 3.07 2.43 5.5 5.5 5.5 3.103 0 5.533-2.43 5.533-5.5 0-3.102-2.43-5.531-5.532-5.531zm31.695 4.03v8.281c0 .704-.672 1.31-1.343 1.31-.736 0-1.376-.607-1.376-1.31v-13.622c0-.704.64-1.311 1.376-1.311.64 0 1.31.575 1.343 1.247 1.119-.863 2.558-1.343 4.125-1.375.863 0 1.502.671 1.502 1.343 0 .735-.67 1.407-1.502 1.407-2.143.064-4.125.832-4.125 4.03zm9.528-6.652c-.735 0-1.375.607-1.375 1.31v13.623c0 .704.64 1.31 1.375 1.31.672 0 1.343-.607 1.343-1.31v-13.622c0-.704-.671-1.311-1.343-1.311zm17.365 1.31c0-.703.638-1.31 1.374-1.31.672 0 1.343.607 1.343 1.31v13.623c0 .704-.671 1.31-1.343 1.31-.736 0-1.374-.607-1.374-1.31v-.672c-1.511 1.3579-3.471 2.1094-5.502 2.11-1.089.0053-2.168-.2052-3.175-.6194s-1.922-1.0239-2.692-1.7938-1.38-1.6848-1.795-2.6918c-.4142-1.0069-.625-2.0861-.62-3.175 0-4.541 3.678-8.219 8.282-8.219 2.111 0 4.03.8 5.502 2.111zm-5.502 12.312c3.07 0 5.502-2.43 5.502-5.532.005-.7239-.133-1.4417-.408-2.1115s-.68-1.2783-1.192-1.7901c-.512-.5119-1.12-.9167-1.79-1.1911s-1.388-.4129-2.112-.4073c-3.101 0-5.53 2.43-5.53 5.5 0 3.102 2.429 5.532 5.53 5.532zm22.065-6.811c0-2.27-1.982-4.253-4.253-4.253-2.207 0-4.253.896-4.253 4.093v8.282c0 .704-.672 1.31-1.344 1.31-.736 0-1.374-.607-1.374-1.31v-13.622c0-.704.639-1.311 1.374-1.311.64 0 1.312.575 1.344 1.247 1.151-.896 2.622-1.375 4.22-1.375 3.71 0 7.004 2.91 7.004 6.555v8.506c0 .704-.67 1.311-1.343 1.311-.736 0-1.375-.607-1.375-1.31zm-97.582.832c-.064-4.19-3.805-7.77-8.218-7.77-4.605 0-8.282 3.677-8.282 8.217-.0053 1.0891.2053 2.1685.6196 3.1757.4144 1.0072 1.0242 1.9223 1.7943 2.6924s1.6852 1.38 2.6925 1.7943c1.0072.4143 2.0865.6249 3.1756.6196 2.206 0 4.254-.864 5.724-2.334.288-.256.48-.64.48-1.024 0-.735-.64-1.374-1.375-1.374-.416 0-.8.255-1.087.544-.928.99-2.303 1.438-3.742 1.438-2.75 0-4.986-1.884-5.468-4.506h12.344c.009 0 .017-.003.026-.003h.037c.023-.002.046-.01.07-.013.047-.007.094-.014.14-.028.3098-.0887.5821-.2764.7751-.5345.1931-.258.2963-.5722.2939-.8945zm-8.218-5.052c2.48 0 4.54 1.59 5.243 3.808h-10.518c.703-2.217 2.766-3.808 5.275-3.808zm57.325 5.052c-.065-4.19-3.806-7.77-8.219-7.77-4.605 0-8.284 3.677-8.284 8.217-.005 1.0892.2058 2.1686.6204 3.1758.4145 1.0072 1.0246 1.9223 1.7948 2.6924.7703.7701 1.6855 1.3799 2.6929 1.7942 1.0073.4143 2.0867.6249 3.1759.6196 2.206 0 4.253-.864 5.724-2.334.288-.256.48-.64.48-1.024 0-.735-.64-1.374-1.375-1.374-.416 0-.8.255-1.088.544-.927.99-2.303 1.438-3.74 1.438-2.75 0-4.988-1.884-5.47-4.506h12.323c.009 0 .018-.003.026-.003h.059c.037-.003.073-.014.11-.022.018-.004.037-.005.055-.01.3203-.0797.6045-.2649.8067-.5257.2023-.2609.3109-.5822.3083-.9123zm-8.219-5.052c2.48 0 4.54 1.59 5.244 3.808h-10.52c.703-2.217 2.766-3.808 5.276-3.808zm62.293 13.662c-.029.0006-.058-.0047-.085-.0154-.028-.0108-.053-.0268-.074-.0471-.021-.0204-.037-.0447-.049-.0715-.011-.0269-.018-.0557-.018-.085v-2.307h-.516c-.029-.0005-.058-.0068-.085-.0184-.026-.0116-.051-.0284-.071-.0494s-.036-.0458-.047-.0729c-.01-.0272-.016-.0561-.015-.0853 0-.13.094-.227.218-.227h1.492c.124 0 .218.098.218.227.001.0588-.022.1156-.062.1579-.041.0423-.097.0668-.156.0681h-.524v2.307c0 .0295-.005.0587-.017.086-.011.0272-.028.0518-.049.0724-.021.0205-.046.0366-.074.0472-.027.0106-.057.0145-.086.0134zm2.667.004c-.124 0-.196-.09-.223-.176l-.642-1.887v1.84c0 .0295-.005.0587-.017.086-.011.0272-.028.0518-.049.0724-.021.0205-.046.0366-.074.0472-.027.0106-.057.0155-.086.0144-.029.0004-.058-.005-.086-.0158-.027-.0108-.052-.0269-.073-.0474-.021-.0204-.037-.0448-.049-.0717-.011-.0269-.018-.0558-.018-.0851v-2.434c0-.182.158-.34.34-.34.144 0 .278.103.326.25l.651 1.905.645-1.905c.022-.0709.066-.1331.125-.1779s.131-.07.205-.0721c.18 0 .34.158.34.34v2.434c0 .0295-.005.0587-.017.086-.011.0272-.028.0518-.049.0724-.021.0205-.046.0366-.074.0472-.027.0106-.057.0155-.086.0144-.029.0006-.059-.0047-.086-.0155s-.052-.0269-.073-.0473-.038-.0449-.05-.0718c-.011-.027-.018-.056-.018-.0854v-1.834l-.377 1.115-.26.768c-.05.115-.126.175-.225.175z"/></g></svg>