<svg fill="none" height="150" viewBox="0 0 783 150" width="783" xmlns="http://www.w3.org/2000/svg" xmlns:xlink="http://www.w3.org/1999/xlink"><clipPath id="a"><path d="m.662109 0h782v150h-782z"/></clipPath><g clip-path="url(#a)"><path clip-rule="evenodd" d="m291.449 90.9607-4.65 15.7723h-47.609v-2.224l6.163-4.248v-50.7433l-6.163-4.2486v-2.2231h49.832l1.112 1.1115-3.131 14.2558h-2.223c-2.023-8.7967-4.956-10.0072-19.511-10.0072h-6.975v23.3491l22.944-1.4142.507.4015-2.125 7.4815-.605.2037-20.721-2.0194v24.9637h6.57c11.826 0 17.995-1.8153 24.362-11.2173zm490.359-45.6916-6.166 4.2486v56.4033l-.806.812h-9.806l-36.191-50.0365v43.5645l7.281 4.248v2.224h-20.018v-2.224l6.169-4.248v-50.9441l-7.077-4.0478v-2.2231h19.104l34.773 48.3192v-41.8475l-7.277-4.2486v-2.2231h20.014zm-104.117 54.9919 7.278 4.248v2.224h-26.279v-2.224l6.166-4.248v-50.7433l-6.166-4.2486v-2.2231h26.687c18.597 0 28.199 6.3698 28.199 18.6002 0 13.9501-13.542 23.454-33.659 23.454-.91 0-1.719 0-2.226-.1049zm-24.056-54.9919-6.268 4.1467-20.823 57.3172h-12.03l-22.139-57.0146-6.465-4.4493v-2.2231h26.078v2.2231l-6.366 4.3475 17.992 46.1949h.707l15.163-46.2938-6.472-4.2486v-2.2231h20.623zm24.056 34.4739c14.151.4045 22.744-6.3698 22.744-17.7882 0-9.405-4.848-14.1539-14.555-14.1539-2.73 0-5.861.7041-8.189 1.8157zm-268.477.6053c0 15.8707-10.616 27.1927-25.477 27.1927-4.344 0-7.985-1.114-11.52-2.627v15.565l7.278 4.246v2.223h-25.779v-2.223l6.271-4.246v-55.3932l-6.271-3.7422v-2.2262l16.679-3.3347 1.822 1.2164v7.074c3.943-5.0546 10.208-8.1856 16.68-8.1856 12.026 0 20.317 10.5106 20.317 24.4608zm40.736-13.342h-2.224c-1.618-1.0127-3.337-1.519-5.057-1.519-3.736 0-7.275 1.4171-10.409 4.1437v30.63l7.482 4.248v2.224h-26.082v-2.224l6.268-4.248v-35.1752l-6.268-3.7422v-2.2262l16.779-3.3347 1.821 1.2164v7.9818c3.233-5.2553 8.896-8.9945 14.556-8.9945 2.63 0 4.853.7101 6.672 2.0194zm38.006 13.9472c-6.771 0-14.352-.2008-22.639-.5034 1.112 11.3225 7.275 17.8901 17.384 17.8901 6.064 0 10.007-1.516 13.342-4.3444l2.124 1.6179c-3.335 7.9823-10.816 12.3293-20.521 12.3293-14.858 0-24.865-10.208-24.865-25.7761 0-14.858 9.905-26.3842 24.967-26.3842 6.975 0 12.23 2.2231 15.973 6.5736 3.739 4.3474 5.557 10.0042 5.459 16.9792l-1.519 1.5191c-2.02.0989-5.256.0989-9.705.0989zm20.014 11.4244h2.125c3.943 6.4687 9.704 10.2081 14.657 10.2081 4.449 0 7.179-2.325 7.179-5.9626 0-4.1467-2.427-6.3698-8.494-8.6918l-4.549-1.7198c-8.59-3.2359-13.746-8.3893-13.746-15.1637 0-8.3892 7.886-14.858 19.61-14.858 6.771 0 13.24 1.618 17.995 4.4464l-4.854 8.2904h-2.022c-3.335-5.1564-7.479-7.7841-12.333-7.7841-4.344 0-7.175 2.4239-7.175 5.7616 0 3.6374 2.627 5.8606 10.411 8.8957l5.157 2.0224c7.883 3.0321 11.319 7.784 11.319 13.9501 0 9.7014-7.784 15.7684-19.61 15.7684-7.277 0-14.657-1.92-20.014-5.255zm44.377 0h2.124c3.943 6.4687 9.705 10.2081 14.654 10.2081 4.449 0 7.179-2.325 7.179-5.9626 0-4.1467-2.424-6.3698-8.491-8.6918l-4.548-1.7198c-8.593-3.2359-13.747-8.3893-13.747-15.1637 0-8.3892 7.883-14.858 19.607-14.858 6.778 0 13.243 1.618 17.995 4.4464l-4.851 8.2904h-2.025c-3.335-5.1564-7.475-7.7841-12.329-7.7841-4.348 0-7.179 2.4239-7.179 5.7616 0 3.6374 2.631 5.8606 10.415 8.8957l5.153 2.0224c7.886 3.0321 11.323 7.784 11.323 13.9501 0 9.7014-7.785 15.7684-19.613 15.7684-7.278 0-14.655-1.92-20.015-5.255zm-224-11.2207 14.858 19.1038 5.558 4.248v2.224h-25.168v-2.224l5.258-3.946-10.112-13.743-9.704 13.743 5.863 3.946v2.224h-20.014v-2.224l6.169-4.146 14.453-17.7886-14.759-18.8039-5.659-4.4464v-2.2231h25.066v2.2231l-5.154 3.94 10.007 13.6475 9.705-13.6475-5.861-3.94v-2.2231h20.012v2.2231l-6.166 4.1437zm157.991-6.7743c-1.112-8.8956-5.252-13.1412-10.813-13.1412-6.064 0-10.109 5.9654-10.412 14.4595zm-89.256 11.1188c0-11.2177-5.456-20.5208-14.253-20.5208-3.637 0-7.175 1.2165-10.612 3.7422v26.585c2.831 4.3475 7.176 6.4719 12.329 6.4719 7.685 0 12.536-6.0674 12.536-16.2783zm-348.0078 64.3063c-20.9222 0-34.2672-11.754-34.2672-28.089 0-5.381 1.594-11.951 7.7691-25.2993h-21.913991l20.119291-43.034h140.0496c3.188 0 5.378-2.3879 5.378-5.1744 0-2.7924-2.19-5.1833-5.378-5.1833h-113.3538l9.9623-21.3148c6.1751-13.14715 19.523-21.7132 34.0634-21.7132h47.6151c27.49 0 47.81 18.9238 47.81 43.6242 0 29.2876-26.894 52.7955-57.97 52.7955h-92.0363c-2.7924 5.7763.3955 10.3603 7.1699 10.3603h73.3104c12.152 0 21.515 8.564 21.515 19.52 0 12.551-12.149 23.508-25.899 23.508z" fill="#fff" fill-rule="evenodd"/></g></svg>