<svg fill="none" height="468" viewBox="0 0 709 468" width="709" xmlns="http://www.w3.org/2000/svg" xmlns:xlink="http://www.w3.org/1999/xlink"><clipPath id="a"><path d="m0 0h708.662v467.493h-708.662z"/></clipPath><g clip-path="url(#a)" fill="#fff"><path d="m498.02 14.1809c25.74-12.64198 38.496-10.98299 38.783 1.831.344 16.646-2.117 38.782-3.891 54.799-9.553 87.0551-25.512 158.1911-26.713 247.5741 42.043-108.843 77.279-184.492 122.697-277.6621 14.416-29.688 23.625-24.139 35.465-29.402 46.105-20.53497 47.822-7.95096 41.814 17.161-22.365 93.0101-79.625 385.8581-88.375 430.9511-2.518 13.047-16.703 7.516-20.365 2.414-16.416-22.709-34.949-23.064-32.891-38.165 10.297-75.181 47.363-263.808 57.031-308.254-49.252 100.972-100.332 227.199-126.588 298.77-5.549 15.198-15.674 14.083-21.965 2.963-8.867-15.621-26.084-23.596-28.945-42.055-8.98-58.688 10.297-170.552 12.984-241.322-26.826 77.308-71.844 227.399-91.579 295.211-8.122 28.058-35.236 23.481-28.029-3.866 29.973-113.803 94.555-315.078 122.469-387.4381 6.581-17.047 23.797-16.475 38.098-23.51z"/><path d="m334.538.222867c-8.694-2.115997-33.92 11.498033-49.422 14.186033-4.919.858-9.611 6.063-11.27 9.782-24.826 57.03-47.077 111.3941-66.354 160.9191-24.654 4.21-53.482 9.753-85.744 17 23.109-59.278 46.448-117.7441 69.214-173.9731 11.211-27.686033-18.304-30.317-29.745-2.288-14.873 36.438-42.73 104.7081-73.5624 184.2811-22.652 5.554-46.6761 11.903-71.7881 19.157-18.24802 5.268-18.9907 10.13-11.0967 21.073 4.347 6.093 13.3278 5.479 17.4458 9.821 10.64 11.252 17.1039 24.711 36.1509 26.748-16.989 45.446-33.9778 92.312-49.36477 137.438-9.666998 28.326 17.84667 34.12 28.42967 4.146 17.046-48.318 35.0074-97.22 53.4834-145.978 15.3872-3.576 52.6252-11.596 87.0032-19.055-27.285 74.785-45.247 131.581-52.053 159.227-1.258 5.319.857 8.271 2.001 10.439 9.209 13.402 17.962 13.951 29.803 30.522 3.204 4.519 13.958 6.956 17.618-4.17 25.283-76.37 51.31-148.026 75.563-212.264 10.067-2.202 28.2-6.578 39.297-23.138 19.734-29.391 25.397-23.43 30.146-32.365 5.949-11.217 2.001-21.748-19.048-19.146 0 0-7.951.566-22.652 2.242 23.338-60.09 43.759-111.0571 58.46-149.8961 5.036-13.153 5.665-22.76303-2.515-24.708033z"/><path d="m300.103 389.96c5.434 13.734 22.423 9.575 15.959-7.001-6.579-16.887-22.938-67.722-27.229-84.099-5.834-22.068 19.449-16.033 6.636-1.606-10.982 12.406-18.305 17.377-38.611 40.967-19.62 22.772-14.3 52.323 6.693 58.85 23.681 7.367 44.56-18.728 57.487-37.873 12.527-18.539.4-29.413-12.241-18.453-8.123 7.047-17.504 17.869-27 23.704-7.722 4.696-13.786-.349-3.489-14.523 11.955-16.411 25.34-30.162 35.293-45.67 20.307-31.604-19.849-49.822-37.124-29.293-9.267 10.943-6.921 21.686-4.404 30.906 4.062 14.769 19.163 61.915 28.03 84.091z"/></g></svg>