<svg fill="none" height="856" viewBox="0 0 2429 856" width="2429" xmlns="http://www.w3.org/2000/svg"><g clip-rule="evenodd" fill="#fff" fill-rule="evenodd"><path d="m2427.89.283203h-2426.47154v855.433797h2426.47154zm-1331.06 39.043397c-601.425 20.1132-1070.7301 187.3734-1070.7301 390.7354 0 216.92 533.9781 392.764 1192.6701 392.764 658.7 0 1192.66-175.844 1192.66-392.764 0-54.23-33.37-105.892-93.72-152.882-181.05-140.969-604.91-239.8811-1098.94-239.8811-41.17 0-81.85.6869-121.94 2.0277z"/><path d="m351.706 268.135h212.004s-5.655 8.897-5.655 20.012v272.923c0 14.824 6.355 27.431 6.355 27.431h-213.405s6.356-12.62 6.356-25.226v-272.91c0-10.376-5.655-22.23-5.655-22.23zm317.551.726h201.59s-5.655 9.494-5.655 18.274v97.922l71.437-91.346s4.254-6.575 4.254-13.151v-10.233h205.117l-87 121.306s-4.24 5.11-4.24 8.767c0 3.658 3.54 8.768 3.54 8.768l111.76 177.569h-246.881s4.255-6.563 4.255-13.151c0-6.563-4.255-14.617-4.255-14.617l-58.714-95.73v103.784c0 8.768 6.368 20.44 6.368 20.44h-201.576s5.655-8.028 5.655-16.796v-283.545c0-8.754-5.655-18.261-5.655-18.261zm560.843 2.218h360.59v96.858s-7.78-7.172-17.65-7.172h-147.79v26.536h128.69v85.38s-8.48-7.172-17.68-7.172h-112.42v29.415h151.3c8.49 0 13.45-13.631 13.45-13.631v106.17h-358.49s6.38-9.325 6.38-15.784v-276.917c.01-11.491-6.38-23.683-6.38-23.683zm520.14-3.476h288.31s-5.65 13.346-5.65 20.765c0 7.418 4.94 20.764 4.94 20.764l115.18 278.85h-216.23s4.94-8.158 2.1-14.824c-5.95-14.81-11.83-29.647-17.65-44.513h-89.04s-17.67 39.312-17.67 46.743c0 7.393 5.68 13.346 5.68 13.346h-178.1l111.65-291.469s4.26-5.94 4.26-13.346-7.78-16.316-7.78-16.316zm122.25 142.395-21.21 57.106h46.64z"/></g></svg>