<svg fill="none" height="534" viewBox="0 0 804 534" width="804" xmlns="http://www.w3.org/2000/svg" xmlns:xlink="http://www.w3.org/1999/xlink"><clipPath id="a"><path d="m0 0h804v534h-804z"/></clipPath><g clip-path="url(#a)" fill="#fff"><path clip-rule="evenodd" d="m596.037 42.6662c-59.737-28.8927-123.308-42.331768-185.704-42.331768l.016-.001104c-62.346 0-125.934 13.439072-185.682 42.332872-21.094 50.5082-30.699 102.5068-30.699 153.2508 0 50.602 9.483 102.015 30.578 152.992 60.035 29.033 123.363 42.344 185.803 42.344 62.473 0 125.829-13.311 185.798-42.344 21.093-50.982 30.602-102.392 30.602-152.992 0-50.745-9.633-102.7415-30.712-153.2508zm-385.401 153.2518c0 49.609 9.551 97.118 26.989 140.829 51.898 24.355 111.037 38.001 172.705 38.001 61.701 0 120.845-13.646 172.74-38.001 17.46-43.712 26.982-91.222 26.982-140.829 0-49.724-9.578-97.2896-27.092-141.1036-51.865-24.3201-110.985-37.9595-172.63-37.9595-61.624 0-120.706 13.6388-172.608 37.9595-17.522 43.8168-27.086 91.3806-27.086 141.1036z" fill-rule="evenodd"/><path d="m573.182 327.617c-10.908-17.956-25.562-32.457-25.72-32.595-.179-.09-3.048-.98-3.048-.98-31.098-9.557-51.482-16.742-60.493-21.41-12.398-6.44-25.424-22.072-26.858-23.831-14.536-1.096-26.561-.862-38.132.538l-7.371.958c-14.053 1.814-28.561 3.731-42.78 1.449-9.467-1.552-18.659-4.565-28.402-7.737-15.012-4.916-30.389-9.964-47.959-9.936h-.703l.303.62c3.993 7.765 19.763 31.327 39.511 37.801 4.358 1.048 7.509 2.207 8.875 3.276 0 .048 7.558 15.425 9.62 19.583-12.288-5.578-50.296-24.906-80.959-62.219v-.055c0-.497-.793-7.758-.958-9.344 18.259-6.813 59.378-10.764 64.012-11.205l.338-.028.145-.372c2.454-21.631 7.578-38.939 17.177-57.895.275-.572.441-1.096.441-1.551-.005-.327-.085-.648-.234-.938-.538-1.021-1.856-1.22-1.911-1.22 0 0-26.547-4.634-27.982-4.882-1.003-3.084-2.009-6.166-3.02-9.247 20.169-7.502 45.035-14.522 59.268-17.611 2.407-3.841 3.083-5.93 3.083-8.44 0-2.131-1.028-3.944-3.083-5.337-10.088-6.8407-41.863-2.724-74.008 9.605-.069-.131-.069-.159-.165-.297 6.675-4.992 18.604-12.412 27.45-16.5216l.345-.193-.103-.331c-2.4-8.1301-18.1-14.3493-19.866-14.9837.035-.2758.062-.4617.09-.6757 15.963-1.0895 26.555 6.378 29.788 11.7014l.166.262.317-.1032c2.048-.6619 9.261-2.9512 17.067-3.8752l.455-.021-.124-.4761c-2.566-13.674-15.618-22.8037-20.066-25.5547.124-.2206.165-.3034.289-.4617 15.412 1.1926 29.651 14.4668 32.857 25.6855l.09.3034.317.0275c4.138.1446 9.157.6068 12.516 1.1723l.345.0551.124-.2896c1.255-2.9446 1.868-6.089 1.868-9.3227 0-10.1016-5.709-20.9347-12.729-27.7817.138-.1931.2-.3723.38-.5378 20.245 7.6816 25.396 22.2724 25.396 35.8566 0 9.5091-2.524 18.5629-4.151 24.3339l-.683 2.392s29.816-3.599 31.83-3.84c-3.034 3.84-9.571 10.681-22.624 17.887 0-.069-13.454-1.717-13.454-1.717l-.351-.056-.118.345c-.903 2.779-8.777 27.658-8.819 45.945 0 6.779 1.917 12.04 5.703 15.667 6.743 6.488 17.914 6.847 25.72 6.543 33.188-1.213 59.086.828 77.058 6.145l1.062.289.166-.248c1.117-1.717 1.993-4.903 1.993-9.123 0-8.013-3.207-19.956-13.991-33.464.117-.096.117-.165.255-.268 1.786.985 30.899 17.521 34.788 42.483-.683.262-13.95 5.675-13.95 5.675l.427.434c12.302 12.881 16.549 28.444 19.956 40.904 2.71 9.874 5.944 16.184 10.233 19.887 4.972 4.289 23.81 13.28 29.464 15.921 4.703 6.682 12.784 19.204 18.645 28.899v-.02c12.73-37.773 19.239-77.147 19.239-117.345 0-45.434-8.289-89.796-24.493-131.9852-50.164-22.6515-106.329-34.6916-162.728-34.6916-56.405 0-112.507 12.0396-162.684 34.6916-16.225 42.1942-24.507 86.5522-24.507 131.9852 0 45.324 8.268 89.587 24.41 131.759 50.185 22.687 106.351 34.671 162.783 34.671 56.461 0 112.623-11.984 162.801-34.671l.068-.061z"/><path d="m.910645 514.209s9.830755 3.512 20.838155 3.512c11.7147 0 19.0311-1.602 23.1182-5.726 3.3871-3.394 4.7391-9.071 4.5527-17.44v-55.688h17.3413v58.099c-.2537 25.723-12.7627 36.701-41.8628 36.701-14.1303 0-23.986452-2.229-23.986452-2.229zm120.505355 4.226c-10.116 0-27.1386-3.131-27.1386-24.02 0-14.981 9.8966-23.58 27.1386-23.58s27.11 8.599 27.11 23.58c0 20.89-16.971 24.02-27.11 24.02zm-44.4176-23.224c0 17.729 11.6379 38.45 44.4176 38.45 32.795 0 44.437-20.721 44.437-38.45 0-24.811-16.612-39.642-44.437-39.642-27.8056 0-44.4176 14.83-44.4176 39.642zm161.4536-37.87v29.668h-45.037v-29.668h-17.308v74.581h17.308v-29.664h45.037v29.664h17.298v-74.581z"/><path d="m503.184 516.658v-14.397h39.928v-15.252h-39.928v-14.398h51.617v-15.27h-68.916v74.582h68.916v-15.267z"/><path d="m424.046 438.778c33.154 0 52.977 17.693 52.977 47.244 0 21.197-13.881 45.903-52.977 45.903h-41.852v-93.145zm-24.478 15.404v62.38h24.478c13.28 0 35.558-4.094 35.558-31.483 0-19.654-12.957-30.896-35.558-30.896zm297.126 35.231c3.589 0 9.578-1.133 9.578-8.507 0-5.286-3.486-8.295-9.578-8.295h-31.621v16.762zm29.558 42.512h-20.926l-20.867-27.297h-20.325v27.297h-17.308v-74.582h48.93c16.847 0 26.883 8.955 26.883 23.935 0 8.98-5.011 19.071-18.141 22.22zm-394.098-.003-45.015-50.839v50.839h-17.298v-74.581h17.162l45.15 50.333v-50.333h17.327v74.581z"/><path d="m583.663 516.658v-14.397h39.928v-15.252h-39.928v-14.398h51.617v-15.27h-68.916v74.582h68.916v-15.267z"/><path d="m751.472 516.658v-14.397h39.928v-15.252h-39.928v-14.398h51.617v-15.27h-68.916v74.582h68.916v-15.267z"/></g></svg>