<svg fill="none" height="19" viewBox="0 0 100 19" width="100" xmlns="http://www.w3.org/2000/svg" xmlns:xlink="http://www.w3.org/1999/xlink"><clipPath id="a"><path d="m0 0h100v19h-100z"/></clipPath><g clip-path="url(#a)"><path clip-rule="evenodd" d="m90.0952 3.02286c-1.4889 0-6.0796.52571-6.0796 6.44003 0 6.30861 4.9629 6.57141 5.9555 6.57141.6204 0 2.8537-.1314 4.3426-1.7085 1.1167-1.1829 1.613-2.76 1.613-4.86293.124-6.04574-4.3426-6.44001-5.8315-6.44001zm1.8611 10.51434c-.3722.2629-.8685.6571-1.737.6571h-.1241c-.8685 0-1.3648-.3942-1.737-.6571-.8685-.7886-1.2408-2.2343-1.2408-4.33716 0-3.94288 1.8611-4.60002 2.9778-4.60002h.1241c1.1166 0 2.9778.65714 2.9778 4.60002 0 2.10286-.3723 3.54856-1.2408 4.33716zm-73.5758 4.4686c-1.1167-.3943-2.7296-1.7086-3.5981-2.8915-1.1167-1.4457-3.9704-5.38857-3.9704-5.38857-.4963-.52571-.86849-1.18287-1.3648-1.84001-1.24074-1.84001-2.60554-3.81145-4.09443-4.99432v13.1429h1.73704v-6.8343l1.48889 1.9714c.74443 1.0515 1.613 2.2343 2.2333 3.0229.4963.5257 1.613 1.9715 1.9852 2.2343 1.613 1.5772 4.0944 2.4972 6.5759 2.4972 1.1167 0 2.1093-.1315 3.1019-.5257v-.1315c-.3722.1315-.8685.1315-1.2408.1315-.8685.2628-1.8611 0-2.8537-.3943zm-10.67033-14.06294c1.11667 1.44573 4.09443 5.3886 4.09443 5.3886.3722.52571.8685 1.18284 1.2407 1.84004 1.2408 1.84 2.6056 3.8114 4.0945 4.9943v-13.14294h-1.7371v6.83433l-1.4888-1.97143c-.7445-1.18288-1.4889-2.2343-2.2334-3.02289-.3722-.65714-1.73701-1.97144-2.10922-2.36572-1.48889-1.577154-4.09444-2.49715-6.57592-2.49715-.9926 0-1.98518.131428-2.9777819.525712v.131428c.3722179-.131428.8685089-.131428 1.2407419-.131428.9926 0 1.86111.262856 2.85371.525708 1.11667.39429 2.72963 1.70857 3.59814 2.89144zm65.63503 5.78289c-1.3648-1.3143-2.9777-1.57716-4.0944-2.36573-.8685-.65714-.7444-1.57715-.3722-2.10286.9926-1.3143 3.1018-.78857 3.5981-.65714.6204.13143.8685.26285 1.4889.65714v-1.44573c-2.4815-.78857-6.3278-1.44573-7.8166 1.18287-.6204 1.05144-.7445 2.89146.8685 4.07431 1.6129 1.31429 4.4666 1.97139 4.7148 3.15429.2481.6572 0 1.1829-.3722 1.5772-1.4889 1.4457-3.8463.5257-5.3352-.1315v1.5772c1.613.7886 3.7222.92 5.4592.5257 1.2408-.2628 2.6056-1.4457 2.8538-2.8914.2481-1.4458-.1241-2.3658-.9927-3.15435zm8.9334 0c-1.3649-1.3143-2.9778-1.57716-4.0945-2.36573-.8685-.65714-.7444-1.57715-.3722-2.10286.9926-1.18287 2.9778-.65714 3.4741-.52571.6203.13142.8685.26285 1.4889.65714v-1.57716c-2.4815-.78857-6.3278-1.44573-7.8167 1.18287-.4963 1.05144-.6203 2.89146.9926 4.07431 1.613 1.31429 4.4667 1.97139 4.7148 3.15429.2482.6572 0 1.1829-.3722 1.5772-1.4889 1.4457-3.8463.5257-5.3352-.1315v1.5772c1.613.7886 3.5982.92 5.4593.5257 1.2407-.2628 2.6055-1.4457 2.8537-2.8914.2481-1.4458-.1241-2.3658-.9926-3.15435zm-25.063 6.04575h7.8167v-1.5772h-5.087v-4.0743h4.0944v-1.4457h-4.0944v-3.81144h5.087v-1.44573h-7.8167zm-22.3333-6.04575c-1.3648-1.3143-2.9777-1.57716-4.0944-2.36573-.8685-.65714-.7444-1.57715-.3722-2.10286.9926-1.18287 2.9778-.65714 3.4741-.52571.6203.13142.8685.26285 1.4888.65714v-1.57716c-2.4814-.78857-6.3277-1.44573-7.8166 1.18287-.4963 1.05144-.7444 2.89146.9926 4.07431 1.613 1.31429 4.4667 1.97139 4.7148 3.15429.2482.6572 0 1.1829-.3722 1.5772-1.4889 1.4457-3.8463.5257-5.3352-.1315v1.5772c1.613.7886 3.7222.92 5.4593.5257 1.2407-.2628 2.6055-1.4457 2.8537-2.8914.124-1.4458-.1241-2.3658-.9927-3.15435zm-16.1296 6.04575h7.8167v-1.5772h-5.087v-4.0743h4.0944v-1.4457h-4.0944v-3.81144h5.087v-1.44573h-7.8167zm23.45-12.48578h-5.087v12.61718h2.6055v-4.6s4.0944.2629 5.3352-1.44571c.8685-1.05144.9926-2.89145.6203-4.20573-.6203-1.70858-1.9851-2.36574-3.474-2.36574zm.4963 5.65146c-.7444.78857-1.9852.78857-2.9778.65714v-4.73145s2.2333-.52571 3.1019.78857c.4963.65714.4963 2.36572-.1241 3.28574zm11.9111.78857c.8685-1.05145.9926-2.76001.6203-4.20574-.4962-1.44572-1.8611-2.23429-3.35-2.23429h-5.087v12.48578h2.6056v-4.6h1.2407l2.7296 4.6h2.9778l-2.9778-5.1257c.3723-.2629.9926-.5258 1.2408-.92005zm-2.1093-.78857c-.7444.78857-1.9852.65714-2.9778.65714v-4.60002s2.1093-.52571 3.1019.78857c.3722.65714.4963 2.23429-.1241 3.15431zm45.1629 4.07432c-.8685 0-1.4889.6571-1.4889 1.5771 0 .9201.7445 1.5772 1.4889 1.5772s1.4889-.6571 1.4889-1.5772c0-.92-.7444-1.5771-1.4889-1.5771zm0 2.8914c-.7444 0-1.3648-.6571-1.3648-1.4457s.6204-1.4457 1.3648-1.4457 1.3648.6571 1.3648 1.4457c-.1241.92-.7444 1.4457-1.3648 1.4457zm.3722-1.3143s.2482-.1314.2482-.3942c0-.2629-.2482-.5258-.4963-.5258h-.7445v1.7086h.2482v-.6571h.4963c.2481 0 .3722.1314.3722.3943v.2628h.2481c-.124-.1314-.124-.2628-.124-.5257 0-.2628-.1241-.2629-.2482-.2629zm-.3722-.1314h-.4963v-.5257h.4963c.1241 0 .2481 0 .2481.2629.1241.1314 0 .2628-.2481.2628z" fill="#fff" fill-rule="evenodd"/></g></svg>