<svg fill="none" height="80" viewBox="0 0 321 80" width="321" xmlns="http://www.w3.org/2000/svg" xmlns:xlink="http://www.w3.org/1999/xlink"><clipPath id="a"><path d="m0 0h321v80h-321z"/></clipPath><g clip-path="url(#a)" fill="#fff"><path d="m109.6 41.1v13h-5.4v-33.1h12.9c7.7 0 11.8 3.9 11.8 10.1s-4.1 10.1-11.8 10.1h-7.5zm0-15.1v10h7.4c4.3 0 6.3-1.6 6.3-5s-2-5-6.3-5z"/><path d="m153.4 54.1h-5v-2.7c-1.6 2-3.9 3.3-7.1 3.3-6.3 0-11.3-5-11.3-11.9s5-11.9 11.3-11.9c3.2 0 5.6 1.3 7.1 3.3v-2.7h5zm-18.4-11.3c0 4 2.6 7.3 6.8 7.3 4.1 0 6.8-3.1 6.8-7.3 0-4.1-2.7-7.3-6.8-7.3-4.2 0-6.8 3.3-6.8 7.3z"/><path d="m179.9 39.9v14.3h-5v-12.7c0-3.8-2-5.9-5.3-5.9-3.2 0-5.9 2.1-5.9 6v12.6h-5v-22.7h4.9v2.8c1.8-2.7 4.6-3.4 7-3.4 5.5 0 9.3 3.7 9.3 9z"/><path d="m201.5 34.2v-14.2h5v34.1h-5v-2.7c-1.6 2-3.9 3.3-7.1 3.3-6.3 0-11.3-5-11.3-11.9s5-11.9 11.3-11.9c3.2 0 5.6 1.3 7.1 3.3zm-13.4 8.6c0 4 2.6 7.3 6.8 7.3 4.1 0 6.8-3.1 6.8-7.3 0-4.1-2.7-7.3-6.8-7.3-4.2 0-6.8 3.3-6.8 7.3z"/><path d="m233.7 54.1h-5v-2.7c-1.6 2-3.9 3.3-7.1 3.3-6.3 0-11.3-5-11.3-11.9s5-11.9 11.3-11.9c3.2 0 5.6 1.3 7.1 3.3v-2.7h5zm-18.4-11.3c0 4 2.6 7.3 6.8 7.3 4.1 0 6.8-3.1 6.8-7.3 0-4.1-2.7-7.3-6.8-7.3-4.2 0-6.8 3.3-6.8 7.3z"/><path d="m252.5 21c10.4 0 17.2 6.6 17.2 16.6s-6.8 16.6-17.2 16.6h-13.2v-33.2zm-7.8 5.1v23h7.8c7.8 0 11.6-4.8 11.6-11.5 0-6.8-3.8-11.5-11.6-11.5z"/><path d="m296.7 42.8c0 6.8-5.2 11.9-12.2 11.9s-12.2-5.1-12.2-11.9 5.2-11.9 12.2-11.9 12.2 5.1 12.2 11.9zm-19.3 0c0 4.3 3.1 7.3 7.1 7.3 4.1 0 7.1-3 7.1-7.3s-3.1-7.3-7.1-7.3-7.1 3-7.1 7.3z"/><path d="m320 34.5-3.2 3.4c-1.6-1.5-3.3-2.3-5.4-2.3-3.8 0-6.7 3-6.7 7.3s2.9 7.3 6.7 7.3c2.2 0 4.1-1 5.6-2.4l3.1 3.4c-2.1 2.4-5.1 3.6-8.5 3.6-7.2 0-11.9-5.1-11.9-11.9s4.7-11.9 11.9-11.9c3.3-.1 6.4 1.1 8.4 3.5z"/><path clip-rule="evenodd" d="m0 0h80v80h-80zm58.5 29.5v-11.8h5.2999v22.2c0 7.3-5.1999 12.8-12.5999 12.8-7.948 0-10.7337-5.9409-13.3131-11.4419-2.2238-4.7425-4.2942-9.1581-9.3869-9.1581-4.4 0-7.3 3.4-7.3 7.8s2.8 7.7 7.0999 7.8c2.3 0 4.1-.9 5.8-2.5l3.4001 3.6c-2.2001 2.6-5.5 3.9-9.1 3.9-2.8001 0-5-.9-6.7-2.3l-.2.1v11.9h-5.3v-22.3c0-7.3 5.2-12.8 12.5999-12.8 7.948 0 10.7337 5.9409 13.3131 11.442 2.2238 4.7425 4.2942 9.158 9.387 9.158 4.4 0 7.2999-3.4 7.2999-7.8s-2.7999-7.7-7.0999-7.8c-2.3 0-4.1.9-5.8 2.5l-3.4-3.6c2.2-2.6 5.4999-3.9 9.0999-3.9 2.8 0 5 .9 6.7 2.3z" fill-rule="evenodd"/></g></svg>