<svg fill="none" height="40" viewBox="0 0 203 40" width="203" xmlns="http://www.w3.org/2000/svg" xmlns:xlink="http://www.w3.org/1999/xlink"><clipPath id="a"><path d="m0 0h203v40h-203z"/></clipPath><g clip-path="url(#a)" fill="#fff"><path clip-rule="evenodd" d="m.600098 1.3-.5-1.3h6.800002c6.2 0 12.2 2.6 16.6 7l32.8 33h-41l-12.4-32.69998c1.77325 3.03428 4.68004 4.99698 7.6312 6.98978 4.5381 3.0643 9.1811 6.1995 9.9688 13.4102.1.5.4.9.9 1 6.8 1.1 13.4 3.9 19.2 8.5h.1c.1 0 .1 0 .1-.1.1-.1.1-.2 0-.3-4-4.2-8.8-7.5-14.3-9.7l-1.7-.7c-.9-.3-1.4-1.2-1.4-2.2.0597-2.1504 3.081-2.7308 5.6963-3.2333 1.7629-.3387 3.3413-.6419 3.7037-1.3667l.1-.3c-1.7-1.5-3.8-2.6-6.1-3.2 0 .0107-.0011.0248-.0026.0425-.0119.1476-.0439.5431.4026 1.2575.5.8-.5 2.1-2.1.7h-.1c-5.0851-4.639-9.5931-6.1343-13.4266-7.4058-4.46536-1.48119-8.01535-2.65872-10.49563-8.14783z" fill-rule="evenodd"/><path d="m60.5002 32.7c-8.1 0-13.3-4.2-13.3-9.5 0-5.4 5.5-9.5 13.5-9.5s13.5 4.1 13.5 9.3c0 2.3-1 4.2-3 5.8h4.8l-1.1 2c-.7 1.2-1.6 2-3.5 2h-10.9zm.2-4.4c4.4 0 8.2-2.2 8.2-5.2s-3.7-5.2-8.2-5.2c-4.4 0-8.2 2.2-8.2 5.2.1 3.1 3.8 5.2 8.2 5.2z"/><path d="m95.9 29.4h-12.7l-1.8 3.2h-5.4l8.9-15.3c.7-1.2 1.7-2.1 3.7-2.1h2c2 0 3 .9 3.7 2.1l8.9 15.3h-5.4zm-10.6-3.8h8.4l-3.9-7c-.1-.2-.2-.2-.3-.2s-.2 0-.3.2z"/><path d="m128.3 15.2v17.5h-4.7l-13.9-11.6v11.6h-4.7v-17.5h3c1.5 0 2.3.4 3.1 1.1l12.5 10.4v-11.5z"/><path d="m145.2 19.1v13.6h-4.8v-13.6h-9.7v-3.9h24.2v3.9z"/><path d="m170.6 29.4h-12.8l-1.8 3.2h-5.3l8.9-15.3c.7-1.2 1.7-2.1 3.7-2.1h2c2 0 3 .9 3.7 2.1l8.9 15.3h-5.4zm-10.6-3.8h8.4l-3.9-7c-.1-.2-.2-.2-.3-.2s-.2 0-.3.2z"/><path d="m179.5 31.4-.4-.1 1.2-3.8c3.4 1.1 7 1.5 10.3 1.5 5.4 0 6.7-.6 6.7-1.3 0-.3-.2-.5-.6-.6-.5-.2-2-.5-6.4-1.2-4.9-.8-7.1-1.2-8.7-1.9s-2.6-1.9-2.6-3.7c0-1.3.7-2.4 1.7-3.2 1.9-1.4 5.1-2 8.5-2 4.5 0 8.2.4 12.4 1.4l.4.1-1 3.7c-4.7-1-7.2-1.3-10.8-1.3-2.5 0-4.2.2-5.1.4-.5.2-.7.4-.7.7s.2.5.7.7c.6.2 1.5.4 6.2 1.2 5.2.8 6.9 1.2 8.3 1.7 1.9.7 3.1 2.1 3.1 3.8 0 2.2-1.7 3.8-4.6 4.7-1.8.5-4.2.8-6.9.8-4.3-.1-8.8-.7-11.7-1.6z"/></g></svg>