<svg fill="none" height="276" viewBox="0 0 925 276" width="925" xmlns="http://www.w3.org/2000/svg" xmlns:xlink="http://www.w3.org/1999/xlink"><clipPath id="a"><path d="m.662109 0h924v276h-924z"/></clipPath><g clip-path="url(#a)" fill="#fff"><path d="m230.225 275.349 513.253-44.485h-557.739z"/><path d="m833.005 202.504v-88.971c0-16.6821 11.677-30.5839 28.36-30.5839 16.682 0 28.359 13.9018 28.359 30.5839v88.971h34.477v-88.971c0-36.7007-25.024-66.1724-61.724-66.1724-16.682 0-29.472 9.4532-29.472 9.4532v-6.1168h-34.476v151.251h34.476z"/><path d="m719.011 46.8044c-40.037 0-68.397 35.0325-68.397 79.5186 0 46.709 35.588 79.518 71.733 79.518 18.35 0 41.149-6.117 60.612-33.921l-30.584-17.794c-23.355 34.476-62.836 17.238-67.285-17.794h98.981c8.897-53.383-26.135-89.5276-65.06-89.5276zm30.027 60.0556h-61.723c7.229-35.0324 55.051-37.2567 61.723 0z"/><path d="m639.493 166.36c-3.337 2.224-7.229 3.892-11.678 3.892-5.561 0-16.126-4.448-16.126-18.35v-65.0604h29.472v-36.1445h-29.472v-37.8128h-34.476v37.8128h-18.351v36.1445h18.351v65.0604c0 33.92 25.579 53.939 51.158 53.939 9.453 0 22.799-3.337 33.364-9.453z"/><path d="m512.708 50.697v88.971c0 16.682-11.677 30.584-28.359 30.584s-28.36-13.902-28.36-30.584v-88.971h-34.476v88.971c0 36.701 25.023 66.173 61.724 66.173 16.682 0 29.471-9.454 29.471-9.454v5.561h34.477v-151.251z"/><path d="m368.13 50.697-41.705 52.827v-102.873365h-35.033v201.853365h35.033v-62.28l51.158 62.28h47.822l-68.396-80.63 58.943-71.177z"/><path d="m237.454 50.6969v6.6729c-10.566-6.6729-19.463-10.5654-32.252-10.5654-38.925 0-68.953 35.5886-68.953 79.5186 0 43.929 29.472 79.518 68.953 79.518 12.789 0 22.242-3.893 32.252-10.566v6.673h34.476v-151.2511zm-32.809 118.9991c-19.462 0-33.364-18.906-33.364-42.817s13.902-42.8178 33.364-42.8178c19.463 0 32.809 18.9068 32.809 42.8178.556 23.911-13.346 42.817-32.809 42.817z"/><path d="m37.2682 202.504v-58.943h25.0232l43.9296 58.387h45.042l-53.3831-70.621c16.6821-11.677 27.2471-31.14 27.2471-53.3825 0-36.1446-29.4714-65.0602-65.0599-65.0602h-58.94344v189.0637h36.14454zm0-153.4751h23.355c16.126 0 29.4717 13.3456 29.4717 29.4717 0 16.126-13.3457 29.4714-29.4717 29.4714h-23.355z"/></g></svg>