<svg fill="none" height="147" viewBox="0 0 607 147" width="607" xmlns="http://www.w3.org/2000/svg" xmlns:xlink="http://www.w3.org/1999/xlink"><clipPath id="a"><path d="m0 0h606.194v147h-606.194z"/></clipPath><g clip-path="url(#a)"><path d="m492.185 60.9735v47.9335c-1.221 18.996-29.15 18.996-30.371 0v-47.9335h-26.416v53.1255c0 17.941 18.604 32.487 41.504 32.487s41.504-14.546 41.504-32.487v-53.1255zm85.904-56.97496v139.50046h26.563v-139.50046zm-45.1 139.50046h26.563v-139.50046h-26.563zm-130.096-72.563c7.359-6.6041 11.6-15.9958 11.721-25.875-.016-8.9083-3.45-17.4625-9.591-23.9125-6.25-6.9666-17.559-10.875-32.717-10.875h-45.437v133.2255h58.691c22.463-.346 40.625-17.338 40.625-38.155-.033-15.1496-5.371-25.9788-23.292-34.408zm-22.254 49.354h-25.416v-87.0456h17.708c7.954.3708 14.204 6.9791 14.121 14.9416 0 7.7959-6.329 14.1084-14.121 14.0917h-9.217v23.9417h16.925c22.804 0 22.804 34.1836 0 34.1836zm-288.0202-70.5748c-.0958-10.5167-4.3708-20.5708-11.8958-27.9458-7.5-7.3709-17.6458-11.4584-28.1708-11.3584h-48.61665v133.088h28.26665v-110.2546h14.6375c9.925-.3417 18.2125 7.5166 18.375 17.45-.4375 9.9375-8.7917 17.7083-18.75 17.3916h-6.5625v31.8542l28.125 43.5588h33.1248l-39.0623-55.5838c17.7916-4.1375 30.4166-19.9375 30.5291-38.2zm49.4372 7.8125c-24.112.65-43.3122 20.375-43.3122 44.4793 0 24.125 19.2002 43.846 43.3122 44.504 18.534 0 32.975-8.387 40.446-21.5l-21.6-9.983c-3.125 6.321-9.625 10.254-16.654 10.091-9.621.421-17.738-7.058-18.096-16.683v-.912h58.558c.18-1.775.259-3.542.242-5.338.413-28.875-18.612-44.6583-42.896-44.6583zm-16 34.8458c-.408-9.2458 6.984-16.9583 16.242-16.9583 9.242 0 16.629 7.7125 16.229 16.9583zm164.533 51.1255v-139.50046h-26.595v66.02496c-7.067-7.1291-16.688-11.1583-26.725-11.2125-21.875 0-39.746 19.4709-39.746 43.471 0 23.992 17.817 43.654 39.746 43.654 10.141-.083 19.808-4.25 26.85-11.525v9.375zm-45.783-20.384c-10.741 0-19.5-9.554-19.5-21.337 0-11.7795 8.759-21.467 19.5-21.467 10.758 0 19.529 9.5709 19.529 21.371 0 11.817-8.737 21.433-19.529 21.433z" fill="#fff"/></g></svg>