<svg fill="none" height="942" viewBox="0 0 2501 942" width="2501" xmlns="http://www.w3.org/2000/svg" xmlns:xlink="http://www.w3.org/1999/xlink"><clipPath id="a"><path d="m.662109 0h2500v942h-2500z"/></clipPath><g clip-path="url(#a)" fill="#fff"><path d="m912.806 306.573c30.651 464.736-459.004 400.925-459.004 400.925 336.278 4.759 478.09-632.5325-67.526-699.39438 28.18-5.28567 56.77-7.994928 85.424-8.10362 202.394 0 374.466 127.685 441.106 306.573z"/><path d="m703.747 498.052s115.648-486.6876-404.915-464.9491c-174.56 68.8341-298.131316 238.3781-298.131316 437.0761.161025 21.396 1.779336 42.752 4.842846 63.935 109.55347-550.6272 733.68947-372.299 698.20747-36.058z"/><path d="m31.9276 641.526c-7.5159-532.057 481.2854-395.789 481.2854-395.789-335.505-48.843-543.9727 563.356 4.469 693.928-15.25 1.498-30.716 2.335-46.376 2.335-.402 0-.797-.032-1.187-.064-.391-.029-.785-.061-1.18-.061-20.772-.241-41.504-1.852-62.067-4.814-6.057-.818-12.099-1.742-18.124-2.77-19.814-3.341-39.395-7.971-58.613-13.836-2.254-.705-4.42-1.542-6.59-2.375l-.024-.012-.04-.017c-1.667-.644-3.33-1.288-5.032-1.863-16.034-5.498-31.754-11.868-47.092-19.082l-3.535-1.658c-4.108-1.899-8.181-3.872-12.218-5.918-17.824-9.076-35.049-19.285-51.568-30.563-1.309-.906-2.577-1.88-3.841-2.858l-.064-.04-.02-.02c-1.059-.806-2.122-1.623-3.213-2.4-15.615-11.193-30.532-23.328-44.668-36.339-.825-.765-1.663-1.518-2.496-2.267l-.145-.128-.012-.009-.068-.064c-1.228-1.103-2.456-2.202-3.664-3.341-49.9635-47.631-88.8527-105.657-113.9174-169.975z"/><path d="m635.769 910.519c-525-4.186-394.013-485.955-394.013-485.955-53.549 334.056 560.059 547.552 698.758 2.484 1.289 14.239 2.186 28.61 2.186 43.179 0 1.779-.12 3.531-.249 5.274v.06c-.121 1.558-.23 3.116-.254 4.69-.282 12.789-.664 25.555-1.932 38.07-18.397 180.929-139.77 331.005-304.5 392.219z"/><path d="m603.601 470.227c0 26.046-7.742 51.516-22.238 73.174-14.509 21.669-35.116 38.55-59.217 48.509-24.113 9.964-50.635 12.569-76.226 7.488-25.584-5.082-49.09-17.629-67.55-36.058-18.448-18.403-31.012-41.873-36.099-67.429-5.087-25.557-2.466-52.048 7.529-76.113 10.003-24.072 26.919-44.638 48.61-59.097 21.71-14.466 47.218-22.18 73.307-22.169 34.97.003 68.512 13.88 93.262 38.586 12.242 12.22 21.955 26.734 28.583 42.711s10.041 33.105 10.043 50.402z"/><path d="m1977.93 670.084h45.05v-420.494h-45.05zm-731.75-260.105v-45.055h-3.01c-18.82 0-34.83 3.205-48.04 9.614-32.03 14.814-52.86 37.841-62.46 69.08v-73.887h-45.05v300.353h45.05v-132.154c0-34.439 9.61-64.076 28.82-88.906 20.42-26.026 46.85-39.041 79.28-39.041z"/><path clip-rule="evenodd" d="m1424.48 634.039c40.44 0 69.47-16.815 87.08-50.454h49.25c-10.41 27.23-27.02 49.258-49.85 66.077-22.41 16.827-51.44 25.233-87.07 25.233-45.25 0-82.08-15.016-110.51-45.047-27.63-29.238-41.44-65.884-41.44-109.94 0-44.443 13.21-81.089 39.64-109.924 28.03-30.032 64.46-45.055 109.31-45.055 44.84 0 81.27 15.015 109.3 45.055 26.43 28.835 39.64 65.477 39.64 109.928v18.019h-251.64c3.2 27.632 14.21 50.457 33.03 68.476 19.22 18.425 43.64 27.636 73.27 27.636zm-3.6-228.266c-27.63 0-50.85 8.615-69.67 25.832-17.62 16.425-28.42 37.841-32.43 64.274h204.2c-4.01-26.429-14.81-47.857-32.43-64.274-18.82-17.221-42.04-25.832-69.67-25.832zm245.5 12.016c24.03-35.244 59.86-52.864 107.51-52.864 43.24 0 78.27 15.015 105.1 45.055 26.83 29.628 40.24 66.278 40.24 109.928s-13.41 80.291-40.24 109.928c-26.82 30.031-62.85 45.047-108.1 45.047s-80.07-17.818-104.5-53.461v167.604h-45.05v-419.295h45.04zm101.5-12.016c-32.43 0-58.05 11.215-76.87 33.642-18.02 21.223-27.02 48.054-27.02 80.493 0 32.434 9 59.265 27.02 80.492 18.82 22.423 44.44 33.639 76.87 33.639 32.04 0 58.07-11.208 78.09-33.635 18.81-21.227 28.22-48.058 28.22-80.496 0-32.447-9.41-59.274-28.22-80.497-20.02-22.423-46.05-33.642-78.08-33.642z" fill-rule="evenodd"/><path d="m2230.92 369.731h45.04v300.353h-45.04zm46.84-50.457v-58.871h-48.65v58.871zm108.75 350.81v-260.7h-61.26v-39.653h61.26v-107.525h45.05v107.525h69.06v39.653h-69.06v260.7zm-308.58-158.224h54.85v54.87h-54.85zm54.85 109.731v-54.869h54.86v54.869zm0 0v54.87h-54.85v-54.87z"/></g></svg>