<svg fill="none" height="148" viewBox="0 0 801 148" width="801" xmlns="http://www.w3.org/2000/svg" xmlns:xlink="http://www.w3.org/1999/xlink"><clipPath id="a"><path d="m.662109 0h800v148h-800z"/></clipPath><g clip-path="url(#a)"><path d="m97.1111 96.0107 23.0279 42.1453h-42.7271l-19.4432-36.017h-18.42v36.017h-38.886591v-127.6733h71.121491c29.4204 0 48.0994 16.3288 48.0994 45.6938 0 18.8957-8.699 32.4318-22.7719 39.8342zm-57.5624-52.3463v25.2794h27.6299c8.1867 0 13.3033-4.8516 13.3033-12.7673 0-7.9158-5.1166-12.5121-13.3033-12.5121zm204.1573 103.9296-116.404-31.408 31.212-116.186 58.201 15.7039 58.202 15.7038zm-22.002-85.5446-32.491-8.9371-8.698 32.4291 32.491 8.9399zm186.505 40.0896c0 24.513-15.606 36.017-39.91 36.017h-76.238v-127.6733h73.68c24.304 0 39.91 12.512 39.91 34.4719 0 13.7888-5.117 22.984-14.839 29.3677 11.001 4.8354 17.397 14.5413 17.397 27.8167zm-78.285-61.0146v18.8957h25.314c6.908 0 11.001-3.0642 11.001-9.7032 0-6.1283-4.093-9.1925-11.001-9.1925zm0 66.3906h28.398c6.651 0 10.502-3.575 10.502-9.7061 0-6.6364-3.837-9.7006-10.502-9.7006h-28.398zm97.473-97.0323h38.881v89.8713h55.771v37.802h-94.658zm237.671 63.8396c0 13.1307-3.901 25.9667-11.21 36.8847s-17.698 19.427-29.852 24.452-25.528 6.34-38.431 3.778-24.755-8.885-34.058-18.17c-9.302-9.285-15.638-21.114-18.204-33.9926-2.567-12.8785-1.249-26.2274 3.785-38.3586 5.035-12.1313 13.56-22.5 24.499-29.7951 10.938-7.2951 23.799-11.1888 36.954-11.1888 8.739-.01735 17.395 1.6876 25.473 5.017 8.077 3.3295 15.416 8.2179 21.596 14.3848 6.18 6.167 11.079 13.4911 14.416 21.5522 3.338 8.0612 5.047 16.7007 5.032 25.4229zm-38.887 0c0-15.8343-12.536-28.3463-27.63-28.3463s-27.632 12.512-27.632 28.3463c0 15.8342 12.538 28.3437 27.632 28.3437s27.63-12.5283 27.63-28.3572zm132.522-2.0455 41.959 65.8792h-46.319l-23.014-37.549-23.793 37.549h-47.073l43.747-64.3498-40.165-63.3235h46.305l21.234 34.4719 20.467-34.4719h46.05z" fill="#fff"/></g></svg>