<svg fill="none" height="92" viewBox="0 0 285 92" width="285" xmlns="http://www.w3.org/2000/svg" xmlns:xlink="http://www.w3.org/1999/xlink"><clipPath id="a"><path d="m0 0h285v92h-285z"/></clipPath><g clip-path="url(#a)" fill="#fff"><path d="m.866211 91.691 37.476989-.038c15.333 0 27.759-12.388 27.759-27.652 0-15.294-12.426-27.683-27.759-27.683l-9.733.053c-.767 0-1.389-.629-1.389-1.403s.622-1.404 1.389-1.404l37.409.008.015-11.736h-37.432c-7.237 0-13.125 5.879-13.125 13.102 0 7.23 5.887 13.086 13.125 13.086l9.779.129c8.785 0 15.894 7.085 15.894 15.826 0 8.747-7.108 15.848-15.894 15.848h-37.499989z"/><path d="m.881074 77.072h37.500026c7.26 0 13.132-5.856 13.132-13.094 0-7.23-5.872-13.079-13.132-13.079l-9.779-.106c-8.77 0-15.886-7.093-15.886-15.856 0-8.739 7.116-15.833 15.886-15.833l37.432-.008-.015-11.781h-37.409c-15.317 0-27.759026 12.374-27.759026 27.653s12.442026 27.66 27.759026 27.66l9.68.015c.736 0 1.358.6 1.358 1.358 0 .744-.622 1.343-1.358 1.343l-37.424025.03z"/><path d="m95.1582 79.902c-6.502 0-11.828-5.182-11.828-11.798v-37.438c0-6.365 5.326-11.6 11.828-11.6l40.0028.007v-11.758h-40.0028c-13.018 0-23.563 10.507-23.563 23.48v37.31c0 12.974 10.545 23.496 23.563 23.496l39.8358.016-.008-11.729z"/><path d="m86.1981 30.795c0-4.961 3.991-8.982 8.96-8.982h40.0029v11.774h-34.465c-2.7609 0-2.7989 2.739-2.7989 2.739h28.7529v11.721h-40.4659z"/><path d="m95.1581 77.05c-4.954 0-8.975-3.998-8.975-8.945v-17.267h40.4659v11.745h-28.7529c.038 2.761 2.7989 2.775 2.7989 2.775h34.298l-.008 11.676z"/><path d="m163.194 79.872c-6.479 0-11.774-5.28-11.774-11.768v-37.31c0-6.494 5.257-11.729 11.743-11.729h38.745v-11.75h-38.835c-13.012 0-23.557 10.507-23.557 23.48v37.31c0 12.974 10.636 23.496 23.647 23.496l38.745.016v-55.291h-33.297v11.721h21.53v31.825z"/><path d="m154.181 68.104c0 4.971 4.021 9.014 8.982 9.014h24.201v-26.295h-18.724v11.76h6.949l.022 2.761h-6.918c-1.51 0-2.746-1.251-2.746-2.761l-.062-26.265s-.008-2.731 2.777-2.799h33.259l-.015-11.714-38.745.008c-4.961 0-8.982 4.021-8.982 8.982v37.309"/><path d="m238.315 21.638c.522-1.494 1.941-2.571 3.618-2.571 1.678 0 3.111 1.077 3.619 2.571l18.808 55.563h-27.54l.03-13.071h9.203l-4.143-12.313-13.496 39.79h-13.883z"/><path d="m268.152 79.872h-31.286v11.735h47.612l-24.762-73.262c-2.17-7.146-9.323-12.40298-17.791-12.40298-8.481 0-15.612 5.23398-17.798 12.37398l-24.989 73.292h12.465l24.262-71.244c.985-2.359 3.308-4.021 6.039-4.021 2.716 0 5.052 1.662 6.046 4.006z"/><path d="m275.504 16.639c2.216 0 4.302-.865 5.865-2.42 1.562-1.57 2.435-3.641 2.435-5.856 0-2.2-.873-4.264-2.435-5.834-1.563-1.546995-3.649-2.411996-5.865-2.411996-4.559 0-8.284 3.694996-8.284 8.246996 0 2.215.865 4.286 2.442 5.856 1.556 1.554 3.634 2.419 5.842 2.419zm-7.115-8.277c0-1.889.728-3.679 2.085-5.022 1.351-1.343 3.141-2.071 5.03-2.071 1.912 0 3.702.729 5.053 2.071 1.343 1.343 2.087 3.133 2.087 5.022 0 3.922-3.202 7.108-7.14 7.108-1.89 0-3.68-.736-5.03-2.079-1.358-1.342-2.085-3.125-2.085-5.029z"/><path d="m273.38 9.05998v3.89902h-1.199v-9.16402h3.406c1.283.015 2.034.015 2.747.553.69.509.979 1.275.979 2.125 0 2.14-1.744 2.42-2.186 2.511l2.58 3.97502h-1.449l-2.511-3.89902zm0-1.009h2.435c.388 0 .752 0 1.116-.091.85-.205 1.153-.812 1.153-1.479 0-.243-.023-.857-.547-1.282-.479-.402-1.085-.387-1.79-.387h-2.367z"/></g></svg>