<svg fill="none" height="64" viewBox="0 0 437 64" width="437" xmlns="http://www.w3.org/2000/svg" xmlns:xlink="http://www.w3.org/1999/xlink"><clipPath id="a"><path d="m.662109 0h436.28v63.86h-436.28z"/></clipPath><g clip-path="url(#a)" fill="#fff"><path d="m87.2921 0h-86.629991v21.29h86.629991z"/><path d="m87.2921 42.5701h-86.629991v21.29h86.629991z"/><path d="m148.192 15.2501c-1.82-8.93-3.73-12-13.95-12-4.34 0-7.89 1.21-10.31 3.29-.978.78992-1.758 1.79675-2.279 2.94064-.521 1.14386-.768 2.39336-.721 3.64936.112 2.6006 1.18 5.0682 3 6.93 2.25 2.17 5.54 4.08 11 6.85 6.76 3.46 11.88 5.46 15.6 9.7 2.339 2.8978 3.623 6.5056 3.64 10.23.067 2.156-.331 4.3012-1.168 6.2892-.837 1.9881-2.093 3.7722-3.682 5.2308-3.64 3.29-9.36 5.46-17.07 5.46-5.524-.0915-10.996-1.0846-16.2-2.94-.619-4.3453-1.579-8.6351-2.87-12.83l3-.78c2.77 10.66 7.62 13.26 16.8 13.26 3.728.1009 7.386-1.0271 10.41-3.21 1.393-1.0459 2.52-2.4063 3.288-3.9703.768-1.5641 1.156-3.2874 1.132-5.0297.125-2.8359-.874-5.6068-2.78-7.71-2.77-3.29-7.45-5.37-12.47-7.88-5.29-2.69-12.57-6.6-15.08-10.15-1.695-2.4433-2.602-5.3464-2.6-8.32-.006-1.9938.462-3.9605 1.366-5.73749.905-1.77703 2.218-3.3135 3.834-4.48251 3.07-2.4 7.83-4.03999587 14.58-4.03999587 4.934-.13103613 9.847.69063187 14.47 2.41999587.52 3.55 1.3 8.24 2.09 12.14z"/><path d="m167.332 43.0702c0-6.68 1.21-11 3.55-14 1.037-1.1981 2.331-2.1475 3.785-2.7776s3.031-.9248 4.615-.8624c3.64 0 6.58 1.21 8.58 3.64 2.34 3 3.55 7.36 3.55 14 0 7-1.47 11.43-3.64 14.21-1.077 1.1493-2.378 2.0654-3.823 2.6917-1.444.6262-3.002.9494-4.577.9494s-3.133-.3232-4.578-.9494c-1.445-.6263-2.746-1.5424-3.822-2.6917-2.17-2.78-3.64-7.2-3.64-14.21zm-6.24-.07c0 7.88 2.08 13.08 5.45 16.29 3.48 3 7.63 4.33 12.83 4.33 5.45 0 9.7-1.39 13.17-4.5 3.3-3.21 5.29-8.32 5.29-16.12 0-6.85-1.91-12.13-5.29-15.52-3.38-3.2-7.37-4.76-13.17-4.76-5.55 0-9.53 1.56-12.91 4.68-3.47 3.36-5.37 8.73-5.37 15.6z"/><path d="m209.412 26.4302h-6.41v-2.77h6.41v-5.47c0-5.28 1.3-9.27001 4.17-12.22001 2.202-1.92877 4.968-3.09597 7.886-3.32836 2.919-.23238 5.834.48244 8.314 2.03836 2.51 1.64 3.72 3.81 3.72 5.36001 0 1.74-.87 2.7-2.43 2.7-2.07 0-2.85-1.83-3.81-3.73001-.96-1.9-2.08-3.72-4.76-3.72-.818-.01905-1.631.14116-2.38.46938-.75.32822-1.419.81651-1.96 1.43062-1.73 2.08-2.77 5.20001-2.77 11.36001v5.11h11v2.77h-11v28.33c0 5.2.35 5.72 6.85 5.72v2.17h-19.33v-2.17c6.07 0 6.5-.6 6.5-5.89z"/><path d="m230.132 24.44c5.46-.52 9.21-2.61 10.32-11.7h2.21v10.92h9.19v2.77h-9.19v28c0 4.07 1.21 6.15 4.24 6.15 1.97-.0268 3.871-.7333 5.38-2l1.38 1.9c-2.328 2.0927-5.371 3.2099-8.5 3.12-4.41 0-8.48-2.08-8.48-8.84v-28.33h-6.51z"/><path d="m271.872 7.53018c0-2.33.35-3 2.6-3h8.24c6.07 0 10 1.39 12.39 3.38 1.06 1.02388 1.905 2.24922 2.486 3.60402.58 1.3549.884 2.8121.894 4.286 0 4.16-1.47 7.19-4 9.27-3.13 2.6-8 3.73-14 3.73h-8.67zm-6.4 46.00002c0 6.15-.53 6.58-7 6.58v2.52h28.19c9 0 14.13-2.08 17.51-5.37 1.594-1.5558 2.849-3.4256 3.684-5.4912.834-2.0656 1.232-4.2819 1.166-6.5088-.013-2.0898-.523-4.1464-1.488-6-.966-1.8536-2.358-3.4509-4.062-4.66-3.72-2.86-8.75-4.33-14.38-4.51v-.09c5.46-.77 9.1-2.51 11.7-4.84 1.393-1.2618 2.5-2.8068 3.247-4.5316.746-1.7247 1.116-3.5892 1.083-5.4684.016-2.0158-.475-4.0033-1.43-5.77904-.954-1.77571-2.34-3.2824-4.03-4.38098-4.68-3.13-9.89-3.82-17.86-3.82h-23.3v2.54c6.49 0 7 .43 7 6.68002zm6.4-21.49h10.79c7.1 0 11.88 1.21 14.91 3.56 1.495 1.0923 2.709 2.5261 3.538 4.182.83 1.6559 1.252 3.486 1.232 5.338 0 4.51-1.31 7.72-3.39 9.89-2.95 3-6.93 4.33-13.09 4.33h-10.78c-2.69 0-3.21-.61-3.21-4.25z"/><path d="m337.872 55.8101c-2.17 2.16-5.11 4.5-9.36 4.5-2.108.0847-4.164-.6665-5.72-2.09-.665-.7376-1.175-1.6005-1.502-2.5382-.326-.9376-.461-1.931-.398-2.9218 0-4 2.42-6.23 5.8-8 3.2-2 7.46-3.21 11.18-4.24zm6-21.07c0-3.8-.61-6.15-2.86-8.66s-5.2-3.38-10.4-3.38c-3.454-.1078-6.871.7326-9.88 2.43-2.77 1.64-4.5 4-4.5 6.06-.028.3302.016.6624.127.9745s.288.5969.517.8354c.23.2385.509.4252.816.5476.308.1225.639.1779.97.1625.666.0607 1.332-.1157 1.881-.498s.945-.9461 1.119-1.592c.521-1.6191 1.447-3.0784 2.69-4.24 1.658-1.3542 3.75-2.0643 5.89-2 2.86 0 4.94.8667 6.24 2.6 1.12 1.47 1.39 4.07 1.39 6.06v3.73l-5.11 1.23c-4.543.8437-8.892 2.5148-12.83 4.93-3.81 2.51-5.37 5.63-5.37 9.62-.043 1.4264.249 2.843.851 4.1365.603 1.2936 1.499 2.4283 2.619 3.3135 2.293 1.7517 5.115 2.6689 8 2.6 2.239.0833 4.471-.2964 6.556-1.1155 2.086-.819 3.98-2.0597 5.564-3.6445h.26c.79 2.85 2.61 4.41 5.64 4.41 1.827.0054 3.63-.423 5.26-1.25l-.52-2c-.708.4169-1.519.625-2.34.6-1.73 0-2.6-1.73-2.6-5.62z"/><path d="m387.952 54.93c0 4.86.35 5.55 4.25 5.55v2.17h-14.65v-2.17c4.16 0 4.42-.52 4.42-5.72v-19.32c0-3.38-.43-6.15-2.08-7.89-.671-.6142-1.461-1.0845-2.321-1.382s-1.771-.4159-2.679-.348c-3.64 0-7.54 3.29-11 8.06v20.88c0 5.2.09 5.72 4.16 5.72v2.17h-15.19v-2.17c4.67 0 5-.52 5-5.72v-21c0-5-.43-5.63-5-5.55v-1.9c3.81-.61 6.76-1.48 9.62-3.56l.86.52.35 6.67h.17c3.47-4.42 7.88-7.19 12.65-7.19 3.73 0 6.41 1 8.32 2.77s3.12 5 3.12 9.62z"/><path d="m408.262 41.3301 12.39-12c2.34-2.17 2.94-3.47-1.22-3.47v-2.2h12.83v2.16c-1.111-.0167-2.213.207-3.229.6558-1.017.4487-1.925 1.112-2.661 1.9442l-9.1 8.66 13.26 20.11c1.9 3 3.81 3.38 6.41 3.29v2.17h-9.88l-14.12-21.84-4.86 4.77v9.18c0 5 .18 5.72 4.95 5.72v2.17h-16.12v-2.17c5 0 5.19-.69 5.19-5.72v-41.07c0-5-.52-5.63-5.19-5.63v-1.91c3.688-.39205 7.242-1.60507 10.4-3.55l.77.52v38.21z"/></g></svg>