<svg fill="none" height="146" viewBox="0 0 501 146" width="501" xmlns="http://www.w3.org/2000/svg" xmlns:xlink="http://www.w3.org/1999/xlink"><clipPath id="a"><path d="m.942383 0h500v145.689h-500z"/></clipPath><g clip-path="url(#a)" fill="#fff"><path d="m96.4938 52.5909c9.4072 6.721 20.9312 10.6755 33.3772 10.6755v-23.9385c-2.355.0005-4.705-.245-7.009-.733v18.843c-12.446 0-23.9682-3.9545-33.3777-10.675v48.8515c0 24.4376-19.821 44.2476-44.27 44.2476-9.1225 0-17.6015-2.757-24.645-7.484 8.039 8.215 19.25 13.312 31.653 13.312 24.4505 0 44.2725-19.81 44.2725-44.249v-48.8501zm8.6472-24.151c-4.808-5.2495-7.9642-12.0335-8.6472-19.53351v-3.079h-6.6425c1.672 9.53251 7.375 17.67651 15.2897 22.61251zm-69.1077 85.1851c-2.686-3.52-4.1375-7.826-4.131-12.254 0-11.1766 9.066-20.2391 20.251-20.2391 2.0845-.0005 4.1565.3185 6.143.9485v-24.4735c-2.3215-.318-4.6645-.453-7.0065-.4035v19.049c-1.988-.63-4.061-.95-6.146-.948-11.185 0-20.2505 9.0615-20.2505 20.24 0 7.9036 4.5315 14.7466 11.14 18.0806z"/><path d="m89.4837 46.7624c9.4095 6.7205 20.9323 10.675 33.3773 10.675v-18.843c-6.947-1.479-13.097-5.1075-17.721-10.1545-7.9148-4.9365-13.6173-13.0805-15.2893-22.61251h-17.448v95.61261c-.0395 11.147-9.09 20.172-20.251 20.172-6.577 0-12.42-3.133-16.1205-7.987-6.608-3.334-11.1395-10.177-11.1395-18.0801 0-11.1775 9.0655-20.24 20.2505-20.24 2.143 0 4.2085.3335 6.146.948v-19.049c-24.0195.496-43.33703 20.112-43.33703 44.2371 0 12.043 4.81053 22.96 12.61803 30.937 7.0435 4.727 15.5225 7.484 24.645 7.484 24.4495 0 44.27-19.81 44.27-44.2476v-48.852z"/><path d="m122.861 38.5945v-5.095c-6.264.0095-12.406-1.744-17.721-5.06 4.705 5.1485 10.901 8.6985 17.721 10.155zm-33.0101-32.767c-.1595-.911-.282-1.828-.367-2.7485v-3.079h-24.091v95.614c-.0385 11.145-9.0885 20.171-20.2505 20.171-3.277 0-6.371-.778-9.111-2.159 3.7005 4.853 9.5435 7.986 16.1205 7.986 11.16 0 20.212-9.024 20.251-20.171v-95.6135zm-38.5615 51.3765v-5.424c-2.013-.275-4.0425-.413-6.0745-.412-24.4515-.0005-44.272517 19.81-44.272517 44.246 0 15.32 7.789997 28.822 19.627517 36.764-7.8075-7.977-12.61802-18.895-12.61802-30.938 0-24.124 19.31702-43.74 43.33752-44.236z" fill-opacity=".666667"/><path d="m402.005 119.83c17.494 0 31.677-14.068 31.677-31.4205 0-17.3514-14.183-31.422-31.677-31.422h-4.773c17.495 0 31.678 14.0701 31.678 31.422 0 17.3525-14.183 31.4205-31.678 31.4205z"/><path d="m396.801 56.9875h-4.772c-17.494 0-31.679 14.0701-31.679 31.422 0 17.3525 14.185 31.4205 31.679 31.4205h4.772c-17.497 0-31.679-14.068-31.679-31.4205-.001-17.3514 14.182-31.422 31.679-31.422z" fill-opacity=".666667"/><path d="m155.974 42.7859v15.9265h18.655v60.6866h18.663v-60.2566h15.186l5.207-16.356zm152.741 0v15.9265h18.655v60.6866h18.663v-60.2566h15.186l5.206-16.356zm-91.555 9.038c0-4.9905 4.073-9.038 9.105-9.038 5.036 0 9.114 4.0475 9.114 9.038 0 4.991-4.075 9.0385-9.114 9.0385-5.032-.0025-9.105-4.0475-9.105-9.0385zm0 15.4965h18.219v52.0786h-18.219zm26.031-24.5345v76.6131h18.226v-19.7971l5.641-5.1695 17.789 25.3966h19.525l-25.604-37.0151 22.999-22.384h-22.129l-18.221 18.0765v-35.7205zm196.563 0v76.6131h18.229v-19.7971l5.639-5.1695 17.793 25.3966h19.528l-25.604-37.0151 22.998-22.384h-22.128l-18.226 18.0765v-35.7205z"/><path d="m397.231 119.83c17.494 0 31.679-14.068 31.679-31.4205 0-17.3514-14.185-31.422-31.679-31.422h-.432c-17.495 0-31.678 14.0701-31.678 31.422 0 17.3525 14.183 31.4205 31.678 31.4205zm-15.621-31.4205c0-8.4405 6.9-15.2774 15.409-15.2774 8.502 0 15.402 6.8369 15.402 15.2774s-6.9 15.2815-15.402 15.2815c-8.509-.001-15.409-6.841-15.409-15.2815z"/></g></svg>