<svg fill="none" height="596" viewBox="0 0 3877 596" width="3877" xmlns="http://www.w3.org/2000/svg" xmlns:xlink="http://www.w3.org/1999/xlink"><clipPath id="a"><path d="m.942383 0h3876v596h-3876z"/></clipPath><g clip-path="url(#a)" fill="#fff"><path d="m846.942 8.5331c-23.334 9.6-40.267 20.5333-53.467 34.4-10.4 11.0667-15.467 19.6-18.533 31.0667-3.867 15.0666-1.734 25.2 8.133 40.0002 11.733 17.466 11.2 13.466 11.2 70.8v50.8l-6.933.8c-13.6 1.6-25.467 9.866-31.6 22.133-4.134 8-7.2 25.867-6.267 35.733 1.6 16 3.467 20.267 5.467 13.334 1.733-5.334 7.6-11.867 13.2-14.4 3.733-1.734 8.666-2.534 15.866-2.534h10.267l.133 55.6v55.734l37.334 32c20.4 17.6 38.8 33.333 40.933 34.933l3.6 2.933 29.867-33.333c16.4-18.267 30.133-33.2 30.666-33.2.4 0 18.134 14.933 39.334 33.2l38.528 33.333 7.07-6.266c3.73-3.467 30.13-27.6 58.4-53.6l51.33-47.334.14-104.666v-104.8l-31.2-31.067c-17.2-17.067-31.74-30.9332-32.54-30.6666-.66.2667-15.46 15.4666-32.93 33.5996-17.47 18.134-32.13 32.8-32.8 32.667-.67-.267-16.532-15.333-35.332-33.733l-34.266-33.2002-33.067 33.8662-33.067 34-.133-17.466c0-19.6-2.933-34.134-8.667-44.0002-1.866-3.0667-7.2-9.8667-11.866-15.0667-10.8-11.6-14.267-18.4-15.2-28.8-1.2-16.2667 6.933-32.2667 22-43.3333 12.8-9.33337 11.066-10.40004-5.6-3.4667zm-40.267 31.0667c-10.933 13.8666-17.067 30.2666-16.133 43.7333.4 6.9333 1.466 9.7333 6.8 18.2669 3.466 5.6 8 13.6 10 18l3.6 7.733.4 54.267.4 54.4h-6-6.134v-48.667c0-29.733-.533-51.2-1.466-55.2-.8-4-4.134-10.933-8-16.8-11.467-17.7332-12.267-19.7332-11.6-32.1332.8-15.0667 5.866-25.2 19.866-39.6 10.534-10.9334 15.6-13.3334 8.267-4zm122.667 122.5332 19.6 19.067v105.733l.133 105.733 34.667 30c19.068 16.534 35.998 31.067 37.598 32.4l2.93 2.267-4.66 4c-2.54 2.133-5.07 4-5.6 4-.4 0-18.135-14.8-39.335-32.933l-38.4-33.067.4-105.6.267-105.467-22.934-22.666-22.8-22.534 3.734-4.8 3.866-4.8 5.334 4.8c3.066 2.667 14.266 13.467 25.2 23.867zm147.598 129.2v117.467l-6 5.866-6 5.867v-119.867-120l-18.93-18.933-18.94-19.067 4.54-4.666 4.53-4.667 20.4 20.267 20.4 20.4zm-166.532-123.733 21.2 20.933v106.933 107.067l-6.4 6.8-6.266 6.933-26.267-22.4-26.267-22.533-.133-101.733v-101.6l10.133-10.667c5.6-5.867 10.8-10.667 11.6-10.667.667 0 10.8 9.467 22.4 20.934zm131.602-3.2 17.6 17.6-.27 118.4-.4 118.266-27.6-23.6-27.6-23.733v-101.733l-.13-101.867 9.73-10.533c5.2-5.734 9.87-10.534 10.27-10.534s8.66 8 18.4 17.734zm-230.402 170.266v58.667l36 30.8c19.867 17.067 36 31.333 36 31.733-.133.4-1.866 2.8-4 5.334l-3.866 4.533-8.4-7.2c-4.667-4-21.867-18.667-38.134-32.533l-29.6-25.334v-57.066-56.934h-13.333c-13.733 0-20.533 1.734-25.6 6.267-2.267 2-2.4 2-2.4-.533 0-4 5.467-11.2 10.667-13.867 3.866-2.133 7.733-2.533 23.6-2.533h19.066z"/><path d="m319.875 118.266-29.6 31.6v125.2 125.2l-10 10.8c-5.6 6-9.866 11.467-9.733 12.267.267.8 12 12.133 26.267 25.2 20.8 18.933 26.133 23.333 27.466 21.867.8-.934 11.334-12.134 23.467-24.934l21.867-23.2-9.067-8.133-8.933-8.133v-81.467-81.467l5.066-5.6 4.934-5.6 16.4 15.067 16.4 15.067-.4 108.666c-.534 120.534 0 113.2-9.467 131.334-4.8 8.933-19.067 24-26.667 28-2.666 1.466-4.933 3.066-4.933 3.6 0 2.133 5.867.933 19.733-3.6 41.734-14 69.6-40.134 79.734-74.667 2.133-7.2 2.4-18.133 3.066-114.933l.8-106.934 4.4-4.4c3.067-3.2 3.867-4.933 2.8-6-.933-.933-2.8 0-6.266 3.734l-4.934 5.2-25.333-23.2c-13.867-12.934-25.733-23.334-26.133-23.467-.4 0-11.467 11.467-24.667 25.467l-23.867 25.466-.4-74.8c-.133-41.2-.8-74.7996-1.466-74.7996-.534 0-14.4 14.2666-30.534 31.5996zm-19.733 297.2c-3.467 4-6 7.467-5.733 7.6.266.267 8.8 7.867 18.933 16.8l18.4 16.534-4.267 4.4c-2.4 2.533-4.933 4.533-5.6 4.533-.533 0-11.2-9.467-23.6-20.933l-22.533-20.934 6.4-7.333c3.6-4.133 7.733-8.667 9.333-10l2.8-2.533v-126.134-126l5.734-5.866 5.6-5.734.4 134.134.266 134.266zm93.867-176.8 16.4 15.334-.4 108.666-.4 108.667-3.067 7.733c-2.933 7.067-17.867 25.334-15.467 18.934.4-1.467 1.734-4.934 2.667-7.734 4-10.8 4.533-25.066 4.533-126.4v-103.466l-6.933-6.534c-3.867-3.466-11.467-10.533-16.933-15.6l-9.734-9.2 4.4-4.533c5.067-5.333 2.667-6.667 24.934 14.133z"/><path d="m1609.21 118.267-29.6 31.733v125.333 125.334l-10.67 10.666c-5.86 5.867-10.53 10.934-10.4 11.467.27.4 12.4 11.733 26.94 25.067 25.2 22.933 26.8 24.133 28.8 21.866 1.2-1.333 11.73-12.533 23.46-24.933l21.2-22.533-9.06-8.267-8.94-8.133v-81.334-81.2l5.07-5.733 4.93-5.733 16.4 15.066 16.27 15.067-.4 108.667c-.4 120.533.13 113.2-9.33 131.333-4.8 8.933-19.07 24-26.67 28-8.4 4.4-6.13 6.133 4.27 3.2 47.86-13.2 79.33-40.4 90.4-77.867 2.13-7.333 2.4-17.733 2.8-114.133l.4-106.267 4.66-5.333c6-7.067 3.47-8.933-3.2-2.533l-4.93 4.8-25.33-23.2c-13.87-12.8-25.6-23.2-26-23.334-.4 0-11.47 11.467-24.67 25.467l-24 25.467-.4-74.8c-.13-41.067-.8-74.8005-1.33-74.8005-.67 0-14.4 14.2665-30.67 31.6005zm-19.6 297.2-6 7.066 18 16.4c9.87 9.067 18 16.8 18 17.334 0 1.466-6.8 9.066-8.27 9.066-1.06 0-20.93-18-43.73-39.6l-3.33-3.066 9.73-9.734 9.6-9.6v-125.733-125.6l5.73-6.267 5.6-6.133.4 134.4.27 134.4zm92.93-178.667 16.8 15.867-.13 109.333-.27 109.333-3.06 7.734c-2.94 7.066-17.87 25.333-15.47 18.933.4-1.467 1.73-4.8 2.67-7.6 4.13-11.2 4.53-23.2 4.53-125.867v-104.133l-6.93-6.4c-3.87-3.6-11.47-10.667-16.8-15.733l-9.74-9.334 4.4-4.533c2.4-2.4 4.94-4.267 5.74-4 .66.267 8.93 7.6 18.26 16.4z"/><path d="m92.9419 93.3331c-32.8 4.4-57.8666 25.9999-70.5333 60.7999-6.5333 18-10.9333 46.133-8.9333 57.067 1.3333 7.066 2.9333 5.866 4.8-3.467 4.5333-23.067 22.4-40.667 46.5333-45.867 10.8-2.266 22.5333-2.4 34.8-.4l9.2004 1.6-7.6 5.334c-75.6004 52.933-103.86706 101.866-97.73372 169.2 6.26666 68.8 43.60002 117.066 102.26672 132.4 31.067 8 67.2 3.866 93.6-10.8 37.2-20.8 66.933-65.6 75.467-114 4.4-24.934 3.6-27.2-3.6-10.534-9.6 21.867-29.067 45.067-47.467 56.4l-8.133 4.934v-105.067-105.2l6.666-1.467c25.734-6 46.8-27.333 54-54.8 2.134-8.4 4.267-29.4662 2.934-29.4662-.4 0-2.267 2.6662-4.134 5.8662-9.466 16.134-33.066 26.267-56.533 24.267-15.067-1.333-30.8-6.667-56.267-18.8-12.8-6.133-27.066-12.3999-31.733-13.9999-7.333-2.4-24.933-5.4666-28.933-5.0666-.667 0-4.6671.5333-8.6671 1.0666zm177.4671 43.0669c-9.067 26-33.467 44-63.867 47.066-18.133 1.734-34.133-1.866-78.667-18-38.3997-13.866-67.8664-12.4-91.0664 4.667-4.4 3.333-8.4 5.733-8.6667 5.467-1.2-1.2 10.5334-15.334 16.5334-19.867 13.7333-10.533 24.9333-14.267 42.2666-14.4 13.7331 0 21.7331 2 51.4671 12.667 33.466 12.133 43.733 14.533 61.866 14.4 30.134 0 51.467-10.667 66.267-33.2 3.2-4.8 5.867-8.134 6.133-7.334.267.667-.8 4.534-2.266 8.534zm-137.734 35.2c9.334 3.333 22.267 7.733 28.8 9.733 11.6 3.6 11.867 3.733 8.667 5.6-1.733 1.2-19.067 10.667-38.533 21.067-19.467 10.533-35.6004 19.333-35.8671 19.6-.4.266 0 1.066.8 1.866 1.2 1.2 3.4671.4 8.9331-2.666l7.467-4.134-.267 78.934-.4 79.066-7.066 3.867-7.2004 3.733-4-3.733c-12.9333-12.4-25.6-35.6-31.2-57.2-4.6667-18.133-5.7333-42.4-2.6667-63.067 4.5334-30.4 15.3334-54.666 35.2-78.933 8.0001-9.6 17.8671-20 19.2001-20 .667 0 8.8 2.8 18.133 6.267zm65.867 15.733h13.067v105.6 105.6l-7.6 2.8c-14.667 5.467-24.4 7.067-43.067 7.067-23.2.133-36.267-3.2-52.533-13.334l-6.4-4 37.2-20.133 37.066-20 .4-82.8.267-82.667 4.4.8c2.267.534 10.133.934 17.2 1.067zm-147.7334 32.133c-22.6667 31.6-30.8 54-32.1333 87.867-1.2 30.933 3.3333 53.733 15.6 78.667 16.4 33.066 43.8666 56.266 79.3337 66.8 16.266 4.8 41.066 5.866 55.866 2.533 20.667-4.533 43.2-18.667 67.334-41.867 6.933-6.666 12.8-11.866 13.066-11.733.134.267-2.933 5.2-6.8 11.067-17.866 25.866-42.533 44.666-69.466 52.666-14.667 4.4-41.334 4.934-59.334 1.2-26.3997-5.466-45.3331-14.933-63.0664-31.866-29.8667-28.534-44.13332-65.867-43.99999-115.467 0-18.667.4-22.933 3.46669-34.4 4.1333-15.6 14-36.667 23.2-49.6 7.2-10 23.0666-27.867 24-26.933.2666.4-2.9334 5.333-7.0667 11.066zm78.1334 73.867v78.667l-5.333 2.666c-2.8 1.467-5.6 2.667-6 2.667s-.667-35.333-.667-78.4v-78.4l5.733-2.8c3.067-1.6 5.734-2.933 6-2.933.134-.134.267 35.2.267 78.533z"/><path d="m1806.28 114.4c-11.34 12.133-20.67 22.4-20.67 22.8 0 .533 10.13 10.266 22.4 21.733l22.53 20.8 20.8-22c11.6-12 21.07-22.267 21.34-22.933.26-.8-35.34-34.267-43.07-40.4002-2.67-2.1333-3.33-1.6-23.33 20.0002zm27.06 45.733 5.47 4.8-3.6 4.933-3.73 4.934-4-3.467c-2.27-1.867-11.47-10.4-20.67-18.933l-16.53-15.734 4.26-4.266 4.14-4.267 14.66 13.6c8 7.467 16.94 15.733 20 18.4z"/><path d="m3235.61 133.067-38 40.533-.4-29.467c-.27-24.933-.67-29.466-2.27-29.466-1.73 0-2 4.533-2 31.6v31.733l-6.66 7.333-6.54 7.334-.13-25.6v-25.6l-26.27-24c-14.4-13.334-26.66-24.1338-27.06-24.1338-.54 0-13.47 13.4668-28.94 29.8668-21.46 22.667-27.86 30.133-26.66 31.333s2.8.134 6.93-4.533l5.33-6.133 12.4 11.466 12.27 11.6v30.267 30.4l-8.13.8c-15.74 1.333-29.6 11.6-36.94 27.333-3.33 7.067-3.6 8.934-3.6 25.867 0 21.867 1.07 24 7.07 14.4 6.93-11.067 19.07-17.333 34-17.333h7.6v55.066 55.2l-11.6 5.734c-20.8 10.266-37.07 30-45.07 54.4-2.4 7.6-6.13 27.2-5.33 28.133.4.267 3.33-1.867 6.8-4.667 16.53-13.866 28-20.666 43.73-26l10.8-3.6.67 76.8.67 76.667 32.66-30.133c18-16.667 33.07-30.134 33.6-29.867.54.133 5.74 4.667 11.6 10l10.8 9.733v-56.133-56.133l3.07.8c8.67 2.533 20.4 9.6 29.2 17.866l9.73 9.067 48.94-36.8 48.93-36.8v-124-124l-31.6-28.8-31.73-28.6668zm-124.8 13.333 12.8 12.4v34.533 34.667h-6-6v-31.867-31.866l-4.93-4.267c-2.8-2.4-8.54-7.733-12.8-11.733l-7.74-7.334 4.27-4.4c2.53-2.666 4.93-4 6-3.466.8.533 7.33 6.533 14.4 13.333zm154.4 6.133 17.07 15.867v132.133 132.267l-6 4.933-6 5.067v-134-133.867l-18-16.4c-9.87-8.933-18-16.666-18-17.066s1.86-2.667 4.26-5.067c4.94-5.2 1.87-7.067 26.67 16.133zm-11.2 13.467 12.13 10.667.14 118.4v118.4l-6.67-5.734c-14.27-12.266-32.93-20.8-50.67-23.066-4-.4-8.4-1.2-9.6-1.467-2.26-.667-2.4-6.667-2.4-101.6l.14-100.933 16.66-17.6 16.8-17.734 5.6 5.067c3.2 2.667 11.2 9.733 17.87 15.6zm-61.07 200.933v180.267l-6.66-6.533-6.67-6.534v-167.333-167.333l6.27-6.4c3.46-3.467 6.53-6.4 6.66-6.4.27 0 .4 81.066.4 180.266zm-69.33 51.467v157.067l-6 5.866-6 5.867v-156.4-156.533l-13.2.8c-14.93.8-22.4 3.333-29.2 10.133-4.67 4.8-5.33 3.867-2.27-3.467 4.54-10.8 11.74-17.066 22-19.2 2.54-.533 11.47-.933 19.74-1.066l14.93-.134zm93.73 11.067c9.87 3.866 20.14 11.2 26.94 19.2 3.33 3.866 6 7.6 6 8.266 0 .667-2.67 3.2-5.74 5.467l-5.86 4.133-7.74-7.866c-8-8.134-18.4-14.534-28.26-17.467l-5.74-1.6v-7.6-7.6l6.8 1.2c3.87.667 9.87 2.4 13.6 3.867zm-109.73 2.4v6.533l-11.2 3.467c-12.67 3.866-24 9.466-31.73 15.6-2.8 2.266-5.47 3.866-5.87 3.6-1.33-1.467 11.33-16.667 18.27-21.867 8.4-6.4 11.33-8 20.53-11.333 9.73-3.6 10-3.467 10 4z"/><path d="m2408.01 126.4-29.6 31.6-.14 18.933v19.067h-7.2-7.06l-9.6 14.4c-5.2 7.867-9.47 14.8-9.47 15.333 0 .534 7.47.934 16.67.934h16.66v99.466 99.467l-4.8 5.733c-6.26 7.734-4.66 10.667 2.14 4l5.06-5.066 26.27 20.933 26.27 20.8 9.6-10.4c5.33-5.6 17.46-18.667 27.06-28.933 13.87-14.934 17.2-19.067 16-20.534-1.2-1.466-2.66-.533-7.6 4.934l-6 6.8-16.26-12.667-16.4-12.8v-85.867-85.866h13.33 13.33l9.34-14c5.06-7.6 9.33-14.534 9.33-15.334s-8-1.333-22.67-1.333h-22.66v-50.667c0-27.866-.4-50.6664-.94-50.6664-.66 0-14.4 14.2664-30.66 31.7334zm-13.74 45.6v24h-6-6v-18.267-18.266l5.6-5.734c3.07-3.2 5.74-5.733 6-5.733.27 0 .4 10.8.4 24zm0 151.2v96.533l23.07 18.4c12.53 10 23.2 18.534 23.47 18.8.4.267-1.34 2.534-3.74 4.934l-4.4 4.533-24.93-19.6-24.8-19.6-.4-100.267-.27-100.266h6 6z"/><path d="m3794.68 126.4-29.6 31.6-.14 18.933v19.067h-6.93l-7.07.133-9.73 14.267c-5.2 7.867-9.6 14.667-9.6 15.2 0 .667 7.47 1.067 16.67 1.067h16.66v99.466 99.6l-4.8 5.734c-6.13 7.6-4.53 10.4 2.14 3.866l5.2-5.066 5.73 4.533c3.2 2.4 14.93 11.867 26.27 20.8l20.4 16.4 10.93-11.6c42.53-45.467 43.33-46.4 41.73-48.133-1.06-1.467-2.66-.4-7.46 4.933l-6.14 6.667-16.26-12.667-16.4-12.667v-86-85.866h13.33 13.33l9.34-14c5.06-7.6 9.33-14.534 9.33-15.334s-8-1.333-22.67-1.333h-22.66v-50.667c0-27.866-.4-50.6664-.94-50.533-.66 0-14.4 14.267-30.66 31.6zm-13.74 45.6v24h-6-6v-18.267-18.266l5.6-5.734c3.07-3.2 5.74-5.733 6-5.733.27 0 .4 10.8.4 24zm0 151.067v96.4l22.27 17.866c12.13 9.867 22.8 18.4 23.6 18.934 1.6 1.066-5.33 9.066-7.73 8.933-.8 0-12.27-8.533-25.47-19.067l-24-19.066-.4-100.134-.27-100.266h6 6z"/><path d="m538.009 224.267-53.067 38.8v72.933 72.8l-5.333 5.2c-4.667 4.533-5.067 5.333-3.067 6.533 1.734.934 3.2.134 6.534-3.733l4.266-4.933 37.334 30.133c20.533 16.533 37.6 30 37.866 30 1.734 0 73.2-77.733 72.667-79.067-.267-.933-1.067-1.6-1.867-1.6-.666 0-8.133 7.334-16.533 16.267-8.267 9.067-15.467 16.4-15.867 16.4-.4-.133-12.933-9.867-28-21.733l-27.333-21.6-.267-15.334-.4-15.333 51.334-37.867 51.333-37.733-2.533-4.267c-36.4-58.666-52.4-84.133-53.2-84.4-.534-.133-24.8 17.2-53.867 38.534zm46.267 32.933c13.6 22.133 24.666 40.533 24.4 40.667-.267.266-2.534 1.866-5.067 3.733l-4.667 3.467-24.666-40c-13.6-22-24.934-40.667-25.2-41.467-.667-1.733 8.266-9.067 9.466-7.867.4.534 12 19.2 25.734 41.467zm-11.734 11.867c12.8 20.8 22.8 38.266 22.267 38.933-1.867 1.6-42.4 31.467-46.4 34l-3.467 2.267v-59.067c.134-53.333.267-58.933 2.134-56.533 1.066 1.466 12.533 19.733 25.466 40.4zm-37.6 160.266c18.4 15.2 33.334 28.134 33.334 28.8 0 .667-1.334 2.934-2.934 5.067l-3.066 3.867-36.267-29.334-36.4-29.333-.267-71.867-.266-71.866 5.6-4.134 5.6-4.133.666 72.667.667 72.8z"/><path d="m1215.34 223.6-53.07 38.133v77.467l-.13 77.467-3.87 4.666c-5.46 6.267-2.93 8.8 2.94 3.067l4.4-4.133 29.2 25.866 29.2 25.867 23.2-24c12.8-13.2 23.86-24 24.66-24 1.2 0 24.14 20.8 45.2 41.067l7.47 7.066 25.6-27.466c19.47-20.667 25.47-28 24.8-29.734-.8-1.866-1.73-1.333-5.87 3.334l-5.06 5.6-15.6-14.667-15.47-14.8v-78.667-78.666l5.33-6.134c3.74-4.133 4.94-6.533 4-7.466-.93-.934-2.93.133-6.4 3.466l-4.93 4.934-29.33-23.2c-16.14-12.8-30.27-23.2-31.34-23.2-1.06 0-25.86 17.2-54.93 38.133zm49.07 8 24.53 19.733v82 82l21.73 20c11.87 10.934 21.6 20.267 21.6 20.667s-1.73 2.933-4 5.6l-4 4.8-24.26-22.933-24.4-22.8v-81.6-81.6l-23.34-18.4c-12.8-10-23.33-18.667-23.33-19.067 0-.933 9.47-8 10.53-8 .27 0 11.47 8.8 24.94 19.6zm-14.8 10.667 21.86 17.066v79.467l.14 79.333-3.6 3.467-3.74 3.6-20.26-17.6-20.27-17.6v-83.2c-.13-74.533.13-83.067 2-82.267 1.07.4 11.87 8.4 23.87 17.734zm-44 190.933c14.26 12.8 26 23.6 26 24 0 1.6-7.74 8.4-8.94 8-.66-.267-13.6-11.6-28.8-25.2l-27.6-24.533v-76.134-76l6.4-4.4 6.27-4.4.4 77.867.27 77.733z"/><path d="m1434.01 218.133-46.4 32.667v52.666 52.534h24c13.2 0 24 .4 24 .8s-17.07 25.733-38 56.133c-20.93 30.533-37.73 55.733-37.33 56.133s2.4-.533 4.4-2.133c19.2-15.067 27.46-18.133 47.06-17.333 12.94.533 15.07 1.066 24.27 5.466 5.6 2.667 13.07 7.467 16.67 10.8l6.4 6 44.93-31.6 44.93-31.6v-60.266-60.4l-29.33-.267-29.33-.4 33.86-49.333c30.14-44 37.6-56 30.27-49.467-4.4 4-17.07 8.667-27.6 10.133-16.27 2.4-27.87-.4-40.4-9.866-2.53-1.867-4.93-3.467-5.33-3.467s-21.6 14.8-47.07 32.8zm26.93-11.467c0 2.267 12.14 10.534 19.74 13.467 9.73 3.6 23.86 3.6 38.13-.133 5.87-1.467 10.8-2.4 11.07-2.134 1.2 1.2-15.6 10.8-24 13.734-12.94 4.533-27.6 4-38.4-1.334-7.47-3.6-19.87-13.466-19.87-15.6 0-1.2 10.53-9.2 12.4-9.333.53 0 .93.533.93 1.333zm9.07 29.334c14.13 5.333 37.47 2.4 50-6.134 2.8-1.866 5.33-3.2 5.6-2.933.27.133-11.87 18.267-27.07 40l-27.33 39.733h-11.2-11.07v-42-42l7.07 5.334c3.73 2.933 10.13 6.533 14 8zm-43.73 102.933 22.53.4-4.67 6.267-4.53 6.4h-24-24l.13-49.734v-49.6l5.6-4.533 5.6-4.4.4 47.467.27 47.466zm78.66 38.133v57.067l-6.66 4.933-6.67 4.934v-55.334-55.333h-16c-8.8 0-16-.4-16-.8s1.87-3.333 4-6.667l4.13-5.866h18.54 18.66zm-17.33 8.934v48.666l-8.27-6.666c-10.8-8.667-20.13-12.267-34.4-12.934-16.93-.933-31.6 3.6-47.73 14.534-3.2 2.266-6 3.733-6.4 3.466-.4-.533 27.2-41.466 56.4-83.466l8.53-12.267h15.87 16zm-51.87 51.333c10 1.867 20 7.067 28.14 14.533l6.93 6.4-6.13 4.134-6 4.133-5.07-5.2c-6.8-6.933-21.73-14.133-33.47-16.133-7.86-1.467-11.06-1.334-19.33.4-5.47 1.066-11.07 2.4-12.53 2.933-2.14.8-2 .533.66-1.733 4.14-3.334 15.87-8 24-9.467 8.8-1.467 14.8-1.467 22.8 0z"/><path d="m1784.68 212c-13.87 14.667-25.07 27.2-25.07 27.867 0 3.2 2.8 2.4 6.53-2l4.27-4.8 12.53 11.6 12.67 11.6v82.8l-.13 82.933-5.2 6c-3.74 4.133-4.8 6.4-3.87 7.467.93 1.2 2.53.266 6.27-3.6l4.93-5.334 24.93 22.667 24.94 22.8 26.93-28.8c21.07-22.4 26.53-29.067 25.33-30.267-1.33-1.2-2.93-.133-7.46 5.067l-5.87 6.667-6.4-6c-3.47-3.334-10.13-9.6-14.67-14l-8.4-7.867v-83.333-83.334l5.47-5.6c4-4 5.33-6.4 4.67-8-.8-2-1.74-1.466-6.67 3.334l-5.73 5.6-21.87-20c-12-11.067-22.13-20-22.53-20.134-.4 0-11.87 12-25.6 26.667zm13.33 22.933 14.93 13.6v84.267 84.133l21.34 19.734 21.46 19.733-3.2 4.133c-1.86 2.267-3.86 4.134-4.66 4.134s-12-9.467-24.8-21.067l-23.47-21.2v-83.733-83.734l-13.33-12.533-13.2-12.533 4.26-4.267c2.27-2.4 4.54-4.267 5.07-4.267.4 0 7.47 6.134 15.6 13.6z"/><path d="m1914.54 212.933c-20.13 22.134-25.06 28.134-23.86 29.6 1.2 1.467 2.53.667 6.93-4.266l5.47-6 13.6 12.666 13.6 12.667v72.267 72.266l-9.6 10.534-9.74 10.4 10.27 9.466c5.6 5.2 17.33 16.267 26.13 24.4l16 15.067 22.4-24c12.4-13.2 22.67-24.933 22.94-25.867.26-.933-3.47-5.2-8.4-9.466l-8.67-7.6v-78.267-78.267l7.87-7.733 8-7.867 15.33 14.534 15.33 14.533.14 82.8v82.8l19.06 17.333c10.4 9.467 21.34 19.467 24.4 22.134l5.47 4.8 23.73-25.334c30.8-33.066 30.8-32.933 28.8-34.933-1.33-1.2-3.06 0-7.73 5.333l-6.13 7.067-13.07-12.133-13.2-12.134v-81.333-81.333l6-6.667c3.33-3.733 6-7.2 6-7.867 0-2.533-3.47-.933-8.67 4l-5.33 5.2-25.33-23.066c-13.87-12.8-25.74-23.2-26.14-23.2-.53-.134-12.8 12.666-27.33 28.4l-26.53 28.533-.67-6.267c-.67-6.266-.8-6.4-25.6-28.533-13.73-12.267-25.2-22.267-25.47-22.267-.26 0-12 12.4-26 27.6zm29.87 34.134 3.2 2.533v79.333 79.467l-6 6.933-6 7.067 15.73 14.4c8.54 7.867 16.8 15.467 18.14 16.667 2.4 2.266 2.4 2.4-1.87 7.733l-4.27 5.467-21.46-20.134c-11.87-11.2-22.54-21.066-23.6-22.133-1.6-1.467-.67-2.933 7.06-10.8l8.94-9.067v-74.266-74.267l-8.94-8.4c-5.06-4.667-11.46-10.667-14.4-13.333l-5.33-4.8 4.53-4.667 4.54-4.667 13.2 12.267c7.33 6.8 14.66 13.333 16.53 14.667zm92.53-9.6 17.34 16.133.13 82.933v82.8l20.67 17.867c11.33 9.733 20.53 18.133 20.53 18.667 0 .533-2 2.933-4.4 5.2l-4.53 4.4-22.14-19.734-22.26-19.733v-82.933-82.8l-16.27-15.334-16.4-15.466 3.87-4c2.26-2.267 4.53-4.134 5.06-4.134.67 0 8.94 7.2 18.4 16.134z"/><path d="m2206.01 223.6-53.07 38.133v81.467 81.6l-5.33 5.2c-3.6 3.467-4.93 5.6-4 6.533.93.934 3.07-.4 6.53-3.733 3.47-3.467 5.87-4.8 7.07-4 .93.533 13.6 10.533 28.13 22.133l26.27 21.2-36.27 42c-39.86 46.134-41.73 48.4-40.66 49.334.4.4 4.4-1.2 8.93-3.467s14.67-6.267 22.4-8.933c12.93-4.4 15.73-4.934 28.93-4.934 14-.133 15.07.134 23.6 4.267 5.34 2.533 12.94 8.133 18.94 13.733l10 9.334 29.06-21.6c18.8-14.134 34-26.667 43.2-35.867 16.4-16.267 20.14-22.8 20-35.067 0-7.066-.66-9.2-6.8-19.6-3.86-6.8-7.2-14.666-8-18.666-.8-4.267-1.33-45.867-1.33-106.534l.13-99.466 5.2-6c3.74-4.134 4.8-6.4 3.87-7.467-.93-1.2-2.53-.267-6.27 3.6l-4.93 5.2-29.6-23.333c-16.4-12.8-30.4-23.334-31.33-23.2-.94 0-25.6 17.2-54.67 38.133zm48.93 9.067 24.54 19.466.4 98.934.4 98.933 2.93 5.467c1.6 3.066 8.13 10.133 14.4 15.866 6.4 5.867 12.4 12.267 13.47 14.267 4.66 8.933 3.46 21.2-2.4 26-1.34 1.2-1.6.267-1.34-4.933.8-11.2-4.26-18-24.93-33.734-6.4-4.933-9.2-8.133-11.87-14l-3.6-7.6-.4-96.933-.4-96.933-23.2-18.267c-12.8-10.133-23.33-18.8-23.33-19.333 0-1.067 8-6.534 9.73-6.534.54 0 12.14 8.667 25.6 19.334zm-10.8 12.666 18 14v77.334 77.333l-5.6 6.267-5.73 6.4-18.27-14.267-18.26-14.267v-87.866-87.867l5.86 4.533c3.34 2.4 14.14 10.667 24 18.4zm-48.53 192c13.6 10.4 25.2 19.334 25.87 20 .66.667-.67 3.467-3.07 6.534l-4.27 5.333-28.66-22.8-28.54-22.933v-79.467-79.467l6.4-4.666 6.27-4.8.67 81.733.66 81.733zm68.53 15.467c2.14 11.2 6.54 16.533 22.54 27.733 11.73 8.267 16.93 16 16.93 25.334-.13 8.8-4 17.2-11.6 24.933l-6 6.267-8.67-6.534c-4.66-3.6-10.4-7.466-12.66-8.666-24.8-12.8-55.34-10.934-88.27 5.733l-11.87 5.867 8.4-9.734c4.67-5.333 26.54-30.666 48.54-56.133l40.13-46.4.8 13.2c.53 7.333 1.33 15.6 1.73 18.4zm-33.33 85.2c4.27 2.267 12.4 8.133 17.87 13.2l9.86 9.333-4.4 3.734c-2.53 2-4.93 3.733-5.33 3.733-.53 0-4.8-3.867-9.73-8.667-12.54-12-23.07-16.933-37.47-17.733-11.33-.533-26.93 1.867-36.53 5.867-6.27 2.666-6.54 1.466-.54-2.134 13.74-8.133 29.74-12.133 46.4-11.6 10.14.4 13.2 1.067 19.87 4.267z"/><path d="m2551.74 220.8-49.47 35.467v79.6 79.6l-4.66 4.533c-3.6 3.467-4.27 4.933-3.07 6.267 1.07 1.466 2.27.8 5.73-3.2l4.27-4.934 35.6 26.934c19.47 14.8 35.87 26.933 36.4 26.933.4 0 22-15.733 47.87-34.933l47.2-34.934v-80-80l6.13-6.266c4.93-5.067 5.73-6.4 4.13-7.6-1.46-1.2-2.66-.534-6.13 3.733-2.4 2.933-4.8 5.333-5.6 5.333-.67 0-16.13-11.733-34.4-26-18.27-14.266-33.47-26-33.87-26-.26 0-22.8 16-50.13 35.467zm75.73 120.133.14 88.134-5.6 4.8-5.74 4.666-.66-89.2-.67-89.066-26.27-21.067-26.26-20.933 5.6-4.267 5.46-4.267 27.07 21.467 26.93 21.467zm-38.93-96.8 22.93 17.867.14 84.4v84.267l-24.27-18.534-24.4-18.4-.4-84.4c-.27-66.266 0-84.133 1.33-83.733.94.4 12 8.667 24.67 18.533zm-36.8 189.867 33.6 26.4-4.4 3.6-4.4 3.6-35.07-26.8-35.2-26.667v-77.733-77.733l5.74-4.134 5.6-4 .4 78.534.26 78.533z"/><path d="m2716.01 212.933c-20 21.867-25.2 28.134-24 29.6 1.2 1.334 2.53.534 7.06-4.133l5.6-5.867 13.47 12.534 13.47 12.533v72.267 72.266l-9.6 10.534-9.74 10.4 10.27 9.466c5.6 5.2 17.33 16.267 26.13 24.4l15.87 15.067 22.53-24c12.4-13.2 22.67-24.8 22.94-25.867.26-1.066-3.47-5.333-8.27-9.6l-8.8-7.733v-78.133-78.134l7.87-7.733 8-7.867 15.33 14.534 15.47 14.533v82.8 82.933l19.06 17.067c10.4 9.467 21.34 19.467 24.4 22.133l5.47 5.067 23.47-25.2c30.8-32.933 31.06-33.2 29.06-35.2-1.2-1.2-2.93 0-7.73 5.467l-6 6.933-13.2-12.133-13.2-12.267v-81.2-81.333l6-6.667c3.33-3.733 6-7.2 6-7.867 0-2.533-3.47-.933-8.67 4l-5.33 5.2-25.33-23.066c-13.87-12.8-25.74-23.2-26.14-23.2-.53-.134-12.8 12.666-27.33 28.4l-26.53 28.666-.67-6.4c-.67-6.266-.8-6.4-25.6-28.533-13.73-12.267-25.2-22.267-25.47-22.267-.26 0-12 12.4-25.86 27.6zm16.93 22.4 16 14.667v79.2 79.2l-6 6.933-5.87 7.067 15.6 14.4c8.54 7.867 16.8 15.333 18.14 16.667 2.4 2.266 2.4 2.4-1.87 7.733l-4.27 5.467-21.46-20.134c-11.87-11.2-22.54-21.066-23.6-22.133-1.6-1.467-.67-2.933 7.06-10.8l8.94-9.067v-74.533l-.14-74.667-13.86-12.666c-7.74-6.934-14-13.067-14-13.6 0-1.6 6.93-9.2 8.13-8.8.67.266 8.4 7.066 17.2 15.066zm111.73 7.334 10.94 10v82.933 82.933l16.26 14.4c8.94 7.867 18.4 16.267 21.07 18.667l4.67 4.267-4.8 4.8-4.67 4.8-22.27-19.734-22.26-19.733v-82.933-82.8l-16.27-15.334-16.4-15.466 4.53-4.667 4.54-4.667 6.93 6.267c3.73 3.467 11.73 10.8 17.73 16.267z"/><path d="m3415.87 220.8-49.6 35.6v79.6 79.467l-4.66 4.533c-3.6 3.467-4.27 4.933-3.07 6.267 1.07 1.466 2.27.8 5.73-3.2l4.27-4.934 32.53 24.534c17.87 13.333 33.87 25.6 35.6 27.2 2.8 2.4 3.34 2.533 6.14.8 1.73-1.067 23.33-16.934 48-35.2l44.8-33.2v-79.867-79.867l6-6.4c4.26-4.533 5.46-6.8 4.53-7.733-1.07-1.067-2.8 0-6.13 3.733-2.54 2.8-5.2 5.2-5.87 5.2s-15.87-11.6-33.87-25.733c-18-14-33.2-25.733-33.73-26-.67-.133-23.47 15.733-50.67 35.2zm54.8 15.2 20.94 16.667v88.266 88.134l-5.6 4.8-5.74 4.666-.4-89.066-.26-88.934-26.67-21.066-26.53-21.067 5.6-4.4 5.6-4.4 6.13 4.933c3.33 2.667 15.47 12.267 26.93 21.467zm-17.33 8.667 22.13 17.333.14 83.6c0 46.133-.27 83.733-.67 83.733s-11.2-7.866-24-17.466l-23.33-17.467v-84.667c0-70.666.26-84.4 1.86-83.466.94.533 11.74 8.8 23.87 18.4zm-37.6 189.2c32 25.333 33.33 26.533 31.07 28.933-4.94 5.467-5.74 5.067-41.87-22.4l-34.67-26.4v-77.6-77.733l5.74-4.134 5.6-4 .4 78.4.26 78.534z"/><path d="m3609.34 218.4-47.06 32.933v52.267 52.4h24.66c13.6 0 24.67.266 24.67.666 0 .267-17.2 25.6-38.13 56-20.94 30.534-37.74 55.867-37.34 56.267s4.4-2.133 9.07-5.6c13.2-10 21.07-13.067 34.93-13.733 19.74-.934 34.94 4.266 48.67 16.533l6.27 5.733 44.93-31.6 44.93-31.6v-60.4-60.266h-29.33c-16.13 0-29.33-.267-29.33-.534 0-.266 15.2-22.666 33.73-49.6 18.67-27.066 33.6-49.6 33.33-50.133-.26-.667-2.8.4-5.46 2.267-12.94 8.933-39.74 12.133-52.54 6.4-3.46-1.6-8.93-4.667-12.26-6.934-3.34-2.266-6.14-4.133-6.4-4.133-.27 0-21.6 14.8-47.34 33.067zm41.87-.667c3.47 1.733 8.27 3.6 10.4 4.133 7.07 1.734 22.4.934 33.2-1.866 5.87-1.467 10.93-2.667 11.33-2.667 2 0-12.66 9.333-20.13 12.8s-9.87 3.867-21.73 3.867c-11.6 0-14.27-.4-20.67-3.467-4-1.867-10.53-6.267-14.4-9.867l-7.07-6.4 6.4-4.266 6.4-4.4 4.94 4.533c2.8 2.4 7.86 5.867 11.33 7.6zm-19.33 10.267c10.13 7.733 18.93 10.666 31.86 10.666 11.74 0 23.07-3.066 32.14-8.8 2.93-1.866 5.46-3.2 5.73-2.933.13.267-12.13 18.267-27.2 40l-27.47 39.733h-11.6-11.73v-42c0-23.066.27-42 .67-42 .26 0 3.73 2.4 7.6 5.334zm-52.27 63.333v47.333h22.67 22.66l-4.8 6.667-4.8 6.667h-24.53-24.53v-48.934-48.933l5.73-5.067c3.07-2.666 6-4.933 6.67-5.066.53 0 .93 21.333.93 47.333zm100 86.267v57.733l-5.2 3.6c-2.93 2.133-5.6 3.733-6 3.733s-.8-24.533-.8-54.666v-54.534l-16.53-.4-16.54-.4 4.67-6.4 4.67-6.266h17.86 17.87zm-16 9.066v49.334l-5.6-5.6c-3.2-2.934-10.13-7.6-15.6-10.134-20.8-10-45.73-6.666-69.2 9.2-3.2 2.134-6.13 3.734-6.53 3.467-.27-.4 14-22 31.86-48l32.4-47.467 16.4-.133h16.27zm-52.13 50.667c9.46 1.733 20.13 7.333 28.26 14.533l6.8 6.134-5.73 4.133-5.87 4.267-6.4-5.867c-7.46-6.667-17.06-11.6-28.26-14.533-10.14-2.534-17.74-2.4-29.2.533-10.67 2.8-9.47.933 2.93-4.667 11.47-5.2 25.2-6.933 37.47-4.533z"/></g></svg>