<svg fill="none" height="121" viewBox="0 0 312 121" width="312" xmlns="http://www.w3.org/2000/svg" xmlns:xlink="http://www.w3.org/1999/xlink"><clipPath id="a"><path d="m.942383 0h311v121h-311z"/></clipPath><g clip-path="url(#a)" fill="#fff"><path d="m178.943 2.29996c-6 3-8.6 8.60004-8.6 23.80004 0 0 3-3 7.8-4.8 3.5-1.3 6-3 7.8-4.3 5.2-3.9 6-8.60004 6-16.800043-.1 0-8.3-.5-13 2.100003z"/><path d="m142.242 5.80012c-5.2 4.29998-6.5 11.69998-6.5 11.69998l-16.8 64.4-13.8-52.7c-1.3-5.6-3.9-12.5-7.7996-17.3-4.8-6.09998-14.8-6.49998-16-6.49998-.9 0-10.8.4-16 6.49998-3.9 4.8-6.5 11.7-7.8 17.3l-13 52.7-16.8-64.4s-1.3-6.9-6.5-11.69998c-8.2-7.4-20.300017-5.600002-20.300017-5.600002l32.000017 120.499882s10.4.9 15.6-1.7c6.9-3.5 10.4-6 14.3-22.4999 3.9-14.7 14.3-57.5 15.1-60.5.4-1.3 1.3-5.2 3.9-5.2s3.5 3.5 3.9 5.2c.9 3 11.2 45.8 15.0996 60.5 4.3 16.3999 7.3 18.9999 14.3 22.4999 5.2 2.6 15.6 1.7 15.6 1.7l31.8-120.499882s-12.1-1.699998-20.3 5.600002z"/><path d="m191.842 19.6001s-2.2 3-6.5 5.6c-3 1.7-5.6 2.6-8.6 4.3-5.2 2.6-6.5 5.2-6.5 9.1v1.3 6.5 1.3 72.5999s8.2.9 13.4-1.7c6.9-3.5 8.2-6.9 8.2-21.5999v-72.6z"/><path d="m271.342 60.7001 40.6-60.100033s-16.8-2.999997-25.5 4.800003c-5.6 4.80003-11.2 13.80003-11.2 13.80003l-14.7 21.6c-.9 1.3-1.7 2.2-3 2.2s-2.6-1.3-3-2.2l-14.7-21.6s-6-8.6-11.2-13.80003c-8.6-7.8-25.5-4.800003-25.5-4.800003l39.3 60.000033-40.2 59.9999s17.7 2.2 26.4-5.6c5.6-4.8 10.8-13 10.8-13l14.7-21.5999c.9-1.3 1.7-2.2 3-2.2s2.6 1.3 3 2.2l14.7 21.5999s5.6 8.2 10.8 13c8.6 7.8 25.9 5.6 25.9 5.6z"/></g></svg>