<svg fill="none" height="101" viewBox="0 0 292 101" width="292" xmlns="http://www.w3.org/2000/svg" xmlns:xlink="http://www.w3.org/1999/xlink"><clipPath id="a"><path d="m0-.000244h292v101h-292z"/></clipPath><g clip-path="url(#a)"><path d="m291.005 21.3551v68.7859l-9.498 9.2671v-67.2661l9.498-10.7873" fill="#ddd"/><path d="m228.615 21.4021-9.852 10.7419h62.895l9.345-10.7873-62.39.0454" fill="#bbb"/><path d="m150.718 24.3516 61.867-8.6001-5.176 14.8343-58.61 9.295.249-10.6036z" fill="#bbb"/><path d="m212.587 15.7499.048.3643 8.023 61.7824-4.677 13.0239-8.57-60.337" fill="#ddd"/><path d="m92.7785-.00020933 5.6855 19.20410933 54.77 24.7133-4.604-18.3502z" fill="#bbb"/><path d="m92.7785-.00023386-22.0443 52.31853386 3.0161 22.9915 24.7137-56.1059z" fill="#ddd"/><path d="m1 39.8706 4.25069-21.1982 61.11531-9.79638-4.1422 21.62048z" fill="#bbb"/><path d="m66.3664 8.87565 8.9608 59.94605-4.0756 21.0463-9.0274-59.3719z" fill="#ddd"/><g clip-rule="evenodd" fill="#fff" fill-rule="evenodd"><path d="m218.764 32.1424h62.895v67.3484h-62.895zm30.524 50.7847c4.189-.0047 7.434-1.45 9.844-4.3623 2.407-2.9083 3.625-6.8907 3.625-11.984 0-5.2146-1.22-9.2608-3.625-12.1833-2.411-2.9224-5.655-4.3717-9.844-4.3772-4.239.0055-7.507 1.4559-9.916 4.3772-2.403 2.9225-3.621 6.9687-3.623 12.1833.002 5.1172 1.224 9.1039 3.64 12.0036 2.423 2.8974 5.682 4.338 9.899 4.3427zm17.247-34.9609c2.436 2.474 4.279 5.2778 5.524 8.4051 1.245 3.1284 1.868 6.5307 1.868 10.1994 0 3.6686-.623 7.0767-1.868 10.2138-1.245 3.1403-3.088 5.9597-5.526 8.4591-2.333 2.3342-4.96 4.0999-7.868 5.2911-2.906 1.1907-6.035 1.7869-9.372 1.7869-3.461 0-6.652-.5962-9.559-1.7869-2.906-1.192-5.499-2.9589-7.759-5.2942-2.412-2.4971-4.237-5.3251-5.467-8.4751-1.236-3.1493-1.848-6.5504-1.848-10.1947 0-3.6922.611-7.1046 1.829-10.2339 1.218-3.1261 3.053-5.9201 5.486-8.3694 2.31-2.3784 4.93-4.1743 7.848-5.3792 2.92-1.2048 6.083-1.8061 9.47-1.8053 3.364-.0008 6.496.6009 9.394 1.8061 2.894 1.2045 5.516 2.9992 7.848 5.3772z"/><path d="m207.409 30.5853v-.0018l.002.0015zm0 0 8.57 60.3351-61.003 8.5715-8.237-58.3315 3.562-2.7834zm-12.329 7.321c1.037.9365 1.677 2.3662 1.953 4.2401l6.001 40.8285c.077.5237.115 1.0223.115 1.4963 0 1.1978-.25 2.237-.77 3.094-.722 1.2013-1.93 1.924-3.508 2.1536-.322.0474-.634.0705-.938.0705-1.184.0019-2.23-.3721-3.075-1.1156-1.064-.9342-1.714-2.3525-1.984-4.2052l-2.454-16.1313-17.54 2.5778 2.453 16.1316c.077.5194.115 1.0153.115 1.4885 0 1.1821-.245 2.215-.749 3.0748-.703 1.2095-1.87 1.94-3.38 2.1586-.354.0525-.698.0784-1.028.0784-1.209.0023-2.264-.36-3.106-1.0803-1.079-.9221-1.736-2.3487-2.011-4.2261l-6.002-40.8304c-.076-.5281-.116-1.0286-.116-1.5022 0-1.2335.267-2.2942.821-3.1536.763-1.1931 2.02-1.913 3.671-2.1508.288-.0423.569-.0642.844-.0642 1.161-.0027 2.192.396 3.018 1.1759 1.023.962 1.654 2.3772 1.923 4.2025l2.225 15.7027 17.54-2.5813-2.225-15.6996c-.076-.5139-.115-1.0039-.115-1.4688 0-1.2143.263-2.2699.803-3.145.744-1.2111 1.957-1.9447 3.54-2.1723.323-.047.633-.0713.935-.0713 1.182-.002 2.219.376 3.044 1.1242z"/><path d="m153.237 43.918-54.7711-24.7133v-.0024l-24.7137 56.1067 54.7708 24.712zm-35.699 30.8559c3.371-1.8476 6.095-5.1825 8.159-10.0435 1.42-3.3478 2.122-6.4112 2.122-9.1876 0-1.3482-.167-2.6287-.496-3.8453-1.015-3.7211-3.379-6.3533-7.188-7.9738-1.801-.7642-3.539-1.1406-5.221-1.1406-1.922 0-3.774.4932-5.576 1.4861-3.373 1.859-6.128 5.2539-8.239 10.23-1.3761 3.2452-2.0585 6.2279-2.0585 8.9467 0 1.3729.1739 2.6792.5194 3.9221 1.0341 3.7043 3.4211 6.3306 7.2551 7.9647 1.771.7497 3.486 1.1215 5.15 1.1215 1.915-.0008 3.766-.4904 5.573-1.4803zm6.327-39.8375c3.066 1.3001 5.68 3.085 7.832 5.3545 2.15 2.2687 3.811 4.9922 4.976 8.1626 1.101 2.9839 1.651 6.0341 1.651 9.1469 0 .3321-.006.6651-.019.9988-.133 3.4618-.941 6.9421-2.424 10.4376-1.484 3.4959-3.425 6.5057-5.826 9.0156-2.401 2.5077-5.218 4.4889-8.448 5.9299l-.002.0012-.002.0012c-3.07 1.3188-6.176 1.9898-9.307 2.0043h-.08c-3.104.0016-6.169-.6392-9.188-1.9217-3.1555-1.3352-5.8226-3.1359-7.9906-5.3983-2.1688-2.2625-3.8136-4.9468-4.9291-8.0474-1.0513-2.9374-1.5774-5.9436-1.5774-9.0122 0-.3921.0082-.7857.0259-1.179.1516-3.4771.9686-6.9534 2.4406-10.4285 1.4924-3.5159 3.4254-6.5343 5.7991-9.0435 2.3733-2.5108 5.1705-4.4658 8.3805-5.863v.0012c3.067-1.3756 6.178-2.0764 9.326-2.0967l.143-.0008c3.1 0 6.177.6447 9.219 1.9373z"/><path d="m71.2497 89.8707-9.0275-59.3734-.0011.0031-61.222275 9.3741 9.721875 59.487zm-17.4325-10.7191c.7826.2738 1.425.6948 1.9021 1.2648.477.5691.7838 1.2777.9244 2.1038.0599.3458.0897.6784.0897 1.0004.0051 1.2726-.4912 2.3529-1.4493 3.1398-1.199.9847-3.2621 1.6921-6.2288 2.2025l-16.7521 2.8645c-2.6357.4497-4.718.6776-6.2648.6776-1.2185-.0035-2.1038-.1331-2.7062-.4598-.6471-.3557-1.1712-.9569-1.5821-1.7611-.4109-.8077-.716-1.8273-.9275-3.0631-.1477-.8613-.2213-1.7512-.2213-2.6706 0-1.2839.1437-2.622.4281-4.0156.4881-2.3894 1.378-4.8167 2.66-7.2809l.0004-.0016.0012-.0031c1.8061-3.5801 4.7908-7.8841 8.9581-12.9323 1.0682-1.3396 1.861-2.3282 2.3784-2.9627 1.8265-2.3244 2.9726-4.1528 3.4312-5.4317.3349-.9283.5022-1.8711.5022-2.8367 0-.2702-.018-.5429-.0443-.8159l-15.4528 2.606c-.897.1527-1.718.2307-2.4653.2307-1.0972 0-2.0372-.1677-2.8152-.5186-1.318-.5852-2.1355-1.7356-2.3952-3.3044-.0564-.3263-.0842-.6416-.0842-.9463-.0043-1.1677.4281-2.1849 1.2652-2.9702 1.0533-.9918 2.7043-1.6499 4.9401-2.033l18.4626-3.159c1.3878-.2366 2.5735-.3564 3.5621-.3564 1.1974.0019 2.1128.17 2.7634.566.577.3564 1.0443.9216 1.4125 1.6647.3682.7446.6427 1.6725.8331 2.7881.2092 1.224.3126 2.4681.3126 3.7313 0 .4755-.0137.9545-.0435 1.4371-.1093 1.763-.4113 3.5135-.9076 5.2507-.8671 3.0635-3.1286 6.9665-6.7823 11.76l.0001-.0001-.0016.002c-.5507.7348-.9757 1.2906-1.2808 1.6686-.425.5672-1.04 1.3886-1.8445 2.4638l-.0012.0016c-2.3447 3.0889-4.1195 5.7422-5.3235 7.9514-1.078 1.9718-1.6894 3.5899-1.8582 4.821l15.9761-2.7305c1.3921-.2386 2.6259-.3588 3.7054-.3588 1.1458 0 2.1184.1351 2.9233.416zm-12.2966-14.2331h-.0011l.0015-.0012.0011-.0007c-.0005.0006-.001.0013-.0015.0019z"/></g></g></svg>