<svg fill="none" height="52" viewBox="0 0 193 52" width="193" xmlns="http://www.w3.org/2000/svg"><g fill="#fff"><path d="m66.8701 37.7453v-2.8834l10.7149-10.0487h-7.5152v1.9751h-3.0264v-4.7269h14.5738v2.8834l-10.6265 9.991h7.7753v-2.0094h3.0263v4.8189zm24.3136.319c-1.0952.0044-2.1797-.2145-3.187-.6434-1.9661-.8202-3.529-2.3807-4.35-4.3431-.423-1.007-.6409-2.088-.6409-3.1799s.2179-2.1729.6409-3.1798c.8218-1.9616 2.3845-3.5213 4.35-4.3414 1.0092-.4223 2.0926-.6398 3.187-.6398s2.1778.2175 3.187.6398c1.9655.8201 3.5282 2.3798 4.3499 4.3414.4219 1.0072.6392 2.0881.6392 3.1798s-.2173 2.1726-.6392 3.1799c-.821 1.9624-2.3839 3.5229-4.3499 4.3431-1.0074.4287-2.0918.6477-3.187.6434zm0-3.0204c.6615.0031 1.3166-.1293 1.9247-.3891.6082-.2597 1.1564-.6413 1.6108-1.1211.4433-.474.7979-1.0233 1.0473-1.6219.5249-1.2846.5249-2.7233 0-4.0079-.2513-.6011-.6112-1.1508-1.0617-1.622-.4507-.472-.99-.851-1.5872-1.1155-.6121-.2686-1.2734-.4073-1.942-.4073-.6687 0-1.33.1387-1.9421.4073-1.1965.5339-2.1362 1.5138-2.6182 2.7302-.5056 1.2884-.5056 2.7197 0 4.008.4835 1.2154 1.4227 2.1949 2.6182 2.7302.6133.2741 1.2783.4136 1.9502.4091zm17.6353 3.0204c-1.096.0044-2.18-.2145-3.187-.6434-1.966-.8202-3.529-2.3807-4.35-4.3431-.424-1.007-.642-2.088-.642-3.1799s.218-2.1729.642-3.1798c.821-1.9616 2.384-3.5213 4.35-4.3414 1.009-.4223 2.092-.6398 3.187-.6398 1.094 0 2.177.2175 3.187.6398 1.965.8201 3.528 2.3798 4.349 4.3414.422 1.0072.64 2.0881.64 3.1798s-.218 2.1726-.64 3.1799c-.821 1.9624-2.383 3.5229-4.349 4.3431-1.008.4287-2.092.6477-3.187.6434zm0-3.0204c.661.0036 1.316-.1285 1.925-.3883.608-.2598 1.156-.6417 1.61-1.1219.443-.474.798-1.0233 1.047-1.6219.525-1.2846.525-2.7233 0-4.0079-.251-.6011-.611-1.1508-1.061-1.622-.451-.472-.99-.851-1.588-1.1155-.612-.2693-1.275-.4085-1.944-.4085-.67 0-1.332.1392-1.945.4085-1.197.5339-2.136 1.5138-2.618 2.7302-.506 1.2884-.506 2.7197 0 4.008.482 1.2168 1.422 2.1976 2.618 2.7338.615.2736 1.282.4119 1.956.4055zm10.039-12.9753h3.113v1.8021c.48-.655 1.108-1.1873 1.833-1.5534.815-.3983 1.713-.5954 2.62-.5749 1.26 0 2.303.2403 3.127.7208.816.475 1.47 1.1831 1.878 2.0328.506-.8336 1.217-1.5237 2.066-2.0039.934-.5165 1.988-.7752 3.055-.7497.952-.0198 1.9.1378 2.794.4649.758.2819 1.439.7396 1.986 1.3354.537.6042.934 1.3184 1.165 2.0923.261.8861.389 1.8064.377 2.7302v9.3801h-3.238v-9.2071c0-1.2194-.281-2.1974-.843-2.9339-.562-.7364-1.465-1.1041-2.708-1.1029-1.126 0-2.023.3605-2.693 1.0813-.669.7209-1.004 1.8021-1.004 3.2438v8.9188h-3.169v-9.4107c0-1.2015-.276-2.1404-.828-2.8168-.553-.6764-1.431-1.0152-2.635-1.0164-1.165 0-2.082.3731-2.75 1.1192-.668.746-1.003 1.864-1.004 3.3537v8.771h-3.142zm25.952-4.7036c-.009-.2946.042-.588.149-.8626.107-.2747.269-.5249.475-.7359.206-.2101.453-.3752.726-.4851.273-.1098.566-.1618.86-.1528.3-.012.6.0385.88.1483.279.1098.533.2766.745.4896.206.211.368.4612.475.7359.107.2746.158.568.15.8626.008.2944-.043.5875-.15.8618-.107.2744-.269.5243-.475.7349-.212.2134-.465.3804-.745.4906-.28.1101-.58.1609-.88.1491-.297.0118-.593-.039-.869-.1493-.275-.1102-.525-.2774-.731-.4904-.203-.2135-.362-.4653-.467-.7407s-.154-.5688-.143-.8632zm.639 4.7036h3.172v15.6785h-3.172zm5.904 0h3.084v2.1715c.566-.7935 1.318-1.4362 2.191-1.8718.873-.4355 1.839-.6504 2.815-.6259.92-.0124 1.833.1503 2.692.4793.772.2979 1.468.764 2.037 1.3643.575.6289 1.011 1.3711 1.28 2.1787.31.9294.462 1.904.45 2.8834v9.0972h-3.171v-8.8575c0-1.3372-.339-2.4022-1.018-3.1952-.679-.7929-1.678-1.19-2.998-1.1912-.573-.0053-1.142.1032-1.674.319-.505.2084-.961.5203-1.338.9155-.392.4185-.693.9129-.886 1.4525-.221.6092-.33 1.2534-.322 1.9013v8.6502h-3.142zm14.959 0h2.735v-.9011c-.021-1.0202.081-2.0392.305-3.0348.16-.7235.512-1.3909 1.019-1.9319.531-.5165 1.196-.8753 1.919-1.0362.998-.2238 2.02-.326 3.043-.3046h.756v2.9033h-.525c-.608-.01-1.216.0291-1.818.1171-.39.045-.754.2188-1.033.4938-.253.2961-.415.6592-.466 1.0452-.087.5864-.126 1.1789-.116 1.7715v.8705h3.693v2.8185h-3.693v12.8654h-3.084v-12.8654h-2.735zm17.334 16.0029c-1.099.0043-2.186-.2172-3.196-.6506-1.952-.8262-3.506-2.3771-4.333-4.3251-.423-1.0095-.641-2.0928-.641-3.1871 0-1.0942.218-2.1776.641-3.187.821-1.9563 2.376-3.5143 4.333-4.3414 1.012-.4223 2.098-.6397 3.194-.6397 1.097 0 2.183.2174 3.195.6397 1.966.8206 3.528 2.3809 4.35 4.3432.421 1.0095.639 2.0924.639 3.1861 0 1.0938-.218 2.1767-.639 3.1862-.829 1.9534-2.39 3.5057-4.35 4.3251-1.008.4287-2.092.6477-3.187.6434zm0-2.9339c.684.0063 1.361-.1319 1.987-.4055.602-.2641 1.145-.6444 1.599-1.1191.462-.479.83-1.0401 1.084-1.6544.391-.9612.497-2.0145.305-3.0342s-.674-1.9626-1.389-2.7163c-.458-.476-1.007-.8558-1.614-1.1174-.627-.2687-1.303-.4072-1.986-.4072s-1.359.1385-1.986.4072c-.602.2637-1.146.6434-1.6 1.1174-.456.4799-.813 1.0444-1.051 1.6615-.503 1.3137-.503 2.7664 0 4.08.243.6151.605 1.177 1.063 1.6544.454.4751.998.8555 1.6 1.1191.628.2755 1.308.4144 1.994.4073z"/><path clip-rule="evenodd" d="m7.40527.464355c-3.3137 0-6 2.686295-6 6.000005v39.07144c0 3.3137 2.6863 6 6 6h39.07143c3.3137 0 6-2.6863 6-6v-39.07145c0-3.3137-2.6863-5.999995-6-5.999995zm30.73863 13.928245h-5.6982c-.2246 0-.4063.1832-.4063.4096v1.623c0 .2264.1817.4096.4063.4096h1.9313l-19.0411 18.3354v2.0271c0 .2264.1817.4096.4063.4096h6.7376c.2246 0 .4063-.1832.4063-.4096v-1.6252c0-.2265-.1817-.4096-.4063-.4096h-3.5334l17.1792-16.5515v1.6995c0 .2265.1816.4096.4063.4096h1.612.0044c.2246-.0022.4041-.1876.4019-.414v-5.5039c0-.2264-.1817-.4096-.4063-.4096zm-9.5608 2.38h-10.8248v3.6001c0 .2253-.1806.4085-.4041.4096h-1.612c-.2246 0-.4063-.1832-.4063-.4096v-5.5705c0-.2264.1817-.4096.4063-.4096h12.8431c.2235.0011.4041.1843.4041.4096v1.5608c0 .2265-.1817.4096-.4063.4096zm-2.2495 18.3899h9.792v-3.71c0-.2264.1816-.4096.4063-.4096h1.612c.2246.0011.4052.1832.4063.4096v5.7448c0 .2264-.1817.4096-.4063.4096h-11.8103c-.2246 0-.4063-.1832-.4063-.4096v-1.6252c0-.2265.1817-.4096.4063-.4096z" fill-rule="evenodd"/></g></svg>