<svg fill="none" height="24" viewBox="0 0 24 24" width="24" xmlns="http://www.w3.org/2000/svg"><path d="m12 23.625c6.4203 0 11.625-5.2047 11.625-11.625 0-6.42031-5.2047-11.625-11.625-11.625-6.42031 0-11.625 5.20469-11.625 11.625 0 6.4203 5.20469 11.625 11.625 11.625z" fill="#ea4c89"/><path clip-rule="evenodd" d="m12 0c-6.62473 0-12 5.37527-12 12 0 6.6248 5.37527 12 12 12 6.6117 0 12-5.3752 12-12 0-6.62473-5.3883-12-12-12zm7.9262 5.53145c1.4317 1.74404 2.2908 3.96962 2.3168 6.37745-.3384-.065-3.7224-.7549-7.1324-.3254-.0781-.1692-.1431-.3514-.2212-.5336-.2083-.4945-.4425-1.0022-.6768-1.48372 3.7743-1.53578 5.4924-3.74839 5.7136-4.03473zm-7.9262-3.76138c2.603 0 4.9848.97614 6.7939 2.577-.1822.26031-1.731 2.32972-5.3753 3.69631-1.6789-3.0846-3.54005-5.60954-3.8264-6 .7679-.18221 1.5749-.27331 2.4078-.27331zm-4.36005.96312c.2733.36442 2.09543 2.90239 3.80045 5.92189-4.78964 1.27552-9.01957 1.2495-9.47511 1.2495.66378-3.17573 2.81128-5.81782 5.67466-7.17139zm-5.89591 9.27991c0-.1042 0-.2083 0-.3124.44251.0129 5.41431.078 10.52926-1.4577.2994.5726.5727 1.1583.833 1.7439-.1302.0391-.2734.0782-.4035.1172-5.28415 1.705-8.09542 6.3644-8.3297 6.7549-1.6269-1.8091-2.62906-4.2169-2.62906-6.8459zm10.25596 10.2429c-2.3688 0-4.55531-.807-6.28633-2.1606.18221-.3774 2.2646-4.386 8.04333-6.4034.026-.013.0391-.013.0651-.026 1.4447 3.7353 2.0304 6.8719 2.1866 7.77-1.2365.5336-2.5901.82-4.0087.82zm5.7136-1.7571c-.104-.6247-.6507-3.6182-1.9913-7.3015 3.2148-.5076 6.0261.3254 6.3775.4425-.4425 2.8503-2.0825 5.3102-4.3862 6.859z" fill="#c32361" fill-rule="evenodd"/></svg>