<svg fill="none" height="24" viewBox="0 0 24 24" width="24" xmlns="http://www.w3.org/2000/svg" xmlns:xlink="http://www.w3.org/1999/xlink"><clipPath id="a"><path d="m0 0h24v24h-24z"/></clipPath><g clip-path="url(#a)"><path d="m8.00006 24c2.20804 0 4.00004-1.792 4.00004-4v-4.0001h-4.00004c-2.20801 0-4.00006 1.7921-4.00006 4.0001s1.79205 4 4.00006 4z" fill="#0acf83"/><path d="m4 12c0-2.20803 1.79205-4.00006 4.00006-4.00006h4.00004v7.99996h-4.00004c-2.20801.0001-4.00006-1.7919-4.00006-3.9999z" fill="#a259ff"/><path d="m4 4.00003c0-2.208 1.79205-4.00003 4.00006-4.00003h4.00004v7.99997h-4.00004c-2.20801 0-4.00006-1.79194-4.00006-3.99994z" fill="#f24e1e"/><path d="m12 0h4.0001c2.208 0 4 1.79203 4 4.00003s-1.792 3.99994-4 3.99994h-4.0001z" fill="#ff7262"/><path d="m20.0001 12c0 2.208-1.792 4-4 4-2.2081 0-4.0001-1.792-4.0001-4 0-2.20803 1.792-4.00006 4.0001-4.00006 2.208 0 4 1.79203 4 4.00006z" fill="#1abcfe"/></g></svg>