<svg fill="none" height="134" viewBox="0 0 134 134" width="134" xmlns="http://www.w3.org/2000/svg" xmlns:xlink="http://www.w3.org/1999/xlink"><linearGradient id="a" gradientUnits="userSpaceOnUse" x1="1.30515" x2="122.165" y1="131.867" y2="11.0069"><stop offset="0" stop-color="#ffd521"/><stop offset=".05" stop-color="#ffd521"/><stop offset=".501119" stop-color="#f50000"/><stop offset=".95" stop-color="#b900b4"/><stop offset=".950079" stop-color="#b900b4"/><stop offset="1" stop-color="#b900b4"/></linearGradient><g fill="url(#a)"><path d="m110.116 31.0217c0-4.4227-3.585-7.9937-7.991-7.9937-4.4061 0-7.9937 3.571-7.9937 7.9937 0 4.4064 3.5876 7.9774 7.9937 7.9774 4.406 0 7.991-3.571 7.991-7.9774z"/><g clip-rule="evenodd" fill-rule="evenodd"><path d="m32.4467 66.5447c0-18.8714 15.2838-34.1881 34.1553-34.1881 18.8714 0 34.172 15.3167 34.172 34.1881 0 18.8552-15.3006 34.1553-34.172 34.1553-18.8715 0-34.1553-15.3001-34.1553-34.1553zm11.9791 0c0 12.2423 9.9339 22.1599 22.1762 22.1599 12.2457 0 22.1927-9.9176 22.1927-22.1599 0-12.262-9.947-22.1924-22.1927-22.1924-12.2423 0-22.1762 9.9304-22.1762 22.1924z"/><path d="m132.743 39.1042c-.326-7.0896-1.444-11.9332-3.105-16.1519-1.69-4.3768-3.955-8.086-7.665-11.7952-3.692-3.69264-7.401-5.95835-11.778-7.66817-4.235-1.64422-9.063-2.775476-16.1557-3.084492-7.0928-.3420634-9.3583-.40446852-27.4373-.40446852-18.0625 0-20.3445.06240512-27.4373.40446852-7.0766.309016-11.9005 1.440272-16.1554 3.084492-4.3603 1.70982-8.0695 3.97553-11.7621 7.66817-3.7092 3.7092-5.97491 7.4184-7.68153 11.7952-1.64422 4.2187-2.762155 9.0623-3.104218 16.1519-.309016 7.0928-.3879352 9.3618-.3879352 27.4408 0 18.0625.0789192 20.328.3879352 27.4208.342063 7.0762 1.459998 11.9172 3.104218 16.1552 1.70662 4.36 3.97233 8.086 7.68153 11.779 3.6926 3.692 7.4018 5.975 11.7621 7.681 4.2549 1.644 9.0788 2.762 16.1554 3.088 7.0928.326 9.3748.404 27.4373.404 18.079 0 20.3445-.078 27.4373-.404 7.0927-.326 11.9207-1.444 16.1557-3.088 4.377-1.706 8.086-3.989 11.778-7.681 3.71-3.693 5.975-7.419 7.665-11.779 1.661-4.238 2.779-9.079 3.105-16.1552.325-7.0928.404-9.3583.404-27.4208 0-18.079-.079-20.348-.404-27.4408zm-11.98 54.3158c-.296 6.4879-1.381 10.013-2.282 12.354-1.21 3.104-2.653 5.324-4.995 7.652-2.315 2.328-4.534 3.768-7.638 4.965-2.342.914-5.8799 2.003-12.3675 2.312-7.0139.309-9.0922.375-26.8785.375-17.7698 0-19.8646-.066-26.8785-.375-6.4876-.309-10.0093-1.398-12.3508-2.312-3.1205-1.197-5.3235-2.637-7.6516-4.965-2.3447-2.328-3.7881-4.548-4.9818-7.652-.9011-2.341-2.0025-5.8661-2.2822-12.354-.3418-7.0139-.4045-9.1249-.4045-26.875 0-17.7863.0627-19.8811.4045-26.895.2797-6.4876 1.3811-10.0094 2.2822-12.3705 1.1937-3.1008 2.6371-5.3073 4.9818-7.6354 2.3281-2.3247 4.5311-3.7684 7.6516-4.9783 2.3415-.9174 5.8632-1.9895 12.3508-2.2985 7.0139-.3093 9.1087-.3882 26.8785-.3882 17.7863 0 19.8646.0789 26.8785.3882 6.4876.309 10.0255 1.3811 12.3675 2.2985 3.104 1.2099 5.323 2.6536 7.638 4.9783 2.342 2.3281 3.785 4.5346 4.995 7.6354.901 2.3611 1.986 5.8829 2.282 12.3705.326 7.0139.405 9.1087.405 26.895 0 17.7501-.079 19.8611-.405 26.875z"/></g></g></svg>