<svg fill="none" height="24" viewBox="0 0 24 24" width="24" xmlns="http://www.w3.org/2000/svg" xmlns:xlink="http://www.w3.org/1999/xlink"><clipPath id="a"><path d="m0 0h24v24h-24z"/></clipPath><g clip-path="url(#a)" fill="#000100"><path d="m12 2.16094c3.2063 0 3.5859.01406 4.8469.07031 1.1719.05156 1.8047.24844 2.2265.4125.5579.21563.961.47813 1.3782.89531.4218.42188.6797.82032.8953 1.37813.164.42187.3609 1.05937.4125 2.22656.0562 1.26562.0703 1.64531.0703 4.84685 0 3.2063-.0141 3.586-.0703 4.8469-.0516 1.1719-.2485 1.8047-.4125 2.2266-.2156.5578-.4782.9609-.8953 1.3781-.4219.4219-.8203.6797-1.3782.8953-.4218.1641-1.0593.3609-2.2265.4125-1.2656.0562-1.6453.0703-4.8469.0703-3.20625 0-3.58594-.0141-4.84687-.0703-1.17188-.0516-1.80469-.2484-2.22657-.4125-.55781-.2156-.96093-.4781-1.37812-.8953-.42188-.4219-.67969-.8203-.89531-1.3781-.16407-.4219-.36094-1.0594-.4125-2.2266-.05625-1.2656-.07032-1.6453-.07032-4.8469 0-3.20622.01407-3.58591.07032-4.84685.05156-1.17188.24843-1.80469.4125-2.22656.21562-.55781.47812-.96094.89531-1.37813.42187-.42187.82031-.67968 1.37812-.89531.42188-.16406 1.05938-.36094 2.22657-.4125 1.26093-.05625 1.64062-.07031 4.84687-.07031zm0-2.16094c-3.25781 0-3.66562.0140625-4.94531.0703125-1.275.0562505-2.15156.2624995-2.91094.5578125-.79219.309375-1.4625.717185-2.12812 1.387495-.67032.66563-1.07813 1.33594-1.387505 2.12344-.295313.76407-.501562 1.63594-.5578125 2.91094-.05625 1.28437-.0703125 1.69219-.0703125 4.95 0 3.2578.0140625 3.6656.0703125 4.9453.0562505 1.275.2624995 2.1516.5578125 2.911.309375.7921.717185 1.4625 1.387505 2.1281.66562.6656 1.33593 1.0781 2.12343 1.3828.76407.2953 1.63594.5015 2.91094.5578 1.27969.0562 1.6875.0703 4.9453.0703s3.6656-.0141 4.9453-.0703c1.275-.0563 2.1516-.2625 2.911-.5578.7875-.3047 1.4578-.7172 2.1234-1.3828s1.0781-1.336 1.3828-2.1235c.2953-.764.5016-1.6359.5578-2.9109.0563-1.2797.0703-1.6875.0703-4.9453 0-3.25782-.014-3.66564-.0703-4.94532-.0562-1.275-.2625-2.15157-.5578-2.91094-.2953-.79688-.7031-1.46719-1.3734-2.13282-.6656-.66562-1.336-1.07812-2.1235-1.382808-.764-.295312-1.6359-.501562-2.9109-.557812-1.2844-.0609375-1.6922-.075-4.95-.075z"/><path d="m12 5.83594c-3.40312 0-6.16406 2.76094-6.16406 6.16406 0 3.4031 2.76094 6.1641 6.16406 6.1641 3.4031 0 6.1641-2.761 6.1641-6.1641 0-3.40312-2.761-6.16406-6.1641-6.16406zm0 10.16246c-2.20781 0-3.99844-1.7906-3.99844-3.9984 0-2.20781 1.79063-3.99844 3.99844-3.99844 2.2078 0 3.9984 1.79063 3.9984 3.99844 0 2.2078-1.7906 3.9984-3.9984 3.9984z"/><path d="m19.8469 5.5922c0 .79688-.6469 1.43907-1.4391 1.43907-.7969 0-1.439-.64688-1.439-1.43907 0-.79687.6468-1.43906 1.439-1.43906s1.4391.64687 1.4391 1.43906z"/></g></svg>