<svg fill="none" height="24" viewBox="0 0 24 24" width="24" xmlns="http://www.w3.org/2000/svg" xmlns:xlink="http://www.w3.org/1999/xlink"><clipPath id="a"><path d="m0 0h24v24h-24z"/></clipPath><g clip-path="url(#a)"><path d="m22.2283 0h-20.45663c-.46988 0-.920509.186657-1.252761.518909s-.518909.782881-.518909 1.252761v20.45663c0 .4699.186657.9205.518909 1.2528.332252.3322.782881.5189 1.252761.5189h20.45663c.4699 0 .9205-.1867 1.2528-.5189.3322-.3323.5189-.7829.5189-1.2528v-20.45663c0-.46988-.1867-.920509-.5189-1.252761-.3323-.332252-.7829-.518909-1.2528-.518909zm-15.07497 20.445h-3.60833v-11.46167h3.60833zm-1.80666-13.05c-.40931-.0023-.80875-.1258-1.14794-.35491-.33918-.22911-.60289-.55356-.75785-.9324-.15497-.37884-.19423-.7951-.11285-1.19624.08138-.40113.27977-.76917.57013-1.05767.29035-.28849.65966-.48451 1.06131-.56332s.81764-.03687 1.19548.12053c.37784.15739.70059.42318.92752.76382.22692.34065.34785.74088.34753 1.15019.00386.27403-.04749.54604-.15099.7998-.1035.25377-.25703.4841-.45144.67727-.19441.19316-.42572.34521-.68015.44708-.25442.10187-.52675.15147-.80075.14585zm15.10663 13.06h-3.6066v-6.2617c0-1.8466-.785-2.4166-1.7984-2.4166-1.07 0-2.12.8066-2.12 2.4633v6.215h-3.6083v-11.46333h3.47v1.58833h.0467c.3483-.705 1.5683-1.91 3.43-1.91 2.0133 0 4.1883 1.195 4.1883 4.695z" fill="#0a66c2"/></g></svg>