<svg fill="none" height="65" viewBox="0 0 65 65" width="65" xmlns="http://www.w3.org/2000/svg" xmlns:xlink="http://www.w3.org/1999/xlink"><linearGradient id="a" gradientUnits="userSpaceOnUse" x1="32.5" x2="32.5" y1="0" y2="65"><stop offset="0" stop-color="#6364ff"/><stop offset="1" stop-color="#563acc"/></linearGradient><path clip-rule="evenodd" d="m48.5117.836066c7.2156 1.066504 13.3026 6.570354 14.2422 13.554334.4093 4.1539.2067 10.3953.1082 13.4292-.0246.755-.0426 1.3114-.0432 1.5875 0 .4077-.0591 4.1301-.0827 4.523-.6324 9.9796-6.8552 13.9206-13.3942 15.1762-.0706.0212-.1505.0367-.2324.0526-.021.0041-.042.0082-.0631.0124-4.1456.8095-8.5867 1.0251-12.8002 1.1433-1.0076.0266-2.0123.0266-3.0198.0266-4.1895.0011-8.3643-.4947-12.4368-1.4771-.0216-.0056-.0442-.0061-.066-.0013-.0218.0047-.0421.0146-.0594.0287s-.031.0321-.04.0524c-.009.0204-.0131.0427-.0119.0649.1151 1.3258.4032 2.6309.8569 3.882.5643 1.4476 2.5352 4.9248 9.8631 4.9248 4.2581.0078 8.5021-.488 12.6437-1.4772.021-.0048.0429-.0049.0639-.0002.0211.0047.0409.014.0579.0273s.0308.0303.0404.0496c.0096.0194.0147.0406.0151.0622v4.8982c-.0008.0231-.0068.0457-.0176.0662-.0107.0204-.0259.0382-.0445.052-1.2949.9385-3.0361 1.4902-4.561 1.9734-.0689.0218-.1372.0434-.2051.065-.6934.2187-1.3957.4107-2.1068.5761-6.4642 1.4722-13.2107 1.1162-19.484-1.0281-5.8594-2.0562-11.83995-7.0962-13.31736-13.1525-.78898-3.2792-1.34489-6.6101-1.66356-9.9678-.33483-3.6718-.44671-7.3498-.55875-11.0329-.0422-1.3873-.08442-2.7753-.13858-4.164-.13888-3.5392-.0591-7.3975.68847-10.8777 1.55423-7.06668 7.96028-12.01218 14.97498-13.049134.1442-.021342.3034-.049355.4899-.082159 1.3883-.244196 4.2861-.753907 13.708-.753907h.0798c10.6846 0 15.297.655854 16.5144.836066zm3.8826 38.751534v-17.3506c.002-3.5471-.9012-6.3636-2.7096-8.4493-1.8733-2.0828-4.3228-3.1522-7.3604-3.1522-3.5133 0-6.1726 1.353-7.9455 4.0562l-1.7138 2.8716-1.7108-2.8716c-1.7729-2.7032-4.4322-4.0562-7.9514-4.0562-3.0405 0-5.49 1.0694-7.3575 3.1522-1.8103 2.0877-2.7155 4.9041-2.7155 8.4493v17.3506h6.8729v-16.8395c0-3.5452 1.4922-5.3532 4.4795-5.3532 3.3035 0 4.9612 2.1389 4.9612 6.3636v9.2174h6.8344v-9.2174c0-4.2247 1.6547-6.3636 4.9582-6.3636 3.0051 0 4.4825 1.808 4.4825 5.3532v16.8395z" fill="url(#a)" fill-rule="evenodd"/></svg>