<svg fill="none" height="40" viewBox="0 0 40 40" width="40" xmlns="http://www.w3.org/2000/svg"><g fill="#ff6154"><path d="m17 20h5.667c.7956 0 1.5587-.3161 2.1213-.8787s.8787-1.3257.8787-2.1213-.3161-1.5587-.8787-2.1213-1.3257-.8787-2.1213-.8787h-5.667z"/><path clip-rule="evenodd" d="m20 40c11.046 0 20-8.954 20-20s-8.954-20-20-20-20 8.954-20 20 8.954 20 20 20zm-7-30h9.667c1.8565 0 3.637.7375 4.9497 2.0503 1.3128 1.3127 2.0503 3.0932 2.0503 4.9497s-.7375 3.637-2.0503 4.9497c-1.3127 1.3128-3.0932 2.0503-4.9497 2.0503h-5.667v6h-4z" fill-rule="evenodd"/></g></svg>