<svg fill="none" height="146" viewBox="0 0 129 146" width="129" xmlns="http://www.w3.org/2000/svg"><path d="m95.551 52.591c9.407 6.721 20.931 10.6755 33.377 10.6755v-23.9385c-2.355.0005-4.705-.245-7.009-.733v18.843c-12.446 0-23.968-3.9545-33.3775-10.675v48.8515c0 24.4385-19.821 44.2475-44.27 44.2475-9.1225 0-17.6015-2.757-24.645-7.484 8.039 8.216 19.25 13.312 31.653 13.312 24.4505 0 44.2725-19.81 44.2725-44.249v-48.85zm8.647-24.151c-4.8075-5.2495-7.964-12.0335-8.647-19.5335v-3.079h-6.6425c1.672 9.5325 7.375 17.6765 15.2895 22.6125zm-69.1075 85.185c-2.686-3.52-4.1375-7.826-4.131-12.254 0-11.1765 9.066-20.239 20.251-20.239 2.0845-.0005 4.1565.3185 6.143.9485v-24.4735c-2.3215-.318-4.6645-.453-7.0065-.4035v19.049c-1.988-.63-4.061-.95-6.146-.948-11.185 0-20.2505 9.0615-20.2505 20.24 0 7.9045 4.5315 14.7475 11.14 18.0805z" fill="#ff004f"/><path d="m88.5415 46.7625c9.4095 6.7205 20.9315 10.675 33.3775 10.675v-18.843c-6.947-1.479-13.097-5.1075-17.721-10.1545-7.915-4.9365-13.6175-13.0805-15.2895-22.6125h-17.448v95.6125c-.0395 11.147-9.09 20.173-20.251 20.173-6.577 0-12.42-3.134-16.1205-7.988-6.608-3.333-11.1395-10.177-11.1395-18.08 0-11.1775 9.0655-20.24 20.2505-20.24 2.143 0 4.2085.3335 6.146.948v-19.049c-24.0195.496-43.337 20.112-43.337 44.237 0 12.043 4.8105 22.96 12.618 30.937 7.0435 4.727 15.5225 7.485 24.645 7.485 24.4495 0 44.27-19.811 44.27-44.2485v-48.852z" fill="#000"/><path d="m121.919 38.5945v-5.095c-6.265.0095-12.406-1.744-17.721-5.06 4.705 5.1485 10.9 8.6985 17.721 10.155zm-33.0105-32.767c-.1595-.911-.282-1.828-.367-2.7485v-3.079h-24.091v95.614c-.0385 11.145-9.0885 20.171-20.2505 20.171-3.277 0-6.371-.778-9.111-2.159 3.7005 4.853 9.5435 7.986 16.1205 7.986 11.16 0 20.212-9.024 20.251-20.171v-95.6135zm-38.5615 51.3765v-5.424c-2.013-.275-4.0425-.413-6.0745-.412-24.4515-.0005-44.2725 19.81-44.2725 44.246 0 15.32 7.79 28.822 19.6275 36.764-7.8075-7.977-12.618-18.895-12.618-30.938 0-24.124 19.317-43.74 43.3375-44.236z" fill="#00f2ea"/></svg>