<svg fill="none" height="24" viewBox="0 0 24 24" width="24" xmlns="http://www.w3.org/2000/svg" xmlns:xlink="http://www.w3.org/1999/xlink"><clipPath id="a"><path d="m0 0h24v24h-24z"/></clipPath><g clip-path="url(#a)"><path d="m23.5221 6.18547c-.1357-.51058-.4031-.97658-.7755-1.35134-.3723-.37477-.8366-.64516-1.3463-.78411-1.8764-.50455-9.3764-.50455-9.3764-.50455s-7.49997 0-9.37634.50455c-.5097.13895-.97398.40934-1.34635.78411-.372368.37476-.639779.84076-.775466 1.35134-.5018182 1.88455-.5018182 5.81453-.5018182 5.81453s0 3.93.5018182 5.8146c.135687.5105.403098.9765.775466 1.3513.37237.3748.83665.6452 1.34635.7841 1.87637.5046 9.37634.5046 9.37634.5046s7.5 0 9.3764-.5046c.5097-.1389.974-.4093 1.3463-.7841.3724-.3748.6398-.8408.7755-1.3513.5018-1.8846.5018-5.8146.5018-5.8146s0-3.92998-.5018-5.81453z" fill="#ff0302"/><path d="m9.56934 15.5687v-7.1373l6.27276 3.5686z" fill="#fefefe"/></g></svg>