<svg fill="none" height="18" viewBox="0 0 25 18" width="25" xmlns="http://www.w3.org/2000/svg"><path clip-rule="evenodd" d="m22.7466 1.83407c.3724.37476.6398.84076.7755 1.35134.5018 1.88455.5018 5.81453.5018 5.81453s0 3.92996-.5018 5.81456c-.1357.5105-.4031.9765-.7755 1.3513-.3723.3748-.8366.6452-1.3463.7841-1.8764.5046-9.3764.5046-9.3764.5046s-7.49997 0-9.37634-.5046c-.5097-.1389-.97398-.4093-1.34635-.7841-.372368-.3748-.639779-.8408-.775466-1.3513-.5018182-1.8846-.5018182-5.81456-.5018182-5.81456s0-3.92998.5018182-5.81453c.135687-.51058.403098-.97658.775466-1.35134.37237-.37477.83665-.64516 1.34635-.78411 1.87637-.50455 9.37634-.50455 9.37634-.50455s7.5 0 9.3764.50455c.5097.13895.974.40934 1.3463.78411zm-13.17726 3.59733v7.1373l6.27276-3.5687z" fill="#ff0302" fill-rule="evenodd"/></svg>