<svg fill="none" height="100" viewBox="0 0 64 100" width="64" xmlns="http://www.w3.org/2000/svg" xmlns:xlink="http://www.w3.org/1999/xlink"><clipPath id="a"><path d="m0 0h63.0435v100h-63.0435z"/></clipPath><g clip-path="url(#a)" clip-rule="evenodd" fill="#141414" fill-rule="evenodd"><path d="m26.9596 100c1.0696 0 2.1392-.281 3.0829-.8435l27.2434-16.3125c1.7617-1.0625 3.2088-2.5312 4.2154-4.2812 1.0067-1.7813 1.5415-3.75 1.5415-5.7813v-59.5625c0-.6875-.1258-1.3438-.3775-2-.2516-.625-.6292-1.2188-1.1325-1.68751-.4719-.46875-1.0696-.875-1.6988-1.125-.6291-.25-1.3212-.40625-2.0133-.40625-.9438 0-1.8561.28125-2.6426.78125l-13.2756 7.90621c2.6425 2.9063 4.0896 6.6563 4.0896 10.5626v45.6562c0 1.75-.4404 3.4688-1.3212 4.9688-.8809 1.5-2.1707 2.75-3.6807 3.625-1.5415.875-3.2717 1.3125-5.0334 1.2812-1.7617 0-3.4919-.5-5.002-1.4062l-10.0039-5.9688v18.6563c0 .7812.1573 1.5625.4405 2.2812.3145.7188.755 1.375 1.2898 1.9375.5662.5625 1.2269 1 1.9504 1.2813.7236.2812 1.51.4372 2.2965.4372z"/><path d="m24.6952 22.3438 10.1297-6.0625-25.82768-15.43755c-.94376-.5625-1.9819-.84375-3.0515-.84375-.78647 0-1.54149.15625-2.26504.46875s-1.38419.71875-1.91899 1.28125c-.56625.5625-.97522 1.1875-1.289808 1.90625s-.471882 1.46875-.471882 2.25v45.65625c0 2.0312.503341 4.0625 1.54148 5.8438 1.00668 1.7812 2.45379 3.2812 4.24694 4.3437l11.26228 6.7187v-32.5937c0-2.7188.7235-5.4062 2.0763-7.75 1.3527-2.375 3.2717-4.3438 5.6311-5.75z"/><path d="m21.0138 35.8751v34.9375l12.0173 7.1875c.9123.5625 1.9505.8437 3.0201.8437.7864 0 1.5729-.1562 2.265-.4687.7236-.3125 1.3842-.75 1.919-1.2813.5662-.5625.9752-1.1875 1.2898-1.9062.3146-.7188.4404-1.5.4404-2.25v-45.6563c0-1.5937-.3146-3.1562-.9437-4.5937-.6292-1.4688-1.5415-2.7813-2.674-3.875l-11.6398 6.9375c-1.7617 1.0625-3.2088 2.5312-4.2155 4.3125-1.0067 1.7812-1.5415 3.7812-1.5415 5.8125z"/></g></svg>