<svg fill="none" height="322" viewBox="0 0 288 322" width="288" xmlns="http://www.w3.org/2000/svg" xmlns:xlink="http://www.w3.org/1999/xlink"><clipPath id="a"><path d="m0 0h288v321.488h-288z"/></clipPath><g clip-path="url(#a)" fill="#000"><path d="m143.964 31.2595 54.982 30.8492 27.877-15.5956-82.859-46.5131-138.40284 77.7044 27.73694 15.5956z"/><path d="m254.561 62.1088-110.596 62.0402-54.9806-30.849-27.8076 15.595 82.7882 46.446 138.474-77.6366z"/><path d="m27.8073 166.49-27.8073-15.595v92.889l138.403 77.704v-31.191l-110.5957-62.108z"/><path d="m0 119.702 110.596 62.041v61.698l27.807 15.664v-92.958l-138.403-77.636z"/><path d="m232.386 150.894v-31.191l-82.859 46.445v155.34l27.807-15.596v-124.149z"/><path d="m260.122 104.107v124.08l-54.981 30.918v31.191l82.859-46.513v-155.272z"/></g></svg>