<svg height="700pt" preserveAspectRatio="xMidYMid meet" viewBox="0 0 700 700" width="700pt" xmlns="http://www.w3.org/2000/svg"><g transform="matrix(.1 0 0 -.1 0 700)"><path d="m1237 6985c-131-50-239-132-307-235-36-53-72-163-96-286-32-171-29-856 6-1759 11-273 35-611 80-1150 43-513 50-627 56-975 6-381 12-446 74-765 100-515 115-662 135-1240 8-253 20-477 26-498 28-105 195-103 218 3 9 44-13 845-29 1005-16 172-54 434-95 646-77 412-77 403-85 824-7 340-15 464-59 975-66 769-79 956-91 1385-5 198-15 538-21 755-11 393-6 556 21 753 21 146 72 248 163 320 50 41 135 49 184 18 69-43 85-112 103-441 27-484 95-1213 136-1450 16-95 113-569 149-730 28-126 68-236 97-267 48-51 156-50 196 2 11 14 58 100 105 192 85 167 85 169 132 378 72 323 350 1421 390 1541 71 214 162 354 274 426 66 42 99 38 150-17 60-65 81-121 94-252 8-85 8-151-1-265-15-195-36-312-127-693-95-401-112-480-124-595-15-137 7-275 55-348 14-21 12-26-50-99-113-135-189-283-222-435-18-84-21-276-5-357 16-77 13-166-5-209-16-39-71-102-88-102-6 0-38 23-71 52-226 194-453 335-664 415-112 42-191 30-219-33-16-33-15-49 3-84 17-32 56-56 157-93 183-69 364-187 571-371l78-69-28-29c-47-50-156-126-229-160-59-28-80-33-146-33-71 0-83 3-158 43-88 45-115 50-159 27-28-14-61-68-61-99 0-46 111-126 230-166 261-89 576 66 856 421 97 123 164 188 230 218 103 49 214 34 298-40 61-54 92-108 117-210 18-71 21-102 16-214-7-176-42-279-148-437-55-83-206-231-297-291-232-155-472-219-837-223-115-2-216-3-223-3-8-1-27-14-43-30-60-60-24-145 72-171 31-9 109-11 259-7 237 6 362 26 550 88 108 36 272 112 343 159 69 47 81 38 74-54-15-174-133-466-262-644-84-118-93-141-68-184 10-18 36-41 57-52 76-37 138 6 247 170 120 180 205 377 244 569 9 45 20 164 24 270 8 201 15 233 63 290 14 17 33 45 42 62 10 21 34 42 64 57 29 15 72 53 112 97 106 121 473 489 487 489 10 0 13-45 13-222 0-477-41-703-226-1253-149-446-224-758-228-947-1-82 1-89 25-113 50-51 141-49 174 2 11 17 29 94 47 203 42 252 84 411 213 795 210 627 226 734 257 1675 16 469 15 522-11 594-12 33-35 81-52 108-98 152-340 271-515 254l-62-6-12 47c-30 123-107 233-210 302-87 58-159 81-278 91-116 9-135 19-152 79-14 51-12 180 5 292 7 52 48 237 89 410 129 542 150 670 149 934 0 201-13 275-74 403-44 91-136 182-215 212-87 32-198 25-287-18-125-62-266-221-342-385-64-139-90-229-279-967-85-332-135-556-166-740-25-148-35-182-68-233l-26-39-33 139c-116 491-197 1156-233 1928-6 127-17 265-25 307-28 156-118 283-241 344-48 24-74 29-139 31-50 2-94-3-118-12zm2248-2919c101-42 153-125 162-253 3-45 0-96-6-120-10-36-209-354-246-391-10-12-24-11-84 3-52 13-91 16-148 11-43-3-91-7-108-9-46-3-58 32-58 177 1 135 21 234 73 344 63 134 130 210 215 240 44 16 160 14 200-2zm622-431c135-40 227-204 202-359-20-124-60-177-326-446l-243-244v99c0 163-38 291-120 410-22 32-30 53-26 68 11 40 260 400 298 430 33 27 107 55 149 56 8 1 38-6 66-14z"/><path d="m5601 5405c-91-32-162-78-230-150-90-95-117-192-87-318 58-246 259-399 506-385 200 12 384 190 398 387 13 184-104 375-278 454-95 43-207 48-309 12zm227-225c60-43 94-107 100-189 5-77-15-130-68-174-88-75-208-51-285 56-36 50-46 141-23 197 51 122 186 176 276 110z"/></g></svg>