<svg fill="none" height="378" viewBox="0 0 471 378" width="471" xmlns="http://www.w3.org/2000/svg"><path clip-rule="evenodd" d="m103 31.6c31.6-44.8 69.9-36.10003 89.8-4.8 16.5 26.1 61.4 119.3 75.7 188.7 6.3 33.5 3.5 55.8-8.5 71.5-12.7 16.5-51.6 30.5-74.1-.3-1.684-2.317-3.985-6.023-6.834-10.609-15.592-25.103-47.57-76.587-84.2659-71.091-16.2 2.4-24.4 20-30.4 43.3-9.9 38.3-28.8 45.2-43.5 41.2-18.40004-5.1-27.00001-28.4-15.10001-63 19.10001-55.5 68.49991-154.1 97.19991-194.9zm21 93.3c4 25.4 42.1 37.3 53.1 27.2 8.1-6.9 8.5-27.4-12.2-49.9-6-6.6-12.9-8.1-19.1-6.8-10.3 2.2-24 15.9-21.8 29.5zm301.443 85.896c-11.064 9.637-21.76 18.954-19.743 31.504 1.947 12.244 14.32 15.728 27.709 19.497 17.558 4.943 36.861 10.378 36.691 36.703-.1 27.2-22.3 50.1-46.2 63-35.7 19.3-105.9 24.6-123.5-2.8-14.1-21.8-3.3-53.6 19.2-89.5 18.3-29.2 16.8-53.8 4.4-80.4-4.192-8.941-9.733-17.331-15.255-25.692-9.361-14.175-18.666-28.265-21.245-44.808-3.9-24.8 9.3-49.9 28-66.7 20.8-18.7 79-56.50003 102.4-26.9 14.763 18.6307-2.673 40.9116-19.473 62.3808-14.04 17.9412-27.636 35.3152-21.627 49.5192 4.525 10.613 18.367 11.184 32.487 11.767 12.091.499 24.386 1.006 31.213 7.833 7.5 7.6 9.2 19 5.7 29.6-3.166 9.674-12.075 17.433-20.757 24.996z" fill="#f1fa3b" fill-rule="evenodd"/></svg>