<svg fill="none" height="32" viewBox="0 0 32 32" width="32" xmlns="http://www.w3.org/2000/svg"><g clip-rule="evenodd" fill-rule="evenodd"><path d="m5.21143 11.9791c.00013.0057.00025.0105.00025.0144v8.0076c.03198-.4343.60652-2.6582 10.81362-3.2626 10.8429-.6421 10.7712-2.9774 10.7623-3.2667-.0002-.0067-.0004-.0123-.0004-.0168v-8.01701c0 .29969-.4096 2.7387-10.5684 3.27191-11.07076.58112-11.01399 2.9887-11.00737 3.2692zm0 13.1275c.00013.0056.00025.0105.00025.0144v6.238c0 .5058.55961.8123.9848.5381 1.20521-.7772 3.88232-1.679 9.82882-2.0311 10.8429-.6421 10.7712-2.9775 10.7623-3.2668-.0002-.0067-.0004-.0123-.0004-.0168v-8.0171c0 .2997-.4096 2.7387-10.5684 3.272-11.07075.5812-11.01399 2.9886-11.00737 3.2693z" fill="#27223e"/><path d="m5.21045 6.89347c.00014-.00568.00025-.01048.00025-.01439v-6.238118c0-.505786.55962-.812358.98481-.538148 1.2052.777282 3.88229 1.679076 9.82879 2.031186 10.8429.64208 10.7712 2.97744 10.7623 3.26679-.0002.00674-.0003.01237-.0003.01684v8.01697c0-.2996-.4096-2.7387-10.5684-3.272-11.07086-.5811-11.01406-2.98866-11.00745-3.26913zm.00098 13.12833c.00013-.0057.00025-.0105.00025-.0144v-8.0075c.03198.4343.60652 2.658 10.81362 3.2625 10.8429.6421 10.7712 2.9774 10.7623 3.2667-.0002.0067-.0004.0124-.0004.0168v8.017c0-.2996-.4096-2.7386-10.5684-3.2719-11.07077-.5811-11.01399-2.9887-11.00737-3.2692z" fill="#4c3f85"/></g></svg>