<svg fill="none" height="32" viewBox="0 0 32 32" width="32" xmlns="http://www.w3.org/2000/svg"><g fill="#27cf8b"><path d="m6.02072 7.46506c1.05929-.68521 2.60125-1.24667 4.25408-1.62055 2.7662-.65771 5.5665-1.16348 8.3882-1.51503 2.3808-.28529 2.6599-1.50201 2.6599-1.50201s.4906-2.193735-1.1545-2.657494c-1.645-.463759-5.2755.11594-7.7789.609661-1.8016.354333-5.61867 1.336563-6.71579 3.138193-1.09711 1.80162.13046 3.33229.13046 3.33229s-.01044-.01042.21655.21494z"/><path d="m9.91244 11.8474c1.69586-.4872 4.71456-1.0422 5.97086-1.222.9575-.1302 4.8581-.69299 6.6858-.89491 1.3045-.1446 2.3925-.19019 3.5483-.78161 1.1558-.59143 1.0241-2.90631-.0952-3.45344-1.1193-.54714-4.352-.05993-7.0445.31525-2.1995.30613-7.0367 1.15939-9.35878 1.77687-1.65676.44292-3.45703 1.14507-4.29715 2.83334-.84012 1.6883.73446 3.2307.73446 3.2307 1.46238-1.1854 2.9326-1.5385 3.85621-1.8042z"/><path d="m25.8539 11.0957c-.8206-.1967-5.62.5471-7.882.809-2.2621.2618-7.6485 1.2584-9.32227 1.9084-1.60719.6292-2.72648 1.4434-2.82171 3.06-.09524 1.6167.81272 2.5195 1.90462 2.711s1.76243 1.855 1.76243 1.855 1.95683-.1186 2.36253-.1186c.0483-.3087-.03-1.8016-.8153-2.5676-.9367-.9118-3.57187-.0716-3.57187-.0716.17434-.2596.43494-.4492.73576-.5354 1.04363-.4573 11.92741-1.9619 13.56721-2.199s3.457-.4312 4.4811-1.5241c1.024-1.093.664-3.0718-.4005-3.3271z"/><path d="m20.9358 21.3204h3.6527c.0681.0008.1271-.0467.1409-.1133.0848-.4169.3705-1.9045.3626-2.9623 0-.766.2022-1.3574-.4278-1.6571-.0305-.0146-.0651-.0183-.0979-.0104-1.0619.2606-4.5659.7895-7.0106 1.0604-.0676.0083-.1203.0625-.1266.1302-.0062.0677.0356.1307.1005.1512l2.87.9288c.0544.019.1148.003.1526-.0404.2178-.2528.4145-.5229.5884-.8076-.1868 1.0458-.3036 2.1029-.3496 3.1642-.0025.0402.0115.0796.0389.1091.0273.0295.0656.0466.1059.0472z"/><path d="m24.0879 22.248h-14.42949c-.98633 0-1.78591.7985-1.78591 1.7834 0 .985.79958 1.7834 1.78591 1.7834h.50489c.0098.0908.044.1772.0991.2501l1.5133 2.8803c.0969.1285.2485.2042.4096.2045h9.3822c.1611-.0003.3128-.076.4097-.2045l1.5132-2.8803c.0551-.0728.0894-.1593.0992-.2501h.5022c.9863 0 1.7859-.7984 1.7859-1.7834 0-.9849-.7996-1.7834-1.7859-1.7834z"/><path d="m19.6497 29.9691h-5.312c-.07-.0001-.1331.0419-.1597.1065s-.0115.1389.0384.1879l1.401 1.3822c.2296.2268.5394.3541.8623.3543h1.1441c.3414.0004.6676-.1412.9001-.3908l1.2524-1.3496c.0477-.05.0608-.1237.0332-.1871s-.0905-.1041-.1598-.1034z"/></g></svg>