<svg viewBox="0 0 386.40000000000003 51.3" xmlns="http://www.w3.org/2000/svg" width="2500" height="332"><path d="M33.3 14c-2.1 2.9-3.3 6.3-3.3 9.8 0 4.5 1.8 8.8 5 11.9 3.1 2.9 7.4 4.5 12.3 4.5 4.6 0 8.7-1.6 11.9-4.5 3.5-3.2 5.6-7.7 5.6-12.1 0-4.8-1.8-9.1-5-12.1C56.7 8.6 52.3 7 47.4 7c-5.8.1-10.8 2.6-14.1 7m2.9 9.3c0-7 4.8-12.1 11.4-12.1 6.3 0 11.1 5.4 11.1 12.6 0 7-4.8 12.1-11.4 12.1-6.4.1-11.1-5.3-11.1-12.6M131.5 14c-2.1 2.9-3.3 6.3-3.3 9.8 0 4.5 1.8 8.8 5 11.9 3.1 2.9 7.5 4.5 12.3 4.5 4.6 0 8.7-1.6 11.9-4.5 3.5-3.2 5.5-7.7 5.5-12.1 0-4.8-1.8-9.1-5.1-12.1-3.1-2.9-7.5-4.5-12.4-4.5-5.6.1-10.6 2.6-13.9 7m2.9 9.3c0-7 4.8-12.1 11.4-12.1 6.3 0 11.1 5.4 11.1 12.6 0 7-4.8 12.1-11.4 12.1-6.4.1-11.1-5.3-11.1-12.6" fill="#0075be"/><path d="M345.6 14c-2.1 2.9-3.3 6.3-3.3 9.8 0 4.5 1.8 8.8 5 11.9 3.1 2.9 7.4 4.5 12.3 4.5 4.6 0 8.7-1.5 11.9-4.5 3.5-3.2 5.6-7.7 5.6-12.1 0-4.8-1.8-9.1-5-12.1C369 8.6 364.6 7 359.7 7c-5.7.1-10.7 2.5-14.1 7m14 22c-6.3 0-11.1-5.5-11.1-12.7 0-3.5 1.2-6.7 3.4-8.9 2.1-2 4.9-3.2 8-3.2 2.8 0 5.5 1.1 7.4 3.1 2.3 2.3 3.6 5.7 3.6 9.6 0 3.6-1.2 6.7-3.4 9-2 2-4.8 3.1-7.9 3.1" fill="#f47920"/><g fill="#0075be"><path d="M102.4 7.8H96L87.5 29 78.7 7.8h-6.5l-2.7 18-1.2 8v.2l-.8 5.6H72l.6-3.7v-.3c0-.4.1-1.1.2-2l2.8-18.7 12 25.8s9.1-21.6 10.8-25.8c.3 2.9 2.3 19.9 2.3 19.9v1.1l.4 3.5h5.6L105 25l-1.5-12.2-.1-1.4L103 8v-.4h-.6zM192.1 39.5s-10-13.4-11.5-15.4c4.5-2 6.7-4.6 6.7-8 0-4.9-4.3-8.3-10.6-8.3H167.5v3.9h.1v27.8h5.8V22.8l12.2 16.7zm-18.2-16.9l-.7.1v-11h2.8c3.3 0 5.5 1.9 5.5 4.8-.1 3.1-2.4 5-7.6 6.1M346.3 44.9h40.1L351 51.3zM204.3 7.8h-15.1v.8c0 1.7 1.2 3.1 2.9 3.3h6.5c0 .6.1 21.7.1 21.7V39.5h5.7V11.6z"/></g><path d="M235.4 4.6C230.6.8 225.6 0 219.6 0h-11.4v1.1c0 1.8 1.4 3.3 3.2 3.4h9c9.4 0 15.5 5.9 15.5 15.1 0 9-6.3 15.6-15.1 15.6-1.4 0-3.3-.2-5.9-.6l-.4-.1V19.7 12h9.4v-.3-.5c0-1.9-1.5-3.4-3.4-3.4h-11.7V39.5h5.7v-.1h3.3c9.5 0 15.2-1.9 19.4-6.5 3.4-3.7 5.2-8.4 5.2-13.8-.1-5.9-2.4-10.8-7-14.5M343.5 39.5s-10-13.4-11.5-15.4c4.5-2 6.7-4.5 6.7-8 0-4.9-4.3-8.3-10.6-8.3H318.9v3.9h.1v27.8h5.8V22.8L337 39.5zm-18.2-16.9l-.6.1v-11h2.8c3.3 0 5.5 1.9 5.5 4.8-.2 3.1-2.5 5-7.7 6.1" fill="#f47920"/><path d="M117 11.9h8l2.3-4h-15.9v31.7h5.6s.1-14.2.1-15h7.6v-4.3H117v-8.4" fill="#0075be"/><path d="M251.2 35.2V32h.1v-7.5h7.5v-4.2h-7.5v-8.4h8l2.2-4h-16.1v31.5h17.8v-4.3h-12zM267.7 34.9v4.6h15.6l1.7-4.3h-11.6V7.8h-5.7V33.6zM309.2 25.5V35c-2 .6-3.9.9-5.6.9-7.5 0-12.2-4.8-12.2-12.5 0-7.3 4.6-12.2 11.5-12.2 1.8 0 3.5.2 4.8.5l2.2-3.9-.4-.1c-2.4-.4-4.5-.7-6.3-.7-4.9 0-9.1 1.5-12.4 4.5-3.5 3.3-5.5 7.6-5.5 12.3 0 5.7 2.9 10.9 7.6 13.7 2.9 1.8 6.4 2.6 10.7 2.6 3 0 6.4-.5 10.4-1.4l.3-.1V23z" fill="#f47920"/><path d="M21.1 35.1c-8.6 0-14.3-6.4-14.3-15.8 0-8.7 5.5-14.3 14-14.3 2.7 0 5.1.5 6.9.9l2.5-4.4C26.9.5 24 0 21.3 0 15.5 0 10.5 1.9 6.6 5.4 2.4 9.3 0 14.6 0 19.9 0 27 3.4 33.2 9 36.6c3.6 2.1 7.7 3.2 11.9 3.2 2.7 0 5.8-.5 9.2-1.6v-5.4H30c-3.3 1.6-6.2 2.3-8.9 2.3" fill="#0075be"/></svg>