<svg height="275.01562mm" viewBox="0 0 276.04562 275.01563" width="276.04562mm" xmlns="http://www.w3.org/2000/svg" xmlns:xlink="http://www.w3.org/1999/xlink"><linearGradient id="a" gradientTransform="matrix(1.8753106 -.43287583 .43287583 1.8753106 -334.16252 -79.8192)" gradientUnits="userSpaceOnUse" x1="363.33548" x2="461.39578" y1="211.98798" y2="210.61124"><stop offset="0" stop-color="#7250db"/><stop offset="1" stop-color="#a357db"/></linearGradient><linearGradient id="b" gradientUnits="userSpaceOnUse" x1="384.91492" x2="454.75183" y1="144.6554" y2="163.36813"><stop offset="0" stop-color="#e9a8f7"/><stop offset="1" stop-color="#d38ef7"/></linearGradient><linearGradient id="c" gradientUnits="userSpaceOnUse" x1="461.9863" x2="501.31244" y1="143.00386" y2="153.54128"><stop offset="0" stop-color="#bb77f6"/><stop offset="1" stop-color="#a865f4"/></linearGradient><linearGradient id="d" gradientUnits="userSpaceOnUse" x1="373.62949" x2="404.18277" y1="178.51173" y2="178.51173"><stop offset="0" stop-color="#d891f9"/><stop offset="1" stop-color="#c681f8"/></linearGradient><linearGradient id="e" gradientUnits="userSpaceOnUse" x1="416.56924" x2="508.50436" y1="178.78699" y2="178.78699"><stop offset="0" stop-color="#a367f6"/><stop offset="1" stop-color="#814df3"/></linearGradient><linearGradient id="f" gradientUnits="userSpaceOnUse" x1="369.77591" x2="480.97888" y1="211.54233" y2="211.54233"><stop offset="0" stop-color="#8362f6"/><stop offset="1" stop-color="#4f37f3"/></linearGradient><g stroke-linecap="round" stroke-linejoin="round" transform="translate(-361.40429 -86.326265)"><path d="m376.57133 136.95923 217.15861-50.126473c10.49582-2.422737 20.89595 4.076528 23.31869 14.572343l5.82309 25.22688c2.42274 10.49582-4.07653 20.89595-14.57234 23.31869l-217.15861 50.12647c-10.49581 2.42274-20.82257-4.09374-23.31868-14.57234l-5.85771-24.59045c-2.59809-10.90633 4.11114-21.53238 14.60695-23.95512z" fill="url(#a)" stroke-width="15.114"/><g stroke-width="7.85299" transform="matrix(1.9246224 0 0 1.9246224 -334.16252 -79.8192)"><path d="m361.4043 122.62813v31.31902c0 5.71484 4.60082 10.31565 10.31565 10.31565h133.11281v-18.91926-1.89808c0-5.58741-4.3202-10.12786-9.81594-10.47895v-.0227h-123.29687c-5.71483 0-10.31565-4.60082-10.31565-10.31565z" fill="url(#b)"/><path d="m455.69002 132.94378v31.31902h49.14274v-18.91926-1.89808c0-5.5874-4.32021-10.12786-9.81594-10.47895v-.0227z" fill="url(#c)"/><path d="m361.4043 153.94715v33.79638c0 3.05677 1.31683 5.7939 3.41581 7.67964h140.01265v-31.16037h-133.11281c-5.71484 0-10.31565-4.60081-10.31565-10.31565z" fill="url(#e)"/><path d="m361.4043 153.94715v33.79638c0 3.05677 1.31684 5.7939 3.41581 7.67964h45.81219v-31.16037h-38.91235c-5.71483 0-10.31565-4.60082-10.31565-10.31565z" fill="url(#d)"/><path d="m361.4043 185.10752v33.79638c0 5.71486 4.6008 10.31565 10.31565 10.31565h122.79716c5.71485 0 10.31565-4.60079 10.31565-10.31565v-23.48073h-133.11281c-5.71485 0-10.31565-4.6008-10.31565-10.31565z" fill="url(#f)"/></g></g></svg>