<svg fill="none" height="32" viewBox="0 0 32 32" width="32" xmlns="http://www.w3.org/2000/svg"><g clip-rule="evenodd" fill-rule="evenodd"><path d="m15.979 0c1.7166 0 3.3208.292893 4.811.880034 1.4912.587476 2.7936 1.415646 3.9086 2.483826 1.1143 1.06885 1.9947 2.33365 2.6428 3.79302.6472 1.46108.9716 3.04822.9716 4.76422 0 1.7462-.3244 3.3493-.9716 4.8097-.6481 1.4604-1.5285 2.7249-2.6428 3.793-1.115 1.0689-2.4174 1.9049-3.9086 2.5066-1.4902.6017-3.0944.9034-4.811.9034-1.7174 0-3.3212-.3017-4.8118-.9034-1.49086-.6017-2.78617-1.4377-3.88553-2.5066-1.10004-1.0681-1.97297-2.3326-2.62079-3.793-.64748-1.4604-.97088-3.0635-.97088-4.8097 0-1.716.3234-3.30314.97088-4.76422.64782-1.45937 1.52075-2.72417 2.62079-3.79302 1.09936-1.06818 2.39467-1.89635 3.88553-2.483826 1.4906-.587141 3.0944-.880034 4.8118-.880034zm0 3.79269c-1.0845 0-2.1011.2034-3.0497.61019-.9495.40578-1.778.97055-2.4851 1.69329-.70786.72206-1.27263 1.58073-1.694 2.57365-.42273.9936-.63257 2.07768-.63257 3.25128 0 1.2045.20984 2.311.63257 3.3195.42137 1.0088.98614 1.8736 1.694 2.5967.7071.7221 1.5356 1.2865 2.4851 1.6936.9486.4058 1.9652.6092 3.0497.6092 1.0837 0 2.1004-.2034 3.0496-.6092.9488-.4071 1.7841-.9715 2.5075-1.6936.7224-.7231 1.2872-1.5879 1.6943-2.5967.4061-1.0085.6095-2.115.6095-3.3195 0-1.1736-.2034-2.25768-.6095-3.25128-.4071-.99292-.9719-1.85159-1.6943-2.57365-.7234-.72274-1.5587-1.28751-2.5075-1.69329-.9492-.40679-1.9659-.61019-3.0496-.61019z" fill="#1f2137"/><path d="m27.7651 28.4243v.5759c0 1.8932-5.2579 2.978-11.5758 2.9995l-.1918.0003c-6.40226 0-11.76721-1.0875-11.76721-2.9998v-.5759c0-.9933.7041-1.6092 1.49159-1.4899.78681.119 4.80352 1.1048 10.27562 1.1048 5.4728 0 9.4889-.9858 10.2763-1.1048.7875-.1193 1.4913.4966 1.4913 1.4899z" fill="#6fd499"/></g></svg>