<svg fill="none" height="32" viewBox="0 0 32 32" width="32" xmlns="http://www.w3.org/2000/svg" xmlns:xlink="http://www.w3.org/1999/xlink"><linearGradient id="a" gradientUnits="userSpaceOnUse" x1="48" x2="16" y1="16" y2="-16"><stop offset="0" stop-color="#e56284"/><stop offset="1" stop-color="#f17171"/></linearGradient><clipPath id="b"><path d="m0 0h32v32h-32z"/></clipPath><g clip-path="url(#b)"><path clip-rule="evenodd" d="m0 16c0-8.83656 7.16344-16 16-16 8.8365 0 16 7.16344 16 16 0 8.8365-7.1635 16-16 16-8.83656 0-16-7.1635-16-16zm8.64302 9.5851c.39725.9576 1.33231 1.5816 2.36908 1.5808 1.4147-.0009 2.5611-1.148 2.5611-2.5628 0-1.0368-.6247-1.9713-1.5826-2.3679-.9579-.3965-2.06034-.177-2.79317.5564-.73283.7333-.95165 1.8359-.55441 2.7935zm10.93818-7.4894-8.0537 2.6505c-1.2326.4003-2.55627-.2743-2.95658-1.5069-.40032-1.2325.27436-2.5563 1.50688-2.9566l8.0538-2.6505c1.2326-.4008 2.5566.2735 2.9574 1.506.4009 1.2326-.2735 2.5568-1.5061 2.9575zm-8.0591-4.1718 12.086-3.98923h-.0019c1.2326-.40032 1.9074-1.72404 1.507-2.9566-.4003-1.23257-1.724-1.90725-2.9566-1.50693l-12.0841 3.98925c-1.23259.40031-1.90728 1.72401-1.50696 2.95661.40031 1.2325 1.72406 1.9073 2.95656 1.5069z" fill="url(#a)" fill-rule="evenodd"/></g></svg>