<svg fill="none" height="48" viewBox="0 0 50 48" width="50" xmlns="http://www.w3.org/2000/svg"><path clip-rule="evenodd" d="m27.696 1.92c0-1.0608.8592-1.92 1.92-1.92 11.2128 0 20.304 9.0912 20.304 20.304v1.776c0 1.0608-.8592 1.92-1.92 1.92h-18.384c-1.0608 0-1.92-.8592-1.92-1.92zm-5.7792-1.8287965c-12.2784 1.0511965-21.9168 11.3567965-21.9168 23.9087965s9.6384 22.8576 21.9168 23.9088c1.1184.096 2.0832-.792 2.0832-1.9152v-43.9872c0-1.123197-.9648-2.01599657-2.0832-1.9151965zm26.0832 27.7487965h-18.384c-1.0604 0-1.92.8596-1.92 1.92v16.32c0 1.0604.8596 1.92 1.92 1.92h18.384c1.0604 0 1.92-.8596 1.92-1.92v-16.32c0-1.0604-.8596-1.92-1.92-1.92z" fill="#1e85ff" fill-rule="evenodd"/></svg>