<svg fill="none" height="118" viewBox="0 0 118 118" width="118" xmlns="http://www.w3.org/2000/svg" xmlns:xlink="http://www.w3.org/1999/xlink"><clipPath id="a"><path d="m0 0h118v118h-118z"/></clipPath><g clip-path="url(#a)" fill="#ecb7b8"><path d="m0 1.13786v115.62814c0 .626.507 1.132 1.133 1.132h38.214c.626 0 1.133-.506 1.133-1.132v-12.041c0-.626-.506-1.133-1.133-1.133h-23.893c-.64 0-1.147-.519-1.147-1.147v-101.30714c0-.626999-.507-1.13199915-1.134-1.13199915h-12.04c-.626-.001-1.133.50500015-1.133 1.13199915z"/><path d="m116.858 0h-38.21c-.628 0-1.138.51-1.138 1.138v12.034c0 .63.51 1.143 1.138 1.143h23.898c.63 0 1.139.508 1.139 1.138v86.997c0 .628-.51 1.138-1.139 1.138h-23.898c-.3022.001-.5918.121-.8052.335s-.3331.504-.3328.806v12.031c0 .63.51 1.143 1.138 1.143h38.21c.15 0 .298-.03.436-.088.139-.057.264-.142.37-.248s.189-.232.246-.37c.057-.139.086-.287.086-.437v-115.622c0-.629-.51-1.138-1.138-1.138z"/></g></svg>