<svg fill="none" height="125" viewBox="0 0 108 125" width="108" xmlns="http://www.w3.org/2000/svg" xmlns:xlink="http://www.w3.org/1999/xlink"><linearGradient id="a" gradientUnits="userSpaceOnUse" x1="11.3451" x2="96.032" y1="20.6134" y2="105.3"><stop offset=".2145" stop-color="#3273c2"/><stop offset=".7067" stop-color="#8cb938"/><stop offset="1" stop-color="#f7e052"/></linearGradient><path d="m107.026 31.755-52.9863-30.5914-.3512-.203517-.3511.203517-52.7029 30.4278-.28333.1636-.35117.2035v61.9968l.35117.2035 52.98623 30.5872.3511.204.3512-.204 52.2803-30.1842.702-.403.355-.2035v-61.9968zm-58.6409-22.86574-12.9572 22.43874h-25.91049zm-15.0842 26.12994-6.0775 10.527-18.23274-10.527zm-4.7287 15.5631 21.4291 12.3706-21.4291 12.3706-7.1431-12.3706zm-3.1964-1.8437-6.0776 10.527-12.15515-21.054zm-21.1618-8.2244 12.9572 22.4387-12.9572 22.4387zm15.0842 26.1299 6.0775 10.527-18.23266 10.523zm7.9212 13.7195 6.0775 10.527h-24.30624zm-17.702 14.2142h25.9105l12.9572 22.4392-38.86769-22.4392zm42.3235 21.0542-12.1551-21.0542h12.1551zm0-24.7414h-14.2861l-7.143-12.3707 21.4291-12.3706v24.7412zm0-31.1301-21.4291-12.3707 7.143-12.3706h14.2861zm0-28.4325h-12.1551l12.1551-21.054zm30.1564 17.4106 18.2327-10.527-12.1551 21.0541zm3.9466 14.2143-7.143 12.3706-21.4251-12.3706 21.4251-12.3706zm-5.7902-17.4067-6.0776-10.527h24.3103zm17.7019-14.2182h-25.9104l-12.9573-22.43874zm-42.3234-21.05 12.1551 21.054h-12.1551zm0 24.7412h14.286l7.1431 12.3706-21.4252 12.3707v-24.7413zm0 31.1301 21.4251 12.3706-7.1431 12.3707h-14.286v-24.7413zm0 28.4285h12.1551l-12.1551 21.0542zm3.4557 22.4432 12.9533-22.4392h25.9104zm15.0882-26.1304 6.0776-10.5271 18.2327 10.5271zm7.9212-13.7195 6.0776-10.527 12.1551 21.05zm21.1617 8.2245-12.9572-22.4387 12.9572-22.4387z" fill="url(#a)"/></svg>