<svg fill="none" height="32" viewBox="0 0 32 32" width="32" xmlns="http://www.w3.org/2000/svg"><g clip-rule="evenodd" fill-rule="evenodd"><path d="m11.1886 7.20374-7.76801 3.33146c.04098-.1183.00805-.2496-.08391-.3346-.09196-.0849-.22549-.1073-.34016-.0571-.11468.0502-.18873.1636-.18865.2888l-.48124.1997-.05953.0359.00868-.1315c.05212-.0573.08088-.1321.08062-.2096 0-.174-.14105-.315-.31504-.315s-.31504.141-.31504.315c0 .0976.04595.1895.12403.2481l-1.726508 2.1854c-.006207.0287.001269.0586.020226.0809.018958.0224.047239.0347.076518.0332.106667 0 10.661714-5.26756 10.818014-5.37547z" fill="#e3de8f"/><path d="m.301208 13.0915 5.524342-1.8109 5.01205-3.37734.036-.07318z" fill="#d2b513"/><path d="m21.9829 11.0003 7.3302-1.48835-3.1231-.84838c-.0393.00257-.0763.01932-.1042.04714-1.0121.91659-2.0651.86821-2.9606 0-.1563.28031-1.2031 2.22139-1.1969 2.23259.0195.0176.0378.0367.0546.057z" fill="#669b1b"/><path d="m15.5844 21.7179-8.54077 2.3094.03969-.0297c.03776-.0113.07737-.0151.11659-.0112.02729.0041.05397.0116.07938.0223h.02852v.0112c.10875.0568.17171.1744.15876.2964-.00748.0786-.04626.1509-.10762.2006s-.14014.0726-.21858.0636c-.16452-.0188-.28335-.1664-.26667-.3312l-.20465-.1327-1.08775.2679 1.09767.5297.46264-.2121h.40558c.02974-.0599.08053-.1067.14264-.1315l.02108-.0186.00744.0087c.14542-.0434.30032.0286.36095.1677.06062.1391.0079.3016-.12286.3785-.13076.077-.29841.0443-.39064-.0762l-.4738.1241-.06698.0074.08434.0943c.07317.0125.13883.0524.18357.1116.06514.0838.08065.1959.04069.2942s-.12932.1678-.23442.1823-.20997-.0281-.27511-.1118c-.05708-.0749-.07673-.1718-.05333-.263l-2.9631-1.4698s-.08682-.0979.01612-.124c.07442-.0211 11.56712-2.3653 11.56712-2.3653.0236.0211.1513.1737.1935.2072z" fill="#e3de8f"/><path d="m10.0885 15.3364c.1226.0002.2363.0641.3002.1687l9.7141-3.8685-13.07658 1.5777c-.0831.1711-.35349 2.3566-.35349 2.3566s.01116-.0174.01488-.0261.02481-.0521.03597-.0756c.01116-.0236.01613-.0323.02481-.0472s.02604-.0508.04093-.0756c.00546-.0108.01168-.0212.0186-.031.04962-.0844.3076-.7442 1.40403-.8571 0 0 1.27132-.1848 1.78605.8905.0296-.0078.06-.012.0905-.0124z" fill="#a5ba19"/><path d="m22.9702 17.6869c-.0516-.0842-.1568-.1184-.248-.0806l-.7008-.0608-1.5814.2654s.0744.062-.1786-.1116c-.0595-.041-.2853-.7082-.3721-.6872-.0094.0048-.0168.0127-.0211.0224l.0955 1.2068c.0087.026.0658.2295.0955.2915l.0224.0483.4241.5743.1476.2096.2679.062c.0082-.0091.0152-.0191.0211-.0297.0652-.1248.0183-.2788-.1054-.3461-.0868-.0434-.1079-.0831-.1836-.0335l-.1612-.2145.444-.2742.7827.5049c-.0071.0663.0081.1331.0434.1897.0857.1398.2656.1883.4099.1104.1443-.0778.2026-.2548.1329-.4031-.0697-.1484-.2432-.2164-.3952-.155l-.5458-.5234.16-.2283.5297-.181.5457-.0162c.0037.0228.0117.0447.0236.0645.0578.0955.1818.1265.2778.0695.0944-.0569.1254-.1792.0694-.2741z" fill="#d9d375"/><path d="m19.4195 13.8741c.0006.0042.0006.0083 0 .0124-.0057.0924-.0562.1762-.1352.2245l-.0806 1.5703-.0111.124c.0202.0021.0401.0063.0595.0124.0136-.0446.026-.0843.0347-.1067.1427-.3845.712-1.662.9042-2.0762z" fill="#d9d375"/><path d="m21.1843 11.6416-9.1064 3.6329 4.4714-.8385.9748-.2977c.0463-.1053.1504-.1735.2655-.1736.0546.0002.108.0161.1538.0459l.9451-.2927c.077-.1134.2226-.1578.3498-.1067l.9562-.2915c.0021-.1588.1314-.2865.2903-.2865h.0148l.6959-1.3854z" fill="#c9da2a"/><path d="m18.8402 16.2692c-.0075 0-.0062 0 0-.01-.013-.0349-.0197-.0718-.0199-.1091.0003-.0644.0184-.1275.0521-.1823 0-.0261.0831-1.6695.0881-1.8419-.0278-.0199-.0518-.0447-.0707-.0732l-.8124.2481c-.0084.045-.027.0875-.0546.124-.0128.0168-.0274.0322-.0434.0459-.0176.0141-.0367.0262-.0571.036-.024.0112-.0495.0191-.0756.0236l.9649 2.4731.0794-.6648c-.0202-.0206-.0373-.044-.0508-.0694z" fill="#d9d375"/><path d="m11.1701 20.3448-3.01019-2.741s1.33582 2.3156 1.88649 3.2136c.0286-.0174 1.1237-.4726 1.1237-.4726z" fill="#d2b513"/><path d="m15.2729 21.3172-5.1026-5.2862c-.0256.0065-.0518.0099-.0782.01-.09338 0-.18298-.0372-.24904-.1032-.06606-.0661-.10317-.1557-.10317-.2491.00071-.0314.0053-.0627.01364-.093-.23317-.3547-.76279-.8595-1.34821-.8062-.58543.0533-1.13116.2009-1.40279 1.0679.01364 0-.07442.2381.05829.418l4.77028 4.1488-8.00005 3.2558z" fill="#d9d375"/><path d="m22.0636 11.3513c-.0173.1413-.0927.269-.208.3523-.1154.0833-.2603.1148-.3998.0868-.2133.4205-.7132 1.4065-.7119 1.409.0203.0382.031.0808.031.124.0017.1284-.0826.2421-.2059.2779 0 0-.9724 2.1196-1.1088 2.4297.014.0399.0211.0818.021.1241.0023.162-.1105.3029-.2691.3361l-.3411 3.969c-.096.0524-.1443.1633-.1172.2693s.1225.1801.2319.1801.2049-.0741.232-.1801c.027-.106-.0212-.2169-.1172-.2693l.1166-.2828.2344.2034-.0236.9166c-.0926.0557-.1367.1664-.1078.2705.0289.1042.1237.1763.2318.1763s.203-.0721.2319-.1763c.0289-.1041-.0152-.2148-.1078-.2705l.1885-.7678h.4763l.3634.7641c-.0572.074-.0733.1719-.0428.2603.0305.0885.1034.1556.1941.1787.1511.0343.3013-.0604.3355-.2114.0343-.1511-.0604-.3013-.2115-.3355l-.1711-.6649.2332-.1004.4961.1141.4291.2481c-.0069.0195-.0107.04-.0111.0607-.0017.0984.0745.1806.1727.1864s.1836-.0669.1934-.1648c.0099-.0979-.0591-.1862-.1565-.2002l-.5222-.3733-1.3457-.5445c-.3406-.4053-.5735-.8899-.6772-1.409-.1476-.826.2939-2.6877.4824-3.0574.1886-.3696 3.1976-3.5547 3.1976-3.5547h.0161c.0521-.0149 3.8871-.9501 6.3814-1.88154z" fill="#e3de8f"/><path d="m31.9565 8.32126c-.0447-.16-.2803-.46015-1.352-.68465-.4849-.1017-1.0852-.07566-1.9051-.04217-.506.01985-1.3172.02357-1.6893.02357v-.02109.02109c-.3721 0-.1414.00992-.5284-.36465h-.0458c0-.00993-.6202-.90915-1.7712-.84465-.6834.03721-1.2217.30015-1.5826 1.45488-.0187.05953-.0856.07318-.1315.0831-.8285.17488-11.907 2.75351-13.27134 3.07351.01139.0768-.02615.1526-.09416.1902-.06802.0375-.15218.0288-.21111-.0218-.05892-.0506-.08019-.1325-.05335-.2054s.09614-.1215.17382-.1218c.00866-.0007.01737-.0007.02604 0l1.1969-2.63812-3.63287 4.60902.1476-.0112 13.88157-1.6422c.0261-.2111.2017-.372.4142-.3795.5247-.831 1.259-2.23255 1.4239-2.51907.0228-.03288.0481-.06398.0757-.09302.1029-.09426.2146.02605.2877.09178.0211.019.041.0393.0596.06078l.0372.03845c1.0567 1.11628 1.9497.54201 2.5314.01612.1197-.11643.289-.16652.4528-.13395l3.9156 1.06294c.6934-.28279 1.2093-.53953 1.4189-.73674 0 .00496.2692-.11659.2258-.26543z" fill="#78be20"/><path d="m9.67438 9.0791-3.44434 2.3814.62016 1.0555c.07442-.0682 2.82418-3.4369 2.82418-3.4369z" fill="#78bd43"/></g></svg>