<svg fill="none" height="61" viewBox="0 0 61 61" width="61" xmlns="http://www.w3.org/2000/svg"><path d="m33.4 8.80002 1.6-.3s-2.5-5.5-3.5-8.299996c.8-.1 1.6 0 2.5.2 1.2 2.099996 3.4 6.199996 3.4 6.199996s3.8-2.2 5.8-3.1c.6.2 1.2.5 1.6.9l-5.8 5.1 1.7 4.89998s4.2-5.89998 6.2-8.69998c.7.2 1.3.7 1.8 1.3-.8 1.5-2.1 2.99998-2.7 4.39998 2.5.2 5 0 7.5.3.7.7 1.3 1.5 1.7 2.5l-6.2.5-3 5.2 4-.9s3.2-1.3 6.5-2.6c.5.7.9 1.6 1.2 2.5l-6.7 2.7-6 1.3c-.8 1-1.5 2.1-2.1 3.1 5.4-1 10.6-2.7 16-3.8 2.3 8.1 1.1 16.9-3.3 24.1-14.7 3.7-30.1-1-45.2 1l-4.40001.5c-3-3.9-4.9-8.4-5.499995-13.3-.8-5.3-.200013-10.7 1.799985-15.6.4 0 7.10001-.7 7.10001-.7l-4.10001-4.9c.3-.8.80003-1.6 1.40003-2.2 2.1 2.3 6.19999 6.8 6.19999 6.8l2.3-.2-7.1-7.99998c.8-1.1 1.79999-2.1 2.9-3l6 1.1v-4.8c1.2-.7 2.6-1.2 3.9-1.5 1.2 2.1 2.1 4.4 3.3 6.5 1.5-2.5 2.9-5.2 4.2-7.899996.2-.09999958.5-.09999958.7 0zm-4.3-3-3.2 5.99998 1.9 6.2 2.8-1.9.7-5.2c-.7-1.59998-1.4-3.39998-2.2-5.09998zm-9.2.4v3l1.5.3c-.4-1.1-.9-2.2-1.5-3.3zm-7.7 3.6v.19998c1.6 1.6 4.7 5.1 4.7 5.1v-3.9zm24 1.39998-1.4.9.3 1 1.3-1.2zm-16.1 1.3.2 5.6 2.1-4.9zm25.7 2.4-2 .2-3.1 4.9h2zm-12.2 3.7.2 5.7 4.3-5.4c.3-.3.4-.7.5-1.1l-.8-2.6zm-9.3-.8-1.4 2.7 2.5 2.9c-.3-1.9-.7-3.8-1.1-5.6zm6 2.5-1.6.8v2.3l1.3.5zm-17.1.2-2.3 3.5 4.7 1.8 3.9-3.4-1.5-1.6c0 .1-4.8-.3-4.8-.3zm-9.6.8 4.10001 1.9 1.29998-2.1zm35 2.6-2.1 3.5 2.5-.2 2.2-3.6zm-16.6.7-7.3 6.1-3.5.2c.7-.8 1.3-1.6 1.9-2.5-1.3-.6-2.7-1.1-4-1.6l-2.70001 3.5c-.8 0-1.7.1-2.5.3-.1 2.8.3 5.6 1 8.3.3.7.5 1.9 1.5 1.8 7.10001.2 14.20001.9 21.30001 1.9v-11.2c-.5-.9-1.1-1.8-1.8-2.6l-3.3 2h-6.2s4.9-2.9 7.3-4.4c-.6-.6-1-1.3-1.8-1.7zm-17.60001.2c-.4 1.1-.49999 2.3-.29999 3.4.6-.9 2-2.8 2-2.8zm52.00001 1.5-2.6.7c.7 1.4 2.3 4.1 2.3 4.1h-3l-3-3.3-4.5 1 1.3 2.5-2.3.3-1.8-2.3s-6.5 1.9-9.6 2.9l-.2.3c0 3.5.3 7 .7 10.4l.3.7c6.1 1 12.2 1.6 18.4 1.8l.7-.4c1.6-2.5 2.8-5.2 3.6-8 1-3.6.9-7.4-.3-10.7zm-1.9 21.9c-1.9 2.6-4.2 4.9-6.8 6.7-13.8-.2-26.4-3.9-39.90002-4.6-.5-.4-.8-.8-1-1.4 10.50002-1.8 21.10002-.8 31.50002-.2 5.5.3 10.9-.1 16.3-1.1zm-20.7 6.5c4 .4 8 .8 12 1.3-9.2 5.7-20.7 6-30.2.8-2.5-1.4-4.7-3.2-6.70001-5.2 0-.3.59999 0 .89999-.2l5.70002.5z" fill="#eb8000"/></svg>