<svg fill="none" height="83" viewBox="0 0 84 83" width="84" xmlns="http://www.w3.org/2000/svg"><path d="m83.218.319h-82.361005v82.361h82.361005z" fill="#ea0a1e"/><path d="m55.773 23.537c-3.822-1.229-8.579-1.955-13.734-1.955s-9.913.726-13.735 1.955c-10.166 3.268-17.152 10.056-17.152 17.899 0 11.035 13.828 19.982 30.887 19.982s30.884-8.947 30.884-19.982c0-7.844-6.985-14.629-17.15-17.899zm-13.734 29.29c-2.546 0-4.625-5.005-4.747-11.294 1.531.138 3.119.212 4.747.212s3.213-.074 4.746-.212c-.123 6.289-2.201 11.294-4.746 11.294zm-4.426-16.218c.694-4.415 2.413-7.542 4.426-7.542s3.73 3.127 4.423 7.542c-1.414.128-2.896.199-4.423.199s-3.01-.071-4.426-.199zm11.554-.333c-1.033-6.929-3.834-11.896-7.128-11.896s-6.097 4.967-7.13 11.896c-6.274-.979-10.659-3.209-10.659-5.805 0-3.499 7.965-6.336 17.789-6.336s17.787 2.837 17.787 6.336c0 2.597-4.385 4.826-10.66 5.805m-33.507 4.429c0-3.383 1.302-6.553 3.573-9.28-.026.189-.04.38-.04.572 0 4.255 6.392 7.872 15.303 9.202-.007.321-.012.643-.012.969 0 7.912 2.195 14.613 5.229 16.924-13.48-.824-24.053-8.74-24.053-18.387zm28.705 18.387c3.033-2.31 5.227-9.011 5.227-16.924 0-.325-.003-.647-.011-.969 8.909-1.33 15.302-4.947 15.302-9.202 0-.192-.015-.382-.041-.572 2.271 2.727 3.573 5.897 3.573 9.28 0 9.647-10.572 17.562-24.05 18.387z" fill="#fff"/></svg>