<svg fill="none" height="40" viewBox="0 0 90 40" width="90" xmlns="http://www.w3.org/2000/svg"><g fill="#045adb"><path d="m84.2381 30h-6.4762c-.419 0-.7619-.45-.7619-1s.3429-1 .7619-1h6.4762c.419 0 .7619.45.7619 1s-.3429 1-.7619 1z"/><g clip-rule="evenodd" fill-rule="evenodd"><path d="m59.4122 22h2.1756c.8015 0 1.4122-.6107 1.4122-1.4122v-2.1756c0-.8015-.6489-1.4122-1.4122-1.4122h-2.1756c-.8015 0-1.4122.6489-1.4122 1.4122v2.1756c0 .8015.6489 1.4122 1.4122 1.4122zm2.0611-1.5267h-1.9084v-1.9084h1.9084z"/><path d="m53.4122 22h2.1756c.8015 0 1.4122-.6107 1.4122-1.4122v-2.1756c0-.8015-.6489-1.4122-1.4122-1.4122h-2.1756c-.8015 0-1.4122.6489-1.4122 1.4122v2.1756c0 .8015.6489 1.4122 1.4122 1.4122zm2.0611-1.5267h-1.9084v-1.9084h1.9084z"/><path d="m47 25c0 2.0132-.4197 3.9474-1.1066 5.7237-2.175 5.4474-7.3645 9.2763-13.3934 9.2763-1.9461 0-3.8158-.4342-5.5329-1.1447h-.0382c-5.2276-2.25-8.9289-7.6185-8.9289-13.8553 0-2.0132.4197-3.9474 1.1066-5.7237v-.0395c2.175-5.4079 7.3645-9.2368 13.3934-9.2368 1.9461 0 3.8158.3947 5.5329 1.1447h.0382c5.2276 2.25 8.9289 7.6185 8.9289 13.8553zm-2.2513 4.3816c.4579-1.3816.725-2.8421.725-4.3816 0-5.2895-2.9763-9.9079-7.3263-12.0789l-.725 1.8157c3.625 1.8948 6.1434 5.7632 6.1434 10.2632 0 1.2632-.1908 2.4868-.5724 3.6316zm-9.9592-8.0132 2.0605-5.1316c1.7934.9474 3.2434 2.4474 4.1592 4.3027l-4.9605 2.1316c-.3434-.5527-.7632-.9869-1.2592-1.3027zm-2.2895 6.3948c1.4882 0 2.6711-1.2237 2.6711-2.7632s-1.1829-2.7632-2.6711-2.7632-2.6711 1.2237-2.6711 2.7632 1.1829 2.7632 2.6711 2.7632zm.8776-7.0264c-.2671-.0789-.5723-.0789-.8776-.0789s-.6105.0395-.8776.0789l-2.0606-5.1315c.9158-.3158 1.9079-.4737 2.9382-.4737s2.0224.1579 2.9382.4737zm-3.1671.6316-2.0605-5.1316c-1.7553.9079-3.2434 2.4474-4.1211 4.2632l4.9606 2.1316c.3052-.5132.725-.9474 1.221-1.2632zm-1.8316 2.7237c-.0763.2763-.0763.5921-.0763.9079s.0382.6316.0763.9079l-4.9605 2.1316c-.3052-.9474-.4579-1.9737-.4579-3.0395s.1527-2.0921.4579-3.0395zm1.8316 4.5395c-.496-.3158-.9158-.75-1.221-1.2632l-4.9987 2.0921c.9158 1.8553 2.3658 3.3553 4.1592 4.3027zm1.4119.6316c.2671.0789.5723.0789.8776.0789s.6105-.0395.8776-.0789l2.0606 5.1315c-.9158.3158-1.9079.4737-2.9382.4737s-2.0224-.1579-2.9382-.4737zm3.1671-.6316 2.0605 5.1316c1.7553-.9079 3.2434-2.4474 4.1211-4.2632l-4.9606-2.1316c-.3052.5132-.725.9474-1.221 1.2632zm1.8316-2.7237c.0763-.2763.0763-.5921.0763-.9079s-.0382-.6316-.0763-.9079l4.9605-2.1316c.3052.9474.4579 1.9737.4579 3.0395s-.1527 2.0921-.4579 3.0395zm.1144-13.579c-1.3355-.4736-2.7473-.75-4.2355-.75-5.1132 0-9.5776 3.079-11.6763 7.579l1.7552.75c1.8316-3.75 5.5711-6.3553 9.9211-6.3553 1.2211 0 2.4039.1974 3.5105.5921zm-17.2092 12.6711c0-1.5395.2671-3 .725-4.3816l1.7553.75c-.3816 1.1448-.5724 2.3684-.5724 3.6316 0 4.5 2.5184 8.3684 6.1434 10.2632l-.725 1.8157c-4.35-2.171-7.3263-6.7894-7.3263-12.0789zm8.7382 12.6711c1.3355.4736 2.7473.75 4.2355.75 5.1132 0 9.5776-3.079 11.6763-7.579l-1.7552-.75c-1.8316 3.75-5.5711 6.3553-9.9211 6.3553-1.2211 0-2.4039-.1974-3.5105-.5921z"/><path d="m86.6767 31.1693c.2705-.6134.8888-1.0735 1.623-1.0735.9661 0 1.7003.7285 1.7003 1.6869 0 .9585-.7729 1.7253-1.7389 1.7253-.6183 0-1.1593-.3451-1.4685-.8435-1.3344.2505-2.1976.8015-3.0922 1.3726l-.0006.0004-.0982.0626-.0937.0596-.1096.0705c-1.2867.8275-2.752 1.7698-5.5323 1.7698-2.8816 0-4.3498-.9854-5.6579-1.8634l-.0226-.0152c-1.2752-.8434-2.3959-1.5719-4.7531-1.5719-2.3232 0-3.4837.757-4.6794 1.537l-.1124.0732-.1097.0706c-1.2867.8274-2.7519 1.7697-5.5322 1.7697-2.8596 0-4.3667-.9585-5.6805-1.8403l-.0672-.043c-1.1702-.7494-2.2111-1.416-4.1449-1.5288.0457-.0909.093-.1832.1409-.2767.1947-.3802.3996-.7802.5546-1.1802 2.0095.23 3.2461 1.0351 4.3281 1.7636 1.2752.8434 2.4345 1.6102 4.8304 1.6102 2.3232 0 3.4837-.757 4.6794-1.537l.1123-.0732.1097-.0705c1.2867-.8275 2.7519-1.7698 5.5322-1.7698 2.821 0 4.2894.9585 5.6033 1.8403 1.2366.8434 2.4345 1.6102 4.8304 1.6102 2.2027 0 3.362-.6518 4.5212-1.4185.8888-1.4952 1.8936-3.9489 2.0481-7.3994h-33.6195c-.8502 0-1.5071-.6518-1.5458-1.4569-.1159-3.4121-1.3138-6.5175-3.2074-9.0862-.0772-.0767-.1159-.1534-.1545-.2301-.9275-1.1501-1.9708-2.2236-3.1688-3.1054-.0773-.0383-.1159-.0767-.1932-.1533-2.7437-2.032-6.1443-3.2205-9.854-3.2205-5.41 0-10.2018 2.5304-13.2546 6.4409-.0387.115-.0773.1534-.1546.23-1.8935 2.5304-3.0528 5.6742-3.2074 9.0863-.0386.8051-.6956 1.4569-1.5457 1.4569h-8.88794c.03865.6901.11593 1.3035.19322 1.9169h5.98972c.4251 0 .7728.345.7728.7668 0 .4217-.3477.7667-.7728.7667h-5.68058c.73423 2.9138 2.04809 4.7157 2.55046 5.3291 1.35212-.0725 2.77332-.7621 4.26362-1.4853l.2576-.1249c.106-.0512.212-.1025.3181-.1539 1.324-.6417 2.6504-1.2845 4.01-1.533.1932.4984.425.9968.6955 1.4569-1.3033.1436-2.6406.7921-4.0436 1.4724l-.2844.1378c-1.7776.8818-3.6325 1.8019-5.56461 1.8019-1.89352 0-3.70975-.8818-5.48734-1.7636-.30914.2301-.65693.3834-1.08201.3834-.966076 0-1.73894-.7668-1.73894-1.7252 0-.9585.772864-1.7253 1.73894-1.7253.96608 0 1.7003.7668 1.73895 1.6869 1.04336.5368 2.04809 1.0352 3.05281 1.3419-1.00472-1.6102-2.27995-4.409-2.47316-8.4729-.03865-.3833.11593-.8051.42507-1.1118.30915-.3067.69558-.46 1.12065-.46h5.41004v-8.8179c0-.8435.6956-1.5336 1.5457-1.5336h2.28l6.608-9.81468v-2.45367c0-.843454.6955-1.53355 1.5457-1.53355h1.9322c.8501 0 1.5457.690096 1.5457 1.53355v1.53354h1.9708c.0773-.76677.7342-1.34185 1.5071-1.34185h1.9321c.8502 0 1.5458.6901 1.5458 1.53355v3.64217c3.7097.15335 7.1103 1.41853 9.9313 3.45044h18.4714c.8502 0 1.5457.6901 1.5457 1.5336v1.9169h5.0237c.8501 0 1.5457.6901 1.5457 1.5336v3.2971 2.1853 3.3355h14.4912c.4251 0 .8115.1533 1.1206.46.2705.2684.4251.6901.4251 1.1118-.1159 2.4537-.6183 4.4473-1.2366 5.9809.541-.2301 1.198-.4218 1.9322-.5368zm-74.1177-7.0159h1.9322c.0386-.6518.1159-1.3036.1932-1.917h-2.1254zm2.4346-3.4505h-2.4346v-5.3674h4.6759c-1.0048 1.6102-1.7776 3.4504-2.2413 5.3674zm3.3233-6.901c.9274-1.1501 1.9708-2.1853 3.1301-3.0671v-3.9872l-4.7531 7.0543zm6.608-5.21404c-.657.30671-1.3139.65176-1.9322 1.03514v-8.08945h1.9322zm1.5457-.61342c.6183-.23003 1.2752-.42172 1.9321-.57508v-2.79872h-1.9321zm5.41-1.07348c-.6569.03834-1.3138.07668-1.9321.19169v-3.83386h1.9321zm29.9485 4.98404h-16.6166.0001v.0001c.6183.6133 1.2365 1.2267 1.7775 1.9168h14.839zm-11.0133 12.2684c-.1159-3.2588-1.1207-6.2492-2.7437-8.8179h20.3264v1.9169h-2.0481c-.7729 0-1.4298.6134-1.4298 1.4185v2.1853c0 .7668.6183 1.4186 1.4298 1.4186h2.0481v1.9169zm15.6505-3.4505h1.9322v-1.917h-1.9322z"/></g></g></svg>