<svg height="31" viewBox="0 0 70 31" width="70" xmlns="http://www.w3.org/2000/svg" xmlns:xlink="http://www.w3.org/1999/xlink"><mask id="a" fill="#fff"><path d="m.01.118v23.556h69.97v-23.556z" fill="#fff" fill-rule="evenodd"/></mask><g fill="none" fill-rule="evenodd"><path d="m.01.118v23.556h69.97v-23.556z"/><g fill="#0f4beb"><path d="m40.667 10.463h4.305v16.312h4.398v-16.312h4.305v-3.909h-13.008z"/><path d="m32.389 14.4c0 1.63-.954 2.646-2.46 2.646-1.538 0-2.46-1.016-2.46-2.647v-13.973h-4.399v14.035c0 4 2.767 6.494 6.858 6.494 4.09 0 6.857-2.493 6.857-6.494v-14.035h-4.395v13.974m32.67-5.756-2.522-.954c-1.384-.524-1.63-1.416-1.63-2.001 0-1.108.8-1.939 2.214-1.939 1.384 0 2.306.923 2.306 2.37v.554h4.121v-.462c0-3.755-2.583-6.094-6.427-6.094-4.029 0-6.366 2.77-6.366 5.848 0 2.955 1.538 4.71 4.46 5.817l2.828 1.077c1.261.493 1.753 1.17 1.753 2.186 0 1.415-.922 2.246-2.583 2.246-1.66 0-2.675-.77-2.675-2.4v-.739h-4.152v.708c0 3.755 2.89 6.094 6.827 6.094 4.305 0 6.766-2.616 6.766-6.34 0-3.725-2.4-5.017-4.92-5.971m-61.239.116-1.91-1.912-1.911 1.912 1.91 1.912 1.912-1.912m4.277.456 1.455 1.456 1.91-1.912-1.946-1.948a2.006 2.006 0 0 0 -2.838 0l-6.68 6.685 1.91 1.912 6.19-6.193m-.456 8.106-1.911-1.913-1.455 1.457-1.455-1.457-1.913 1.913 1.947 1.949a2.005 2.005 0 0 0 2.838 0l1.948-1.95m.456 3.369-1.455-1.456-1.911 1.913 1.947 1.948a2.006 2.006 0 0 0 2.838 0l1.947-1.948-1.91-1.913z" mask="url(#a)" transform="translate(0 6.128)"/><path d="m11.92 22.994-1.455-1.457-1.91 1.912 1.947 1.95a2.005 2.005 0 0 0 2.838 0l1.946-1.949-1.91-1.913zm.456-3.37 1.912 1.913 1.91-1.912-1.911-1.913-1.91 1.912m-4.278-.454-1.455-1.457-1.91 1.912 1.946 1.948a2.006 2.006 0 0 0 2.838 0l6.68-6.685-1.911-1.913-6.188 6.194m2.548-16.517-2.547-2.552-2.549 2.55 2.549 2.552 2.548-2.55"/><path d="m4.92 8.457h1.827v3.62a2.659 2.659 0 0 1 2.703 0v-3.62h1.828l1.197 1.198 2.548-2.55-2.548-2.55-1.197 1.198h-6.358l-1.197-1.198-2.548 2.55 2.548 2.55z"/></g></g></svg>