<svg fill="none" height="32" viewBox="0 0 32 32" width="32" xmlns="http://www.w3.org/2000/svg"><path clip-rule="evenodd" d="m22.7674 20.0221c0-.1401-.0684-.2101-.0684-.3502l4.5808-4.6232 3.487-3.5723s1.299-1.401 1.2306-3.29227c-.5469-3.43229-1.0255-6.16411-1.0255-6.16411l-8.8198 3.57235h-.0684l.2051.6304s2.2562-.9106 3.0083 0c.0684.07008.2051.14015.3418.56042.2051.70047.547 2.10141 1.094 5.18351.1367.7005-.1368 1.1207-.2735 1.3309l-.0684.07-3.9654 4.0627c-.1368-1.0506-.1368-.7004 0 0-.9572-5.884-2.5297-15.48035-2.5297-15.48035l-8.8882 3.7125.1367.70047s2.2562-.91061 3.0083-.07007c.0684.14006.2051.21013.3418.56041.2052.70047.547 2.10142 1.094 5.18344.1367.9106-.3419 1.4009-.3419 1.4009l-3.8971 4.0628c-.9571-5.9541-2.46132-15.48038-2.46132-15.48038l-8.88818 3.7125.136792.70039s2.256218-.91061 3.008318 0c.34182.42035.61532.21022 3.55524 18.14219 0 0 .47861 2.4517-2.05112 4.6231l.68371.8406s7.11056-4.7632 6.35846-9.8066c0-.14-.0684-.2802-.0684-.4202l4.5124-4.6231c.4786 2.2414 1.0256 5.2535 1.641 9.2462 0 0 .4786 2.4516-2.0512 4.6231l.6837.8405c-.0684-.07 7.0422-4.7632 6.3585-9.8766z" fill="#f22d45" fill-rule="evenodd"/></svg>