<svg fill="none" height="24" viewBox="0 0 134 24" width="134" xmlns="http://www.w3.org/2000/svg"><path clip-rule="evenodd" d="m23.1517.245613-11.269 17.785587 9.6516-.1236v5.8468l-21.5343-.1236 12.6311-17.23911-10.70729.2298.16992-6.375877zm9.4558 0c3.6821 0 6.6177 1.117917 8.7889 3.335657 2.0841 2.11274 3.126 4.8374 3.126 8.19113 0 3.3185-1.0249 6.13-3.0918 8.4527-2.1191 2.3925-4.7583 3.5801-7.9194 3.5276-4.4465-.0697-7.6247-1.0826-9.5354-3.0206-1.7364-1.7643-2.605-4.5242-2.605-8.279 0-3.35285.8336-6.11278 2.4838-8.29522 1.9798-2.60245 4.8975-3.912267 8.7529-3.912267zm4.2352 15.557587c-.9949 1.1044-2.2414 1.639-3.7422 1.6215-1.8263-.0176-3.2187-.4987-4.1584-1.4433-.8856-.8911-1.3382-2.12-1.3382-3.6695 0-1.5864.4339-2.92249 1.2839-3.99091.922-1.15792 2.1872-1.74611 3.7965-1.74611 1.7356 0 3.1102.51619 4.1407 1.53189.9762.97973 1.4643 2.24483 1.4643 3.79513 0 1.5319-.4881 2.8329-1.4466 3.9013zm19.8079-15.557587c3.6811 0 6.6168 1.117917 8.7878 3.335657 2.0841 2.11274 3.1261 4.8374 3.1261 8.19113 0 3.3185-1.025 6.13-3.092 8.4527-2.1181 2.3925-4.7582 3.5801-7.9192 3.5276-4.4465-.0697-7.6247-1.0826-9.5353-3.0206-1.7365-1.7643-2.6051-4.5242-2.6051-8.279 0-3.35285.8336-6.11278 2.4838-8.29522 1.9798-2.60245 4.8975-3.912267 8.7539-3.912267zm4.2342 15.557587c-.9938 1.1044-2.2414 1.639-3.7423 1.6215-1.8262-.0176-3.2185-.4987-4.1583-1.4433-.8865-.8911-1.3381-2.12-1.3381-3.6695 0-1.5864.4338-2.92249 1.2838-3.99091.9221-1.15792 2.1872-1.74611 3.7965-1.74611 1.7356 0 3.1105.51619 4.1408 1.53189.9762.97973 1.464 2.24483 1.464 3.79513 0 1.5319-.4878 2.8329-1.4464 3.9013zm14.6542-15.402094-.0341 7.620974 5.9977-7.431523 7.3353.103663-7.42 8.99986 9.4077 12.82812-6.9915.328-7.078-9.2072-1.2853 1.1725.1199 7.8792-6.1358-.0688.1029-22.380287zm40.219 22.414194-6.889-22.500877-10.0487-.06881-7.9947 22.604587 7.5457-.0179 1.3982-4.1205 6.9935.0688.897 3.9999zm-10.685-9.9111-1.435-6.32932-2.127 6.23022zm18.304 4.1177-.142-16.776287h-6.586v22.604587l16.918-.2413v-6.0696z" fill="#ff9a37" fill-rule="evenodd"/></svg>