<svg fill="none" height="32" viewBox="0 0 32 32" width="32" xmlns="http://www.w3.org/2000/svg"><path d="m14.7226 27.9742c-3.7112-1.3894-6.78412-3.8795-9.39223-6.3896-2.56791-2.5503-4.696105-5.1207-5.2513961-7.5831-.5025259-2.4749 1.4497861-3.8594 4.2463461-4.23629 2.84932-.50253 6.53288.0201 10.62338-1.40456 4.0981-1.24124 7.8545-4.22122 11.5707-4.35439 1.7789-.07789 3.3946.56785 4.3971 2.13573s1.3995 3.99511.804 6.78411c-1.1533 5.7489-4.5227 11.0556-7.3017 13.5129-2.8794 2.5679-6.0278 2.872-9.6962 1.5352zm.3643-18.86981c-3.3192.93971-6.28156 1.17591-8.41478 1.88701-2.13323.711-3.39206 1.8191-3.09305 3.7111.299 1.892 1.83924 3.8996 3.83679 5.7791 1.99754 1.8794 4.50764 3.5956 7.34444 4.377 2.8694.7236 5.3544.2713 7.6886-1.789 2.2614-1.9825 4.3946-5.573 5.068-9.3319.701-3.8142-.9648-6.04793-3.4121-6.38713-2.485-.44976-5.7515.98244-9.0179 1.75382z" fill="#175cd3"/></svg>