<svg fill="none" height="32" viewBox="0 0 32 32" width="32" xmlns="http://www.w3.org/2000/svg" xmlns:xlink="http://www.w3.org/1999/xlink"><linearGradient id="a" gradientUnits="userSpaceOnUse" x1="0" x2="19.6874" y1="5.33008" y2="34.8665"><stop offset="0" stop-color="#ff4244"/><stop offset="1" stop-color="#ff8e3c"/></linearGradient><path clip-rule="evenodd" d="m30.8016 13.7141c.5535.5388.9375 1.2276 1.1046 1.9817.1671.7542.1101 1.5407-.164 2.2629l-2.0885 5.6737c-.5481 1.4896-1.7975 2.6419-3.3414 2.9427-.7722.1546-1.572.0963-2.3137-.1686s-1.3974-.7264-1.8971-1.3352l-12.52374-15.0047c-.03114-.0369-.07143-.065-.11683-.08152-.04541-.01647-.09434-.02072-.14191-.01235-.04757.00838-.09211.02907-.12915.06007-.03705.031-.06531.0712-.08196.1165l-4.07463 11.0209c-.08454.2278.13971.4484.36217.3577l5.00005-2.0422c.2819-.1143.5844-.1691.8884-.161.3041.0081.6032.079.8786.2082s.5211.3138.7217.5424c.2007.2287.3519.4963.4443.7861.3693 1.1328-.2518 2.3563-1.3455 2.803l-6.53149 2.6669c-1.20931.4939-2.59837.4067-3.68755-.3203-.74224-.4961-1.295613-1.2278-1.570742-2.0771-.2751291-.8493-.2559509-1.7665.054437-2.6036l4.814105-13.01673c.57039-1.543 1.86958-2.63218 3.47576-2.91337.78218-.14018 1.58758-.06938 2.33328.20511.7458.27449 1.4049.74275 1.9095 1.35658l7.1883 8.61381 6.6116-2.7007c1.4691-.5998 3.0869-.2786 4.2214.8391zm-3.813 4.3264c.0836-.2278-.1406-.4484-.3631-.3568l-3.6528 1.4914 2.1908 2.626c.0311.0373.0715.0658.1171.0826.0456.0167.0949.0211.1427.0127.0479-.0084.0927-.0293.1299-.0606.0372-.0312.0655-.0718.0819-.1175l1.3526-3.6778z" fill="url(#a)" fill-rule="evenodd"/></svg>