<svg fill="none" height="32" viewBox="0 0 32 32" width="32" xmlns="http://www.w3.org/2000/svg" xmlns:xlink="http://www.w3.org/1999/xlink"><linearGradient id="a" gradientUnits="userSpaceOnUse" x1="-20.5997" x2="7.46091" y1="12.3771" y2="52.2237"><stop offset="0" stop-color="#3023ae"/><stop offset="1" stop-color="#c86dd7"/></linearGradient><path clip-rule="evenodd" d="m31.2143 24.423c-.533-.6515-1.2343-1.0625-1.9785-1.2314-1.2554-.2844-2.316-1.1213-2.9651-2.2343l-.1664-.2863c-.6583-1.1268-.8046-2.4711-.4535-3.7282.3328-1.1965.0292-2.5325-.9107-3.4731-.4845-.4844-1.0734-.8001-1.6942-.9469-1.259-.2973-2.3406-1.103-2.9925-2.2206l-.1691-.2918c-.6565-1.12494-.8046-2.46646-.4572-3.72173.3538-1.27086-.0091-2.70047-1.0944-3.64559-1.3303-1.15984-3.3537-1.1525-4.6767.01468-1.5543 1.37088-1.6092 3.74653-.1673 5.19082.4827.48265 1.0697.7983 1.6896.94512 1.2581.29913 2.337 1.10386 2.988 2.2206l.1755.3009c.6565 1.1241.8046 2.4647.4572 3.719-.3292 1.1947-.0275 2.5289.9124 3.4685.4819.4818 1.0698.7965 1.6869.9452 1.2554.2991 2.3315 1.1029 2.9834 2.2187l.1856.3184c.6556 1.1259.8028 2.4683.4544 3.7254-.3309 1.1947-.0274 2.5289.9116 3.4685 1.4446 1.4452 3.8182 1.3883 5.1887-.1688 1.1337-1.292 1.1749-3.2538.0914-4.588zm-12.4473.0019c-.5303-.6515-1.2279-1.0617-1.9694-1.2314-1.259-.2872-2.3224-1.1259-2.9734-2.2417l-.1499-.2597c-.6675-1.1424-.8064-2.5013-.4627-3.7786.3402-1.2636-.0274-2.6794-1.1026-3.6172-1.3303-1.1598-3.35369-1.1534-4.67669.0147-1.55432 1.3718-1.61101 3.7474-.16915 5.1908.47544.4753 1.05145.7891 1.65764.9378 1.2745.3147 2.3726 1.1213 3.0337 2.2554l.1508.2597c.6675 1.1442.8064 2.505.4627 3.7823-.3182 1.1883-.0128 2.5096.9198 3.4428 1.4427 1.4443 3.8181 1.3874 5.1877-.1697 1.1356-1.292 1.1768-3.2529.0915-4.5861zm-15.21217 5.7973c1.96576 0 3.55665-1.5948 3.55665-3.5584 0-1.9664-1.59181-3.5603-3.55483-3.5603-1.96576 0-3.55665 1.5948-3.55665 3.5584 0 1.9664 1.59181 3.5603 3.55483 3.5603z" fill="url(#a)" fill-rule="evenodd"/></svg>