<svg fill="none" height="32" viewBox="0 0 32 32" width="32" xmlns="http://www.w3.org/2000/svg"><path clip-rule="evenodd" d="m16 0c-8.83275 0-16 7.16725-16 16 0 8.8327 7.16725 16 16 16 8.8327 0 16-7.1673 16-16 0-8.83275-7.1673-16-16-16zm10.4979 15.9626c-.0374-.262-.3181-.3556-.5614-.3556-.3181 0-.6175.1497-.8608.4304-.3743.4304-.5988 1.1228-.524 1.7029.0375.3556.2059.7486.5614.7486.2807 0 .6924-.4117.8421-.9731.1123-.4117.5053-.6924.786-.6924.1684 0 .2807.0936.2994.2433.0168.0671-.0116.1945-.1257.7066l-.0427.1916c-.0561.2433-.0749.4866-.0561.6737.0561.4117.2432.655.3929.786.0749.0561.1123.1309.1123.1684 0 .0561-.0187.1123-.0561.1497-.0374.0561-.1123.0748-.1871.0748-.0375 0-.0936 0-.1498-.0374-.7298-.2994-.9918-.786-1.0666-1.1602-.262.3181-.6176.5052-.9731.5052-.655 0-1.2538-.5614-1.3287-1.2538-.0374-.2619 0-.5614.0749-.8608-.2433.131-.5053.2246-.7299.2246-.0748 0-.1497 0-.2245-.0187-.5614.8234-1.1977 1.4596-1.7217 1.7403-.1871.1123-.3929.1684-.5426.1684s-.262-.0561-.2995-.131c-.1122-.1871-.2058-.4865-.2432-.8982-.655.6924-1.5345 1.0292-1.9462 1.0292-.4679 0-.7673-.2807-.8234-.7672-.0187-.1497-.0187-.3369.0187-.524.0936-.5988.262-1.0667.393-1.3848l.009-.0247c.0702-.1931.1212-.3331.1033-.387 0-.0187-.0188-.0561-.0562-.0561-.1497 0-.4865.262-.8234.6362-.3742.4304-.6549.8796-.7298 1.1977l-.131.5988c-.0748.4117-.4865.7111-.8047.7111-.1497 0-.262-.0935-.2807-.2432 0-.0562 0-.131.0187-.2059l.0562-.262c-.5614.4117-1.179.6924-1.4784.6924-.3743 0-.6175-.1871-.7298-.5052-.262.3368-.6176.5052-.9918.5052-.4679 0-.9357-.2994-1.179-.7672-.3555.393-.72979.7111-1.12278.9731-.82339.524-1.5345.7672-2.28304.7672-.95438 0-1.68421-.5988-1.89006-.7859-.50526-.4679-.86081-1.2164-.95438-2.0398-.2807-2.3205 1.17895-5.2398 3.23743-6.4936.46783-.2807 1.02924-.4491 1.55321-.4491.97312 0 1.79652.6924 1.92752 1.6281.1122.8421-.2807 1.5158-1.10413 1.9275-.24327.1122-.43041.1871-.58011.1871-.11228 0-.16842-.0374-.18714-.0749-.05614-.0935-.01871-.2245.07486-.2994.82339-.6924.82339-1.2538.72982-2.021-.05614-.4866-.37427-.8234-.74854-.8234-.52397 0-1.14152.3743-1.74035 1.0667-1.08538 1.2163-2.05848 3.3684-1.83392 5.1461.131 1.0854.80468 2.1895 2.02106 2.1895.41169 0 .86082-.1123 1.29122-.3181.71112-.3743 1.12283-.655 1.49713-1.1041-.0562-.655.2245-1.4035.7298-1.9462.4865-.524 1.1228-.8047 1.7965-.8047.7485 0 1.2538.3182 1.3286.8234.0374.2433-.0187.4304-.1497.5801-.1684.1872-.4491.2433-.5801.2433-.1871 0-.5053-.0561-.5427-.2433-.0173-.0864.0612-.1249.1323-.1598l.0174-.0086.0113-.0056c.1095-.0545.2307-.1148.1946-.3499-.0375-.3182-.4304-.3369-.5614-.3369-.3182 0-.5989.1497-.8421.4117-.4305.4866-.5989 1.2538-.5427 1.7404.0374.3368.2245.7298.5614.7298.2807 0 .6737-.393.8234-.9731.0935-.4117.4865-.6924.7859-.6924.1684 0 .2807.0748.2994.2433 0 .0561 0 .131-.0187.2058 0 .0444-.0117.1006-.0259.1684v.0001c-.0037.0179-.0076.0366-.0115.0561-.0561.2432-.1123.5614-.1123.6549 0 .0375.0187.2246.2246.2246.131 0 .6737-.2807 1.1602-.7111.1684-.8234.3556-1.7778.3556-1.8526.0561-.3369.1871-.6737.8608-.6737.1684 0 .262.0935.2807.2433 0 .0561 0 .1309-.0187.2058l-.1684.7298c.5614-.7111 1.4222-1.2538 1.9649-1.2538.262 0 .4304.1497.4678.393.0187.1497-.0187.3743-.1123.6363-.1871.5052-.4117 1.2912-.5427 1.9836-.0187.0748-.0187.1684.0562.2433.0374.0561.1123.0935.2058.0935.1872 0 .8608-.2245 1.4222-.9731v-.2994c0-.6175.0562-1.0479.1498-1.3661.1122-.3368.5614-.7111.8795-.7111.1684 0 .2807.0936.2807.262 0 .0562-.0187.131-.0374.2059-.2059.5988-.2995 1.1602-.2995 1.6842 0 .3181.0749.8234.131 1.0666.0041.0123.0073.0237.0102.034v.0001c.0103.0367.0168.0595.046.0595.0748 0 .6924-.5801 1.1602-1.3474-.393-.262-.6175-.7485-.6175-1.3099 0-.9731.5801-1.4971 1.1602-1.4971.4304 0 .8795.2994.8795.9918 0 .3556-.131.786-.3742 1.2913h.0935c.2994 0 .5801-.131.7486-.3369.0748-.0749.131-.131.1871-.1684.5053-.6175 1.1789-.9357 1.9088-.9357.7485 0 1.2538.3182 1.3286.8234.0375.2433-.0187.4491-.1497.5988-.1684.2059-.4491.2433-.5801.2433-.2433 0-.524-.0561-.5427-.2433-.017-.0848.043-.1081.1241-.1396l.0256-.0101c.0097-.0194.0257-.0375.0437-.058.0516-.0585.1199-.136.106-.3162zm-4.3976-.7673c0-.2058.0749-.4304.2246-.4304.1123 0 .2994.1872.2994.6737 0 .2433-.0374.4679-.131.7298-.2433-.2619-.393-.6362-.393-.9731z" fill="#00c2cd" fill-rule="evenodd"/></svg>