<svg fill="none" height="32" viewBox="0 0 32 32" width="32" xmlns="http://www.w3.org/2000/svg" xmlns:xlink="http://www.w3.org/1999/xlink"><clipPath id="a"><path d="m0 0h32v32h-32z"/></clipPath><g clip-path="url(#a)"><path d="m3.55556 0h-3.55556v11.2593h3.55556z" fill="#5a4cdb"/><path d="m31.9999 20.7407h-3.5556v11.2593h3.5556z" fill="#5a4cdb"/><path d="m16 22.5185c-1.7413 0-3.3781-.6779-4.6094-1.9092-1.2312-1.2312-1.90915-2.868-1.90915-4.6093s.67795-3.3782 1.90915-4.6094c1.2313-1.2312 2.8681-1.90915 4.6094-1.90915s3.378.67795 4.6093 1.90915l-2.5142 2.5142c-.5597-.5595-1.3037-.8678-2.0951-.8678-.7915 0-1.5355.3083-2.0952.8678-.5595.5597-.8678 1.3037-.8678 2.0952 0 .7914.3083 1.5354.8678 2.0951.5597.5595 1.3037.8678 2.0952.8678.7914 0 1.5354-.3083 2.0951-.8678l2.5142 2.5142c-1.2313 1.2313-2.868 1.9092-4.6093 1.9092z" fill="#211e4f"/><path d="m16 0h-16v3.55556h16z" fill="#468be8"/><path d="m32 28.4445h-16v3.5555h16z" fill="#a260d4"/></g></svg>