<svg fill="none" height="32" viewBox="0 0 32 32" width="32" xmlns="http://www.w3.org/2000/svg"><path clip-rule="evenodd" d="m13.8831 7.15422 3.2172-1.93672-8.20543-4.945865c-.29126-.1773146-.62561-.27127326-.9666-.271635-.24784.00046283-.49317.0497385-.72198.145014-.2288.095275-.4366.234683-.61153.410266-.17493.175582-.31356.3839-.40798.61306s-.14277.47467-.14231.72252v14.60834c-.00285.6544.164 1.2983.48427 1.869s.78302 1.0486 1.34309 1.387l3.57007 2.152v-10.4245c.0014-.8703.2267-1.72556.6542-2.48362.4276-.75805 1.0429-1.39337 1.787-1.84486zm.7126 24.84578c.3434.0016.6806-.0924.9736-.2717l8.6465-5.2175c.5564-.3355 1.0169-.8088 1.337-1.3742s.489-1.2039.4903-1.8536v-19.04973c.0014-.21799-.0404-.43411-.1229-.63587-.0826-.20176-.2043-.38517-.3581-.53964-.1538-.15448-.3367-.27696-.5381-.36038-.2015-.08343-.4174-.12613-.6354-.12566-.2965.00466-.5858.09135-.8361.25046l-4.2085 2.52585c.8343.92834 1.2977 2.13137 1.3017 3.37956v14.60831c.0027.5589-.1434 1.1084-.4235 1.5921-.28.4836-.6838.884-1.1698 1.1599-.4861.2759-1.0368.4173-1.5957.4098-.5588-.0075-1.1055-.1637-1.584-.4525l-3.175-1.9085v5.9689c-.0009.2493.0476.4964.1427.7269.0951.2304.2349.4398.4114.616.1764.1761.3861.3155.6167.4102.2307.0947.4778.1427.7272.1413zm-1.8838-9.3414v-11.1759c-.0011-.6521.1666-1.2934.4868-1.86155.3202-.56811.782-1.04366 1.3405-1.38039l3.69-2.22247c.3631.35181.6519.77283.8494 1.23818.1976.46535.2998.96558.3007 1.47111v14.60832c.0004.2483-.048.4943-.1426.7239-.0946.2295-.2335.4382-.4088.6142-.1752.1759-.3834.3155-.6126.411-.2293.0954-.4751.1448-.7234.1453-.3398-.0009-.6729-.0948-.963-.2717z" fill="#000" fill-rule="evenodd"/></svg>