<svg fill="none" height="32" viewBox="0 0 32 32" width="32" xmlns="http://www.w3.org/2000/svg"><path clip-rule="evenodd" d="m15.9976.0100126c-8.82587.0225932-15.9750068 7.1717274-15.9976 15.9975874 0 5.5537 2.42939 8.633 5.45193 8.633 1.77947 0 3.70967-1.0825 5.10347-3.7938.511-1.0004 1.2568-2.3942 2.1318-3.9289 1.8148-.1136 3.6079-.1743 4.7962-.1958.3534-.3794.5072-.9032.415-1.4134-1.3331.0118-2.8522.0607-4.3713.1547 1.108-1.8754 2.3491-3.8369 3.5511-5.47155h.321c2.1494.01825 4.2961.15355 6.4307.40525.3916-.3915.5188-.76349.603-1.40363-2.3374-.29877-4.691-.45241-7.0474-.46004-6.5247 0-9.82914 1.38403-9.82914 3.19087 0 .556.30147 1.1961 1.35662 1.3704-.09007-.1829-.13822-.3835-.14095-.5873 0-1.4996 2.77977-2.2611 6.56577-2.4529-1.1745 1.5837-2.4411 3.6176-3.5804 5.5537-.5873.0529-1.155.1096-1.7051.1762-.32839.3813-.47611.8858-.40521 1.384.40911-.043.83781-.0822 1.27831-.1194-.5873 1.0258-1.10604 1.9792-1.52302 2.7661-1.31551 2.4803-2.74652 3.3749-4.03658 3.3749-2.42743 0-3.84082-3.1772-3.84082-7.1824 0-7.9577 6.51491-14.53917 14.47262-14.53917 7.9576 0 14.4706 6.58147 14.4706 14.52937s-6.5149 14.5372-14.4706 14.5372c-3.5923-.0052-7.05238-1.356-9.69802-3.786-.48082.1986-.86362.5793-1.06494 1.059 5.27936 4.8172 13.11456 5.5454 19.19126 1.7837 6.0767-3.7616 8.9188-11.0994 6.9614-17.9729-1.9575-6.87349-8.239-11.61298466-15.3858-11.6087874z" fill="#080b0f" fill-rule="evenodd"/></svg>