<svg fill="none" height="32" viewBox="0 0 32 32" width="32" xmlns="http://www.w3.org/2000/svg"><path clip-rule="evenodd" d="m2.44566 0h.94334c6.25436 1.36042 14.8157 1.5176 22.5898 1.39972 1.1396-.01839 2.3689-.24178 3.3372-.07138 1.3245.23084 1.4604 2.24162 1.3059 3.80633-.1877 1.88424-2.0192 2.13683-3.8793 2.37164-2.4749.31051-5.3681.30318-7.9063.4284-.8508 2.58279-1.623 5.24129-2.4289 7.86679 1.2109.1209 2.4467-.0715 3.7348-.0715 1.8623 0 4.2558-.2933 4.0618 1.7964-.0713.7757-.4922 1.4861-.9419 2.2635-.4336.7419-.9228 1.4658-1.4891 1.7582-.8416.4357-2.2631.322-3.5172.322-1.298 0-2.4985.0632-3.589.1468-.9545 3.1899-2.2188 6.6747-4.498 8.6185-.75464.6449-1.80172 1.3392-3.04572 1.3638-1.48934.0277-2.84327-.6969-3.30008-1.8319-.33863-.844.03495-1.9008.25419-2.7649.55788-2.1909 1.20967-4.1746 1.84896-6.178-1.21731-.5835-2.31123-1.2403-3.00973-2.4413-.48641-.8399-1.12401-3.5847.03798-4.1682.71876-.3573 1.73782.2399 2.42964.4698.88329.2924 1.65496.4317 2.42807.6098.16368-.375.29047-.7909.43582-1.1849-2.92212-.4452-5.65243-1.3712-6.34802-4.06-.20371-.78399-.34397-2.41948.36436-2.79945.65215-.35089 1.41144.15478 1.92188.39283 1.71695.80345 3.87178 1.13787 6.02275 1.25876.2662-.41674.4309-.93719.648-1.40152-4.67268-.1311-9.64044-1.47495-9.53525-6.2836.01856-.813295.41895-1.5296182 1.12401-1.61662z" fill="#45b8ea" fill-rule="evenodd"/></svg>