<svg fill="none" height="32" viewBox="0 0 32 32" width="32" xmlns="http://www.w3.org/2000/svg" xmlns:xlink="http://www.w3.org/1999/xlink"><clipPath id="a"><path d="m.315002 0h31.3651v32h-31.3651z"/></clipPath><g clip-path="url(#a)"><path d="m31.6804 16.3675c0-1.0877-.0882-2.1812-.2763-3.2512h-15.0917v6.1613h8.6423c-.3586 1.9872-1.5109 3.745-3.1982 4.8621v3.9978h5.156c3.0277-2.7867 4.7679-6.9021 4.7679-11.77z" fill="#4285f4"/><path d="m16.3117 32c4.3152 0 7.9544-1.4169 10.6059-3.8626l-5.156-3.9978c-1.4345.9759-3.2864 1.5286-5.444 1.5286-4.1742 0-7.71344-2.8161-8.98333-6.6023h-5.3206v4.1213c2.71615 5.4029 8.24843 8.8128 14.29803 8.8128z" fill="#34a853"/><path d="m7.32861 19.066c-.67022-1.9871-.67022-4.1389 0-6.126v-4.12127h-5.31472c-2.269335 4.52107-2.269335 9.84747 0 14.36857z" fill="#fbbc04"/><path d="m16.3117 6.33178c2.2811-.03527 4.4857.82308 6.1378 2.39868l4.568-4.56807c-2.8925-2.71615-6.7316-4.2094433-10.7058-4.16241041-6.0496 0-11.58188 3.40988041-14.29803 8.81867041l5.31472 4.12125c1.26401-3.79202 4.80911-6.60812 8.98331-6.60812z" fill="#ea4335"/></g></svg>