<svg fill="none" height="32" viewBox="0 0 32 32" width="32" xmlns="http://www.w3.org/2000/svg"><g clip-rule="evenodd" fill="#28324f" fill-rule="evenodd"><path d="m22.5871 15.3445c-2.9578 5.5598-6.352 10.8336-9.9493 16.0439-2.93439-6.8067-2.2242-12.7318 3.4333-17.6959 1.8964-1.66 4.019-3.0499 6.0399-4.55905 2.0911-1.56463 4.2136-3.07374 6.2661-4.69401.8113-.64335 1.459-1.51702 2.3018-2.42247.2027 1.62027.4527 3.12143.5695 4.63841.3668 4.45582-.0386 8.81622-1.8492 12.95422-2.3176 5.3056-6.3519 8.8242-11.4708 11.1593-.8977.413-1.8182.7625-2.9577 1.2311 2.9028-5.5836 5.6264-10.9448 7.6164-16.6555z"/><path d="m4.80499 6.32223c2.1068 3.28822 3.90167 6.70347 4.68201 10.72247-2.09918-.1668-3.87068-.8499-5.24389-2.4146-1.42807-1.6203-1.98233-3.6377-2.31763-5.71067-.46841-2.9387-.85857-5.88539-1.295475-8.91943.772715.357413 1.576415.698943 2.341005 1.10401 2.69205 1.42965 5.07216 3.24849 6.80454 5.82186 2.01335 2.99433 2.47365 6.24283 1.48245 9.71373-.0468.1588-.1169.3098-.2495.6513-1.22532-4.2731-3.37886-7.81548-6.20351-10.96867z"/></g></svg>