<svg fill="none" height="32" viewBox="0 0 32 32" width="32" xmlns="http://www.w3.org/2000/svg" xmlns:xlink="http://www.w3.org/1999/xlink"><clipPath id="a"><path d="m0 0h32v32h-32z"/></clipPath><g clip-path="url(#a)" fill="#ec0182"><path d="m9.19285 22.8564c0 2.4949 2.03825 4.5718 4.52535 4.5718l.0026-10.6658-3.4572-4.6776c-.62182-.8282-1.07075-1.8318-1.07075-2.94121v-9.14359h-4.52793v9.14359c0 3.39271 1.83181 6.30301 4.52793 7.93101z"/><path d="m18.2797 27.4282v4.5718h-4.5254v-4.5718h4.5254v-10.769l3.594-4.7472c.5882-.7586.9339-1.6951.9339-2.76841v-9.14359l4.528.00258003v9.13843997c0 3.39268-1.8319 6.33648-4.528 7.93098v5.7818c0 2.5284-2.0047 4.5744-4.5279 4.5744z"/></g></svg>