<svg fill="none" height="32" viewBox="0 0 32 32" width="32" xmlns="http://www.w3.org/2000/svg" xmlns:xlink="http://www.w3.org/1999/xlink"><linearGradient id="a"><stop offset="0" stop-color="#fff" stop-opacity=".01"/><stop offset=".15" stop-color="#e3f8f2" stop-opacity=".25"/><stop offset=".31" stop-color="#caf1e6" stop-opacity=".48"/><stop offset=".46" stop-color="#b6ecdc" stop-opacity=".67"/><stop offset=".61" stop-color="#a6e7d5" stop-opacity=".81"/><stop offset=".75" stop-color="#9ae4cf" stop-opacity=".92"/><stop offset=".89" stop-color="#93e3cc" stop-opacity=".98"/><stop offset="1" stop-color="#91e2cb"/></linearGradient><linearGradient id="b" gradientUnits="userSpaceOnUse" x1="15.0627" x2="33.6104" xlink:href="#a" y1="41.2693" y2="15.4417"/><linearGradient id="c" gradientUnits="userSpaceOnUse" x1="-155953" x2="-154820" xlink:href="#a" y1="1906.71" y2="942.727"/><path d="m16.0008 31.9999c.0087.0007.0172-.0022.0236-.0081s.0101-.0143.01-.023c0-.0186-.015-.0337-.0336-.0337-1.0601.0012-2.1171-.1125-3.1526-.3392-6.04607-1.5907-9.97302-7.4241-9.17421-13.628.79882-6.2038 6.07522-10.8508 12.32681-10.85624 1.9627 0 3.5538-1.592 3.5538-3.55583s-1.5911-3.55583-3.5538-3.55583c-8.83148.00000013-15.9907902 7.16342-15.9907902 15.9999 0 8.8366 7.1593102 16 15.9907902 16z" fill="url(#b)"/><path d="m16.0008 0c-.0186 0-.0337.0150736-.0337.0336677 0 .0087114.0036.0170355.01.0229443s.015.0088597.0237.0081337c1.0635-.0039536 2.1243.1098273 3.1629.3392673 6.0567 1.583017 9.9935 7.423527 9.1911 13.635387-.8025 6.2118-6.0942 10.8587-12.354 10.8488-1.2697 0-2.4429.6778-3.0777 1.7779-.6348 1.1002-.6348 2.4557 0 3.5559s1.808 1.7779 3.0777 1.7779c8.8314 0 15.9907-7.1634 15.9907-16 0-8.83648-7.1593-15.99989987-15.9907-15.9999z" fill="url(#c)"/><g fill="#2dba8a"><path d="m16.0008 7.11166c1.9627 0 3.5537-1.592 3.5537-3.55583s-1.591-3.55583-3.5537-3.55583c-1.9628 0-3.5538 1.592-3.5538 3.55583s1.591 3.55583 3.5538 3.55583z"/><path d="m16.0008 32c1.9627 0 3.5537-1.592 3.5537-3.5559 0-1.9638-1.591-3.5558-3.5537-3.5558-1.9628 0-3.5538 1.592-3.5538 3.5558 0 1.9639 1.591 3.5559 3.5538 3.5559z"/></g></svg>