<svg fill="none" height="32" viewBox="0 0 32 32" width="32" xmlns="http://www.w3.org/2000/svg" xmlns:xlink="http://www.w3.org/1999/xlink"><clipPath id="a"><path d="m0 0h32v32h-32z"/></clipPath><g clip-path="url(#a)"><path d="m28.6961 9.94538c4.4052 2.51402 4.4052 8.79902 0 11.31312l-14.1242 8.0605c-4.4052 2.514-9.91168-.6285-9.91168-5.6565v-16.12115c0-5.02804 5.50648-8.170552 9.91168-5.65654z" fill="#00d582"/><path clip-rule="evenodd" d="m4.12986 20.3555 14.12414 8.1463c3.3039 1.9056 7.4338-.4764 7.4338-4.2876v-16.29259c0-3.81113-4.1299-6.19311-7.4338-4.28754l-14.12414 8.14633c-3.303882 1.9056-3.303882 6.6695 0 8.5751zm13.29824 9.5755c4.4052 2.5408 9.9117-.6352 9.9117-5.7168v-16.29259c0-5.08152-5.5065-8.257476-9.9117-5.71671l-14.12421 8.1463c-4.40518 2.5408-4.40519 8.8927 0 11.4334z" fill="#002e38" fill-rule="evenodd"/></g></svg>