<svg fill="none" height="32" viewBox="0 0 32 32" width="32" xmlns="http://www.w3.org/2000/svg" xmlns:xlink="http://www.w3.org/1999/xlink"><linearGradient id="a" gradientUnits="userSpaceOnUse" x1="7.61381" x2="1.89902" y1="-1.66583" y2="24.1969"><stop offset="0" stop-color="#ffa5a5"/><stop offset=".255645" stop-color="#ff9595"/><stop offset=".574286" stop-color="#a078ff"/><stop offset="1" stop-color="#74ffe4"/></linearGradient><linearGradient id="b" gradientUnits="userSpaceOnUse" x1="-7.9722" x2="8.74954" y1="9.90598" y2="39.62"><stop offset="0" stop-color="#ffa5a5"/><stop offset=".255645" stop-color="#ff9595"/><stop offset=".574286" stop-color="#a078ff"/><stop offset=".840419" stop-color="#77f8e5"/><stop offset="1" stop-color="#74ffe4"/></linearGradient><mask id="c" height="32" maskUnits="userSpaceOnUse" width="32" x="0" y="0"><path clip-rule="evenodd" d="m16 32c8.8366 0 16-7.1634 16-16 0-8.83656-7.1634-16-16-16-8.83656 0-16 7.16344-16 16 0 8.8366 7.16344 16 16 16z" fill="#fff" fill-rule="evenodd"/></mask><mask id="d" height="32" maskUnits="userSpaceOnUse" width="32" x="0" y="0"><path clip-rule="evenodd" d="m16 32c8.8366 0 16-7.1634 16-16 0-8.83656-7.1634-16-16-16-8.83656 0-16 7.16344-16 16 0 8.8366 7.16344 16 16 16z" fill="#fff" fill-rule="evenodd"/></mask><mask id="e" height="32" maskUnits="userSpaceOnUse" width="32" x="0" y="0"><path clip-rule="evenodd" d="m16 32c8.8366 0 16-7.1634 16-16 0-8.83656-7.1634-16-16-16-8.83656 0-16 7.16344-16 16 0 8.8366 7.16344 16 16 16z" fill="#fff" fill-rule="evenodd"/></mask><mask id="f" height="32" maskUnits="userSpaceOnUse" width="32" x="0" y="0"><path clip-rule="evenodd" d="m16 32c8.8366 0 16-7.1634 16-16 0-8.83656-7.1634-16-16-16-8.83656 0-16 7.16344-16 16 0 8.8366 7.16344 16 16 16z" fill="#fff" fill-rule="evenodd"/></mask><mask id="g" height="32" maskUnits="userSpaceOnUse" width="32" x="0" y="0"><path clip-rule="evenodd" d="m16 32c8.8366 0 16-7.1634 16-16 0-8.83656-7.1634-16-16-16-8.83656 0-16 7.16344-16 16 0 8.8366 7.16344 16 16 16z" fill="#fff" fill-rule="evenodd"/></mask><g mask="url(#c)"><g mask="url(#d)"><path d="m14.6283 31.9118c-2.0192-.1736-3.57-1.8633-3.57-3.89 0-2.1562 1.7481-3.9042 3.9043-3.9042 6.6183 0 11.9835-5.3651 11.9835-11.9834 0-6.61826-5.3652-11.983401-11.9835-11.983401-1.0472 0-2.0899.137285-3.1015.408332 1.7924-.4802902 3.6547-.644684 5.5035-.4857618 8.792.7556058 15.3067 8.4954208 14.5511 17.2873308-.7556 8.792-8.4954 15.3067-17.2874 14.5511z" fill="#060b24"/></g><g mask="url(#e)"><path d="m15.31 31.0911c-2.0192-.177-4.1998-1.3463-4.1998-3.1726s1.3645-2.8988 3.519-3.0195c8.0017-.448 13.4952-5.6822 13.4952-12.4307 0-6.7486-5.7657-12.232548-12.3839-12.232548-1.0473 0-1.7484-.029108-2.76.247275-8.52369 2.328863-13.581967 11.262573-11.29807 19.954073 1.74081 6.6247 6.80939 10.4262 13.62757 10.654z" fill="url(#a)"/></g><g mask="url(#f)"><path d="m13.0373 31.3105c-3.12095-.8994-3.39507-3.2116-2.9081-4.7905.649-2.1038 2.5129-2.7007 4.8415-2.9853 7.689-.94 11.862-5.2005 11.862-11.4709 0-6.27039-5.0429-11.546719-12.226-11.03378-1.0453.07465-4.343.17149-5.27711.70935-5.90454 3.39966-11.05039 9.86493-8.766497 18.38863 1.740807 6.4968 5.797007 10.8667 12.474207 11.1825z" fill="#060b24"/></g><g mask="url(#g)"><path clip-rule="evenodd" d="m-1 16c0 9.3888 7.61116 17 17 17 9.3888 0 17-7.6112 17-17 0-9.38884-7.6112-17-17-17-9.38884 0-17 7.61116-17 17zm32 0c0 8.2843-6.7157 15-15 15-8.28427 0-15-6.7157-15-15 0-8.28427 6.71573-15 15-15 8.2843 0 15 6.71573 15 15z" fill="url(#b)" fill-rule="evenodd"/></g></g></svg>