<svg fill="none" height="32" viewBox="0 0 32 32" width="32" xmlns="http://www.w3.org/2000/svg"><path d="m11.8823 10.9097c1.7144.0244 2.8653 1.3594 2.8653 2.8173 0 1.2367-.8204 2.3022-2.1917 2.523l2.8775 4.0654h-1.5428l-2.8173-3.9552h-1.0155v3.9539h-1.38391v-9.4044zm-1.8245 5.2533h1.5184c1.5428 0 2.0571-1.4693 2.0571-2.3632 0-.8574-.4529-2.4368-2.0693-2.4368h-1.5062z" fill="#231f20"/><path d="m21.0534 10.8975c1.5558 0 2.9514 1.0163 3.4287 2.6571h-1.5062c-.1346-1.1509-.8078-2.1795-2.0079-2.1795-1.7392 0-3.0368 1.3103-3.0368 4.2858 0 2.9754 1.5306 4.5552 3.2693 4.5552 1.2123 0 2.5714-.9427 3.2206-2.6937h.2082c-.5143 1.5672-1.7266 2.9015-3.5743 2.9015-2.5713 0-4.8357-1.4814-4.8357-4.7634s2.0546-4.763 4.8341-4.763z" fill="#231f20"/><path d="m28.811 16c0 8.6505-5.8177 15.5-12.8105 15.5-6.99284 0-12.8105-6.8495-12.8105-15.5 0-8.65051 5.81766-15.5 12.8105-15.5 6.9928 0 12.8105 6.84949 12.8105 15.5z" stroke="#231f20" stroke-miterlimit="10"/></svg>