<svg fill="none" height="32" viewBox="0 0 32 32" width="32" xmlns="http://www.w3.org/2000/svg" xmlns:xlink="http://www.w3.org/1999/xlink"><clipPath id="a"><path d="m0 10.12h32v11.7521h-32z"/></clipPath><g clip-path="url(#a)"><g fill="#67686b"><path d="m18.0214 10.1904c.2431-.0576.4926-.0768.7421-.064.2303.1535.1855.4798.1024.7037-.2687.0064-.5502.096-.8061.0192-.1599-.1663-.2239-.499-.0384-.6589z"/><path d="m19.4987 10.12h.8381c.0767.2239.1599.5374-.032.7229-.2495.0768-.531.032-.7805-.0064-.2047-.1855-.1279-.499-.0256-.7165z"/><path d="m21.2837 10.1584c.2431-.0832.5246.0128.7741.0704.1792.2111.1088.5565.0064.7932-.2047.2112-.5502.0128-.7997-.0255-.2111-.2048-.1343-.6142.0192-.8381z"/><path d="m16.3323 10.4718c.1983-.0575.3967-.0959.6014-.1151.2495.096.2943.4222.1919.6461-.2431.0448-.4862.1088-.7357.1152-.2111-.1088-.3518-.563-.0576-.6462z"/><path d="m22.9471 11.1628c-.1536-.2751 0-.627.2047-.8317.2239.0768.4606.1344.6845.2303.1344.2495.0384.6526-.1983.8189-.2367-.032-.4734-.1151-.6909-.2175z"/><path d="m14.4001 11.1116c.2495-.1088.5054-.2303.7869-.2559.1791.096.3007.3135.2623.5182-.192.1727-.4798.1983-.7229.2559-.2368-.0576-.2687-.3263-.3263-.5182z"/><path d="m24.681 11.1372c.2943-.0576.6206.1343.902.2495.1536.2367-.0511.5502-.2367.7037-.2559.0704-.5054-.1151-.7485-.1855-.403-.0896-.1535-.6206.0832-.7677z"/><path d="m27.0478 12.0072c.0448-.2367.0896-.4798.1728-.7037.3646.7229.6269 1.497.9404 2.2455-.2559.16-.5566.0192-.8253-.0064-.5054-.0959-1.0364-.0895-1.5162-.2751.2367-.1471.4926-.2814.7421-.4094-.1855-.1471-.435-.2303-.5694-.435-.0319-.3263.2048-.6398.4927-.7805.1791.1215.371.2431.5629.3646z"/><path d="m12.9415 11.8793c.2239-.0896.435-.2175.6717-.2687.2239.032.2943.2815.3966.4478-.2367.1408-.4926.2559-.7484.3583-.1728-.1408-.3519-.3007-.3199-.5374z"/><path d="m11.8092 12.4167c.3903-.1983.9149.1024.9149.5502.0512.4862-.5566.8636-.966.5821-.4351-.2367-.4031-.9404.0511-1.1323z"/><path d="m29.7735 12.8965c.4286.0064.8637 0 1.2923 0-.0064.4926 0 .9852-.0064 1.4778h.9404v1.2155c-.3135 0-.6269 0-.9404 0 .0064 1.561-.0064 3.1219.0064 4.6829-.435 0-.8637 0-1.2987 0 .0064-1.561 0-3.1219.0064-4.6829-.3391 0-.6717 0-1.0044 0 0-.403 0-.8061 0-1.2091h1.0108c-.0128-.499-.0064-.9916-.0064-1.4842z"/><path d="m26.8621 14.3679c.4222-.0064.8445-.0064 1.2667 0-.0064 2.0024-.0128 4.0048 0 6.0072-.4222.0064-.8509.0064-1.2731 0 .0256-2.0024.0128-4.0048.0064-6.0072z"/></g><g fill="#007eca"><path d="m5.23328 12.8581c.43502 0 .86365.0064 1.29868-.0064.04478.5566.02559 1.1195.00639 1.6761 1.08117-.5374 2.58457-.3838 3.33947.627.40308.531.56938 1.2027.58858 1.8616.0064 1.1196-.0064 2.2391.0064 3.3587-.4414.0064-.88287.0064-1.32429 0 .0128-1.062 0-2.124.0064-3.1859.0064-.5502-.14714-1.1836-.64614-1.497-.41584-.2815-.998-.2623-1.38825.0511-.40943.3135-.56297.8509-.56297 1.3499v3.2819c-.44143.0064-.88285.0064-1.32427 0 .00639-2.5014 0-5.0092 0-7.517z"/><path d="m.563352 15.2635c.313475-.5758.940428-.902 1.567378-.9852.9916-.1599 2.14954.1663 2.71891 1.0428-.33267.2815-.67173.5566-.998.8445-.35186-.6718-1.27949-.9917-1.94483-.5822-.27509.1535-.29428.6013-.01279.7613.4926.2815 1.07477.3135 1.59936.5054.499.1791 1.01719.4798 1.22191.998.2559.6717.07677 1.5162-.4862 1.9896-.49261.4286-1.17713.563-1.81048.5502-.92123 0-1.868053-.3903-2.4118351-1.158.3454621-.2943.6909241-.5821 1.0235951-.8828.34546.563 1.00439.9404 1.66973.838.36465-.0255.80608-.2814.7421-.7101-.05118-.307-.36465-.4222-.62055-.5118-.66533-.2367-1.43303-.2687-1.983208-.7677-.537385-.467-.594962-1.3178-.27509-1.932z"/><path d="m11.4514 14.3679c.4222 0 .8381-.0064 1.2603 0-.0128 2.0024.0256 4.0048-.0192 6.0008-.4158.0192-.8316.0064-1.2411.0064.0128-2.0024.0064-4.0048 0-6.0072z"/><path d="m14.3367 15.2315c1.1771-1.1643 3.2819-1.1643 4.4462.0128 1.1131 1.0684 1.1835 3.0004.1855 4.1648-.998 1.2091-2.9236 1.4138-4.2095.5438v1.9192c-.4414 0-.8892 0-1.3307 0 0-1.4714-.0064-2.9364.0064-4.4078 0-.8253.3007-1.657.9021-2.2328zm1.7976.4095c-1.1451.2367-1.7017 1.6825-1.1515 2.6741.4414.9148 1.7145 1.2219 2.5462.6717.8892-.5309 1.0812-1.8552.4734-2.6741-.403-.5822-1.1835-.8508-1.8681-.6717z"/><path d="m21.4444 14.9117c1.2475-.8573 3.1155-.7037 4.1455.4222 1.0748 1.1324 1.0556 3.1156-.0448 4.2223-1.03 1.0876-2.8532 1.2283-4.0751.3903v1.9256c-.4351 0-.8765 0-1.3115 0 .0064-1.3179 0-2.6293 0-3.9472 0-.4542-.032-.9212.1023-1.3627.192-.6653.6142-1.2667 1.1836-1.6505zm1.3946.7293c-.7229.1663-1.2667.8253-1.3435 1.5546-.0831.6397.1792 1.3307.7102 1.7145.6333.4734 1.5801.4606 2.1943-.0384.7485-.5758.8828-1.7465.3518-2.5142-.3966-.6077-1.2091-.902-1.9128-.7165z"/></g></g></svg>