<svg fill="none" height="32" viewBox="0 0 32 32" width="32" xmlns="http://www.w3.org/2000/svg" xmlns:xlink="http://www.w3.org/1999/xlink"><clipPath id="a"><path d="m0 0h32v32h-32z"/></clipPath><g clip-path="url(#a)" clip-rule="evenodd" fill="#3b3d3e" fill-rule="evenodd"><path d="m3.01272 12.7939c.1673-.0309.44429-.0942.83213-.1832.38825-.0887.83513-.1704 1.34034-.2386.50522-.068 1.0364-.109 1.59103-.1196.55439-.011 1.07649.0339 1.56073.1299.48425.0962.89642.2595 1.2351.483.33827.2233.54365.5228.62225.8918.0874.4125.0741.7979-.0305 1.1569-.1046.3593-.2682.691-.48618.9981-.2187.3073-.48219.5877-.78858.8449-.30728.2572-.62606.4891-.95862.6963-.33345.2072-.66715.3853-1.00449.5354-.33727.1494-.64876.2669-.93699.3494-.60523.1735-1.1251.2905-1.56891.3413-.44413.0509-.82006.0522-1.13123-.002-.31101-.0539-.56337-.1526-.75595-.299-.19266-.1464-.33639-.3212-.42878-.5267-.10989-.2451-.15251-.5174-.12274-.8174.02993-.3001.11613-.5925.26089-.876.14509-.2827.33934-.5392.58252-.7669.24334-.2272.51757-.3904.81789-.4873.03135-.0103.05993-.006.08519.0124.02518.0186.04813.0438.06981.0753.0212.0313.03958.0671.05564.1079-.18848.0599-.32538.1583-.40713.2927-.08337.1348-.10051.2594-.05433.3739.04707.1149.1647.1955.35267.2441.18853.0486.45361.0172.80005-.0891.25442-.0779.51789-.1785.79137-.301.27389-.1227.54106-.256.80175-.4021.26094-.1455.50608-.3004.73493-.4655.22885-.1652.42907-.3282.59855-.4909.16947-.1622.29896-.3199.38709-.4745.08764-.1546.11408-.2984.07746-.4315-.04641-.1684-.18875-.2978-.42805-.3855-.23955-.0874-.59925-.1271-1.07733-.1093-.47799.0187-1.0901.0959-1.82762.2509-.73727.1553-1.62634.4004-2.64779.7662-.20966-.0255-.41045-.0757-.60401-.1514-.19322-.0749-.370866-.1634-.532115-.2653-.161327-.1015-.304363-.2114-.428876-.3314-.124345-.1191-.218437-.2404-.281952-.3644-.10971998-.2149-.10970717-.4677.005797-.7588.116236-.2907.317892-.5999.610348-.9232.292378-.3231.654838-.6506 1.090978-.9771.43549-.32716.9082-.63095 1.41708-.90933.50839-.27862 1.03946-.52164 1.58909-.72754.54978-.20614 1.07837-.3594 1.58029-.46312.33108-.06851.64559-.11256.94115-.13382.29573-.02134.55723-.01132.78393.02806.2267.03978.41566.10729.56689.20158.15049.09476.24647.21973.28891.375.08313.30378-.05155.7191-.38265 1.25152-.60355.09882-1.14462.22464-1.62229.36995-.47775.1459-.90365.3062-1.27748.4768-.37406.1707-.7003.3472-.97971.5264-.27965.1792-.51658.351-.71194.5126-.46199.3893-.79144.7855-.99561 1.1792z"/><path d="m10.4647 12.2934c.1584-.0788.3234-.1535.4943-.2242.1478-.0533.3095-.1072.4846-.1618.175-.0537.3413-.0878.498-.1015.2355-.0206.4067.0214.5113.1224.1057.1018.1729.2467.2028.434.023.1447.03.3098.0199.4964s-.0227.3806-.0386.5824c-.0159.2017-.0269.4065-.0337.6148-.0065.2082.0046.4094.0324.6041.0453.3173.1375.6271.2733.9302.1352.3031.3576.5966.6623.8846-.135.0581-.2895.1111-.4633.1595-.151.0465-.328.0887-.533.1281-.2047.0392-.4295.0705-.6737.0962-.2064.0213-.3577-.0398-.4549-.1854-.0982-.1457-.1683-.3437-.2117-.5951-.0554-.3223-.0908-.7024-.1047-1.1398-.0138-.4372-.0623-.878-.1482-1.3224-.0461-.236-.1086-.4667-.1888-.6918-.0805-.2249-.1902-.4354-.3283-.6307zm1.0896-.8274c-.3703.0356-.6544-.0203-.8592-.1724-.2047-.1529-.3329-.3355-.3825-.5501-.0278-.1213-.0316-.2482-.0114-.3796.0202-.131.067-.2515.1403-.3592.0731-.10803.1713-.20061.2941-.2768.1239-.07611.2687-.12295.4341-.13955.1836-.01829.3503-.00799.4987.03023.1479.03823.2768.0971.3846.17597.1083.07951.1958.17361.2625.28225.0659.1084.1095.2205.1299.3361.0219.1229.0202.2422-.0048.3571-.0254.1152-.0764.2235-.1529.3244-.077.1011-.1766.1841-.2992.2496-.1229.0653-.2673.1059-.4342.122z"/><path d="m16.4104 12.4236c-.1663-.0039-.3165.0376-.4491.1234-.1323.0858-.246.2017-.3411.3468-.0962.1453-.1738.3109-.2345.4966-.0606.1856-.0989.3807-.1155.5839.2745-.0309.5034-.086.6879-.1676.1841-.0816.3307-.177.439-.2874.1083-.1103.1851-.2261.2298-.3486.0442-.1224.0634-.2383.0572-.3477-.0072-.1163-.0372-.212-.0897-.286-.053-.0742-.1145-.1122-.184-.1134zm-.1596 2.2399c-.1491-.0031-.3069-.0142-.4729-.0331-.1667-.0192-.3381-.0463-.5145-.0816.0147.189.0465.365.0949.5279.0482.1634.1167.3081.2054.4353.0885.1274.1986.2273.3306.3006.1321.0744.2862.1124.4626.1158.2082.0046.4083-.06.6031-.1943.1944-.1343.3437-.3287.4455-.5852.313.0445.5443.1357.6914.2693.1481.1338.2201.2842.2183.4517-.0019.1382-.0621.2644-.18.3794-.1173.1155-.2742.2143-.469.2971-.195.0829-.4179.148-.6693.1962-.2518.0479-.5097.0697-.7761.0649-.305-.0052-.6101-.0504-.916-.1352-.3062-.0845-.5883-.2218-.849-.4135-.2607-.1915-.4842-.4472-.6716-.769-.1878-.3222-.3134-.7206-.374-1.1982-.0495-.3906-.0201-.7731.0968-1.1476.1168-.3739.2989-.7125.5496-1.0131.2503-.3004.5535-.5421.9079-.7216.3548-.1792.7373-.267 1.1423-.261.3959.0057.7452.0658 1.0443.1759.2985.1103.5499.2511.7534.4193.203.1687.3538.3593.452.57.0985.2111.1485.4261.1519.6448.0035.2264-.0438.4428-.1396.6508s-.2404.3904-.4318.5496c-.1914.1591-.4278.2841-.7083.3769-.2807.0932-.6053.1344-.9779.1279z"/><path d="m21.3189 12.8176c.0055-.1159-.0304-.2048-.1088-.2665-.0787-.0618-.1765-.1001-.2923-.1147-.1709-.0219-.3423.005-.5144.0798-.1718.0751-.2584.1861-.2617.3312-.0035.1595.039.2969.1279.4124.0889.116.201.2198.3374.3129.1365.0936.2894.1843.4591.2727.1701.0886.3343.1883.4922.2995.4501.3006.759.6032.9319.8973.173.2948.2416.5684.2119.8197-.025.2085-.1138.3939-.2632.5575-.1498.1639-.3467.2958-.5893.3979-.2427.1023-.52.1713-.8328.2099-.3133.038-.6519.0349-1.0196-.0083-.5105-.0598-.8832-.1951-1.1244-.4185s-.3611-.4852-.3552-.7891c.006-.3109.1331-.6167.3905-.9148.1313.1271.29.2298.4754.309.1857.0799.3651.1292.5394.1485.1582.0174.2932.0043.4052-.0403.1117-.0447.1715-.1281.1787-.2513.0064-.1082-.0774-.2391-.2534-.3907-.1764-.1516-.37-.3219-.5839-.5108-.2134-.1887-.4121-.4009-.5972-.6381-.1848-.237-.2797-.503-.2823-.8008-.002-.2467.0698-.4611.2206-.6416.1501-.1803.3496-.3234.5989-.4274.2492-.1038.5301-.1718.8419-.2023.312-.0302.6208-.0246.9232.0161.2383.0322.4674.0853.6853.1584.2182.0734.4092.1664.5729.2776.1635.1119.2902.2365.3806.3737.0902.1371.1286.2858.1146.445-.0121.145-.0722.281-.1782.4089-.106.1281-.2544.2359-.4451.3246-.1904.0887-.4171.1487-.6801.1816-.2634.0331-.5638.026-.9038-.0185.0658-.0934.1273-.1838.1854-.271.0472-.0739.0939-.1571.1386-.2494.0445-.0926.0695-.1857.0741-.2801z"/><path d="m26.626 12.273c.0278.0074.0856.0508.1742.1305.0881.0797.178.1753.2698.2868.0913.1112.1699.2254.2357.3417.0652.1164.0903.2174.0743.3034-.015.0859-.0868.1406-.2136.1649-.1274.0243-.3472-.0077-.6611-.0915-.1932-.0513-.386-.1014-.5792-.1496-.0547.2397-.1065.4859-.1554.7382-.0488.2527-.0947.5077-.1373.7653-.089.5364-.1453 1.0627-.1714 1.5783-.0262.5154.0088.9721.1041 1.3719-.2039.0343-.4048.0633-.6041.0867-.1722.0156-.3521.0243-.5415.0272-.1885.0026-.3625-.014-.5227-.0503-.1676-.038-.3017-.1044-.4021-.1995-.1012-.0958-.1366-.2392-.1071-.432.0368-.243.0919-.5283.1646-.856.0728-.3279.1517-.6766.2361-1.0464.0843-.37.1691-.7526.2534-1.1488.0846-.3959.162-.7859.233-1.1701-.1448-.023-.2709-.0451-.3784-.0665-.1078-.0216-.2025-.0365-.2841-.0451-.0997-.0116-.1811-.0233-.2434-.035-.0543-.0102-.1135-.036-.1782-.077-.0652-.0414-.1247-.0925-.1792-.1536-.0544-.0612-.1015-.1299-.142-.2069-.0399-.0767-.0572-.1546-.0517-.2347.0055-.0795.039-.1588.1003-.2359.2936.0358.5597.074.7987.1123.2389.0388.464.0727.6764.1022.0047-.0471.0096-.0942.0145-.1413.0484-.4776.0552-.9035.0199-1.2763-.0354-.3729-.1348-.6608-.2965-.8614.4499-.02435.8459.00287 1.1835.07665.8407.18485 1.2191.64725 1.1246 1.34665-.009.0725-.0382.1995-.0867.3812-.0488.182-.1108.4055-.1859.67.0847.0065.163.0074.2352.0037.0721-.004.1465-.0072.2233-.0097z"/><path d="m29.8228 16.0683c.0347-.1334.061-.2859.0769-.4574.0143-.2034.0036-.4233-.0336-.6605-.2063.0629-.4051.1778-.5947.3442-.191.1662-.3604.3522-.5108.5561-.1509.204-.2774.4165-.3806.6372-.1036.2203-.1758.4149-.2177.5838-.033.1337-.0455.2461-.0374.3367.0082.0905.0444.1469.1105.17.0815.0286.1922.0214.3334-.0199.1406-.0416.291-.1234.4513-.2453.1598-.1221.3132-.2844.4608-.4875.1467-.2035.2618-.4556.3419-.7574zm.098-2.5223c.1716.0613.3166.1451.434.2502.1168.105.2095.2193.2771.3416.0675.1226.1171.2464.1488.371.0316.1247.0533.24.0641.3454.1114.0203.2243.0455.3385.0755.1141.0304.2194.0652.317.105.1582.0648.2843.1427.3765.2326.0922.09.12.1985.0821.324-.1405.4752-.2842.8657-.4273 1.1741-.1434.3086-.2575.5977-.3434.8673-.0506.1593-.0868.3148-.1079.4672-.0214.1517-.0241.3161-.0087.4923.0157.1762.0502.3671.1039.573.0534.2057.1353.4362.2442.6932-.1725-.0079-.3421-.0216-.5082-.0408-.1485-.0188-.3092-.0466-.4823-.0819-.1733-.0355-.3415-.0871-.5071-.1562-.1576-.0652-.2716-.1527-.3436-.2636-.0716-.1106-.1182-.24-.1397-.388-.0212-.1486-.0225-.3155-.0028-.5018.0195-.1862.0516-.3868.0955-.6023-.2812.2477-.5324.4348-.7549.56-.2224.1256-.4245.2096-.6065.2519-.183.0419-.3509.0522-.5052.0298-.1543-.0227-.2951-.0545-.422-.0967-.2226-.0737-.405-.1849-.5497-.3358-.144-.1513-.2514-.3272-.3235-.5299-.0708-.2024-.1103-.4268-.1151-.6732-.0054-.2458.0173-.501.069-.7648.079-.399.2201-.7969.4303-1.1924.2099-.395.4676-.735.7776-1.0157.3088-.2815.6684-.4792 1.0783-.5902.4103-.1105.8499-.0853 1.311.0792z"/><path d="m7.24037 20.7474c-.03609-.4208-.23141-.6346-.53074-.5907-.33709.0531-.53153.4328-.51946 1.1089.00964.493.10681.9683.59513 1.0373.30931.0408.45069-.2371.48068-.6246.30769.0126.61643.0249.92623.0369-.06463 1.1557-.59772 1.7251-1.37347 1.5243-.97137-.2684-1.56434-1.0573-1.58227-2.0062-.01757-.942.60397-1.7523 1.41475-1.9942.88948-.2443 1.40355.3127 1.50188 1.4575-.30468.0159-.60936.0333-.91273.0508z"/><path d="m9.8714 20.206c-.08535.6076-.17008 1.2048-.25614 1.7894.20153.0099.40344.0194.60514.0286-.1163-.6171-.23281-1.2236-.349-1.818zm-1.45572 3.2564c.3162-1.4348.62988-3.0095.94193-4.6973.32408-.0564.64869-.1076.97459-.1556.3887 1.6781.7805 3.4615 1.1753 5.3227-.3219-.0365-.6433-.0772-.964-.121-.0432-.235-.0869-.4677-.1301-.6997-.3204-.0329-.64071-.0688-.96051-.1071-.03134.2106-.06302.419-.09512.6261-.31456-.0524-.62883-.1081-.94209-.1681z"/><path d="m11.8027 23.948c-.0341-1.8368-.0675-3.6742-.1013-5.5105.3917-.0454.7841-.085 1.1766-.1193.1972 1.1764.3947 2.3711.5925 3.5806.1534-1.206.3059-2.4271.4589-3.6601.3938-.024.7876-.0429 1.182-.0567.0369 1.9917.0731 3.9828.11 5.9743-.2935-.006-.5868-.015-.8798-.0273-.0114-.6025-.0231-1.2033-.0334-1.8055-.0013-.3059-.0035-.612-.005-.9189.0102-.3554.0198-.7116.0298-1.0678-.0021-.0005-.0051.0002-.008.0002-.1578 1.2686-.3157 2.5258-.4743 3.7688-.2267-.0116-.4536-.0256-.6804-.041-.2034-1.2452-.4069-2.4739-.6103-3.6817-.0021 0-.0055 0-.0081.0007.0194.2777.0377.5563.0566.8344.0127.2942.0252.5891.0371.8839.0118.642.0235 1.284.0356 1.9259-.2928-.0234-.5859-.0502-.8785-.08z"/><path d="m17.0368 20.892c.2264-.0008.3871-.1843.3754-.7006-.0127-.5569-.3274-.6356-.5333-.6365-.0919-.0004-.1841-.0005-.276-.0008.0099.4463.0203.8928.0305 1.339.1348-.0003.2689-.0007.4034-.0011zm-1.3032 3.2748c-.0451-2.0042-.09-4.0081-.135-6.0121.4753-.009.9508-.0095 1.4261-.0022.8506.0168 1.279.8247 1.3066 2.0371.028 1.2704-.3304 2.0879-1.1809 2.1011-.1629.0014-.3262.0028-.4887.0042.0137.6238.0275 1.2486.0418 1.8724-.3229.0036-.6464.0034-.9699-.0005z"/><path d="m18.7824 24.0783c-.0359-1.9566-.072-3.9117-.1078-5.8676.8121.0408 1.6237.1053 2.433.1928.0081.4236.0157.8472.0233 1.2713-.483-.0264-.9678-.0483-1.4528-.0659.0048.2735.0105.5465.0153.8201.4103.0051.8198.0117 1.229.0202.0084.4279.0156.8552.024 1.2828-.409.0131-.8186.0241-1.2284.0338.0056.3009.0111.6004.0166.9006.5032-.0252 1.006-.055 1.5079-.0902.0076.4223.0154.8454.023 1.2681-.8249.1022-1.6531.1803-2.4831.234z"/><path d="m22.6242 20.7739c.1263.002.2536.0044.3801.0071.2979.0046.4539-.1131.4467-.4451-.0082-.3391-.1751-.5143-.4001-.5345-.1498-.0125-.2997-.0248-.4495-.0368.0079.3363.0148.6728.0228 1.0093zm.0225 1.1094c.0136.5892.0267 1.1788.0394 1.7684-.3187.0504-.6388.0965-.9592.1391-.0402-1.7809-.0807-3.5628-.1205-5.3443.4643.0579.928.1245 1.3908.1983.9798.1693 1.3094.6439 1.3292 1.5024.0113.5131-.1286.9437-.4661 1.1003.3131.1768.5009.2803.5212 1.1783.0132.5832.0052.7854.1182.7629.001.0451.0024.0902.0032.1356-.3211.0652-.6425.1269-.9648.1846-.027-.1018-.0578-.4055-.0676-.8336-.0145-.6262-.0835-.8287-.5305-.8067-.0978.0046-.1957.0102-.2933.0147z"/><path d="m26.3931 20.3454c-.018-.1247-.0725-.2047-.1418-.2594-.0703-.0543-.1556-.0865-.2495-.0991-.2118-.0284-.3039.0404-.3011.1815.0126.5724 1.6838.3895 1.702 1.4689.0124.6807-.5373 1.198-1.3361 1.423-.7667.2163-1.2842-.3416-1.3193-1.132.307-.026.6137-.0537.9194-.0821.0227.1389.0812.2354.1634.2889.0784.0535.1803.0696.2733.0558.2383-.0365.3944-.154.3913-.3192-.0079-.5354-1.6809.0035-1.7136-1.6559-.0169-.9248.5159-1.2717 1.2497-1.08.8147.2166 1.191.7691 1.2693 1.3017-.3013-.0318-.6036-.0627-.907-.0921z"/></g></svg>