<svg fill="none" height="32" viewBox="0 0 32 32" width="32" xmlns="http://www.w3.org/2000/svg" xmlns:xlink="http://www.w3.org/1999/xlink"><clipPath id="a"><path d="m0 0h32v32h-32z"/></clipPath><g clip-path="url(#a)"><path d="m16.0004 6.47189c7.069 0 12.7994 5.71441 12.7994 12.76371 0 7.0494-5.7304 12.7644-12.7994 12.7644-7.06958 0-12.80057-5.715-12.80057-12.7644 0-7.0487 5.73099-12.76371 12.80057-12.76371z" fill="#ccc"/><path d="m3.56024 22.1464c1.62882-1.085 4.27639-2.8354 6.71906-4.398 2.1388-.5067 4.0732-.7899 5.8051-.8495 1.7295.0602 3.6639.3428 5.8033.8495 2.4746 1.5835 5.1312 3.301 6.7317 4.3408-.0175.0805-.0374.1597-.0573.2396l-.009.0388c-.0187.0757-.0392.1502-.0597.2259l-.0133.0465c-.0192.0752-.0403.1509-.0633.2254l-.0102.034c-.1248.4167-.2701.8251-.4346 1.2227l-.0151.0316c-.0277.0704-.0597.1407-.0892.2111l-.0205.0465c-.0314.0685-.0621.1371-.0941.2057l-.0192.0423c-.0344.0697-.0664.1407-.1007.2104l-.0091.0155c-.1519.3047-.3134.6022-.4894.8931l-.0211.037c-.038.062-.0772.1234-.1152.1842l-.0337.0548c-.038.0591-.076.1181-.1152.1765l-.0368.0548c-.0379.0597-.0783.1181-.1187.1759l-.0301.0441c-.1863.2641-.3804.5223-.586.7727-.0126.0161-.0277.0328-.0398.0495-.0416.0506-.085.1007-.1266.1496-.0187.0227-.0367.0441-.0572.0668-.041.0477-.0832.0954-.1236.1419-.0211.0226-.0416.0453-.0621.0679-.0416.0465-.085.093-.1266.1389-.0199.0221-.0398.0436-.0621.065-.044.0465-.088.0936-.1338.1395-.0151.0161-.0308.0322-.0482.0489-.1513.155-.3069.3064-.4672.4531-.0253.0227-.0507.0459-.0742.068-.0416.0381-.0838.0745-.1254.112-.0289.0263-.0596.0525-.0892.0781-.0391.0352-.0807.0698-.1223.105-.0332.0262-.0645.0536-.0959.0805-.0416.0333-.0826.0667-.1242.1007-.0313.0262-.0639.0513-.097.0775-.0428.0334-.0832.0662-.126.099-.0332.0256-.0669.0518-.1025.0781-.0428.031-.0826.0626-.1254.0936-.0343.0256-.0705.0507-.1049.0763-.0741.053-.1501.1067-.226.1592-.0398.0286-.082.0572-.1236.0852-.0392.0257-.0772.0513-.1145.0763-.0428.0275-.0838.0549-.1266.0817-.0404.0256-.0796.0501-.1182.0751-.0428.0263-.0844.0525-.1272.0781-.0392.0245-.0801.0483-.1187.0722-.0452.0262-.0899.0524-.1357.0787-.0379.0226-.0765.0441-.1145.0661-.0482.0269-.0958.0531-.1453.0793-.0361.0203-.0729.0406-.1091.0596-.0639.0346-.1272.068-.1929.1014-.0277.0143-.0555.0286-.0838.0429-.0783.0388-.1567.0775-.2351.1151-.0313.0155-.0627.0298-.0952.0447-.0561.0268-.1134.0525-.1694.0781-.0356.0161-.073.0328-.1091.0489-.0537.0232-.1067.0465-.1604.0691-.0386.0161-.0771.0322-.1151.0477-.0531.0221-.1061.043-.1592.0644-.0379.0155-.0759.0304-.1133.0447-.0573.0215-.1133.043-.17.0638-.0362.0131-.0705.0262-.1067.0388-.0717.0256-.1441.0506-.2158.0757-.0199.0065-.0404.0137-.0609.0208-.0928.0305-.1869.0615-.2815.0901-.0241.0077-.0494.0143-.0753.022-.07.0215-.1405.0424-.211.062-.0332.0096-.0657.0185-.1001.0275-.0621.0166-.1248.0339-.1881.05-.0368.009-.0741.0185-.1109.0275-.0603.0155-.1224.0298-.1833.0447-.0367.0083-.0747.0167-.1115.025-.0639.0143-.1284.0286-.1917.0417-.0337.0072-.0675.0144-.1018.0215-.0748.0155-.1508.0292-.2267.0429-.0229.0048-.0458.009-.0687.0126-.1001.0178-.2014.0345-.3014.0494-.0115.0018-.0229.0036-.0338.0048-.0886.0131-.1784.0256-.2683.0376-.0295.0035-.0608.0071-.0904.0107-.0711.0089-.1428.0167-.2134.0244-.0355.0036-.0705.0066-.1055.0102-.0681.0065-.1362.0125-.2043.0179-.0368.0029-.073.0059-.1097.0083-.0669.0054-.1363.0095-.2044.0125-.035.0018-.0705.0042-.1073.0066-.0753.0036-.1519.0059-.2279.0083-.0265.0012-.0536.0018-.0807.0024-.1043.0024-.2104.0036-.3141.0036-.1061 0-.211-.0012-.3153-.0036-.0271-.0006-.0548-.0012-.082-.0024-.0759-.0024-.1531-.0047-.2284-.0083-.035-.0018-.0687-.0042-.1037-.0066-.0693-.003-.1375-.0071-.2068-.0125-.0361-.0018-.0717-.0048-.1085-.0083-.0687-.0048-.1356-.0114-.2031-.0173-.0356-.0036-.0706-.006-.1049-.0102-.0736-.0083-.1483-.0155-.2207-.025-.0271-.003-.056-.0066-.0825-.0101-.0995-.0126-.1966-.0257-.2948-.0406l-.0079-.0012c-.1018-.0149-.2037-.0316-.3044-.0495-.0217-.0035-.0434-.0077-.0645-.0125-.0771-.0137-.1549-.0274-.2315-.0435-.0325-.006-.0633-.0131-.0964-.0197-.0663-.0137-.1314-.028-.1977-.0429-.0362-.0077-.0712-.0161-.1073-.025-.0627-.0137-.1254-.0292-.1887-.0453-.0344-.009-.0687-.0173-.1019-.0257-.0681-.0173-.1356-.0358-.2019-.0542-.0296-.0078-.0579-.0155-.0875-.0245-.0843-.0232-.1675-.0477-.2513-.0733-.0115-.0036-.0223-.0066-.0338-.0101-.0958-.0293-.1911-.0608-.2863-.0919-.0205-.0065-.0404-.0143-.0615-.0208-.073-.0251-.1447-.0495-.2164-.0751-.032-.0114-.0627-.0233-.0941-.0346-.0615-.0233-.1223-.0459-.1838-.0692-.0338-.0131-.0675-.0262-.1013-.0399-.0579-.0233-.1163-.0465-.1748-.0704-.0332-.0137-.0657-.0268-.0995-.0411-.0603-.0256-.1211-.0519-.1814-.0781-.0296-.0125-.0597-.0256-.0886-.0393-.073-.0322-.1453-.0656-.2171-.0996-.015-.0078-.0313-.0143-.0476-.0221-.0886-.0423-.1766-.0858-.264-.1299-.0199-.0108-.0392-.0209-.0591-.0304-.0669-.034-.1332-.0698-.19892-.1038-.03014-.0161-.05908-.0322-.08922-.0489-.05546-.0298-.11091-.0608-.16758-.0918-.03135-.0179-.06269-.0363-.09344-.0536-.05365-.031-.1073-.062-.16035-.0936-.03134-.0197-.06329-.0376-.09343-.0561-.05486-.0333-.10972-.0673-.16457-.1013-.02713-.0167-.05365-.034-.08138-.0519-.0627-.0399-.12479-.0811-.18748-.1216-.01929-.0125-.03798-.0244-.05606-.037-.08078-.0542-.16035-.1085-.23992-.1639-.01507-.0113-.03075-.0221-.04642-.0334-.06269-.0447-.12539-.09-.18748-.1359-.02712-.0197-.05365-.04-.08077-.0602-.05004-.0376-.10067-.0752-.1495-.1133-.02894-.0227-.05848-.0453-.08741-.068-.04883-.0375-.09645-.0757-.14287-.1144-.02833-.0227-.05727-.0454-.08439-.0686-.04763-.0388-.09525-.0781-.14227-.118-.02713-.0233-.05486-.046-.08138-.0698-.05064-.0429-.10067-.087-.1495-.1306-.0223-.0202-.04521-.0393-.06751-.0602-.07114-.0632-.14046-.1276-.20978-.1931-.01266-.0126-.02593-.0251-.03919-.0376-.05606-.0525-.11152-.1067-.16638-.1604-.02471-.025-.05003-.05-.07535-.0751-.0428-.0429-.0856-.0858-.12719-.1288-.02773-.028-.05486-.0566-.08138-.0852-.03979-.0411-.07837-.0823-.11695-.124-.02652-.0292-.05365-.059-.08078-.0882-.03858-.043-.07716-.0865-.11514-.1288-.02592-.0292-.05124-.0579-.07655-.0871-.0416-.0471-.08138-.0948-.12177-.1424-.02231-.0251-.04401-.0501-.0645-.0752-.06089-.0727-.12057-.1466-.17964-.2206-.00844-.0101-.01568-.0214-.02472-.0321-.05003-.0638-.10007-.1282-.1495-.1932-.02291-.0298-.044-.0596-.06691-.0888-.03497-.0471-.06933-.0942-.10369-.1413-.02471-.0334-.04762-.0662-.07113-.1002-.03255-.0453-.0645-.0906-.09524-.1359-.02351-.034-.04702-.0674-.06933-.102-.03195-.0465-.06329-.0948-.09524-.1419-.02231-.0327-.0428-.0655-.06451-.0989-.03134-.0495-.06269-.0996-.09343-.1491-.0205-.0322-.0416-.0643-.06089-.0965-.03797-.062-.07535-.1258-.11212-.1878-.01748-.0298-.03617-.0603-.05245-.0901-.04159-.0703-.08138-.1407-.12056-.2122-.01869-.0334-.03737-.0674-.05486-.1013-.02712-.0507-.05485-.1008-.08138-.1521-.01929-.0375-.03797-.0745-.05726-.1121-.02532-.0488-.04944-.0983-.07415-.1484-.01809-.0382-.03738-.0763-.05546-.1151-.02351-.0477-.04581-.0965-.06872-.1454-.01869-.0394-.03677-.0793-.05486-.1199-.02351-.0494-.04521-.1001-.06691-.1514-.01688-.0375-.03316-.0751-.04943-.1121-.02592-.0608-.05064-.1228-.07596-.1836-.01145-.028-.02411-.0566-.03556-.0858-.03436-.0865-.06752-.1735-.10067-.2612-.01327-.0381-.02773-.0763-.041-.1138-.01929-.0531-.03858-.1073-.05726-.1604-.01387-.0411-.02713-.0823-.04099-.124-.01749-.0513-.03497-.1026-.05124-.1544-.01327-.0423-.02653-.0853-.03979-.1276-.01567-.0519-.03135-.1031-.04642-.155-.01266-.0423-.02532-.0847-.03737-.127-.01507-.0531-.02833-.1067-.04341-.1598-.01145-.0417-.0229-.0828-.03255-.1246-.01567-.0596-.03014-.1192-.04461-.1782-.00904-.0364-.01808-.0722-.02652-.1079v-.0054z" fill="#333"/><path d="m4.221 24.1213-.66076-2.0649 6.76436-4.4384 5.6751 12.0759v2.3061h-.0048c-5.3028 0-9.8479-3.2514-11.7739-7.8787z" fill="#4d4d4d"/><path d="m10.2307 17.618 5.7699 12.4045 5.7681-12.4045h-5.7681z" fill="#ccc"/><path d="m14.3773 26.7995 1.6215 3.223 1.6235-3.223-1.2562-2.1007.9813-.9803-.3564-2.235c-.0811-.0806-.0659-.0903-.1639-.0903l-.7413.1511-.7431-.1511c-.098 0-.0829.0097-.1633.0903l-.5433 2.235 1.0518.9803h-.0236z" fill="#c30"/><path d="m17.6224 26.717-1.2175-2.013h-.0227l.8043-.7962.123-.1085-.4372-2.3156c-.0781-.0808-.0635-.0905-.1579-.0905l-.7146.1513v8.478z" fill="#a32900"/><path d="m14.0168 26.6068h2.70423v.539326h-2.70423z" fill="#fc0"/><path d="m10.2307 17.618 3.3733 7.191h.0006l2.396-2.373 2.2918-4.818h3.4763l-3.3726 7.191-2.3955-2.373-2.2948-4.818z" fill="#fff"/><path d="m9.06789 18.396-.27919 3.1731 1.9048.8584-1.41562.8639 6.72212 6.7311-5.7449-12.4045z" fill="#1a1a1a"/><path d="m22.9307 18.396.2804 3.1731-1.9052.8584 1.4159.8639-6.722 6.7311 5.7441-12.4045z" fill="#1a1a1a"/><path d="m15.9997 30.5618c.2994 0 .5409.2419.5409.5396 0 .2978-.2415.539-.5409.539-.2981 0-.5408-.2412-.5408-.539 0-.2983.2427-.5396.5408-.5396z" fill="#b3b3b3"/><path d="m15.9998 30.5618c.2994 0 .5409.2419.5409.5396 0 .2978-.2415.539-.5409.539z" fill="#808080"/><path d="m20.1464 27.3258h4.32676v.539326h-4.32676z" fill="#4d4d4d"/><path d="m20.1464 27.3258 1.7654-1.7977 1.0015 1.0186.3976-.4043 1.1622 1.1834h-.7947-1.5291z" fill="#fff"/><path clip-rule="evenodd" d="m9.72562 8.26965c.67818.61077.69978 1.33679.06553 2.17925-1.75795.9566-3.17501.5868-4.24757-1.10994.07034.05423 1.46395-.302 4.18204-1.06931zm12.72798.00001c-.6782.61077-.6998 1.33679-.0655 2.17924 1.7573.9566 3.1744.5868 4.2481-1.10993-.0691.05423-1.4645-.302-4.1826-1.06931z" fill="#963" fill-rule="evenodd"/><path clip-rule="evenodd" d="m12.598 6.51546c.9422.21299.7492 1.09715-.5789 2.65308-3.84065-.49399-5.88202-1.48136-6.06003-2.96629-.31405-2.62325.71742-4.69226 3.0297-6.20225 0 0-.22716.541712-.67966 1.62514-.88404 3.4555.5448 5.08601 4.28889 4.89032zm6.8036 0c-.9421.21299-.7497 1.09715.579 2.65308 3.8394-.49399 5.8808-1.48136 6.0594-2.96629.3153-2.62325-.718-4.69226-3.0285-6.20225l.6779 1.62514c.8846 3.4555-.5436 5.08601-4.2878 4.89032z" fill="#1a1a1a" fill-rule="evenodd"/><path d="m16.1809 22.4719-8.47411-7.0864c.14656-3.7534.86973-6.87396 2.17071-9.36226 1.2636-1.4697 3.3565-1.88841 6.3034-1.88841 2.9452 0 5.0381.41871 6.3011 1.88841 1.3003 2.4883 2.0241 5.60946 2.1713 9.36226z" fill="#c93"/><path d="m15.9998 4.13483c2.9455 0 5.0386.41871 6.3017 1.88841 1.3005 2.4883 2.0244 5.60946 2.1716 9.36226l-8.4733 7.0864z" fill="#a37a29"/><path d="m12.498 12.764c-.0036-1.3671.5556-9.4123-2.56399-6.88159-.05269.05503-.10302.11309-.15215.17175-1.15624 2.27262-1.84773 5.06834-2.07507 8.38714.01612.0072.03234.0144.04867.0215-.02024.3036-.03648.6116-.04867.924l8.47411 7.0851 8.4724-7.0851c-.0356-.9116-.1062-1.7855-.2099-2.6228h-.1303c-.3211-2.5942-.9596-4.83082-1.9151-6.70984-.0497-.05866-.1006-.11672-.1527-.17175-3.1195-2.53071-2.5609 5.51449-2.5635 6.88159z" fill="#963"/><path d="m16.1814 22.4719-5.5899-4.6524v-.0006s.7342-1.0989 2.2007-3.2985c-.0848-.772-.0939-1.3575-.0303-1.7564h1.4242c.5233.5507 1.1879 1.4553 1.9947 2.7161.8051-1.2608 1.469-2.1654 1.9936-2.7161h1.4241c.0636.3995.0533.985-.0303 1.7564 1.4666 2.1996 2.2008 3.2985 2.2008 3.2985v.0006z" fill="#85592b"/><path d="m12.749 14.48c.0436-1.1123 1.7909-.0641 2.5962.48.1309.1002.2641.194.3991.2812l.0006.0006c.1201.0783.2425.1506.3656.2189.2831-.1561.5597-.34.8292-.5506.8345-.5547 2.4797-1.5092 2.5221-.4301 2.3794-4.2103-9.2099-4.2008-6.7128 0z" fill="#1a1a1a"/><path d="m16.181 11.5056c1.0948 0 1.9822.443 1.9822.9888s-.8874.9887-1.9822.9887c-1.0959 0-1.984-.4429-1.984-.9887.0006-.5458.8881-.9888 1.984-.9888z" fill="#666"/><g fill="#1a1a1a"><path d="m16.0907 17.618c-2.7737 0-3.2734-.5092-3.1351-1.618.0372.9279 1.0806 1.1438 3.1351 1.1438 2.0527 0 3.0967-.2159 3.1333-1.1438.1383 1.1088-.3614 1.618-3.1333 1.618z"/><path clip-rule="evenodd" d="m19.7293 10.427c.165-.53796.611-.95786 1.1199-.93573 1.1174.0498 1.7628-.0375 2.3617-.40944-.7113-2.29006-3.8907-2.14497-3.4816 1.34517zm-7.0985 0c-.1644-.53796-.611-.95785-1.1199-.93572-1.118.0498-1.76288-.0375-2.36179-.40945.71071-2.29006 3.89019-2.14497 3.48169 1.34517z" fill-rule="evenodd"/></g></g></svg>