<svg fill="none" height="32" viewBox="0 0 32 32" width="32" xmlns="http://www.w3.org/2000/svg"><path d="m14.3129 31.7351c-1.6958 0-3.4251-.3119-5.10097-.9752-2.80229-1.1082-2.25244-2.581-1.90794-3.3177.0331-.0727.86126-1.579 2.05384-3.7287.25162.2388.51.4776.78157.7032.5167.4313 1.3381 1.0284 2.173 1.0284.4965 0 1.0001-.2121 1.4507-.796 0 0 5.9024-10.6422 9.1353-16.48775 4.7234 4.52495 6.2338 11.33905 3.233 16.75975-2.3521 4.2263-6.9495 6.814-11.8185 6.814z" fill="#e47c81"/><path d="m9.35752 23.7135c-4.72339-4.525-6.24393-11.3522-3.24271-16.77261 2.34498-4.23307 6.94269-6.820803 11.81849-6.820803 1.6958 0 3.4247.311881 5.1006.975223 2.8023 1.10816 2.2524 2.58097 1.9079 3.31738-.0331.07306-.8511 1.59898-2.0437 3.74867-.2516-.23882-.5198-.49726-.7913-.72288-.5168-.43163-1.3382-1.02867-2.1731-1.02867-.4968 0-1.0004.21243-1.4506.79628 0 .00677-5.893 10.66211-9.12558 16.50741z" fill="#e16c74"/><path d="m12.3112 25.4454c.4969 0 1.0004-.2124 1.451-.7959 0 0 5.9025-10.6426 9.1354-16.48782-.252-.23881-.5201-.49759-.7917-.72321-.5167-.43129-1.3381-1.02833-2.1727-1.02833-.4968 0-1.0004.21209-1.451.79594 0 .00677-5.8927 10.66252-9.12557 16.50742.25162.2391.51.478.78187.7036.5164.4309 1.3382 1.0283 2.1727 1.0283z" fill="#da455f"/></svg>