<svg width="32" height="32" viewBox="0 0 32 32" fill="none" xmlns="http://www.w3.org/2000/svg">
<path fill-rule="evenodd" clip-rule="evenodd" d="M31.09 10.6667C31.679 12.3344 32 14.13 32 16C32 17.87 31.679 19.6656 31.09 21.3333C28.8933 27.5478 22.9668 32 16 32C14.1293 32 12.3342 31.6789 10.6656 31.0886L10.5546 31.0489L16.2222 21.3333H19.1111L22.2222 16L20.7778 13.5233L19.1111 10.6667H31.09ZM16 0C17.8707 0 19.6658 0.321124 21.3345 0.911363L21.4456 0.951111L15.7778 10.6667H12.8889L9.77778 16L11.2222 18.4756L12.8889 21.3333H0.909888C0.321111 19.6656 0 17.87 0 16C0 14.13 0.321111 12.3344 0.909888 10.6667C3.10667 4.45222 9.03333 0 16 0Z" fill="black"/>
</svg>
