<svg fill="none" height="32" viewBox="0 0 32 32" width="32" xmlns="http://www.w3.org/2000/svg"><g clip-rule="evenodd" fill="#045adb" fill-rule="evenodd"><path d="m31.7066 19.5878c-.4752 0-.8385.0707-1.1459.1839.1817-.5943.2795-1.231.2935-1.896 0-.1132-.042-.2123-.1118-.2972-.0699-.0707-.1817-.1273-.2935-.1273h-5.3939v-.5377-1.6414-.6508c0-.2264-.1816-.4104-.4052-.4104h-1.9703v-.665c0-.2264-.1817-.4104-.4053-.4104h-5.9528c-1.1878-1.2593-2.8786-2.0375-4.7371-2.0375h-.014v-.948c0-.22643-.1816-.41038-.4052-.41038h-.8385c-.2235 0-.4052.18395-.4052.41038v.2688h-.74061v-.76408c0-.22639-.18166-.41034-.40524-.41034h-.83843c-.2096 0-.39126.18395-.39126.41034v1.40078c-.00534.0054-.01068.0088-.01524.0116-.00737.0047-.01271.008-.01271.0167l-2.8786 3.1271h-.47511c-.22358 0-.40524.184-.40524.4104v2.844h-2.09607c-.11179 0-.20961.0425-.29345.1274-.06987.0707-.11179.1839-.11179.283.02795 1.2593.33537 2.2073.67074 2.8724-.37729-.1132-.65677-.2972-.936244-.4811-.153712-.0991-.307424-.1981-.47511-.2972-.125764-.0707-.279476-.0283-.349345.1132-.0698685.1274-.027947.283.097817.3538.153712.0849.29345.1698.447162.2688.47511.3255 1.02009.6792 2.04017.6792 1.02009 0 1.56507-.3679 2.02621-.6792l.03221-.0213c.35197-.2333.6974-.4623 1.25337-.5447h-.00001c-.06986-.1698-.13973-.3396-.19562-.5094-.60979.1098-.99618.3659-1.35033.6007l-.03307.0219c-.44717.3113-.88035.5943-1.74673.5943h-.15371c-.23756-.3962-.51703-.9763-.67074-1.7263h2.11004c.13974 0 .2655-.1132.2655-.2688s-.11179-.2688-.2655-.2688h-2.19389c-.02794-.1981-.04192-.3962-.04192-.6085h3.22795c.29345 0 .531-.2264.54498-.5235.13974-3.2827 2.78078-5.8438 6.02272-5.8438 3.2419 0 5.883 2.5752 6.0227 5.8438.014.2971.2515.5235.545.5235h12.1712c-.007.0991-.014.2016-.021.3042s-.014.2052-.021.3043h-2.124c-.1397 0-.2655.1132-.2655.2688s.1118.2688.2655.2688h2.0262c-.0699.3396-.1677.6651-.2934.9764 0 .0141 0 .0141-.014.0283-.0349.0212-.0699.046-.1048.0707-.0349.0248-.0699.0495-.1048.0708-.4472.3113-.8804.5943-1.7467.5943-.8804 0-1.2996-.283-1.7468-.5943-.4751-.3255-1.0061-.6792-2.0262-.6792s-1.565.3537-2.0262.6792c-.4471.3113-.8803.5943-1.7467.5943s-1.2996-.283-1.7467-.5943c-.3773-.2547-.7546-.5094-1.3555-.6226-.0559.1698-.1257.3396-.1956.5094.5507.0836.8843.3046 1.2415.5411l.0161.0107c.4751.3255 1.0201.6792 2.0402.6792s1.5651-.3679 2.0262-.6792c.4472-.3113.8804-.5943 1.7467-.5943.8664 0 1.2856.283 1.7328.5943.4751.3255 1.0061.6792 2.0402.6792 1.02 0 1.565-.3679 2.0262-.6792.4471-.3113.8803-.5943 1.7467-.5943.1397 0 .2655-.1132.2655-.2688 0-.1557-.1118-.2547-.2515-.2547zm-21.2538-9.3105h.5869v.849c-.1957.0142-.4053.0425-.6009.0708v-.9198zm-.53104 1.033v-.3679h-.74061v.6084c.25153-.0991.48908-.1698.74061-.2405zm-1.2578-1.52818v2.00928c-.2096.099-.40524.2122-.60087.3396v-2.34888zm-3.64715 7.68328.01398-.0141c.04192-.9763.29345-1.8961.69869-2.7026h-1.43931v2.7167zm1.00626-3.2544h-.67074l2.19388-2.3771v.665c-.60087.4811-1.1179 1.0471-1.52314 1.7121zm17.17373 2.1932h1.3275v-.6085h-1.3275zm-1.0482-2.7309v.5377h-5.0027c-.1118-.184-.2375-.3679-.3773-.5377zm-4.7091 1.0612c.4052.8207.6428 1.7405.6847 2.7168 0 .0071.0035.0106.007.0141.0035.0036.007.0071.007.0142h6.386v-.5377h-1.4533c-.2236 0-.4052-.184-.4052-.4103v-.849c0-.2264.1816-.4104.4052-.4104h1.4533v-.5377z"/><path d="m6.27454 17.7343c0-2.9714 2.37554-5.3769 5.31006-5.3769 2.9205 0 5.31 2.4055 5.31 5.3769s-2.3755 5.3769-5.31 5.3769c-2.93452 0-5.31006-2.4055-5.31006-5.3769zm6.88896-4.5421c-.5031-.1698-1.0341-.2688-1.5791-.2688-1.88642 0-3.52136 1.1178-4.27594 2.7025l.65676.283c.39127-.8065 1.03406-1.4574 1.83057-1.8536l-.06987-.1556c-.05589-.1274 0-.283.13974-.3396s.29344 0 .34934.1415l.0699.1556c.4052-.1415.8524-.2122 1.2995-.2122.4612 0 .8944.0707 1.2996.2122zm1.9284 4.542c0 .3821-.0558.7641-.1816 1.1179l-1.8446-.7783c.028-.1132.042-.2264.042-.3396s-.014-.2264-.042-.3396l1.8446-.7782c.1258.3537.1816.7216.1816 1.1178zm-6.83304-1.1178c-.12576.3537-.18165.7358-.18165 1.1178 0 .3821.05589.7641.16768 1.1037l1.85851-.7641c-.0279-.1132-.0419-.2264-.0419-.3396s.014-.2264.0419-.3396zm4.10814.4952c.1118.1415.1816.3113.1956.4953 0 .0212.0035.0424.007.0637.0035.0212.007.0424.007.0636 0 .0425 0 .0849-.014.1274-.0279.1839-.0978.3537-.1956.4952-.0559.0708-.1118.1274-.1817.184-.1397.1132-.3074.1839-.4891.1981-.0209 0-.0419.0035-.0628.007-.021.0036-.042.0071-.0629.0071-.0419 0-.0839 0-.1258-.0141-.1817-.0283-.3493-.0991-.4891-.1981-.0698-.0566-.1257-.1132-.1816-.184-.1118-.1415-.1817-.3113-.1957-.4952 0-.0213-.0035-.0425-.007-.0637-.0034-.0212-.0069-.0425-.0069-.0637 0-.0424 0-.0849.0139-.1273.028-.184.0978-.3538.1957-.4953.0559-.0707.1118-.1273.1816-.1839.1398-.1132.3074-.1839.4891-.1981.021 0 .0419-.0035.0629-.0071.021-.0035.0419-.007.0629-.007.0419 0 .0838 0 .1257.0141.1817.0283.3494.099.4891.2122.0699.0425.1258.0991.1817.1698zm-3.91271-.9904 1.84451.7783c.1258-.184.2795-.3396.4751-.4811l-.7685-1.8678c-.67076.3396-1.21574.8914-1.55111 1.5706zm1.84461 2.4337c.1258.184.2795.3538.4612.467l-.76861 1.8677c-.67074-.3396-1.21572-.8914-1.55109-1.5706zm1.2857.7217c-.1118 0-.2236-.0142-.3354-.0425l-.7685 1.8678c.3493.1273.7266.1839 1.1039.1839.3913 0 .7546-.0707 1.1039-.1839l-.7685-1.8678c-.1118.0283-.2236.0425-.3354.0425zm.8103-.2406c.1817-.1273.3494-.283.4611-.4669l1.8446.7782c-.3354.6792-.8804 1.231-1.5511 1.5706zm.0139-2.6035c.1817.1132.3354.283.4611.467l1.8586-.7783c-.3354-.6792-.8804-1.231-1.5511-1.5706zm-.5028-.1981c-.1118-.0283-.2096-.0424-.3354-.0424-.1257 0-.2235.0141-.3353.0424l-.7546-1.8819c.3493-.1132.7126-.1839 1.1039-.1839.3773 0 .7546.0566 1.09.1839zm-4.80704-.0991c-.16769.5094-.2655 1.0471-.2655 1.5989 0 1.9102 1.10393 3.5516 2.66899 4.344l.27948-.665c-.79651-.3962-1.4393-1.0471-1.83057-1.8537l-.15371.0708c-.02795.0141-.06987.0141-.09782.0141-.09782 0-.19563-.0707-.23755-.1698-.0559-.1414 0-.2971.13973-.3537l.15372-.0707c-.13974-.4104-.20961-.8632-.20961-1.316 0-.4669.06987-.9055.20961-1.3159zm4.48544 6.4098c-.545 0-1.076-.099-1.5791-.2688l.2795-.6651c.4052.1415.8384.2123 1.2996.2123.4471 0 .8943-.0708 1.2995-.2123l.0699.1557c.0419.099.1397.1698.2376.1698.0279 0 .0698 0 .0978-.0283.1397-.0566.1956-.2123.1397-.3396l-.0699-.1556c.7965-.3962 1.4393-1.0471 1.8306-1.8537l.6568.283c-.7546 1.5848-2.3756 2.7026-4.262 2.7026zm3.8287-3.5091.6568.283c.1677-.4953.2655-1.0329.2934-1.5989 0-1.8961-1.1039-3.5516-2.6969-4.3298l-.2795.665c.7965.3962 1.4393 1.0471 1.8306 1.8536l.1537-.0707c.1258-.0566.2795 0 .3354.1415s0 .2971-.1398.3537l-.1537.0708c.1398.4103.2096.8631.2096 1.3159 0 .4669-.0698.9056-.2096 1.3159z"/><path d="m18.9906 15.2722h2.7528c.2236 0 .4052.184.4052.4104v.8489c0 .2264-.1816.4104-.4052.4104h-2.7528c-.2236 0-.4053-.184-.4053-.4104v-.8489c0-.2264.1817-.4104.4053-.4104zm.1118 1.132h2.5153v-.6085h-2.5153z"/></g></svg>