<svg fill="none" height="32" viewBox="0 0 32 32" width="32" xmlns="http://www.w3.org/2000/svg"><path d="m28.5887 16.6139c-.9093 1.9811-1.9486 3.7998-2.8904 5.3587-.9743 1.6888-1.9161 3.2152-3.1178 4.904-.4547.6495-.9743 1.364-1.5589 2.111-1.4939 1.8511-3.7673 3.5399-6.268 2.8579-2.5331-.7145-3.8972-3.0203-5.32614-5.0339-2.20841-3.0528-4.28692-6.3979-5.97571-10.1002-1.62384-3.5725-3.117763-8.08672-.81192-11.72411.61706-.9743 1.42898-1.75374 2.33832-2.40327.61706-.4222 1.29907-.74697 1.98108-1.03926 4.74157-1.9486 10.65237-1.883647 15.55637-.746963 1.5264.357243 2.9553.876873 4.2219 1.656313.8444.51963 1.5914 1.20164 2.2085 2.01355.9418 1.23412 1.3965 2.53318 1.5264 3.86473.3572 2.76051-.6821 5.68341-1.8837 8.28151z" fill="#2c3238"/></svg>